G04 ================== begin FILE IDENTIFICATION RECORD ==================*
G04 Layout Name:  //Mac/Home/Desktop/SPB_Data/Capture/cis_atcs/allegro/ATCS_Final.brd*
G04 Film Name:    SIG1*
G04 File Format:  Gerber RS274X*
G04 File Origin:  Cadence Allegro 17.2-P019*
G04 Origin Date:  Thu May 31 11:23:02 2018*
G04 *
G04 Layer:  ETCH/SIG1*
G04 Layer:  PIN/SIG1*
G04 Layer:  VIA CLASS/SIG1*
G04 *
G04 Offset:    (0.00 0.00)*
G04 Mirror:    No*
G04 Mode:      Positive*
G04 Rotation:  0*
G04 FullContactRelief:  No*
G04 UndefLineWidth:     0.00*
G04 ================== end FILE IDENTIFICATION RECORD ====================*
%FSLAX55Y55*MOIN*%
%IR0*IPPOS*OFA0.00000B0.00000*MIA0B0*SFA1.00000B1.00000*%
%ADD23C,.03*%
%ADD18C,.04*%
%ADD11C,.022*%
%ADD15C,.06*%
%ADD13C,.024*%
%ADD21C,.07*%
%ADD16C,.025*%
%ADD12C,.026*%
%ADD10C,.035*%
%ADD19C,.09*%
%ADD17C,.036*%
%ADD14C,.2*%
%ADD22C,.12*%
%ADD20C,.118*%
%ADD24C,.01*%
%ADD25C,.012*%
%ADD26C,.014*%
%ADD27C,.016*%
%ADD28C,.004*%
%ADD29C,.005*%
%ADD30C,.006*%
%ADD31C,.008*%
%ADD32C,.07004*%
%ADD33C,.03604*%
G75*
%LPD*%
G75*
G36*
G01X110096Y229961D02*
G03X112440Y227786I1104J-1161D01*
G02X113060I310J-253D01*
G03X115445Y229920I1240J1014D01*
G02Y230480I286J280D01*
G03X115528Y232629I-1145J1120D01*
G01X115410Y232769D01*
X117600Y234959D01*
Y252700D01*
X138200D01*
Y234502D01*
G02X138000Y234302I-200J0D01*
G03Y230698I0J-1802D01*
G02X138200Y230498I0J-200D01*
G01Y207200D01*
X95985D01*
X95727Y207458D01*
X95821Y207595D01*
G03X92898Y208522I-1321J905D01*
G03X92810Y208062I1164J-461D01*
G01Y207605D01*
G02X92469Y207463I-200J0D01*
G01X92444Y207488D01*
X92433Y207504D01*
G03X89277Y207200I-1496J-1004D01*
G01X87659D01*
G03X84339I-1660J-700D01*
G01X81660D01*
G03X78340I-1660J-700D01*
G01X73900D01*
Y212001D01*
X74088Y212198D01*
X74163Y212205D01*
G03X75432Y212906I-163J1795D01*
G02X76068I318J-242D01*
G03Y215094I1432J1094D01*
G02X75432I-318J242D01*
G03X74163Y215795I-1432J-1094D01*
G01X74088Y215802D01*
X73900Y215999D01*
Y252700D01*
X78898D01*
Y240260D01*
X82960Y236198D01*
X89066D01*
G03X91309Y236575I934J1302D01*
G01X91336Y236614D01*
X91500Y236701D01*
X91665Y236613D01*
X91692Y236574D01*
G03X91748Y236500I1305J930D01*
G01Y234902D01*
X88215D01*
X87065Y233752D01*
X83482D01*
X83324Y233594D01*
X83259Y233584D01*
G03X84915Y231248I241J-1584D01*
G01X87991D01*
X88044Y231131D01*
G03X88316Y230721I1455J670D01*
G02X88296Y230161I-295J-270D01*
G03X90641Y227986I1105J-1161D01*
G02X91260I310J-253D01*
G03X93645Y230120I1240J1014D01*
G02Y230680I286J280D01*
G03X93778Y232765I-1145J1120D01*
G01X93674Y232904D01*
X94252Y233482D01*
Y236500D01*
G03X94302Y238434I-1252J1000D01*
G01Y252041D01*
G02X94606Y252700I304J259D01*
G01X96266D01*
G02X96660Y252234I-1J-400D01*
G03X100214I1777J-297D01*
G02X100608Y252700I395J66D01*
G01X112698D01*
Y239192D01*
G02X112085Y238854I-400J0D01*
G03X109926Y236566I-857J-1354D01*
G01Y234361D01*
X110639Y233648D01*
G02X110545Y233013I-283J-283D01*
G03X110116Y230521I755J-1413D01*
G02X110096Y229961I-295J-270D01*
G37*
G36*
G01X89066Y238802D02*
X84038D01*
X81502Y241338D01*
Y244881D01*
G02X82010Y245266I400J0D01*
G03X83750Y245702I490J1734D01*
G03Y248298I1250J1298D01*
G03X82010Y248734I-1250J-1298D01*
G02X81502Y249119I-108J385D01*
G01Y252700D01*
X89959D01*
X91698Y250961D01*
Y239024D01*
G02X91039Y238719I-400J0D01*
G03X89066Y238802I-1040J-1219D01*
G37*
%LPC*%
G75*
G36*
G01X129068Y212906D02*
G03X128432I-318J-242D01*
G02Y215094I-1432J1094D01*
G03X129068I318J242D01*
G02Y212906I1432J-1094D01*
G37*
G36*
G01X79197Y218998D02*
G03X78997Y219198I-200J0D01*
G02X80802Y221003I3J1802D01*
G03X81002Y220803I200J0D01*
G02X79197Y218998I-3J-1802D01*
G37*
G36*
G01X126503Y219698D02*
G03X126303Y219498I0J-200D01*
G02X124498Y221303I-1802J3D01*
G03X124698Y221503I0J200D01*
G02X126503Y219698I1802J-3D01*
G37*
G36*
G01X121228Y248319D02*
G03X121772I272J293D01*
G02Y245681I1228J-1319D01*
G03X121228I-272J-293D01*
G02Y248319I-1228J1319D01*
G37*
G54D32*
X124500Y229500D03*
G54D33*
X99800Y240500D03*
%LPD*%
G75*
G54D10*
X23000Y38500D03*
Y43500D03*
Y48500D03*
Y53500D03*
Y58500D03*
Y63500D03*
Y68500D03*
Y73500D03*
Y78500D03*
Y83500D03*
Y88500D03*
Y93500D03*
Y98500D03*
Y103500D03*
Y108500D03*
Y113500D03*
Y118500D03*
Y123500D03*
Y128500D03*
Y133500D03*
Y138500D03*
Y143500D03*
Y148500D03*
Y153500D03*
Y158500D03*
Y163500D03*
Y168500D03*
Y173500D03*
Y178500D03*
Y183500D03*
Y188500D03*
Y193500D03*
Y198500D03*
Y203500D03*
Y208500D03*
Y213500D03*
Y218500D03*
Y223500D03*
Y228500D03*
Y233500D03*
X43000Y38500D03*
Y43500D03*
Y48500D03*
Y53500D03*
X28000Y38500D03*
Y43500D03*
Y48500D03*
Y53500D03*
X43000Y58500D03*
Y63500D03*
Y68500D03*
Y73500D03*
X28000Y58500D03*
Y63500D03*
Y68500D03*
Y73500D03*
X43000Y78500D03*
Y83500D03*
Y88500D03*
Y93500D03*
X28000Y78500D03*
Y83500D03*
Y88500D03*
Y93500D03*
X43000Y98500D03*
Y103500D03*
Y108500D03*
Y113500D03*
Y118500D03*
X28000Y98500D03*
Y103500D03*
Y108500D03*
Y113500D03*
Y118500D03*
X43000Y123500D03*
Y128500D03*
Y133500D03*
Y138500D03*
X28000Y123500D03*
Y128500D03*
Y133500D03*
Y138500D03*
X43000Y143500D03*
Y148500D03*
Y153500D03*
Y158500D03*
X28000Y143500D03*
Y148500D03*
Y153500D03*
Y158500D03*
X43000Y163500D03*
Y168500D03*
Y173500D03*
Y178500D03*
Y183500D03*
X28000Y163500D03*
Y168500D03*
Y173500D03*
Y178500D03*
Y183500D03*
X43000Y188500D03*
Y193500D03*
Y198500D03*
Y203500D03*
X28000Y188500D03*
Y193500D03*
Y198500D03*
Y203500D03*
X43000Y208500D03*
Y213500D03*
Y218500D03*
Y223500D03*
X28000Y208500D03*
Y213500D03*
Y218500D03*
Y223500D03*
X43000Y228500D03*
Y233500D03*
X28000Y228500D03*
Y233500D03*
X48000Y38500D03*
Y43500D03*
Y48500D03*
Y53500D03*
Y58500D03*
Y63500D03*
Y68500D03*
Y73500D03*
Y78500D03*
Y83500D03*
Y88500D03*
Y93500D03*
Y98500D03*
Y103500D03*
Y108500D03*
Y113500D03*
Y118500D03*
Y123500D03*
Y128500D03*
Y133500D03*
Y138500D03*
Y143500D03*
Y148500D03*
Y153500D03*
Y158500D03*
Y163500D03*
Y168500D03*
Y173500D03*
Y178500D03*
Y183500D03*
Y188500D03*
Y193500D03*
Y198500D03*
Y203500D03*
Y208500D03*
Y213500D03*
Y218500D03*
Y223500D03*
Y228500D03*
Y233500D03*
G54D20*
X178700Y263450D03*
G54D11*
X14500Y45000D03*
X15500Y166000D03*
X10500Y222500D03*
X39000Y81000D03*
X38770Y105577D03*
X34000Y114500D03*
X33000Y189000D03*
X38500Y239000D03*
X34000Y230500D03*
X37000Y236000D03*
X66500Y7000D03*
X59500Y22500D03*
X66000Y27500D03*
X59676Y18500D03*
X63000Y14500D03*
X62049Y60451D03*
X52500Y96000D03*
X52220Y134280D03*
X57000Y138500D03*
X58500Y120500D03*
X62000Y131500D03*
X53500Y147500D03*
Y193500D03*
X60500Y216000D03*
X54000Y229000D03*
X57500Y234500D03*
X56000Y247500D03*
X65500Y271000D03*
X71500Y9150D03*
X69000Y4500D03*
X72500Y27500D03*
X71000Y64000D03*
X80610Y60110D03*
X67016Y66016D03*
X76079Y62079D03*
X86500Y74000D03*
X71350Y113150D03*
X80500Y104500D03*
X71000Y143547D03*
X80390Y148890D03*
Y139610D03*
X76079Y141579D03*
Y158921D03*
X82500Y158500D03*
X83000Y178350D03*
X67016Y189016D03*
X82577Y201000D03*
X67500Y208500D03*
X83500Y232000D03*
X72000Y264000D03*
X69000Y267500D03*
X76000Y262000D03*
X93500Y11000D03*
X106000Y41063D03*
X106500Y66500D03*
X109579Y71921D03*
X90500Y77000D03*
X94500Y84500D03*
X109000Y77000D03*
X109579Y151421D03*
X90500Y156500D03*
X109000D03*
X94500Y164000D03*
X100000Y178350D03*
X92500Y203000D03*
X94500Y208500D03*
X97724Y229576D03*
X100724D03*
X103724D03*
X106724D03*
X97724Y232576D03*
X100724D03*
X103724D03*
X106724D03*
X89500Y231800D03*
X92500D03*
X89400Y229000D03*
X92500D03*
X93000Y237500D03*
X90000D03*
X104500Y277000D03*
X99500D03*
X125000Y18500D03*
X118500Y39000D03*
X124500Y52500D03*
X118579Y53000D03*
X112000Y54000D03*
X119000Y71500D03*
Y62500D03*
X123500Y67000D03*
X128000Y71500D03*
Y62500D03*
X118579Y84000D03*
Y86600D03*
X113000Y76983D03*
X118500Y105500D03*
X112000Y115000D03*
Y99500D03*
X124000D03*
X130500D03*
X112500Y132596D03*
X118579Y132500D03*
X118500Y118500D03*
X125500D03*
X129000Y132500D03*
Y120000D03*
X110516Y147484D03*
X119000Y142000D03*
X123500Y146500D03*
X128000Y142000D03*
X119000Y151000D03*
X113000Y156483D03*
X128000Y151000D03*
X112000Y179000D03*
X118579Y166100D03*
Y163500D03*
X129000Y172000D03*
X122500Y194000D03*
X118500Y185000D03*
X114300Y228800D03*
X111200D03*
X114300Y231600D03*
X111300D03*
X114000Y237500D03*
X111228D03*
X112000Y277000D03*
X117000D03*
X136500Y13000D03*
X135500Y55500D03*
X151500Y60500D03*
X150437Y71937D03*
X151500Y55500D03*
X137500Y63000D03*
Y70500D03*
X138000Y66016D03*
X137750Y57250D03*
X134500Y135500D03*
X151500Y135000D03*
X138469Y135470D03*
X150437Y151437D03*
X151500Y140000D03*
X137500Y142500D03*
Y150000D03*
X138000Y145516D03*
X153500Y51000D03*
X167000Y73000D03*
X164272Y61728D03*
X161500Y60000D03*
X168500Y55500D03*
Y66500D03*
X167000Y78000D03*
X157500Y81000D03*
X157000Y84000D03*
X170000Y74500D03*
X169500Y101000D03*
X153700Y103800D03*
X157000Y123500D03*
X153000Y154500D03*
X172500Y161500D03*
X153000Y168500D03*
Y161500D03*
X154500Y165500D03*
X158000Y166500D03*
X170685Y200000D03*
X167316D03*
X190500Y38500D03*
X195500Y38484D03*
X175547Y64700D03*
X186000Y62500D03*
X181000Y69000D03*
X193808Y87984D03*
X190500Y88000D03*
X176500Y108801D03*
X185400Y134000D03*
X181500Y131300D03*
X181700Y120900D03*
X191000Y148000D03*
X185400Y174300D03*
X179200Y177500D03*
X195500Y204500D03*
X202300Y41500D03*
X202500Y46000D03*
X202300Y35500D03*
Y31500D03*
X202000Y81500D03*
X202300Y85000D03*
Y94500D03*
Y91000D03*
X197000Y88000D03*
X196500Y147984D03*
X202800Y140000D03*
Y145000D03*
Y151000D03*
Y154701D03*
X207228Y194228D03*
X215500Y191000D03*
X203000Y189000D03*
X221500Y11000D03*
X230000Y20000D03*
X231500Y40500D03*
X235000Y31500D03*
X237500Y36500D03*
X228500Y55000D03*
X239000Y61803D03*
X238400Y77700D03*
X227773Y110183D03*
X235000Y123500D03*
X222000Y120000D03*
X226000D03*
X235000Y150000D03*
X236200Y162500D03*
X228500Y169000D03*
X221500Y174200D03*
X232700Y172100D03*
X228500Y199000D03*
X227500Y190000D03*
X222000Y191000D03*
X237909Y195854D03*
X218432Y189526D03*
X219000Y198000D03*
X232750Y188750D03*
X234600Y207500D03*
X231500Y208500D03*
X219000Y204000D03*
X226000Y222500D03*
X237000Y204062D03*
X229500Y210447D03*
X227000Y208500D03*
X222500Y206997D03*
X229524Y221477D03*
X221500Y240000D03*
X221594Y243406D03*
X224485Y243485D03*
X238900Y231000D03*
X224100D03*
X238500Y243000D03*
X228500Y236500D03*
X234500D03*
X223550Y261450D03*
X236000Y259500D03*
X229000Y254000D03*
X232500D03*
X243500Y25500D03*
X241500Y20500D03*
X243500Y14000D03*
X242300Y45600D03*
X259900Y50900D03*
X251500Y67300D03*
X242400Y60000D03*
X240500Y73000D03*
X242000Y67887D03*
X251600Y63200D03*
X251900Y53400D03*
X242000Y65000D03*
X257000Y57500D03*
X257800Y63000D03*
X259500Y67300D03*
X255000D03*
X254700Y63000D03*
X251900Y82100D03*
X252000Y79500D03*
X243000Y83500D03*
X260000Y93000D03*
X260400Y74600D03*
X257000Y74500D03*
X259500Y84000D03*
X251900Y74400D03*
X242500Y77000D03*
X255000Y93500D03*
X260000Y105000D03*
X253500Y109500D03*
X255500Y115700D03*
X256000Y121500D03*
X255000Y125700D03*
Y174500D03*
X247437Y166437D03*
X258500Y186500D03*
X240500Y195001D03*
X247437Y184063D03*
X240500Y239000D03*
X241406Y243406D03*
X279000Y16500D03*
X274000Y20000D03*
X263500Y50500D03*
X268000Y51000D03*
X267200Y41500D03*
X263300Y67100D03*
X281900Y66600D03*
X274900Y69900D03*
X265750Y74250D03*
X275504Y72596D03*
X266500Y56000D03*
X276050Y66150D03*
X265705Y69107D03*
X265000Y61000D03*
X269600Y85000D03*
X275500Y84400D03*
X275258Y80310D03*
X275700Y93500D03*
X265000Y77500D03*
X263500Y84300D03*
X261161Y113339D03*
X273000Y110000D03*
X271500Y117126D03*
X270000Y113339D03*
X263505Y111997D03*
X263720Y134280D03*
X276694Y129426D03*
X270000Y120500D03*
X272500Y132500D03*
X273000Y125000D03*
X282000Y130449D03*
X268000Y149500D03*
Y158000D03*
X260904Y157096D03*
X263898Y149300D03*
X280772Y196228D03*
X275272D03*
X278000Y203500D03*
X274500Y188500D03*
X275500Y211000D03*
X266000D03*
X278000Y224500D03*
X273000D03*
X268500D03*
X263500D03*
X268500Y204500D03*
X262500Y211500D03*
X271500Y211000D03*
X278000Y235500D03*
X276000Y246567D03*
X275500Y265300D03*
X275864Y257636D03*
X275500Y253000D03*
X281000Y268500D03*
X283437Y13063D03*
X286500Y48500D03*
X283437Y56937D03*
X289000Y53500D03*
X287500Y61600D03*
X291400Y55600D03*
X290500Y69200D03*
X291500Y61500D03*
X293900Y74000D03*
X292700Y87800D03*
X282500Y77800D03*
X289126Y117126D03*
X290500Y108626D03*
X288500Y103500D03*
X284864Y130000D03*
X284364Y117500D03*
X289500Y151500D03*
Y172000D03*
X302315Y200000D03*
X301250Y184750D03*
X285000Y211000D03*
X294500D03*
X292000Y224500D03*
X282500D03*
X301500D03*
X287500D03*
X297000D03*
X286500Y245500D03*
X293500Y263000D03*
X299450D03*
X286500Y249547D03*
X286000Y255453D03*
X297500Y251000D03*
X291500Y277500D03*
X299500Y278000D03*
X297000Y275500D03*
X311000Y16500D03*
X322000Y53728D03*
X323000Y58500D03*
X315100Y67000D03*
X311151Y63700D03*
X308100Y76600D03*
X324600Y74400D03*
X320500Y84000D03*
X319500Y91000D03*
X315100Y88600D03*
X324550Y78350D03*
X306500Y116000D03*
X308500Y97000D03*
X318000Y102000D03*
X314000Y96500D03*
Y107000D03*
X312500Y145000D03*
X312000Y158000D03*
X313500Y180000D03*
X312500Y174000D03*
X309500Y172000D03*
X320500Y199500D03*
X311815D03*
X319631Y183000D03*
X315184Y199500D03*
X323000Y183000D03*
X304000Y211000D03*
X313500D03*
X323000D03*
X306500Y224500D03*
X316000D03*
X320500D03*
X311000D03*
X320000Y245000D03*
X319500Y257000D03*
X320000Y251000D03*
X318588Y254000D03*
X304000Y282000D03*
X327500Y30500D03*
X343500Y10500D03*
X330000Y50500D03*
X335336Y32500D03*
X346500Y74000D03*
X325500Y64500D03*
X345500Y56500D03*
X337500Y73000D03*
X334600Y64200D03*
X347000Y70500D03*
X337500Y59000D03*
X339300Y69300D03*
X337500Y87000D03*
X332300Y92700D03*
X345200Y86500D03*
X346500Y77400D03*
X345500Y81000D03*
X345000Y111500D03*
X330500Y139000D03*
X346500Y121000D03*
X345500Y125500D03*
X330500Y151000D03*
X338000Y145000D03*
X331030Y153648D03*
X333000Y175500D03*
X337500Y180000D03*
X341000D03*
X330000Y199500D03*
X343816Y201000D03*
X332500Y211000D03*
X345500D03*
X330000Y224500D03*
X335000D03*
X343000D03*
X325500D03*
X327500Y209500D03*
X337000D03*
X342500Y246500D03*
X333000Y250500D03*
X343000Y257500D03*
X342500Y251500D03*
X346827Y263327D03*
X365000Y25000D03*
X355750Y10750D03*
X362500Y10000D03*
X367000D03*
X359000Y10500D03*
X347900Y53900D03*
X366000Y73500D03*
X357913Y68300D03*
X357900Y56300D03*
X348550Y66550D03*
X347963Y59272D03*
X358700Y73000D03*
X362500Y83000D03*
X352000Y98500D03*
X356316Y137500D03*
X354500Y130500D03*
X359685Y137500D03*
X351131Y130500D03*
X350500Y137000D03*
X347500Y128000D03*
X365316Y149000D03*
X355500Y161000D03*
X361000Y163500D03*
X349000Y175000D03*
X366185Y201000D03*
X362816D03*
X353316D03*
X347185D03*
X356685D03*
X364500Y211000D03*
X355000D03*
X362000Y224500D03*
X357500D03*
X367000D03*
X352500D03*
X348000D03*
X366000Y245500D03*
X355500Y246567D03*
X366000Y249547D03*
X365500Y255453D03*
X353000Y266000D03*
X355000Y253000D03*
X361000Y268500D03*
X369500Y21500D03*
X369000Y38500D03*
X385185Y150000D03*
X368685Y149000D03*
X381816Y150000D03*
X387316Y164000D03*
X386816Y176500D03*
X371933Y200500D03*
X385185D03*
X375302D03*
X381816D03*
X374000Y211000D03*
X383500D03*
X371500Y224500D03*
X381000D03*
X386000D03*
X376500D03*
X373000Y263000D03*
X378950D03*
X384500Y282000D03*
X376000Y280000D03*
Y274500D03*
X399500Y3000D03*
X396000Y30500D03*
X409000Y16500D03*
X392500Y33500D03*
X390500Y54000D03*
X403600Y117100D03*
X405400Y101300D03*
X409036Y104664D03*
X411616Y112500D03*
X403453Y148081D03*
X394302Y157000D03*
X390933D03*
X399000Y157500D03*
X407500Y172000D03*
X400000Y176000D03*
X390685Y164000D03*
X390185Y176500D03*
X406500Y163000D03*
X399500Y166000D03*
X406500D03*
X406000Y175500D03*
X404185Y199500D03*
X400816D03*
X394302Y201000D03*
X390933D03*
X410315Y201500D03*
X397500Y185000D03*
X393000Y211000D03*
X402500D03*
X409500Y224500D03*
X395500D03*
X400000D03*
X390500D03*
X405000D03*
X399500Y246000D03*
X399000Y257000D03*
X401500Y263500D03*
X400000Y251000D03*
X398500Y254000D03*
X427500Y22423D03*
Y25677D03*
X424500Y17823D03*
Y21077D03*
X414400Y48000D03*
X427528Y116472D03*
X414985Y112500D03*
X423500Y96000D03*
X423400Y99500D03*
X421500Y116500D03*
X428250Y123250D03*
X413500Y159500D03*
X423000Y159000D03*
X428500Y152500D03*
X426515Y172985D03*
X427250Y177250D03*
X419500Y179500D03*
X414340Y179380D03*
X416500Y181000D03*
X426500Y170000D03*
X430000Y168500D03*
X418500Y203500D03*
X432315Y201000D03*
X423173Y201358D03*
X426542D03*
X417000Y189000D03*
X420000D03*
X413684Y201500D03*
X421500Y182500D03*
X424500Y211000D03*
X412000D03*
X427000Y224500D03*
X422000D03*
X431500D03*
X414500D03*
X421500Y246500D03*
Y267000D03*
X422000Y257500D03*
X421500Y251500D03*
X412500Y250500D03*
X442250Y11250D03*
X433500Y46077D03*
Y42823D03*
X440500Y55500D03*
Y58869D03*
X439650Y106300D03*
X439000Y137000D03*
X440000Y126500D03*
X436364Y153000D03*
X435864Y140500D03*
X440000Y144000D03*
X445500Y168000D03*
X437000Y187500D03*
X447026Y196891D03*
X451315Y200500D03*
X454684D03*
X446973Y199591D03*
X435684Y201000D03*
X453000Y211000D03*
X443500D03*
X434000D03*
X436500Y224500D03*
X441000D03*
X450500D03*
X446000D03*
X445000Y245500D03*
X434500Y246567D03*
X439000Y267500D03*
X452000Y263000D03*
X445000Y249547D03*
X444500Y255453D03*
X434000Y253000D03*
X463000Y103500D03*
X471500Y109685D03*
X463000Y100131D03*
X471500Y106316D03*
X467500Y118500D03*
X469000Y138000D03*
X471500Y155500D03*
X456000Y166500D03*
X460815Y200000D03*
X470315Y201000D03*
X459000Y195500D03*
X464184Y200000D03*
X473684Y201000D03*
X469000Y188000D03*
X472000Y211000D03*
X462500D03*
X474500Y224500D03*
X469500D03*
X460000D03*
X465000D03*
X455500D03*
X457950Y263000D03*
X462000Y282000D03*
X455000Y280000D03*
Y274500D03*
X479700Y36900D03*
Y32400D03*
X493476Y51476D03*
X490476D03*
X487476D03*
X496476D03*
X479700Y49900D03*
X490476Y54476D03*
X487476D03*
X496476D03*
X493476D03*
X482300Y62200D03*
X486263Y82837D03*
X497137D03*
X481500Y129369D03*
X489315Y138000D03*
X481500Y126000D03*
X492684Y138000D03*
X478500Y140500D03*
X479815Y199500D03*
X489315Y201500D03*
X483184Y199500D03*
X492684Y201500D03*
X477000Y191500D03*
X491000Y211000D03*
X481500D03*
X479000Y224500D03*
X493500D03*
X484000D03*
X488500D03*
X478500Y246000D03*
X478000Y257000D03*
X479327Y263327D03*
X479000Y251000D03*
X477500Y254000D03*
X503700Y36900D03*
Y32400D03*
Y49900D03*
X504400Y57600D03*
X554047Y98047D03*
X548500Y110000D03*
X554047Y121047D03*
X561929Y172569D03*
X560020Y174479D03*
X568450Y16350D03*
X565950Y13850D03*
X571000Y136000D03*
X566000Y131050D03*
X565750Y168750D03*
X563839Y170659D03*
X571000Y177500D03*
X568000Y196500D03*
X566000Y208000D03*
X596915Y9414D03*
X598824Y11324D03*
X600733Y13234D03*
Y52368D03*
X599615Y58500D03*
X596915Y63000D03*
X591000Y88000D03*
X590500Y80500D03*
X591500Y93364D03*
X605000Y153500D03*
X603500Y158500D03*
X596500Y171500D03*
X603500Y179500D03*
X599000Y192500D03*
X622500Y21000D03*
X622000Y144000D03*
X610500Y148500D03*
X615500Y163500D03*
X607500Y176500D03*
X612500Y174000D03*
X622000Y191500D03*
X610000Y182500D03*
X620500Y202315D03*
Y205684D03*
X629500Y22500D03*
X645000Y30000D03*
X636500Y24000D03*
X629131Y169000D03*
X632500D03*
X669000Y45816D03*
X662500Y37365D03*
X669000Y49185D03*
X662500Y40734D03*
X670000Y168284D03*
X657500Y182500D03*
X674185Y17000D03*
X670816D03*
X677000Y32315D03*
Y35684D03*
X691500Y53500D03*
X687000Y75950D03*
Y185000D03*
X688000Y304000D03*
X709500Y191500D03*
X696500Y304000D03*
X713200Y369000D03*
X707800D03*
X700500Y364000D03*
X707017Y355579D03*
X710517Y359079D03*
X707017D03*
X710517Y355579D03*
X722500Y183000D03*
X725000Y198684D03*
Y195315D03*
X720500Y363500D03*
X714017Y359079D03*
Y355579D03*
X755685Y43500D03*
X746500Y45500D03*
X752316Y43500D03*
X743800Y45500D03*
X755685Y67500D03*
X752316D03*
X742101Y78304D03*
Y74935D03*
X744784Y105000D03*
X754784D03*
X748500D03*
X738500Y201316D03*
Y204685D03*
X741500Y212184D03*
Y208815D03*
X750500Y361500D03*
X753500D03*
X756500D03*
X745500Y369700D03*
Y367000D03*
X746100Y356000D03*
X759875Y59625D03*
X759784Y105000D03*
X775400Y123000D03*
Y135000D03*
X762646Y150354D03*
X760736Y152264D03*
X764000Y187500D03*
X761000Y189409D03*
X777000Y361500D03*
X774000D03*
X769000Y367000D03*
Y369700D03*
X769600Y356000D03*
X763406Y368406D03*
X762500Y364000D03*
X781000Y49500D03*
X798000Y166500D03*
X789500Y302500D03*
X780000D03*
Y361500D03*
X786000Y364000D03*
X786906Y368406D03*
X815500Y136500D03*
X807500Y128500D03*
X817800Y178729D03*
X817000Y222500D03*
X811500Y304000D03*
X820000D03*
X843000Y39000D03*
X840000Y60000D03*
X840500Y113500D03*
X822119Y176819D03*
X837517Y355579D03*
X834017D03*
X830517D03*
X834017Y359079D03*
X830517D03*
X837517D03*
X836700Y369000D03*
X824000Y364000D03*
X831300Y369000D03*
X860000Y73500D03*
X863535D03*
X847000Y94500D03*
X861750Y114750D03*
X854250Y107250D03*
X856750Y109750D03*
X859250Y112250D03*
X860000Y141000D03*
X846500Y209500D03*
X854000Y215500D03*
X844000Y363500D03*
X870605Y73500D03*
X867070D03*
X867500Y117000D03*
X874000Y146000D03*
X869000Y369700D03*
Y367000D03*
X869600Y356000D03*
X886000Y364000D03*
X880000Y361500D03*
X877000D03*
X874000D03*
X902300Y17800D03*
X899500Y64035D03*
X894000Y68500D03*
X890000Y132500D03*
X896000Y176700D03*
X893300Y185400D03*
X903500Y302500D03*
X892500Y369700D03*
Y367000D03*
X893100Y356000D03*
X886906Y368406D03*
X903500Y361500D03*
X897500D03*
X900500D03*
X926000Y25000D03*
X907800Y22300D03*
X918500Y17800D03*
X928000Y66500D03*
X925000Y60500D03*
X910000Y140000D03*
X920000Y147000D03*
X910500Y185400D03*
X913000Y302500D03*
X910406Y368406D03*
X909500Y364000D03*
X937000Y27000D03*
X940000Y68000D03*
X944500Y80000D03*
X930000Y82000D03*
X929750Y123750D03*
X935000Y128000D03*
X955184Y75000D03*
X951815D03*
X960000Y143500D03*
X966000Y151000D03*
X985000Y84500D03*
X979000Y78000D03*
X988369Y84500D03*
X985000Y320000D03*
X974000Y324200D03*
X977000D03*
X980000D03*
X986500Y382000D03*
X981500Y386200D03*
X975500D03*
X978500D03*
X1010400Y45500D03*
X996500Y78000D03*
X1010000Y163000D03*
X1014000Y180000D03*
X999000Y223500D03*
X1010000Y218000D03*
X1037000Y240000D03*
X1051000Y239500D03*
X1076000Y240000D03*
X1094500Y83500D03*
X1093400Y148400D03*
X1090000Y239500D03*
X1117300Y80500D03*
X1123300Y93000D03*
Y115000D03*
X1120450Y96150D03*
Y110850D03*
X1135000Y104000D03*
X1138600Y116900D03*
X1127500Y108000D03*
X1142000D03*
X1127500Y100000D03*
X1142000Y99500D03*
X1132600Y117400D03*
X1137400Y293700D03*
Y303200D03*
X1162500Y92000D03*
X1145300Y93000D03*
X1151000Y106500D03*
X1149150Y99650D03*
Y110450D03*
X1145700Y115000D03*
X1162900Y342500D03*
X1163247Y362347D03*
X1159000Y412000D03*
X1162847Y398353D03*
X1168500Y92000D03*
X1167800Y342260D03*
X1176800Y362300D03*
X1176227Y367800D03*
X1178800Y377800D03*
X1181800D03*
X1176300D03*
X1178800Y383800D03*
X1181300D03*
X1176300D03*
X1176000Y393300D03*
X1176800Y398800D03*
X1172028Y410972D03*
X1191000Y120000D03*
X1196000Y118500D03*
X1196400Y303200D03*
Y309200D03*
Y306200D03*
X1198900Y297200D03*
X1203306Y296294D03*
X1196400Y326700D03*
Y329700D03*
Y332700D03*
X1198900Y320700D03*
X1203306Y319794D03*
X1204600Y314200D03*
X1201900D03*
X1190900Y313600D03*
X1204600Y337700D03*
X1201900D03*
X1190900Y337100D03*
X1197713Y370300D03*
X1197900Y356000D03*
X1193000Y356500D03*
X1206800Y383800D03*
Y377800D03*
X1197500Y392000D03*
X1195950Y377150D03*
X1188650D03*
X1195950Y384450D03*
X1188650D03*
Y380800D03*
X1197500Y405501D03*
X1191800Y405300D03*
G54D30*
G01X90000Y237500D02*
X83499D01*
X80200Y240799D01*
Y274200D01*
X87000Y281000D01*
X108500D01*
X112000Y277500D01*
Y277000D01*
G01X104500D02*
Y277375D01*
X102375Y279500D01*
X94000D01*
X89200Y274700D01*
Y255300D01*
X93000Y251500D01*
Y237500D01*
G01X99500Y277000D02*
Y270700D01*
X109400Y260800D01*
Y258215D01*
X114000Y253615D01*
Y237500D01*
G01X111228D02*
Y234900D01*
X111828Y234300D01*
X115100D01*
X116298Y235498D01*
Y276298D01*
X117000Y277000D01*
G54D12*
X10500Y231000D03*
Y227000D03*
X62250Y66750D03*
X66499Y62501D03*
X66500Y138600D03*
X62000Y143000D03*
X79000Y221000D03*
X80999Y219001D03*
X74000Y214000D03*
X77500D03*
X85999Y206500D03*
X80000D03*
X82500Y247000D03*
X85000D03*
X106094Y202594D03*
X90937Y206500D03*
X99800Y240500D03*
X98437Y251937D03*
X129378Y194378D03*
X129000Y188500D03*
X115500Y203500D03*
X119500D03*
X130500Y214000D03*
X127000D03*
X126500Y221500D03*
X124501Y219501D03*
X123000Y247000D03*
X120000D03*
X138469Y104500D03*
X152000Y118028D03*
X148500D03*
X136000Y194378D03*
X135000Y188500D03*
X138000Y232500D03*
X164000Y36000D03*
X167500D03*
Y41000D03*
Y90500D03*
X164000Y85500D03*
X167500D03*
X164500Y118000D03*
X168000Y139500D03*
Y145500D03*
Y150500D03*
X162500Y232500D03*
X187000Y18000D03*
X176500Y49000D03*
X178000Y73500D03*
X177000Y100000D03*
X178000Y131000D03*
X177000Y158500D03*
X216728Y218500D03*
X216500Y215000D03*
X209000Y217500D03*
X213709Y226000D03*
X214000Y238000D03*
X209000Y235500D03*
X221500Y35000D03*
Y42000D03*
Y84500D03*
Y91500D03*
X230500Y108000D03*
X236000D03*
X222000Y144500D03*
Y151500D03*
X236719Y220718D03*
X219500Y215000D03*
X238000Y209000D03*
X249000Y42250D03*
X249500Y51000D03*
X256000Y46500D03*
X261000D03*
X241125Y107875D03*
X243500Y131678D03*
X258500Y118500D03*
X254000D03*
X244000Y146500D03*
Y141000D03*
X258500Y151796D03*
Y154896D03*
X244000Y192109D03*
Y197000D03*
X246000Y208000D03*
X246272Y218500D03*
X246500Y215000D03*
X243500D03*
X240500Y206500D03*
X271000Y43000D03*
X266364Y104000D03*
X263000D03*
X277000Y126136D03*
X266750Y121250D03*
X261636Y121000D03*
X268000Y139563D03*
X263500D03*
X280000Y139500D03*
X263500Y167937D03*
X268000D03*
X280000Y168000D03*
X286000Y157000D03*
Y150400D03*
X289119Y154763D03*
X286673Y274000D03*
X320000Y16000D03*
Y46500D03*
Y50500D03*
X318500Y132500D03*
X312000D03*
X319500Y157500D03*
X309500Y147500D03*
X315000Y168000D03*
X316000Y172000D03*
X309282Y245610D03*
X319500Y260500D03*
X309000Y253500D03*
X308327Y274500D03*
X340000Y46500D03*
X345000D03*
X330136Y42000D03*
X342136Y94500D03*
X345500D03*
X330200Y84700D03*
X330500Y132563D03*
X337747D03*
Y157063D03*
X333000Y157000D03*
X341000Y145000D03*
X343818Y144652D03*
X344932Y170068D03*
X345000Y173500D03*
X333000Y246000D03*
X339500Y257500D03*
X330500Y274528D03*
X327000D03*
X343000Y274500D03*
X353864Y51000D03*
Y42636D03*
X353800Y84300D03*
X366173Y274000D03*
X373500Y24000D03*
X388782Y245610D03*
X388500Y253500D03*
X372500Y278000D03*
X379500D03*
X387827Y274500D03*
X407000Y36000D03*
X398400Y66500D03*
X394400Y59500D03*
X400364Y89364D03*
X395636Y103500D03*
X408900Y116800D03*
X407400Y133500D03*
X408900Y154600D03*
Y151500D03*
X399000Y260500D03*
X410000Y268000D03*
X417000Y12500D03*
X425000Y39500D03*
X422501Y37001D03*
X414500Y39000D03*
X414400Y66500D03*
Y61500D03*
Y56000D03*
X429500Y65000D03*
X420900Y82800D03*
X424400D03*
X428900Y76300D03*
X416000Y106000D03*
X417500Y115500D03*
X416000Y137500D03*
X424500Y134000D03*
X428500Y149136D03*
X428750Y159250D03*
X427500Y143500D03*
X416500Y169500D03*
X412500Y246000D03*
X419000Y257500D03*
X416000Y268000D03*
X437100Y90000D03*
X438000Y173500D03*
X451500Y278000D03*
X445173Y274000D03*
X466000Y33500D03*
Y39500D03*
X470100Y65200D03*
X476100Y79900D03*
X473000Y93500D03*
X465500Y179000D03*
X467782Y245610D03*
X476500Y234000D03*
X467500Y253500D03*
X458500Y278000D03*
X466827Y274500D03*
X491000Y29000D03*
X492700Y42900D03*
X490700D03*
X490800Y31900D03*
X486000Y63100D03*
X497000Y63000D03*
X481700Y76400D03*
X491500Y246000D03*
X482000Y234000D03*
X491500Y250500D03*
X491937Y264000D03*
X478000Y260500D03*
X501700Y76400D03*
X508200Y77400D03*
X500500Y225500D03*
Y230500D03*
X580750Y241250D03*
X581000Y231500D03*
X580500Y257500D03*
X584500Y261500D03*
X644000Y4000D03*
X647500Y24000D03*
X641500Y169000D03*
X631000Y231500D03*
X630750Y241250D03*
X630500Y257500D03*
X634500Y261500D03*
X681000Y231500D03*
X680750Y241250D03*
X680500Y257500D03*
X684500Y261500D03*
X691063Y345937D03*
X686000Y340500D03*
X690500Y373500D03*
X696000Y14250D03*
X708000Y32000D03*
X711500Y48500D03*
X696000Y108500D03*
X705500Y281500D03*
X714000Y340500D03*
X708000D03*
X704000D03*
X693000Y373500D03*
X706437Y380937D03*
X715500Y36500D03*
X716500Y180000D03*
Y214000D03*
X731000Y231500D03*
X730750Y241250D03*
X730500Y257500D03*
X734500Y261500D03*
X735000Y340500D03*
X730437Y345437D03*
X731000Y373500D03*
X728000D03*
X714563Y380937D03*
X749500Y40500D03*
X754000Y145000D03*
Y179400D03*
X754937Y345500D03*
X741500Y340000D03*
X738500D03*
X738728Y343500D03*
X775400Y6600D03*
X778000Y30000D03*
X759000Y14250D03*
X766760Y32740D03*
X772000Y38500D03*
X767500Y67000D03*
X772000Y91000D03*
X778000Y97000D03*
X778437Y346000D03*
Y334063D03*
X765000Y340000D03*
X762000D03*
X762228Y343500D03*
X780000Y21000D03*
X788500Y49000D03*
X793000Y102000D03*
X785000Y139000D03*
X783500Y149500D03*
X793000Y163500D03*
X782500Y183000D03*
X808000Y73740D03*
X814563Y345937D03*
X809500Y340500D03*
X814000Y373500D03*
X816500D03*
X833500Y97000D03*
X837500Y102000D03*
X822453Y128453D03*
X827500Y340500D03*
X831500D03*
X837500D03*
X838063Y380937D03*
X829937D03*
X846000Y87000D03*
X844500Y122500D03*
X853937Y345437D03*
X858500Y340500D03*
X865000Y340000D03*
X862000D03*
X862228Y343500D03*
X854500Y373500D03*
X851500D03*
X885500Y340000D03*
X885728Y343500D03*
X878437Y345500D03*
X888500Y340000D03*
X901937Y346000D03*
Y334063D03*
X940228Y89772D03*
X947500Y93500D03*
X944500Y139000D03*
Y146000D03*
X963000Y93500D03*
X984000Y315500D03*
X985500Y377500D03*
X1022500Y234000D03*
X1038000Y244972D03*
X1065802Y69500D03*
X1066863Y81100D03*
X1063763D03*
X1070000Y81500D03*
X1070798Y93300D03*
X1077000Y244972D03*
X1061500Y234000D03*
X1078200Y325600D03*
Y322500D03*
X1077200Y385000D03*
Y388100D03*
X1094596Y76000D03*
X1097800D03*
X1090500Y89437D03*
X1093437D03*
X1089500Y314800D03*
X1093500Y315500D03*
X1092500Y378000D03*
X1088500Y377300D03*
X1116500Y231500D03*
X1116250Y241250D03*
X1120000Y261500D03*
X1116000Y257500D03*
X1154000Y232000D03*
X1153750Y241750D03*
X1157500Y262000D03*
X1153500Y258000D03*
X1163363Y366863D03*
Y383300D03*
Y379300D03*
Y394737D03*
X1168963Y304763D03*
X1180900D03*
X1180400Y328263D03*
X1178400Y320972D03*
X1174900Y321200D03*
Y318200D03*
X1198237Y121500D03*
X1199298Y134500D03*
X1199300Y138000D03*
X1191000Y232000D03*
X1190750Y241750D03*
X1194500Y262000D03*
X1190500Y258000D03*
X1229500Y232000D03*
X1229250Y241750D03*
X1229000Y258000D03*
X1233000Y262000D03*
G54D21*
X436331Y14000D03*
X450110D03*
X477669D03*
X463890D03*
X617400Y350310D03*
Y336531D03*
Y377869D03*
Y364090D03*
X787831Y269500D03*
X801610D03*
X815390D03*
X829169D03*
X984610Y259000D03*
X998390D03*
G54D31*
G01X154500Y165500D02*
Y162829D01*
X155000Y162329D01*
Y148500D01*
X152000Y145500D01*
X138016D01*
X138000Y145516D01*
G01X289500Y172000D02*
Y155144D01*
X289119Y154763D01*
G01X309500Y147500D02*
Y172000D01*
G54D22*
X755700Y270100D03*
X770900D03*
X1104800Y129000D03*
X1164800Y79000D03*
G54D13*
X2933Y286714D03*
X20633D03*
X17133D03*
X13633D03*
X10133D03*
X6633D03*
X41633D03*
X38133D03*
X34633D03*
X31133D03*
X27633D03*
X24133D03*
X66133D03*
X62633D03*
X59133D03*
X55633D03*
X52133D03*
X48633D03*
X45133D03*
X87133D03*
X83633D03*
X80133D03*
X76633D03*
X73133D03*
X69633D03*
X108133D03*
X104633D03*
X101133D03*
X97633D03*
X94133D03*
X90633D03*
X129133D03*
X125633D03*
X122133D03*
X118633D03*
X115133D03*
X111633D03*
X150133D03*
X146633D03*
X143133D03*
X139633D03*
X136133D03*
X132633D03*
X171133D03*
X167633D03*
X164133D03*
X160633D03*
X157133D03*
X153633D03*
X195633D03*
X192133D03*
X188633D03*
X185133D03*
X181633D03*
X178133D03*
X174633D03*
X216633D03*
X213133D03*
X209633D03*
X206133D03*
X202633D03*
X199133D03*
X237633D03*
X234133D03*
X230633D03*
X227133D03*
X223633D03*
X220133D03*
X258633D03*
X255133D03*
X251633D03*
X248133D03*
X244633D03*
X241133D03*
X279633D03*
X276133D03*
X272633D03*
X269133D03*
X265633D03*
X262133D03*
X300633D03*
X297133D03*
X293633D03*
X290133D03*
X286633D03*
X283133D03*
X321633D03*
X318133D03*
X314633D03*
X311133D03*
X307633D03*
X304133D03*
X346133D03*
X342633D03*
X339133D03*
X335633D03*
X332133D03*
X328633D03*
X325133D03*
X367133D03*
X363633D03*
X360133D03*
X356633D03*
X353133D03*
X349633D03*
X388133D03*
X384633D03*
X381133D03*
X377633D03*
X374133D03*
X370633D03*
X409133D03*
X405633D03*
X402133D03*
X398633D03*
X395133D03*
X391633D03*
X430133D03*
X426633D03*
X423133D03*
X419633D03*
X416133D03*
X412633D03*
X451133D03*
X447633D03*
X444133D03*
X440633D03*
X437133D03*
X433633D03*
X475633D03*
X472133D03*
X468633D03*
X465133D03*
X461633D03*
X458133D03*
X454633D03*
X496633D03*
X493133D03*
X489633D03*
X486133D03*
X482633D03*
X479133D03*
X517633D03*
X514133D03*
X510633D03*
X507133D03*
X503633D03*
X500133D03*
X522848Y8320D03*
Y4820D03*
Y1320D03*
Y29320D03*
Y25820D03*
Y22320D03*
Y18820D03*
Y15320D03*
Y11820D03*
Y50320D03*
Y46820D03*
Y43320D03*
Y39820D03*
Y36320D03*
Y32820D03*
Y71320D03*
Y67820D03*
Y64320D03*
Y60820D03*
Y57320D03*
Y53820D03*
Y92320D03*
Y88820D03*
Y85320D03*
Y81820D03*
Y78320D03*
Y74820D03*
Y116820D03*
Y113320D03*
Y109820D03*
Y106320D03*
Y102820D03*
Y99320D03*
Y95820D03*
Y137820D03*
Y134320D03*
Y130820D03*
Y127320D03*
Y123820D03*
Y120320D03*
Y158820D03*
Y155320D03*
Y151820D03*
Y148320D03*
Y144820D03*
Y141320D03*
Y179820D03*
Y176320D03*
Y172820D03*
Y169320D03*
Y165820D03*
Y162320D03*
Y200820D03*
Y197320D03*
Y193820D03*
Y190320D03*
Y186820D03*
Y183320D03*
Y221820D03*
Y218320D03*
Y214820D03*
Y211320D03*
Y207820D03*
Y204320D03*
Y246320D03*
Y242820D03*
Y239320D03*
Y235820D03*
Y232320D03*
Y228820D03*
Y225320D03*
Y267320D03*
Y263820D03*
Y260320D03*
Y256820D03*
Y253320D03*
Y249820D03*
X538633Y286714D03*
X535133D03*
X531633D03*
X528133D03*
X524633D03*
X521133D03*
X522848Y281320D03*
Y277820D03*
Y274320D03*
Y270820D03*
X559633Y286714D03*
X556133D03*
X552633D03*
X549133D03*
X545633D03*
X542133D03*
X580633D03*
X577133D03*
X573633D03*
X570133D03*
X566633D03*
X563133D03*
X605133D03*
X601633D03*
X598133D03*
X594633D03*
X591133D03*
X587633D03*
X584133D03*
X626133D03*
X622633D03*
X619133D03*
X615633D03*
X612133D03*
X608633D03*
X647133D03*
X643633D03*
X640133D03*
X636633D03*
X633133D03*
X629633D03*
X668133D03*
X664633D03*
X661133D03*
X657633D03*
X654133D03*
X650633D03*
X668248Y289520D03*
Y293020D03*
Y296520D03*
Y300020D03*
Y303520D03*
Y307020D03*
Y310520D03*
Y314020D03*
Y317520D03*
Y321020D03*
Y324520D03*
Y328020D03*
Y331520D03*
Y335020D03*
Y338520D03*
Y342020D03*
Y345520D03*
Y349020D03*
Y352520D03*
Y359520D03*
Y363020D03*
Y366520D03*
Y370020D03*
Y373520D03*
Y356020D03*
Y380520D03*
Y384020D03*
Y387520D03*
Y391020D03*
Y394520D03*
Y377020D03*
Y401520D03*
Y405020D03*
Y408520D03*
Y412020D03*
Y415520D03*
Y398020D03*
Y419020D03*
X689133Y286714D03*
X685633D03*
X682133D03*
X678633D03*
X675133D03*
X671633D03*
X710133D03*
X706633D03*
X703133D03*
X699633D03*
X696133D03*
X692633D03*
X734633D03*
X731133D03*
X727633D03*
X724133D03*
X720633D03*
X717133D03*
X713633D03*
X755633D03*
X752133D03*
X748633D03*
X745133D03*
X741633D03*
X738133D03*
X776633D03*
X773133D03*
X769633D03*
X766133D03*
X762633D03*
X759133D03*
X797633D03*
X794133D03*
X790633D03*
X787133D03*
X783633D03*
X780133D03*
X818633D03*
X815133D03*
X811633D03*
X808133D03*
X804633D03*
X801133D03*
X801248Y310620D03*
Y307120D03*
Y303620D03*
Y300120D03*
Y296620D03*
Y293120D03*
Y289620D03*
Y331620D03*
Y328120D03*
Y324620D03*
Y321120D03*
Y317620D03*
Y314120D03*
Y352620D03*
Y349120D03*
Y345620D03*
Y342120D03*
Y338620D03*
Y335120D03*
Y356120D03*
Y373620D03*
Y370120D03*
Y366620D03*
Y363120D03*
Y359620D03*
Y394620D03*
Y391120D03*
Y387620D03*
Y384120D03*
Y380620D03*
Y377120D03*
Y415620D03*
Y412120D03*
Y408620D03*
Y405120D03*
Y401620D03*
Y398120D03*
Y419120D03*
X839633Y286714D03*
X836133D03*
X832633D03*
X829133D03*
X825633D03*
X822133D03*
X864133D03*
X860633D03*
X857133D03*
X853633D03*
X850133D03*
X846633D03*
X843133D03*
X885133D03*
X881633D03*
X878133D03*
X874633D03*
X871133D03*
X867633D03*
X906133D03*
X902633D03*
X899133D03*
X895633D03*
X892133D03*
X888633D03*
X927133D03*
X923633D03*
X920133D03*
X916633D03*
X913133D03*
X909633D03*
X920248Y289120D03*
Y310120D03*
Y306620D03*
Y303120D03*
Y299620D03*
Y296120D03*
Y292620D03*
Y331120D03*
Y327620D03*
Y324120D03*
Y320620D03*
Y317120D03*
Y313620D03*
Y352120D03*
Y348620D03*
Y345120D03*
Y341620D03*
Y338120D03*
Y334620D03*
X927433Y356714D03*
X923933D03*
X920433D03*
X920248Y355620D03*
Y373120D03*
Y369620D03*
Y366120D03*
Y362620D03*
Y359120D03*
Y394120D03*
Y390620D03*
Y387120D03*
Y383620D03*
Y380120D03*
Y376620D03*
Y418620D03*
Y415120D03*
Y411620D03*
Y408120D03*
Y404620D03*
Y401120D03*
Y397620D03*
X948133Y286714D03*
X944633D03*
X941133D03*
X937633D03*
X934133D03*
X930633D03*
X948433Y356714D03*
X944933D03*
X941433D03*
X937933D03*
X934433D03*
X930933D03*
X969133Y286714D03*
X965633D03*
X962133D03*
X958633D03*
X955133D03*
X951633D03*
X969433Y356714D03*
X965933D03*
X962433D03*
X958933D03*
X955433D03*
X951933D03*
X990133Y286714D03*
X986633D03*
X983133D03*
X979633D03*
X976133D03*
X972633D03*
X990433Y356714D03*
X986933D03*
X983433D03*
X979933D03*
X976433D03*
X972933D03*
X1014633Y286714D03*
X1011133D03*
X1007633D03*
X1004133D03*
X1000633D03*
X997133D03*
X993633D03*
X1014933Y356714D03*
X1011433D03*
X1007933D03*
X1004433D03*
X1000933D03*
X997433D03*
X993933D03*
X1018048Y3320D03*
Y6820D03*
Y13820D03*
Y17320D03*
Y20820D03*
Y24320D03*
Y27820D03*
Y10320D03*
Y34820D03*
Y38320D03*
Y41820D03*
Y45320D03*
Y48820D03*
Y52320D03*
Y31320D03*
Y55820D03*
Y59320D03*
Y62820D03*
Y66320D03*
Y69820D03*
Y73320D03*
Y76820D03*
Y80320D03*
Y83820D03*
Y87320D03*
Y90820D03*
Y94320D03*
Y97820D03*
Y101320D03*
Y104820D03*
Y108320D03*
Y111820D03*
Y115320D03*
Y118820D03*
Y122320D03*
Y125820D03*
Y129320D03*
Y132820D03*
Y136320D03*
Y143320D03*
Y146820D03*
Y150320D03*
Y153820D03*
Y157320D03*
Y139820D03*
Y164320D03*
Y167820D03*
Y171320D03*
Y174820D03*
Y178320D03*
Y160820D03*
Y185320D03*
Y188820D03*
Y192320D03*
Y195820D03*
Y199320D03*
Y202820D03*
Y181820D03*
X1035633Y212114D03*
X1032133D03*
X1028633D03*
X1025133D03*
X1021633D03*
X1018048Y206320D03*
Y209820D03*
Y213320D03*
Y216820D03*
Y220320D03*
Y223820D03*
Y227320D03*
Y230820D03*
Y234320D03*
Y237820D03*
Y241320D03*
Y244820D03*
Y248320D03*
Y251820D03*
Y255320D03*
Y258820D03*
Y262320D03*
Y265820D03*
X1035633Y286714D03*
X1032133D03*
X1028633D03*
X1025133D03*
X1021633D03*
X1018133D03*
X1018048Y272820D03*
Y276320D03*
Y279820D03*
Y283320D03*
Y269320D03*
X1028748Y311020D03*
Y307520D03*
Y304020D03*
Y300520D03*
Y297020D03*
Y293520D03*
Y290020D03*
Y332020D03*
Y328520D03*
Y325020D03*
Y321520D03*
Y318020D03*
Y314520D03*
Y353020D03*
Y349520D03*
Y346020D03*
Y342520D03*
Y339020D03*
Y335520D03*
X1035933Y356714D03*
X1032433D03*
X1028933D03*
X1025433D03*
X1021933D03*
X1018433D03*
X1028748Y356520D03*
Y374020D03*
Y370520D03*
Y367020D03*
Y363520D03*
Y360020D03*
Y395020D03*
Y391520D03*
Y388020D03*
Y384520D03*
Y381020D03*
Y377520D03*
Y416020D03*
Y412520D03*
Y409020D03*
Y405520D03*
Y402020D03*
Y398520D03*
Y419520D03*
X1056633Y212114D03*
X1053133D03*
X1049633D03*
X1046133D03*
X1042633D03*
X1039133D03*
X1058148Y214020D03*
Y217520D03*
Y221020D03*
Y224520D03*
Y228020D03*
Y231520D03*
Y235020D03*
Y238520D03*
Y242020D03*
Y245520D03*
Y249020D03*
Y252520D03*
Y256020D03*
Y259520D03*
Y263020D03*
Y266520D03*
X1056633Y286714D03*
X1053133D03*
X1049633D03*
X1046133D03*
X1042633D03*
X1039133D03*
X1058148Y270020D03*
Y273520D03*
Y277020D03*
Y284020D03*
Y280520D03*
X1056933Y356714D03*
X1053433D03*
X1049933D03*
X1046433D03*
X1042933D03*
X1039433D03*
X1077633Y212114D03*
X1074133D03*
X1070633D03*
X1067133D03*
X1063633D03*
X1060133D03*
X1077633Y286714D03*
X1074133D03*
X1070633D03*
X1067133D03*
X1063633D03*
X1060133D03*
X1077933Y356714D03*
X1074433D03*
X1070933D03*
X1067433D03*
X1063933D03*
X1060433D03*
X1098633Y212114D03*
X1095133D03*
X1091633D03*
X1088133D03*
X1084633D03*
X1081133D03*
X1096448Y214020D03*
Y217520D03*
Y221020D03*
Y224520D03*
Y228020D03*
Y231520D03*
Y235020D03*
Y238520D03*
Y242020D03*
Y245520D03*
Y249020D03*
Y252520D03*
Y256020D03*
Y259520D03*
Y263020D03*
Y266520D03*
X1098633Y286714D03*
X1095133D03*
X1091633D03*
X1088133D03*
X1084633D03*
X1081133D03*
X1096448Y270020D03*
Y273520D03*
Y277020D03*
Y284020D03*
Y280520D03*
X1098933Y356714D03*
X1095433D03*
X1091933D03*
X1088433D03*
X1084933D03*
X1081433D03*
X1119633Y212114D03*
X1116133D03*
X1112633D03*
X1109133D03*
X1105633D03*
X1102133D03*
X1119633Y286714D03*
X1116133D03*
X1112633D03*
X1109133D03*
X1105633D03*
X1102133D03*
X1119933Y356714D03*
X1116433D03*
X1112933D03*
X1109433D03*
X1105933D03*
X1102433D03*
X1144133Y212114D03*
X1140633D03*
X1137133D03*
X1133633D03*
X1130133D03*
X1126633D03*
X1123133D03*
X1135148Y214020D03*
Y217520D03*
Y221020D03*
Y224520D03*
Y228020D03*
Y231520D03*
Y235020D03*
Y238520D03*
Y242020D03*
Y245520D03*
Y249020D03*
Y252520D03*
Y256020D03*
Y259520D03*
Y263020D03*
Y266520D03*
X1144133Y286714D03*
X1140633D03*
X1137133D03*
X1133633D03*
X1130133D03*
X1126633D03*
X1123133D03*
X1135148Y270020D03*
Y273520D03*
Y277020D03*
Y284020D03*
Y280520D03*
X1130248Y307720D03*
Y304220D03*
Y300720D03*
Y297220D03*
Y293720D03*
Y290220D03*
Y332220D03*
Y328720D03*
Y325220D03*
Y321720D03*
Y318220D03*
Y314720D03*
Y311220D03*
Y353220D03*
Y349720D03*
Y346220D03*
Y342720D03*
Y339220D03*
Y335720D03*
X1126933Y356714D03*
X1123433D03*
X1130248Y356720D03*
Y374220D03*
Y370720D03*
Y367220D03*
Y363720D03*
Y360220D03*
Y395220D03*
Y391720D03*
Y388220D03*
Y384720D03*
Y381220D03*
Y377720D03*
Y416220D03*
Y412720D03*
Y409220D03*
Y405720D03*
Y402220D03*
Y398720D03*
Y419720D03*
X1165133Y212114D03*
X1161633D03*
X1158133D03*
X1154633D03*
X1151133D03*
X1147633D03*
X1165133Y286714D03*
X1161633D03*
X1158133D03*
X1154633D03*
X1151133D03*
X1147633D03*
X1186133Y212114D03*
X1182633D03*
X1179133D03*
X1175633D03*
X1172133D03*
X1168633D03*
X1171948Y214020D03*
Y217520D03*
Y221020D03*
Y224520D03*
Y228020D03*
Y231520D03*
Y235020D03*
Y238520D03*
Y242020D03*
Y245520D03*
Y249020D03*
Y252520D03*
Y256020D03*
Y259520D03*
Y263020D03*
Y266520D03*
X1186133Y286714D03*
X1182633D03*
X1179133D03*
X1175633D03*
X1172133D03*
X1168633D03*
X1171948Y270020D03*
Y273520D03*
Y277020D03*
Y284020D03*
Y280520D03*
X1207133Y212114D03*
X1203633D03*
X1200133D03*
X1196633D03*
X1193133D03*
X1189633D03*
X1207133Y286714D03*
X1203633D03*
X1200133D03*
X1196633D03*
X1193133D03*
X1189633D03*
X1228133Y212114D03*
X1224633D03*
X1221133D03*
X1217633D03*
X1214133D03*
X1210633D03*
X1210448Y214020D03*
Y217520D03*
Y221020D03*
Y224520D03*
Y228020D03*
Y231520D03*
Y235020D03*
Y238520D03*
Y242020D03*
Y245520D03*
Y249020D03*
Y252520D03*
Y256020D03*
Y259520D03*
Y263020D03*
Y266520D03*
X1228133Y286714D03*
X1224633D03*
X1221133D03*
X1217633D03*
X1214133D03*
X1210633D03*
X1210448Y270020D03*
Y273520D03*
Y277020D03*
Y284020D03*
Y280520D03*
X1249133Y212114D03*
X1245633D03*
X1242133D03*
X1238633D03*
X1235133D03*
X1231633D03*
X1249133Y286714D03*
X1245633D03*
X1242133D03*
X1238633D03*
X1235133D03*
X1231633D03*
G54D14*
X20000Y305000D03*
Y405000D03*
X43400Y12000D03*
Y260000D03*
X258360Y21840D03*
Y244480D03*
X325000Y116000D03*
X501500Y11811D03*
Y116000D03*
Y273500D03*
X542500Y11811D03*
Y196189D03*
X605000Y116000D03*
X650000Y305000D03*
Y405000D03*
X815000Y11811D03*
Y196189D03*
X985000Y11811D03*
Y196189D03*
X1049800Y11811D03*
Y196189D03*
X1219800Y11811D03*
Y196189D03*
G54D23*
G01X129378Y194378D02*
X129000Y194000D01*
X122500D01*
G01X129378Y194378D02*
X136000D01*
G01X229524Y221477D02*
Y217476D01*
X238000Y209000D01*
G01X240500Y206500D02*
X238000Y209000D01*
G01X320000Y46500D02*
Y43500D01*
G01Y46500D02*
Y50500D01*
G01X466000Y33500D02*
Y39500D01*
G01D02*
Y58700D01*
X459000Y65700D01*
Y126000D01*
X464500Y131500D01*
Y178000D01*
X465500Y179000D01*
X820000Y45000D03*
Y50000D03*
X815000Y45000D03*
Y50000D03*
X820000Y158000D03*
X815000D03*
X820000Y163000D03*
X815000D03*
X840000Y45000D03*
Y50000D03*
X835000Y45000D03*
Y50000D03*
X830000Y45000D03*
Y50000D03*
X825000Y45000D03*
Y50000D03*
X840000Y158000D03*
X835000D03*
X830000D03*
X825000D03*
X840000Y163000D03*
X835000D03*
X830000D03*
X825000D03*
X865000Y45000D03*
Y50000D03*
X860000Y45000D03*
Y50000D03*
X855000Y45000D03*
Y50000D03*
X850000Y45000D03*
Y50000D03*
X845000Y45000D03*
Y50000D03*
X865000Y158000D03*
X860000D03*
X855000D03*
X850000D03*
X845000D03*
X865000Y163000D03*
X860000D03*
X855000D03*
X850000D03*
X845000D03*
X885000Y45000D03*
Y50000D03*
X880000Y45000D03*
Y50000D03*
X875000Y45000D03*
Y50000D03*
X870000Y45000D03*
Y50000D03*
X885000Y158000D03*
X880000D03*
X875000D03*
X870000D03*
X885000Y163000D03*
X880000D03*
X875000D03*
X870000D03*
X905000Y45000D03*
Y50000D03*
X900000Y45000D03*
Y50000D03*
X895000Y45000D03*
Y50000D03*
X890000Y45000D03*
Y50000D03*
X905000Y158000D03*
X900000D03*
X895000D03*
X890000D03*
X905000Y163000D03*
X900000D03*
X895000D03*
X890000D03*
X925000Y45000D03*
Y50000D03*
X920000Y45000D03*
Y50000D03*
X915000Y45000D03*
Y50000D03*
X910000Y45000D03*
Y50000D03*
X925000Y158000D03*
X920000D03*
X915000D03*
X910000D03*
X925000Y163000D03*
X920000D03*
X915000D03*
X910000D03*
X950000Y45000D03*
Y50000D03*
X945000Y45000D03*
Y50000D03*
X940000Y45000D03*
Y50000D03*
X935000Y45000D03*
Y50000D03*
X930000Y45000D03*
Y50000D03*
X950000Y158000D03*
X945000D03*
X940000D03*
X935000D03*
X930000D03*
X950000Y163000D03*
X945000D03*
X940000D03*
X935000D03*
X930000D03*
X970000Y45000D03*
Y50000D03*
X965000Y45000D03*
Y50000D03*
X960000Y45000D03*
Y50000D03*
X955000Y45000D03*
Y50000D03*
X970000Y158000D03*
X965000D03*
X960000D03*
X955000D03*
X970000Y163000D03*
X965000D03*
X960000D03*
X955000D03*
X985000Y45000D03*
Y50000D03*
X980000Y45000D03*
Y50000D03*
X975000Y45000D03*
Y50000D03*
X985000Y158000D03*
X980000D03*
X975000D03*
X985000Y163000D03*
X980000D03*
X975000D03*
X1005000Y328900D03*
Y323900D03*
Y318400D03*
X1006500Y380400D03*
Y385900D03*
Y390900D03*
X1108500Y318900D03*
Y324400D03*
Y329400D03*
X1107500Y381400D03*
Y386900D03*
Y391900D03*
G54D24*
G01X106500Y66500D02*
X114000D01*
G01X125500Y118500D02*
Y105000D01*
X127500Y103000D01*
Y97500D01*
X125600Y95600D01*
Y54370D01*
X136500Y43470D01*
Y13000D01*
G01X110516Y147484D02*
X114016D01*
G01X153500Y51000D02*
X154000Y51500D01*
Y103500D01*
X153700Y103800D01*
G01X168500Y55500D02*
Y66500D01*
G01X185400Y174300D02*
Y134000D01*
G01X181500Y131300D02*
Y121100D01*
X181700Y120900D01*
G01X237909Y195854D02*
Y195409D01*
X236200Y193700D01*
Y162500D01*
G01X232750Y188750D02*
Y196780D01*
X240500Y204530D01*
Y206500D01*
G01X316000Y172000D02*
Y182500D01*
X313750Y184750D01*
X301250D01*
G01X327500Y209500D02*
Y131500D01*
G01Y94000D02*
Y65470D01*
X327600Y65370D01*
Y63630D01*
X327500Y63530D01*
Y30500D01*
G01X337000Y209500D02*
X334500Y207000D01*
Y176970D01*
X337000Y174470D01*
Y159569D01*
X335447Y158016D01*
Y138116D01*
X340047Y133516D01*
Y100664D01*
X335336Y95953D01*
Y69064D01*
X338000Y66400D01*
Y63200D01*
X335336Y60536D01*
Y32500D01*
G01X390500Y54000D02*
Y53500D01*
X396000Y48000D01*
Y30500D01*
G01X399000Y157500D02*
Y158000D01*
X398000Y159000D01*
Y164530D01*
X397400Y165130D01*
Y166870D01*
X398000Y167470D01*
Y175030D01*
X397900Y175130D01*
Y176870D01*
X398000Y176970D01*
Y184500D01*
X397500Y185000D01*
G01X421500Y116500D02*
Y156000D01*
X420500Y157000D01*
Y160000D01*
X421500Y161000D01*
Y178530D01*
X421600Y178630D01*
Y180370D01*
X421500Y180470D01*
Y182500D01*
G01X482300Y62200D02*
Y67500D01*
X490000Y75200D01*
Y99000D01*
X489000Y100000D01*
Y129500D01*
X480600Y137900D01*
Y187900D01*
X477000Y191500D01*
G01X566000Y208000D02*
X558000Y200000D01*
Y178301D01*
X557300Y177601D01*
Y166401D01*
X559829Y163872D01*
Y51671D01*
X568000Y43500D01*
X577500D01*
G01X571000Y143000D02*
Y177500D01*
G01X652500Y103500D02*
X640500D01*
X636500Y99500D01*
Y24000D01*
G01X855000Y50000D02*
Y97000D01*
X871000Y113000D01*
Y119500D01*
X863500Y127000D01*
Y153001D01*
X862600Y153901D01*
Y247100D01*
X864000Y248500D01*
Y260500D01*
X859500Y265000D01*
G01X854000Y215500D02*
X854500Y216000D01*
Y262000D01*
X851500Y265000D01*
X849500D01*
G01X898000D02*
X891000Y258000D01*
Y247000D01*
X896000Y242000D01*
Y176700D01*
G01X950000Y158000D02*
X952500Y160500D01*
Y209000D01*
X950000Y211500D01*
Y240000D01*
X944500Y245500D01*
Y254500D01*
X945000Y255000D01*
G54D15*
X23000Y351100D03*
Y363000D03*
X88500Y44500D03*
X85500Y168000D03*
X107000Y103000D03*
X124500Y229500D03*
X263500Y275000D03*
X277000D03*
X337000Y22000D03*
X496000Y95000D03*
X484500D03*
X481000Y116500D03*
X508000Y95000D03*
X714000Y310500D03*
Y320500D03*
Y393000D03*
Y403000D03*
X724000Y310500D03*
X734000D03*
X724000Y320500D03*
X734000D03*
X724000Y393000D03*
X734000D03*
X724000Y403000D03*
X734000D03*
X757000Y248400D03*
X744000Y310500D03*
X754000D03*
X744000Y320500D03*
X754000D03*
X744000Y393000D03*
X754000D03*
X744000Y403000D03*
X754000D03*
X769800Y248300D03*
X764000Y310500D03*
Y320500D03*
Y393000D03*
Y403000D03*
X837500Y310500D03*
Y320500D03*
Y393000D03*
Y403000D03*
X849500Y255000D03*
Y265000D03*
X859500Y255000D03*
Y265000D03*
X847500Y310500D03*
X857500D03*
X847500Y320500D03*
X857500D03*
X847500Y393000D03*
X857500D03*
X847500Y403000D03*
X857500D03*
X869500Y255000D03*
Y265000D03*
X879500Y255000D03*
Y265000D03*
X867500Y310500D03*
X877500D03*
X887500D03*
X867500Y320500D03*
X877500D03*
X887500D03*
X867500Y393000D03*
X877500D03*
X887500D03*
X867500Y403000D03*
X877500D03*
X887500D03*
X898000Y255000D03*
Y265000D03*
X908000Y255000D03*
Y265000D03*
X918000Y255000D03*
Y265000D03*
X928000Y255000D03*
Y265000D03*
X945000Y255000D03*
Y265000D03*
X937500Y308500D03*
X947500D03*
X937500Y328500D03*
X947500D03*
X937500Y318500D03*
X947500D03*
X937500Y338500D03*
X947500D03*
X939000Y370500D03*
X949000D03*
X939000Y390500D03*
X949000D03*
X939000Y380500D03*
X949000D03*
X939000Y400500D03*
X949000D03*
X955000Y255000D03*
Y265000D03*
X965000Y255000D03*
Y265000D03*
X1041000Y309000D03*
X1051000D03*
X1041000Y329000D03*
X1051000D03*
X1041000Y319000D03*
X1051000D03*
X1041000Y339000D03*
X1051000D03*
X1040000Y371500D03*
X1050000D03*
X1040000Y391500D03*
X1050000D03*
X1040000Y381500D03*
X1050000D03*
X1040000Y401500D03*
X1050000D03*
X1140000Y329500D03*
Y319500D03*
Y349500D03*
Y339500D03*
Y369500D03*
Y359500D03*
X1150000Y329500D03*
Y319500D03*
Y349500D03*
Y339500D03*
Y369500D03*
Y359500D03*
X1227900Y329200D03*
Y319200D03*
Y349200D03*
Y339200D03*
Y369200D03*
Y359200D03*
X1237900Y329200D03*
Y319200D03*
Y349200D03*
Y339200D03*
Y369200D03*
Y359200D03*
G54D25*
G01X172500Y161500D02*
X173500Y160500D01*
Y96500D01*
X175547Y94453D01*
Y64700D01*
G01X181000Y69000D02*
Y104000D01*
X176500Y108500D01*
Y108801D01*
G01X228500Y169000D02*
Y110910D01*
X227773Y110183D01*
G01X247437Y166437D02*
Y184063D01*
G01X288500Y103500D02*
X288000Y103000D01*
Y93500D01*
X277800Y83300D01*
Y72500D01*
X278700Y71600D01*
Y53300D01*
X282500Y49500D01*
Y20000D01*
X279000Y16500D01*
G01X272500Y132500D02*
X274500Y134500D01*
Y188500D01*
G01X327500Y131500D02*
X337500Y121500D01*
Y106000D01*
X327500Y96000D01*
Y94000D01*
G01X362500Y10000D02*
Y72312D01*
X360500Y74312D01*
Y81000D01*
X362500Y83000D01*
G01X373500Y24000D02*
Y28500D01*
X366550Y35450D01*
Y43550D01*
X368200Y45200D01*
Y74412D01*
X367500Y75112D01*
Y87300D01*
X368700Y88500D01*
X372500D01*
G01Y93500D02*
X365700D01*
X358000Y101200D01*
Y130501D01*
X354116Y134385D01*
Y139616D01*
X355500Y141000D01*
Y161000D01*
G01X417000Y12500D02*
Y16500D01*
X418000Y17500D01*
Y104000D01*
X416000Y106000D01*
G01X447500Y48500D02*
X446900D01*
X442700Y44300D01*
Y35190D01*
X463890Y14000D01*
G01X477669D02*
X460000Y31669D01*
Y44500D01*
X456000Y48500D01*
X452500D01*
G01X577500Y138500D02*
X575500D01*
X571000Y143000D01*
G01X605000Y153500D02*
X606500Y155000D01*
Y171000D01*
X603500Y174000D01*
Y179500D01*
G01X610000Y182500D02*
Y149000D01*
X610500Y148500D01*
G01X691500Y53500D02*
Y86500D01*
X687000Y91000D01*
Y185000D01*
G54D16*
G01X118579Y53000D02*
Y58536D01*
X114000Y63115D01*
Y66500D01*
G01X112000Y54000D02*
X113000Y53000D01*
X118579D01*
G01X114000Y66500D02*
Y71501D01*
X123050Y80551D01*
Y89950D01*
X121000Y92000D01*
Y103615D01*
X122500Y105115D01*
Y128579D01*
X118579Y132500D01*
G01X114500Y147000D02*
Y136579D01*
X118579Y132500D01*
G01X129378Y194378D02*
Y193878D01*
X125000Y189500D01*
Y162500D01*
X114500Y152000D01*
Y147000D01*
G01X320000Y43500D02*
Y16000D01*
G01X494500Y165500D02*
X499500D01*
G01D02*
X499768Y165232D01*
X506732D01*
X508500Y167000D01*
Y193500D01*
X497000Y205000D01*
Y228000D01*
X491000Y234000D01*
X482000D01*
G01X476500D02*
X482000D01*
X35500Y28950D03*
X47500Y243050D03*
G54D26*
G01X77500Y211998D02*
Y214000D01*
G01D02*
Y216002D01*
G01Y214000D02*
X79502D01*
G01X74000Y211998D02*
Y214000D01*
G01D02*
Y216002D01*
G01X80999Y216999D02*
Y219001D01*
G01D02*
Y221003D01*
G01X78997Y219001D02*
X80999D01*
G01D02*
X83001D01*
G01X79000Y218998D02*
Y221000D01*
G01D02*
Y223002D01*
G01X76998Y221000D02*
X79000D01*
G01D02*
X81002D01*
G01X85000Y244998D02*
Y247000D01*
G01X82500Y244998D02*
Y247000D01*
G01X85000D02*
Y249002D01*
G01Y247000D02*
X87002D01*
G01X82500D02*
Y249002D01*
G01X92500Y231800D02*
X94302D01*
G01X89400Y227198D02*
Y229000D01*
G01X87598D02*
X89400D01*
G01X92500Y227198D02*
Y229000D01*
G01D02*
X94302D01*
G01X124501Y217499D02*
Y219501D01*
G01D02*
Y221503D01*
G01X122499Y219501D02*
X124501D01*
G01D02*
X126503D01*
G01X126500Y219498D02*
Y221500D01*
G01D02*
Y223502D01*
G01X124498Y221500D02*
X126500D01*
G01D02*
X128502D01*
G01X127000Y211998D02*
Y214000D01*
G01D02*
Y216002D01*
G01X124998Y214000D02*
X127000D01*
G01X120000Y244998D02*
Y247000D01*
G01X123000Y244998D02*
Y247000D01*
G01X121682Y226682D02*
X124500Y229500D01*
G01D02*
X127318Y232318D01*
G01X121682D02*
X124500Y229500D01*
G01D02*
X127318Y226682D01*
G01X114300Y226998D02*
Y228800D01*
G01D02*
X116102D01*
G01X111200Y226998D02*
Y228800D01*
G01X109398D02*
X111200D01*
G01X120000Y247000D02*
Y249002D01*
G01X117998Y247000D02*
X120000D01*
G01X123000D02*
Y249002D01*
G01Y247000D02*
X125002D01*
G01X130500Y211998D02*
Y214000D01*
G01D02*
Y216002D01*
G01Y214000D02*
X132502D01*
G54D17*
X65000Y330500D03*
Y325500D03*
Y385500D03*
Y380500D03*
X85000Y330500D03*
Y325500D03*
X80000Y330500D03*
Y325500D03*
X75000Y330500D03*
Y325500D03*
X70000Y330500D03*
Y325500D03*
X85000Y385500D03*
Y380500D03*
X80000Y385500D03*
Y380500D03*
X75000Y385500D03*
Y380500D03*
X70000Y385500D03*
Y380500D03*
X110000Y330500D03*
Y325500D03*
X105000Y330500D03*
Y325500D03*
X100000Y330500D03*
Y325500D03*
X95000Y330500D03*
Y325500D03*
X90000Y330500D03*
Y325500D03*
X110000Y385500D03*
Y380500D03*
X105000Y385500D03*
Y380500D03*
X100000Y385500D03*
Y380500D03*
X95000Y385500D03*
Y380500D03*
X90000Y385500D03*
Y380500D03*
X130000Y330500D03*
Y325500D03*
X125000Y330500D03*
Y325500D03*
X120000Y330500D03*
Y325500D03*
X115000Y330500D03*
Y325500D03*
X130000Y385500D03*
Y380500D03*
X125000Y385500D03*
Y380500D03*
X120000Y385500D03*
Y380500D03*
X115000Y385500D03*
Y380500D03*
X150000Y330500D03*
Y325500D03*
X145000Y330500D03*
Y325500D03*
X140000Y330500D03*
Y325500D03*
X135000Y330500D03*
Y325500D03*
X150000Y385500D03*
Y380500D03*
X145000Y385500D03*
Y380500D03*
X140000Y385500D03*
Y380500D03*
X135000Y385500D03*
Y380500D03*
X175000Y330500D03*
Y325500D03*
X170000Y330500D03*
Y325500D03*
X165000Y330500D03*
Y325500D03*
X160000Y330500D03*
Y325500D03*
X155000Y330500D03*
Y325500D03*
X175000Y385500D03*
Y380500D03*
X170000Y385500D03*
Y380500D03*
X165000Y385500D03*
Y380500D03*
X160000Y385500D03*
Y380500D03*
X155000Y385500D03*
Y380500D03*
X185000Y330500D03*
Y325500D03*
X180000Y330500D03*
Y325500D03*
X185000Y385500D03*
Y380500D03*
X180000Y385500D03*
Y380500D03*
X260000Y330500D03*
Y325500D03*
X255000Y330500D03*
Y325500D03*
X260000Y385500D03*
Y380500D03*
X255000Y385500D03*
Y380500D03*
X280000Y330500D03*
Y325500D03*
X275000Y330500D03*
Y325500D03*
X270000Y330500D03*
Y325500D03*
X265000Y330500D03*
Y325500D03*
X280000Y385500D03*
Y380500D03*
X275000Y385500D03*
Y380500D03*
X270000Y385500D03*
Y380500D03*
X265000Y385500D03*
Y380500D03*
X302500Y43500D03*
X297500D03*
X302500Y48500D03*
X297500D03*
X302500Y53500D03*
X297500D03*
X302500Y58500D03*
X297500D03*
X302500Y63500D03*
X297500D03*
X302500Y68500D03*
X297500D03*
X302500Y73500D03*
X297500D03*
X302500Y78500D03*
X297500D03*
X302500Y83500D03*
X297500D03*
X302500Y88500D03*
X297500D03*
X302500Y93500D03*
X297500D03*
X302500Y98500D03*
X297500D03*
X302500Y103500D03*
X297500D03*
X302500Y108500D03*
X297500D03*
X302500Y113500D03*
X297500D03*
X302500Y118500D03*
X297500D03*
X302500Y123500D03*
X297500D03*
X302500Y128500D03*
X297500D03*
X302500Y133500D03*
X297500D03*
X302500Y138500D03*
X297500D03*
X302500Y143500D03*
X297500D03*
X302500Y148500D03*
X297500D03*
X302500Y153500D03*
X297500D03*
X302500Y158500D03*
X297500D03*
X302500Y163500D03*
X297500D03*
X300000Y330500D03*
Y325500D03*
X295000Y330500D03*
Y325500D03*
X290000Y330500D03*
Y325500D03*
X285000Y330500D03*
Y325500D03*
X300000Y385500D03*
Y380500D03*
X295000Y385500D03*
Y380500D03*
X290000Y385500D03*
Y380500D03*
X285000Y385500D03*
Y380500D03*
X325000Y330500D03*
Y325500D03*
X320000Y330500D03*
Y325500D03*
X315000Y330500D03*
Y325500D03*
X310000Y330500D03*
Y325500D03*
X305000Y330500D03*
Y325500D03*
X325000Y385500D03*
Y380500D03*
X320000Y385500D03*
Y380500D03*
X315000Y385500D03*
Y380500D03*
X310000Y385500D03*
Y380500D03*
X305000Y385500D03*
Y380500D03*
X345000Y330500D03*
Y325500D03*
X340000Y330500D03*
Y325500D03*
X335000Y330500D03*
Y325500D03*
X330000Y330500D03*
Y325500D03*
X345000Y385500D03*
Y380500D03*
X340000Y385500D03*
Y380500D03*
X335000Y385500D03*
Y380500D03*
X330000Y385500D03*
Y380500D03*
X365000Y330500D03*
Y325500D03*
X360000Y330500D03*
Y325500D03*
X355000Y330500D03*
Y325500D03*
X350000Y330500D03*
Y325500D03*
X365000Y385500D03*
Y380500D03*
X360000Y385500D03*
Y380500D03*
X355000Y385500D03*
Y380500D03*
X350000Y385500D03*
Y380500D03*
X377500Y43500D03*
X372500D03*
X377500Y48500D03*
X372500D03*
X377500Y53500D03*
X372500D03*
X377500Y58500D03*
X372500D03*
X377500Y63500D03*
X372500D03*
X377500Y68500D03*
X372500D03*
X377500Y73500D03*
X372500D03*
X377500Y78500D03*
X372500D03*
X377500Y83500D03*
X372500D03*
X377500Y88500D03*
X372500D03*
X377500Y93500D03*
X372500D03*
X377500Y98500D03*
X372500D03*
X377500Y103500D03*
X372500D03*
X377500Y108500D03*
X372500D03*
X377500Y113500D03*
X372500D03*
X377500Y118500D03*
X372500D03*
X377500Y123500D03*
X372500D03*
X377500Y128500D03*
X372500D03*
X377500Y133500D03*
X372500D03*
X377500Y138500D03*
X372500D03*
X377500Y143500D03*
X372500D03*
X377500Y148500D03*
X372500D03*
X377500Y153500D03*
X372500D03*
X377500Y158500D03*
X372500D03*
X377500Y163500D03*
X372500D03*
X375000Y330500D03*
Y325500D03*
X370000Y330500D03*
Y325500D03*
X375000Y385500D03*
Y380500D03*
X370000Y385500D03*
Y380500D03*
X407000Y88000D03*
X423000Y105500D03*
X452500Y43500D03*
X447500D03*
X452500Y48500D03*
X447500D03*
X452500Y53500D03*
X447500D03*
X452500Y58500D03*
X447500D03*
X452500Y63500D03*
X447500D03*
X452500Y68500D03*
X447500D03*
X452500Y73500D03*
X447500D03*
X452500Y78500D03*
X447500D03*
X452500Y83500D03*
X447500D03*
X452500Y88500D03*
X447500D03*
X452500Y93500D03*
X447500D03*
X452500Y98500D03*
X447500D03*
X452500Y103500D03*
X447500D03*
X452500Y108500D03*
X447500D03*
X452500Y113500D03*
X447500D03*
X452500Y118500D03*
X447500D03*
X452500Y123500D03*
X447500D03*
X452500Y128500D03*
X447500D03*
X452500Y133500D03*
X447500D03*
X452500Y138500D03*
X447500D03*
X452500Y143500D03*
X447500D03*
X452500Y148500D03*
X447500D03*
X452500Y153500D03*
X447500D03*
X452500Y158500D03*
X447500D03*
X452500Y163500D03*
X447500D03*
X455000Y330500D03*
Y325500D03*
X450000Y330500D03*
Y325500D03*
X445000Y330500D03*
Y325500D03*
X455000Y385500D03*
Y380500D03*
X450000Y385500D03*
Y380500D03*
X445000Y385500D03*
Y380500D03*
X475000Y330500D03*
Y325500D03*
X470000Y330500D03*
Y325500D03*
X465000Y330500D03*
Y325500D03*
X460000Y330500D03*
Y325500D03*
X475000Y385500D03*
Y380500D03*
X470000Y385500D03*
Y380500D03*
X465000Y385500D03*
Y380500D03*
X460000Y385500D03*
Y380500D03*
X494500Y160500D03*
Y155500D03*
Y150500D03*
Y145500D03*
Y180500D03*
Y175500D03*
Y170500D03*
Y165500D03*
Y190500D03*
Y185500D03*
X495000Y330500D03*
Y325500D03*
X490000Y330500D03*
Y325500D03*
X485000Y330500D03*
Y325500D03*
X480000Y330500D03*
Y325500D03*
X495000Y385500D03*
Y380500D03*
X490000Y385500D03*
Y380500D03*
X485000Y385500D03*
Y380500D03*
X480000Y385500D03*
Y380500D03*
X499500Y160500D03*
Y155500D03*
Y150500D03*
Y145500D03*
Y180500D03*
Y175500D03*
Y170500D03*
Y165500D03*
Y190500D03*
Y185500D03*
X520000Y330500D03*
Y325500D03*
X515000Y330500D03*
Y325500D03*
X510000Y330500D03*
Y325500D03*
X505000Y330500D03*
Y325500D03*
X500000Y330500D03*
Y325500D03*
X520000Y385500D03*
Y380500D03*
X515000Y385500D03*
Y380500D03*
X510000Y385500D03*
Y380500D03*
X505000Y385500D03*
Y380500D03*
X500000Y385500D03*
Y380500D03*
X540000Y330500D03*
Y325500D03*
X535000Y330500D03*
Y325500D03*
X530000Y330500D03*
Y325500D03*
X525000Y330500D03*
Y325500D03*
X540000Y385500D03*
Y380500D03*
X535000Y385500D03*
Y380500D03*
X530000Y385500D03*
Y380500D03*
X525000Y385500D03*
Y380500D03*
X560000Y330500D03*
Y325500D03*
X555000Y330500D03*
Y325500D03*
X550000Y330500D03*
Y325500D03*
X545000Y330500D03*
Y325500D03*
X560000Y385500D03*
Y380500D03*
X555000Y385500D03*
Y380500D03*
X550000Y385500D03*
Y380500D03*
X545000Y385500D03*
Y380500D03*
X582500Y43500D03*
X577500D03*
X582500Y48500D03*
X577500D03*
X582500Y53500D03*
X577500D03*
X582500Y58500D03*
X577500D03*
X582500Y63500D03*
X577500D03*
X582500Y68500D03*
X577500D03*
X582500Y73500D03*
X577500D03*
X582500Y78500D03*
X577500D03*
X582500Y83500D03*
X577500D03*
X582500Y88500D03*
X577500D03*
X582500Y93500D03*
X577500D03*
X582500Y98500D03*
X577500D03*
X582500Y103500D03*
X577500D03*
X582500Y108500D03*
X577500D03*
X582500Y113500D03*
X577500D03*
X582500Y118500D03*
X577500D03*
X582500Y123500D03*
X577500D03*
X582500Y128500D03*
X577500D03*
X582500Y133500D03*
X577500D03*
X582500Y138500D03*
X577500D03*
X582500Y143500D03*
X577500D03*
X582500Y148500D03*
X577500D03*
X582500Y153500D03*
X577500D03*
X582500Y158500D03*
X577500D03*
X582500Y163500D03*
X577500D03*
X565000Y330500D03*
Y325500D03*
Y385500D03*
Y380500D03*
X657500Y43500D03*
X652500D03*
X657500Y48500D03*
X652500D03*
X657500Y53500D03*
X652500D03*
X657500Y58500D03*
X652500D03*
X657500Y63500D03*
X652500D03*
X657500Y68500D03*
X652500D03*
X657500Y73500D03*
X652500D03*
X657500Y78500D03*
X652500D03*
X657500Y83500D03*
X652500D03*
X657500Y88500D03*
X652500D03*
X657500Y93500D03*
X652500D03*
X657500Y98500D03*
X652500D03*
X657500Y103500D03*
X652500D03*
X657500Y108500D03*
X652500D03*
X657500Y113500D03*
X652500D03*
X657500Y118500D03*
X652500D03*
X657500Y123500D03*
X652500D03*
X657500Y128500D03*
X652500D03*
X657500Y133500D03*
X652500D03*
X657500Y138500D03*
X652500D03*
X657500Y143500D03*
X652500D03*
X657500Y148500D03*
X652500D03*
X657500Y153500D03*
X652500D03*
X657500Y158500D03*
X652500D03*
X657500Y163500D03*
X652500D03*
X732500Y43500D03*
X727500D03*
X732500Y48500D03*
X727500D03*
X732500Y53500D03*
X727500D03*
X732500Y58500D03*
X727500D03*
X732500Y63500D03*
X727500D03*
X732500Y68500D03*
X727500D03*
X732500Y73500D03*
X727500D03*
X732500Y78500D03*
X727500D03*
X732500Y83500D03*
X727500D03*
X732500Y88500D03*
X727500D03*
X732500Y93500D03*
X727500D03*
X732500Y98500D03*
X727500D03*
X732500Y103500D03*
X727500D03*
X732500Y108500D03*
X727500D03*
X732500Y113500D03*
X727500D03*
X732500Y118500D03*
X727500D03*
X732500Y123500D03*
X727500D03*
X732500Y128500D03*
X727500D03*
X732500Y133500D03*
X727500D03*
X732500Y138500D03*
X727500D03*
X732500Y143500D03*
X727500D03*
X732500Y148500D03*
X727500D03*
X732500Y153500D03*
X727500D03*
X732500Y158500D03*
X727500D03*
X732500Y163500D03*
X727500D03*
X1054800Y45000D03*
Y50000D03*
X1049800Y45000D03*
Y50000D03*
X1054800Y158000D03*
X1049800D03*
X1054800Y163000D03*
X1049800D03*
X1079800Y45000D03*
Y50000D03*
X1074800Y45000D03*
Y50000D03*
X1069800Y45000D03*
Y50000D03*
X1064800Y45000D03*
Y50000D03*
X1059800Y45000D03*
Y50000D03*
X1079800Y158000D03*
X1074800D03*
X1069800D03*
X1064800D03*
X1059800D03*
X1079800Y163000D03*
X1074800D03*
X1069800D03*
X1064800D03*
X1059800D03*
X1099800Y45000D03*
Y50000D03*
X1094800Y45000D03*
Y50000D03*
X1089800Y45000D03*
Y50000D03*
X1084800Y45000D03*
Y50000D03*
X1099800Y158000D03*
X1094800D03*
X1089800D03*
X1084800D03*
X1099800Y163000D03*
X1094800D03*
X1089800D03*
X1084800D03*
X1119800Y45000D03*
Y50000D03*
X1114800Y45000D03*
Y50000D03*
X1109800Y45000D03*
Y50000D03*
X1104800Y45000D03*
Y50000D03*
X1119800Y158000D03*
X1114800D03*
X1109800D03*
X1104800D03*
X1119800Y163000D03*
X1114800D03*
X1109800D03*
X1104800D03*
X1144800Y45000D03*
Y50000D03*
X1139800Y45000D03*
Y50000D03*
X1134800Y45000D03*
Y50000D03*
X1129800Y45000D03*
Y50000D03*
X1124800Y45000D03*
Y50000D03*
X1144800Y158000D03*
X1139800D03*
X1134800D03*
X1129800D03*
X1124800D03*
X1144800Y163000D03*
X1139800D03*
X1134800D03*
X1129800D03*
X1124800D03*
X1164800Y45000D03*
Y50000D03*
X1159800Y45000D03*
Y50000D03*
X1154800Y45000D03*
Y50000D03*
X1149800Y45000D03*
Y50000D03*
X1164800Y158000D03*
X1159800D03*
X1154800D03*
X1149800D03*
X1164800Y163000D03*
X1159800D03*
X1154800D03*
X1149800D03*
X1184800Y45000D03*
Y50000D03*
X1179800Y45000D03*
Y50000D03*
X1174800Y45000D03*
Y50000D03*
X1169800Y45000D03*
Y50000D03*
X1184800Y158000D03*
X1179800D03*
X1174800D03*
X1169800D03*
X1184800Y163000D03*
X1179800D03*
X1174800D03*
X1169800D03*
X1209800Y45000D03*
Y50000D03*
X1204800Y45000D03*
Y50000D03*
X1199800Y45000D03*
Y50000D03*
X1194800Y45000D03*
Y50000D03*
X1189800Y45000D03*
Y50000D03*
X1209800Y158000D03*
X1204800D03*
X1199800D03*
X1194800D03*
X1189800D03*
X1209800Y163000D03*
X1204800D03*
X1199800D03*
X1194800D03*
X1189800D03*
X1219800Y45000D03*
Y50000D03*
X1214800Y45000D03*
Y50000D03*
X1219800Y158000D03*
X1214800D03*
X1219800Y163000D03*
X1214800D03*
G54D27*
G01X114016Y147484D02*
X114500Y147000D01*
G01X138469Y104500D02*
Y93531D01*
X142500Y89500D01*
Y59000D01*
X140750Y57250D01*
X137750D01*
G01X138469Y135470D02*
Y104500D01*
G01X277000Y275000D02*
X276500Y274500D01*
Y270699D01*
X278400Y268799D01*
Y261100D01*
X279500Y260000D01*
X287000D01*
X296000Y251000D01*
X297500D01*
G01X471500Y155500D02*
Y139895D01*
X472000Y139395D01*
Y115500D01*
X468000Y111500D01*
Y78900D01*
X471200Y75700D01*
Y66300D01*
X470100Y65200D01*
G01X652500Y93500D02*
X652000Y94000D01*
X648000D01*
X641000Y87000D01*
Y26000D01*
X642000Y25000D01*
Y6000D01*
X644000Y4000D01*
G01X652500Y73500D02*
X648600D01*
X645000Y69900D01*
Y30000D01*
G01X696000Y108500D02*
Y14250D01*
G01X705500Y281500D02*
Y177499D01*
X711500Y171499D01*
Y48500D01*
G01X727500Y43500D02*
X720400D01*
X717000Y46900D01*
Y172000D01*
X713000Y176000D01*
Y182000D01*
X716500Y185500D01*
Y214000D01*
G01X787831Y269500D02*
Y242531D01*
X749000Y203700D01*
Y154000D01*
X737500Y142500D01*
Y51500D01*
X734500Y48500D01*
X732500D01*
G01X727500Y78500D02*
Y83500D01*
G01Y103500D02*
Y108500D01*
G01Y133500D02*
X725000D01*
X721000Y137500D01*
Y178000D01*
X722500Y179500D01*
Y183000D01*
G01X815390Y269500D02*
Y252990D01*
X770500Y208100D01*
Y182000D01*
X754500Y166000D01*
Y153500D01*
X749884Y148884D01*
Y118616D01*
X752000Y116500D01*
Y98000D01*
X749884Y95884D01*
Y44088D01*
X749500Y43704D01*
Y40500D01*
G01X775400Y6600D02*
Y31400D01*
X781000Y37000D01*
Y49500D01*
G01X759875Y59625D02*
Y42598D01*
X759000Y41723D01*
Y14250D01*
G01X767500Y67000D02*
Y33480D01*
X766760Y32740D01*
G01X775400Y135000D02*
Y123000D01*
G01X788500Y49000D02*
Y35000D01*
X780000Y26500D01*
Y21000D01*
G01X833500Y97000D02*
Y138500D01*
G01X835000Y158000D02*
Y140000D01*
X833500Y138500D01*
G01X849500Y255000D02*
X846500Y252000D01*
Y209500D01*
G01X1014000Y180000D02*
Y262500D01*
X1011500Y265000D01*
X965000D01*
G01X985000Y158000D02*
X997400D01*
X999000Y159600D01*
Y223500D01*
G01X1010000Y218000D02*
Y163000D01*
G54D18*
X92500Y259500D03*
X102500D03*
X112500D03*
X570000Y222500D03*
X580000D03*
X570000Y274000D03*
X580000D03*
X590000Y222500D03*
Y274000D03*
X620000Y222500D03*
X630000D03*
X620000Y274000D03*
X630000D03*
X640000Y222500D03*
Y274000D03*
X670000Y222500D03*
Y274000D03*
X680000Y222500D03*
X690000D03*
X680000Y274000D03*
X690000D03*
X720000Y222500D03*
X730000D03*
X720000Y274000D03*
X730000D03*
X740000Y222500D03*
Y274000D03*
X1017500Y313000D03*
Y333000D03*
Y323000D03*
X1028000Y222500D03*
X1038000D03*
X1028000Y274000D03*
X1038000D03*
X1019000Y375000D03*
Y395000D03*
Y385000D03*
X1048000Y222500D03*
Y274000D03*
X1067000Y222500D03*
X1077000D03*
X1067000Y274000D03*
X1077000D03*
X1087000Y222500D03*
Y274000D03*
X1105500Y222500D03*
X1115500D03*
X1125500D03*
X1105500Y274000D03*
X1115500D03*
X1125500D03*
X1121000Y313500D03*
Y333500D03*
Y323500D03*
X1120000Y376000D03*
Y396000D03*
Y386000D03*
X1143000Y223000D03*
Y274500D03*
X1153000Y223000D03*
X1163000D03*
X1153000Y274500D03*
X1163000D03*
X1180000Y223000D03*
X1190000D03*
X1180000Y274500D03*
X1190000D03*
X1200000Y223000D03*
Y274500D03*
X1218500Y223000D03*
X1228500D03*
X1218500Y274500D03*
X1228500D03*
X1238500Y223000D03*
Y274500D03*
G54D28*
G01X43000Y98500D02*
X39000D01*
X36500Y96000D01*
Y43500D01*
X39150Y40850D01*
X50650D01*
X59500Y32000D01*
Y22500D01*
G01X48000Y118500D02*
X45650Y116150D01*
X39150D01*
X34500Y111500D01*
Y42500D01*
X58500Y18500D01*
X59676D01*
G01X43000Y63500D02*
X39000Y67500D01*
Y81000D01*
G01X48000Y103500D02*
X50500D01*
X57500Y96500D01*
Y42500D01*
X72500Y27500D01*
G01X255000Y67300D02*
X253800Y68500D01*
Y91200D01*
X251700Y93300D01*
Y122400D01*
X255000Y125700D01*
G01X254700Y63000D02*
X256800Y65100D01*
Y68046D01*
X255000Y69846D01*
Y93500D01*
G01X257000Y74500D02*
Y95000D01*
X253500Y98500D01*
Y109500D01*
G01X274000Y20000D02*
Y33229D01*
X267529Y39700D01*
X266454D01*
X265400Y40754D01*
Y42246D01*
X265700Y42546D01*
Y52246D01*
X264700Y53246D01*
Y57700D01*
X267500Y60500D01*
Y67312D01*
X265705Y69107D01*
G01X311151Y63700D02*
Y128849D01*
X307500Y132500D01*
X303500D01*
X302500Y133500D01*
G01X332300Y92700D02*
X333000Y92000D01*
Y66500D01*
X334600Y64900D01*
Y64200D01*
G01X433500Y46077D02*
X434677Y44900D01*
X435873D01*
X436900Y43873D01*
Y29127D01*
X431373Y23600D01*
X428677D01*
X427500Y22423D01*
G01X433500Y42823D02*
X434677Y44000D01*
X435500D01*
X436000Y43500D01*
Y29500D01*
X431000Y24500D01*
X428677D01*
X427500Y25677D01*
G54D19*
X170450Y218250D03*
Y234750D03*
X186950Y218250D03*
Y234750D03*
G54D29*
G01X43000Y68500D02*
X45500Y66000D01*
X49500D01*
X52000Y63500D01*
Y43000D01*
X62000Y33000D01*
Y20500D01*
X71500Y11000D01*
Y9150D01*
G01X33000Y189000D02*
X34000Y188000D01*
Y114500D01*
G01X43000Y168500D02*
X36500Y175000D01*
Y192500D01*
X34000Y195000D01*
Y230500D01*
G01X43000Y173500D02*
X45600Y176100D01*
X49600D01*
X51500Y178000D01*
Y232500D01*
X56000Y237000D01*
Y247500D01*
G01X93500Y11000D02*
X79500Y25000D01*
Y34000D01*
X64449Y49051D01*
Y66066D01*
X65500Y67117D01*
Y133000D01*
X62500Y136000D01*
Y137500D01*
X64500Y139500D01*
Y148000D01*
X60500Y152000D01*
Y216000D01*
G01X62000Y131500D02*
Y115000D01*
X59500Y112500D01*
Y63000D01*
X62049Y60451D01*
G01X53500Y193500D02*
Y147500D01*
G01X57000Y138500D02*
X57500Y139000D01*
Y234500D01*
G01X86500Y74000D02*
Y46500D01*
X88500Y44500D01*
G01X71000Y113000D02*
Y64000D01*
G01X80500Y104500D02*
Y63890D01*
X80610Y63780D01*
Y60110D01*
G01X67016Y66016D02*
X68550Y67550D01*
Y187482D01*
X67016Y189016D01*
G01X76079Y62079D02*
Y141579D01*
G01X71000Y143547D02*
Y113000D01*
G01X71350Y113150D02*
X71150D01*
X71000Y113000D01*
G01X80500Y104500D02*
Y139500D01*
X80390Y139610D01*
G01X65500Y271000D02*
Y195500D01*
X71000Y190000D01*
Y143547D01*
G01X80390Y148890D02*
Y161611D01*
X77500Y164501D01*
Y189500D01*
X71000Y196000D01*
Y263000D01*
X72000Y264000D01*
G01X69000Y267500D02*
Y209617D01*
X69350Y209267D01*
Y207733D01*
X69000Y207383D01*
Y194500D01*
X74000Y189500D01*
Y154000D01*
X76079Y151921D01*
Y141579D01*
G01X93000Y237500D02*
Y234000D01*
X92650Y233650D01*
X88733D01*
X87583Y232500D01*
X84000D01*
X83500Y232000D01*
G01X94500Y208500D02*
X94062Y208062D01*
Y207353D01*
X101415Y200000D01*
X136585D01*
X141585Y205000D01*
X166809D01*
X169501Y202308D01*
Y201184D01*
X170685Y200000D01*
G01X92500Y203000D02*
X93000Y203500D01*
X96500D01*
X101000Y199000D01*
X137000D01*
X142000Y204000D01*
X166394D01*
X168501Y201893D01*
Y201185D01*
X167316Y200000D01*
G01X134500Y135500D02*
X121579D01*
X118579Y132500D01*
G01X230000Y20000D02*
X232500Y22500D01*
Y36499D01*
X236500Y40499D01*
Y63000D01*
X238500Y65000D01*
X242000D01*
G01X218432Y189526D02*
Y192932D01*
X222500Y197000D01*
Y206997D01*
G01X226000Y222500D02*
Y224500D01*
X226500Y225000D01*
Y258500D01*
X223550Y261450D01*
G01X257000Y57500D02*
X254500D01*
X253750Y56750D01*
Y45351D01*
X255600Y43501D01*
Y40601D01*
X243500Y28501D01*
Y25500D01*
G01Y14000D02*
Y17300D01*
X246300Y20100D01*
Y28299D01*
X258400Y40399D01*
Y49783D01*
X258050Y50133D01*
Y53850D01*
X259700Y55500D01*
Y67100D01*
X259500Y67300D01*
G01X242300Y45600D02*
X246000Y49300D01*
Y68900D01*
X241900Y73000D01*
X240500D01*
G01X251600Y63200D02*
Y53700D01*
X251900Y53400D01*
G01X255000Y174500D02*
X255500Y174000D01*
Y159000D01*
X254000Y157500D01*
Y149000D01*
X255500Y147500D01*
Y130036D01*
X264000Y121536D01*
Y112500D01*
X263505Y112005D01*
Y111997D01*
G01X258500Y186500D02*
X256500Y188500D01*
X251500D01*
X245841Y194159D01*
X241342D01*
X240500Y195001D01*
G01X263300Y67100D02*
X262500Y66300D01*
Y59383D01*
X263150Y58733D01*
Y50850D01*
X263500Y50500D01*
G01X265000Y77500D02*
X265263Y77763D01*
X267237D01*
X270700Y74300D01*
Y47700D01*
X267200Y44200D01*
Y41500D01*
G01X276050Y66150D02*
X274150Y68050D01*
X274133D01*
X273050Y69133D01*
Y104550D01*
X275950Y107450D01*
Y113050D01*
X274250Y114750D01*
Y123750D01*
X273000Y125000D01*
G01X260400Y74600D02*
X261350Y75550D01*
Y91650D01*
X260000Y93000D01*
G01X281900Y66600D02*
X283900Y64600D01*
Y62583D01*
X286500Y59983D01*
Y48500D01*
G01X293900Y74000D02*
Y67100D01*
X297500Y63500D01*
G01X289126Y117126D02*
Y110000D01*
X290500Y108626D01*
G01X282000Y130449D02*
X282449D01*
X289500Y137500D01*
Y151500D01*
G01X319500Y91000D02*
Y87501D01*
X318000Y86001D01*
Y71500D01*
X325000Y64500D01*
X325500D01*
G01X308500Y97000D02*
X309500D01*
X310000Y97500D01*
Y112000D01*
X306500Y115500D01*
Y116000D01*
G01X314000Y96500D02*
Y107000D01*
G01X339300Y69300D02*
X340000Y68600D01*
Y50000D01*
X342500Y47500D01*
Y27500D01*
X344500Y25500D01*
Y11500D01*
X343500Y10500D01*
G01X355750Y10750D02*
X351500Y15000D01*
Y19500D01*
X347050Y23950D01*
Y47350D01*
X343650Y50750D01*
Y71150D01*
X346500Y74000D01*
G01X341000Y180000D02*
Y180500D01*
X339000Y182500D01*
Y228000D01*
X335500Y231500D01*
Y260500D01*
X338327Y263327D01*
X346827D01*
G01X366000Y73500D02*
Y66000D01*
X365000Y65000D01*
Y32499D01*
X367000Y30499D01*
Y10000D01*
G01X358700Y73000D02*
X360600Y71100D01*
Y57183D01*
X359850Y56433D01*
Y53149D01*
X358250Y51549D01*
Y22750D01*
X359000Y22000D01*
Y10500D01*
G01X357913Y68300D02*
X357900Y68313D01*
Y68400D01*
X356850Y69450D01*
Y73767D01*
X357000Y73917D01*
Y98000D01*
X350500Y104500D01*
Y128514D01*
X349000Y130014D01*
Y135500D01*
X350500Y137000D01*
G01X357900Y56300D02*
X357517Y55917D01*
X348700D01*
X345900Y58717D01*
Y66783D01*
X348850Y69733D01*
Y75050D01*
X346500Y77400D01*
G01X347500Y128000D02*
X349000Y126500D01*
Y78599D01*
X351100Y76499D01*
Y69100D01*
X348550Y66550D01*
G01X347963Y59272D02*
X348035Y59344D01*
X349344D01*
X353100Y63100D01*
Y79900D01*
X351000Y82000D01*
Y85500D01*
X352500Y87000D01*
Y98000D01*
X352000Y98500D01*
G01X372500Y133500D02*
X364500D01*
X362535Y135465D01*
Y156535D01*
X365000Y159000D01*
Y199815D01*
X366185Y201000D01*
G01X377500Y133500D02*
X375050Y131050D01*
X369950D01*
X368500Y132500D01*
X364085D01*
X361535Y135050D01*
Y156950D01*
X364000Y159415D01*
Y199816D01*
X362816Y201000D01*
G01X406000Y175500D02*
X404500Y174000D01*
Y149651D01*
X405303Y148848D01*
Y145803D01*
X401750Y142250D01*
Y116333D01*
X402535Y115548D01*
Y31535D01*
X399500Y28500D01*
Y3000D01*
G01X411616Y112500D02*
X412800Y113684D01*
Y135502D01*
X411500Y136802D01*
Y157468D01*
X410650Y158318D01*
Y160682D01*
X411500Y161532D01*
Y178188D01*
X411490Y178198D01*
Y200325D01*
X410315Y201500D01*
G01X440500Y55500D02*
X439000D01*
X437500Y57000D01*
X428086D01*
X425700Y59386D01*
Y69700D01*
X434000Y78000D01*
Y126585D01*
X430500Y130085D01*
Y137169D01*
X430499Y137170D01*
Y137998D01*
X433014Y140513D01*
Y141682D01*
X433500Y142168D01*
Y199815D01*
X432315Y201000D01*
G01X440500Y58869D02*
X438868D01*
X437999Y58000D01*
X428501D01*
X426700Y59801D01*
Y69285D01*
X435000Y77585D01*
Y127000D01*
X431500Y130500D01*
Y137584D01*
X434014Y140098D01*
Y141267D01*
X434500Y141753D01*
Y199816D01*
X435684Y201000D01*
G01X442250Y11250D02*
Y17750D01*
X440500Y19500D01*
Y50500D01*
X435500Y55500D01*
X427000D01*
X424500Y58000D01*
Y74800D01*
X428050Y78350D01*
X430350D01*
X432000Y80000D01*
Y113000D01*
X430500Y114500D01*
Y125500D01*
X428500Y127500D01*
Y131987D01*
X428750Y132237D01*
Y141850D01*
X431500Y144600D01*
Y150000D01*
X429500Y152000D01*
X429000D01*
X428500Y152500D01*
G01X414985Y112500D02*
X413800Y113685D01*
Y135917D01*
X412500Y137217D01*
Y157883D01*
X411650Y158733D01*
Y160267D01*
X412500Y161117D01*
Y178603D01*
X412490Y178613D01*
Y200306D01*
X413684Y201500D01*
G01X417000Y189000D02*
Y185500D01*
X414650Y183150D01*
Y179690D01*
X414340Y179380D01*
G01X420000Y189000D02*
X419500Y188500D01*
Y185000D01*
X416500Y182000D01*
Y181000D01*
G01X421500Y267000D02*
X420500D01*
X416000Y262500D01*
Y228000D01*
X418500Y225500D01*
Y203500D01*
G01X447500Y143500D02*
X440000Y151000D01*
Y172600D01*
X440050Y172650D01*
Y184450D01*
X437000Y187500D01*
G01X452500Y143500D02*
X454000D01*
X459000Y148500D01*
Y195500D01*
G01X447500Y153500D02*
X444500Y156500D01*
Y167000D01*
X445500Y168000D01*
G01X452500Y153500D02*
X456000Y157000D01*
Y166500D01*
G01X479700Y49900D02*
X469500Y60100D01*
Y61500D01*
X464000Y67000D01*
Y77500D01*
X465500Y79000D01*
Y126500D01*
X469000Y130000D01*
Y138000D01*
G01X470315Y201000D02*
X471292Y200023D01*
Y195293D01*
X474150Y192435D01*
Y190318D01*
X474500Y189968D01*
Y109501D01*
X473498Y108499D01*
X472686D01*
X471500Y109685D01*
G01X473684Y201000D02*
X472292Y199608D01*
Y195708D01*
X475150Y192850D01*
Y190733D01*
X475500Y190383D01*
Y110600D01*
X475501Y110599D01*
Y109087D01*
X473913Y107499D01*
X472814D01*
X471631Y106316D01*
X471500D01*
G01X489315Y138000D02*
X490500Y139185D01*
Y200315D01*
X489315Y201500D01*
G01X492684Y138000D02*
X491500Y139184D01*
Y200316D01*
X492684Y201500D01*
G01X577500Y63500D02*
X573000D01*
X571000Y65500D01*
Y136000D01*
G01X577500Y58500D02*
X570500D01*
X566000Y63000D01*
Y131050D01*
G01X599615Y58500D02*
Y56314D01*
X598824Y55523D01*
Y11324D01*
G01X596915Y9414D02*
Y63000D01*
G01X600733Y13234D02*
Y52368D01*
G01X652500Y133500D02*
X644500D01*
X622500Y111500D01*
Y21000D01*
G01X629131Y169000D02*
X630500Y170369D01*
Y200000D01*
X627000Y203500D01*
X621685D01*
X620500Y202315D01*
G01X632500Y169000D02*
X631500Y170000D01*
Y200415D01*
X627415Y204500D01*
X621684D01*
X620500Y205684D01*
G01X652500Y118500D02*
X646001D01*
X629500Y101999D01*
Y22500D01*
G01X669000Y45816D02*
X670185Y47001D01*
X673108D01*
X673608Y46501D01*
Y34585D01*
X674693Y33500D01*
X675815D01*
X677000Y32315D01*
G01X657500Y58500D02*
X658500Y57500D01*
X662999D01*
X665892Y54607D01*
Y39635D01*
X664807Y38550D01*
X663685D01*
X662500Y37365D01*
G01X669000Y49185D02*
X670184Y48001D01*
X673523D01*
X674608Y46916D01*
Y35000D01*
X675108Y34500D01*
X675816D01*
X677000Y35684D01*
G01X652500Y58500D02*
X654950Y56050D01*
X658515D01*
X658965Y56500D01*
X662584D01*
X664892Y54192D01*
Y40050D01*
X664392Y39550D01*
X663684D01*
X662500Y40734D01*
G01X670000Y168284D02*
Y92950D01*
X687000Y75950D01*
G01X732500Y153500D02*
X742000D01*
X744000Y155500D01*
Y200309D01*
X740808Y203501D01*
X739684D01*
X738500Y204685D01*
G01X727500Y153500D02*
X729950Y155950D01*
X735050D01*
X736500Y154500D01*
X741585D01*
X743000Y155915D01*
Y199894D01*
X740393Y202501D01*
X739685D01*
X738500Y201316D01*
G01X732500Y163500D02*
X730500Y165500D01*
Y194308D01*
X727308Y197500D01*
X726184D01*
X725000Y198684D01*
G01X727500Y163500D02*
X729500Y165500D01*
Y193893D01*
X726893Y196500D01*
X726185D01*
X725000Y195315D01*
G01X755685Y43500D02*
X754501Y44684D01*
Y66316D01*
X755685Y67500D01*
G01X746500Y45500D02*
Y67586D01*
X748000Y69086D01*
Y75501D01*
X746381Y77120D01*
X743285D01*
X742101Y78304D01*
G01X752316Y43500D02*
X753501Y44685D01*
Y66315D01*
X752316Y67500D01*
G01X743800Y45500D02*
X743883D01*
X745500Y47117D01*
Y68001D01*
X747000Y69501D01*
Y75086D01*
X745966Y76120D01*
X743286D01*
X742101Y74935D01*
G01X815000Y158000D02*
X815500Y157500D01*
Y136500D01*
G01X845000Y158000D02*
Y133000D01*
X847000Y131000D01*
Y94500D01*
G01X860000Y141000D02*
Y158000D01*
G01X880000Y50000D02*
Y68500D01*
X873000Y75500D01*
Y110001D01*
X874000Y111001D01*
Y146000D01*
G01X902300Y17800D02*
Y47300D01*
X905000Y50000D01*
G01X890000Y158000D02*
Y132500D01*
G01X907800Y22300D02*
X907500Y22600D01*
Y47500D01*
X910000Y50000D01*
G01X925000Y158000D02*
Y128500D01*
X929750Y123750D01*
G01X910000Y158000D02*
Y140000D01*
G01X920000Y158000D02*
Y147000D01*
G01X930000Y158000D02*
Y128501D01*
X931600Y126901D01*
Y119599D01*
X930000Y117999D01*
Y82000D01*
G01X935000Y128000D02*
Y158000D01*
G01X960000Y143500D02*
Y158000D01*
G01X965000D02*
Y152000D01*
X966000Y151000D01*
M02*
