G04 ================== begin FILE IDENTIFICATION RECORD ==================*
G04 Layout Name:  //Mac/Home/Desktop/SPB_Data/Capture/cis_atcs/allegro/ATCS_Final.brd*
G04 Film Name:    SOLDERMASK_BOT*
G04 File Format:  Gerber RS274X*
G04 File Origin:  Cadence Allegro 17.2-P019*
G04 Origin Date:  Thu May 31 11:23:03 2018*
G04 *
G04 Layer:  VIA CLASS/SOLDERMASK_BOTTOM*
G04 Layer:  PIN/SOLDERMASK_BOTTOM*
G04 Layer:  PACKAGE GEOMETRY/SOLDERMASK_BOTTOM*
G04 Layer:  DRC ERROR CLASS/SOLDERMASK_BOTTOM*
G04 Layer:  BOARD GEOMETRY/SOLDERMASK_BOTTOM*
G04 *
G04 Offset:    (0.00 0.00)*
G04 Mirror:    No*
G04 Mode:      Positive*
G04 Rotation:  0*
G04 FullContactRelief:  No*
G04 UndefLineWidth:     0.00*
G04 ================== end FILE IDENTIFICATION RECORD ====================*
%FSLAX55Y55*MOIN*%
%IR0*IPPOS*OFA0.00000B0.00000*MIA0B0*SFA1.00000B1.00000*%
%ADD33R,.06X.1*%
%ADD48C,.03*%
%ADD24R,.13X.067*%
%ADD11C,.022*%
%ADD15C,.05*%
%ADD14C,.07*%
%ADD12C,.026*%
%ADD16C,.036*%
%ADD10C,.037*%
%ADD47R,.07X.07*%
%ADD44C,.095*%
%ADD17R,.036X.036*%
%ADD35R,.069X.069*%
%ADD38R,.05X.014*%
%ADD22R,.01X.028*%
%ADD45R,.016X.04*%
%ADD42R,.025X.07*%
%ADD41R,.028X.04*%
%ADD39R,.015X.026*%
%ADD46R,.042X.017*%
%ADD21R,.027X.025*%
%ADD13C,.25*%
%ADD40R,.019X.052*%
%ADD30R,.025X.027*%
%ADD29C,.118*%
%ADD32R,.094X.07*%
%ADD43R,.02362X.06102*%
%ADD23R,.05512X.04331*%
%ADD37R,.01181X.03543*%
%ADD27R,.04134X.04252*%
%ADD36R,.03543X.01181*%
%ADD25R,.02362X.0374*%
%ADD19R,.02362X.02165*%
%ADD49R,.0374X.02362*%
%ADD34R,.0374X.0374*%
%ADD18R,.02165X.02362*%
%ADD31R,.0374X.0374*%
%ADD28R,.05906X.05118*%
%ADD20R,.05118X.05906*%
%ADD26R,.04921X.0689*%
%ADD50C,.006*%
G75*
%LPD*%
G75*
G36*
G01X1123000Y95500D02*
Y112500D01*
X1146500D01*
Y95500D01*
X1123000D01*
G37*
G36*
G01D02*
Y112500D01*
X1146500D01*
Y95500D01*
X1123000D01*
G37*
G54D10*
X23000Y38500D03*
Y43500D03*
Y48500D03*
Y53500D03*
Y58500D03*
Y63500D03*
Y68500D03*
Y73500D03*
Y78500D03*
Y83500D03*
Y88500D03*
Y93500D03*
Y98500D03*
Y103500D03*
Y108500D03*
Y113500D03*
Y118500D03*
Y123500D03*
Y128500D03*
Y133500D03*
Y138500D03*
Y143500D03*
Y148500D03*
Y153500D03*
Y158500D03*
Y163500D03*
Y168500D03*
Y173500D03*
Y178500D03*
Y183500D03*
Y188500D03*
Y193500D03*
Y198500D03*
Y203500D03*
Y208500D03*
Y213500D03*
Y218500D03*
Y223500D03*
Y228500D03*
Y233500D03*
X43000Y38500D03*
Y43500D03*
Y48500D03*
Y53500D03*
X28000Y38500D03*
Y43500D03*
Y48500D03*
Y53500D03*
X43000Y58500D03*
Y63500D03*
Y68500D03*
Y73500D03*
X28000Y58500D03*
Y63500D03*
Y68500D03*
Y73500D03*
X43000Y78500D03*
Y83500D03*
Y88500D03*
Y93500D03*
X28000Y78500D03*
Y83500D03*
Y88500D03*
Y93500D03*
X43000Y98500D03*
Y103500D03*
Y108500D03*
Y113500D03*
Y118500D03*
X28000Y98500D03*
Y103500D03*
Y108500D03*
Y113500D03*
Y118500D03*
X43000Y123500D03*
Y128500D03*
Y133500D03*
Y138500D03*
X28000Y123500D03*
Y128500D03*
Y133500D03*
Y138500D03*
X43000Y143500D03*
Y148500D03*
Y153500D03*
Y158500D03*
X28000Y143500D03*
Y148500D03*
Y153500D03*
Y158500D03*
X43000Y163500D03*
Y168500D03*
Y173500D03*
Y178500D03*
Y183500D03*
X28000Y163500D03*
Y168500D03*
Y173500D03*
Y178500D03*
Y183500D03*
X43000Y188500D03*
Y193500D03*
Y198500D03*
Y203500D03*
X28000Y188500D03*
Y193500D03*
Y198500D03*
Y203500D03*
X43000Y208500D03*
Y213500D03*
Y218500D03*
Y223500D03*
X28000Y208500D03*
Y213500D03*
Y218500D03*
Y223500D03*
X43000Y228500D03*
Y233500D03*
X28000Y228500D03*
Y233500D03*
X48000Y38500D03*
Y43500D03*
Y48500D03*
Y53500D03*
Y58500D03*
Y63500D03*
Y68500D03*
Y73500D03*
Y78500D03*
Y83500D03*
Y88500D03*
Y93500D03*
Y98500D03*
Y103500D03*
Y108500D03*
Y113500D03*
Y118500D03*
Y123500D03*
Y128500D03*
Y133500D03*
Y138500D03*
Y143500D03*
Y148500D03*
Y153500D03*
Y158500D03*
Y163500D03*
Y168500D03*
Y173500D03*
Y178500D03*
Y183500D03*
Y188500D03*
Y193500D03*
Y198500D03*
Y203500D03*
Y208500D03*
Y213500D03*
Y218500D03*
Y223500D03*
Y228500D03*
Y233500D03*
G54D20*
X82563Y214000D03*
X90437D03*
X90563Y247000D03*
X98437D03*
X106563D03*
X121937Y214000D03*
X114063D03*
X114437Y247000D03*
X150437Y66000D03*
X142563D03*
X150437Y145500D03*
X142563D03*
X173563Y36000D03*
Y85500D03*
X174063Y145500D03*
X181437Y36000D03*
Y85500D03*
X181937Y145500D03*
X214937Y41500D03*
X207063D03*
X214937Y91000D03*
X207063D03*
X215437Y151000D03*
X207563D03*
X237937Y215000D03*
X230063D03*
X325563Y257500D03*
X333437D03*
X405063D03*
X427837Y59500D03*
X419963D03*
X429463Y82800D03*
X412937Y257500D03*
X437337Y82800D03*
X498637Y36900D03*
X490763D03*
X497137Y76400D03*
X489263D03*
X491937Y257500D03*
X484063D03*
X990563Y321000D03*
X992063Y383000D03*
X998437Y321000D03*
X999937Y383000D03*
X1101937Y321000D03*
X1094063D03*
X1100937Y383500D03*
X1093063D03*
X1163363Y372300D03*
Y388800D03*
X1171237Y372300D03*
Y388800D03*
G54D11*
X14500Y45000D03*
X15500Y166000D03*
X10500Y222500D03*
X39000Y81000D03*
X38770Y105577D03*
X34000Y114500D03*
X33000Y189000D03*
X38500Y239000D03*
X34000Y230500D03*
X37000Y236000D03*
X66500Y7000D03*
X59500Y22500D03*
X66000Y27500D03*
X59676Y18500D03*
X63000Y14500D03*
X62049Y60451D03*
X52500Y96000D03*
X52220Y134280D03*
X57000Y138500D03*
X58500Y120500D03*
X62000Y131500D03*
X53500Y147500D03*
Y193500D03*
X60500Y216000D03*
X54000Y229000D03*
X57500Y234500D03*
X56000Y247500D03*
X65500Y271000D03*
X71500Y9150D03*
X69000Y4500D03*
X72500Y27500D03*
X71000Y64000D03*
X80610Y60110D03*
X67016Y66016D03*
X76079Y62079D03*
X86500Y74000D03*
X71350Y113150D03*
X80500Y104500D03*
X71000Y143547D03*
X80390Y148890D03*
Y139610D03*
X76079Y141579D03*
Y158921D03*
X82500Y158500D03*
X83000Y178350D03*
X67016Y189016D03*
X82577Y201000D03*
X67500Y208500D03*
X83500Y232000D03*
X72000Y264000D03*
X69000Y267500D03*
X76000Y262000D03*
X93500Y11000D03*
X106000Y41063D03*
X106500Y66500D03*
X109579Y71921D03*
X90500Y77000D03*
X94500Y84500D03*
X109000Y77000D03*
X109579Y151421D03*
X90500Y156500D03*
X109000D03*
X94500Y164000D03*
X100000Y178350D03*
X92500Y203000D03*
X94500Y208500D03*
X97724Y229576D03*
X100724D03*
X103724D03*
X106724D03*
X97724Y232576D03*
X100724D03*
X103724D03*
X106724D03*
X89500Y231800D03*
X92500D03*
X89400Y229000D03*
X92500D03*
X93000Y237500D03*
X90000D03*
X104500Y277000D03*
X99500D03*
X125000Y18500D03*
X118500Y39000D03*
X124500Y52500D03*
X118579Y53000D03*
X112000Y54000D03*
X119000Y71500D03*
Y62500D03*
X123500Y67000D03*
X128000Y71500D03*
Y62500D03*
X118579Y84000D03*
Y86600D03*
X113000Y76983D03*
X118500Y105500D03*
X112000Y115000D03*
Y99500D03*
X124000D03*
X130500D03*
X112500Y132596D03*
X118579Y132500D03*
X118500Y118500D03*
X125500D03*
X129000Y132500D03*
Y120000D03*
X110516Y147484D03*
X119000Y142000D03*
X123500Y146500D03*
X128000Y142000D03*
X119000Y151000D03*
X113000Y156483D03*
X128000Y151000D03*
X112000Y179000D03*
X118579Y166100D03*
Y163500D03*
X129000Y172000D03*
X122500Y194000D03*
X118500Y185000D03*
X114300Y228800D03*
X111200D03*
X114300Y231600D03*
X111300D03*
X114000Y237500D03*
X111228D03*
X112000Y277000D03*
X117000D03*
X136500Y13000D03*
X135500Y55500D03*
X151500Y60500D03*
X150437Y71937D03*
X151500Y55500D03*
X137500Y63000D03*
Y70500D03*
X138000Y66016D03*
X137750Y57250D03*
X134500Y135500D03*
X151500Y135000D03*
X138469Y135470D03*
X150437Y151437D03*
X151500Y140000D03*
X137500Y142500D03*
Y150000D03*
X138000Y145516D03*
X153500Y51000D03*
X167000Y73000D03*
X164272Y61728D03*
X161500Y60000D03*
X168500Y55500D03*
Y66500D03*
X167000Y78000D03*
X157500Y81000D03*
X157000Y84000D03*
X170000Y74500D03*
X169500Y101000D03*
X153700Y103800D03*
X157000Y123500D03*
X153000Y154500D03*
X172500Y161500D03*
X153000Y168500D03*
Y161500D03*
X154500Y165500D03*
X158000Y166500D03*
X170685Y200000D03*
X167316D03*
X190500Y38500D03*
X195500Y38484D03*
X175547Y64700D03*
X186000Y62500D03*
X181000Y69000D03*
X193808Y87984D03*
X190500Y88000D03*
X176500Y108801D03*
X185400Y134000D03*
X181500Y131300D03*
X181700Y120900D03*
X191000Y148000D03*
X185400Y174300D03*
X179200Y177500D03*
X195500Y204500D03*
X202300Y41500D03*
X202500Y46000D03*
X202300Y35500D03*
Y31500D03*
X202000Y81500D03*
X202300Y85000D03*
Y94500D03*
Y91000D03*
X197000Y88000D03*
X196500Y147984D03*
X202800Y140000D03*
Y145000D03*
Y151000D03*
Y154701D03*
X207228Y194228D03*
X215500Y191000D03*
X203000Y189000D03*
X221500Y11000D03*
X230000Y20000D03*
X231500Y40500D03*
X235000Y31500D03*
X237500Y36500D03*
X228500Y55000D03*
X239000Y61803D03*
X238400Y77700D03*
X227773Y110183D03*
X235000Y123500D03*
X222000Y120000D03*
X226000D03*
X235000Y150000D03*
X236200Y162500D03*
X228500Y169000D03*
X221500Y174200D03*
X232700Y172100D03*
X228500Y199000D03*
X227500Y190000D03*
X222000Y191000D03*
X237909Y195854D03*
X218432Y189526D03*
X219000Y198000D03*
X232750Y188750D03*
X234600Y207500D03*
X231500Y208500D03*
X219000Y204000D03*
X226000Y222500D03*
X237000Y204062D03*
X229500Y210447D03*
X227000Y208500D03*
X222500Y206997D03*
X229524Y221477D03*
X221500Y240000D03*
X221594Y243406D03*
X224485Y243485D03*
X238900Y231000D03*
X224100D03*
X238500Y243000D03*
X228500Y236500D03*
X234500D03*
X223550Y261450D03*
X236000Y259500D03*
X229000Y254000D03*
X232500D03*
X243500Y25500D03*
X241500Y20500D03*
X243500Y14000D03*
X242300Y45600D03*
X259900Y50900D03*
X251500Y67300D03*
X242400Y60000D03*
X240500Y73000D03*
X242000Y67887D03*
X251600Y63200D03*
X251900Y53400D03*
X242000Y65000D03*
X257000Y57500D03*
X257800Y63000D03*
X259500Y67300D03*
X255000D03*
X254700Y63000D03*
X251900Y82100D03*
X252000Y79500D03*
X243000Y83500D03*
X260000Y93000D03*
X260400Y74600D03*
X257000Y74500D03*
X259500Y84000D03*
X251900Y74400D03*
X242500Y77000D03*
X255000Y93500D03*
X260000Y105000D03*
X253500Y109500D03*
X255500Y115700D03*
X256000Y121500D03*
X255000Y125700D03*
Y174500D03*
X247437Y166437D03*
X258500Y186500D03*
X240500Y195001D03*
X247437Y184063D03*
X240500Y239000D03*
X241406Y243406D03*
X279000Y16500D03*
X274000Y20000D03*
X263500Y50500D03*
X268000Y51000D03*
X267200Y41500D03*
X263300Y67100D03*
X281900Y66600D03*
X274900Y69900D03*
X265750Y74250D03*
X275504Y72596D03*
X266500Y56000D03*
X276050Y66150D03*
X265705Y69107D03*
X265000Y61000D03*
X269600Y85000D03*
X275500Y84400D03*
X275258Y80310D03*
X275700Y93500D03*
X265000Y77500D03*
X263500Y84300D03*
X261161Y113339D03*
X273000Y110000D03*
X271500Y117126D03*
X270000Y113339D03*
X263505Y111997D03*
X263720Y134280D03*
X276694Y129426D03*
X270000Y120500D03*
X272500Y132500D03*
X273000Y125000D03*
X282000Y130449D03*
X268000Y149500D03*
Y158000D03*
X260904Y157096D03*
X263898Y149300D03*
X280772Y196228D03*
X275272D03*
X278000Y203500D03*
X274500Y188500D03*
X275500Y211000D03*
X266000D03*
X278000Y224500D03*
X273000D03*
X268500D03*
X263500D03*
X268500Y204500D03*
X262500Y211500D03*
X271500Y211000D03*
X278000Y235500D03*
X276000Y246567D03*
X275500Y265300D03*
X275864Y257636D03*
X275500Y253000D03*
X281000Y268500D03*
X283437Y13063D03*
X286500Y48500D03*
X283437Y56937D03*
X289000Y53500D03*
X287500Y61600D03*
X291400Y55600D03*
X290500Y69200D03*
X291500Y61500D03*
X293900Y74000D03*
X292700Y87800D03*
X282500Y77800D03*
X289126Y117126D03*
X290500Y108626D03*
X288500Y103500D03*
X284864Y130000D03*
X284364Y117500D03*
X289500Y151500D03*
Y172000D03*
X302315Y200000D03*
X301250Y184750D03*
X285000Y211000D03*
X294500D03*
X292000Y224500D03*
X282500D03*
X301500D03*
X287500D03*
X297000D03*
X286500Y245500D03*
X293500Y263000D03*
X299450D03*
X286500Y249547D03*
X286000Y255453D03*
X297500Y251000D03*
X291500Y277500D03*
X299500Y278000D03*
X297000Y275500D03*
X311000Y16500D03*
X322000Y53728D03*
X323000Y58500D03*
X315100Y67000D03*
X311151Y63700D03*
X308100Y76600D03*
X324600Y74400D03*
X320500Y84000D03*
X319500Y91000D03*
X315100Y88600D03*
X324550Y78350D03*
X306500Y116000D03*
X308500Y97000D03*
X318000Y102000D03*
X314000Y96500D03*
Y107000D03*
X312500Y145000D03*
X312000Y158000D03*
X313500Y180000D03*
X312500Y174000D03*
X309500Y172000D03*
X320500Y199500D03*
X311815D03*
X319631Y183000D03*
X315184Y199500D03*
X323000Y183000D03*
X304000Y211000D03*
X313500D03*
X323000D03*
X306500Y224500D03*
X316000D03*
X320500D03*
X311000D03*
X320000Y245000D03*
X319500Y257000D03*
X320000Y251000D03*
X318588Y254000D03*
X304000Y282000D03*
X327500Y30500D03*
X343500Y10500D03*
X330000Y50500D03*
X335336Y32500D03*
X346500Y74000D03*
X325500Y64500D03*
X345500Y56500D03*
X337500Y73000D03*
X334600Y64200D03*
X347000Y70500D03*
X337500Y59000D03*
X339300Y69300D03*
X337500Y87000D03*
X332300Y92700D03*
X345200Y86500D03*
X346500Y77400D03*
X345500Y81000D03*
X345000Y111500D03*
X330500Y139000D03*
X346500Y121000D03*
X345500Y125500D03*
X330500Y151000D03*
X338000Y145000D03*
X331030Y153648D03*
X333000Y175500D03*
X337500Y180000D03*
X341000D03*
X330000Y199500D03*
X343816Y201000D03*
X332500Y211000D03*
X345500D03*
X330000Y224500D03*
X335000D03*
X343000D03*
X325500D03*
X327500Y209500D03*
X337000D03*
X342500Y246500D03*
X333000Y250500D03*
X343000Y257500D03*
X342500Y251500D03*
X346827Y263327D03*
X365000Y25000D03*
X355750Y10750D03*
X362500Y10000D03*
X367000D03*
X359000Y10500D03*
X347900Y53900D03*
X366000Y73500D03*
X357913Y68300D03*
X357900Y56300D03*
X348550Y66550D03*
X347963Y59272D03*
X358700Y73000D03*
X362500Y83000D03*
X352000Y98500D03*
X356316Y137500D03*
X354500Y130500D03*
X359685Y137500D03*
X351131Y130500D03*
X350500Y137000D03*
X347500Y128000D03*
X365316Y149000D03*
X355500Y161000D03*
X361000Y163500D03*
X349000Y175000D03*
X366185Y201000D03*
X362816D03*
X353316D03*
X347185D03*
X356685D03*
X364500Y211000D03*
X355000D03*
X362000Y224500D03*
X357500D03*
X367000D03*
X352500D03*
X348000D03*
X366000Y245500D03*
X355500Y246567D03*
X366000Y249547D03*
X365500Y255453D03*
X353000Y266000D03*
X355000Y253000D03*
X361000Y268500D03*
X369500Y21500D03*
X369000Y38500D03*
X385185Y150000D03*
X368685Y149000D03*
X381816Y150000D03*
X387316Y164000D03*
X386816Y176500D03*
X371933Y200500D03*
X385185D03*
X375302D03*
X381816D03*
X374000Y211000D03*
X383500D03*
X371500Y224500D03*
X381000D03*
X386000D03*
X376500D03*
X373000Y263000D03*
X378950D03*
X384500Y282000D03*
X376000Y280000D03*
Y274500D03*
X399500Y3000D03*
X396000Y30500D03*
X409000Y16500D03*
X392500Y33500D03*
X390500Y54000D03*
X403600Y117100D03*
X405400Y101300D03*
X409036Y104664D03*
X411616Y112500D03*
X403453Y148081D03*
X394302Y157000D03*
X390933D03*
X399000Y157500D03*
X407500Y172000D03*
X400000Y176000D03*
X390685Y164000D03*
X390185Y176500D03*
X406500Y163000D03*
X399500Y166000D03*
X406500D03*
X406000Y175500D03*
X404185Y199500D03*
X400816D03*
X394302Y201000D03*
X390933D03*
X410315Y201500D03*
X397500Y185000D03*
X393000Y211000D03*
X402500D03*
X409500Y224500D03*
X395500D03*
X400000D03*
X390500D03*
X405000D03*
X399500Y246000D03*
X399000Y257000D03*
X401500Y263500D03*
X400000Y251000D03*
X398500Y254000D03*
X427500Y22423D03*
Y25677D03*
X424500Y17823D03*
Y21077D03*
X414400Y48000D03*
X427528Y116472D03*
X414985Y112500D03*
X423500Y96000D03*
X423400Y99500D03*
X421500Y116500D03*
X428250Y123250D03*
X413500Y159500D03*
X423000Y159000D03*
X428500Y152500D03*
X426515Y172985D03*
X427250Y177250D03*
X419500Y179500D03*
X414340Y179380D03*
X416500Y181000D03*
X426500Y170000D03*
X430000Y168500D03*
X418500Y203500D03*
X432315Y201000D03*
X423173Y201358D03*
X426542D03*
X417000Y189000D03*
X420000D03*
X413684Y201500D03*
X421500Y182500D03*
X424500Y211000D03*
X412000D03*
X427000Y224500D03*
X422000D03*
X431500D03*
X414500D03*
X421500Y246500D03*
Y267000D03*
X422000Y257500D03*
X421500Y251500D03*
X412500Y250500D03*
X442250Y11250D03*
X433500Y46077D03*
Y42823D03*
X440500Y55500D03*
Y58869D03*
X439650Y106300D03*
X439000Y137000D03*
X440000Y126500D03*
X436364Y153000D03*
X435864Y140500D03*
X440000Y144000D03*
X445500Y168000D03*
X437000Y187500D03*
X447026Y196891D03*
X451315Y200500D03*
X454684D03*
X446973Y199591D03*
X435684Y201000D03*
X453000Y211000D03*
X443500D03*
X434000D03*
X436500Y224500D03*
X441000D03*
X450500D03*
X446000D03*
X445000Y245500D03*
X434500Y246567D03*
X439000Y267500D03*
X452000Y263000D03*
X445000Y249547D03*
X444500Y255453D03*
X434000Y253000D03*
X463000Y103500D03*
X471500Y109685D03*
X463000Y100131D03*
X471500Y106316D03*
X467500Y118500D03*
X469000Y138000D03*
X471500Y155500D03*
X456000Y166500D03*
X460815Y200000D03*
X470315Y201000D03*
X459000Y195500D03*
X464184Y200000D03*
X473684Y201000D03*
X469000Y188000D03*
X472000Y211000D03*
X462500D03*
X474500Y224500D03*
X469500D03*
X460000D03*
X465000D03*
X455500D03*
X457950Y263000D03*
X462000Y282000D03*
X455000Y280000D03*
Y274500D03*
X479700Y36900D03*
Y32400D03*
X493476Y51476D03*
X490476D03*
X487476D03*
X496476D03*
X479700Y49900D03*
X490476Y54476D03*
X487476D03*
X496476D03*
X493476D03*
X482300Y62200D03*
X486263Y82837D03*
X497137D03*
X481500Y129369D03*
X489315Y138000D03*
X481500Y126000D03*
X492684Y138000D03*
X478500Y140500D03*
X479815Y199500D03*
X489315Y201500D03*
X483184Y199500D03*
X492684Y201500D03*
X477000Y191500D03*
X491000Y211000D03*
X481500D03*
X479000Y224500D03*
X493500D03*
X484000D03*
X488500D03*
X478500Y246000D03*
X478000Y257000D03*
X479327Y263327D03*
X479000Y251000D03*
X477500Y254000D03*
X503700Y36900D03*
Y32400D03*
Y49900D03*
X504400Y57600D03*
X554047Y98047D03*
X548500Y110000D03*
X554047Y121047D03*
X561929Y172569D03*
X560020Y174479D03*
X568450Y16350D03*
X565950Y13850D03*
X571000Y136000D03*
X566000Y131050D03*
X565750Y168750D03*
X563839Y170659D03*
X571000Y177500D03*
X568000Y196500D03*
X566000Y208000D03*
X596915Y9414D03*
X598824Y11324D03*
X600733Y13234D03*
Y52368D03*
X599615Y58500D03*
X596915Y63000D03*
X591000Y88000D03*
X590500Y80500D03*
X591500Y93364D03*
X605000Y153500D03*
X603500Y158500D03*
X596500Y171500D03*
X603500Y179500D03*
X599000Y192500D03*
X622500Y21000D03*
X622000Y144000D03*
X610500Y148500D03*
X615500Y163500D03*
X607500Y176500D03*
X612500Y174000D03*
X622000Y191500D03*
X610000Y182500D03*
X620500Y202315D03*
Y205684D03*
X629500Y22500D03*
X645000Y30000D03*
X636500Y24000D03*
X629131Y169000D03*
X632500D03*
X669000Y45816D03*
X662500Y37365D03*
X669000Y49185D03*
X662500Y40734D03*
X670000Y168284D03*
X657500Y182500D03*
X674185Y17000D03*
X670816D03*
X677000Y32315D03*
Y35684D03*
X691500Y53500D03*
X687000Y75950D03*
Y185000D03*
X688000Y304000D03*
X709500Y191500D03*
X696500Y304000D03*
X713200Y369000D03*
X707800D03*
X700500Y364000D03*
X707017Y355579D03*
X710517Y359079D03*
X707017D03*
X710517Y355579D03*
X722500Y183000D03*
X725000Y198684D03*
Y195315D03*
X720500Y363500D03*
X714017Y359079D03*
Y355579D03*
X755685Y43500D03*
X746500Y45500D03*
X752316Y43500D03*
X743800Y45500D03*
X755685Y67500D03*
X752316D03*
X742101Y78304D03*
Y74935D03*
X744784Y105000D03*
X754784D03*
X748500D03*
X738500Y201316D03*
Y204685D03*
X741500Y212184D03*
Y208815D03*
X750500Y361500D03*
X753500D03*
X756500D03*
X745500Y369700D03*
Y367000D03*
X746100Y356000D03*
X759875Y59625D03*
X759784Y105000D03*
X775400Y123000D03*
Y135000D03*
X762646Y150354D03*
X760736Y152264D03*
X764000Y187500D03*
X761000Y189409D03*
X777000Y361500D03*
X774000D03*
X769000Y367000D03*
Y369700D03*
X769600Y356000D03*
X763406Y368406D03*
X762500Y364000D03*
X781000Y49500D03*
X798000Y166500D03*
X789500Y302500D03*
X780000D03*
Y361500D03*
X786000Y364000D03*
X786906Y368406D03*
X815500Y136500D03*
X807500Y128500D03*
X817800Y178729D03*
X817000Y222500D03*
X811500Y304000D03*
X820000D03*
X843000Y39000D03*
X840000Y60000D03*
X840500Y113500D03*
X822119Y176819D03*
X837517Y355579D03*
X834017D03*
X830517D03*
X834017Y359079D03*
X830517D03*
X837517D03*
X836700Y369000D03*
X824000Y364000D03*
X831300Y369000D03*
X860000Y73500D03*
X863535D03*
X847000Y94500D03*
X861750Y114750D03*
X854250Y107250D03*
X856750Y109750D03*
X859250Y112250D03*
X860000Y141000D03*
X846500Y209500D03*
X854000Y215500D03*
X844000Y363500D03*
X870605Y73500D03*
X867070D03*
X867500Y117000D03*
X874000Y146000D03*
X869000Y369700D03*
Y367000D03*
X869600Y356000D03*
X886000Y364000D03*
X880000Y361500D03*
X877000D03*
X874000D03*
X902300Y17800D03*
X899500Y64035D03*
X894000Y68500D03*
X890000Y132500D03*
X896000Y176700D03*
X893300Y185400D03*
X903500Y302500D03*
X892500Y369700D03*
Y367000D03*
X893100Y356000D03*
X886906Y368406D03*
X903500Y361500D03*
X897500D03*
X900500D03*
X926000Y25000D03*
X907800Y22300D03*
X918500Y17800D03*
X928000Y66500D03*
X925000Y60500D03*
X910000Y140000D03*
X920000Y147000D03*
X910500Y185400D03*
X913000Y302500D03*
X910406Y368406D03*
X909500Y364000D03*
X937000Y27000D03*
X940000Y68000D03*
X944500Y80000D03*
X930000Y82000D03*
X929750Y123750D03*
X935000Y128000D03*
X955184Y75000D03*
X951815D03*
X960000Y143500D03*
X966000Y151000D03*
X985000Y84500D03*
X979000Y78000D03*
X988369Y84500D03*
X985000Y320000D03*
X974000Y324200D03*
X977000D03*
X980000D03*
X986500Y382000D03*
X981500Y386200D03*
X975500D03*
X978500D03*
X1010400Y45500D03*
X996500Y78000D03*
X1010000Y163000D03*
X1014000Y180000D03*
X999000Y223500D03*
X1010000Y218000D03*
X1037000Y240000D03*
X1051000Y239500D03*
X1076000Y240000D03*
X1094500Y83500D03*
X1093400Y148400D03*
X1090000Y239500D03*
X1117300Y80500D03*
X1123300Y93000D03*
Y115000D03*
X1120450Y96150D03*
Y110850D03*
X1135000Y104000D03*
X1138600Y116900D03*
X1127500Y108000D03*
X1142000D03*
X1127500Y100000D03*
X1142000Y99500D03*
X1132600Y117400D03*
X1137400Y293700D03*
Y303200D03*
X1162500Y92000D03*
X1145300Y93000D03*
X1151000Y106500D03*
X1149150Y99650D03*
Y110450D03*
X1145700Y115000D03*
X1162900Y342500D03*
X1163247Y362347D03*
X1159000Y412000D03*
X1162847Y398353D03*
X1168500Y92000D03*
X1167800Y342260D03*
X1176800Y362300D03*
X1176227Y367800D03*
X1178800Y377800D03*
X1181800D03*
X1176300D03*
X1178800Y383800D03*
X1181300D03*
X1176300D03*
X1176000Y393300D03*
X1176800Y398800D03*
X1172028Y410972D03*
X1191000Y120000D03*
X1196000Y118500D03*
X1196400Y303200D03*
Y309200D03*
Y306200D03*
X1198900Y297200D03*
X1203306Y296294D03*
X1196400Y326700D03*
Y329700D03*
Y332700D03*
X1198900Y320700D03*
X1203306Y319794D03*
X1204600Y314200D03*
X1201900D03*
X1190900Y313600D03*
X1204600Y337700D03*
X1201900D03*
X1190900Y337100D03*
X1197713Y370300D03*
X1197900Y356000D03*
X1193000Y356500D03*
X1206800Y383800D03*
Y377800D03*
X1197500Y392000D03*
X1195950Y377150D03*
X1188650D03*
X1195950Y384450D03*
X1188650D03*
Y380800D03*
X1197500Y405501D03*
X1191800Y405300D03*
G54D30*
X194336Y25600D03*
X192336Y52600D03*
X194336Y75100D03*
X192336Y102100D03*
X194836Y135100D03*
X192836Y162100D03*
X199064Y25600D03*
X197064Y52600D03*
X199064Y75100D03*
X197064Y102100D03*
X199564Y135100D03*
X197564Y162100D03*
X251364Y46500D03*
X246636D03*
X266136D03*
X270864D03*
X261636Y100000D03*
X266364D03*
X280136Y133500D03*
X275864Y139500D03*
X271136D03*
X277636Y150500D03*
X281364Y241000D03*
X276636D03*
X284864Y133500D03*
X282364Y150500D03*
X322636Y157500D03*
X316136Y146500D03*
X320864D03*
X334864Y46500D03*
X330136D03*
X327364Y157500D03*
X349636Y46500D03*
X354364D03*
X402364Y45500D03*
X397636D03*
X402364Y50000D03*
X397636D03*
X409036Y101300D03*
X432536Y76300D03*
X413764Y101300D03*
X431636Y156500D03*
X437264Y76300D03*
X439264Y110800D03*
X434536D03*
X436364Y156500D03*
X938864Y265000D03*
X934136D03*
G54D21*
X90600Y220736D03*
Y225464D03*
X114100Y220736D03*
Y225464D03*
X164500Y113864D03*
Y109136D03*
X242500Y231364D03*
Y226636D03*
X268500Y216636D03*
Y221364D03*
X263500Y216636D03*
Y221364D03*
X273000Y216636D03*
Y221364D03*
X278000Y216636D03*
Y221364D03*
X281000Y246136D03*
X280500Y261364D03*
Y256636D03*
X281000Y250864D03*
X282500Y216636D03*
Y221364D03*
X297000Y216636D03*
Y221364D03*
X301500Y216636D03*
Y221364D03*
X292000Y216636D03*
Y221364D03*
X287500Y216636D03*
Y221364D03*
X296500Y264136D03*
Y268864D03*
X306500Y216636D03*
Y221364D03*
X311000Y216636D03*
Y221364D03*
X320500Y216636D03*
Y221364D03*
X316000Y216636D03*
Y221364D03*
X325500Y216636D03*
Y221364D03*
X335000Y216636D03*
Y221364D03*
X330000Y216636D03*
Y221364D03*
X343000Y216636D03*
Y221364D03*
Y265636D03*
Y270364D03*
X348000Y216636D03*
Y221364D03*
X362000Y216636D03*
Y221364D03*
X357500Y216636D03*
Y221364D03*
X352500Y216636D03*
Y221364D03*
X367000Y216636D03*
Y221364D03*
X371500Y216636D03*
Y221364D03*
X381000Y216636D03*
Y221364D03*
X386000Y216636D03*
Y221364D03*
X376500Y216636D03*
Y221364D03*
X376000Y264136D03*
Y268864D03*
X405000Y216636D03*
Y221364D03*
X400000Y216636D03*
Y221364D03*
X409500Y216636D03*
Y221364D03*
X390500Y216636D03*
Y221364D03*
X395500Y216636D03*
Y221364D03*
X427000Y216636D03*
Y221364D03*
X431500Y216636D03*
Y221364D03*
X422000Y216636D03*
Y221364D03*
X414500Y216636D03*
Y221364D03*
X436500Y216636D03*
Y221364D03*
X441000Y216636D03*
Y221364D03*
X446000Y216636D03*
Y221364D03*
X450500Y216636D03*
Y221364D03*
X460000Y216636D03*
Y221364D03*
X465000Y216636D03*
Y221364D03*
X469500Y216636D03*
Y221364D03*
X455500Y216636D03*
Y221364D03*
X474500Y216636D03*
Y221364D03*
X455000Y264136D03*
Y268864D03*
X493500Y216636D03*
Y221364D03*
X479000Y216636D03*
Y221364D03*
X484000Y216636D03*
Y221364D03*
X488500Y216636D03*
Y221364D03*
X504200Y70536D03*
Y75264D03*
G54D12*
X10500Y231000D03*
Y227000D03*
X62250Y66750D03*
X66499Y62501D03*
X66500Y138600D03*
X62000Y143000D03*
X79000Y221000D03*
X80999Y219001D03*
X74000Y214000D03*
X77500D03*
X85999Y206500D03*
X80000D03*
X82500Y247000D03*
X85000D03*
X106094Y202594D03*
X90937Y206500D03*
X99800Y240500D03*
X98437Y251937D03*
X129378Y194378D03*
X129000Y188500D03*
X115500Y203500D03*
X119500D03*
X130500Y214000D03*
X127000D03*
X126500Y221500D03*
X124501Y219501D03*
X123000Y247000D03*
X120000D03*
X138469Y104500D03*
X152000Y118028D03*
X148500D03*
X136000Y194378D03*
X135000Y188500D03*
X138000Y232500D03*
X164000Y36000D03*
X167500D03*
Y41000D03*
Y90500D03*
X164000Y85500D03*
X167500D03*
X164500Y118000D03*
X168000Y139500D03*
Y145500D03*
Y150500D03*
X162500Y232500D03*
X187000Y18000D03*
X176500Y49000D03*
X178000Y73500D03*
X177000Y100000D03*
X178000Y131000D03*
X177000Y158500D03*
X216728Y218500D03*
X216500Y215000D03*
X209000Y217500D03*
X213709Y226000D03*
X214000Y238000D03*
X209000Y235500D03*
X221500Y35000D03*
Y42000D03*
Y84500D03*
Y91500D03*
X230500Y108000D03*
X236000D03*
X222000Y144500D03*
Y151500D03*
X236719Y220718D03*
X219500Y215000D03*
X238000Y209000D03*
X249000Y42250D03*
X249500Y51000D03*
X256000Y46500D03*
X261000D03*
X241125Y107875D03*
X243500Y131678D03*
X258500Y118500D03*
X254000D03*
X244000Y146500D03*
Y141000D03*
X258500Y151796D03*
Y154896D03*
X244000Y192109D03*
Y197000D03*
X246000Y208000D03*
X246272Y218500D03*
X246500Y215000D03*
X243500D03*
X240500Y206500D03*
X271000Y43000D03*
X266364Y104000D03*
X263000D03*
X277000Y126136D03*
X266750Y121250D03*
X261636Y121000D03*
X268000Y139563D03*
X263500D03*
X280000Y139500D03*
X263500Y167937D03*
X268000D03*
X280000Y168000D03*
X286000Y157000D03*
Y150400D03*
X289119Y154763D03*
X286673Y274000D03*
X320000Y16000D03*
Y46500D03*
Y50500D03*
X318500Y132500D03*
X312000D03*
X319500Y157500D03*
X309500Y147500D03*
X315000Y168000D03*
X316000Y172000D03*
X309282Y245610D03*
X319500Y260500D03*
X309000Y253500D03*
X308327Y274500D03*
X340000Y46500D03*
X345000D03*
X330136Y42000D03*
X342136Y94500D03*
X345500D03*
X330200Y84700D03*
X330500Y132563D03*
X337747D03*
Y157063D03*
X333000Y157000D03*
X341000Y145000D03*
X343818Y144652D03*
X344932Y170068D03*
X345000Y173500D03*
X333000Y246000D03*
X339500Y257500D03*
X330500Y274528D03*
X327000D03*
X343000Y274500D03*
X353864Y51000D03*
Y42636D03*
X353800Y84300D03*
X366173Y274000D03*
X373500Y24000D03*
X388782Y245610D03*
X388500Y253500D03*
X372500Y278000D03*
X379500D03*
X387827Y274500D03*
X407000Y36000D03*
X398400Y66500D03*
X394400Y59500D03*
X400364Y89364D03*
X395636Y103500D03*
X408900Y116800D03*
X407400Y133500D03*
X408900Y154600D03*
Y151500D03*
X399000Y260500D03*
X410000Y268000D03*
X417000Y12500D03*
X425000Y39500D03*
X422501Y37001D03*
X414500Y39000D03*
X414400Y66500D03*
Y61500D03*
Y56000D03*
X429500Y65000D03*
X420900Y82800D03*
X424400D03*
X428900Y76300D03*
X416000Y106000D03*
X417500Y115500D03*
X416000Y137500D03*
X424500Y134000D03*
X428500Y149136D03*
X428750Y159250D03*
X427500Y143500D03*
X416500Y169500D03*
X412500Y246000D03*
X419000Y257500D03*
X416000Y268000D03*
X437100Y90000D03*
X438000Y173500D03*
X451500Y278000D03*
X445173Y274000D03*
X466000Y33500D03*
Y39500D03*
X470100Y65200D03*
X476100Y79900D03*
X473000Y93500D03*
X465500Y179000D03*
X467782Y245610D03*
X476500Y234000D03*
X467500Y253500D03*
X458500Y278000D03*
X466827Y274500D03*
X491000Y29000D03*
X492700Y42900D03*
X490700D03*
X490800Y31900D03*
X486000Y63100D03*
X497000Y63000D03*
X481700Y76400D03*
X491500Y246000D03*
X482000Y234000D03*
X491500Y250500D03*
X491937Y264000D03*
X478000Y260500D03*
X501700Y76400D03*
X508200Y77400D03*
X500500Y225500D03*
Y230500D03*
X580750Y241250D03*
X581000Y231500D03*
X580500Y257500D03*
X584500Y261500D03*
X644000Y4000D03*
X647500Y24000D03*
X641500Y169000D03*
X631000Y231500D03*
X630750Y241250D03*
X630500Y257500D03*
X634500Y261500D03*
X681000Y231500D03*
X680750Y241250D03*
X680500Y257500D03*
X684500Y261500D03*
X691063Y345937D03*
X686000Y340500D03*
X690500Y373500D03*
X696000Y14250D03*
X708000Y32000D03*
X711500Y48500D03*
X696000Y108500D03*
X705500Y281500D03*
X714000Y340500D03*
X708000D03*
X704000D03*
X693000Y373500D03*
X706437Y380937D03*
X715500Y36500D03*
X716500Y180000D03*
Y214000D03*
X731000Y231500D03*
X730750Y241250D03*
X730500Y257500D03*
X734500Y261500D03*
X735000Y340500D03*
X730437Y345437D03*
X731000Y373500D03*
X728000D03*
X714563Y380937D03*
X749500Y40500D03*
X754000Y145000D03*
Y179400D03*
X754937Y345500D03*
X741500Y340000D03*
X738500D03*
X738728Y343500D03*
X775400Y6600D03*
X778000Y30000D03*
X759000Y14250D03*
X766760Y32740D03*
X772000Y38500D03*
X767500Y67000D03*
X772000Y91000D03*
X778000Y97000D03*
X778437Y346000D03*
Y334063D03*
X765000Y340000D03*
X762000D03*
X762228Y343500D03*
X780000Y21000D03*
X788500Y49000D03*
X793000Y102000D03*
X785000Y139000D03*
X783500Y149500D03*
X793000Y163500D03*
X782500Y183000D03*
X808000Y73740D03*
X814563Y345937D03*
X809500Y340500D03*
X814000Y373500D03*
X816500D03*
X833500Y97000D03*
X837500Y102000D03*
X822453Y128453D03*
X827500Y340500D03*
X831500D03*
X837500D03*
X838063Y380937D03*
X829937D03*
X846000Y87000D03*
X844500Y122500D03*
X853937Y345437D03*
X858500Y340500D03*
X865000Y340000D03*
X862000D03*
X862228Y343500D03*
X854500Y373500D03*
X851500D03*
X885500Y340000D03*
X885728Y343500D03*
X878437Y345500D03*
X888500Y340000D03*
X901937Y346000D03*
Y334063D03*
X940228Y89772D03*
X947500Y93500D03*
X944500Y139000D03*
Y146000D03*
X963000Y93500D03*
X984000Y315500D03*
X985500Y377500D03*
X1022500Y234000D03*
X1038000Y244972D03*
X1065802Y69500D03*
X1066863Y81100D03*
X1063763D03*
X1070000Y81500D03*
X1070798Y93300D03*
X1077000Y244972D03*
X1061500Y234000D03*
X1078200Y325600D03*
Y322500D03*
X1077200Y385000D03*
Y388100D03*
X1094596Y76000D03*
X1097800D03*
X1090500Y89437D03*
X1093437D03*
X1089500Y314800D03*
X1093500Y315500D03*
X1092500Y378000D03*
X1088500Y377300D03*
X1116500Y231500D03*
X1116250Y241250D03*
X1120000Y261500D03*
X1116000Y257500D03*
X1154000Y232000D03*
X1153750Y241750D03*
X1157500Y262000D03*
X1153500Y258000D03*
X1163363Y366863D03*
Y383300D03*
Y379300D03*
Y394737D03*
X1168963Y304763D03*
X1180900D03*
X1180400Y328263D03*
X1178400Y320972D03*
X1174900Y321200D03*
Y318200D03*
X1198237Y121500D03*
X1199298Y134500D03*
X1199300Y138000D03*
X1191000Y232000D03*
X1190750Y241750D03*
X1194500Y262000D03*
X1190500Y258000D03*
X1229500Y232000D03*
X1229250Y241750D03*
X1229000Y258000D03*
X1233000Y262000D03*
G54D31*
X194247Y20100D03*
X192247Y58600D03*
X194247Y69600D03*
X192247Y108100D03*
X194747Y129600D03*
X192747Y168100D03*
X200153Y20100D03*
X198153Y58600D03*
X200153Y69600D03*
X198153Y108100D03*
X200653Y129600D03*
X198653Y168100D03*
X385047Y104500D03*
X410547Y82000D03*
X407047Y94000D03*
X390953Y104500D03*
X416453Y82000D03*
X412953Y94000D03*
X427953Y110900D03*
X422047D03*
X579047Y265500D03*
X584953D03*
X634953D03*
X629047D03*
X684953D03*
X679047D03*
X734953D03*
X729047D03*
X1120453D03*
X1114547D03*
X1157953Y266000D03*
X1152047D03*
X1163247Y357400D03*
X1162847Y402300D03*
X1169153Y357400D03*
X1168753Y402300D03*
X1194953Y266000D03*
X1189047D03*
X1227547D03*
X1233453D03*
G54D40*
X279661Y107551D03*
Y126449D03*
X287339Y107551D03*
X284780D03*
X282220D03*
Y126449D03*
X284780D03*
X287339D03*
X431161Y130551D03*
Y149449D03*
X438839Y130551D03*
X436280D03*
X433720D03*
Y149449D03*
X436280D03*
X438839D03*
G54D13*
X20000Y305000D03*
Y405000D03*
X43400Y12000D03*
Y260000D03*
X258360Y21840D03*
Y244480D03*
X325000Y116000D03*
X501500Y11811D03*
Y116000D03*
Y273500D03*
X542500Y11811D03*
Y196189D03*
X605000Y116000D03*
X650000Y305000D03*
Y405000D03*
X815000Y11811D03*
Y196189D03*
X985000Y11811D03*
Y196189D03*
X1049800Y11811D03*
Y196189D03*
X1219800Y11811D03*
Y196189D03*
G54D22*
X96300Y225300D03*
X98100D03*
X99800D03*
X101600D03*
X103400D03*
X105200D03*
X106900D03*
X108700D03*
Y236700D03*
X106900D03*
X105200D03*
X103400D03*
X101600D03*
X99800D03*
X98100D03*
X96300D03*
X194500Y44000D03*
X192500D03*
X190500D03*
Y33000D03*
X192500D03*
X194500D03*
Y93500D03*
X192500D03*
X190500D03*
Y82500D03*
X192500D03*
X194500D03*
X193000Y153500D03*
X191000D03*
Y142500D03*
X193000D03*
X196500Y44000D03*
Y33000D03*
Y93500D03*
Y82500D03*
X197000Y153500D03*
X195000D03*
Y142500D03*
X197000D03*
X228500Y231000D03*
X230500D03*
X232500D03*
X234500D03*
Y242000D03*
X232500D03*
X230500D03*
X228500D03*
X485500Y47200D03*
X487300D03*
X489000D03*
X490800D03*
X492600D03*
X494400D03*
X496100D03*
X497900D03*
Y58600D03*
X496100D03*
X494400D03*
X492600D03*
X490800D03*
X489000D03*
X487300D03*
X485500D03*
G54D50*
G01X819750Y30960D02*
Y31493D01*
X819000D01*
X818750Y31333D01*
X818583Y31147D01*
X818500Y30880D01*
X818583Y30613D01*
X818750Y30427D01*
X819000Y30267D01*
X819292Y30160D01*
X819625Y30107D01*
X819917D01*
X820167Y30160D01*
X820458Y30267D01*
X820708Y30427D01*
X820875Y30587D01*
X821000Y30800D01*
Y30987D01*
X820917Y31200D01*
X820750Y31360D01*
G01X818500Y32387D02*
X821000D01*
X818500Y33613D01*
X821000D01*
G01X818500Y34613D02*
X821000D01*
Y35147D01*
X820875Y35360D01*
X820708Y35520D01*
X820458Y35653D01*
X820167Y35760D01*
X819750Y35787D01*
X819333Y35760D01*
X819042Y35653D01*
X818792Y35520D01*
X818625Y35360D01*
X818500Y35147D01*
Y34613D01*
G01X815250Y30960D02*
Y31493D01*
X814500D01*
X814250Y31333D01*
X814083Y31147D01*
X814000Y30880D01*
X814083Y30613D01*
X814250Y30427D01*
X814500Y30267D01*
X814792Y30160D01*
X815125Y30107D01*
X815417D01*
X815667Y30160D01*
X815958Y30267D01*
X816208Y30427D01*
X816375Y30587D01*
X816500Y30800D01*
Y30987D01*
X816417Y31200D01*
X816250Y31360D01*
G01X814000Y32387D02*
X816500D01*
X814000Y33613D01*
X816500D01*
G01X814000Y34613D02*
X816500D01*
Y35147D01*
X816375Y35360D01*
X816208Y35520D01*
X815958Y35653D01*
X815667Y35760D01*
X815250Y35787D01*
X814833Y35760D01*
X814542Y35653D01*
X814292Y35520D01*
X814125Y35360D01*
X814000Y35147D01*
Y34613D01*
G01X821250Y172960D02*
Y173493D01*
X820500D01*
X820250Y173333D01*
X820083Y173147D01*
X820000Y172880D01*
X820083Y172613D01*
X820250Y172427D01*
X820500Y172267D01*
X820792Y172160D01*
X821125Y172107D01*
X821417D01*
X821667Y172160D01*
X821958Y172267D01*
X822208Y172427D01*
X822375Y172587D01*
X822500Y172800D01*
Y172987D01*
X822417Y173200D01*
X822250Y173360D01*
G01X820000Y174387D02*
X822500D01*
X820000Y175613D01*
X822500D01*
G01X820000Y176613D02*
X822500D01*
Y177147D01*
X822375Y177360D01*
X822208Y177520D01*
X821958Y177653D01*
X821667Y177760D01*
X821250Y177787D01*
X820833Y177760D01*
X820542Y177653D01*
X820292Y177520D01*
X820125Y177360D01*
X820000Y177147D01*
Y176613D01*
G01X824750Y30960D02*
Y31493D01*
X824000D01*
X823750Y31333D01*
X823583Y31147D01*
X823500Y30880D01*
X823583Y30613D01*
X823750Y30427D01*
X824000Y30267D01*
X824292Y30160D01*
X824625Y30107D01*
X824917D01*
X825167Y30160D01*
X825458Y30267D01*
X825708Y30427D01*
X825875Y30587D01*
X826000Y30800D01*
Y30987D01*
X825917Y31200D01*
X825750Y31360D01*
G01X823500Y32387D02*
X826000D01*
X823500Y33613D01*
X826000D01*
G01X823500Y34613D02*
X826000D01*
Y35147D01*
X825875Y35360D01*
X825708Y35520D01*
X825458Y35653D01*
X825167Y35760D01*
X824750Y35787D01*
X824333Y35760D01*
X824042Y35653D01*
X823792Y35520D01*
X823625Y35360D01*
X823500Y35147D01*
Y34613D01*
G01X840250Y30960D02*
Y31493D01*
X839500D01*
X839250Y31333D01*
X839083Y31147D01*
X839000Y30880D01*
X839083Y30613D01*
X839250Y30427D01*
X839500Y30267D01*
X839792Y30160D01*
X840125Y30107D01*
X840417D01*
X840667Y30160D01*
X840958Y30267D01*
X841208Y30427D01*
X841375Y30587D01*
X841500Y30800D01*
Y30987D01*
X841417Y31200D01*
X841250Y31360D01*
G01X839000Y32387D02*
X841500D01*
X839000Y33613D01*
X841500D01*
G01X839000Y34613D02*
X841500D01*
Y35147D01*
X841375Y35360D01*
X841208Y35520D01*
X840958Y35653D01*
X840667Y35760D01*
X840250Y35787D01*
X839833Y35760D01*
X839542Y35653D01*
X839292Y35520D01*
X839125Y35360D01*
X839000Y35147D01*
Y34613D01*
G01X829750Y30960D02*
Y31493D01*
X829000D01*
X828750Y31333D01*
X828583Y31147D01*
X828500Y30880D01*
X828583Y30613D01*
X828750Y30427D01*
X829000Y30267D01*
X829292Y30160D01*
X829625Y30107D01*
X829917D01*
X830167Y30160D01*
X830458Y30267D01*
X830708Y30427D01*
X830875Y30587D01*
X831000Y30800D01*
Y30987D01*
X830917Y31200D01*
X830750Y31360D01*
G01X828500Y32387D02*
X831000D01*
X828500Y33613D01*
X831000D01*
G01X828500Y34613D02*
X831000D01*
Y35147D01*
X830875Y35360D01*
X830708Y35520D01*
X830458Y35653D01*
X830167Y35760D01*
X829750Y35787D01*
X829333Y35760D01*
X829042Y35653D01*
X828792Y35520D01*
X828625Y35360D01*
X828500Y35147D01*
Y34613D01*
G01X835250Y30960D02*
Y31493D01*
X834500D01*
X834250Y31333D01*
X834083Y31147D01*
X834000Y30880D01*
X834083Y30613D01*
X834250Y30427D01*
X834500Y30267D01*
X834792Y30160D01*
X835125Y30107D01*
X835417D01*
X835667Y30160D01*
X835958Y30267D01*
X836208Y30427D01*
X836375Y30587D01*
X836500Y30800D01*
Y30987D01*
X836417Y31200D01*
X836250Y31360D01*
G01X834000Y32387D02*
X836500D01*
X834000Y33613D01*
X836500D01*
G01X834000Y34613D02*
X836500D01*
Y35147D01*
X836375Y35360D01*
X836208Y35520D01*
X835958Y35653D01*
X835667Y35760D01*
X835250Y35787D01*
X834833Y35760D01*
X834542Y35653D01*
X834292Y35520D01*
X834125Y35360D01*
X834000Y35147D01*
Y34613D01*
G01X830750Y172960D02*
Y173493D01*
X830000D01*
X829750Y173333D01*
X829583Y173147D01*
X829500Y172880D01*
X829583Y172613D01*
X829750Y172427D01*
X830000Y172267D01*
X830292Y172160D01*
X830625Y172107D01*
X830917D01*
X831167Y172160D01*
X831458Y172267D01*
X831708Y172427D01*
X831875Y172587D01*
X832000Y172800D01*
Y172987D01*
X831917Y173200D01*
X831750Y173360D01*
G01X829500Y174387D02*
X832000D01*
X829500Y175613D01*
X832000D01*
G01X829500Y176613D02*
X832000D01*
Y177147D01*
X831875Y177360D01*
X831708Y177520D01*
X831458Y177653D01*
X831167Y177760D01*
X830750Y177787D01*
X830333Y177760D01*
X830042Y177653D01*
X829792Y177520D01*
X829625Y177360D01*
X829500Y177147D01*
Y176613D01*
G01X825750Y172960D02*
Y173493D01*
X825000D01*
X824750Y173333D01*
X824583Y173147D01*
X824500Y172880D01*
X824583Y172613D01*
X824750Y172427D01*
X825000Y172267D01*
X825292Y172160D01*
X825625Y172107D01*
X825917D01*
X826167Y172160D01*
X826458Y172267D01*
X826708Y172427D01*
X826875Y172587D01*
X827000Y172800D01*
Y172987D01*
X826917Y173200D01*
X826750Y173360D01*
G01X824500Y174387D02*
X827000D01*
X824500Y175613D01*
X827000D01*
G01X824500Y176613D02*
X827000D01*
Y177147D01*
X826875Y177360D01*
X826708Y177520D01*
X826458Y177653D01*
X826167Y177760D01*
X825750Y177787D01*
X825333Y177760D01*
X825042Y177653D01*
X824792Y177520D01*
X824625Y177360D01*
X824500Y177147D01*
Y176613D01*
G01X835750Y172960D02*
Y173493D01*
X835000D01*
X834750Y173333D01*
X834583Y173147D01*
X834500Y172880D01*
X834583Y172613D01*
X834750Y172427D01*
X835000Y172267D01*
X835292Y172160D01*
X835625Y172107D01*
X835917D01*
X836167Y172160D01*
X836458Y172267D01*
X836708Y172427D01*
X836875Y172587D01*
X837000Y172800D01*
Y172987D01*
X836917Y173200D01*
X836750Y173360D01*
G01X834500Y174387D02*
X837000D01*
X834500Y175613D01*
X837000D01*
G01X834500Y176613D02*
X837000D01*
Y177147D01*
X836875Y177360D01*
X836708Y177520D01*
X836458Y177653D01*
X836167Y177760D01*
X835750Y177787D01*
X835333Y177760D01*
X835042Y177653D01*
X834792Y177520D01*
X834625Y177360D01*
X834500Y177147D01*
Y176613D01*
G01X841250Y172960D02*
Y173493D01*
X840500D01*
X840250Y173333D01*
X840083Y173147D01*
X840000Y172880D01*
X840083Y172613D01*
X840250Y172427D01*
X840500Y172267D01*
X840792Y172160D01*
X841125Y172107D01*
X841417D01*
X841667Y172160D01*
X841958Y172267D01*
X842208Y172427D01*
X842375Y172587D01*
X842500Y172800D01*
Y172987D01*
X842417Y173200D01*
X842250Y173360D01*
G01X840000Y174387D02*
X842500D01*
X840000Y175613D01*
X842500D01*
G01X840000Y176613D02*
X842500D01*
Y177147D01*
X842375Y177360D01*
X842208Y177520D01*
X841958Y177653D01*
X841667Y177760D01*
X841250Y177787D01*
X840833Y177760D01*
X840542Y177653D01*
X840292Y177520D01*
X840125Y177360D01*
X840000Y177147D01*
Y176613D01*
G01X844750Y30960D02*
Y31493D01*
X844000D01*
X843750Y31333D01*
X843583Y31147D01*
X843500Y30880D01*
X843583Y30613D01*
X843750Y30427D01*
X844000Y30267D01*
X844292Y30160D01*
X844625Y30107D01*
X844917D01*
X845167Y30160D01*
X845458Y30267D01*
X845708Y30427D01*
X845875Y30587D01*
X846000Y30800D01*
Y30987D01*
X845917Y31200D01*
X845750Y31360D01*
G01X843500Y32387D02*
X846000D01*
X843500Y33613D01*
X846000D01*
G01X843500Y34613D02*
X846000D01*
Y35147D01*
X845875Y35360D01*
X845708Y35520D01*
X845458Y35653D01*
X845167Y35760D01*
X844750Y35787D01*
X844333Y35760D01*
X844042Y35653D01*
X843792Y35520D01*
X843625Y35360D01*
X843500Y35147D01*
Y34613D01*
G01X865250Y30960D02*
Y31493D01*
X864500D01*
X864250Y31333D01*
X864083Y31147D01*
X864000Y30880D01*
X864083Y30613D01*
X864250Y30427D01*
X864500Y30267D01*
X864792Y30160D01*
X865125Y30107D01*
X865417D01*
X865667Y30160D01*
X865958Y30267D01*
X866208Y30427D01*
X866375Y30587D01*
X866500Y30800D01*
Y30987D01*
X866417Y31200D01*
X866250Y31360D01*
G01X864000Y32387D02*
X866500D01*
X864000Y33613D01*
X866500D01*
G01X864000Y34613D02*
X866500D01*
Y35147D01*
X866375Y35360D01*
X866208Y35520D01*
X865958Y35653D01*
X865667Y35760D01*
X865250Y35787D01*
X864833Y35760D01*
X864542Y35653D01*
X864292Y35520D01*
X864125Y35360D01*
X864000Y35147D01*
Y34613D01*
G01X849750Y30960D02*
Y31493D01*
X849000D01*
X848750Y31333D01*
X848583Y31147D01*
X848500Y30880D01*
X848583Y30613D01*
X848750Y30427D01*
X849000Y30267D01*
X849292Y30160D01*
X849625Y30107D01*
X849917D01*
X850167Y30160D01*
X850458Y30267D01*
X850708Y30427D01*
X850875Y30587D01*
X851000Y30800D01*
Y30987D01*
X850917Y31200D01*
X850750Y31360D01*
G01X848500Y32387D02*
X851000D01*
X848500Y33613D01*
X851000D01*
G01X848500Y34613D02*
X851000D01*
Y35147D01*
X850875Y35360D01*
X850708Y35520D01*
X850458Y35653D01*
X850167Y35760D01*
X849750Y35787D01*
X849333Y35760D01*
X849042Y35653D01*
X848792Y35520D01*
X848625Y35360D01*
X848500Y35147D01*
Y34613D01*
G01X860250Y30960D02*
Y31493D01*
X859500D01*
X859250Y31333D01*
X859083Y31147D01*
X859000Y30880D01*
X859083Y30613D01*
X859250Y30427D01*
X859500Y30267D01*
X859792Y30160D01*
X860125Y30107D01*
X860417D01*
X860667Y30160D01*
X860958Y30267D01*
X861208Y30427D01*
X861375Y30587D01*
X861500Y30800D01*
Y30987D01*
X861417Y31200D01*
X861250Y31360D01*
G01X859000Y32387D02*
X861500D01*
X859000Y33613D01*
X861500D01*
G01X859000Y34613D02*
X861500D01*
Y35147D01*
X861375Y35360D01*
X861208Y35520D01*
X860958Y35653D01*
X860667Y35760D01*
X860250Y35787D01*
X859833Y35760D01*
X859542Y35653D01*
X859292Y35520D01*
X859125Y35360D01*
X859000Y35147D01*
Y34613D01*
G01X854750Y30960D02*
Y31493D01*
X854000D01*
X853750Y31333D01*
X853583Y31147D01*
X853500Y30880D01*
X853583Y30613D01*
X853750Y30427D01*
X854000Y30267D01*
X854292Y30160D01*
X854625Y30107D01*
X854917D01*
X855167Y30160D01*
X855458Y30267D01*
X855708Y30427D01*
X855875Y30587D01*
X856000Y30800D01*
Y30987D01*
X855917Y31200D01*
X855750Y31360D01*
G01X853500Y32387D02*
X856000D01*
X853500Y33613D01*
X856000D01*
G01X853500Y34613D02*
X856000D01*
Y35147D01*
X855875Y35360D01*
X855708Y35520D01*
X855458Y35653D01*
X855167Y35760D01*
X854750Y35787D01*
X854333Y35760D01*
X854042Y35653D01*
X853792Y35520D01*
X853625Y35360D01*
X853500Y35147D01*
Y34613D01*
G01X855750Y172960D02*
Y173493D01*
X855000D01*
X854750Y173333D01*
X854583Y173147D01*
X854500Y172880D01*
X854583Y172613D01*
X854750Y172427D01*
X855000Y172267D01*
X855292Y172160D01*
X855625Y172107D01*
X855917D01*
X856167Y172160D01*
X856458Y172267D01*
X856708Y172427D01*
X856875Y172587D01*
X857000Y172800D01*
Y172987D01*
X856917Y173200D01*
X856750Y173360D01*
G01X854500Y174387D02*
X857000D01*
X854500Y175613D01*
X857000D01*
G01X854500Y176613D02*
X857000D01*
Y177147D01*
X856875Y177360D01*
X856708Y177520D01*
X856458Y177653D01*
X856167Y177760D01*
X855750Y177787D01*
X855333Y177760D01*
X855042Y177653D01*
X854792Y177520D01*
X854625Y177360D01*
X854500Y177147D01*
Y176613D01*
G01X850750Y172960D02*
Y173493D01*
X850000D01*
X849750Y173333D01*
X849583Y173147D01*
X849500Y172880D01*
X849583Y172613D01*
X849750Y172427D01*
X850000Y172267D01*
X850292Y172160D01*
X850625Y172107D01*
X850917D01*
X851167Y172160D01*
X851458Y172267D01*
X851708Y172427D01*
X851875Y172587D01*
X852000Y172800D01*
Y172987D01*
X851917Y173200D01*
X851750Y173360D01*
G01X849500Y174387D02*
X852000D01*
X849500Y175613D01*
X852000D01*
G01X849500Y176613D02*
X852000D01*
Y177147D01*
X851875Y177360D01*
X851708Y177520D01*
X851458Y177653D01*
X851167Y177760D01*
X850750Y177787D01*
X850333Y177760D01*
X850042Y177653D01*
X849792Y177520D01*
X849625Y177360D01*
X849500Y177147D01*
Y176613D01*
G01X846250Y172960D02*
Y173493D01*
X845500D01*
X845250Y173333D01*
X845083Y173147D01*
X845000Y172880D01*
X845083Y172613D01*
X845250Y172427D01*
X845500Y172267D01*
X845792Y172160D01*
X846125Y172107D01*
X846417D01*
X846667Y172160D01*
X846958Y172267D01*
X847208Y172427D01*
X847375Y172587D01*
X847500Y172800D01*
Y172987D01*
X847417Y173200D01*
X847250Y173360D01*
G01X845000Y174387D02*
X847500D01*
X845000Y175613D01*
X847500D01*
G01X845000Y176613D02*
X847500D01*
Y177147D01*
X847375Y177360D01*
X847208Y177520D01*
X846958Y177653D01*
X846667Y177760D01*
X846250Y177787D01*
X845833Y177760D01*
X845542Y177653D01*
X845292Y177520D01*
X845125Y177360D01*
X845000Y177147D01*
Y176613D01*
G01X860750Y172960D02*
Y173493D01*
X860000D01*
X859750Y173333D01*
X859583Y173147D01*
X859500Y172880D01*
X859583Y172613D01*
X859750Y172427D01*
X860000Y172267D01*
X860292Y172160D01*
X860625Y172107D01*
X860917D01*
X861167Y172160D01*
X861458Y172267D01*
X861708Y172427D01*
X861875Y172587D01*
X862000Y172800D01*
Y172987D01*
X861917Y173200D01*
X861750Y173360D01*
G01X859500Y174387D02*
X862000D01*
X859500Y175613D01*
X862000D01*
G01X859500Y176613D02*
X862000D01*
Y177147D01*
X861875Y177360D01*
X861708Y177520D01*
X861458Y177653D01*
X861167Y177760D01*
X860750Y177787D01*
X860333Y177760D01*
X860042Y177653D01*
X859792Y177520D01*
X859625Y177360D01*
X859500Y177147D01*
Y176613D01*
G01X869750Y30960D02*
Y31493D01*
X869000D01*
X868750Y31333D01*
X868583Y31147D01*
X868500Y30880D01*
X868583Y30613D01*
X868750Y30427D01*
X869000Y30267D01*
X869292Y30160D01*
X869625Y30107D01*
X869917D01*
X870167Y30160D01*
X870458Y30267D01*
X870708Y30427D01*
X870875Y30587D01*
X871000Y30800D01*
Y30987D01*
X870917Y31200D01*
X870750Y31360D01*
G01X868500Y32387D02*
X871000D01*
X868500Y33613D01*
X871000D01*
G01X868500Y34613D02*
X871000D01*
Y35147D01*
X870875Y35360D01*
X870708Y35520D01*
X870458Y35653D01*
X870167Y35760D01*
X869750Y35787D01*
X869333Y35760D01*
X869042Y35653D01*
X868792Y35520D01*
X868625Y35360D01*
X868500Y35147D01*
Y34613D01*
G01X885250Y30960D02*
Y31493D01*
X884500D01*
X884250Y31333D01*
X884083Y31147D01*
X884000Y30880D01*
X884083Y30613D01*
X884250Y30427D01*
X884500Y30267D01*
X884792Y30160D01*
X885125Y30107D01*
X885417D01*
X885667Y30160D01*
X885958Y30267D01*
X886208Y30427D01*
X886375Y30587D01*
X886500Y30800D01*
Y30987D01*
X886417Y31200D01*
X886250Y31360D01*
G01X884000Y32387D02*
X886500D01*
X884000Y33613D01*
X886500D01*
G01X884000Y34613D02*
X886500D01*
Y35147D01*
X886375Y35360D01*
X886208Y35520D01*
X885958Y35653D01*
X885667Y35760D01*
X885250Y35787D01*
X884833Y35760D01*
X884542Y35653D01*
X884292Y35520D01*
X884125Y35360D01*
X884000Y35147D01*
Y34613D01*
G01X874750Y30960D02*
Y31493D01*
X874000D01*
X873750Y31333D01*
X873583Y31147D01*
X873500Y30880D01*
X873583Y30613D01*
X873750Y30427D01*
X874000Y30267D01*
X874292Y30160D01*
X874625Y30107D01*
X874917D01*
X875167Y30160D01*
X875458Y30267D01*
X875708Y30427D01*
X875875Y30587D01*
X876000Y30800D01*
Y30987D01*
X875917Y31200D01*
X875750Y31360D01*
G01X873500Y32387D02*
X876000D01*
X873500Y33613D01*
X876000D01*
G01X873500Y34613D02*
X876000D01*
Y35147D01*
X875875Y35360D01*
X875708Y35520D01*
X875458Y35653D01*
X875167Y35760D01*
X874750Y35787D01*
X874333Y35760D01*
X874042Y35653D01*
X873792Y35520D01*
X873625Y35360D01*
X873500Y35147D01*
Y34613D01*
G01X879750Y30960D02*
Y31493D01*
X879000D01*
X878750Y31333D01*
X878583Y31147D01*
X878500Y30880D01*
X878583Y30613D01*
X878750Y30427D01*
X879000Y30267D01*
X879292Y30160D01*
X879625Y30107D01*
X879917D01*
X880167Y30160D01*
X880458Y30267D01*
X880708Y30427D01*
X880875Y30587D01*
X881000Y30800D01*
Y30987D01*
X880917Y31200D01*
X880750Y31360D01*
G01X878500Y32387D02*
X881000D01*
X878500Y33613D01*
X881000D01*
G01X878500Y34613D02*
X881000D01*
Y35147D01*
X880875Y35360D01*
X880708Y35520D01*
X880458Y35653D01*
X880167Y35760D01*
X879750Y35787D01*
X879333Y35760D01*
X879042Y35653D01*
X878792Y35520D01*
X878625Y35360D01*
X878500Y35147D01*
Y34613D01*
G01X875750Y172960D02*
Y173493D01*
X875000D01*
X874750Y173333D01*
X874583Y173147D01*
X874500Y172880D01*
X874583Y172613D01*
X874750Y172427D01*
X875000Y172267D01*
X875292Y172160D01*
X875625Y172107D01*
X875917D01*
X876167Y172160D01*
X876458Y172267D01*
X876708Y172427D01*
X876875Y172587D01*
X877000Y172800D01*
Y172987D01*
X876917Y173200D01*
X876750Y173360D01*
G01X874500Y174387D02*
X877000D01*
X874500Y175613D01*
X877000D01*
G01X874500Y176613D02*
X877000D01*
Y177147D01*
X876875Y177360D01*
X876708Y177520D01*
X876458Y177653D01*
X876167Y177760D01*
X875750Y177787D01*
X875333Y177760D01*
X875042Y177653D01*
X874792Y177520D01*
X874625Y177360D01*
X874500Y177147D01*
Y176613D01*
G01X871250Y172960D02*
Y173493D01*
X870500D01*
X870250Y173333D01*
X870083Y173147D01*
X870000Y172880D01*
X870083Y172613D01*
X870250Y172427D01*
X870500Y172267D01*
X870792Y172160D01*
X871125Y172107D01*
X871417D01*
X871667Y172160D01*
X871958Y172267D01*
X872208Y172427D01*
X872375Y172587D01*
X872500Y172800D01*
Y172987D01*
X872417Y173200D01*
X872250Y173360D01*
G01X870000Y174387D02*
X872500D01*
X870000Y175613D01*
X872500D01*
G01X870000Y176613D02*
X872500D01*
Y177147D01*
X872375Y177360D01*
X872208Y177520D01*
X871958Y177653D01*
X871667Y177760D01*
X871250Y177787D01*
X870833Y177760D01*
X870542Y177653D01*
X870292Y177520D01*
X870125Y177360D01*
X870000Y177147D01*
Y176613D01*
G01X866250Y172960D02*
Y173493D01*
X865500D01*
X865250Y173333D01*
X865083Y173147D01*
X865000Y172880D01*
X865083Y172613D01*
X865250Y172427D01*
X865500Y172267D01*
X865792Y172160D01*
X866125Y172107D01*
X866417D01*
X866667Y172160D01*
X866958Y172267D01*
X867208Y172427D01*
X867375Y172587D01*
X867500Y172800D01*
Y172987D01*
X867417Y173200D01*
X867250Y173360D01*
G01X865000Y174387D02*
X867500D01*
X865000Y175613D01*
X867500D01*
G01X865000Y176613D02*
X867500D01*
Y177147D01*
X867375Y177360D01*
X867208Y177520D01*
X866958Y177653D01*
X866667Y177760D01*
X866250Y177787D01*
X865833Y177760D01*
X865542Y177653D01*
X865292Y177520D01*
X865125Y177360D01*
X865000Y177147D01*
Y176613D01*
G01X880750Y172960D02*
Y173493D01*
X880000D01*
X879750Y173333D01*
X879583Y173147D01*
X879500Y172880D01*
X879583Y172613D01*
X879750Y172427D01*
X880000Y172267D01*
X880292Y172160D01*
X880625Y172107D01*
X880917D01*
X881167Y172160D01*
X881458Y172267D01*
X881708Y172427D01*
X881875Y172587D01*
X882000Y172800D01*
Y172987D01*
X881917Y173200D01*
X881750Y173360D01*
G01X879500Y174387D02*
X882000D01*
X879500Y175613D01*
X882000D01*
G01X879500Y176613D02*
X882000D01*
Y177147D01*
X881875Y177360D01*
X881708Y177520D01*
X881458Y177653D01*
X881167Y177760D01*
X880750Y177787D01*
X880333Y177760D01*
X880042Y177653D01*
X879792Y177520D01*
X879625Y177360D01*
X879500Y177147D01*
Y176613D01*
G01X885750Y172960D02*
Y173493D01*
X885000D01*
X884750Y173333D01*
X884583Y173147D01*
X884500Y172880D01*
X884583Y172613D01*
X884750Y172427D01*
X885000Y172267D01*
X885292Y172160D01*
X885625Y172107D01*
X885917D01*
X886167Y172160D01*
X886458Y172267D01*
X886708Y172427D01*
X886875Y172587D01*
X887000Y172800D01*
Y172987D01*
X886917Y173200D01*
X886750Y173360D01*
G01X884500Y174387D02*
X887000D01*
X884500Y175613D01*
X887000D01*
G01X884500Y176613D02*
X887000D01*
Y177147D01*
X886875Y177360D01*
X886708Y177520D01*
X886458Y177653D01*
X886167Y177760D01*
X885750Y177787D01*
X885333Y177760D01*
X885042Y177653D01*
X884792Y177520D01*
X884625Y177360D01*
X884500Y177147D01*
Y176613D01*
G01X889750Y30960D02*
Y31493D01*
X889000D01*
X888750Y31333D01*
X888583Y31147D01*
X888500Y30880D01*
X888583Y30613D01*
X888750Y30427D01*
X889000Y30267D01*
X889292Y30160D01*
X889625Y30107D01*
X889917D01*
X890167Y30160D01*
X890458Y30267D01*
X890708Y30427D01*
X890875Y30587D01*
X891000Y30800D01*
Y30987D01*
X890917Y31200D01*
X890750Y31360D01*
G01X888500Y32387D02*
X891000D01*
X888500Y33613D01*
X891000D01*
G01X888500Y34613D02*
X891000D01*
Y35147D01*
X890875Y35360D01*
X890708Y35520D01*
X890458Y35653D01*
X890167Y35760D01*
X889750Y35787D01*
X889333Y35760D01*
X889042Y35653D01*
X888792Y35520D01*
X888625Y35360D01*
X888500Y35147D01*
Y34613D01*
G01X899250Y30960D02*
Y31493D01*
X898500D01*
X898250Y31333D01*
X898083Y31147D01*
X898000Y30880D01*
X898083Y30613D01*
X898250Y30427D01*
X898500Y30267D01*
X898792Y30160D01*
X899125Y30107D01*
X899417D01*
X899667Y30160D01*
X899958Y30267D01*
X900208Y30427D01*
X900375Y30587D01*
X900500Y30800D01*
Y30987D01*
X900417Y31200D01*
X900250Y31360D01*
G01X898000Y32387D02*
X900500D01*
X898000Y33613D01*
X900500D01*
G01X898000Y34613D02*
X900500D01*
Y35147D01*
X900375Y35360D01*
X900208Y35520D01*
X899958Y35653D01*
X899667Y35760D01*
X899250Y35787D01*
X898833Y35760D01*
X898542Y35653D01*
X898292Y35520D01*
X898125Y35360D01*
X898000Y35147D01*
Y34613D01*
G01X904250Y30960D02*
Y31493D01*
X903500D01*
X903250Y31333D01*
X903083Y31147D01*
X903000Y30880D01*
X903083Y30613D01*
X903250Y30427D01*
X903500Y30267D01*
X903792Y30160D01*
X904125Y30107D01*
X904417D01*
X904667Y30160D01*
X904958Y30267D01*
X905208Y30427D01*
X905375Y30587D01*
X905500Y30800D01*
Y30987D01*
X905417Y31200D01*
X905250Y31360D01*
G01X903000Y32387D02*
X905500D01*
X903000Y33613D01*
X905500D01*
G01X903000Y34613D02*
X905500D01*
Y35147D01*
X905375Y35360D01*
X905208Y35520D01*
X904958Y35653D01*
X904667Y35760D01*
X904250Y35787D01*
X903833Y35760D01*
X903542Y35653D01*
X903292Y35520D01*
X903125Y35360D01*
X903000Y35147D01*
Y34613D01*
G01X894250Y30960D02*
Y31493D01*
X893500D01*
X893250Y31333D01*
X893083Y31147D01*
X893000Y30880D01*
X893083Y30613D01*
X893250Y30427D01*
X893500Y30267D01*
X893792Y30160D01*
X894125Y30107D01*
X894417D01*
X894667Y30160D01*
X894958Y30267D01*
X895208Y30427D01*
X895375Y30587D01*
X895500Y30800D01*
Y30987D01*
X895417Y31200D01*
X895250Y31360D01*
G01X893000Y32387D02*
X895500D01*
X893000Y33613D01*
X895500D01*
G01X893000Y34613D02*
X895500D01*
Y35147D01*
X895375Y35360D01*
X895208Y35520D01*
X894958Y35653D01*
X894667Y35760D01*
X894250Y35787D01*
X893833Y35760D01*
X893542Y35653D01*
X893292Y35520D01*
X893125Y35360D01*
X893000Y35147D01*
Y34613D01*
G01X895750Y172960D02*
Y173493D01*
X895000D01*
X894750Y173333D01*
X894583Y173147D01*
X894500Y172880D01*
X894583Y172613D01*
X894750Y172427D01*
X895000Y172267D01*
X895292Y172160D01*
X895625Y172107D01*
X895917D01*
X896167Y172160D01*
X896458Y172267D01*
X896708Y172427D01*
X896875Y172587D01*
X897000Y172800D01*
Y172987D01*
X896917Y173200D01*
X896750Y173360D01*
G01X894500Y174387D02*
X897000D01*
X894500Y175613D01*
X897000D01*
G01X894500Y176613D02*
X897000D01*
Y177147D01*
X896875Y177360D01*
X896708Y177520D01*
X896458Y177653D01*
X896167Y177760D01*
X895750Y177787D01*
X895333Y177760D01*
X895042Y177653D01*
X894792Y177520D01*
X894625Y177360D01*
X894500Y177147D01*
Y176613D01*
G01X891250Y172960D02*
Y173493D01*
X890500D01*
X890250Y173333D01*
X890083Y173147D01*
X890000Y172880D01*
X890083Y172613D01*
X890250Y172427D01*
X890500Y172267D01*
X890792Y172160D01*
X891125Y172107D01*
X891417D01*
X891667Y172160D01*
X891958Y172267D01*
X892208Y172427D01*
X892375Y172587D01*
X892500Y172800D01*
Y172987D01*
X892417Y173200D01*
X892250Y173360D01*
G01X890000Y174387D02*
X892500D01*
X890000Y175613D01*
X892500D01*
G01X890000Y176613D02*
X892500D01*
Y177147D01*
X892375Y177360D01*
X892208Y177520D01*
X891958Y177653D01*
X891667Y177760D01*
X891250Y177787D01*
X890833Y177760D01*
X890542Y177653D01*
X890292Y177520D01*
X890125Y177360D01*
X890000Y177147D01*
Y176613D01*
G01X900250Y172960D02*
Y173493D01*
X899500D01*
X899250Y173333D01*
X899083Y173147D01*
X899000Y172880D01*
X899083Y172613D01*
X899250Y172427D01*
X899500Y172267D01*
X899792Y172160D01*
X900125Y172107D01*
X900417D01*
X900667Y172160D01*
X900958Y172267D01*
X901208Y172427D01*
X901375Y172587D01*
X901500Y172800D01*
Y172987D01*
X901417Y173200D01*
X901250Y173360D01*
G01X899000Y174387D02*
X901500D01*
X899000Y175613D01*
X901500D01*
G01X899000Y176613D02*
X901500D01*
Y177147D01*
X901375Y177360D01*
X901208Y177520D01*
X900958Y177653D01*
X900667Y177760D01*
X900250Y177787D01*
X899833Y177760D01*
X899542Y177653D01*
X899292Y177520D01*
X899125Y177360D01*
X899000Y177147D01*
Y176613D01*
G01X905250Y172960D02*
Y173493D01*
X904500D01*
X904250Y173333D01*
X904083Y173147D01*
X904000Y172880D01*
X904083Y172613D01*
X904250Y172427D01*
X904500Y172267D01*
X904792Y172160D01*
X905125Y172107D01*
X905417D01*
X905667Y172160D01*
X905958Y172267D01*
X906208Y172427D01*
X906375Y172587D01*
X906500Y172800D01*
Y172987D01*
X906417Y173200D01*
X906250Y173360D01*
G01X904000Y174387D02*
X906500D01*
X904000Y175613D01*
X906500D01*
G01X904000Y176613D02*
X906500D01*
Y177147D01*
X906375Y177360D01*
X906208Y177520D01*
X905958Y177653D01*
X905667Y177760D01*
X905250Y177787D01*
X904833Y177760D01*
X904542Y177653D01*
X904292Y177520D01*
X904125Y177360D01*
X904000Y177147D01*
Y176613D01*
G01X909750Y30960D02*
Y31493D01*
X909000D01*
X908750Y31333D01*
X908583Y31147D01*
X908500Y30880D01*
X908583Y30613D01*
X908750Y30427D01*
X909000Y30267D01*
X909292Y30160D01*
X909625Y30107D01*
X909917D01*
X910167Y30160D01*
X910458Y30267D01*
X910708Y30427D01*
X910875Y30587D01*
X911000Y30800D01*
Y30987D01*
X910917Y31200D01*
X910750Y31360D01*
G01X908500Y32387D02*
X911000D01*
X908500Y33613D01*
X911000D01*
G01X908500Y34613D02*
X911000D01*
Y35147D01*
X910875Y35360D01*
X910708Y35520D01*
X910458Y35653D01*
X910167Y35760D01*
X909750Y35787D01*
X909333Y35760D01*
X909042Y35653D01*
X908792Y35520D01*
X908625Y35360D01*
X908500Y35147D01*
Y34613D01*
G01X929250Y30960D02*
Y31493D01*
X928500D01*
X928250Y31333D01*
X928083Y31147D01*
X928000Y30880D01*
X928083Y30613D01*
X928250Y30427D01*
X928500Y30267D01*
X928792Y30160D01*
X929125Y30107D01*
X929417D01*
X929667Y30160D01*
X929958Y30267D01*
X930208Y30427D01*
X930375Y30587D01*
X930500Y30800D01*
Y30987D01*
X930417Y31200D01*
X930250Y31360D01*
G01X928000Y32387D02*
X930500D01*
X928000Y33613D01*
X930500D01*
G01X928000Y34613D02*
X930500D01*
Y35147D01*
X930375Y35360D01*
X930208Y35520D01*
X929958Y35653D01*
X929667Y35760D01*
X929250Y35787D01*
X928833Y35760D01*
X928542Y35653D01*
X928292Y35520D01*
X928125Y35360D01*
X928000Y35147D01*
Y34613D01*
G01X919250Y30960D02*
Y31493D01*
X918500D01*
X918250Y31333D01*
X918083Y31147D01*
X918000Y30880D01*
X918083Y30613D01*
X918250Y30427D01*
X918500Y30267D01*
X918792Y30160D01*
X919125Y30107D01*
X919417D01*
X919667Y30160D01*
X919958Y30267D01*
X920208Y30427D01*
X920375Y30587D01*
X920500Y30800D01*
Y30987D01*
X920417Y31200D01*
X920250Y31360D01*
G01X918000Y32387D02*
X920500D01*
X918000Y33613D01*
X920500D01*
G01X918000Y34613D02*
X920500D01*
Y35147D01*
X920375Y35360D01*
X920208Y35520D01*
X919958Y35653D01*
X919667Y35760D01*
X919250Y35787D01*
X918833Y35760D01*
X918542Y35653D01*
X918292Y35520D01*
X918125Y35360D01*
X918000Y35147D01*
Y34613D01*
G01X924250Y30960D02*
Y31493D01*
X923500D01*
X923250Y31333D01*
X923083Y31147D01*
X923000Y30880D01*
X923083Y30613D01*
X923250Y30427D01*
X923500Y30267D01*
X923792Y30160D01*
X924125Y30107D01*
X924417D01*
X924667Y30160D01*
X924958Y30267D01*
X925208Y30427D01*
X925375Y30587D01*
X925500Y30800D01*
Y30987D01*
X925417Y31200D01*
X925250Y31360D01*
G01X923000Y32387D02*
X925500D01*
X923000Y33613D01*
X925500D01*
G01X923000Y34613D02*
X925500D01*
Y35147D01*
X925375Y35360D01*
X925208Y35520D01*
X924958Y35653D01*
X924667Y35760D01*
X924250Y35787D01*
X923833Y35760D01*
X923542Y35653D01*
X923292Y35520D01*
X923125Y35360D01*
X923000Y35147D01*
Y34613D01*
G01X914750Y30960D02*
Y31493D01*
X914000D01*
X913750Y31333D01*
X913583Y31147D01*
X913500Y30880D01*
X913583Y30613D01*
X913750Y30427D01*
X914000Y30267D01*
X914292Y30160D01*
X914625Y30107D01*
X914917D01*
X915167Y30160D01*
X915458Y30267D01*
X915708Y30427D01*
X915875Y30587D01*
X916000Y30800D01*
Y30987D01*
X915917Y31200D01*
X915750Y31360D01*
G01X913500Y32387D02*
X916000D01*
X913500Y33613D01*
X916000D01*
G01X913500Y34613D02*
X916000D01*
Y35147D01*
X915875Y35360D01*
X915708Y35520D01*
X915458Y35653D01*
X915167Y35760D01*
X914750Y35787D01*
X914333Y35760D01*
X914042Y35653D01*
X913792Y35520D01*
X913625Y35360D01*
X913500Y35147D01*
Y34613D01*
G01X915750Y172960D02*
Y173493D01*
X915000D01*
X914750Y173333D01*
X914583Y173147D01*
X914500Y172880D01*
X914583Y172613D01*
X914750Y172427D01*
X915000Y172267D01*
X915292Y172160D01*
X915625Y172107D01*
X915917D01*
X916167Y172160D01*
X916458Y172267D01*
X916708Y172427D01*
X916875Y172587D01*
X917000Y172800D01*
Y172987D01*
X916917Y173200D01*
X916750Y173360D01*
G01X914500Y174387D02*
X917000D01*
X914500Y175613D01*
X917000D01*
G01X914500Y176613D02*
X917000D01*
Y177147D01*
X916875Y177360D01*
X916708Y177520D01*
X916458Y177653D01*
X916167Y177760D01*
X915750Y177787D01*
X915333Y177760D01*
X915042Y177653D01*
X914792Y177520D01*
X914625Y177360D01*
X914500Y177147D01*
Y176613D01*
G01X910250Y172960D02*
Y173493D01*
X909500D01*
X909250Y173333D01*
X909083Y173147D01*
X909000Y172880D01*
X909083Y172613D01*
X909250Y172427D01*
X909500Y172267D01*
X909792Y172160D01*
X910125Y172107D01*
X910417D01*
X910667Y172160D01*
X910958Y172267D01*
X911208Y172427D01*
X911375Y172587D01*
X911500Y172800D01*
Y172987D01*
X911417Y173200D01*
X911250Y173360D01*
G01X909000Y174387D02*
X911500D01*
X909000Y175613D01*
X911500D01*
G01X909000Y176613D02*
X911500D01*
Y177147D01*
X911375Y177360D01*
X911208Y177520D01*
X910958Y177653D01*
X910667Y177760D01*
X910250Y177787D01*
X909833Y177760D01*
X909542Y177653D01*
X909292Y177520D01*
X909125Y177360D01*
X909000Y177147D01*
Y176613D01*
G01X920750Y172960D02*
Y173493D01*
X920000D01*
X919750Y173333D01*
X919583Y173147D01*
X919500Y172880D01*
X919583Y172613D01*
X919750Y172427D01*
X920000Y172267D01*
X920292Y172160D01*
X920625Y172107D01*
X920917D01*
X921167Y172160D01*
X921458Y172267D01*
X921708Y172427D01*
X921875Y172587D01*
X922000Y172800D01*
Y172987D01*
X921917Y173200D01*
X921750Y173360D01*
G01X919500Y174387D02*
X922000D01*
X919500Y175613D01*
X922000D01*
G01X919500Y176613D02*
X922000D01*
Y177147D01*
X921875Y177360D01*
X921708Y177520D01*
X921458Y177653D01*
X921167Y177760D01*
X920750Y177787D01*
X920333Y177760D01*
X920042Y177653D01*
X919792Y177520D01*
X919625Y177360D01*
X919500Y177147D01*
Y176613D01*
G01X925250Y172960D02*
Y173493D01*
X924500D01*
X924250Y173333D01*
X924083Y173147D01*
X924000Y172880D01*
X924083Y172613D01*
X924250Y172427D01*
X924500Y172267D01*
X924792Y172160D01*
X925125Y172107D01*
X925417D01*
X925667Y172160D01*
X925958Y172267D01*
X926208Y172427D01*
X926375Y172587D01*
X926500Y172800D01*
Y172987D01*
X926417Y173200D01*
X926250Y173360D01*
G01X924000Y174387D02*
X926500D01*
X924000Y175613D01*
X926500D01*
G01X924000Y176613D02*
X926500D01*
Y177147D01*
X926375Y177360D01*
X926208Y177520D01*
X925958Y177653D01*
X925667Y177760D01*
X925250Y177787D01*
X924833Y177760D01*
X924542Y177653D01*
X924292Y177520D01*
X924125Y177360D01*
X924000Y177147D01*
Y176613D01*
G01X934750Y30960D02*
Y31493D01*
X934000D01*
X933750Y31333D01*
X933583Y31147D01*
X933500Y30880D01*
X933583Y30613D01*
X933750Y30427D01*
X934000Y30267D01*
X934292Y30160D01*
X934625Y30107D01*
X934917D01*
X935167Y30160D01*
X935458Y30267D01*
X935708Y30427D01*
X935875Y30587D01*
X936000Y30800D01*
Y30987D01*
X935917Y31200D01*
X935750Y31360D01*
G01X933500Y32387D02*
X936000D01*
X933500Y33613D01*
X936000D01*
G01X933500Y34613D02*
X936000D01*
Y35147D01*
X935875Y35360D01*
X935708Y35520D01*
X935458Y35653D01*
X935167Y35760D01*
X934750Y35787D01*
X934333Y35760D01*
X934042Y35653D01*
X933792Y35520D01*
X933625Y35360D01*
X933500Y35147D01*
Y34613D01*
G01X949250Y30960D02*
Y31493D01*
X948500D01*
X948250Y31333D01*
X948083Y31147D01*
X948000Y30880D01*
X948083Y30613D01*
X948250Y30427D01*
X948500Y30267D01*
X948792Y30160D01*
X949125Y30107D01*
X949417D01*
X949667Y30160D01*
X949958Y30267D01*
X950208Y30427D01*
X950375Y30587D01*
X950500Y30800D01*
Y30987D01*
X950417Y31200D01*
X950250Y31360D01*
G01X948000Y32387D02*
X950500D01*
X948000Y33613D01*
X950500D01*
G01X948000Y34613D02*
X950500D01*
Y35147D01*
X950375Y35360D01*
X950208Y35520D01*
X949958Y35653D01*
X949667Y35760D01*
X949250Y35787D01*
X948833Y35760D01*
X948542Y35653D01*
X948292Y35520D01*
X948125Y35360D01*
X948000Y35147D01*
Y34613D01*
G01X944250Y30960D02*
Y31493D01*
X943500D01*
X943250Y31333D01*
X943083Y31147D01*
X943000Y30880D01*
X943083Y30613D01*
X943250Y30427D01*
X943500Y30267D01*
X943792Y30160D01*
X944125Y30107D01*
X944417D01*
X944667Y30160D01*
X944958Y30267D01*
X945208Y30427D01*
X945375Y30587D01*
X945500Y30800D01*
Y30987D01*
X945417Y31200D01*
X945250Y31360D01*
G01X943000Y32387D02*
X945500D01*
X943000Y33613D01*
X945500D01*
G01X943000Y34613D02*
X945500D01*
Y35147D01*
X945375Y35360D01*
X945208Y35520D01*
X944958Y35653D01*
X944667Y35760D01*
X944250Y35787D01*
X943833Y35760D01*
X943542Y35653D01*
X943292Y35520D01*
X943125Y35360D01*
X943000Y35147D01*
Y34613D01*
G01X939750Y30960D02*
Y31493D01*
X939000D01*
X938750Y31333D01*
X938583Y31147D01*
X938500Y30880D01*
X938583Y30613D01*
X938750Y30427D01*
X939000Y30267D01*
X939292Y30160D01*
X939625Y30107D01*
X939917D01*
X940167Y30160D01*
X940458Y30267D01*
X940708Y30427D01*
X940875Y30587D01*
X941000Y30800D01*
Y30987D01*
X940917Y31200D01*
X940750Y31360D01*
G01X938500Y32387D02*
X941000D01*
X938500Y33613D01*
X941000D01*
G01X938500Y34613D02*
X941000D01*
Y35147D01*
X940875Y35360D01*
X940708Y35520D01*
X940458Y35653D01*
X940167Y35760D01*
X939750Y35787D01*
X939333Y35760D01*
X939042Y35653D01*
X938792Y35520D01*
X938625Y35360D01*
X938500Y35147D01*
Y34613D01*
G01X940750Y172960D02*
Y173493D01*
X940000D01*
X939750Y173333D01*
X939583Y173147D01*
X939500Y172880D01*
X939583Y172613D01*
X939750Y172427D01*
X940000Y172267D01*
X940292Y172160D01*
X940625Y172107D01*
X940917D01*
X941167Y172160D01*
X941458Y172267D01*
X941708Y172427D01*
X941875Y172587D01*
X942000Y172800D01*
Y172987D01*
X941917Y173200D01*
X941750Y173360D01*
G01X939500Y174387D02*
X942000D01*
X939500Y175613D01*
X942000D01*
G01X939500Y176613D02*
X942000D01*
Y177147D01*
X941875Y177360D01*
X941708Y177520D01*
X941458Y177653D01*
X941167Y177760D01*
X940750Y177787D01*
X940333Y177760D01*
X940042Y177653D01*
X939792Y177520D01*
X939625Y177360D01*
X939500Y177147D01*
Y176613D01*
G01X935250Y172960D02*
Y173493D01*
X934500D01*
X934250Y173333D01*
X934083Y173147D01*
X934000Y172880D01*
X934083Y172613D01*
X934250Y172427D01*
X934500Y172267D01*
X934792Y172160D01*
X935125Y172107D01*
X935417D01*
X935667Y172160D01*
X935958Y172267D01*
X936208Y172427D01*
X936375Y172587D01*
X936500Y172800D01*
Y172987D01*
X936417Y173200D01*
X936250Y173360D01*
G01X934000Y174387D02*
X936500D01*
X934000Y175613D01*
X936500D01*
G01X934000Y176613D02*
X936500D01*
Y177147D01*
X936375Y177360D01*
X936208Y177520D01*
X935958Y177653D01*
X935667Y177760D01*
X935250Y177787D01*
X934833Y177760D01*
X934542Y177653D01*
X934292Y177520D01*
X934125Y177360D01*
X934000Y177147D01*
Y176613D01*
G01X930250Y172960D02*
Y173493D01*
X929500D01*
X929250Y173333D01*
X929083Y173147D01*
X929000Y172880D01*
X929083Y172613D01*
X929250Y172427D01*
X929500Y172267D01*
X929792Y172160D01*
X930125Y172107D01*
X930417D01*
X930667Y172160D01*
X930958Y172267D01*
X931208Y172427D01*
X931375Y172587D01*
X931500Y172800D01*
Y172987D01*
X931417Y173200D01*
X931250Y173360D01*
G01X929000Y174387D02*
X931500D01*
X929000Y175613D01*
X931500D01*
G01X929000Y176613D02*
X931500D01*
Y177147D01*
X931375Y177360D01*
X931208Y177520D01*
X930958Y177653D01*
X930667Y177760D01*
X930250Y177787D01*
X929833Y177760D01*
X929542Y177653D01*
X929292Y177520D01*
X929125Y177360D01*
X929000Y177147D01*
Y176613D01*
G01X945750Y172960D02*
Y173493D01*
X945000D01*
X944750Y173333D01*
X944583Y173147D01*
X944500Y172880D01*
X944583Y172613D01*
X944750Y172427D01*
X945000Y172267D01*
X945292Y172160D01*
X945625Y172107D01*
X945917D01*
X946167Y172160D01*
X946458Y172267D01*
X946708Y172427D01*
X946875Y172587D01*
X947000Y172800D01*
Y172987D01*
X946917Y173200D01*
X946750Y173360D01*
G01X944500Y174387D02*
X947000D01*
X944500Y175613D01*
X947000D01*
G01X944500Y176613D02*
X947000D01*
Y177147D01*
X946875Y177360D01*
X946708Y177520D01*
X946458Y177653D01*
X946167Y177760D01*
X945750Y177787D01*
X945333Y177760D01*
X945042Y177653D01*
X944792Y177520D01*
X944625Y177360D01*
X944500Y177147D01*
Y176613D01*
G01X950250Y172960D02*
Y173493D01*
X949500D01*
X949250Y173333D01*
X949083Y173147D01*
X949000Y172880D01*
X949083Y172613D01*
X949250Y172427D01*
X949500Y172267D01*
X949792Y172160D01*
X950125Y172107D01*
X950417D01*
X950667Y172160D01*
X950958Y172267D01*
X951208Y172427D01*
X951375Y172587D01*
X951500Y172800D01*
Y172987D01*
X951417Y173200D01*
X951250Y173360D01*
G01X949000Y174387D02*
X951500D01*
X949000Y175613D01*
X951500D01*
G01X949000Y176613D02*
X951500D01*
Y177147D01*
X951375Y177360D01*
X951208Y177520D01*
X950958Y177653D01*
X950667Y177760D01*
X950250Y177787D01*
X949833Y177760D01*
X949542Y177653D01*
X949292Y177520D01*
X949125Y177360D01*
X949000Y177147D01*
Y176613D01*
G01X954250Y30960D02*
Y31493D01*
X953500D01*
X953250Y31333D01*
X953083Y31147D01*
X953000Y30880D01*
X953083Y30613D01*
X953250Y30427D01*
X953500Y30267D01*
X953792Y30160D01*
X954125Y30107D01*
X954417D01*
X954667Y30160D01*
X954958Y30267D01*
X955208Y30427D01*
X955375Y30587D01*
X955500Y30800D01*
Y30987D01*
X955417Y31200D01*
X955250Y31360D01*
G01X953000Y32387D02*
X955500D01*
X953000Y33613D01*
X955500D01*
G01X953000Y34613D02*
X955500D01*
Y35147D01*
X955375Y35360D01*
X955208Y35520D01*
X954958Y35653D01*
X954667Y35760D01*
X954250Y35787D01*
X953833Y35760D01*
X953542Y35653D01*
X953292Y35520D01*
X953125Y35360D01*
X953000Y35147D01*
Y34613D01*
G01X969250Y30960D02*
Y31493D01*
X968500D01*
X968250Y31333D01*
X968083Y31147D01*
X968000Y30880D01*
X968083Y30613D01*
X968250Y30427D01*
X968500Y30267D01*
X968792Y30160D01*
X969125Y30107D01*
X969417D01*
X969667Y30160D01*
X969958Y30267D01*
X970208Y30427D01*
X970375Y30587D01*
X970500Y30800D01*
Y30987D01*
X970417Y31200D01*
X970250Y31360D01*
G01X968000Y32387D02*
X970500D01*
X968000Y33613D01*
X970500D01*
G01X968000Y34613D02*
X970500D01*
Y35147D01*
X970375Y35360D01*
X970208Y35520D01*
X969958Y35653D01*
X969667Y35760D01*
X969250Y35787D01*
X968833Y35760D01*
X968542Y35653D01*
X968292Y35520D01*
X968125Y35360D01*
X968000Y35147D01*
Y34613D01*
G01X964250Y30960D02*
Y31493D01*
X963500D01*
X963250Y31333D01*
X963083Y31147D01*
X963000Y30880D01*
X963083Y30613D01*
X963250Y30427D01*
X963500Y30267D01*
X963792Y30160D01*
X964125Y30107D01*
X964417D01*
X964667Y30160D01*
X964958Y30267D01*
X965208Y30427D01*
X965375Y30587D01*
X965500Y30800D01*
Y30987D01*
X965417Y31200D01*
X965250Y31360D01*
G01X963000Y32387D02*
X965500D01*
X963000Y33613D01*
X965500D01*
G01X963000Y34613D02*
X965500D01*
Y35147D01*
X965375Y35360D01*
X965208Y35520D01*
X964958Y35653D01*
X964667Y35760D01*
X964250Y35787D01*
X963833Y35760D01*
X963542Y35653D01*
X963292Y35520D01*
X963125Y35360D01*
X963000Y35147D01*
Y34613D01*
G01X959750Y30960D02*
Y31493D01*
X959000D01*
X958750Y31333D01*
X958583Y31147D01*
X958500Y30880D01*
X958583Y30613D01*
X958750Y30427D01*
X959000Y30267D01*
X959292Y30160D01*
X959625Y30107D01*
X959917D01*
X960167Y30160D01*
X960458Y30267D01*
X960708Y30427D01*
X960875Y30587D01*
X961000Y30800D01*
Y30987D01*
X960917Y31200D01*
X960750Y31360D01*
G01X958500Y32387D02*
X961000D01*
X958500Y33613D01*
X961000D01*
G01X958500Y34613D02*
X961000D01*
Y35147D01*
X960875Y35360D01*
X960708Y35520D01*
X960458Y35653D01*
X960167Y35760D01*
X959750Y35787D01*
X959333Y35760D01*
X959042Y35653D01*
X958792Y35520D01*
X958625Y35360D01*
X958500Y35147D01*
Y34613D01*
G01X960250Y172960D02*
Y173493D01*
X959500D01*
X959250Y173333D01*
X959083Y173147D01*
X959000Y172880D01*
X959083Y172613D01*
X959250Y172427D01*
X959500Y172267D01*
X959792Y172160D01*
X960125Y172107D01*
X960417D01*
X960667Y172160D01*
X960958Y172267D01*
X961208Y172427D01*
X961375Y172587D01*
X961500Y172800D01*
Y172987D01*
X961417Y173200D01*
X961250Y173360D01*
G01X959000Y174387D02*
X961500D01*
X959000Y175613D01*
X961500D01*
G01X959000Y176613D02*
X961500D01*
Y177147D01*
X961375Y177360D01*
X961208Y177520D01*
X960958Y177653D01*
X960667Y177760D01*
X960250Y177787D01*
X959833Y177760D01*
X959542Y177653D01*
X959292Y177520D01*
X959125Y177360D01*
X959000Y177147D01*
Y176613D01*
G01X955250Y172960D02*
Y173493D01*
X954500D01*
X954250Y173333D01*
X954083Y173147D01*
X954000Y172880D01*
X954083Y172613D01*
X954250Y172427D01*
X954500Y172267D01*
X954792Y172160D01*
X955125Y172107D01*
X955417D01*
X955667Y172160D01*
X955958Y172267D01*
X956208Y172427D01*
X956375Y172587D01*
X956500Y172800D01*
Y172987D01*
X956417Y173200D01*
X956250Y173360D01*
G01X954000Y174387D02*
X956500D01*
X954000Y175613D01*
X956500D01*
G01X954000Y176613D02*
X956500D01*
Y177147D01*
X956375Y177360D01*
X956208Y177520D01*
X955958Y177653D01*
X955667Y177760D01*
X955250Y177787D01*
X954833Y177760D01*
X954542Y177653D01*
X954292Y177520D01*
X954125Y177360D01*
X954000Y177147D01*
Y176613D01*
G01X965750Y172960D02*
Y173493D01*
X965000D01*
X964750Y173333D01*
X964583Y173147D01*
X964500Y172880D01*
X964583Y172613D01*
X964750Y172427D01*
X965000Y172267D01*
X965292Y172160D01*
X965625Y172107D01*
X965917D01*
X966167Y172160D01*
X966458Y172267D01*
X966708Y172427D01*
X966875Y172587D01*
X967000Y172800D01*
Y172987D01*
X966917Y173200D01*
X966750Y173360D01*
G01X964500Y174387D02*
X967000D01*
X964500Y175613D01*
X967000D01*
G01X964500Y176613D02*
X967000D01*
Y177147D01*
X966875Y177360D01*
X966708Y177520D01*
X966458Y177653D01*
X966167Y177760D01*
X965750Y177787D01*
X965333Y177760D01*
X965042Y177653D01*
X964792Y177520D01*
X964625Y177360D01*
X964500Y177147D01*
Y176613D01*
G01X970250Y172960D02*
Y173493D01*
X969500D01*
X969250Y173333D01*
X969083Y173147D01*
X969000Y172880D01*
X969083Y172613D01*
X969250Y172427D01*
X969500Y172267D01*
X969792Y172160D01*
X970125Y172107D01*
X970417D01*
X970667Y172160D01*
X970958Y172267D01*
X971208Y172427D01*
X971375Y172587D01*
X971500Y172800D01*
Y172987D01*
X971417Y173200D01*
X971250Y173360D01*
G01X969000Y174387D02*
X971500D01*
X969000Y175613D01*
X971500D01*
G01X969000Y176613D02*
X971500D01*
Y177147D01*
X971375Y177360D01*
X971208Y177520D01*
X970958Y177653D01*
X970667Y177760D01*
X970250Y177787D01*
X969833Y177760D01*
X969542Y177653D01*
X969292Y177520D01*
X969125Y177360D01*
X969000Y177147D01*
Y176613D01*
G01X979750Y29960D02*
Y30493D01*
X979000D01*
X978750Y30333D01*
X978583Y30147D01*
X978500Y29880D01*
X978583Y29613D01*
X978750Y29427D01*
X979000Y29267D01*
X979292Y29160D01*
X979625Y29107D01*
X979917D01*
X980167Y29160D01*
X980458Y29267D01*
X980708Y29427D01*
X980875Y29587D01*
X981000Y29800D01*
Y29987D01*
X980917Y30200D01*
X980750Y30360D01*
G01X978500Y31387D02*
X981000D01*
X978500Y32613D01*
X981000D01*
G01X978500Y33613D02*
X981000D01*
Y34147D01*
X980875Y34360D01*
X980708Y34520D01*
X980458Y34653D01*
X980167Y34760D01*
X979750Y34787D01*
X979333Y34760D01*
X979042Y34653D01*
X978792Y34520D01*
X978625Y34360D01*
X978500Y34147D01*
Y33613D01*
G01X986000Y26093D02*
X988500D01*
Y27107D01*
G01X987292Y26733D02*
Y26093D01*
G01X988500Y28213D02*
X986708D01*
X986333Y28320D01*
X986083Y28533D01*
X986000Y28800D01*
X986083Y29067D01*
X986333Y29280D01*
X986708Y29387D01*
X988500D01*
G01X986333Y30440D02*
X986125Y30653D01*
X986000Y30893D01*
Y31107D01*
X986125Y31320D01*
X986333Y31480D01*
X986625Y31560D01*
X986917Y31507D01*
X987167Y31373D01*
X987333Y31133D01*
X987417Y30813D01*
X987583Y30627D01*
X987875Y30547D01*
X988167Y30600D01*
X988375Y30733D01*
X988500Y30920D01*
Y31107D01*
X988417Y31293D01*
X988208Y31453D01*
G01X986000Y33733D02*
Y32667D01*
X988500D01*
Y33733D01*
G01X987292Y33307D02*
Y32667D01*
G01X988083Y34893D02*
X988333Y35053D01*
X988458Y35240D01*
X988500Y35453D01*
X988417Y35720D01*
X988208Y35907D01*
X987958Y35960D01*
X987708Y35933D01*
X987500Y35827D01*
X987083Y35293D01*
X986792Y35053D01*
X986375Y34893D01*
X986000Y34840D01*
Y35960D01*
G01X984250Y26860D02*
Y27393D01*
X983500D01*
X983250Y27233D01*
X983083Y27047D01*
X983000Y26780D01*
X983083Y26513D01*
X983250Y26327D01*
X983500Y26167D01*
X983792Y26060D01*
X984125Y26007D01*
X984417D01*
X984667Y26060D01*
X984958Y26167D01*
X985208Y26327D01*
X985375Y26487D01*
X985500Y26700D01*
Y26887D01*
X985417Y27100D01*
X985250Y27260D01*
G01X983000Y28287D02*
X985500D01*
X983000Y29513D01*
X985500D01*
G01X983000Y30513D02*
X985500D01*
Y31047D01*
X985375Y31260D01*
X985208Y31420D01*
X984958Y31553D01*
X984667Y31660D01*
X984250Y31687D01*
X983833Y31660D01*
X983542Y31553D01*
X983292Y31420D01*
X983125Y31260D01*
X983000Y31047D01*
Y30513D01*
G01X982917Y32820D02*
X985500Y33780D01*
G01X974250Y30960D02*
Y31493D01*
X973500D01*
X973250Y31333D01*
X973083Y31147D01*
X973000Y30880D01*
X973083Y30613D01*
X973250Y30427D01*
X973500Y30267D01*
X973792Y30160D01*
X974125Y30107D01*
X974417D01*
X974667Y30160D01*
X974958Y30267D01*
X975208Y30427D01*
X975375Y30587D01*
X975500Y30800D01*
Y30987D01*
X975417Y31200D01*
X975250Y31360D01*
G01X973000Y32387D02*
X975500D01*
X973000Y33613D01*
X975500D01*
G01X973000Y34613D02*
X975500D01*
Y35147D01*
X975375Y35360D01*
X975208Y35520D01*
X974958Y35653D01*
X974667Y35760D01*
X974250Y35787D01*
X973833Y35760D01*
X973542Y35653D01*
X973292Y35520D01*
X973125Y35360D01*
X973000Y35147D01*
Y34613D01*
G01X980250Y172960D02*
Y173493D01*
X979500D01*
X979250Y173333D01*
X979083Y173147D01*
X979000Y172880D01*
X979083Y172613D01*
X979250Y172427D01*
X979500Y172267D01*
X979792Y172160D01*
X980125Y172107D01*
X980417D01*
X980667Y172160D01*
X980958Y172267D01*
X981208Y172427D01*
X981375Y172587D01*
X981500Y172800D01*
Y172987D01*
X981417Y173200D01*
X981250Y173360D01*
G01X979000Y174387D02*
X981500D01*
X979000Y175613D01*
X981500D01*
G01X979000Y176613D02*
X981500D01*
Y177147D01*
X981375Y177360D01*
X981208Y177520D01*
X980958Y177653D01*
X980667Y177760D01*
X980250Y177787D01*
X979833Y177760D01*
X979542Y177653D01*
X979292Y177520D01*
X979125Y177360D01*
X979000Y177147D01*
Y176613D01*
G01X985250Y171460D02*
Y171993D01*
X984500D01*
X984250Y171833D01*
X984083Y171647D01*
X984000Y171380D01*
X984083Y171113D01*
X984250Y170927D01*
X984500Y170767D01*
X984792Y170660D01*
X985125Y170607D01*
X985417D01*
X985667Y170660D01*
X985958Y170767D01*
X986208Y170927D01*
X986375Y171087D01*
X986500Y171300D01*
Y171487D01*
X986417Y171700D01*
X986250Y171860D01*
G01X984000Y172887D02*
X986500D01*
X984000Y174113D01*
X986500D01*
G01X984000Y175113D02*
X986500D01*
Y175647D01*
X986375Y175860D01*
X986208Y176020D01*
X985958Y176153D01*
X985667Y176260D01*
X985250Y176287D01*
X984833Y176260D01*
X984542Y176153D01*
X984292Y176020D01*
X984125Y175860D01*
X984000Y175647D01*
Y175113D01*
G01X983917Y177420D02*
X986500Y178380D01*
G01X984000Y179540D02*
X986500D01*
G01Y180660D02*
X984000D01*
G01X985250D02*
Y179540D01*
G01Y182460D02*
Y182993D01*
X984500D01*
X984250Y182833D01*
X984083Y182647D01*
X984000Y182380D01*
X984083Y182113D01*
X984250Y181927D01*
X984500Y181767D01*
X984792Y181660D01*
X985125Y181607D01*
X985417D01*
X985667Y181660D01*
X985958Y181767D01*
X986208Y181927D01*
X986375Y182087D01*
X986500Y182300D01*
Y182487D01*
X986417Y182700D01*
X986250Y182860D01*
G01X984000Y183887D02*
X986500D01*
X984000Y185113D01*
X986500D01*
G01X984000Y186113D02*
X986500D01*
Y186647D01*
X986375Y186860D01*
X986208Y187020D01*
X985958Y187153D01*
X985667Y187260D01*
X985250Y187287D01*
X984833Y187260D01*
X984542Y187153D01*
X984292Y187020D01*
X984125Y186860D01*
X984000Y186647D01*
Y186113D01*
G01X975250Y172960D02*
Y173493D01*
X974500D01*
X974250Y173333D01*
X974083Y173147D01*
X974000Y172880D01*
X974083Y172613D01*
X974250Y172427D01*
X974500Y172267D01*
X974792Y172160D01*
X975125Y172107D01*
X975417D01*
X975667Y172160D01*
X975958Y172267D01*
X976208Y172427D01*
X976375Y172587D01*
X976500Y172800D01*
Y172987D01*
X976417Y173200D01*
X976250Y173360D01*
G01X974000Y174387D02*
X976500D01*
X974000Y175613D01*
X976500D01*
G01X974000Y176613D02*
X976500D01*
Y177147D01*
X976375Y177360D01*
X976208Y177520D01*
X975958Y177653D01*
X975667Y177760D01*
X975250Y177787D01*
X974833Y177760D01*
X974542Y177653D01*
X974292Y177520D01*
X974125Y177360D01*
X974000Y177147D01*
Y176613D01*
G01X1055250Y35960D02*
Y36493D01*
X1054500D01*
X1054250Y36333D01*
X1054083Y36147D01*
X1054000Y35880D01*
X1054083Y35613D01*
X1054250Y35427D01*
X1054500Y35267D01*
X1054792Y35160D01*
X1055125Y35107D01*
X1055417D01*
X1055667Y35160D01*
X1055958Y35267D01*
X1056208Y35427D01*
X1056375Y35587D01*
X1056500Y35800D01*
Y35987D01*
X1056417Y36200D01*
X1056250Y36360D01*
G01X1054000Y37387D02*
X1056500D01*
X1054000Y38613D01*
X1056500D01*
G01X1054000Y39613D02*
X1056500D01*
Y40147D01*
X1056375Y40360D01*
X1056208Y40520D01*
X1055958Y40653D01*
X1055667Y40760D01*
X1055250Y40787D01*
X1054833Y40760D01*
X1054542Y40653D01*
X1054292Y40520D01*
X1054125Y40360D01*
X1054000Y40147D01*
Y39613D01*
G01X1050750Y35960D02*
Y36493D01*
X1050000D01*
X1049750Y36333D01*
X1049583Y36147D01*
X1049500Y35880D01*
X1049583Y35613D01*
X1049750Y35427D01*
X1050000Y35267D01*
X1050292Y35160D01*
X1050625Y35107D01*
X1050917D01*
X1051167Y35160D01*
X1051458Y35267D01*
X1051708Y35427D01*
X1051875Y35587D01*
X1052000Y35800D01*
Y35987D01*
X1051917Y36200D01*
X1051750Y36360D01*
G01X1049500Y37387D02*
X1052000D01*
X1049500Y38613D01*
X1052000D01*
G01X1049500Y39613D02*
X1052000D01*
Y40147D01*
X1051875Y40360D01*
X1051708Y40520D01*
X1051458Y40653D01*
X1051167Y40760D01*
X1050750Y40787D01*
X1050333Y40760D01*
X1050042Y40653D01*
X1049792Y40520D01*
X1049625Y40360D01*
X1049500Y40147D01*
Y39613D01*
G01X1055250Y169460D02*
Y169993D01*
X1054500D01*
X1054250Y169833D01*
X1054083Y169647D01*
X1054000Y169380D01*
X1054083Y169113D01*
X1054250Y168927D01*
X1054500Y168767D01*
X1054792Y168660D01*
X1055125Y168607D01*
X1055417D01*
X1055667Y168660D01*
X1055958Y168767D01*
X1056208Y168927D01*
X1056375Y169087D01*
X1056500Y169300D01*
Y169487D01*
X1056417Y169700D01*
X1056250Y169860D01*
G01X1054000Y170887D02*
X1056500D01*
X1054000Y172113D01*
X1056500D01*
G01X1054000Y173113D02*
X1056500D01*
Y173647D01*
X1056375Y173860D01*
X1056208Y174020D01*
X1055958Y174153D01*
X1055667Y174260D01*
X1055250Y174287D01*
X1054833Y174260D01*
X1054542Y174153D01*
X1054292Y174020D01*
X1054125Y173860D01*
X1054000Y173647D01*
Y173113D01*
G01X1050750Y169460D02*
Y169993D01*
X1050000D01*
X1049750Y169833D01*
X1049583Y169647D01*
X1049500Y169380D01*
X1049583Y169113D01*
X1049750Y168927D01*
X1050000Y168767D01*
X1050292Y168660D01*
X1050625Y168607D01*
X1050917D01*
X1051167Y168660D01*
X1051458Y168767D01*
X1051708Y168927D01*
X1051875Y169087D01*
X1052000Y169300D01*
Y169487D01*
X1051917Y169700D01*
X1051750Y169860D01*
G01X1049500Y170887D02*
X1052000D01*
X1049500Y172113D01*
X1052000D01*
G01X1049500Y173113D02*
X1052000D01*
Y173647D01*
X1051875Y173860D01*
X1051708Y174020D01*
X1051458Y174153D01*
X1051167Y174260D01*
X1050750Y174287D01*
X1050333Y174260D01*
X1050042Y174153D01*
X1049792Y174020D01*
X1049625Y173860D01*
X1049500Y173647D01*
Y173113D01*
G01X1075750Y35960D02*
Y36493D01*
X1075000D01*
X1074750Y36333D01*
X1074583Y36147D01*
X1074500Y35880D01*
X1074583Y35613D01*
X1074750Y35427D01*
X1075000Y35267D01*
X1075292Y35160D01*
X1075625Y35107D01*
X1075917D01*
X1076167Y35160D01*
X1076458Y35267D01*
X1076708Y35427D01*
X1076875Y35587D01*
X1077000Y35800D01*
Y35987D01*
X1076917Y36200D01*
X1076750Y36360D01*
G01X1074500Y37387D02*
X1077000D01*
X1074500Y38613D01*
X1077000D01*
G01X1074500Y39613D02*
X1077000D01*
Y40147D01*
X1076875Y40360D01*
X1076708Y40520D01*
X1076458Y40653D01*
X1076167Y40760D01*
X1075750Y40787D01*
X1075333Y40760D01*
X1075042Y40653D01*
X1074792Y40520D01*
X1074625Y40360D01*
X1074500Y40147D01*
Y39613D01*
G01X1065250Y35960D02*
Y36493D01*
X1064500D01*
X1064250Y36333D01*
X1064083Y36147D01*
X1064000Y35880D01*
X1064083Y35613D01*
X1064250Y35427D01*
X1064500Y35267D01*
X1064792Y35160D01*
X1065125Y35107D01*
X1065417D01*
X1065667Y35160D01*
X1065958Y35267D01*
X1066208Y35427D01*
X1066375Y35587D01*
X1066500Y35800D01*
Y35987D01*
X1066417Y36200D01*
X1066250Y36360D01*
G01X1064000Y37387D02*
X1066500D01*
X1064000Y38613D01*
X1066500D01*
G01X1064000Y39613D02*
X1066500D01*
Y40147D01*
X1066375Y40360D01*
X1066208Y40520D01*
X1065958Y40653D01*
X1065667Y40760D01*
X1065250Y40787D01*
X1064833Y40760D01*
X1064542Y40653D01*
X1064292Y40520D01*
X1064125Y40360D01*
X1064000Y40147D01*
Y39613D01*
G01X1070750Y35960D02*
Y36493D01*
X1070000D01*
X1069750Y36333D01*
X1069583Y36147D01*
X1069500Y35880D01*
X1069583Y35613D01*
X1069750Y35427D01*
X1070000Y35267D01*
X1070292Y35160D01*
X1070625Y35107D01*
X1070917D01*
X1071167Y35160D01*
X1071458Y35267D01*
X1071708Y35427D01*
X1071875Y35587D01*
X1072000Y35800D01*
Y35987D01*
X1071917Y36200D01*
X1071750Y36360D01*
G01X1069500Y37387D02*
X1072000D01*
X1069500Y38613D01*
X1072000D01*
G01X1069500Y39613D02*
X1072000D01*
Y40147D01*
X1071875Y40360D01*
X1071708Y40520D01*
X1071458Y40653D01*
X1071167Y40760D01*
X1070750Y40787D01*
X1070333Y40760D01*
X1070042Y40653D01*
X1069792Y40520D01*
X1069625Y40360D01*
X1069500Y40147D01*
Y39613D01*
G01X1060250Y35960D02*
Y36493D01*
X1059500D01*
X1059250Y36333D01*
X1059083Y36147D01*
X1059000Y35880D01*
X1059083Y35613D01*
X1059250Y35427D01*
X1059500Y35267D01*
X1059792Y35160D01*
X1060125Y35107D01*
X1060417D01*
X1060667Y35160D01*
X1060958Y35267D01*
X1061208Y35427D01*
X1061375Y35587D01*
X1061500Y35800D01*
Y35987D01*
X1061417Y36200D01*
X1061250Y36360D01*
G01X1059000Y37387D02*
X1061500D01*
X1059000Y38613D01*
X1061500D01*
G01X1059000Y39613D02*
X1061500D01*
Y40147D01*
X1061375Y40360D01*
X1061208Y40520D01*
X1060958Y40653D01*
X1060667Y40760D01*
X1060250Y40787D01*
X1059833Y40760D01*
X1059542Y40653D01*
X1059292Y40520D01*
X1059125Y40360D01*
X1059000Y40147D01*
Y39613D01*
G01X1080250Y35960D02*
Y36493D01*
X1079500D01*
X1079250Y36333D01*
X1079083Y36147D01*
X1079000Y35880D01*
X1079083Y35613D01*
X1079250Y35427D01*
X1079500Y35267D01*
X1079792Y35160D01*
X1080125Y35107D01*
X1080417D01*
X1080667Y35160D01*
X1080958Y35267D01*
X1081208Y35427D01*
X1081375Y35587D01*
X1081500Y35800D01*
Y35987D01*
X1081417Y36200D01*
X1081250Y36360D01*
G01X1079000Y37387D02*
X1081500D01*
X1079000Y38613D01*
X1081500D01*
G01X1079000Y39613D02*
X1081500D01*
Y40147D01*
X1081375Y40360D01*
X1081208Y40520D01*
X1080958Y40653D01*
X1080667Y40760D01*
X1080250Y40787D01*
X1079833Y40760D01*
X1079542Y40653D01*
X1079292Y40520D01*
X1079125Y40360D01*
X1079000Y40147D01*
Y39613D01*
G01X1060250Y169460D02*
Y169993D01*
X1059500D01*
X1059250Y169833D01*
X1059083Y169647D01*
X1059000Y169380D01*
X1059083Y169113D01*
X1059250Y168927D01*
X1059500Y168767D01*
X1059792Y168660D01*
X1060125Y168607D01*
X1060417D01*
X1060667Y168660D01*
X1060958Y168767D01*
X1061208Y168927D01*
X1061375Y169087D01*
X1061500Y169300D01*
Y169487D01*
X1061417Y169700D01*
X1061250Y169860D01*
G01X1059000Y170887D02*
X1061500D01*
X1059000Y172113D01*
X1061500D01*
G01X1059000Y173113D02*
X1061500D01*
Y173647D01*
X1061375Y173860D01*
X1061208Y174020D01*
X1060958Y174153D01*
X1060667Y174260D01*
X1060250Y174287D01*
X1059833Y174260D01*
X1059542Y174153D01*
X1059292Y174020D01*
X1059125Y173860D01*
X1059000Y173647D01*
Y173113D01*
G01X1080250Y169460D02*
Y169993D01*
X1079500D01*
X1079250Y169833D01*
X1079083Y169647D01*
X1079000Y169380D01*
X1079083Y169113D01*
X1079250Y168927D01*
X1079500Y168767D01*
X1079792Y168660D01*
X1080125Y168607D01*
X1080417D01*
X1080667Y168660D01*
X1080958Y168767D01*
X1081208Y168927D01*
X1081375Y169087D01*
X1081500Y169300D01*
Y169487D01*
X1081417Y169700D01*
X1081250Y169860D01*
G01X1079000Y170887D02*
X1081500D01*
X1079000Y172113D01*
X1081500D01*
G01X1079000Y173113D02*
X1081500D01*
Y173647D01*
X1081375Y173860D01*
X1081208Y174020D01*
X1080958Y174153D01*
X1080667Y174260D01*
X1080250Y174287D01*
X1079833Y174260D01*
X1079542Y174153D01*
X1079292Y174020D01*
X1079125Y173860D01*
X1079000Y173647D01*
Y173113D01*
G01X1065250Y169460D02*
Y169993D01*
X1064500D01*
X1064250Y169833D01*
X1064083Y169647D01*
X1064000Y169380D01*
X1064083Y169113D01*
X1064250Y168927D01*
X1064500Y168767D01*
X1064792Y168660D01*
X1065125Y168607D01*
X1065417D01*
X1065667Y168660D01*
X1065958Y168767D01*
X1066208Y168927D01*
X1066375Y169087D01*
X1066500Y169300D01*
Y169487D01*
X1066417Y169700D01*
X1066250Y169860D01*
G01X1064000Y170887D02*
X1066500D01*
X1064000Y172113D01*
X1066500D01*
G01X1064000Y173113D02*
X1066500D01*
Y173647D01*
X1066375Y173860D01*
X1066208Y174020D01*
X1065958Y174153D01*
X1065667Y174260D01*
X1065250Y174287D01*
X1064833Y174260D01*
X1064542Y174153D01*
X1064292Y174020D01*
X1064125Y173860D01*
X1064000Y173647D01*
Y173113D01*
G01X1070750Y169460D02*
Y169993D01*
X1070000D01*
X1069750Y169833D01*
X1069583Y169647D01*
X1069500Y169380D01*
X1069583Y169113D01*
X1069750Y168927D01*
X1070000Y168767D01*
X1070292Y168660D01*
X1070625Y168607D01*
X1070917D01*
X1071167Y168660D01*
X1071458Y168767D01*
X1071708Y168927D01*
X1071875Y169087D01*
X1072000Y169300D01*
Y169487D01*
X1071917Y169700D01*
X1071750Y169860D01*
G01X1069500Y170887D02*
X1072000D01*
X1069500Y172113D01*
X1072000D01*
G01X1069500Y173113D02*
X1072000D01*
Y173647D01*
X1071875Y173860D01*
X1071708Y174020D01*
X1071458Y174153D01*
X1071167Y174260D01*
X1070750Y174287D01*
X1070333Y174260D01*
X1070042Y174153D01*
X1069792Y174020D01*
X1069625Y173860D01*
X1069500Y173647D01*
Y173113D01*
G01X1075750Y169460D02*
Y169993D01*
X1075000D01*
X1074750Y169833D01*
X1074583Y169647D01*
X1074500Y169380D01*
X1074583Y169113D01*
X1074750Y168927D01*
X1075000Y168767D01*
X1075292Y168660D01*
X1075625Y168607D01*
X1075917D01*
X1076167Y168660D01*
X1076458Y168767D01*
X1076708Y168927D01*
X1076875Y169087D01*
X1077000Y169300D01*
Y169487D01*
X1076917Y169700D01*
X1076750Y169860D01*
G01X1074500Y170887D02*
X1077000D01*
X1074500Y172113D01*
X1077000D01*
G01X1074500Y173113D02*
X1077000D01*
Y173647D01*
X1076875Y173860D01*
X1076708Y174020D01*
X1076458Y174153D01*
X1076167Y174260D01*
X1075750Y174287D01*
X1075333Y174260D01*
X1075042Y174153D01*
X1074792Y174020D01*
X1074625Y173860D01*
X1074500Y173647D01*
Y173113D01*
G01X1100750Y35960D02*
Y36493D01*
X1100000D01*
X1099750Y36333D01*
X1099583Y36147D01*
X1099500Y35880D01*
X1099583Y35613D01*
X1099750Y35427D01*
X1100000Y35267D01*
X1100292Y35160D01*
X1100625Y35107D01*
X1100917D01*
X1101167Y35160D01*
X1101458Y35267D01*
X1101708Y35427D01*
X1101875Y35587D01*
X1102000Y35800D01*
Y35987D01*
X1101917Y36200D01*
X1101750Y36360D01*
G01X1099500Y37387D02*
X1102000D01*
X1099500Y38613D01*
X1102000D01*
G01X1099500Y39613D02*
X1102000D01*
Y40147D01*
X1101875Y40360D01*
X1101708Y40520D01*
X1101458Y40653D01*
X1101167Y40760D01*
X1100750Y40787D01*
X1100333Y40760D01*
X1100042Y40653D01*
X1099792Y40520D01*
X1099625Y40360D01*
X1099500Y40147D01*
Y39613D01*
G01X1085250Y35960D02*
Y36493D01*
X1084500D01*
X1084250Y36333D01*
X1084083Y36147D01*
X1084000Y35880D01*
X1084083Y35613D01*
X1084250Y35427D01*
X1084500Y35267D01*
X1084792Y35160D01*
X1085125Y35107D01*
X1085417D01*
X1085667Y35160D01*
X1085958Y35267D01*
X1086208Y35427D01*
X1086375Y35587D01*
X1086500Y35800D01*
Y35987D01*
X1086417Y36200D01*
X1086250Y36360D01*
G01X1084000Y37387D02*
X1086500D01*
X1084000Y38613D01*
X1086500D01*
G01X1084000Y39613D02*
X1086500D01*
Y40147D01*
X1086375Y40360D01*
X1086208Y40520D01*
X1085958Y40653D01*
X1085667Y40760D01*
X1085250Y40787D01*
X1084833Y40760D01*
X1084542Y40653D01*
X1084292Y40520D01*
X1084125Y40360D01*
X1084000Y40147D01*
Y39613D01*
G01X1095750Y35960D02*
Y36493D01*
X1095000D01*
X1094750Y36333D01*
X1094583Y36147D01*
X1094500Y35880D01*
X1094583Y35613D01*
X1094750Y35427D01*
X1095000Y35267D01*
X1095292Y35160D01*
X1095625Y35107D01*
X1095917D01*
X1096167Y35160D01*
X1096458Y35267D01*
X1096708Y35427D01*
X1096875Y35587D01*
X1097000Y35800D01*
Y35987D01*
X1096917Y36200D01*
X1096750Y36360D01*
G01X1094500Y37387D02*
X1097000D01*
X1094500Y38613D01*
X1097000D01*
G01X1094500Y39613D02*
X1097000D01*
Y40147D01*
X1096875Y40360D01*
X1096708Y40520D01*
X1096458Y40653D01*
X1096167Y40760D01*
X1095750Y40787D01*
X1095333Y40760D01*
X1095042Y40653D01*
X1094792Y40520D01*
X1094625Y40360D01*
X1094500Y40147D01*
Y39613D01*
G01X1090250Y35960D02*
Y36493D01*
X1089500D01*
X1089250Y36333D01*
X1089083Y36147D01*
X1089000Y35880D01*
X1089083Y35613D01*
X1089250Y35427D01*
X1089500Y35267D01*
X1089792Y35160D01*
X1090125Y35107D01*
X1090417D01*
X1090667Y35160D01*
X1090958Y35267D01*
X1091208Y35427D01*
X1091375Y35587D01*
X1091500Y35800D01*
Y35987D01*
X1091417Y36200D01*
X1091250Y36360D01*
G01X1089000Y37387D02*
X1091500D01*
X1089000Y38613D01*
X1091500D01*
G01X1089000Y39613D02*
X1091500D01*
Y40147D01*
X1091375Y40360D01*
X1091208Y40520D01*
X1090958Y40653D01*
X1090667Y40760D01*
X1090250Y40787D01*
X1089833Y40760D01*
X1089542Y40653D01*
X1089292Y40520D01*
X1089125Y40360D01*
X1089000Y40147D01*
Y39613D01*
G01X1085250Y169460D02*
Y169993D01*
X1084500D01*
X1084250Y169833D01*
X1084083Y169647D01*
X1084000Y169380D01*
X1084083Y169113D01*
X1084250Y168927D01*
X1084500Y168767D01*
X1084792Y168660D01*
X1085125Y168607D01*
X1085417D01*
X1085667Y168660D01*
X1085958Y168767D01*
X1086208Y168927D01*
X1086375Y169087D01*
X1086500Y169300D01*
Y169487D01*
X1086417Y169700D01*
X1086250Y169860D01*
G01X1084000Y170887D02*
X1086500D01*
X1084000Y172113D01*
X1086500D01*
G01X1084000Y173113D02*
X1086500D01*
Y173647D01*
X1086375Y173860D01*
X1086208Y174020D01*
X1085958Y174153D01*
X1085667Y174260D01*
X1085250Y174287D01*
X1084833Y174260D01*
X1084542Y174153D01*
X1084292Y174020D01*
X1084125Y173860D01*
X1084000Y173647D01*
Y173113D01*
G01X1100750Y169460D02*
Y169993D01*
X1100000D01*
X1099750Y169833D01*
X1099583Y169647D01*
X1099500Y169380D01*
X1099583Y169113D01*
X1099750Y168927D01*
X1100000Y168767D01*
X1100292Y168660D01*
X1100625Y168607D01*
X1100917D01*
X1101167Y168660D01*
X1101458Y168767D01*
X1101708Y168927D01*
X1101875Y169087D01*
X1102000Y169300D01*
Y169487D01*
X1101917Y169700D01*
X1101750Y169860D01*
G01X1099500Y170887D02*
X1102000D01*
X1099500Y172113D01*
X1102000D01*
G01X1099500Y173113D02*
X1102000D01*
Y173647D01*
X1101875Y173860D01*
X1101708Y174020D01*
X1101458Y174153D01*
X1101167Y174260D01*
X1100750Y174287D01*
X1100333Y174260D01*
X1100042Y174153D01*
X1099792Y174020D01*
X1099625Y173860D01*
X1099500Y173647D01*
Y173113D01*
G01X1090250Y169460D02*
Y169993D01*
X1089500D01*
X1089250Y169833D01*
X1089083Y169647D01*
X1089000Y169380D01*
X1089083Y169113D01*
X1089250Y168927D01*
X1089500Y168767D01*
X1089792Y168660D01*
X1090125Y168607D01*
X1090417D01*
X1090667Y168660D01*
X1090958Y168767D01*
X1091208Y168927D01*
X1091375Y169087D01*
X1091500Y169300D01*
Y169487D01*
X1091417Y169700D01*
X1091250Y169860D01*
G01X1089000Y170887D02*
X1091500D01*
X1089000Y172113D01*
X1091500D01*
G01X1089000Y173113D02*
X1091500D01*
Y173647D01*
X1091375Y173860D01*
X1091208Y174020D01*
X1090958Y174153D01*
X1090667Y174260D01*
X1090250Y174287D01*
X1089833Y174260D01*
X1089542Y174153D01*
X1089292Y174020D01*
X1089125Y173860D01*
X1089000Y173647D01*
Y173113D01*
G01X1095750Y169460D02*
Y169993D01*
X1095000D01*
X1094750Y169833D01*
X1094583Y169647D01*
X1094500Y169380D01*
X1094583Y169113D01*
X1094750Y168927D01*
X1095000Y168767D01*
X1095292Y168660D01*
X1095625Y168607D01*
X1095917D01*
X1096167Y168660D01*
X1096458Y168767D01*
X1096708Y168927D01*
X1096875Y169087D01*
X1097000Y169300D01*
Y169487D01*
X1096917Y169700D01*
X1096750Y169860D01*
G01X1094500Y170887D02*
X1097000D01*
X1094500Y172113D01*
X1097000D01*
G01X1094500Y173113D02*
X1097000D01*
Y173647D01*
X1096875Y173860D01*
X1096708Y174020D01*
X1096458Y174153D01*
X1096167Y174260D01*
X1095750Y174287D01*
X1095333Y174260D01*
X1095042Y174153D01*
X1094792Y174020D01*
X1094625Y173860D01*
X1094500Y173647D01*
Y173113D01*
G01X1110250Y35960D02*
Y36493D01*
X1109500D01*
X1109250Y36333D01*
X1109083Y36147D01*
X1109000Y35880D01*
X1109083Y35613D01*
X1109250Y35427D01*
X1109500Y35267D01*
X1109792Y35160D01*
X1110125Y35107D01*
X1110417D01*
X1110667Y35160D01*
X1110958Y35267D01*
X1111208Y35427D01*
X1111375Y35587D01*
X1111500Y35800D01*
Y35987D01*
X1111417Y36200D01*
X1111250Y36360D01*
G01X1109000Y37387D02*
X1111500D01*
X1109000Y38613D01*
X1111500D01*
G01X1109000Y39613D02*
X1111500D01*
Y40147D01*
X1111375Y40360D01*
X1111208Y40520D01*
X1110958Y40653D01*
X1110667Y40760D01*
X1110250Y40787D01*
X1109833Y40760D01*
X1109542Y40653D01*
X1109292Y40520D01*
X1109125Y40360D01*
X1109000Y40147D01*
Y39613D01*
G01X1120750Y35960D02*
Y36493D01*
X1120000D01*
X1119750Y36333D01*
X1119583Y36147D01*
X1119500Y35880D01*
X1119583Y35613D01*
X1119750Y35427D01*
X1120000Y35267D01*
X1120292Y35160D01*
X1120625Y35107D01*
X1120917D01*
X1121167Y35160D01*
X1121458Y35267D01*
X1121708Y35427D01*
X1121875Y35587D01*
X1122000Y35800D01*
Y35987D01*
X1121917Y36200D01*
X1121750Y36360D01*
G01X1119500Y37387D02*
X1122000D01*
X1119500Y38613D01*
X1122000D01*
G01X1119500Y39613D02*
X1122000D01*
Y40147D01*
X1121875Y40360D01*
X1121708Y40520D01*
X1121458Y40653D01*
X1121167Y40760D01*
X1120750Y40787D01*
X1120333Y40760D01*
X1120042Y40653D01*
X1119792Y40520D01*
X1119625Y40360D01*
X1119500Y40147D01*
Y39613D01*
G01X1115250Y35960D02*
Y36493D01*
X1114500D01*
X1114250Y36333D01*
X1114083Y36147D01*
X1114000Y35880D01*
X1114083Y35613D01*
X1114250Y35427D01*
X1114500Y35267D01*
X1114792Y35160D01*
X1115125Y35107D01*
X1115417D01*
X1115667Y35160D01*
X1115958Y35267D01*
X1116208Y35427D01*
X1116375Y35587D01*
X1116500Y35800D01*
Y35987D01*
X1116417Y36200D01*
X1116250Y36360D01*
G01X1114000Y37387D02*
X1116500D01*
X1114000Y38613D01*
X1116500D01*
G01X1114000Y39613D02*
X1116500D01*
Y40147D01*
X1116375Y40360D01*
X1116208Y40520D01*
X1115958Y40653D01*
X1115667Y40760D01*
X1115250Y40787D01*
X1114833Y40760D01*
X1114542Y40653D01*
X1114292Y40520D01*
X1114125Y40360D01*
X1114000Y40147D01*
Y39613D01*
G01X1105250Y35960D02*
Y36493D01*
X1104500D01*
X1104250Y36333D01*
X1104083Y36147D01*
X1104000Y35880D01*
X1104083Y35613D01*
X1104250Y35427D01*
X1104500Y35267D01*
X1104792Y35160D01*
X1105125Y35107D01*
X1105417D01*
X1105667Y35160D01*
X1105958Y35267D01*
X1106208Y35427D01*
X1106375Y35587D01*
X1106500Y35800D01*
Y35987D01*
X1106417Y36200D01*
X1106250Y36360D01*
G01X1104000Y37387D02*
X1106500D01*
X1104000Y38613D01*
X1106500D01*
G01X1104000Y39613D02*
X1106500D01*
Y40147D01*
X1106375Y40360D01*
X1106208Y40520D01*
X1105958Y40653D01*
X1105667Y40760D01*
X1105250Y40787D01*
X1104833Y40760D01*
X1104542Y40653D01*
X1104292Y40520D01*
X1104125Y40360D01*
X1104000Y40147D01*
Y39613D01*
G01X1105250Y169460D02*
Y169993D01*
X1104500D01*
X1104250Y169833D01*
X1104083Y169647D01*
X1104000Y169380D01*
X1104083Y169113D01*
X1104250Y168927D01*
X1104500Y168767D01*
X1104792Y168660D01*
X1105125Y168607D01*
X1105417D01*
X1105667Y168660D01*
X1105958Y168767D01*
X1106208Y168927D01*
X1106375Y169087D01*
X1106500Y169300D01*
Y169487D01*
X1106417Y169700D01*
X1106250Y169860D01*
G01X1104000Y170887D02*
X1106500D01*
X1104000Y172113D01*
X1106500D01*
G01X1104000Y173113D02*
X1106500D01*
Y173647D01*
X1106375Y173860D01*
X1106208Y174020D01*
X1105958Y174153D01*
X1105667Y174260D01*
X1105250Y174287D01*
X1104833Y174260D01*
X1104542Y174153D01*
X1104292Y174020D01*
X1104125Y173860D01*
X1104000Y173647D01*
Y173113D01*
G01X1120750Y169460D02*
Y169993D01*
X1120000D01*
X1119750Y169833D01*
X1119583Y169647D01*
X1119500Y169380D01*
X1119583Y169113D01*
X1119750Y168927D01*
X1120000Y168767D01*
X1120292Y168660D01*
X1120625Y168607D01*
X1120917D01*
X1121167Y168660D01*
X1121458Y168767D01*
X1121708Y168927D01*
X1121875Y169087D01*
X1122000Y169300D01*
Y169487D01*
X1121917Y169700D01*
X1121750Y169860D01*
G01X1119500Y170887D02*
X1122000D01*
X1119500Y172113D01*
X1122000D01*
G01X1119500Y173113D02*
X1122000D01*
Y173647D01*
X1121875Y173860D01*
X1121708Y174020D01*
X1121458Y174153D01*
X1121167Y174260D01*
X1120750Y174287D01*
X1120333Y174260D01*
X1120042Y174153D01*
X1119792Y174020D01*
X1119625Y173860D01*
X1119500Y173647D01*
Y173113D01*
G01X1110250Y169460D02*
Y169993D01*
X1109500D01*
X1109250Y169833D01*
X1109083Y169647D01*
X1109000Y169380D01*
X1109083Y169113D01*
X1109250Y168927D01*
X1109500Y168767D01*
X1109792Y168660D01*
X1110125Y168607D01*
X1110417D01*
X1110667Y168660D01*
X1110958Y168767D01*
X1111208Y168927D01*
X1111375Y169087D01*
X1111500Y169300D01*
Y169487D01*
X1111417Y169700D01*
X1111250Y169860D01*
G01X1109000Y170887D02*
X1111500D01*
X1109000Y172113D01*
X1111500D01*
G01X1109000Y173113D02*
X1111500D01*
Y173647D01*
X1111375Y173860D01*
X1111208Y174020D01*
X1110958Y174153D01*
X1110667Y174260D01*
X1110250Y174287D01*
X1109833Y174260D01*
X1109542Y174153D01*
X1109292Y174020D01*
X1109125Y173860D01*
X1109000Y173647D01*
Y173113D01*
G01X1115250Y169460D02*
Y169993D01*
X1114500D01*
X1114250Y169833D01*
X1114083Y169647D01*
X1114000Y169380D01*
X1114083Y169113D01*
X1114250Y168927D01*
X1114500Y168767D01*
X1114792Y168660D01*
X1115125Y168607D01*
X1115417D01*
X1115667Y168660D01*
X1115958Y168767D01*
X1116208Y168927D01*
X1116375Y169087D01*
X1116500Y169300D01*
Y169487D01*
X1116417Y169700D01*
X1116250Y169860D01*
G01X1114000Y170887D02*
X1116500D01*
X1114000Y172113D01*
X1116500D01*
G01X1114000Y173113D02*
X1116500D01*
Y173647D01*
X1116375Y173860D01*
X1116208Y174020D01*
X1115958Y174153D01*
X1115667Y174260D01*
X1115250Y174287D01*
X1114833Y174260D01*
X1114542Y174153D01*
X1114292Y174020D01*
X1114125Y173860D01*
X1114000Y173647D01*
Y173113D01*
G01X1134750Y35960D02*
Y36493D01*
X1134000D01*
X1133750Y36333D01*
X1133583Y36147D01*
X1133500Y35880D01*
X1133583Y35613D01*
X1133750Y35427D01*
X1134000Y35267D01*
X1134292Y35160D01*
X1134625Y35107D01*
X1134917D01*
X1135167Y35160D01*
X1135458Y35267D01*
X1135708Y35427D01*
X1135875Y35587D01*
X1136000Y35800D01*
Y35987D01*
X1135917Y36200D01*
X1135750Y36360D01*
G01X1133500Y37387D02*
X1136000D01*
X1133500Y38613D01*
X1136000D01*
G01X1133500Y39613D02*
X1136000D01*
Y40147D01*
X1135875Y40360D01*
X1135708Y40520D01*
X1135458Y40653D01*
X1135167Y40760D01*
X1134750Y40787D01*
X1134333Y40760D01*
X1134042Y40653D01*
X1133792Y40520D01*
X1133625Y40360D01*
X1133500Y40147D01*
Y39613D01*
G01X1139750Y35960D02*
Y36493D01*
X1139000D01*
X1138750Y36333D01*
X1138583Y36147D01*
X1138500Y35880D01*
X1138583Y35613D01*
X1138750Y35427D01*
X1139000Y35267D01*
X1139292Y35160D01*
X1139625Y35107D01*
X1139917D01*
X1140167Y35160D01*
X1140458Y35267D01*
X1140708Y35427D01*
X1140875Y35587D01*
X1141000Y35800D01*
Y35987D01*
X1140917Y36200D01*
X1140750Y36360D01*
G01X1138500Y37387D02*
X1141000D01*
X1138500Y38613D01*
X1141000D01*
G01X1138500Y39613D02*
X1141000D01*
Y40147D01*
X1140875Y40360D01*
X1140708Y40520D01*
X1140458Y40653D01*
X1140167Y40760D01*
X1139750Y40787D01*
X1139333Y40760D01*
X1139042Y40653D01*
X1138792Y40520D01*
X1138625Y40360D01*
X1138500Y40147D01*
Y39613D01*
G01X1125250Y35960D02*
Y36493D01*
X1124500D01*
X1124250Y36333D01*
X1124083Y36147D01*
X1124000Y35880D01*
X1124083Y35613D01*
X1124250Y35427D01*
X1124500Y35267D01*
X1124792Y35160D01*
X1125125Y35107D01*
X1125417D01*
X1125667Y35160D01*
X1125958Y35267D01*
X1126208Y35427D01*
X1126375Y35587D01*
X1126500Y35800D01*
Y35987D01*
X1126417Y36200D01*
X1126250Y36360D01*
G01X1124000Y37387D02*
X1126500D01*
X1124000Y38613D01*
X1126500D01*
G01X1124000Y39613D02*
X1126500D01*
Y40147D01*
X1126375Y40360D01*
X1126208Y40520D01*
X1125958Y40653D01*
X1125667Y40760D01*
X1125250Y40787D01*
X1124833Y40760D01*
X1124542Y40653D01*
X1124292Y40520D01*
X1124125Y40360D01*
X1124000Y40147D01*
Y39613D01*
G01X1129750Y35960D02*
Y36493D01*
X1129000D01*
X1128750Y36333D01*
X1128583Y36147D01*
X1128500Y35880D01*
X1128583Y35613D01*
X1128750Y35427D01*
X1129000Y35267D01*
X1129292Y35160D01*
X1129625Y35107D01*
X1129917D01*
X1130167Y35160D01*
X1130458Y35267D01*
X1130708Y35427D01*
X1130875Y35587D01*
X1131000Y35800D01*
Y35987D01*
X1130917Y36200D01*
X1130750Y36360D01*
G01X1128500Y37387D02*
X1131000D01*
X1128500Y38613D01*
X1131000D01*
G01X1128500Y39613D02*
X1131000D01*
Y40147D01*
X1130875Y40360D01*
X1130708Y40520D01*
X1130458Y40653D01*
X1130167Y40760D01*
X1129750Y40787D01*
X1129333Y40760D01*
X1129042Y40653D01*
X1128792Y40520D01*
X1128625Y40360D01*
X1128500Y40147D01*
Y39613D01*
G01X1145250Y35960D02*
Y36493D01*
X1144500D01*
X1144250Y36333D01*
X1144083Y36147D01*
X1144000Y35880D01*
X1144083Y35613D01*
X1144250Y35427D01*
X1144500Y35267D01*
X1144792Y35160D01*
X1145125Y35107D01*
X1145417D01*
X1145667Y35160D01*
X1145958Y35267D01*
X1146208Y35427D01*
X1146375Y35587D01*
X1146500Y35800D01*
Y35987D01*
X1146417Y36200D01*
X1146250Y36360D01*
G01X1144000Y37387D02*
X1146500D01*
X1144000Y38613D01*
X1146500D01*
G01X1144000Y39613D02*
X1146500D01*
Y40147D01*
X1146375Y40360D01*
X1146208Y40520D01*
X1145958Y40653D01*
X1145667Y40760D01*
X1145250Y40787D01*
X1144833Y40760D01*
X1144542Y40653D01*
X1144292Y40520D01*
X1144125Y40360D01*
X1144000Y40147D01*
Y39613D01*
G01X1125250Y169460D02*
Y169993D01*
X1124500D01*
X1124250Y169833D01*
X1124083Y169647D01*
X1124000Y169380D01*
X1124083Y169113D01*
X1124250Y168927D01*
X1124500Y168767D01*
X1124792Y168660D01*
X1125125Y168607D01*
X1125417D01*
X1125667Y168660D01*
X1125958Y168767D01*
X1126208Y168927D01*
X1126375Y169087D01*
X1126500Y169300D01*
Y169487D01*
X1126417Y169700D01*
X1126250Y169860D01*
G01X1124000Y170887D02*
X1126500D01*
X1124000Y172113D01*
X1126500D01*
G01X1124000Y173113D02*
X1126500D01*
Y173647D01*
X1126375Y173860D01*
X1126208Y174020D01*
X1125958Y174153D01*
X1125667Y174260D01*
X1125250Y174287D01*
X1124833Y174260D01*
X1124542Y174153D01*
X1124292Y174020D01*
X1124125Y173860D01*
X1124000Y173647D01*
Y173113D01*
G01X1145250Y169460D02*
Y169993D01*
X1144500D01*
X1144250Y169833D01*
X1144083Y169647D01*
X1144000Y169380D01*
X1144083Y169113D01*
X1144250Y168927D01*
X1144500Y168767D01*
X1144792Y168660D01*
X1145125Y168607D01*
X1145417D01*
X1145667Y168660D01*
X1145958Y168767D01*
X1146208Y168927D01*
X1146375Y169087D01*
X1146500Y169300D01*
Y169487D01*
X1146417Y169700D01*
X1146250Y169860D01*
G01X1144000Y170887D02*
X1146500D01*
X1144000Y172113D01*
X1146500D01*
G01X1144000Y173113D02*
X1146500D01*
Y173647D01*
X1146375Y173860D01*
X1146208Y174020D01*
X1145958Y174153D01*
X1145667Y174260D01*
X1145250Y174287D01*
X1144833Y174260D01*
X1144542Y174153D01*
X1144292Y174020D01*
X1144125Y173860D01*
X1144000Y173647D01*
Y173113D01*
G01X1129750Y169460D02*
Y169993D01*
X1129000D01*
X1128750Y169833D01*
X1128583Y169647D01*
X1128500Y169380D01*
X1128583Y169113D01*
X1128750Y168927D01*
X1129000Y168767D01*
X1129292Y168660D01*
X1129625Y168607D01*
X1129917D01*
X1130167Y168660D01*
X1130458Y168767D01*
X1130708Y168927D01*
X1130875Y169087D01*
X1131000Y169300D01*
Y169487D01*
X1130917Y169700D01*
X1130750Y169860D01*
G01X1128500Y170887D02*
X1131000D01*
X1128500Y172113D01*
X1131000D01*
G01X1128500Y173113D02*
X1131000D01*
Y173647D01*
X1130875Y173860D01*
X1130708Y174020D01*
X1130458Y174153D01*
X1130167Y174260D01*
X1129750Y174287D01*
X1129333Y174260D01*
X1129042Y174153D01*
X1128792Y174020D01*
X1128625Y173860D01*
X1128500Y173647D01*
Y173113D01*
G01X1134750Y169460D02*
Y169993D01*
X1134000D01*
X1133750Y169833D01*
X1133583Y169647D01*
X1133500Y169380D01*
X1133583Y169113D01*
X1133750Y168927D01*
X1134000Y168767D01*
X1134292Y168660D01*
X1134625Y168607D01*
X1134917D01*
X1135167Y168660D01*
X1135458Y168767D01*
X1135708Y168927D01*
X1135875Y169087D01*
X1136000Y169300D01*
Y169487D01*
X1135917Y169700D01*
X1135750Y169860D01*
G01X1133500Y170887D02*
X1136000D01*
X1133500Y172113D01*
X1136000D01*
G01X1133500Y173113D02*
X1136000D01*
Y173647D01*
X1135875Y173860D01*
X1135708Y174020D01*
X1135458Y174153D01*
X1135167Y174260D01*
X1134750Y174287D01*
X1134333Y174260D01*
X1134042Y174153D01*
X1133792Y174020D01*
X1133625Y173860D01*
X1133500Y173647D01*
Y173113D01*
G01X1139750Y169460D02*
Y169993D01*
X1139000D01*
X1138750Y169833D01*
X1138583Y169647D01*
X1138500Y169380D01*
X1138583Y169113D01*
X1138750Y168927D01*
X1139000Y168767D01*
X1139292Y168660D01*
X1139625Y168607D01*
X1139917D01*
X1140167Y168660D01*
X1140458Y168767D01*
X1140708Y168927D01*
X1140875Y169087D01*
X1141000Y169300D01*
Y169487D01*
X1140917Y169700D01*
X1140750Y169860D01*
G01X1138500Y170887D02*
X1141000D01*
X1138500Y172113D01*
X1141000D01*
G01X1138500Y173113D02*
X1141000D01*
Y173647D01*
X1140875Y173860D01*
X1140708Y174020D01*
X1140458Y174153D01*
X1140167Y174260D01*
X1139750Y174287D01*
X1139333Y174260D01*
X1139042Y174153D01*
X1138792Y174020D01*
X1138625Y173860D01*
X1138500Y173647D01*
Y173113D01*
G01X1154750Y35960D02*
Y36493D01*
X1154000D01*
X1153750Y36333D01*
X1153583Y36147D01*
X1153500Y35880D01*
X1153583Y35613D01*
X1153750Y35427D01*
X1154000Y35267D01*
X1154292Y35160D01*
X1154625Y35107D01*
X1154917D01*
X1155167Y35160D01*
X1155458Y35267D01*
X1155708Y35427D01*
X1155875Y35587D01*
X1156000Y35800D01*
Y35987D01*
X1155917Y36200D01*
X1155750Y36360D01*
G01X1153500Y37387D02*
X1156000D01*
X1153500Y38613D01*
X1156000D01*
G01X1153500Y39613D02*
X1156000D01*
Y40147D01*
X1155875Y40360D01*
X1155708Y40520D01*
X1155458Y40653D01*
X1155167Y40760D01*
X1154750Y40787D01*
X1154333Y40760D01*
X1154042Y40653D01*
X1153792Y40520D01*
X1153625Y40360D01*
X1153500Y40147D01*
Y39613D01*
G01X1164750Y35960D02*
Y36493D01*
X1164000D01*
X1163750Y36333D01*
X1163583Y36147D01*
X1163500Y35880D01*
X1163583Y35613D01*
X1163750Y35427D01*
X1164000Y35267D01*
X1164292Y35160D01*
X1164625Y35107D01*
X1164917D01*
X1165167Y35160D01*
X1165458Y35267D01*
X1165708Y35427D01*
X1165875Y35587D01*
X1166000Y35800D01*
Y35987D01*
X1165917Y36200D01*
X1165750Y36360D01*
G01X1163500Y37387D02*
X1166000D01*
X1163500Y38613D01*
X1166000D01*
G01X1163500Y39613D02*
X1166000D01*
Y40147D01*
X1165875Y40360D01*
X1165708Y40520D01*
X1165458Y40653D01*
X1165167Y40760D01*
X1164750Y40787D01*
X1164333Y40760D01*
X1164042Y40653D01*
X1163792Y40520D01*
X1163625Y40360D01*
X1163500Y40147D01*
Y39613D01*
G01X1159750Y35960D02*
Y36493D01*
X1159000D01*
X1158750Y36333D01*
X1158583Y36147D01*
X1158500Y35880D01*
X1158583Y35613D01*
X1158750Y35427D01*
X1159000Y35267D01*
X1159292Y35160D01*
X1159625Y35107D01*
X1159917D01*
X1160167Y35160D01*
X1160458Y35267D01*
X1160708Y35427D01*
X1160875Y35587D01*
X1161000Y35800D01*
Y35987D01*
X1160917Y36200D01*
X1160750Y36360D01*
G01X1158500Y37387D02*
X1161000D01*
X1158500Y38613D01*
X1161000D01*
G01X1158500Y39613D02*
X1161000D01*
Y40147D01*
X1160875Y40360D01*
X1160708Y40520D01*
X1160458Y40653D01*
X1160167Y40760D01*
X1159750Y40787D01*
X1159333Y40760D01*
X1159042Y40653D01*
X1158792Y40520D01*
X1158625Y40360D01*
X1158500Y40147D01*
Y39613D01*
G01X1150250Y35960D02*
Y36493D01*
X1149500D01*
X1149250Y36333D01*
X1149083Y36147D01*
X1149000Y35880D01*
X1149083Y35613D01*
X1149250Y35427D01*
X1149500Y35267D01*
X1149792Y35160D01*
X1150125Y35107D01*
X1150417D01*
X1150667Y35160D01*
X1150958Y35267D01*
X1151208Y35427D01*
X1151375Y35587D01*
X1151500Y35800D01*
Y35987D01*
X1151417Y36200D01*
X1151250Y36360D01*
G01X1149000Y37387D02*
X1151500D01*
X1149000Y38613D01*
X1151500D01*
G01X1149000Y39613D02*
X1151500D01*
Y40147D01*
X1151375Y40360D01*
X1151208Y40520D01*
X1150958Y40653D01*
X1150667Y40760D01*
X1150250Y40787D01*
X1149833Y40760D01*
X1149542Y40653D01*
X1149292Y40520D01*
X1149125Y40360D01*
X1149000Y40147D01*
Y39613D01*
G01X1164750Y169460D02*
Y169993D01*
X1164000D01*
X1163750Y169833D01*
X1163583Y169647D01*
X1163500Y169380D01*
X1163583Y169113D01*
X1163750Y168927D01*
X1164000Y168767D01*
X1164292Y168660D01*
X1164625Y168607D01*
X1164917D01*
X1165167Y168660D01*
X1165458Y168767D01*
X1165708Y168927D01*
X1165875Y169087D01*
X1166000Y169300D01*
Y169487D01*
X1165917Y169700D01*
X1165750Y169860D01*
G01X1163500Y170887D02*
X1166000D01*
X1163500Y172113D01*
X1166000D01*
G01X1163500Y173113D02*
X1166000D01*
Y173647D01*
X1165875Y173860D01*
X1165708Y174020D01*
X1165458Y174153D01*
X1165167Y174260D01*
X1164750Y174287D01*
X1164333Y174260D01*
X1164042Y174153D01*
X1163792Y174020D01*
X1163625Y173860D01*
X1163500Y173647D01*
Y173113D01*
G01X1150250Y169460D02*
Y169993D01*
X1149500D01*
X1149250Y169833D01*
X1149083Y169647D01*
X1149000Y169380D01*
X1149083Y169113D01*
X1149250Y168927D01*
X1149500Y168767D01*
X1149792Y168660D01*
X1150125Y168607D01*
X1150417D01*
X1150667Y168660D01*
X1150958Y168767D01*
X1151208Y168927D01*
X1151375Y169087D01*
X1151500Y169300D01*
Y169487D01*
X1151417Y169700D01*
X1151250Y169860D01*
G01X1149000Y170887D02*
X1151500D01*
X1149000Y172113D01*
X1151500D01*
G01X1149000Y173113D02*
X1151500D01*
Y173647D01*
X1151375Y173860D01*
X1151208Y174020D01*
X1150958Y174153D01*
X1150667Y174260D01*
X1150250Y174287D01*
X1149833Y174260D01*
X1149542Y174153D01*
X1149292Y174020D01*
X1149125Y173860D01*
X1149000Y173647D01*
Y173113D01*
G01X1154750Y169460D02*
Y169993D01*
X1154000D01*
X1153750Y169833D01*
X1153583Y169647D01*
X1153500Y169380D01*
X1153583Y169113D01*
X1153750Y168927D01*
X1154000Y168767D01*
X1154292Y168660D01*
X1154625Y168607D01*
X1154917D01*
X1155167Y168660D01*
X1155458Y168767D01*
X1155708Y168927D01*
X1155875Y169087D01*
X1156000Y169300D01*
Y169487D01*
X1155917Y169700D01*
X1155750Y169860D01*
G01X1153500Y170887D02*
X1156000D01*
X1153500Y172113D01*
X1156000D01*
G01X1153500Y173113D02*
X1156000D01*
Y173647D01*
X1155875Y173860D01*
X1155708Y174020D01*
X1155458Y174153D01*
X1155167Y174260D01*
X1154750Y174287D01*
X1154333Y174260D01*
X1154042Y174153D01*
X1153792Y174020D01*
X1153625Y173860D01*
X1153500Y173647D01*
Y173113D01*
G01X1159750Y169460D02*
Y169993D01*
X1159000D01*
X1158750Y169833D01*
X1158583Y169647D01*
X1158500Y169380D01*
X1158583Y169113D01*
X1158750Y168927D01*
X1159000Y168767D01*
X1159292Y168660D01*
X1159625Y168607D01*
X1159917D01*
X1160167Y168660D01*
X1160458Y168767D01*
X1160708Y168927D01*
X1160875Y169087D01*
X1161000Y169300D01*
Y169487D01*
X1160917Y169700D01*
X1160750Y169860D01*
G01X1158500Y170887D02*
X1161000D01*
X1158500Y172113D01*
X1161000D01*
G01X1158500Y173113D02*
X1161000D01*
Y173647D01*
X1160875Y173860D01*
X1160708Y174020D01*
X1160458Y174153D01*
X1160167Y174260D01*
X1159750Y174287D01*
X1159333Y174260D01*
X1159042Y174153D01*
X1158792Y174020D01*
X1158625Y173860D01*
X1158500Y173647D01*
Y173113D01*
G01X1179750Y35960D02*
Y36493D01*
X1179000D01*
X1178750Y36333D01*
X1178583Y36147D01*
X1178500Y35880D01*
X1178583Y35613D01*
X1178750Y35427D01*
X1179000Y35267D01*
X1179292Y35160D01*
X1179625Y35107D01*
X1179917D01*
X1180167Y35160D01*
X1180458Y35267D01*
X1180708Y35427D01*
X1180875Y35587D01*
X1181000Y35800D01*
Y35987D01*
X1180917Y36200D01*
X1180750Y36360D01*
G01X1178500Y37387D02*
X1181000D01*
X1178500Y38613D01*
X1181000D01*
G01X1178500Y39613D02*
X1181000D01*
Y40147D01*
X1180875Y40360D01*
X1180708Y40520D01*
X1180458Y40653D01*
X1180167Y40760D01*
X1179750Y40787D01*
X1179333Y40760D01*
X1179042Y40653D01*
X1178792Y40520D01*
X1178625Y40360D01*
X1178500Y40147D01*
Y39613D01*
G01X1184750Y35960D02*
Y36493D01*
X1184000D01*
X1183750Y36333D01*
X1183583Y36147D01*
X1183500Y35880D01*
X1183583Y35613D01*
X1183750Y35427D01*
X1184000Y35267D01*
X1184292Y35160D01*
X1184625Y35107D01*
X1184917D01*
X1185167Y35160D01*
X1185458Y35267D01*
X1185708Y35427D01*
X1185875Y35587D01*
X1186000Y35800D01*
Y35987D01*
X1185917Y36200D01*
X1185750Y36360D01*
G01X1183500Y37387D02*
X1186000D01*
X1183500Y38613D01*
X1186000D01*
G01X1183500Y39613D02*
X1186000D01*
Y40147D01*
X1185875Y40360D01*
X1185708Y40520D01*
X1185458Y40653D01*
X1185167Y40760D01*
X1184750Y40787D01*
X1184333Y40760D01*
X1184042Y40653D01*
X1183792Y40520D01*
X1183625Y40360D01*
X1183500Y40147D01*
Y39613D01*
G01X1170250Y35960D02*
Y36493D01*
X1169500D01*
X1169250Y36333D01*
X1169083Y36147D01*
X1169000Y35880D01*
X1169083Y35613D01*
X1169250Y35427D01*
X1169500Y35267D01*
X1169792Y35160D01*
X1170125Y35107D01*
X1170417D01*
X1170667Y35160D01*
X1170958Y35267D01*
X1171208Y35427D01*
X1171375Y35587D01*
X1171500Y35800D01*
Y35987D01*
X1171417Y36200D01*
X1171250Y36360D01*
G01X1169000Y37387D02*
X1171500D01*
X1169000Y38613D01*
X1171500D01*
G01X1169000Y39613D02*
X1171500D01*
Y40147D01*
X1171375Y40360D01*
X1171208Y40520D01*
X1170958Y40653D01*
X1170667Y40760D01*
X1170250Y40787D01*
X1169833Y40760D01*
X1169542Y40653D01*
X1169292Y40520D01*
X1169125Y40360D01*
X1169000Y40147D01*
Y39613D01*
G01X1175250Y35960D02*
Y36493D01*
X1174500D01*
X1174250Y36333D01*
X1174083Y36147D01*
X1174000Y35880D01*
X1174083Y35613D01*
X1174250Y35427D01*
X1174500Y35267D01*
X1174792Y35160D01*
X1175125Y35107D01*
X1175417D01*
X1175667Y35160D01*
X1175958Y35267D01*
X1176208Y35427D01*
X1176375Y35587D01*
X1176500Y35800D01*
Y35987D01*
X1176417Y36200D01*
X1176250Y36360D01*
G01X1174000Y37387D02*
X1176500D01*
X1174000Y38613D01*
X1176500D01*
G01X1174000Y39613D02*
X1176500D01*
Y40147D01*
X1176375Y40360D01*
X1176208Y40520D01*
X1175958Y40653D01*
X1175667Y40760D01*
X1175250Y40787D01*
X1174833Y40760D01*
X1174542Y40653D01*
X1174292Y40520D01*
X1174125Y40360D01*
X1174000Y40147D01*
Y39613D01*
G01X1170250Y169460D02*
Y169993D01*
X1169500D01*
X1169250Y169833D01*
X1169083Y169647D01*
X1169000Y169380D01*
X1169083Y169113D01*
X1169250Y168927D01*
X1169500Y168767D01*
X1169792Y168660D01*
X1170125Y168607D01*
X1170417D01*
X1170667Y168660D01*
X1170958Y168767D01*
X1171208Y168927D01*
X1171375Y169087D01*
X1171500Y169300D01*
Y169487D01*
X1171417Y169700D01*
X1171250Y169860D01*
G01X1169000Y170887D02*
X1171500D01*
X1169000Y172113D01*
X1171500D01*
G01X1169000Y173113D02*
X1171500D01*
Y173647D01*
X1171375Y173860D01*
X1171208Y174020D01*
X1170958Y174153D01*
X1170667Y174260D01*
X1170250Y174287D01*
X1169833Y174260D01*
X1169542Y174153D01*
X1169292Y174020D01*
X1169125Y173860D01*
X1169000Y173647D01*
Y173113D01*
G01X1184750Y169460D02*
Y169993D01*
X1184000D01*
X1183750Y169833D01*
X1183583Y169647D01*
X1183500Y169380D01*
X1183583Y169113D01*
X1183750Y168927D01*
X1184000Y168767D01*
X1184292Y168660D01*
X1184625Y168607D01*
X1184917D01*
X1185167Y168660D01*
X1185458Y168767D01*
X1185708Y168927D01*
X1185875Y169087D01*
X1186000Y169300D01*
Y169487D01*
X1185917Y169700D01*
X1185750Y169860D01*
G01X1183500Y170887D02*
X1186000D01*
X1183500Y172113D01*
X1186000D01*
G01X1183500Y173113D02*
X1186000D01*
Y173647D01*
X1185875Y173860D01*
X1185708Y174020D01*
X1185458Y174153D01*
X1185167Y174260D01*
X1184750Y174287D01*
X1184333Y174260D01*
X1184042Y174153D01*
X1183792Y174020D01*
X1183625Y173860D01*
X1183500Y173647D01*
Y173113D01*
G01X1175250Y169460D02*
Y169993D01*
X1174500D01*
X1174250Y169833D01*
X1174083Y169647D01*
X1174000Y169380D01*
X1174083Y169113D01*
X1174250Y168927D01*
X1174500Y168767D01*
X1174792Y168660D01*
X1175125Y168607D01*
X1175417D01*
X1175667Y168660D01*
X1175958Y168767D01*
X1176208Y168927D01*
X1176375Y169087D01*
X1176500Y169300D01*
Y169487D01*
X1176417Y169700D01*
X1176250Y169860D01*
G01X1174000Y170887D02*
X1176500D01*
X1174000Y172113D01*
X1176500D01*
G01X1174000Y173113D02*
X1176500D01*
Y173647D01*
X1176375Y173860D01*
X1176208Y174020D01*
X1175958Y174153D01*
X1175667Y174260D01*
X1175250Y174287D01*
X1174833Y174260D01*
X1174542Y174153D01*
X1174292Y174020D01*
X1174125Y173860D01*
X1174000Y173647D01*
Y173113D01*
G01X1179750Y169460D02*
Y169993D01*
X1179000D01*
X1178750Y169833D01*
X1178583Y169647D01*
X1178500Y169380D01*
X1178583Y169113D01*
X1178750Y168927D01*
X1179000Y168767D01*
X1179292Y168660D01*
X1179625Y168607D01*
X1179917D01*
X1180167Y168660D01*
X1180458Y168767D01*
X1180708Y168927D01*
X1180875Y169087D01*
X1181000Y169300D01*
Y169487D01*
X1180917Y169700D01*
X1180750Y169860D01*
G01X1178500Y170887D02*
X1181000D01*
X1178500Y172113D01*
X1181000D01*
G01X1178500Y173113D02*
X1181000D01*
Y173647D01*
X1180875Y173860D01*
X1180708Y174020D01*
X1180458Y174153D01*
X1180167Y174260D01*
X1179750Y174287D01*
X1179333Y174260D01*
X1179042Y174153D01*
X1178792Y174020D01*
X1178625Y173860D01*
X1178500Y173647D01*
Y173113D01*
G01X1204750Y35960D02*
Y36493D01*
X1204000D01*
X1203750Y36333D01*
X1203583Y36147D01*
X1203500Y35880D01*
X1203583Y35613D01*
X1203750Y35427D01*
X1204000Y35267D01*
X1204292Y35160D01*
X1204625Y35107D01*
X1204917D01*
X1205167Y35160D01*
X1205458Y35267D01*
X1205708Y35427D01*
X1205875Y35587D01*
X1206000Y35800D01*
Y35987D01*
X1205917Y36200D01*
X1205750Y36360D01*
G01X1203500Y37387D02*
X1206000D01*
X1203500Y38613D01*
X1206000D01*
G01X1203500Y39613D02*
X1206000D01*
Y40147D01*
X1205875Y40360D01*
X1205708Y40520D01*
X1205458Y40653D01*
X1205167Y40760D01*
X1204750Y40787D01*
X1204333Y40760D01*
X1204042Y40653D01*
X1203792Y40520D01*
X1203625Y40360D01*
X1203500Y40147D01*
Y39613D01*
G01X1199750Y35960D02*
Y36493D01*
X1199000D01*
X1198750Y36333D01*
X1198583Y36147D01*
X1198500Y35880D01*
X1198583Y35613D01*
X1198750Y35427D01*
X1199000Y35267D01*
X1199292Y35160D01*
X1199625Y35107D01*
X1199917D01*
X1200167Y35160D01*
X1200458Y35267D01*
X1200708Y35427D01*
X1200875Y35587D01*
X1201000Y35800D01*
Y35987D01*
X1200917Y36200D01*
X1200750Y36360D01*
G01X1198500Y37387D02*
X1201000D01*
X1198500Y38613D01*
X1201000D01*
G01X1198500Y39613D02*
X1201000D01*
Y40147D01*
X1200875Y40360D01*
X1200708Y40520D01*
X1200458Y40653D01*
X1200167Y40760D01*
X1199750Y40787D01*
X1199333Y40760D01*
X1199042Y40653D01*
X1198792Y40520D01*
X1198625Y40360D01*
X1198500Y40147D01*
Y39613D01*
G01X1189750Y35960D02*
Y36493D01*
X1189000D01*
X1188750Y36333D01*
X1188583Y36147D01*
X1188500Y35880D01*
X1188583Y35613D01*
X1188750Y35427D01*
X1189000Y35267D01*
X1189292Y35160D01*
X1189625Y35107D01*
X1189917D01*
X1190167Y35160D01*
X1190458Y35267D01*
X1190708Y35427D01*
X1190875Y35587D01*
X1191000Y35800D01*
Y35987D01*
X1190917Y36200D01*
X1190750Y36360D01*
G01X1188500Y37387D02*
X1191000D01*
X1188500Y38613D01*
X1191000D01*
G01X1188500Y39613D02*
X1191000D01*
Y40147D01*
X1190875Y40360D01*
X1190708Y40520D01*
X1190458Y40653D01*
X1190167Y40760D01*
X1189750Y40787D01*
X1189333Y40760D01*
X1189042Y40653D01*
X1188792Y40520D01*
X1188625Y40360D01*
X1188500Y40147D01*
Y39613D01*
G01X1195250Y35960D02*
Y36493D01*
X1194500D01*
X1194250Y36333D01*
X1194083Y36147D01*
X1194000Y35880D01*
X1194083Y35613D01*
X1194250Y35427D01*
X1194500Y35267D01*
X1194792Y35160D01*
X1195125Y35107D01*
X1195417D01*
X1195667Y35160D01*
X1195958Y35267D01*
X1196208Y35427D01*
X1196375Y35587D01*
X1196500Y35800D01*
Y35987D01*
X1196417Y36200D01*
X1196250Y36360D01*
G01X1194000Y37387D02*
X1196500D01*
X1194000Y38613D01*
X1196500D01*
G01X1194000Y39613D02*
X1196500D01*
Y40147D01*
X1196375Y40360D01*
X1196208Y40520D01*
X1195958Y40653D01*
X1195667Y40760D01*
X1195250Y40787D01*
X1194833Y40760D01*
X1194542Y40653D01*
X1194292Y40520D01*
X1194125Y40360D01*
X1194000Y40147D01*
Y39613D01*
G01X1209750Y35960D02*
Y36493D01*
X1209000D01*
X1208750Y36333D01*
X1208583Y36147D01*
X1208500Y35880D01*
X1208583Y35613D01*
X1208750Y35427D01*
X1209000Y35267D01*
X1209292Y35160D01*
X1209625Y35107D01*
X1209917D01*
X1210167Y35160D01*
X1210458Y35267D01*
X1210708Y35427D01*
X1210875Y35587D01*
X1211000Y35800D01*
Y35987D01*
X1210917Y36200D01*
X1210750Y36360D01*
G01X1208500Y37387D02*
X1211000D01*
X1208500Y38613D01*
X1211000D01*
G01X1208500Y39613D02*
X1211000D01*
Y40147D01*
X1210875Y40360D01*
X1210708Y40520D01*
X1210458Y40653D01*
X1210167Y40760D01*
X1209750Y40787D01*
X1209333Y40760D01*
X1209042Y40653D01*
X1208792Y40520D01*
X1208625Y40360D01*
X1208500Y40147D01*
Y39613D01*
G01X1189750Y169460D02*
Y169993D01*
X1189000D01*
X1188750Y169833D01*
X1188583Y169647D01*
X1188500Y169380D01*
X1188583Y169113D01*
X1188750Y168927D01*
X1189000Y168767D01*
X1189292Y168660D01*
X1189625Y168607D01*
X1189917D01*
X1190167Y168660D01*
X1190458Y168767D01*
X1190708Y168927D01*
X1190875Y169087D01*
X1191000Y169300D01*
Y169487D01*
X1190917Y169700D01*
X1190750Y169860D01*
G01X1188500Y170887D02*
X1191000D01*
X1188500Y172113D01*
X1191000D01*
G01X1188500Y173113D02*
X1191000D01*
Y173647D01*
X1190875Y173860D01*
X1190708Y174020D01*
X1190458Y174153D01*
X1190167Y174260D01*
X1189750Y174287D01*
X1189333Y174260D01*
X1189042Y174153D01*
X1188792Y174020D01*
X1188625Y173860D01*
X1188500Y173647D01*
Y173113D01*
G01X1209750Y169460D02*
Y169993D01*
X1209000D01*
X1208750Y169833D01*
X1208583Y169647D01*
X1208500Y169380D01*
X1208583Y169113D01*
X1208750Y168927D01*
X1209000Y168767D01*
X1209292Y168660D01*
X1209625Y168607D01*
X1209917D01*
X1210167Y168660D01*
X1210458Y168767D01*
X1210708Y168927D01*
X1210875Y169087D01*
X1211000Y169300D01*
Y169487D01*
X1210917Y169700D01*
X1210750Y169860D01*
G01X1208500Y170887D02*
X1211000D01*
X1208500Y172113D01*
X1211000D01*
G01X1208500Y173113D02*
X1211000D01*
Y173647D01*
X1210875Y173860D01*
X1210708Y174020D01*
X1210458Y174153D01*
X1210167Y174260D01*
X1209750Y174287D01*
X1209333Y174260D01*
X1209042Y174153D01*
X1208792Y174020D01*
X1208625Y173860D01*
X1208500Y173647D01*
Y173113D01*
G01X1195250Y169460D02*
Y169993D01*
X1194500D01*
X1194250Y169833D01*
X1194083Y169647D01*
X1194000Y169380D01*
X1194083Y169113D01*
X1194250Y168927D01*
X1194500Y168767D01*
X1194792Y168660D01*
X1195125Y168607D01*
X1195417D01*
X1195667Y168660D01*
X1195958Y168767D01*
X1196208Y168927D01*
X1196375Y169087D01*
X1196500Y169300D01*
Y169487D01*
X1196417Y169700D01*
X1196250Y169860D01*
G01X1194000Y170887D02*
X1196500D01*
X1194000Y172113D01*
X1196500D01*
G01X1194000Y173113D02*
X1196500D01*
Y173647D01*
X1196375Y173860D01*
X1196208Y174020D01*
X1195958Y174153D01*
X1195667Y174260D01*
X1195250Y174287D01*
X1194833Y174260D01*
X1194542Y174153D01*
X1194292Y174020D01*
X1194125Y173860D01*
X1194000Y173647D01*
Y173113D01*
G01X1199750Y169460D02*
Y169993D01*
X1199000D01*
X1198750Y169833D01*
X1198583Y169647D01*
X1198500Y169380D01*
X1198583Y169113D01*
X1198750Y168927D01*
X1199000Y168767D01*
X1199292Y168660D01*
X1199625Y168607D01*
X1199917D01*
X1200167Y168660D01*
X1200458Y168767D01*
X1200708Y168927D01*
X1200875Y169087D01*
X1201000Y169300D01*
Y169487D01*
X1200917Y169700D01*
X1200750Y169860D01*
G01X1198500Y170887D02*
X1201000D01*
X1198500Y172113D01*
X1201000D01*
G01X1198500Y173113D02*
X1201000D01*
Y173647D01*
X1200875Y173860D01*
X1200708Y174020D01*
X1200458Y174153D01*
X1200167Y174260D01*
X1199750Y174287D01*
X1199333Y174260D01*
X1199042Y174153D01*
X1198792Y174020D01*
X1198625Y173860D01*
X1198500Y173647D01*
Y173113D01*
G01X1204750Y169460D02*
Y169993D01*
X1204000D01*
X1203750Y169833D01*
X1203583Y169647D01*
X1203500Y169380D01*
X1203583Y169113D01*
X1203750Y168927D01*
X1204000Y168767D01*
X1204292Y168660D01*
X1204625Y168607D01*
X1204917D01*
X1205167Y168660D01*
X1205458Y168767D01*
X1205708Y168927D01*
X1205875Y169087D01*
X1206000Y169300D01*
Y169487D01*
X1205917Y169700D01*
X1205750Y169860D01*
G01X1203500Y170887D02*
X1206000D01*
X1203500Y172113D01*
X1206000D01*
G01X1203500Y173113D02*
X1206000D01*
Y173647D01*
X1205875Y173860D01*
X1205708Y174020D01*
X1205458Y174153D01*
X1205167Y174260D01*
X1204750Y174287D01*
X1204333Y174260D01*
X1204042Y174153D01*
X1203792Y174020D01*
X1203625Y173860D01*
X1203500Y173647D01*
Y173113D01*
G01X1220750Y22860D02*
Y23393D01*
X1220000D01*
X1219750Y23233D01*
X1219583Y23047D01*
X1219500Y22780D01*
X1219583Y22513D01*
X1219750Y22327D01*
X1220000Y22167D01*
X1220292Y22060D01*
X1220625Y22007D01*
X1220917D01*
X1221167Y22060D01*
X1221458Y22167D01*
X1221708Y22327D01*
X1221875Y22487D01*
X1222000Y22700D01*
Y22887D01*
X1221917Y23100D01*
X1221750Y23260D01*
G01X1219500Y24287D02*
X1222000D01*
X1219500Y25513D01*
X1222000D01*
G01X1219500Y26513D02*
X1222000D01*
Y27047D01*
X1221875Y27260D01*
X1221708Y27420D01*
X1221458Y27553D01*
X1221167Y27660D01*
X1220750Y27687D01*
X1220333Y27660D01*
X1220042Y27553D01*
X1219792Y27420D01*
X1219625Y27260D01*
X1219500Y27047D01*
Y26513D01*
G01X1222000Y28633D02*
X1219500Y29300D01*
X1222000Y29967D01*
G01X1219500Y30993D02*
X1222000D01*
Y32007D01*
G01X1220792Y31633D02*
Y30993D01*
G01X1222000Y33113D02*
X1220208D01*
X1219833Y33220D01*
X1219583Y33433D01*
X1219500Y33700D01*
X1219583Y33967D01*
X1219833Y34180D01*
X1220208Y34287D01*
X1222000D01*
G01X1219833Y35340D02*
X1219625Y35553D01*
X1219500Y35793D01*
Y36007D01*
X1219625Y36220D01*
X1219833Y36380D01*
X1220125Y36460D01*
X1220417Y36407D01*
X1220667Y36273D01*
X1220833Y36033D01*
X1220917Y35713D01*
X1221083Y35527D01*
X1221375Y35447D01*
X1221667Y35500D01*
X1221875Y35633D01*
X1222000Y35820D01*
Y36007D01*
X1221917Y36193D01*
X1221708Y36353D01*
G01X1219500Y38633D02*
Y37567D01*
X1222000D01*
Y38633D01*
G01X1220792Y38207D02*
Y37567D01*
G01X1221583Y39793D02*
X1221833Y39953D01*
X1221958Y40140D01*
X1222000Y40353D01*
X1221917Y40620D01*
X1221708Y40807D01*
X1221458Y40860D01*
X1221208Y40833D01*
X1221000Y40727D01*
X1220583Y40193D01*
X1220292Y39953D01*
X1219875Y39793D01*
X1219500Y39740D01*
Y40860D01*
G01X1215250Y34960D02*
Y35493D01*
X1214500D01*
X1214250Y35333D01*
X1214083Y35147D01*
X1214000Y34880D01*
X1214083Y34613D01*
X1214250Y34427D01*
X1214500Y34267D01*
X1214792Y34160D01*
X1215125Y34107D01*
X1215417D01*
X1215667Y34160D01*
X1215958Y34267D01*
X1216208Y34427D01*
X1216375Y34587D01*
X1216500Y34800D01*
Y34987D01*
X1216417Y35200D01*
X1216250Y35360D01*
G01X1214000Y36387D02*
X1216500D01*
X1214000Y37613D01*
X1216500D01*
G01X1214000Y38613D02*
X1216500D01*
Y39147D01*
X1216375Y39360D01*
X1216208Y39520D01*
X1215958Y39653D01*
X1215667Y39760D01*
X1215250Y39787D01*
X1214833Y39760D01*
X1214542Y39653D01*
X1214292Y39520D01*
X1214125Y39360D01*
X1214000Y39147D01*
Y38613D01*
G01X1214750Y167960D02*
Y168493D01*
X1214000D01*
X1213750Y168333D01*
X1213583Y168147D01*
X1213500Y167880D01*
X1213583Y167613D01*
X1213750Y167427D01*
X1214000Y167267D01*
X1214292Y167160D01*
X1214625Y167107D01*
X1214917D01*
X1215167Y167160D01*
X1215458Y167267D01*
X1215708Y167427D01*
X1215875Y167587D01*
X1216000Y167800D01*
Y167987D01*
X1215917Y168200D01*
X1215750Y168360D01*
G01X1213500Y169387D02*
X1216000D01*
X1213500Y170613D01*
X1216000D01*
G01X1213500Y171613D02*
X1216000D01*
Y172147D01*
X1215875Y172360D01*
X1215708Y172520D01*
X1215458Y172653D01*
X1215167Y172760D01*
X1214750Y172787D01*
X1214333Y172760D01*
X1214042Y172653D01*
X1213792Y172520D01*
X1213625Y172360D01*
X1213500Y172147D01*
Y171613D01*
G01X1213417Y173920D02*
X1216000Y174880D01*
G01X1213500Y176040D02*
X1216000D01*
G01Y177160D02*
X1213500D01*
G01X1214750D02*
Y176040D01*
G01Y178960D02*
Y179493D01*
X1214000D01*
X1213750Y179333D01*
X1213583Y179147D01*
X1213500Y178880D01*
X1213583Y178613D01*
X1213750Y178427D01*
X1214000Y178267D01*
X1214292Y178160D01*
X1214625Y178107D01*
X1214917D01*
X1215167Y178160D01*
X1215458Y178267D01*
X1215708Y178427D01*
X1215875Y178587D01*
X1216000Y178800D01*
Y178987D01*
X1215917Y179200D01*
X1215750Y179360D01*
G01X1213500Y180387D02*
X1216000D01*
X1213500Y181613D01*
X1216000D01*
G01X1213500Y182613D02*
X1216000D01*
Y183147D01*
X1215875Y183360D01*
X1215708Y183520D01*
X1215458Y183653D01*
X1215167Y183760D01*
X1214750Y183787D01*
X1214333Y183760D01*
X1214042Y183653D01*
X1213792Y183520D01*
X1213625Y183360D01*
X1213500Y183147D01*
Y182613D01*
G54D23*
X99500Y207260D03*
Y214740D03*
G54D32*
X193500Y38500D03*
Y88000D03*
X194000Y148000D03*
X231500Y236500D03*
G54D41*
X264250Y144400D03*
X271750D03*
Y154600D03*
X268000D03*
X264250D03*
X334250Y152600D03*
X326750D03*
Y142400D03*
X330500D03*
X334250D03*
G54D14*
X23000Y351100D03*
Y363000D03*
X88500Y44500D03*
X85500Y168000D03*
X107000Y103000D03*
X124500Y229500D03*
X263500Y275000D03*
X277000D03*
X337000Y22000D03*
X496000Y95000D03*
X484500D03*
X481000Y116500D03*
X508000Y95000D03*
X714000Y320500D03*
Y403000D03*
X724000Y310500D03*
X734000D03*
X724000Y320500D03*
X734000D03*
X724000Y393000D03*
X734000D03*
X724000Y403000D03*
X734000D03*
X757000Y248400D03*
X744000Y310500D03*
X754000D03*
X744000Y320500D03*
X754000D03*
X744000Y393000D03*
X754000D03*
X744000Y403000D03*
X754000D03*
X769800Y248300D03*
X764000Y310500D03*
Y320500D03*
Y393000D03*
Y403000D03*
X837500Y320500D03*
Y403000D03*
X849500Y265000D03*
X859500Y255000D03*
Y265000D03*
X847500Y310500D03*
X857500D03*
X847500Y320500D03*
X857500D03*
X847500Y393000D03*
X857500D03*
X847500Y403000D03*
X857500D03*
X869500Y255000D03*
Y265000D03*
X879500Y255000D03*
Y265000D03*
X867500Y310500D03*
X877500D03*
X887500D03*
X867500Y320500D03*
X877500D03*
X887500D03*
X867500Y393000D03*
X877500D03*
X887500D03*
X867500Y403000D03*
X877500D03*
X887500D03*
X898000Y265000D03*
X908000Y255000D03*
Y265000D03*
X918000Y255000D03*
Y265000D03*
X928000Y255000D03*
Y265000D03*
X945000D03*
X937500Y308500D03*
X947500D03*
X937500Y328500D03*
X947500D03*
X937500Y318500D03*
X947500D03*
Y338500D03*
X939000Y370500D03*
X949000D03*
X939000Y390500D03*
X949000D03*
X939000Y380500D03*
X949000D03*
Y400500D03*
X955000Y255000D03*
Y265000D03*
X965000Y255000D03*
Y265000D03*
X1041000Y309000D03*
X1051000D03*
X1041000Y329000D03*
X1051000D03*
X1041000Y319000D03*
X1051000D03*
Y339000D03*
X1040000Y371500D03*
X1050000D03*
X1040000Y391500D03*
X1050000D03*
X1040000Y381500D03*
X1050000D03*
Y401500D03*
X1140000Y329500D03*
Y319500D03*
Y349500D03*
Y339500D03*
Y359500D03*
X1150000Y329500D03*
Y319500D03*
Y349500D03*
Y339500D03*
Y369500D03*
Y359500D03*
X1227900Y329200D03*
Y319200D03*
Y349200D03*
Y339200D03*
Y359200D03*
X1237900Y329200D03*
Y319200D03*
Y349200D03*
Y339200D03*
Y369200D03*
Y359200D03*
G54D42*
X385500Y77200D03*
X390500D03*
Y96800D03*
X385500D03*
X395500Y77200D03*
X400500D03*
Y96800D03*
X395500D03*
G54D15*
X35500Y28950D03*
X47500Y243050D03*
G54D24*
X102500Y231000D03*
X491700Y52900D03*
G54D33*
X197000Y225500D03*
X209000D03*
G54D34*
X208200Y20147D03*
Y26053D03*
X207700Y52647D03*
Y58553D03*
X208200Y69647D03*
Y75553D03*
X207700Y108053D03*
Y102147D03*
X208700Y129647D03*
Y135553D03*
X208200Y168053D03*
Y162147D03*
G54D25*
X141260Y108972D03*
X148740D03*
X145000Y118028D03*
X319760Y265472D03*
X323500Y274528D03*
X327240Y265472D03*
X432760Y115472D03*
X440240D03*
X436500Y124528D03*
G54D43*
X393900Y122170D03*
X398900D03*
X403900D03*
X408900D03*
Y143430D03*
X403900D03*
X398900D03*
X393900D03*
X413900Y122170D03*
X418900D03*
X423900D03*
Y143430D03*
X418900D03*
X413900D03*
G54D16*
X65000Y330500D03*
Y385500D03*
X85000Y330500D03*
Y325500D03*
X80000Y330500D03*
Y325500D03*
X75000Y330500D03*
Y325500D03*
X70000Y330500D03*
Y325500D03*
X85000Y385500D03*
Y380500D03*
X80000Y385500D03*
Y380500D03*
X75000Y385500D03*
Y380500D03*
X70000Y385500D03*
Y380500D03*
X110000Y330500D03*
Y325500D03*
X105000Y330500D03*
Y325500D03*
X100000Y330500D03*
Y325500D03*
X95000Y330500D03*
Y325500D03*
X90000Y330500D03*
Y325500D03*
X110000Y385500D03*
Y380500D03*
X105000Y385500D03*
Y380500D03*
X100000Y385500D03*
Y380500D03*
X95000Y385500D03*
Y380500D03*
X90000Y385500D03*
Y380500D03*
X130000Y330500D03*
Y325500D03*
X125000Y330500D03*
Y325500D03*
X120000Y330500D03*
Y325500D03*
X115000Y330500D03*
Y325500D03*
X130000Y385500D03*
Y380500D03*
X125000Y385500D03*
Y380500D03*
X120000Y385500D03*
Y380500D03*
X115000Y385500D03*
Y380500D03*
X150000Y330500D03*
Y325500D03*
X145000Y330500D03*
Y325500D03*
X140000Y330500D03*
Y325500D03*
X135000Y330500D03*
Y325500D03*
X150000Y385500D03*
Y380500D03*
X145000Y385500D03*
Y380500D03*
X140000Y385500D03*
Y380500D03*
X135000Y385500D03*
Y380500D03*
X175000Y330500D03*
Y325500D03*
X170000Y330500D03*
Y325500D03*
X165000Y330500D03*
Y325500D03*
X160000Y330500D03*
Y325500D03*
X155000Y330500D03*
Y325500D03*
X175000Y385500D03*
Y380500D03*
X170000Y385500D03*
Y380500D03*
X165000Y385500D03*
Y380500D03*
X160000Y385500D03*
Y380500D03*
X155000Y385500D03*
Y380500D03*
X185000Y330500D03*
Y325500D03*
X180000Y330500D03*
Y325500D03*
X185000Y385500D03*
Y380500D03*
X180000Y385500D03*
Y380500D03*
X260000Y330500D03*
Y325500D03*
X255000Y330500D03*
X260000Y385500D03*
Y380500D03*
X255000Y385500D03*
X280000Y330500D03*
Y325500D03*
X275000Y330500D03*
Y325500D03*
X270000Y330500D03*
Y325500D03*
X265000Y330500D03*
Y325500D03*
X280000Y385500D03*
Y380500D03*
X275000Y385500D03*
Y380500D03*
X270000Y385500D03*
Y380500D03*
X265000Y385500D03*
Y380500D03*
X302500Y43500D03*
X297500D03*
X302500Y48500D03*
X297500D03*
X302500Y53500D03*
X297500D03*
X302500Y58500D03*
X297500D03*
X302500Y63500D03*
X297500D03*
X302500Y68500D03*
X297500D03*
X302500Y73500D03*
X297500D03*
X302500Y78500D03*
X297500D03*
X302500Y83500D03*
X297500D03*
X302500Y88500D03*
X297500D03*
X302500Y93500D03*
X297500D03*
X302500Y98500D03*
X297500D03*
X302500Y103500D03*
X297500D03*
X302500Y108500D03*
X297500D03*
X302500Y113500D03*
X297500D03*
X302500Y118500D03*
X297500D03*
X302500Y123500D03*
X297500D03*
X302500Y128500D03*
X297500D03*
X302500Y133500D03*
X297500D03*
X302500Y138500D03*
X297500D03*
X302500Y143500D03*
X297500D03*
X302500Y148500D03*
X297500D03*
X302500Y153500D03*
X297500D03*
X302500Y158500D03*
X297500D03*
X302500Y163500D03*
X300000Y330500D03*
Y325500D03*
X295000Y330500D03*
Y325500D03*
X290000Y330500D03*
Y325500D03*
X285000Y330500D03*
Y325500D03*
X300000Y385500D03*
Y380500D03*
X295000Y385500D03*
Y380500D03*
X290000Y385500D03*
Y380500D03*
X285000Y385500D03*
Y380500D03*
X325000Y330500D03*
Y325500D03*
X320000Y330500D03*
Y325500D03*
X315000Y330500D03*
Y325500D03*
X310000Y330500D03*
Y325500D03*
X305000Y330500D03*
Y325500D03*
X325000Y385500D03*
Y380500D03*
X320000Y385500D03*
Y380500D03*
X315000Y385500D03*
Y380500D03*
X310000Y385500D03*
Y380500D03*
X305000Y385500D03*
Y380500D03*
X345000Y330500D03*
Y325500D03*
X340000Y330500D03*
Y325500D03*
X335000Y330500D03*
Y325500D03*
X330000Y330500D03*
Y325500D03*
X345000Y385500D03*
Y380500D03*
X340000Y385500D03*
Y380500D03*
X335000Y385500D03*
Y380500D03*
X330000Y385500D03*
Y380500D03*
X365000Y330500D03*
Y325500D03*
X360000Y330500D03*
Y325500D03*
X355000Y330500D03*
Y325500D03*
X350000Y330500D03*
Y325500D03*
X365000Y385500D03*
Y380500D03*
X360000Y385500D03*
Y380500D03*
X355000Y385500D03*
Y380500D03*
X350000Y385500D03*
Y380500D03*
X377500Y43500D03*
X372500D03*
X377500Y48500D03*
X372500D03*
X377500Y53500D03*
X372500D03*
X377500Y58500D03*
X372500D03*
X377500Y63500D03*
X372500D03*
X377500Y68500D03*
X372500D03*
X377500Y73500D03*
X372500D03*
X377500Y78500D03*
X372500D03*
X377500Y83500D03*
X372500D03*
X377500Y88500D03*
X372500D03*
X377500Y93500D03*
X372500D03*
X377500Y98500D03*
X372500D03*
X377500Y103500D03*
X372500D03*
X377500Y108500D03*
X372500D03*
X377500Y113500D03*
X372500D03*
X377500Y118500D03*
X372500D03*
X377500Y123500D03*
X372500D03*
X377500Y128500D03*
X372500D03*
X377500Y133500D03*
X372500D03*
X377500Y138500D03*
X372500D03*
X377500Y143500D03*
X372500D03*
X377500Y148500D03*
X372500D03*
X377500Y153500D03*
X372500D03*
X377500Y158500D03*
X372500D03*
X377500Y163500D03*
X375000Y330500D03*
Y325500D03*
X370000Y330500D03*
Y325500D03*
X375000Y385500D03*
Y380500D03*
X370000Y385500D03*
Y380500D03*
X407000Y88000D03*
X423000Y105500D03*
X452500Y43500D03*
X447500D03*
X452500Y48500D03*
X447500D03*
X452500Y53500D03*
X447500D03*
X452500Y58500D03*
X447500D03*
X452500Y63500D03*
X447500D03*
X452500Y68500D03*
X447500D03*
X452500Y73500D03*
X447500D03*
X452500Y78500D03*
X447500D03*
X452500Y83500D03*
X447500D03*
X452500Y88500D03*
X447500D03*
X452500Y93500D03*
X447500D03*
X452500Y98500D03*
X447500D03*
X452500Y103500D03*
X447500D03*
X452500Y108500D03*
X447500D03*
X452500Y113500D03*
X447500D03*
X452500Y118500D03*
X447500D03*
X452500Y123500D03*
X447500D03*
X452500Y128500D03*
X447500D03*
X452500Y133500D03*
X447500D03*
X452500Y138500D03*
X447500D03*
X452500Y143500D03*
X447500D03*
X452500Y148500D03*
X447500D03*
X452500Y153500D03*
X447500D03*
X452500Y158500D03*
X447500D03*
X452500Y163500D03*
X455000Y330500D03*
Y325500D03*
X450000Y330500D03*
Y325500D03*
X445000Y330500D03*
X455000Y385500D03*
Y380500D03*
X450000Y385500D03*
Y380500D03*
X445000Y385500D03*
X475000Y330500D03*
Y325500D03*
X470000Y330500D03*
Y325500D03*
X465000Y330500D03*
Y325500D03*
X460000Y330500D03*
Y325500D03*
X475000Y385500D03*
Y380500D03*
X470000Y385500D03*
Y380500D03*
X465000Y385500D03*
Y380500D03*
X460000Y385500D03*
Y380500D03*
X494500Y160500D03*
Y155500D03*
Y150500D03*
Y180500D03*
Y175500D03*
Y170500D03*
Y165500D03*
Y190500D03*
Y185500D03*
X495000Y330500D03*
Y325500D03*
X490000Y330500D03*
Y325500D03*
X485000Y330500D03*
Y325500D03*
X480000Y330500D03*
Y325500D03*
X495000Y385500D03*
Y380500D03*
X490000Y385500D03*
Y380500D03*
X485000Y385500D03*
Y380500D03*
X480000Y385500D03*
Y380500D03*
X499500Y160500D03*
Y155500D03*
Y150500D03*
Y145500D03*
Y180500D03*
Y175500D03*
Y170500D03*
Y165500D03*
Y190500D03*
Y185500D03*
X520000Y330500D03*
Y325500D03*
X515000Y330500D03*
Y325500D03*
X510000Y330500D03*
Y325500D03*
X505000Y330500D03*
Y325500D03*
X500000Y330500D03*
Y325500D03*
X520000Y385500D03*
Y380500D03*
X515000Y385500D03*
Y380500D03*
X510000Y385500D03*
Y380500D03*
X505000Y385500D03*
Y380500D03*
X500000Y385500D03*
Y380500D03*
X540000Y330500D03*
Y325500D03*
X535000Y330500D03*
Y325500D03*
X530000Y330500D03*
Y325500D03*
X525000Y330500D03*
Y325500D03*
X540000Y385500D03*
Y380500D03*
X535000Y385500D03*
Y380500D03*
X530000Y385500D03*
Y380500D03*
X525000Y385500D03*
Y380500D03*
X560000Y330500D03*
Y325500D03*
X555000Y330500D03*
Y325500D03*
X550000Y330500D03*
Y325500D03*
X545000Y330500D03*
Y325500D03*
X560000Y385500D03*
Y380500D03*
X555000Y385500D03*
Y380500D03*
X550000Y385500D03*
Y380500D03*
X545000Y385500D03*
Y380500D03*
X582500Y43500D03*
X577500D03*
X582500Y48500D03*
X577500D03*
X582500Y53500D03*
X577500D03*
X582500Y58500D03*
X577500D03*
X582500Y63500D03*
X577500D03*
X582500Y68500D03*
X577500D03*
X582500Y73500D03*
X577500D03*
X582500Y78500D03*
X577500D03*
X582500Y83500D03*
X577500D03*
X582500Y88500D03*
X577500D03*
X582500Y93500D03*
X577500D03*
X582500Y98500D03*
X577500D03*
X582500Y103500D03*
X577500D03*
X582500Y108500D03*
X577500D03*
X582500Y113500D03*
X577500D03*
X582500Y118500D03*
X577500D03*
X582500Y123500D03*
X577500D03*
X582500Y128500D03*
X577500D03*
X582500Y133500D03*
X577500D03*
X582500Y138500D03*
X577500D03*
X582500Y143500D03*
X577500D03*
X582500Y148500D03*
X577500D03*
X582500Y153500D03*
X577500D03*
X582500Y158500D03*
X577500D03*
X582500Y163500D03*
X565000Y330500D03*
Y325500D03*
Y385500D03*
Y380500D03*
X657500Y43500D03*
X652500D03*
X657500Y48500D03*
X652500D03*
X657500Y53500D03*
X652500D03*
X657500Y58500D03*
X652500D03*
X657500Y63500D03*
X652500D03*
X657500Y68500D03*
X652500D03*
X657500Y73500D03*
X652500D03*
X657500Y78500D03*
X652500D03*
X657500Y83500D03*
X652500D03*
X657500Y88500D03*
X652500D03*
X657500Y93500D03*
X652500D03*
X657500Y98500D03*
X652500D03*
X657500Y103500D03*
X652500D03*
X657500Y108500D03*
X652500D03*
X657500Y113500D03*
X652500D03*
X657500Y118500D03*
X652500D03*
X657500Y123500D03*
X652500D03*
X657500Y128500D03*
X652500D03*
X657500Y133500D03*
X652500D03*
X657500Y138500D03*
X652500D03*
X657500Y143500D03*
X652500D03*
X657500Y148500D03*
X652500D03*
X657500Y153500D03*
X652500D03*
X657500Y158500D03*
X652500D03*
X657500Y163500D03*
X732500Y43500D03*
X727500D03*
X732500Y48500D03*
X727500D03*
X732500Y53500D03*
X727500D03*
X732500Y58500D03*
X727500D03*
X732500Y63500D03*
X727500D03*
X732500Y68500D03*
X727500D03*
X732500Y73500D03*
X727500D03*
X732500Y78500D03*
X727500D03*
X732500Y83500D03*
X727500D03*
X732500Y88500D03*
X727500D03*
X732500Y93500D03*
X727500D03*
X732500Y98500D03*
X727500D03*
X732500Y103500D03*
X727500D03*
X732500Y108500D03*
X727500D03*
X732500Y113500D03*
X727500D03*
X732500Y118500D03*
X727500D03*
X732500Y123500D03*
X727500D03*
X732500Y128500D03*
X727500D03*
X732500Y133500D03*
X727500D03*
X732500Y138500D03*
X727500D03*
X732500Y143500D03*
X727500D03*
X732500Y148500D03*
X727500D03*
X732500Y153500D03*
X727500D03*
X732500Y158500D03*
X727500D03*
X732500Y163500D03*
X1054800Y45000D03*
Y50000D03*
X1049800Y45000D03*
Y50000D03*
X1054800Y158000D03*
X1049800D03*
X1054800Y163000D03*
X1049800D03*
X1079800Y45000D03*
Y50000D03*
X1074800Y45000D03*
Y50000D03*
X1069800Y45000D03*
Y50000D03*
X1064800Y45000D03*
Y50000D03*
X1059800Y45000D03*
Y50000D03*
X1079800Y158000D03*
X1074800D03*
X1069800D03*
X1064800D03*
X1059800D03*
X1079800Y163000D03*
X1074800D03*
X1069800D03*
X1064800D03*
X1059800D03*
X1099800Y45000D03*
Y50000D03*
X1094800Y45000D03*
Y50000D03*
X1089800Y45000D03*
Y50000D03*
X1084800Y45000D03*
Y50000D03*
X1099800Y158000D03*
X1094800D03*
X1089800D03*
X1084800D03*
X1099800Y163000D03*
X1094800D03*
X1089800D03*
X1084800D03*
X1119800Y45000D03*
Y50000D03*
X1114800Y45000D03*
Y50000D03*
X1109800Y45000D03*
Y50000D03*
X1104800Y45000D03*
Y50000D03*
X1119800Y158000D03*
X1114800D03*
X1109800D03*
X1104800D03*
X1119800Y163000D03*
X1114800D03*
X1109800D03*
X1104800D03*
X1144800Y45000D03*
Y50000D03*
X1139800Y45000D03*
Y50000D03*
X1134800Y45000D03*
Y50000D03*
X1129800Y45000D03*
Y50000D03*
X1124800Y45000D03*
Y50000D03*
X1144800Y158000D03*
X1139800D03*
X1134800D03*
X1129800D03*
X1124800D03*
X1144800Y163000D03*
X1139800D03*
X1134800D03*
X1129800D03*
X1124800D03*
X1164800Y45000D03*
Y50000D03*
X1159800Y45000D03*
Y50000D03*
X1154800Y45000D03*
Y50000D03*
X1149800Y45000D03*
Y50000D03*
X1164800Y158000D03*
X1159800D03*
X1154800D03*
X1149800D03*
X1164800Y163000D03*
X1159800D03*
X1154800D03*
X1149800D03*
X1184800Y45000D03*
Y50000D03*
X1179800Y45000D03*
Y50000D03*
X1174800Y45000D03*
Y50000D03*
X1169800Y45000D03*
Y50000D03*
X1184800Y158000D03*
X1179800D03*
X1174800D03*
X1169800D03*
X1184800Y163000D03*
X1179800D03*
X1174800D03*
X1169800D03*
X1209800Y45000D03*
Y50000D03*
X1204800Y45000D03*
Y50000D03*
X1199800Y45000D03*
Y50000D03*
X1194800Y45000D03*
Y50000D03*
X1189800Y45000D03*
Y50000D03*
X1209800Y158000D03*
X1204800D03*
X1199800D03*
X1194800D03*
X1189800D03*
X1209800Y163000D03*
X1204800D03*
X1199800D03*
X1194800D03*
X1189800D03*
X1219800Y45000D03*
Y50000D03*
X1214800Y45000D03*
Y50000D03*
X1219800Y158000D03*
X1214800D03*
X1219800Y163000D03*
X1214800D03*
G54D26*
X144291Y232500D03*
X155709D03*
X208709Y241000D03*
X197291D03*
X208709Y249500D03*
X197291D03*
G54D35*
X228500Y199000D03*
G54D17*
X65000Y325500D03*
Y380500D03*
X255000Y325500D03*
Y380500D03*
X297500Y163500D03*
X372500D03*
X447500D03*
X445000Y325500D03*
Y380500D03*
X494500Y145500D03*
X577500Y163500D03*
X652500D03*
X727500D03*
G54D44*
X436331Y14000D03*
X450110D03*
X477669D03*
X463890D03*
G54D18*
X85228Y202500D03*
X88772D03*
X89728Y241000D03*
X93272D03*
X130228Y104500D03*
X114772Y241000D03*
X111228D03*
X132728Y109000D03*
X136272D03*
X133772Y104500D03*
X180228Y49000D03*
X183772D03*
Y52500D03*
X180228D03*
X184272Y105000D03*
X180728D03*
Y101500D03*
X184272D03*
X182772Y166000D03*
X179228D03*
Y162000D03*
X182772D03*
X230228Y225500D03*
X233772D03*
X237272Y248000D03*
X233728D03*
X230228Y257500D03*
X233772D03*
X246272Y222000D03*
X242728D03*
X276228Y144000D03*
X279772D03*
X277228Y154500D03*
X280772D03*
X275272Y207000D03*
X271728D03*
X312772Y43000D03*
X309228D03*
X321272Y142500D03*
X317728D03*
X322272Y153000D03*
X318728D03*
X310728Y249500D03*
X314272D03*
X397772Y41500D03*
X394228D03*
X393728Y54000D03*
X397272D03*
X494328Y43200D03*
X488928Y69900D03*
X492472D03*
X496428D03*
X497872Y43200D03*
X499972Y69900D03*
X702228Y367000D03*
X705772D03*
X718272D03*
X714728D03*
X841772D03*
X838228D03*
X825728D03*
X829272D03*
X1026228Y234500D03*
X1029772D03*
X1039228Y235500D03*
X1042772D03*
X1078228D03*
X1065228Y234500D03*
X1068772D03*
X1081772Y235500D03*
G54D36*
X222400Y202000D03*
Y200000D03*
Y198000D03*
Y196000D03*
X234600D03*
Y198000D03*
Y200000D03*
Y202000D03*
G54D27*
X174594Y43000D03*
Y92500D03*
X181406Y43000D03*
Y92500D03*
X175094Y152500D03*
X181906D03*
X214406Y34500D03*
X207594D03*
X214406Y84000D03*
X207594D03*
X214906Y144000D03*
X208094D03*
X221594Y248000D03*
X228406D03*
X577406Y231500D03*
X570594D03*
X584594D03*
X591406D03*
X627406D03*
X620594D03*
X634594D03*
X641406D03*
X670594D03*
X677406D03*
X684594D03*
X691406D03*
X727406D03*
X720594D03*
X734594D03*
X741406D03*
X991594Y327500D03*
X993094Y389500D03*
X998406Y327500D03*
X999906Y389500D03*
X1025594Y239000D03*
X1032406D03*
Y245000D03*
X1025594D03*
X1049906D03*
X1043094D03*
X1064594Y239000D03*
X1071406D03*
Y245000D03*
X1064594D03*
X1088906D03*
X1082094D03*
X1100406Y328000D03*
X1093594D03*
X1099406Y390500D03*
X1092594D03*
X1112906Y231500D03*
X1106094D03*
X1120094D03*
X1143594Y232000D03*
X1126906Y231500D03*
X1150406Y232000D03*
X1157594D03*
X1164406D03*
X1187406D03*
X1180594D03*
X1194594D03*
X1201406D03*
X1225906D03*
X1219094D03*
X1233094D03*
X1239906D03*
G54D45*
X414500Y52330D03*
X417090Y43670D03*
X414500D03*
X411910D03*
Y52330D03*
X417090D03*
G54D28*
X157000Y116937D03*
Y109063D03*
X221500Y27937D03*
Y20063D03*
Y50563D03*
Y58437D03*
Y69563D03*
Y77437D03*
Y100063D03*
Y107937D03*
X222000Y137437D03*
Y129563D03*
Y160063D03*
Y167937D03*
X256000Y139563D03*
Y147437D03*
X342500Y149563D03*
Y157437D03*
X335500Y265563D03*
Y273437D03*
G54D19*
X86000Y220728D03*
Y224272D03*
Y240272D03*
Y236728D03*
X118500Y220728D03*
Y224272D03*
Y240272D03*
Y236728D03*
X183500Y25772D03*
Y22228D03*
X187000D03*
Y25772D03*
X185000Y72728D03*
X181500D03*
X185000Y76272D03*
X181500D03*
Y137772D03*
Y134228D03*
X178000D03*
Y137772D03*
X210500Y194228D03*
Y197772D03*
X239500Y59272D03*
Y55728D03*
X284500Y143772D03*
Y140228D03*
X302500Y206772D03*
Y203228D03*
X318000Y53728D03*
Y57272D03*
X315000Y153228D03*
Y156772D03*
X314000Y260272D03*
Y256728D03*
X406900Y49772D03*
Y46228D03*
X407000Y42772D03*
Y39228D03*
X393500Y49772D03*
Y46228D03*
X407000Y56772D03*
Y53228D03*
X492700Y62628D03*
Y66172D03*
X503700Y40628D03*
Y44172D03*
X504200Y65672D03*
Y62128D03*
X508200Y70628D03*
Y74172D03*
X570500Y239772D03*
Y236228D03*
X591000Y239772D03*
Y236228D03*
X620500Y239772D03*
Y236228D03*
X641000Y239772D03*
Y236228D03*
X670500Y239772D03*
Y236228D03*
X691000Y239772D03*
Y236228D03*
X720500Y239772D03*
Y236228D03*
X741000Y239772D03*
Y236228D03*
X1106000Y239772D03*
Y236228D03*
X1143500Y240272D03*
Y236728D03*
X1126500Y239772D03*
Y236228D03*
X1164000Y240272D03*
Y236728D03*
X1180500Y240272D03*
Y236728D03*
X1201000Y240272D03*
Y236728D03*
X1203600Y373928D03*
Y377472D03*
X1203500Y387672D03*
Y384128D03*
X1219000Y240272D03*
Y236728D03*
X1239500Y240272D03*
Y236728D03*
G54D37*
X225500Y192900D03*
X227500D03*
X229500D03*
X231500D03*
Y205100D03*
X229500D03*
X227500D03*
X225500D03*
G54D46*
X419700Y94000D03*
Y101600D03*
Y99100D03*
Y96500D03*
X437100Y94000D03*
Y96500D03*
Y99100D03*
Y101600D03*
G54D29*
X178700Y263450D03*
G54D38*
X247200Y74400D03*
Y71800D03*
Y69300D03*
Y66700D03*
Y64200D03*
Y61600D03*
Y59000D03*
Y56500D03*
Y53900D03*
Y82100D03*
Y79500D03*
Y77000D03*
X270800Y53900D03*
Y56500D03*
Y59000D03*
Y61600D03*
Y64200D03*
Y66700D03*
Y69300D03*
Y71800D03*
Y74400D03*
Y77000D03*
Y79500D03*
Y82100D03*
X330200Y74400D03*
Y71800D03*
Y69300D03*
Y66700D03*
Y64200D03*
Y61600D03*
Y59000D03*
Y56500D03*
Y53900D03*
Y82100D03*
Y79500D03*
Y77000D03*
X353800Y53900D03*
Y56500D03*
Y59000D03*
Y61600D03*
Y64200D03*
Y66700D03*
Y69300D03*
Y71800D03*
Y74400D03*
Y77000D03*
Y79500D03*
Y82100D03*
G54D47*
X714000Y310500D03*
Y393000D03*
X837500Y310500D03*
Y393000D03*
X849500Y255000D03*
X898000D03*
X945000D03*
X937500Y338500D03*
X939000Y400500D03*
X1041000Y339000D03*
X1040000Y401500D03*
X1140000Y369500D03*
X1227900Y369200D03*
G54D39*
X268839Y117126D03*
X266280D03*
X263720D03*
X261161D03*
Y107874D03*
X263720D03*
X266280D03*
X268839D03*
G54D48*
X820000Y45000D03*
Y50000D03*
X815000Y45000D03*
Y50000D03*
X820000Y158000D03*
X815000D03*
X820000Y163000D03*
X815000D03*
X840000Y45000D03*
Y50000D03*
X835000Y45000D03*
Y50000D03*
X830000Y45000D03*
Y50000D03*
X825000Y45000D03*
Y50000D03*
X840000Y158000D03*
X835000D03*
X830000D03*
X825000D03*
X840000Y163000D03*
X835000D03*
X830000D03*
X825000D03*
X865000Y45000D03*
Y50000D03*
X860000Y45000D03*
Y50000D03*
X855000Y45000D03*
Y50000D03*
X850000Y45000D03*
Y50000D03*
X845000Y45000D03*
Y50000D03*
X865000Y158000D03*
X860000D03*
X855000D03*
X850000D03*
X845000D03*
X865000Y163000D03*
X860000D03*
X855000D03*
X850000D03*
X845000D03*
X885000Y45000D03*
Y50000D03*
X880000Y45000D03*
Y50000D03*
X875000Y45000D03*
Y50000D03*
X870000Y45000D03*
Y50000D03*
X885000Y158000D03*
X880000D03*
X875000D03*
X870000D03*
X885000Y163000D03*
X880000D03*
X875000D03*
X870000D03*
X905000Y45000D03*
Y50000D03*
X900000Y45000D03*
Y50000D03*
X895000Y45000D03*
Y50000D03*
X890000Y45000D03*
Y50000D03*
X905000Y158000D03*
X900000D03*
X895000D03*
X890000D03*
X905000Y163000D03*
X900000D03*
X895000D03*
X890000D03*
X925000Y45000D03*
Y50000D03*
X920000Y45000D03*
Y50000D03*
X915000Y45000D03*
Y50000D03*
X910000Y45000D03*
Y50000D03*
X925000Y158000D03*
X920000D03*
X915000D03*
X910000D03*
X925000Y163000D03*
X920000D03*
X915000D03*
X910000D03*
X950000Y45000D03*
Y50000D03*
X945000Y45000D03*
Y50000D03*
X940000Y45000D03*
Y50000D03*
X935000Y45000D03*
Y50000D03*
X930000Y45000D03*
Y50000D03*
X950000Y158000D03*
X945000D03*
X940000D03*
X935000D03*
X930000D03*
X950000Y163000D03*
X945000D03*
X940000D03*
X935000D03*
X930000D03*
X970000Y45000D03*
Y50000D03*
X965000Y45000D03*
Y50000D03*
X960000Y45000D03*
Y50000D03*
X955000Y45000D03*
Y50000D03*
X970000Y158000D03*
X965000D03*
X960000D03*
X955000D03*
X970000Y163000D03*
X965000D03*
X960000D03*
X955000D03*
X985000Y45000D03*
Y50000D03*
X980000Y45000D03*
Y50000D03*
X975000Y45000D03*
Y50000D03*
X985000Y158000D03*
X980000D03*
X975000D03*
X985000Y163000D03*
X980000D03*
X975000D03*
X1005000Y328900D03*
Y323900D03*
Y318400D03*
X1006500Y380400D03*
Y385900D03*
Y390900D03*
X1108500Y318900D03*
Y324400D03*
Y329400D03*
X1107500Y381400D03*
Y386900D03*
Y391900D03*
G54D49*
X1162772Y346000D03*
X1162972Y412000D03*
X1171828Y342260D03*
Y349740D03*
X1172028Y408260D03*
Y415740D03*
M02*
