G04 ================== begin FILE IDENTIFICATION RECORD ==================*
G04 Layout Name:  //MAC/HOME/DESKTOP/SPB_DATA/CAPTURE/CIS_ATCS/allegro/ATCS_m2.brd*
G04 Film Name:    SIG2*
G04 File Format:  Gerber RS274X*
G04 File Origin:  Cadence Allegro 17.2-P019*
G04 Origin Date:  Thu May 10 13:25:58 2018*
G04 *
G04 Layer:  ETCH/SIG2*
G04 Layer:  PIN/SIG2*
G04 Layer:  VIA CLASS/SIG2*
G04 *
G04 Offset:    (0.00 0.00)*
G04 Mirror:    No*
G04 Mode:      Positive*
G04 Rotation:  0*
G04 FullContactRelief:  No*
G04 UndefLineWidth:     0.00*
G04 ================== end FILE IDENTIFICATION RECORD ====================*
%FSLAX55Y55*MOIN*%
%IR0*IPPOS*OFA0.00000B0.00000*MIA0B0*SFA1.00000B1.00000*%
%ADD20C,.03*%
%ADD17C,.04*%
%ADD14C,.022*%
%ADD15C,.06*%
%ADD13C,.025*%
%ADD11C,.026*%
%ADD10C,.035*%
%ADD16C,.036*%
%ADD18C,.055*%
%ADD12C,.2*%
%ADD19C,.116*%
%ADD21C,.01*%
%ADD22C,.02*%
%ADD23C,.012*%
%ADD24C,.016*%
%ADD25C,.004*%
%ADD26C,.005*%
G75*
%LPD*%
G75*
G54D10*
X23000Y38500D03*
Y43500D03*
Y48500D03*
Y53500D03*
Y58500D03*
Y63500D03*
Y68500D03*
Y73500D03*
Y78500D03*
Y83500D03*
Y88500D03*
Y93500D03*
Y98500D03*
Y103500D03*
Y108500D03*
Y113500D03*
Y118500D03*
Y123500D03*
Y128500D03*
Y133500D03*
Y138500D03*
Y143500D03*
Y148500D03*
Y153500D03*
Y158500D03*
Y163500D03*
Y168500D03*
Y173500D03*
Y178500D03*
Y183500D03*
Y188500D03*
Y193500D03*
Y198500D03*
Y203500D03*
Y208500D03*
Y213500D03*
Y218500D03*
Y223500D03*
Y228500D03*
Y233500D03*
X43000Y38500D03*
Y43500D03*
Y48500D03*
Y53500D03*
X28000Y38500D03*
Y43500D03*
Y48500D03*
Y53500D03*
X43000Y58500D03*
Y63500D03*
Y68500D03*
Y73500D03*
X28000Y58500D03*
Y63500D03*
Y68500D03*
Y73500D03*
X43000Y78500D03*
Y83500D03*
Y88500D03*
Y93500D03*
X28000Y78500D03*
Y83500D03*
Y88500D03*
Y93500D03*
X43000Y98500D03*
Y103500D03*
Y108500D03*
Y113500D03*
Y118500D03*
X28000Y98500D03*
Y103500D03*
Y108500D03*
Y113500D03*
Y118500D03*
X43000Y123500D03*
Y128500D03*
Y133500D03*
Y138500D03*
X28000Y123500D03*
Y128500D03*
Y133500D03*
Y138500D03*
X43000Y143500D03*
Y148500D03*
Y153500D03*
Y158500D03*
X28000Y143500D03*
Y148500D03*
Y153500D03*
Y158500D03*
X43000Y163500D03*
Y168500D03*
Y173500D03*
Y178500D03*
Y183500D03*
X28000Y163500D03*
Y168500D03*
Y173500D03*
Y178500D03*
Y183500D03*
X43000Y188500D03*
Y193500D03*
Y198500D03*
Y203500D03*
X28000Y188500D03*
Y193500D03*
Y198500D03*
Y203500D03*
X43000Y208500D03*
Y213500D03*
Y218500D03*
Y223500D03*
X28000Y208500D03*
Y213500D03*
Y218500D03*
Y223500D03*
X43000Y228500D03*
Y233500D03*
X28000Y228500D03*
Y233500D03*
X48000Y38500D03*
Y43500D03*
Y48500D03*
Y53500D03*
Y58500D03*
Y63500D03*
Y68500D03*
Y73500D03*
Y78500D03*
Y83500D03*
Y88500D03*
Y93500D03*
Y98500D03*
Y103500D03*
Y108500D03*
Y113500D03*
Y118500D03*
Y123500D03*
Y128500D03*
Y133500D03*
Y138500D03*
Y143500D03*
Y148500D03*
Y153500D03*
Y158500D03*
Y163500D03*
Y168500D03*
Y173500D03*
Y178500D03*
Y183500D03*
Y188500D03*
Y193500D03*
Y198500D03*
Y203500D03*
Y208500D03*
Y213500D03*
Y218500D03*
Y223500D03*
Y228500D03*
Y233500D03*
G54D11*
X21782Y286491D03*
X18282D03*
X14782D03*
X11282D03*
X7782D03*
X4282D03*
X42782D03*
X39282D03*
X35782D03*
X32282D03*
X28782D03*
X25282D03*
X62250Y66750D03*
X66499Y62501D03*
X66500Y138600D03*
X62000Y143000D03*
X63782Y286491D03*
X60282D03*
X56782D03*
X53282D03*
X49782D03*
X46282D03*
X79000Y221000D03*
X80999Y219001D03*
X74000Y214000D03*
X77500D03*
X85999Y206500D03*
X80000D03*
X82500Y247000D03*
X85000D03*
X88282Y286491D03*
X84782D03*
X81282D03*
X77782D03*
X74282D03*
X70782D03*
X67282D03*
X106094Y202594D03*
X90937Y206500D03*
X99800Y240500D03*
X98437Y251937D03*
X109282Y286491D03*
X105782D03*
X102282D03*
X98782D03*
X95282D03*
X91782D03*
X129378Y194378D03*
X129000Y188500D03*
X115500Y203500D03*
X119500D03*
X130500Y214000D03*
X127000D03*
X126500Y221500D03*
X124501Y219501D03*
X123000Y247000D03*
X120000D03*
X130282Y286491D03*
X126782D03*
X123282D03*
X119782D03*
X116282D03*
X112782D03*
X138469Y104500D03*
X152000Y118028D03*
X148500D03*
X136000Y194378D03*
X135000Y188500D03*
X138000Y232500D03*
X151282Y286491D03*
X147782D03*
X144282D03*
X140782D03*
X137282D03*
X133782D03*
X164000Y36000D03*
X167500D03*
Y41000D03*
Y90500D03*
X164000Y85500D03*
X167500D03*
X171000Y132500D03*
X164500Y118000D03*
X168000Y139500D03*
Y145500D03*
Y150500D03*
X163500Y232500D03*
X172282Y286491D03*
X168782D03*
X165282D03*
X161782D03*
X158282D03*
X154782D03*
X177000Y158500D03*
X193282Y286491D03*
X189782D03*
X186282D03*
X182782D03*
X179282D03*
X175782D03*
X216000Y227300D03*
X215209Y238000D03*
X197500Y232500D03*
X217782Y286491D03*
X214282D03*
X210782D03*
X207282D03*
X203782D03*
X200282D03*
X196782D03*
X221500Y35000D03*
Y42000D03*
Y84500D03*
Y91500D03*
X230500Y108000D03*
X236000D03*
X222000Y144500D03*
Y151500D03*
X227728Y217500D03*
X227500Y214000D03*
X230500D03*
X221500Y220500D03*
X220500Y232500D03*
X238782Y286491D03*
X235282D03*
X231782D03*
X228282D03*
X224782D03*
X221282D03*
X249500Y51000D03*
X249000Y42250D03*
X256000Y46500D03*
X261000D03*
X241125Y107875D03*
X258500Y118500D03*
X254000D03*
X244000Y146500D03*
Y141000D03*
X258500Y151796D03*
Y154896D03*
X244000Y192109D03*
Y197000D03*
X246000Y208000D03*
Y220500D03*
X257272Y217500D03*
X257500Y214000D03*
X254500D03*
X240500Y206500D03*
X259782Y286491D03*
X256282D03*
X252782D03*
X249282D03*
X245782D03*
X242282D03*
X271000Y43000D03*
X266364Y104000D03*
X263000D03*
X266750Y121250D03*
X261636Y121000D03*
X268000Y139563D03*
X263500D03*
X280000Y139500D03*
X263500Y167937D03*
X268000D03*
X280000Y168000D03*
X280782Y286491D03*
X277282D03*
X273782D03*
X270282D03*
X266782D03*
X263282D03*
X286000Y157000D03*
Y150400D03*
X289119Y154763D03*
X301782Y286491D03*
X298282D03*
X294782D03*
X291282D03*
X287782D03*
X284282D03*
X286673Y274000D03*
X320000Y16000D03*
Y46500D03*
Y50500D03*
X318500Y132500D03*
X312000D03*
X319500Y157500D03*
X309500Y147500D03*
X315000Y168000D03*
X316000Y172000D03*
X309282Y245610D03*
X319500Y260500D03*
X309000Y253500D03*
X322782Y286491D03*
X319282D03*
X315782D03*
X312282D03*
X308782D03*
X305282D03*
X308327Y274500D03*
X340000Y46500D03*
X345000D03*
X330136Y42000D03*
X342136Y94500D03*
X345500D03*
X330200Y84700D03*
X330500Y132563D03*
X337747D03*
Y157063D03*
X333000Y157000D03*
X341000Y145000D03*
X343818Y144652D03*
X344932Y170068D03*
X345000Y173500D03*
X333000Y246000D03*
X339500Y257500D03*
X347282Y286491D03*
X343782D03*
X340282D03*
X336782D03*
X333282D03*
X329782D03*
X326282D03*
X330500Y274528D03*
X327000D03*
X343000Y274500D03*
X353864Y51000D03*
Y42636D03*
X353800Y84300D03*
X368282Y286491D03*
X364782D03*
X361282D03*
X357782D03*
X354282D03*
X350782D03*
X366173Y274000D03*
X373500Y18500D03*
X388782Y245610D03*
X388500Y253500D03*
X389282Y286491D03*
X385782D03*
X382282D03*
X378782D03*
X375282D03*
X371782D03*
X372500Y278000D03*
X379500D03*
X387827Y274500D03*
X407000Y36000D03*
X398400Y66500D03*
X394400Y59500D03*
X400364Y89364D03*
X395636Y103500D03*
X408900Y116800D03*
X407400Y133500D03*
X408900Y154600D03*
Y151500D03*
X399000Y260500D03*
X410282Y286491D03*
X406782D03*
X403282D03*
X399782D03*
X396282D03*
X392782D03*
X417000Y12500D03*
X425500Y33500D03*
X414500Y39000D03*
X414400Y66500D03*
Y61500D03*
Y56000D03*
X429500Y65000D03*
X420900Y82800D03*
X424400D03*
X428900Y76300D03*
X416000Y106000D03*
X417500Y115500D03*
X416000Y137500D03*
X424500Y134000D03*
X428000Y143500D03*
X416500Y169500D03*
X412500Y246000D03*
X419000Y257500D03*
X431282Y286491D03*
X427782D03*
X424282D03*
X420782D03*
X417282D03*
X413782D03*
X437100Y90000D03*
X434500Y134000D03*
X438000Y173500D03*
X452282Y286491D03*
X448782D03*
X445282D03*
X441782D03*
X438282D03*
X434782D03*
X451500Y278000D03*
X445173Y274000D03*
X467782Y245610D03*
X467500Y253500D03*
X476782Y286491D03*
X473282D03*
X469782D03*
X466282D03*
X462782D03*
X459282D03*
X455782D03*
X458500Y278000D03*
X466827Y274500D03*
X491500Y246000D03*
Y250500D03*
X491937Y264000D03*
X478000Y260500D03*
X497782Y286491D03*
X494282D03*
X490782D03*
X487282D03*
X483782D03*
X480282D03*
X516569Y10005D03*
Y6505D03*
Y3005D03*
Y31005D03*
Y27505D03*
Y24005D03*
Y20505D03*
Y17005D03*
Y13505D03*
Y52005D03*
Y48505D03*
Y45005D03*
Y38005D03*
Y34505D03*
Y41505D03*
Y73005D03*
Y69505D03*
Y66005D03*
Y62505D03*
Y59005D03*
Y55505D03*
Y94005D03*
Y90505D03*
Y87005D03*
Y83505D03*
Y80005D03*
Y76505D03*
Y115005D03*
Y111505D03*
Y108005D03*
Y104505D03*
Y101005D03*
Y97505D03*
Y136005D03*
Y132505D03*
Y129005D03*
Y125505D03*
Y122005D03*
Y118505D03*
Y160505D03*
Y157005D03*
Y153505D03*
Y150005D03*
Y146505D03*
Y143005D03*
Y139505D03*
Y181505D03*
Y178005D03*
Y174505D03*
Y171005D03*
Y167505D03*
Y164005D03*
Y202505D03*
Y199005D03*
Y195505D03*
Y192005D03*
Y188505D03*
Y185005D03*
Y223505D03*
Y220005D03*
Y216505D03*
Y213005D03*
Y209505D03*
Y206005D03*
Y244505D03*
Y241005D03*
Y237505D03*
Y234005D03*
Y230505D03*
Y227005D03*
Y265505D03*
Y262005D03*
Y258505D03*
Y255005D03*
Y251505D03*
Y248005D03*
X516500Y283000D03*
X516569Y279505D03*
Y276005D03*
Y272505D03*
Y269005D03*
X518782Y286491D03*
X515282D03*
X511782D03*
X508282D03*
X504782D03*
X501282D03*
X539782D03*
X536282D03*
X532782D03*
X529282D03*
X525782D03*
X522282D03*
X560782D03*
X557282D03*
X553782D03*
X550282D03*
X546782D03*
X543282D03*
X581000Y231000D03*
X580750Y240750D03*
X580500Y257000D03*
X584500Y261000D03*
X581782Y286491D03*
X578282D03*
X574782D03*
X571282D03*
X567782D03*
X564282D03*
X602782D03*
X599282D03*
X595782D03*
X592282D03*
X588782D03*
X585282D03*
X627282D03*
X623782D03*
X620282D03*
X616782D03*
X613282D03*
X609782D03*
X606282D03*
X644000Y4000D03*
X647500Y24000D03*
X641500Y169000D03*
X630750Y240750D03*
X631000Y231000D03*
X630500Y257000D03*
X634500Y261000D03*
X648282Y286491D03*
X644782D03*
X641282D03*
X637782D03*
X634282D03*
X630782D03*
X669282D03*
X665782D03*
X662282D03*
X658782D03*
X655282D03*
X651782D03*
X667632Y311595D03*
Y308095D03*
Y304595D03*
Y301095D03*
Y297595D03*
Y294095D03*
Y290595D03*
Y332595D03*
Y329095D03*
Y325595D03*
Y322095D03*
Y318595D03*
Y315095D03*
Y353595D03*
Y350095D03*
Y346595D03*
Y343095D03*
Y339595D03*
Y336095D03*
Y374595D03*
Y371095D03*
Y367595D03*
Y364095D03*
Y360595D03*
Y357095D03*
Y395595D03*
Y392095D03*
Y388595D03*
Y385095D03*
Y381595D03*
Y378095D03*
Y416595D03*
Y413095D03*
Y409595D03*
Y406095D03*
Y402595D03*
Y399095D03*
X681000Y231000D03*
X680750Y240750D03*
X680500Y257000D03*
X684500Y261000D03*
X690282Y286491D03*
X686782D03*
X683282D03*
X679782D03*
X676282D03*
X672782D03*
X686000Y340500D03*
X691063Y345937D03*
X690500Y373500D03*
X696000Y14250D03*
X708000Y32000D03*
X711500Y48500D03*
X696000Y108500D03*
X711282Y286491D03*
X707782D03*
X704282D03*
X700782D03*
X697282D03*
X693782D03*
X705500Y281500D03*
X714000Y340500D03*
X708000D03*
X704000D03*
X693000Y373500D03*
X706437Y380937D03*
X715500Y36500D03*
X716500Y180000D03*
Y214000D03*
X731000Y231000D03*
X730750Y240750D03*
X730500Y257000D03*
X734500Y261000D03*
X732282Y286491D03*
X728782D03*
X725282D03*
X721782D03*
X718282D03*
X714782D03*
X735000Y340500D03*
X730437Y345437D03*
X728000Y373500D03*
X731000D03*
X714563Y380937D03*
X749500Y40500D03*
X754000Y145000D03*
Y179000D03*
X756782Y286491D03*
X753282D03*
X749782D03*
X746282D03*
X742782D03*
X739282D03*
X735782D03*
X738728Y343500D03*
X738500Y340000D03*
X741500D03*
X754937Y345500D03*
X775400Y6600D03*
X778000Y30000D03*
X759000Y14250D03*
X766760Y32740D03*
X772000Y38500D03*
X767500Y67000D03*
X772000Y91000D03*
X778000Y97000D03*
X777782Y286491D03*
X774282D03*
X770782D03*
X767282D03*
X763782D03*
X760282D03*
X762228Y343500D03*
X762000Y340000D03*
X765000D03*
X778437Y346000D03*
Y334063D03*
X780000Y21000D03*
X788500Y49000D03*
X793000Y102000D03*
X785000Y139000D03*
X783500Y149500D03*
X793000Y163500D03*
X782500Y183000D03*
X798782Y286491D03*
X795282D03*
X791782D03*
X788282D03*
X784782D03*
X781282D03*
X815000Y73740D03*
X819782Y286491D03*
X816282D03*
X812782D03*
X809282D03*
X805782D03*
X802282D03*
X802132Y291595D03*
Y295095D03*
Y298595D03*
Y302095D03*
Y305595D03*
Y309095D03*
Y316095D03*
Y319595D03*
Y323095D03*
Y326595D03*
Y330095D03*
Y312595D03*
Y337095D03*
Y340595D03*
Y344095D03*
Y347595D03*
Y351095D03*
Y354595D03*
Y333595D03*
X809500Y339000D03*
X814563Y344437D03*
X802132Y358095D03*
Y361595D03*
Y365095D03*
Y368595D03*
Y372095D03*
Y375595D03*
X814000Y372000D03*
X816500D03*
X802132Y379095D03*
Y382595D03*
Y386095D03*
Y389595D03*
Y393095D03*
Y396595D03*
Y400095D03*
Y403595D03*
Y407095D03*
Y410595D03*
Y414095D03*
Y417595D03*
X839500Y84000D03*
X833500Y97000D03*
X837500Y102000D03*
X822453Y128453D03*
X840782Y286491D03*
X837282D03*
X833782D03*
X830282D03*
X826782D03*
X823282D03*
X831500Y339000D03*
X827500D03*
X837500D03*
X838063Y379437D03*
X829937D03*
X850000Y91000D03*
X844500Y122500D03*
X861782Y286491D03*
X858282D03*
X854782D03*
X851282D03*
X847782D03*
X844282D03*
X853937Y343937D03*
X858500Y339000D03*
X865000Y338500D03*
X862000D03*
X862228Y342000D03*
X854500Y372000D03*
X851500D03*
X886282Y286491D03*
X882782D03*
X879282D03*
X875782D03*
X872282D03*
X868782D03*
X865282D03*
X885500Y338500D03*
X885728Y342000D03*
X878437Y344000D03*
X907282Y286491D03*
X903782D03*
X900282D03*
X896782D03*
X893282D03*
X889782D03*
X901937Y332563D03*
X888500Y338500D03*
X901937Y344500D03*
X928282Y286491D03*
X924782D03*
X921282D03*
X917782D03*
X914282D03*
X910782D03*
X921132Y290595D03*
Y294095D03*
Y297595D03*
Y301095D03*
Y304595D03*
Y308095D03*
Y311595D03*
Y315095D03*
Y318595D03*
Y322095D03*
Y325595D03*
Y329095D03*
Y332595D03*
Y336095D03*
Y339595D03*
Y343095D03*
Y346595D03*
Y350095D03*
Y353595D03*
X924782Y356991D03*
X928282D03*
X921132Y357095D03*
Y360595D03*
Y364095D03*
Y367595D03*
Y371095D03*
Y374595D03*
Y378095D03*
Y381595D03*
Y385095D03*
Y388595D03*
Y392095D03*
Y395595D03*
Y399095D03*
Y402595D03*
Y406095D03*
Y409595D03*
Y413095D03*
Y416595D03*
X940228Y89772D03*
X947500Y93500D03*
X944500Y139000D03*
Y146000D03*
X949282Y286491D03*
X945782D03*
X942282D03*
X938782D03*
X935282D03*
X931782D03*
X945782Y356991D03*
X949282D03*
X931782D03*
X935282D03*
X938782D03*
X942282D03*
X963000Y93500D03*
X970282Y286491D03*
X966782D03*
X963282D03*
X959782D03*
X956282D03*
X952782D03*
X966782Y356991D03*
X970282D03*
X952782D03*
X956282D03*
X959782D03*
X963282D03*
X971200Y387100D03*
Y384000D03*
X991282Y286491D03*
X987782D03*
X984282D03*
X980782D03*
X977282D03*
X973782D03*
X978500Y313000D03*
X987782Y356991D03*
X991282D03*
X973782D03*
X977282D03*
X980782D03*
X984282D03*
X982500Y376300D03*
X986500Y377000D03*
X1015782Y286491D03*
X1012282D03*
X1008782D03*
X1005282D03*
X1001782D03*
X998282D03*
X994782D03*
X1008782Y356991D03*
X1012282D03*
X1015782D03*
X994782D03*
X998282D03*
X1001782D03*
X1005282D03*
X1018569Y2005D03*
Y5505D03*
Y9005D03*
Y12505D03*
Y16005D03*
Y19505D03*
Y23005D03*
Y26505D03*
Y30005D03*
Y33505D03*
Y37005D03*
Y40505D03*
Y44005D03*
Y47505D03*
Y51005D03*
Y54505D03*
Y58005D03*
Y61505D03*
Y65005D03*
Y68505D03*
Y72005D03*
Y75505D03*
Y79005D03*
Y82505D03*
Y86005D03*
Y89505D03*
Y93005D03*
Y117505D03*
Y96505D03*
Y100005D03*
Y103505D03*
Y107005D03*
Y110505D03*
Y114005D03*
Y138505D03*
Y121005D03*
Y124505D03*
Y128005D03*
Y131505D03*
Y135005D03*
Y142005D03*
Y145505D03*
Y149005D03*
Y152505D03*
Y156005D03*
Y159505D03*
Y163005D03*
Y166505D03*
Y170005D03*
Y173505D03*
Y177005D03*
Y180505D03*
Y184005D03*
Y187505D03*
Y191005D03*
Y194505D03*
Y198005D03*
Y201505D03*
Y205005D03*
Y208505D03*
Y212005D03*
Y215505D03*
Y219005D03*
Y222505D03*
X1029282Y211991D03*
X1032782D03*
X1036282D03*
X1022282D03*
X1025782D03*
X1018569Y247005D03*
Y226005D03*
Y229505D03*
Y233005D03*
Y236505D03*
Y240005D03*
Y243505D03*
X1022500Y234000D03*
X1018569Y268005D03*
Y250505D03*
Y254005D03*
Y257505D03*
Y261005D03*
Y264505D03*
Y271505D03*
Y275005D03*
Y278505D03*
X1018500Y282000D03*
X1036782Y286491D03*
X1033282D03*
X1029782D03*
X1026282D03*
X1022782D03*
X1019282D03*
X1026132Y290595D03*
Y294095D03*
Y297595D03*
Y301095D03*
Y304595D03*
Y308095D03*
Y311595D03*
Y315095D03*
Y318595D03*
Y322095D03*
Y325595D03*
Y329095D03*
Y332595D03*
Y336095D03*
Y339595D03*
Y343095D03*
Y346595D03*
Y350095D03*
Y353595D03*
X1033282Y356991D03*
X1036782D03*
X1019282D03*
X1022782D03*
X1029782D03*
X1026132Y357095D03*
Y360595D03*
Y364095D03*
Y367595D03*
Y371095D03*
Y374595D03*
Y378095D03*
Y381595D03*
Y385095D03*
Y388595D03*
Y392095D03*
Y395595D03*
Y399095D03*
Y402595D03*
Y406095D03*
Y409595D03*
Y413095D03*
Y416595D03*
X1058069Y222505D03*
Y219005D03*
X1043282Y211991D03*
X1046782D03*
X1050282D03*
X1053782D03*
X1057282D03*
X1039782D03*
X1058069Y243505D03*
Y240005D03*
Y236505D03*
Y233005D03*
Y229505D03*
Y226005D03*
Y247005D03*
X1038000Y244972D03*
X1058069Y264505D03*
Y261005D03*
Y257505D03*
Y254005D03*
Y250505D03*
Y268005D03*
X1058000Y282000D03*
X1058069Y278505D03*
Y275005D03*
Y271505D03*
X1057782Y286491D03*
X1054282D03*
X1050782D03*
X1047282D03*
X1043782D03*
X1040282D03*
X1054282Y356991D03*
X1057782D03*
X1040282D03*
X1043782D03*
X1047282D03*
X1050782D03*
X1065802Y65500D03*
X1066863Y77100D03*
X1066606Y80506D03*
X1069700Y80800D03*
X1070798Y93300D03*
X1064282Y211991D03*
X1067782D03*
X1071282D03*
X1074782D03*
X1078282D03*
X1060782D03*
X1077000Y244972D03*
X1061500Y234000D03*
X1078782Y286491D03*
X1075282D03*
X1071782D03*
X1068282D03*
X1064782D03*
X1061282D03*
X1075282Y356991D03*
X1078782D03*
X1061282D03*
X1064782D03*
X1068282D03*
X1071782D03*
X1078200Y383500D03*
Y386600D03*
X1093798Y74500D03*
X1097096Y68000D03*
X1100300D03*
X1097069Y222505D03*
Y219005D03*
X1085282Y211991D03*
X1088782D03*
X1092282D03*
X1095782D03*
X1099282D03*
X1081782D03*
X1097069Y243505D03*
Y240005D03*
Y236505D03*
Y233005D03*
Y229505D03*
Y226005D03*
Y247005D03*
Y264505D03*
Y261005D03*
Y257505D03*
Y254005D03*
Y250505D03*
Y268005D03*
X1097000Y282000D03*
X1097069Y278505D03*
Y275005D03*
Y271505D03*
X1099782Y286491D03*
X1096282D03*
X1092782D03*
X1089282D03*
X1085782D03*
X1082282D03*
X1086500Y311500D03*
X1096282Y356991D03*
X1099782D03*
X1082282D03*
X1085782D03*
X1089282D03*
X1092782D03*
X1093500Y376500D03*
X1089500Y375800D03*
X1106282Y211991D03*
X1109782D03*
X1113282D03*
X1116782D03*
X1120282D03*
X1123782D03*
X1102782D03*
X1117000Y231500D03*
X1116750Y241250D03*
X1120500Y261500D03*
X1116500Y257500D03*
X1120782Y286491D03*
X1117282D03*
X1113782D03*
X1110282D03*
X1106782D03*
X1103282D03*
X1117282Y356991D03*
X1120782D03*
X1103282D03*
X1106782D03*
X1110282D03*
X1113782D03*
X1135069Y222505D03*
Y219005D03*
X1127282Y211991D03*
X1130782D03*
X1134282D03*
X1137782D03*
X1141282D03*
X1144782D03*
X1135069Y243505D03*
Y240005D03*
Y236505D03*
Y233005D03*
Y229505D03*
Y226005D03*
Y247005D03*
Y264505D03*
Y261005D03*
Y257505D03*
Y254005D03*
Y250505D03*
Y268005D03*
X1135000Y282000D03*
X1135069Y278505D03*
Y275005D03*
Y271505D03*
X1145282Y286491D03*
X1141782D03*
X1138282D03*
X1134782D03*
X1131282D03*
X1127782D03*
X1124282D03*
X1131132Y290595D03*
Y294095D03*
Y297595D03*
Y301095D03*
Y304595D03*
Y308095D03*
Y311595D03*
Y315095D03*
Y318595D03*
Y322095D03*
Y325595D03*
Y329095D03*
Y332595D03*
Y336095D03*
Y339595D03*
Y343095D03*
Y346595D03*
Y350095D03*
Y353595D03*
X1124282Y356991D03*
X1127782D03*
X1131132Y357095D03*
Y360595D03*
Y364095D03*
Y367595D03*
Y371095D03*
Y374595D03*
Y378095D03*
Y381595D03*
Y385095D03*
Y388595D03*
Y392095D03*
Y395595D03*
Y399095D03*
Y402595D03*
Y406095D03*
Y409595D03*
Y413095D03*
Y416595D03*
X1151782Y211991D03*
X1155282D03*
X1158782D03*
X1162282D03*
X1165782D03*
X1148282D03*
X1154000Y231500D03*
X1153750Y241250D03*
X1157500Y261500D03*
X1153500Y257500D03*
X1166282Y286491D03*
X1162782D03*
X1159282D03*
X1155782D03*
X1152282D03*
X1148782D03*
X1172069Y222505D03*
Y219005D03*
X1172782Y211991D03*
X1176282D03*
X1179782D03*
X1183282D03*
X1186782D03*
X1169282D03*
X1172069Y243505D03*
Y240005D03*
Y236505D03*
Y233005D03*
Y229505D03*
Y226005D03*
Y247005D03*
Y264505D03*
Y261005D03*
Y257505D03*
Y254005D03*
Y250505D03*
Y268005D03*
X1172000Y282000D03*
X1172069Y278505D03*
Y275005D03*
Y271505D03*
X1187282Y286491D03*
X1183782D03*
X1180282D03*
X1176782D03*
X1173282D03*
X1169782D03*
X1197737Y129000D03*
X1198798Y142000D03*
X1198800Y145500D03*
X1193782Y211991D03*
X1197282D03*
X1200782D03*
X1204282D03*
X1207782D03*
X1190282D03*
X1191000Y231500D03*
X1190750Y241250D03*
X1194500Y261500D03*
X1190500Y257500D03*
X1208282Y286491D03*
X1204782D03*
X1201282D03*
X1197782D03*
X1194282D03*
X1190782D03*
X1210569Y222505D03*
Y219005D03*
X1214782Y211991D03*
X1218282D03*
X1221782D03*
X1225282D03*
X1228782D03*
X1211282D03*
X1210569Y243505D03*
Y240005D03*
Y236505D03*
Y233005D03*
Y229505D03*
Y226005D03*
Y247005D03*
X1229500Y231500D03*
X1229250Y241250D03*
X1210569Y264505D03*
Y261005D03*
Y257505D03*
Y254005D03*
Y250505D03*
Y268005D03*
X1229000Y257500D03*
X1210500Y282000D03*
X1210569Y278505D03*
Y275005D03*
Y271505D03*
X1229282Y286491D03*
X1225782D03*
X1222282D03*
X1218782D03*
X1215282D03*
X1211782D03*
X1235782Y211991D03*
X1239282D03*
X1242782D03*
X1246282D03*
X1232282D03*
X1233000Y261500D03*
X1243282Y286491D03*
X1239782D03*
X1236282D03*
X1232782D03*
G54D20*
G01X425500Y33500D02*
X483000D01*
X489500Y40000D01*
G01X447500Y68500D02*
X452500D01*
G01X502500Y52500D02*
X475500D01*
X459500Y68500D01*
X452500D01*
X820000Y45000D03*
Y50000D03*
X815000Y45000D03*
Y50000D03*
X820000Y158000D03*
X815000D03*
X820000Y163000D03*
X815000D03*
X840000Y45000D03*
Y50000D03*
X835000Y45000D03*
Y50000D03*
X830000Y45000D03*
Y50000D03*
X825000Y45000D03*
Y50000D03*
X840000Y158000D03*
X835000D03*
X830000D03*
X825000D03*
X840000Y163000D03*
X835000D03*
X830000D03*
X825000D03*
X865000Y45000D03*
Y50000D03*
X860000Y45000D03*
Y50000D03*
X855000Y45000D03*
Y50000D03*
X850000Y45000D03*
Y50000D03*
X845000Y45000D03*
Y50000D03*
X865000Y158000D03*
X860000D03*
X855000D03*
X850000D03*
X845000D03*
X865000Y163000D03*
X860000D03*
X855000D03*
X850000D03*
X845000D03*
X885000Y45000D03*
Y50000D03*
X880000Y45000D03*
Y50000D03*
X875000Y45000D03*
Y50000D03*
X870000Y45000D03*
Y50000D03*
X885000Y158000D03*
X880000D03*
X875000D03*
X870000D03*
X885000Y163000D03*
X880000D03*
X875000D03*
X870000D03*
X905000Y45000D03*
Y50000D03*
X900000Y45000D03*
Y50000D03*
X895000Y45000D03*
Y50000D03*
X890000Y45000D03*
Y50000D03*
X905000Y158000D03*
X900000D03*
X895000D03*
X890000D03*
X905000Y163000D03*
X900000D03*
X895000D03*
X890000D03*
X925000Y45000D03*
Y50000D03*
X920000Y45000D03*
Y50000D03*
X915000Y45000D03*
Y50000D03*
X910000Y45000D03*
Y50000D03*
X925000Y158000D03*
X920000D03*
X915000D03*
X910000D03*
X925000Y163000D03*
X920000D03*
X915000D03*
X910000D03*
X950000Y45000D03*
Y50000D03*
X945000Y45000D03*
Y50000D03*
X940000Y45000D03*
Y50000D03*
X935000Y45000D03*
Y50000D03*
X930000Y45000D03*
Y50000D03*
X950000Y158000D03*
X945000D03*
X940000D03*
X935000D03*
X930000D03*
X950000Y163000D03*
X945000D03*
X940000D03*
X935000D03*
X930000D03*
X970000Y45000D03*
Y50000D03*
X965000Y45000D03*
Y50000D03*
X960000Y45000D03*
Y50000D03*
X955000Y45000D03*
Y50000D03*
X970000Y158000D03*
X965000D03*
X960000D03*
X955000D03*
X970000Y163000D03*
X965000D03*
X960000D03*
X955000D03*
X985000Y45000D03*
Y50000D03*
X980000Y45000D03*
Y50000D03*
X975000Y45000D03*
Y50000D03*
X985000Y158000D03*
X980000D03*
X975000D03*
X985000Y163000D03*
X980000D03*
X975000D03*
X999500Y326400D03*
Y321400D03*
Y315900D03*
X1001500Y380400D03*
Y385900D03*
Y390900D03*
X1107500Y314400D03*
Y319900D03*
Y324900D03*
X1108500Y379900D03*
Y385400D03*
Y390400D03*
G54D21*
G01X90937Y206500D02*
X91437Y206000D01*
X96000D01*
X103500Y213500D01*
X116000D01*
X118529Y210971D01*
X229559D01*
G01X289500Y172000D02*
X258552D01*
X257752Y171200D01*
X253631D01*
X252831Y172000D01*
X129000D01*
G01X289500D02*
X309500D01*
G01X636500Y24000D02*
Y23000D01*
X639500Y20000D01*
X679499D01*
X681499Y18000D01*
X784000D01*
X802000Y36000D01*
X975500D01*
X977400Y37900D01*
Y74100D01*
X975500Y76000D01*
G54D12*
X20000Y305000D03*
Y405000D03*
X43400Y12000D03*
Y260000D03*
X220700Y355200D03*
X325000Y116000D03*
X410300Y355000D03*
X501500Y11811D03*
Y116000D03*
Y273500D03*
X536000Y11811D03*
Y196189D03*
X605000Y116000D03*
X650000Y305000D03*
Y405000D03*
X815000Y11811D03*
Y196189D03*
X985000Y11811D03*
Y196189D03*
X1049800Y11811D03*
Y196189D03*
X1219800Y11811D03*
Y196189D03*
G54D22*
G01X226000Y120000D02*
X222000D01*
G01X226000D02*
X249000D01*
X250500Y118500D01*
X254000D01*
G01D02*
X258500D01*
G01X978500Y313000D02*
Y316500D01*
X979500Y317500D01*
G01X1086500Y311500D02*
Y315000D01*
X1087500Y316000D01*
G54D13*
X43400Y12000D03*
X35500Y28950D03*
X43400Y260000D03*
X47500Y243050D03*
G54D23*
G01X355500Y161000D02*
X312530D01*
X306530Y167000D01*
X293000D01*
X287000Y161000D01*
X242000D01*
X240000Y159000D01*
X233500D01*
X231000Y161500D01*
X172500D01*
G01X361000Y163500D02*
X314500D01*
X308500Y169500D01*
X287500D01*
X283000Y165000D01*
X262759D01*
X258922Y168837D01*
X228663D01*
X228500Y169000D01*
G01X311000Y16500D02*
X314500Y13000D01*
X337000D01*
X339500Y15500D01*
X365500D01*
X368500Y18500D01*
X373500D01*
G01X626500Y366610D02*
X573890D01*
X560000Y380500D01*
G01X785000Y139000D02*
X819500D01*
X822000Y136500D01*
X942000D01*
X944500Y139000D01*
G54D14*
X39000Y81000D03*
X38770Y105577D03*
X34000Y114500D03*
X33000Y189000D03*
X38500Y239000D03*
X34000Y230500D03*
X37000Y236000D03*
X59500Y22500D03*
X54000Y27000D03*
X66000Y27500D03*
X59676Y18500D03*
X60000Y14500D03*
X62049Y60451D03*
X52500Y96000D03*
X52220Y134280D03*
X58500Y120500D03*
X62000Y131500D03*
X53500Y147500D03*
X57500Y156000D03*
X53500Y193500D03*
X54000Y229000D03*
X57500Y234500D03*
X56000Y247500D03*
X65500Y271000D03*
X69000Y4500D03*
X71000Y11500D03*
X72500Y27500D03*
X71000Y64000D03*
X80610Y60110D03*
X67016Y66016D03*
X76079Y62079D03*
X86500Y74000D03*
X71350Y113150D03*
X80500Y104500D03*
X71000Y143547D03*
X80390Y148890D03*
Y139610D03*
X76079Y141579D03*
Y158921D03*
X83000Y178350D03*
X67016Y189016D03*
X82577Y201000D03*
X67500Y208500D03*
X83500Y232000D03*
X72000Y264000D03*
X69000Y267500D03*
X76000Y262000D03*
X106500Y66500D03*
X109579Y71921D03*
X90500Y77000D03*
X94500Y84500D03*
X109000Y77000D03*
X109579Y151421D03*
X90500Y156500D03*
X109000D03*
X94500Y164000D03*
X100000Y178350D03*
X92500Y203000D03*
X94500Y208500D03*
X97724Y229576D03*
X100724D03*
X103724D03*
X106724D03*
X97724Y232576D03*
X100724D03*
X103724D03*
X106724D03*
X93000Y237500D03*
X90000D03*
X99500Y277000D03*
X104500D03*
X125000Y18500D03*
X118500Y39000D03*
X112000Y35500D03*
X124500Y52500D03*
X118579Y53000D03*
X112000Y54000D03*
X119000Y71500D03*
Y62500D03*
X123500Y67000D03*
X128000Y71500D03*
Y62500D03*
X118579Y84000D03*
Y86600D03*
X113000Y76983D03*
X118500Y105500D03*
X112000Y115000D03*
Y99500D03*
X124000D03*
X130500D03*
X112500Y132596D03*
X118579Y132500D03*
X118500Y118500D03*
X125500D03*
X129000Y132500D03*
Y120000D03*
X110516Y147484D03*
X119000Y142000D03*
X123500Y146500D03*
X128000Y142000D03*
X119000Y151000D03*
X113000Y156483D03*
X128000Y151000D03*
X112000Y179000D03*
X118579Y166100D03*
Y163500D03*
X129000Y172000D03*
X122500Y194000D03*
X118500Y185000D03*
X114000Y237500D03*
X111228D03*
X117000Y277000D03*
X112000D03*
X136500Y13000D03*
X135500Y55500D03*
X151500Y60500D03*
X150437Y71937D03*
X151500Y55500D03*
X137500Y63000D03*
Y70500D03*
X138000Y66016D03*
X137750Y57250D03*
X134500Y135500D03*
X151500Y135000D03*
X138469Y135470D03*
X150437Y151437D03*
X151500Y140000D03*
X137500Y142500D03*
Y150000D03*
X138000Y145516D03*
X153500Y51000D03*
X167000Y73000D03*
X164272Y61728D03*
X161500Y60000D03*
X168500Y55500D03*
Y66500D03*
X167000Y78000D03*
X157500Y81000D03*
X157000Y84000D03*
X170000Y74500D03*
X153700Y103800D03*
X157000Y123500D03*
X153000Y154500D03*
X172500Y161500D03*
X153000Y168500D03*
Y161500D03*
X154500Y165500D03*
X158000Y166500D03*
X170685Y200000D03*
X167316D03*
X190500Y38500D03*
X195500Y38484D03*
X175547Y64700D03*
X186000Y62500D03*
X181000Y69000D03*
X193808Y87984D03*
X190500Y88000D03*
X177500Y99500D03*
X176500Y108801D03*
X176792Y120793D03*
X191000Y148000D03*
X195500Y204500D03*
X202300Y41500D03*
X202500Y46000D03*
X202300Y35500D03*
Y31500D03*
X202000Y81500D03*
X202300Y85000D03*
Y94500D03*
Y91000D03*
X197000Y88000D03*
X196500Y147984D03*
X202800Y140000D03*
Y145000D03*
Y151000D03*
Y154701D03*
X207228Y194228D03*
X215500Y191000D03*
X203000Y189000D03*
X221500Y11000D03*
X231500Y40500D03*
X235000Y31500D03*
X239000Y36000D03*
X228500Y55000D03*
X227773Y110183D03*
X235000Y123500D03*
X222000Y120000D03*
X226000D03*
X235000Y150000D03*
X236200Y162500D03*
X228500Y169000D03*
Y199000D03*
X227500Y190000D03*
X222000Y191000D03*
X237909Y195854D03*
X218432Y189526D03*
X219000Y198000D03*
X232750Y188750D03*
X234600Y206400D03*
X231500Y208500D03*
X219000Y204000D03*
X223500Y214500D03*
X237000Y204062D03*
X229559Y210971D03*
X227000Y208500D03*
X222500Y206997D03*
X232500Y239000D03*
X232594Y242406D03*
X235485Y242485D03*
X235100Y230000D03*
X223550Y261450D03*
X239500Y16500D03*
X253500Y25000D03*
X255500Y23000D03*
X257000Y16500D03*
X253500Y42500D03*
X252000Y69000D03*
X242000Y67887D03*
X242500Y59500D03*
X242000Y65000D03*
X260000Y74000D03*
X257000D03*
Y57500D03*
X258100Y62500D03*
X260000Y68000D03*
X257000Y67500D03*
X251500Y61500D03*
X253500Y65000D03*
X255401Y61496D03*
X251500Y74500D03*
X241500Y79500D03*
X251900Y82100D03*
X252000Y79500D03*
X243000Y83500D03*
X260000Y93000D03*
X259500Y82000D03*
X240500Y76300D03*
X255000Y93500D03*
X260000Y105000D03*
X253500Y109500D03*
X255500Y115700D03*
X256000Y121500D03*
X255000Y125700D03*
Y174500D03*
X247437Y166437D03*
X258500Y186500D03*
X240500Y195001D03*
X247437Y184063D03*
X240524Y220477D03*
X251500Y238000D03*
X252406Y242406D03*
X249500Y242000D03*
X249900Y230000D03*
X239500Y235500D03*
X245500D03*
X247000Y258500D03*
X240000Y253000D03*
X243500D03*
X265000Y14800D03*
X263500Y50500D03*
X268000Y51000D03*
X279000Y41500D03*
X263150Y73500D03*
X275000Y71800D03*
X280500Y60500D03*
X274894Y60759D03*
X265750Y74250D03*
X280000Y63500D03*
X266500Y56000D03*
X275500Y66700D03*
X265705Y69107D03*
X265000Y61000D03*
X274900Y82000D03*
X264000Y78000D03*
X282000Y81000D03*
Y93500D03*
X264500Y82000D03*
X261161Y113339D03*
X273000Y110000D03*
X270000Y113339D03*
X263505Y111997D03*
X263720Y134280D03*
X278500Y128500D03*
X270000Y120500D03*
X274500Y131000D03*
X274250Y125250D03*
X268000Y149500D03*
Y158000D03*
X260904Y157096D03*
X263898Y149300D03*
X280772Y196228D03*
X275272D03*
X278000Y203500D03*
X274500Y188500D03*
X275500Y211000D03*
X266000D03*
X278000Y224500D03*
X273000D03*
X268500D03*
X263500D03*
X268500Y204500D03*
X262500Y211500D03*
X271500Y211000D03*
X263000Y246500D03*
X276000Y246567D03*
X263500Y257500D03*
X263000Y251500D03*
X275500Y253000D03*
X281000Y268500D03*
X283437Y13063D03*
X286500Y48500D03*
X283437Y56937D03*
X289000Y53500D03*
X291500Y70000D03*
Y61500D03*
X293500Y65000D03*
X286500Y75000D03*
X288500Y79000D03*
X289126Y117126D03*
Y108626D03*
X289500Y172000D03*
X302315Y200000D03*
X301250Y184750D03*
X285000Y211000D03*
X294500D03*
X292000Y224500D03*
X282500D03*
X301500D03*
X287500D03*
X297000D03*
X286500Y245500D03*
X293500Y263000D03*
X299450D03*
X286500Y249547D03*
X286000Y255453D03*
X297500Y251000D03*
X291500Y277500D03*
X299500Y278000D03*
X297000Y275500D03*
X311000Y16500D03*
X322000Y53728D03*
X323000Y58500D03*
X308000Y68000D03*
X320500Y84000D03*
X305500Y76000D03*
X319500Y91000D03*
X315100Y74400D03*
Y88600D03*
X325000Y77000D03*
Y94000D03*
X307500Y79500D03*
X306500Y116000D03*
X308500Y97000D03*
X318000Y102000D03*
X314000Y96500D03*
Y107000D03*
X312500Y145000D03*
X312000Y158000D03*
X313500Y180000D03*
X312500Y174000D03*
X309500Y172000D03*
X320500Y199500D03*
X311815D03*
X319631Y183000D03*
X315184Y199500D03*
X323000Y183000D03*
X304000Y211000D03*
X313500D03*
X323000D03*
X306500Y224500D03*
X316000D03*
X320500D03*
X311000D03*
X320000Y245000D03*
X319500Y257000D03*
X320000Y251000D03*
X318588Y254000D03*
X304000Y282000D03*
X327500Y30500D03*
X330000Y50500D03*
X335336Y32500D03*
X346500Y74000D03*
X325500Y64500D03*
X345500Y56500D03*
X337500Y73000D03*
Y59000D03*
Y87000D03*
X345500Y81000D03*
X345000Y111500D03*
X330500Y139000D03*
X346500Y121000D03*
X345500Y125500D03*
X330500Y151000D03*
X338000Y145000D03*
X331030Y153648D03*
X333000Y175500D03*
X337500Y180000D03*
X341000D03*
X330000Y199500D03*
X343816Y201000D03*
X332500Y211000D03*
X345500D03*
X330000Y224500D03*
X335000D03*
X343000D03*
X325500D03*
X327500Y209500D03*
X337000D03*
X342500Y246500D03*
X333000Y250500D03*
X343000Y257500D03*
X342500Y251500D03*
X346827Y263327D03*
X365000Y25000D03*
X355500Y11000D03*
X362500Y10000D03*
X367000Y11000D03*
X347900Y53900D03*
X366000Y73500D03*
X358000Y72000D03*
X348000Y71100D03*
X349000Y67000D03*
X347963Y59272D03*
X362500Y83000D03*
X354500Y88000D03*
X352000Y98500D03*
X356316Y137500D03*
X354500Y130500D03*
X359685Y137500D03*
X351131Y130500D03*
X350500Y137000D03*
X347500Y128000D03*
X365316Y149000D03*
X355500Y161000D03*
X361000Y163500D03*
X349000Y175000D03*
X366185Y201000D03*
X362816D03*
X353316D03*
X347185D03*
X356685D03*
X364500Y211000D03*
X355000D03*
X362000Y224500D03*
X357500D03*
X367000D03*
X352500D03*
X348000D03*
X366000Y245500D03*
X355500Y246567D03*
X366000Y249547D03*
X365500Y255453D03*
X353000Y266000D03*
X355000Y253000D03*
X361000Y268500D03*
X369000Y21000D03*
Y38500D03*
X385185Y150000D03*
X368685Y149000D03*
X381816Y150000D03*
X387316Y164000D03*
X386816Y176500D03*
X371933Y200500D03*
X385185D03*
X375302D03*
X381816D03*
X374000Y211000D03*
X383500D03*
X371500Y224500D03*
X381000D03*
X386000D03*
X376500D03*
X373000Y263000D03*
X378950D03*
X384500Y282000D03*
X376000Y280000D03*
Y274500D03*
X399500Y3000D03*
X396000Y30500D03*
X392500Y33500D03*
X390500Y54000D03*
X403600Y117100D03*
X405400Y101300D03*
X409036Y104664D03*
X400685Y112500D03*
X397316D03*
X411616D03*
X403453Y148081D03*
X394302Y157000D03*
X390933D03*
X399000Y157500D03*
X407500Y172000D03*
X400000Y176000D03*
X390685Y164000D03*
X390185Y176500D03*
X406500Y163000D03*
X399500Y166000D03*
X406500D03*
X406000Y175500D03*
X404185Y199500D03*
X400816D03*
X394302Y201000D03*
X390933D03*
X397500Y185000D03*
X410315Y201500D03*
X393000Y211000D03*
X402500D03*
X409500Y224500D03*
X395500D03*
X400000D03*
X390500D03*
X405000D03*
X399500Y246000D03*
X399000Y257000D03*
X401500Y263500D03*
X400000Y251000D03*
X398500Y254000D03*
X427500Y22423D03*
Y25677D03*
X424500Y17823D03*
Y21077D03*
X414400Y48000D03*
X432500Y48816D03*
Y52185D03*
X427528Y116472D03*
X421500Y116500D03*
X414985Y112500D03*
X423500Y96000D03*
X423400Y99500D03*
X428250Y123250D03*
X428500Y127500D03*
X413500Y159500D03*
X423000Y159000D03*
X426515Y172985D03*
X427250Y177250D03*
X419500Y179500D03*
X414340Y179380D03*
X416500Y181000D03*
X426500Y170000D03*
X430000Y168500D03*
X418500Y203500D03*
X432315Y201000D03*
X422815D03*
X426184D03*
X417000Y189000D03*
X420000D03*
X421500Y182500D03*
X413684Y201500D03*
X424500Y211000D03*
X412000D03*
X427000Y224500D03*
X422000D03*
X431500D03*
X414500D03*
X421500Y246500D03*
X419000Y265000D03*
X422000Y257500D03*
X421500Y251500D03*
X412500Y250500D03*
X440500Y12000D03*
X433500Y46077D03*
Y42823D03*
X440500Y55500D03*
Y58869D03*
X439650Y106300D03*
X445500Y168000D03*
X437000Y187500D03*
X447026Y196891D03*
X451315Y200500D03*
X454684D03*
X446973Y199591D03*
X435684Y201000D03*
X453000Y211000D03*
X443500D03*
X434000D03*
X436500Y224500D03*
X441000D03*
X450500D03*
X446000D03*
X445000Y245500D03*
X434500Y246567D03*
X439000Y267500D03*
X452000Y263000D03*
X445000Y249547D03*
X444500Y255453D03*
X434000Y253000D03*
X470500Y3000D03*
X471000Y85500D03*
Y82000D03*
X475500Y93500D03*
X463000Y103500D03*
X471500Y109685D03*
X463000Y100131D03*
X471500Y106316D03*
X467500Y118500D03*
X456000Y166500D03*
X460815Y200000D03*
X470315Y201000D03*
X459000Y195500D03*
X464184Y200000D03*
X473684Y201000D03*
X467500Y188500D03*
X472000Y211000D03*
X462500D03*
X474500Y224500D03*
X469500D03*
X460000D03*
X465000D03*
X455500D03*
X457950Y263000D03*
X462000Y282000D03*
X455000Y280000D03*
Y274500D03*
X490500Y63000D03*
X488000D03*
X484937Y69063D03*
X479500Y73000D03*
X489000Y58500D03*
X476941Y79000D03*
Y86941D03*
X487500Y82500D03*
X485000D03*
X482000Y79500D03*
X481500Y129369D03*
X489315Y138000D03*
X481500Y126000D03*
X492684Y138000D03*
X479500Y136500D03*
X479815Y199500D03*
X489315Y201500D03*
X483184Y199500D03*
X492684Y201500D03*
X477000Y191500D03*
X491000Y211000D03*
X481500D03*
X479000Y224500D03*
X493500D03*
X484000D03*
X488500D03*
X478500Y246000D03*
X478000Y257000D03*
X479327Y263327D03*
X479000Y251000D03*
X477500Y254000D03*
X554047Y98047D03*
X548500Y110000D03*
X554047Y121047D03*
X571000Y136000D03*
X566000Y131050D03*
X596915Y9414D03*
X598824Y11324D03*
X600733Y13234D03*
Y52368D03*
X599615Y58500D03*
X596915Y63000D03*
X591000Y88000D03*
X590500Y80500D03*
X591500Y93364D03*
X605000Y153500D03*
X603500Y158500D03*
X596500Y171500D03*
X603500Y179500D03*
X599000Y192500D03*
X622500Y21000D03*
X622000Y144000D03*
X610500Y148500D03*
X615500Y163500D03*
X607500Y176500D03*
X612500Y174000D03*
X622000Y191500D03*
X610000Y182500D03*
X620500Y202315D03*
Y205684D03*
X629500Y22500D03*
X645000Y30000D03*
X636500Y24000D03*
X629131Y169000D03*
X632500D03*
X669000Y45816D03*
X662500Y37365D03*
X669000Y49185D03*
X662500Y40734D03*
X670000Y168284D03*
X657500Y182500D03*
X674185Y17000D03*
X670816D03*
X677000Y32315D03*
Y35684D03*
X687000Y75950D03*
X688000Y304000D03*
X709500Y191500D03*
X696500Y304000D03*
X710517Y355579D03*
X707017D03*
X710517Y359079D03*
X707017D03*
X713200Y369000D03*
X707800D03*
X700500Y364000D03*
X722500Y183000D03*
X725000Y198684D03*
Y195315D03*
X714017Y359079D03*
Y355579D03*
X720500Y363500D03*
X755685Y43500D03*
X746500Y45500D03*
X752316Y43500D03*
X743800Y45500D03*
X755685Y67500D03*
X752316D03*
X742101Y78304D03*
Y74935D03*
X744784Y105000D03*
X754784D03*
X748500D03*
X738500Y201316D03*
Y204685D03*
X741500Y212184D03*
Y208815D03*
X746100Y356000D03*
X745500Y367000D03*
Y369700D03*
X750500Y361500D03*
X753500D03*
X756500D03*
X759875Y59625D03*
X759784Y105000D03*
X775400Y123000D03*
Y135000D03*
X762646Y150354D03*
X760736Y152264D03*
X764000Y187500D03*
X761000Y189409D03*
X769600Y356000D03*
X762500Y364000D03*
X763406Y368406D03*
X769000Y369700D03*
Y367000D03*
X777000Y361500D03*
X774000D03*
X781000Y49500D03*
X780000Y302500D03*
X789500D03*
X786906Y368406D03*
X786000Y364000D03*
X780000Y361500D03*
X815500Y136500D03*
X807500Y128500D03*
X811500Y302500D03*
X820000D03*
X843000Y39000D03*
X840000Y60000D03*
X840500Y113500D03*
X830517Y354079D03*
X834017D03*
X837517D03*
Y357579D03*
X830517D03*
X834017D03*
X836700Y367500D03*
X824000Y362500D03*
X831300Y367500D03*
X860000Y73500D03*
X863535D03*
X847000Y94500D03*
X861750Y114750D03*
X854250Y107250D03*
X856750Y109750D03*
X859250Y112250D03*
X860000Y141000D03*
X844000Y362000D03*
X870605Y73500D03*
X867070D03*
X867500Y117000D03*
X874000Y146000D03*
X869600Y354500D03*
X869000Y368200D03*
Y365500D03*
X886000Y362500D03*
X874000Y360000D03*
X877000D03*
X880000D03*
X899500Y64035D03*
X894000Y68500D03*
X890000Y132500D03*
X903500Y301000D03*
X893100Y354500D03*
X892500Y368200D03*
Y365500D03*
X886906Y366906D03*
X900500Y360000D03*
X897500D03*
X903500D03*
X926000Y25000D03*
X928000Y66500D03*
X925000Y60500D03*
X910000Y140000D03*
X920000Y147000D03*
X913000Y301000D03*
X910406Y366906D03*
X909500Y362500D03*
X937000Y27000D03*
X940000Y68000D03*
X944500Y80000D03*
X930000Y82000D03*
X950000Y130500D03*
X929750Y123750D03*
X935000Y128000D03*
X955184Y75000D03*
X951815D03*
X960000Y143500D03*
X966000Y151000D03*
X968500Y321700D03*
X971500D03*
X993000Y76000D03*
X981500Y82500D03*
X975500Y76000D03*
X984869Y82500D03*
X979500Y317500D03*
X974500Y321700D03*
X1037000Y240000D03*
X1051000Y239500D03*
X1076000Y240000D03*
X1076500Y320200D03*
X1079500D03*
X1090000Y239500D03*
X1087500Y316000D03*
X1082500Y320200D03*
X1117300Y80500D03*
X1123300Y93000D03*
Y115000D03*
X1120450Y96150D03*
Y110850D03*
X1109300Y132500D03*
X1135000Y104000D03*
X1127500Y108000D03*
X1142000D03*
X1127500Y100000D03*
X1142000Y99500D03*
X1145300Y93000D03*
Y115000D03*
X1149150Y109850D03*
Y99650D03*
X1173453Y77047D03*
X1173500Y82953D03*
X1194300Y124000D03*
X1199800Y123000D03*
G54D24*
G01X283437Y56937D02*
X283400Y56900D01*
X279008D01*
X278971Y56937D01*
X270832D01*
X267495Y53600D01*
X256401D01*
X253064Y56937D01*
X230437D01*
X228500Y55000D01*
G01X398500Y254000D02*
X394647Y257853D01*
X354353D01*
X350500Y254000D01*
X318588D01*
G01X477500D02*
X476000D01*
X473500Y256500D01*
X464500D01*
X461000Y253000D01*
X438500D01*
X430500Y261000D01*
X409000D01*
X402000Y254000D01*
X398500D01*
G01X645000Y30000D02*
X675920D01*
X676005Y29915D01*
X677995D01*
X678080Y30000D01*
X706322D01*
X706922Y29400D01*
X709078D01*
X709678Y30000D01*
X778000D01*
G01X705500Y281500D02*
X872610D01*
X888610Y265500D01*
G01X922610D02*
Y263610D01*
X875500Y216500D01*
X737501D01*
X735001Y214000D01*
X716500D01*
G01X759875Y59625D02*
X760250Y60000D01*
X786285D01*
G01X840000D02*
X786285D01*
G01X793000Y102000D02*
X837500D01*
G54D15*
X27000Y372500D03*
X27500Y385000D03*
X88500Y44500D03*
X85500Y168000D03*
X107000Y103000D03*
X236500Y271000D03*
X221500D03*
X255000Y254500D03*
X263500Y275000D03*
X277000D03*
X337000Y22000D03*
X489500Y40000D03*
X495500Y89000D03*
Y78500D03*
Y99500D03*
X482500Y278000D03*
X502500Y52500D03*
Y39500D03*
Y64000D03*
X507500Y89000D03*
X502500Y140000D03*
Y168000D03*
X503000Y182000D03*
X502500Y197500D03*
Y211000D03*
X500500Y238000D03*
X714000Y310500D03*
Y320500D03*
Y393000D03*
Y403000D03*
X724000Y310500D03*
X734000D03*
X724000Y320500D03*
X734000D03*
X724000Y393000D03*
X734000D03*
X724000Y403000D03*
X734000D03*
X744000Y310500D03*
X754000D03*
X744000Y320500D03*
X754000D03*
X744000Y393000D03*
X754000D03*
X744000Y403000D03*
X754000D03*
X764000Y310500D03*
Y320500D03*
Y393000D03*
Y403000D03*
X840000Y265000D03*
X837500Y309000D03*
Y319000D03*
Y391500D03*
Y401500D03*
X856500Y265000D03*
X847500Y309000D03*
X857500D03*
X847500Y319000D03*
X857500D03*
X847500Y391500D03*
X857500D03*
X847500Y401500D03*
X857500D03*
X867500Y309000D03*
X877500D03*
X887500D03*
X867500Y319000D03*
X877500D03*
X887500D03*
X867500Y391500D03*
X877500D03*
X887500D03*
X867500Y401500D03*
X877500D03*
X887500D03*
X932000Y306000D03*
X942000D03*
X932000Y326000D03*
X942000D03*
X932000Y316000D03*
X942000D03*
X932000Y336000D03*
X942000D03*
X934000Y370500D03*
X944000D03*
X934000Y390500D03*
X944000D03*
X934000Y380500D03*
X944000D03*
X934000Y400500D03*
X944000D03*
X1040000Y304500D03*
X1050000D03*
X1040000Y334500D03*
X1050000D03*
X1040000Y324500D03*
X1050000D03*
X1040000Y314500D03*
X1050000D03*
X1041000Y370000D03*
X1051000D03*
X1041000Y390000D03*
X1051000D03*
X1041000Y380000D03*
X1051000D03*
X1041000Y400000D03*
X1051000D03*
G54D25*
G01X23000Y88500D02*
X20950Y86450D01*
X19127D01*
X17100Y84423D01*
Y34627D01*
X18727Y33000D01*
X27000D01*
X28600Y34600D01*
X49456D01*
X51256Y32800D01*
X197054D01*
X201554Y37300D01*
X215098D01*
X220298Y32100D01*
X222702D01*
X223902Y33300D01*
X333590D01*
X334590Y34300D01*
X380927D01*
X391627Y23600D01*
X426323D01*
X427500Y22423D01*
G01X23000Y83500D02*
X20950Y85550D01*
X19500D01*
X18000Y84050D01*
Y35000D01*
X19100Y33900D01*
X26627D01*
X28227Y35500D01*
X49829D01*
X51629Y33700D01*
X196681D01*
X201181Y38200D01*
X215471D01*
X220671Y33000D01*
X222329D01*
X223529Y34200D01*
X333217D01*
X334217Y35200D01*
X381300D01*
X392000Y24500D01*
X426323D01*
X427500Y25677D01*
G01X23000Y108500D02*
X20950Y106450D01*
X17677D01*
X11100Y99873D01*
Y34899D01*
X14999Y31000D01*
X30273D01*
X31873Y32600D01*
X48627D01*
X50613Y30614D01*
X199367D01*
X202481Y27500D01*
X379500D01*
X386500Y20500D01*
X407500D01*
X409000Y19000D01*
X423323D01*
X424500Y17823D01*
G01X23000Y103500D02*
X20950Y105550D01*
X18050D01*
X12000Y99500D01*
Y35272D01*
X15372Y31900D01*
X29900D01*
X31500Y33500D01*
X49000D01*
X50986Y31514D01*
X199740D01*
X202854Y28400D01*
X379873D01*
X386873Y21400D01*
X407873D01*
X409373Y19900D01*
X423323D01*
X424500Y21077D01*
G01X28000Y73500D02*
X39676D01*
X42026Y71150D01*
X50350D01*
X51300Y70200D01*
X107198D01*
X108377Y69021D01*
X110781D01*
X111960Y70200D01*
X116198D01*
X117798Y68600D01*
X120202D01*
X121802Y70200D01*
X125198D01*
X126798Y68600D01*
X129202D01*
X130802Y70200D01*
X134654D01*
X136754Y72300D01*
X138246D01*
X140346Y70200D01*
X148072D01*
X149235Y69037D01*
X151639D01*
X152802Y70200D01*
X165698D01*
X165798Y70100D01*
X168202D01*
X168302Y70200D01*
X179654D01*
X180254Y70800D01*
X181746D01*
X182346Y70200D01*
X245700D01*
X246600Y71100D01*
X259344D01*
X260544Y69900D01*
X263952D01*
X264959Y70907D01*
X271593D01*
X274000Y68500D01*
X278000D01*
X279500Y70000D01*
X291500D01*
G01X28000Y88500D02*
X39676D01*
X42026Y86150D01*
X51650D01*
X52500Y87000D01*
X114877D01*
X116377Y88500D01*
X120781D01*
X121881Y87400D01*
X160899D01*
X161499Y88000D01*
X170001D01*
X170601Y87400D01*
X188554D01*
X189770Y86184D01*
X197556D01*
X197572Y86200D01*
X197746D01*
X198800Y87254D01*
Y87428D01*
X199372Y88000D01*
X206628D01*
X207228Y87400D01*
X220015D01*
X220215Y87600D01*
X222785D01*
X222985Y87400D01*
X288100D01*
X289400Y86100D01*
X318400D01*
X320500Y84000D01*
G01X28000Y78500D02*
X39676D01*
X42026Y76150D01*
X88804D01*
X89754Y75200D01*
X91246D01*
X92346Y76300D01*
X107154D01*
X108271Y75183D01*
X113746D01*
X114863Y76300D01*
X166154D01*
X166254Y76200D01*
X167746D01*
X167846Y76300D01*
X240500D01*
G01X255000Y93500D02*
X208000D01*
X205200Y96300D01*
X199800D01*
X197253Y93753D01*
X171748D01*
X170801Y94700D01*
X160699D01*
X157499Y91500D01*
X53324D01*
X48974Y95850D01*
X42026D01*
X39676Y93500D01*
X28000D01*
G01X43000Y108500D02*
X43148D01*
X45798Y111150D01*
X50230D01*
X50680Y110700D01*
X174297D01*
X176198Y112601D01*
X224545D01*
X225544Y113600D01*
X230956D01*
X231955Y112601D01*
X258399D01*
X261000Y110000D01*
X273000D01*
G01X253500Y109500D02*
X251500Y111500D01*
X231500D01*
X230500Y112500D01*
X226000D01*
X225000Y111500D01*
X176653D01*
X174153Y109000D01*
X152744D01*
X152594Y109150D01*
X79150D01*
X76000Y106000D01*
X40000D01*
X39577Y105577D01*
X38770D01*
G01X43000Y113500D02*
X44676D01*
X47026Y115850D01*
X110304D01*
X111254Y116800D01*
X112746D01*
X113846Y115700D01*
X255500D01*
G01X23000Y123500D02*
X25350Y121150D01*
X48974D01*
X51324Y123500D01*
X132000D01*
X133800Y121700D01*
X161200D01*
X163000Y123500D01*
X235000D01*
G01X43000D02*
X44676D01*
X47026Y125850D01*
X48974D01*
X49124Y125700D01*
X255000D01*
G01X43000Y128500D02*
X44676D01*
X47026Y130850D01*
X51277D01*
X52531Y129596D01*
X114223D01*
X115327Y130700D01*
X168299D01*
X168999Y130000D01*
X173001D01*
X173701Y130700D01*
X234000D01*
X236000Y128700D01*
X275754D01*
X277754Y126700D01*
X279246D01*
X280546Y128000D01*
X294605D01*
X296505Y126100D01*
X303495D01*
X305495Y128100D01*
X328892D01*
X328992Y128000D01*
X347500D01*
G01X265000Y14800D02*
X257846D01*
X257746Y14700D01*
X256254D01*
X256154Y14800D01*
X248427D01*
X246476Y12849D01*
X238907D01*
X236956Y14800D01*
X135754D01*
X135454Y14500D01*
X60000D01*
G01X48000Y73500D02*
X48106Y73394D01*
X49662D01*
X51756Y71300D01*
X107654D01*
X108833Y70121D01*
X110325D01*
X111504Y71300D01*
X116654D01*
X118254Y69700D01*
X119746D01*
X121346Y71300D01*
X125654D01*
X127254Y69700D01*
X128746D01*
X130347Y71301D01*
X134199D01*
X136298Y73400D01*
X138702D01*
X140802Y71300D01*
X148528D01*
X149691Y70137D01*
X151183D01*
X152346Y71300D01*
X166154D01*
X166254Y71200D01*
X167746D01*
X167846Y71300D01*
X179198D01*
X179798Y71900D01*
X182202D01*
X182801Y71301D01*
X243301D01*
X244200Y72200D01*
X259800D01*
X261000Y71000D01*
X263496D01*
X264503Y72007D01*
X272049D01*
X274456Y69600D01*
X276600D01*
X278800Y71800D01*
X293201D01*
X293901Y71100D01*
X348000D01*
G01X319500Y91000D02*
X294000D01*
X291500Y88500D01*
X223441D01*
X223241Y88700D01*
X219759D01*
X219559Y88500D01*
X207684D01*
X207084Y89100D01*
X198446D01*
X197746Y89800D01*
X189754D01*
X188454Y88500D01*
X173885D01*
X169885Y92500D01*
X161999D01*
X157999Y88500D01*
X123501D01*
X121601Y90400D01*
X115401D01*
X113501Y88500D01*
X55772D01*
X54671Y89601D01*
X49251D01*
X48150Y88500D01*
X48000D01*
G01Y98500D02*
X95000D01*
X98500Y95000D01*
X121500D01*
X123500Y97000D01*
X136000D01*
X137500Y98500D01*
X175954D01*
X176754Y97700D01*
X178246D01*
X179197Y98651D01*
X291350D01*
X293901Y96100D01*
X304099D01*
X306799Y98800D01*
X309246D01*
X309546Y98500D01*
X352000D01*
G01X263898Y149300D02*
Y149706D01*
X263808Y149796D01*
X259296D01*
X259000Y149500D01*
X235500D01*
X235000Y150000D01*
G54D16*
X65000Y330500D03*
Y325500D03*
Y385500D03*
Y380500D03*
X85000Y330500D03*
Y325500D03*
X80000Y330500D03*
Y325500D03*
X75000Y330500D03*
Y325500D03*
X70000Y330500D03*
Y325500D03*
X85000Y385500D03*
Y380500D03*
X80000Y385500D03*
Y380500D03*
X75000Y385500D03*
Y380500D03*
X70000Y385500D03*
Y380500D03*
X110000Y330500D03*
Y325500D03*
X105000Y330500D03*
Y325500D03*
X100000Y330500D03*
Y325500D03*
X95000Y330500D03*
Y325500D03*
X90000Y330500D03*
Y325500D03*
X110000Y385500D03*
Y380500D03*
X105000Y385500D03*
Y380500D03*
X100000Y385500D03*
Y380500D03*
X95000Y385500D03*
Y380500D03*
X90000Y385500D03*
Y380500D03*
X130000Y330500D03*
Y325500D03*
X125000Y330500D03*
Y325500D03*
X120000Y330500D03*
Y325500D03*
X115000Y330500D03*
Y325500D03*
X130000Y385500D03*
Y380500D03*
X125000Y385500D03*
Y380500D03*
X120000Y385500D03*
Y380500D03*
X115000Y385500D03*
Y380500D03*
X150000Y330500D03*
Y325500D03*
X145000Y330500D03*
Y325500D03*
X140000Y330500D03*
Y325500D03*
X135000Y330500D03*
Y325500D03*
X150000Y385500D03*
Y380500D03*
X145000Y385500D03*
Y380500D03*
X140000Y385500D03*
Y380500D03*
X135000Y385500D03*
Y380500D03*
X175000Y330500D03*
Y325500D03*
X170000Y330500D03*
Y325500D03*
X165000Y330500D03*
Y325500D03*
X160000Y330500D03*
Y325500D03*
X155000Y330500D03*
Y325500D03*
X175000Y385500D03*
Y380500D03*
X170000Y385500D03*
Y380500D03*
X165000Y385500D03*
Y380500D03*
X160000Y385500D03*
Y380500D03*
X155000Y385500D03*
Y380500D03*
X185000Y330500D03*
Y325500D03*
X180000Y330500D03*
Y325500D03*
X185000Y385500D03*
Y380500D03*
X180000Y385500D03*
Y380500D03*
X260000Y330500D03*
Y325500D03*
X255000Y330500D03*
Y325500D03*
X260000Y385500D03*
Y380500D03*
X255000Y385500D03*
Y380500D03*
X280000Y330500D03*
Y325500D03*
X275000Y330500D03*
Y325500D03*
X270000Y330500D03*
Y325500D03*
X265000Y330500D03*
Y325500D03*
X280000Y385500D03*
Y380500D03*
X275000Y385500D03*
Y380500D03*
X270000Y385500D03*
Y380500D03*
X265000Y385500D03*
Y380500D03*
X302500Y43500D03*
X297500D03*
X302500Y48500D03*
X297500D03*
X302500Y53500D03*
X297500D03*
X302500Y58500D03*
X297500D03*
X302500Y63500D03*
X297500D03*
X302500Y68500D03*
X297500D03*
X302500Y73500D03*
X297500D03*
X302500Y78500D03*
X297500D03*
X302500Y83500D03*
X297500D03*
X302500Y88500D03*
X297500D03*
X302500Y93500D03*
X297500D03*
X302500Y98500D03*
X297500D03*
X302500Y103500D03*
X297500D03*
X302500Y108500D03*
X297500D03*
X302500Y113500D03*
X297500D03*
X302500Y118500D03*
X297500D03*
X302500Y123500D03*
X297500D03*
X302500Y128500D03*
X297500D03*
X302500Y133500D03*
X297500D03*
X302500Y138500D03*
X297500D03*
X302500Y143500D03*
X297500D03*
X302500Y148500D03*
X297500D03*
X302500Y153500D03*
X297500D03*
X302500Y158500D03*
X297500D03*
X302500Y163500D03*
X297500D03*
X300000Y330500D03*
Y325500D03*
X295000Y330500D03*
Y325500D03*
X290000Y330500D03*
Y325500D03*
X285000Y330500D03*
Y325500D03*
X300000Y385500D03*
Y380500D03*
X295000Y385500D03*
Y380500D03*
X290000Y385500D03*
Y380500D03*
X285000Y385500D03*
Y380500D03*
X325000Y330500D03*
Y325500D03*
X320000Y330500D03*
Y325500D03*
X315000Y330500D03*
Y325500D03*
X310000Y330500D03*
Y325500D03*
X305000Y330500D03*
Y325500D03*
X325000Y385500D03*
Y380500D03*
X320000Y385500D03*
Y380500D03*
X315000Y385500D03*
Y380500D03*
X310000Y385500D03*
Y380500D03*
X305000Y385500D03*
Y380500D03*
X345000Y330500D03*
Y325500D03*
X340000Y330500D03*
Y325500D03*
X335000Y330500D03*
Y325500D03*
X330000Y330500D03*
Y325500D03*
X345000Y385500D03*
Y380500D03*
X340000Y385500D03*
Y380500D03*
X335000Y385500D03*
Y380500D03*
X330000Y385500D03*
Y380500D03*
X365000Y330500D03*
Y325500D03*
X360000Y330500D03*
Y325500D03*
X355000Y330500D03*
Y325500D03*
X350000Y330500D03*
Y325500D03*
X365000Y385500D03*
Y380500D03*
X360000Y385500D03*
Y380500D03*
X355000Y385500D03*
Y380500D03*
X350000Y385500D03*
Y380500D03*
X377500Y43500D03*
X372500D03*
X377500Y48500D03*
X372500D03*
X377500Y53500D03*
X372500D03*
X377500Y58500D03*
X372500D03*
X377500Y63500D03*
X372500D03*
X377500Y68500D03*
X372500D03*
X377500Y73500D03*
X372500D03*
X377500Y78500D03*
X372500D03*
X377500Y83500D03*
X372500D03*
X377500Y88500D03*
X372500D03*
X377500Y93500D03*
X372500D03*
X377500Y98500D03*
X372500D03*
X377500Y103500D03*
X372500D03*
X377500Y108500D03*
X372500D03*
X377500Y113500D03*
X372500D03*
X377500Y118500D03*
X372500D03*
X377500Y123500D03*
X372500D03*
X377500Y128500D03*
X372500D03*
X377500Y133500D03*
X372500D03*
X377500Y138500D03*
X372500D03*
X377500Y143500D03*
X372500D03*
X377500Y148500D03*
X372500D03*
X377500Y153500D03*
X372500D03*
X377500Y158500D03*
X372500D03*
X377500Y163500D03*
X372500D03*
X375000Y330500D03*
Y325500D03*
X370000Y330500D03*
Y325500D03*
X375000Y385500D03*
Y380500D03*
X370000Y385500D03*
Y380500D03*
X407000Y88000D03*
X423000Y105500D03*
X452500Y43500D03*
X447500D03*
X452500Y48500D03*
X447500D03*
X452500Y53500D03*
X447500D03*
X452500Y58500D03*
X447500D03*
X452500Y63500D03*
X447500D03*
X452500Y68500D03*
X447500D03*
X452500Y73500D03*
X447500D03*
X452500Y78500D03*
X447500D03*
X452500Y83500D03*
X447500D03*
X452500Y88500D03*
X447500D03*
X452500Y93500D03*
X447500D03*
X452500Y98500D03*
X447500D03*
X452500Y103500D03*
X447500D03*
X452500Y108500D03*
X447500D03*
X452500Y113500D03*
X447500D03*
X452500Y118500D03*
X447500D03*
X452500Y123500D03*
X447500D03*
X452500Y128500D03*
X447500D03*
X452500Y133500D03*
X447500D03*
X452500Y138500D03*
X447500D03*
X452500Y143500D03*
X447500D03*
X452500Y148500D03*
X447500D03*
X452500Y153500D03*
X447500D03*
X452500Y158500D03*
X447500D03*
X452500Y163500D03*
X447500D03*
X455000Y330500D03*
Y325500D03*
X450000Y330500D03*
Y325500D03*
X445000Y330500D03*
Y325500D03*
X455000Y385500D03*
Y380500D03*
X450000Y385500D03*
Y380500D03*
X445000Y385500D03*
Y380500D03*
X475000Y330500D03*
Y325500D03*
X470000Y330500D03*
Y325500D03*
X465000Y330500D03*
Y325500D03*
X460000Y330500D03*
Y325500D03*
X475000Y385500D03*
Y380500D03*
X470000Y385500D03*
Y380500D03*
X465000Y385500D03*
Y380500D03*
X460000Y385500D03*
Y380500D03*
X495000Y330500D03*
Y325500D03*
X490000Y330500D03*
Y325500D03*
X485000Y330500D03*
Y325500D03*
X480000Y330500D03*
Y325500D03*
X495000Y385500D03*
Y380500D03*
X490000Y385500D03*
Y380500D03*
X485000Y385500D03*
Y380500D03*
X480000Y385500D03*
Y380500D03*
X520000Y330500D03*
Y325500D03*
X515000Y330500D03*
Y325500D03*
X510000Y330500D03*
Y325500D03*
X505000Y330500D03*
Y325500D03*
X500000Y330500D03*
Y325500D03*
X520000Y385500D03*
Y380500D03*
X515000Y385500D03*
Y380500D03*
X510000Y385500D03*
Y380500D03*
X505000Y385500D03*
Y380500D03*
X500000Y385500D03*
Y380500D03*
X540000Y330500D03*
Y325500D03*
X535000Y330500D03*
Y325500D03*
X530000Y330500D03*
Y325500D03*
X525000Y330500D03*
Y325500D03*
X540000Y385500D03*
Y380500D03*
X535000Y385500D03*
Y380500D03*
X530000Y385500D03*
Y380500D03*
X525000Y385500D03*
Y380500D03*
X560000Y330500D03*
Y325500D03*
X555000Y330500D03*
Y325500D03*
X550000Y330500D03*
Y325500D03*
X545000Y330500D03*
Y325500D03*
X560000Y385500D03*
Y380500D03*
X555000Y385500D03*
Y380500D03*
X550000Y385500D03*
Y380500D03*
X545000Y385500D03*
Y380500D03*
X582500Y43500D03*
X577500D03*
X582500Y48500D03*
X577500D03*
X582500Y53500D03*
X577500D03*
X582500Y58500D03*
X577500D03*
X582500Y63500D03*
X577500D03*
X582500Y68500D03*
X577500D03*
X582500Y73500D03*
X577500D03*
X582500Y78500D03*
X577500D03*
X582500Y83500D03*
X577500D03*
X582500Y88500D03*
X577500D03*
X582500Y93500D03*
X577500D03*
X582500Y98500D03*
X577500D03*
X582500Y103500D03*
X577500D03*
X582500Y108500D03*
X577500D03*
X582500Y113500D03*
X577500D03*
X582500Y118500D03*
X577500D03*
X582500Y123500D03*
X577500D03*
X582500Y128500D03*
X577500D03*
X582500Y133500D03*
X577500D03*
X582500Y138500D03*
X577500D03*
X582500Y143500D03*
X577500D03*
X582500Y148500D03*
X577500D03*
X582500Y153500D03*
X577500D03*
X582500Y158500D03*
X577500D03*
X582500Y163500D03*
X577500D03*
X565000Y330500D03*
Y325500D03*
Y385500D03*
Y380500D03*
X657500Y43500D03*
X652500D03*
X657500Y48500D03*
X652500D03*
X657500Y53500D03*
X652500D03*
X657500Y58500D03*
X652500D03*
X657500Y63500D03*
X652500D03*
X657500Y68500D03*
X652500D03*
X657500Y73500D03*
X652500D03*
X657500Y78500D03*
X652500D03*
X657500Y83500D03*
X652500D03*
X657500Y88500D03*
X652500D03*
X657500Y93500D03*
X652500D03*
X657500Y98500D03*
X652500D03*
X657500Y103500D03*
X652500D03*
X657500Y108500D03*
X652500D03*
X657500Y113500D03*
X652500D03*
X657500Y118500D03*
X652500D03*
X657500Y123500D03*
X652500D03*
X657500Y128500D03*
X652500D03*
X657500Y133500D03*
X652500D03*
X657500Y138500D03*
X652500D03*
X657500Y143500D03*
X652500D03*
X657500Y148500D03*
X652500D03*
X657500Y153500D03*
X652500D03*
X657500Y158500D03*
X652500D03*
X657500Y163500D03*
X652500D03*
X732500Y43500D03*
X727500D03*
X732500Y48500D03*
X727500D03*
X732500Y53500D03*
X727500D03*
X732500Y58500D03*
X727500D03*
X732500Y63500D03*
X727500D03*
X732500Y68500D03*
X727500D03*
X732500Y73500D03*
X727500D03*
X732500Y78500D03*
X727500D03*
X732500Y83500D03*
X727500D03*
X732500Y88500D03*
X727500D03*
X732500Y93500D03*
X727500D03*
X732500Y98500D03*
X727500D03*
X732500Y103500D03*
X727500D03*
X732500Y108500D03*
X727500D03*
X732500Y113500D03*
X727500D03*
X732500Y118500D03*
X727500D03*
X732500Y123500D03*
X727500D03*
X732500Y128500D03*
X727500D03*
X732500Y133500D03*
X727500D03*
X732500Y138500D03*
X727500D03*
X732500Y143500D03*
X727500D03*
X732500Y148500D03*
X727500D03*
X732500Y153500D03*
X727500D03*
X732500Y158500D03*
X727500D03*
X732500Y163500D03*
X727500D03*
X1054800Y45000D03*
Y50000D03*
X1049800Y45000D03*
Y50000D03*
X1054800Y158000D03*
X1049800D03*
X1054800Y163000D03*
X1049800D03*
X1079800Y45000D03*
Y50000D03*
X1074800Y45000D03*
Y50000D03*
X1069800Y45000D03*
Y50000D03*
X1064800Y45000D03*
Y50000D03*
X1059800Y45000D03*
Y50000D03*
X1079800Y158000D03*
X1074800D03*
X1069800D03*
X1064800D03*
X1059800D03*
X1079800Y163000D03*
X1074800D03*
X1069800D03*
X1064800D03*
X1059800D03*
X1099800Y45000D03*
Y50000D03*
X1094800Y45000D03*
Y50000D03*
X1089800Y45000D03*
Y50000D03*
X1084800Y45000D03*
Y50000D03*
X1099800Y158000D03*
X1094800D03*
X1089800D03*
X1084800D03*
X1099800Y163000D03*
X1094800D03*
X1089800D03*
X1084800D03*
X1119800Y45000D03*
Y50000D03*
X1114800Y45000D03*
Y50000D03*
X1109800Y45000D03*
Y50000D03*
X1104800Y45000D03*
Y50000D03*
X1119800Y158000D03*
X1114800D03*
X1109800D03*
X1104800D03*
X1119800Y163000D03*
X1114800D03*
X1109800D03*
X1104800D03*
X1144800Y45000D03*
Y50000D03*
X1139800Y45000D03*
Y50000D03*
X1134800Y45000D03*
Y50000D03*
X1129800Y45000D03*
Y50000D03*
X1124800Y45000D03*
Y50000D03*
X1144800Y158000D03*
X1139800D03*
X1134800D03*
X1129800D03*
X1124800D03*
X1144800Y163000D03*
X1139800D03*
X1134800D03*
X1129800D03*
X1124800D03*
X1164800Y45000D03*
Y50000D03*
X1159800Y45000D03*
Y50000D03*
X1154800Y45000D03*
Y50000D03*
X1149800Y45000D03*
Y50000D03*
X1164800Y158000D03*
X1159800D03*
X1154800D03*
X1149800D03*
X1164800Y163000D03*
X1159800D03*
X1154800D03*
X1149800D03*
X1184800Y45000D03*
Y50000D03*
X1179800Y45000D03*
Y50000D03*
X1174800Y45000D03*
Y50000D03*
X1169800Y45000D03*
Y50000D03*
X1184800Y158000D03*
X1179800D03*
X1174800D03*
X1169800D03*
X1184800Y163000D03*
X1179800D03*
X1174800D03*
X1169800D03*
X1209800Y45000D03*
Y50000D03*
X1204800Y45000D03*
Y50000D03*
X1199800Y45000D03*
Y50000D03*
X1194800Y45000D03*
Y50000D03*
X1189800Y45000D03*
Y50000D03*
X1209800Y158000D03*
X1204800D03*
X1199800D03*
X1194800D03*
X1189800D03*
X1209800Y163000D03*
X1204800D03*
X1199800D03*
X1194800D03*
X1189800D03*
X1219800Y45000D03*
Y50000D03*
X1214800Y45000D03*
Y50000D03*
X1219800Y158000D03*
X1214800D03*
X1219800Y163000D03*
X1214800D03*
G54D26*
G01X23000Y128500D02*
X16000D01*
X15500Y129000D01*
Y150500D01*
X16000Y151000D01*
X107383D01*
X108812Y149571D01*
X110346D01*
X111775Y151000D01*
X116383D01*
X118233Y149150D01*
X119767D01*
X121617Y151000D01*
X125383D01*
X127233Y149150D01*
X130953D01*
X134853Y153050D01*
X146207D01*
X149670Y149587D01*
X164187D01*
X167150Y152550D01*
X198633D01*
X202033Y149150D01*
X203567D01*
X205417Y151000D01*
X219600D01*
X221150Y149450D01*
X229950D01*
X234000Y153500D01*
X253992D01*
X257588Y157096D01*
X260904D01*
G01X259500Y82000D02*
X257000D01*
X255000Y84000D01*
X247000D01*
X244500Y81500D01*
X237500D01*
X235000Y79000D01*
X168617D01*
X167767Y79850D01*
X166233D01*
X165383Y79000D01*
X50895D01*
X48895Y81000D01*
X39000D01*
G01X318000Y102000D02*
X317000Y101000D01*
X257500D01*
X255000Y103500D01*
X156017D01*
X154467Y101950D01*
X123451D01*
X118001Y96500D01*
X101001D01*
X96401Y101100D01*
X30400D01*
X28000Y103500D01*
G01X23000Y143500D02*
X25400Y141100D01*
X55601D01*
X60601Y146100D01*
X78865D01*
X80515Y144450D01*
X109235D01*
X109251Y144434D01*
X111781D01*
X111797Y144450D01*
X134317D01*
X137233Y147366D01*
X138767D01*
X143683Y142450D01*
X239450D01*
X240050Y143050D01*
X282050D01*
X284050Y141050D01*
X318049D01*
X324799Y147800D01*
X336200D01*
X338146Y145854D01*
Y145146D01*
X338000Y145000D01*
G01X23000Y148500D02*
X25500Y146000D01*
X52383D01*
X52733Y145650D01*
X55151D01*
X57001Y147500D01*
X79163D01*
X81013Y145650D01*
X109733D01*
X109749Y145634D01*
X111283D01*
X111299Y145650D01*
X120033D01*
X122733Y148350D01*
X124267D01*
X124972Y147645D01*
X131146D01*
X135351Y151850D01*
X143151D01*
X147451Y147550D01*
X184450D01*
X186500Y145500D01*
X200500D01*
X202000Y147000D01*
X239000D01*
X241550Y144450D01*
X247450D01*
X249950Y146950D01*
X295585D01*
X296535Y146000D01*
X304999D01*
X308999Y150000D01*
X324500D01*
X328148Y153648D01*
X331030D01*
G01X43000Y138500D02*
X44500D01*
X47000Y136000D01*
X51323D01*
X51453Y136130D01*
X52987D01*
X53117Y136000D01*
X99000D01*
X101500Y138500D01*
X145000D01*
X146550Y136950D01*
X294049D01*
X294949Y136050D01*
X303551D01*
X304151Y136650D01*
X337150D01*
X339850Y139350D01*
X365649D01*
X368949Y136050D01*
X382551D01*
X385001Y138500D01*
X411500D01*
X412550Y139550D01*
X419950D01*
X421000Y138500D01*
X444035D01*
X446485Y136050D01*
X453515D01*
X455965Y138500D01*
X476500D01*
X478500Y136500D01*
X479500D01*
G01X23000Y163500D02*
X25500Y166000D01*
X57000D01*
X65000Y174000D01*
X103500D01*
X104700Y172800D01*
X127183D01*
X128233Y173850D01*
X129767D01*
X130167Y173450D01*
X253433D01*
X254233Y172650D01*
X257151D01*
X258501Y174000D01*
X312500D01*
G01X43000Y198500D02*
X44605D01*
X47005Y196100D01*
X54900D01*
X60000Y191000D01*
X123500D01*
X124500Y192000D01*
X141500D01*
X142500Y191000D01*
X215500D01*
G01X43000Y188500D02*
Y188300D01*
X45400Y185900D01*
X114899D01*
X116499Y187500D01*
X121001D01*
X122801Y185700D01*
X234015D01*
X234228Y185913D01*
X250088D01*
X252001Y184000D01*
X262000D01*
X263913Y185913D01*
X288087D01*
X292000Y182000D01*
X317500D01*
X318350Y181150D01*
X327150D01*
X328500Y182500D01*
X340000D01*
X341000Y181500D01*
Y180000D01*
G01X33000Y189000D02*
X34900Y190900D01*
X55100D01*
X58834Y187166D01*
X74166D01*
X76000Y189000D01*
X125500D01*
X127050Y190550D01*
X138450D01*
X140000Y189000D01*
X203000D01*
G01X43000Y213500D02*
X45600Y210900D01*
Y207505D01*
X47205Y205900D01*
X52099D01*
X54499Y203500D01*
X88000D01*
X90500Y201000D01*
X96000D01*
X104000Y209000D01*
X124500D01*
X126503Y206997D01*
X222500D01*
G01X43000Y203500D02*
X45600Y200900D01*
X53600D01*
X58500Y196000D01*
X123500D01*
X125500Y198000D01*
X219000D01*
G01X38500Y239000D02*
X88883D01*
X89733Y239850D01*
X93767D01*
X94617Y239000D01*
X98400D01*
X98950Y238450D01*
X100650D01*
X101200Y239000D01*
X110111D01*
X111161Y240050D01*
X215550D01*
X228500Y253000D01*
X240000D01*
G01X90000Y237500D02*
X86000D01*
X84500Y236000D01*
X58617D01*
X58267Y236350D01*
X56733D01*
X56383Y236000D01*
X37000D01*
G01X367000Y11000D02*
Y9500D01*
X364500Y7000D01*
X64000D01*
X55500Y15500D01*
Y25500D01*
X54000Y27000D01*
G01X239500Y16500D02*
X238000Y18000D01*
X196500D01*
X192000Y22500D01*
X59500D01*
G01X257000Y16500D02*
X248500D01*
X246000Y14000D01*
X239383D01*
X237383Y16000D01*
X193500D01*
X189000Y20500D01*
X117500D01*
X115500Y18500D01*
X59676D01*
G01X48000Y68500D02*
X53500D01*
X54050Y69050D01*
X106721D01*
X107900Y67871D01*
X111258D01*
X112437Y69050D01*
X115721D01*
X117321Y67450D01*
X120679D01*
X122279Y69050D01*
X124721D01*
X126321Y67450D01*
X129679D01*
X131279Y69050D01*
X134777D01*
X135940Y67887D01*
X167270D01*
X167733Y68350D01*
X169267D01*
X169730Y67887D01*
X179496D01*
X180233Y67150D01*
X181767D01*
X182504Y67887D01*
X242000D01*
G01X62049Y60451D02*
X70068D01*
X73967Y64350D01*
X128767D01*
X131967Y61150D01*
X138267D01*
X141117Y64000D01*
X166500D01*
X168000Y62500D01*
X176500D01*
X178500Y64500D01*
X195000D01*
X196350Y63150D01*
X241467D01*
X245117Y59500D01*
X263500D01*
X265000Y61000D01*
G01X48000Y83500D02*
X92883D01*
X93733Y82650D01*
X95267D01*
X96117Y83500D01*
X116462D01*
X117812Y82150D01*
X150649D01*
X154349Y85850D01*
X160750D01*
X163150Y83450D01*
X196449D01*
X198049Y85050D01*
X198223D01*
X200023Y86850D01*
X206151D01*
X210551Y82450D01*
X235951D01*
X238851Y85350D01*
X256651D01*
X258051Y83950D01*
X293585D01*
X296535Y81000D01*
X304499D01*
X304849Y81350D01*
X312651D01*
X313001Y81000D01*
X345500D01*
G01X52500Y96000D02*
X93747D01*
X96247Y93500D01*
X123499D01*
X125849Y95850D01*
X136477D01*
X136627Y96000D01*
X196500D01*
X198000Y97500D01*
X255500D01*
X260000Y93000D01*
G01X263720Y134280D02*
X174720D01*
X174000Y135000D01*
X157501D01*
X155651Y133150D01*
X130967D01*
X129767Y134350D01*
X117350D01*
X113746Y130746D01*
X105254D01*
X101720Y134280D01*
X52220D01*
G01X48000Y128500D02*
X50500D01*
X51500Y127500D01*
X254183D01*
X254233Y127550D01*
X271950D01*
X274250Y125250D01*
G01X48000Y173500D02*
X57500D01*
X60500Y176500D01*
X104500D01*
X107000Y174000D01*
X126685D01*
X127735Y175050D01*
X254450D01*
X255000Y174500D01*
G01X48000Y178500D02*
X51500D01*
X54000Y181000D01*
X104999D01*
X109999Y176000D01*
X115501D01*
X117001Y177500D01*
X338500D01*
X340450Y175550D01*
X348450D01*
X349000Y175000D01*
G01X418500Y203500D02*
X416000Y206000D01*
X269617D01*
X269267Y206350D01*
X267733D01*
X267383Y206000D01*
X248000D01*
X243950Y201950D01*
X128050D01*
X123000Y207000D01*
X104499D01*
X96149Y198650D01*
X69850D01*
X66550Y201950D01*
X54248D01*
X54098Y202100D01*
X51401D01*
X50001Y203500D01*
X48000D01*
G01Y218500D02*
X78600D01*
X80149Y216951D01*
X81849D01*
X83398Y218500D01*
X122602D01*
X123651Y217451D01*
X125351D01*
X126400Y218500D01*
X219500D01*
X223500Y214500D01*
G01X67500Y208500D02*
X48000D01*
G01X114000Y237500D02*
Y232926D01*
X108074Y227000D01*
X56000D01*
X54000Y229000D01*
G01X111228Y237500D02*
X109728Y236000D01*
X95500D01*
X94000Y234500D01*
X57500D01*
G01X243500Y253000D02*
X241272Y255228D01*
X60228D01*
X56000Y251000D01*
Y247500D01*
G01X69000Y4500D02*
X70500Y3000D01*
X368000D01*
X374000Y9000D01*
X437500D01*
X440500Y12000D01*
G01X355500Y11000D02*
X347000D01*
X345150Y9150D01*
X73850D01*
X71500Y11500D01*
X71000D01*
G01X253500Y25000D02*
X253000Y25500D01*
X202000D01*
X200000Y27500D01*
X72500D01*
G01X66000D02*
X69000Y24500D01*
X195500D01*
X197000Y23000D01*
X255500D01*
G01X80500Y104500D02*
X84000Y108000D01*
X152117D01*
X155117Y105000D01*
X260000D01*
G01X281000Y268500D02*
X249000D01*
X242000Y275500D01*
X123001D01*
X122151Y274650D01*
X82650D01*
X72000Y264000D01*
G01X76000Y262000D02*
X87000Y273000D01*
X196000D01*
X203000Y266000D01*
X353000D01*
G01X65500Y271000D02*
X75050Y280550D01*
X291050D01*
X292500Y282000D01*
X304000D01*
G01X69000Y267500D02*
X80850Y279350D01*
X286150D01*
X288000Y277500D01*
X291500D01*
G01X135500Y55500D02*
X121079D01*
X118579Y53000D01*
G01X215500Y191000D02*
X217500Y193000D01*
X236500D01*
X239441Y190059D01*
X248059D01*
X252000Y194000D01*
X264378D01*
X266128Y192250D01*
X413750D01*
X417000Y189000D01*
G01X419500Y182000D02*
X410750Y190750D01*
X265506D01*
X263756Y192500D01*
X254500D01*
X250000Y188000D01*
X234617D01*
X233517Y186900D01*
X221058D01*
X218432Y189526D01*
G01X420000Y189000D02*
X415250Y193750D01*
X266750D01*
X265000Y195500D01*
X252000D01*
X248000Y199500D01*
X236001D01*
X232001Y195500D01*
X221150D01*
X219000Y197650D01*
Y198000D01*
G01Y204000D02*
X219500Y204500D01*
X227000D01*
X231000Y208500D01*
X231500D01*
G01X297500Y43500D02*
X273400D01*
X271850Y45050D01*
X270150D01*
X268600Y43500D01*
X254500D01*
X253500Y42500D01*
G01X257000Y67500D02*
X258450Y66050D01*
X262265D01*
X263815Y64500D01*
X276685D01*
X280185Y68000D01*
X294535D01*
X296485Y66050D01*
X303515D01*
X305465Y68000D01*
X308000D01*
G01X251500Y61500D02*
X252617D01*
X255967Y64850D01*
X261767D01*
X263317Y63300D01*
X277183D01*
X279233Y65350D01*
X280767D01*
X281117Y65000D01*
X293500D01*
G01X286500Y75000D02*
X286000Y75500D01*
X270501D01*
X269901Y76100D01*
X253100D01*
X251500Y74500D01*
G01X241500Y79500D02*
X248000D01*
X249850Y77650D01*
X253149D01*
X255349Y79850D01*
X267651D01*
X268501Y79000D01*
X288500D01*
G01X263500Y50500D02*
X264850Y49150D01*
X278150D01*
X280000Y51000D01*
X300000D01*
X302500Y48500D01*
G01X337500Y59000D02*
X333500D01*
X330000Y55500D01*
X322845D01*
X322767Y55578D01*
X321233D01*
X321155Y55500D01*
X303965D01*
X303515Y55950D01*
X293462D01*
X290412Y59000D01*
X281617D01*
X281267Y58650D01*
X279733D01*
X279474Y58909D01*
X267091D01*
X265000Y61000D01*
G01X264000Y78000D02*
X264500Y77500D01*
X286617D01*
X288117Y76000D01*
X305500D01*
G01X306500Y116000D02*
X296535D01*
X293874Y113339D01*
X272617D01*
X270767Y111489D01*
X268011D01*
X265650Y113850D01*
X261672D01*
X261161Y113339D01*
G01X437000Y187500D02*
X429500Y195000D01*
X296000D01*
X290000Y201000D01*
X270000D01*
X268500Y202500D01*
Y204500D01*
G01X278000Y203500D02*
X415000D01*
X421000Y197500D01*
X437000D01*
X441500Y193000D01*
X453000D01*
X455500Y195500D01*
X459000D01*
G01X291500Y61500D02*
X296035D01*
X296485Y61050D01*
X303515D01*
X303965Y61500D01*
X320000D01*
X323000Y58500D01*
G01X314000Y107000D02*
X304465D01*
X303515Y106050D01*
X300050D01*
X297500Y103500D01*
G01Y123500D02*
X299950Y121050D01*
X304550D01*
X310150Y126650D01*
X340350D01*
X346000Y121000D01*
X346500D01*
G01X297500Y133500D02*
X299950Y131050D01*
X306050D01*
X310450Y135450D01*
X339086D01*
X340136Y136500D01*
X350000D01*
X350500Y137000D01*
G01X361000Y268500D02*
X281000D01*
G01X376000Y280000D02*
X375950Y280050D01*
X294050D01*
X291500Y277500D01*
G01X337500Y180000D02*
X337000Y179500D01*
X314000D01*
X313500Y180000D01*
G01X384500Y282000D02*
X304000D01*
G01X401500Y263500D02*
X394500D01*
X391500Y260500D01*
X355500D01*
X352673Y263327D01*
X346827D01*
G01X361000Y268500D02*
X438000D01*
X439000Y267500D01*
G01X462000Y282000D02*
X384500D01*
G01X455000Y280000D02*
X452400D01*
X452350Y280050D01*
X376050D01*
X376000Y280000D01*
G01X406500Y163000D02*
X407000Y162500D01*
X408999D01*
X410999Y164500D01*
X446500D01*
X447500Y163500D01*
G01X399500Y166000D02*
X401500D01*
X404500Y169000D01*
X413100D01*
X415650Y171550D01*
X424950D01*
X426500Y170000D01*
G01X445500Y168000D02*
X444000Y166500D01*
X429383D01*
X427883Y168000D01*
X420500D01*
X419000Y166500D01*
X407000D01*
X406500Y166000D01*
G01X401500Y263500D02*
X402000Y263000D01*
X433500D01*
X436500Y260000D01*
X462500D01*
X465827Y263327D01*
X479327D01*
G01X495500Y78500D02*
X484000Y90000D01*
X467500D01*
X461500Y96000D01*
X423500D01*
G01X502500Y140000D02*
X494000Y131500D01*
X475000D01*
X469500Y126000D01*
X440000D01*
X437250Y123250D01*
X428250D01*
G01X413500Y159500D02*
X422500D01*
X423000Y159000D01*
G01X430000Y168500D02*
X436000D01*
X437500Y170000D01*
X449500D01*
X452500Y167000D01*
Y163500D01*
G01X495500Y89000D02*
X493000D01*
X478000Y104000D01*
X466500D01*
X464200Y106300D01*
X453765D01*
X453515Y106050D01*
X446485D01*
X446235Y106300D01*
X439650D01*
G01X582500Y48500D02*
X584000Y47000D01*
X590500D01*
X597500Y40000D01*
X657465D01*
X661431Y43966D01*
X676966D01*
X679000Y46000D01*
X735000D01*
X737500Y48500D01*
X773000D01*
X778000Y53500D01*
X856500D01*
X860000Y50000D01*
G01X865000D02*
Y51000D01*
X860000Y56000D01*
X804173D01*
X803973Y55800D01*
X784526D01*
X784326Y56000D01*
X776500D01*
X771450Y50950D01*
X669852D01*
X669767Y51035D01*
X604535D01*
X603000Y49500D01*
X596000D01*
X594500Y51000D01*
X580000D01*
X577500Y48500D01*
G01Y73500D02*
X580050Y70950D01*
X587550D01*
X593500Y65000D01*
X650535D01*
X651485Y65950D01*
X742550D01*
X745000Y63500D01*
X770500D01*
X772950Y65950D01*
X773950D01*
X774500Y66500D01*
X928000D01*
G01X582500Y53500D02*
X582929Y53071D01*
X589929D01*
X592858Y56000D01*
X717000D01*
X719500Y53500D01*
X724035D01*
X726485Y55950D01*
X733515D01*
X735965Y53500D01*
X772000D01*
X776500Y58000D01*
X861500D01*
X869500Y50000D01*
X870000D01*
G01X847000Y94500D02*
X734965D01*
X733515Y95950D01*
X726485D01*
X725035Y94500D01*
X659965D01*
X658515Y95950D01*
X579950D01*
X577500Y93500D01*
G01X582500Y88500D02*
X585500Y85500D01*
X651035D01*
X651485Y85950D01*
X738050D01*
X740000Y84000D01*
X792000D01*
X795000Y81000D01*
X929000D01*
X930000Y82000D01*
G01X860000Y141000D02*
X859500Y141500D01*
X745000D01*
X739500Y136000D01*
X580000D01*
X577500Y133500D01*
G01Y128500D02*
Y128050D01*
X579500Y126050D01*
X588549D01*
X591499Y129000D01*
X618501D01*
X621001Y126500D01*
X651035D01*
X651485Y126050D01*
X653515D01*
X653965Y126500D01*
X656035D01*
X656485Y126050D01*
X658515D01*
X658965Y126500D01*
X722999D01*
X723449Y126050D01*
X738051D01*
X742951Y130950D01*
X822856D01*
X823306Y130500D01*
X950000D01*
G01X815500Y136500D02*
X815150Y136850D01*
X743850D01*
X738000Y131000D01*
X585000D01*
X582500Y133500D01*
G01X867500Y117000D02*
X865195Y119305D01*
X841695D01*
X839950Y121050D01*
X741550D01*
X736500Y116000D01*
X624999D01*
X613999Y127000D01*
X593001D01*
X586951Y120950D01*
X580050D01*
X577500Y123500D01*
G01X596500Y171500D02*
X596858Y171142D01*
X873500D01*
X877150Y167492D01*
Y160150D01*
X875000Y158000D01*
G01X603500Y179500D02*
X659501D01*
X662051Y182050D01*
X717350D01*
X718250Y181150D01*
X777350D01*
X778000Y180500D01*
X787500D01*
X788750Y181750D01*
X952750D01*
X967850Y166650D01*
Y160150D01*
X970000Y158000D01*
G01X599000Y192500D02*
X599500Y193000D01*
X607500D01*
X611091Y189409D01*
X761000D01*
G01X926000Y25000D02*
X807000D01*
X786500Y4500D01*
X752000D01*
X749500Y7000D01*
X711117D01*
X710767Y7350D01*
X709233D01*
X708883Y7000D01*
X626500D01*
X623000Y10500D01*
Y20500D01*
X622500Y21000D01*
G01X960000Y143500D02*
X757500D01*
X756700Y142700D01*
X751300D01*
X750500Y143500D01*
X739500D01*
X737000Y141000D01*
X625000D01*
X622000Y144000D01*
G01X865000Y158000D02*
X867500Y160500D01*
Y165001D01*
X866001Y166500D01*
X670833D01*
X670767Y166434D01*
X669233D01*
X669167Y166500D01*
X618500D01*
X615500Y163500D01*
G01X607500Y176500D02*
X882000D01*
X887150Y171350D01*
Y160150D01*
X885000Y158000D01*
G01X612500Y174000D02*
X879001D01*
X882150Y170851D01*
Y160150D01*
X880000Y158000D01*
G01X629500Y22500D02*
Y11000D01*
X631500Y9000D01*
X752450D01*
X753400Y8050D01*
X765050D01*
X766550Y9550D01*
X787101D01*
X787351Y9800D01*
X788300D01*
X805500Y27000D01*
X937000D01*
G01X652500Y48500D02*
X654950Y46050D01*
X659549D01*
X660500Y47001D01*
X667815D01*
X669000Y45816D01*
G01X746500Y45500D02*
Y44500D01*
X745500Y43500D01*
Y40092D01*
X743958Y38550D01*
X663685D01*
X662500Y37365D01*
G01X657500Y48500D02*
X657999Y48001D01*
X667816D01*
X669000Y49185D01*
G01X743800Y45500D02*
Y44699D01*
X744500Y43999D01*
Y40507D01*
X743543Y39550D01*
X663684D01*
X662500Y40734D01*
G01X944500Y80000D02*
X937500D01*
X936000Y78500D01*
X795802D01*
X794302Y80000D01*
X766154D01*
X766000Y80154D01*
X734311D01*
X733515Y80950D01*
X692050D01*
X689500Y83500D01*
X660965D01*
X658515Y81050D01*
X654950D01*
X652500Y83500D01*
G01X687000Y75950D02*
X655050D01*
X652500Y78500D01*
G01X929750Y123750D02*
X927000Y126500D01*
X871500D01*
X870000Y125000D01*
X741499D01*
X737549Y121050D01*
X722950D01*
X719500Y124500D01*
X663000D01*
X659550Y121050D01*
X654950D01*
X652500Y123500D01*
G01Y148500D02*
X654950Y146050D01*
X658515D01*
X660965Y148500D01*
X709000D01*
X712500Y145000D01*
X721500D01*
X722500Y146000D01*
X750000D01*
X752000Y148000D01*
X756000D01*
X758000Y146000D01*
X874000D01*
G01X764000Y187500D02*
X662500D01*
X657500Y182500D01*
G01X674185Y17000D02*
X673001Y15816D01*
Y15108D01*
X675909Y12200D01*
X783785D01*
X803085Y31500D01*
X983499D01*
X988500Y36501D01*
Y66085D01*
X983000Y71585D01*
Y81752D01*
X982252Y82500D01*
X981500D01*
G01X670816Y17000D02*
X672001Y15815D01*
Y14693D01*
X675494Y11200D01*
X784200D01*
X803500Y30500D01*
X983914D01*
X989500Y36086D01*
Y66500D01*
X984000Y72000D01*
Y81631D01*
X984869Y82500D01*
G01X677000Y32315D02*
X678185Y33500D01*
X706600D01*
X707150Y34050D01*
X708850D01*
X709400Y33500D01*
X714185D01*
X714235Y33450D01*
X716765D01*
X716815Y33500D01*
X751000D01*
X754500Y37000D01*
Y42315D01*
X755685Y43500D01*
G01X677000Y35684D02*
X678184Y34500D01*
X706185D01*
X706735Y35050D01*
X709265D01*
X709815Y34500D01*
X714600D01*
X714650Y34450D01*
X716350D01*
X716400Y34500D01*
X750585D01*
X753500Y37415D01*
Y42316D01*
X752316Y43500D01*
G01X670000Y168284D02*
X871216D01*
X872150Y167350D01*
Y160150D01*
X870000Y158000D01*
G01X955184Y75000D02*
X953999Y73815D01*
Y71585D01*
X952914Y70500D01*
X755001D01*
X754501Y70000D01*
Y68684D01*
X755685Y67500D01*
G01X951815Y75000D02*
X952999Y73816D01*
Y72000D01*
X952499Y71500D01*
X754586D01*
X753501Y70415D01*
Y68685D01*
X752316Y67500D01*
G01X975000Y50000D02*
X973000Y52000D01*
Y74915D01*
X968915Y79000D01*
X947585D01*
X945585Y77000D01*
X743405D01*
X742101Y78304D01*
G01X970000Y50000D02*
X972000Y52000D01*
Y74500D01*
X968500Y78000D01*
X948000D01*
X946000Y76000D01*
X743166D01*
X742101Y74935D01*
G01X861750Y114750D02*
X858395Y118105D01*
X757889D01*
X744784Y105000D01*
G01X856750Y109750D02*
X855465Y111035D01*
X760819D01*
X754784Y105000D01*
G01X748500D02*
X749784D01*
X759354Y114570D01*
X838953D01*
X839733Y115350D01*
X841267D01*
X842047Y114570D01*
X856930D01*
X859250Y112250D01*
G01X854250Y107250D02*
X854000Y107500D01*
X762284D01*
X759784Y105000D01*
G01X762646Y150354D02*
X764342Y152050D01*
X793850D01*
X793900Y152000D01*
X965000D01*
X966000Y151000D01*
G01X760736Y152264D02*
X762186Y153621D01*
Y153329D01*
X760823Y151885D01*
X763438Y154500D01*
X971500D01*
X975000Y158000D01*
G01X807500Y128500D02*
X817000D01*
X819300Y126200D01*
X827700D01*
X829500Y128000D01*
X935000D01*
G54D17*
X92500Y259500D03*
X102500D03*
X112500D03*
X435110Y13500D03*
X448890D03*
X477890D03*
X464110D03*
X570000Y222000D03*
X580000D03*
X570000Y273500D03*
X580000D03*
X590000Y222000D03*
Y273500D03*
X620000Y222000D03*
X630000D03*
X620000Y273500D03*
X630000D03*
X626500Y331610D03*
Y345390D03*
Y366610D03*
Y380390D03*
X640000Y222000D03*
Y273500D03*
X670000Y222000D03*
Y273500D03*
X680000Y222000D03*
X690000D03*
X680000Y273500D03*
X690000D03*
X720000Y222000D03*
X730000D03*
X720000Y273500D03*
X730000D03*
X740000Y222000D03*
Y273500D03*
X888610Y265500D03*
X902390D03*
X922610D03*
X936390D03*
X1012000Y310500D03*
Y330500D03*
Y320500D03*
X1014000Y375000D03*
Y395000D03*
Y385000D03*
X1038000Y222500D03*
X1028000D03*
X1038000Y274000D03*
X1028000D03*
X1048000Y222500D03*
Y274000D03*
X1077000Y222500D03*
X1067000D03*
X1077000Y274000D03*
X1067000D03*
X1087000Y222500D03*
Y274000D03*
X1106000Y222500D03*
X1116000D03*
X1126000D03*
X1106000Y274000D03*
X1116000D03*
X1126000D03*
X1120000Y309000D03*
Y329000D03*
Y319000D03*
X1121000Y374500D03*
Y394500D03*
Y384500D03*
X1143000Y222500D03*
Y274000D03*
X1153000Y222500D03*
X1163000D03*
X1153000Y274000D03*
X1163000D03*
X1180000Y222500D03*
X1190000D03*
X1180000Y274000D03*
X1190000D03*
X1200000Y222500D03*
Y274000D03*
X1218500Y222500D03*
X1228500D03*
X1218500Y274000D03*
X1228500D03*
X1238500Y222500D03*
Y274000D03*
G54D18*
X173094Y247500D03*
X161283D03*
X196717D03*
X184906D03*
G54D19*
X169748Y264508D03*
X188252D03*
M02*
