G04 ================== begin FILE IDENTIFICATION RECORD ==================*
G04 Layout Name:  //MAC/HOME/DESKTOP/SPB_DATA/CAPTURE/CIS_ATCS/allegro/ATCS_m2.brd*
G04 Film Name:    SILKBOTTOM*
G04 File Format:  Gerber RS274X*
G04 File Origin:  Cadence Allegro 17.2-P019*
G04 Origin Date:  Thu May 10 13:25:58 2018*
G04 *
G04 Layer:  PACKAGE GEOMETRY/SILKSCREEN_BOTTOM*
G04 Layer:  BOARD GEOMETRY/SILKSCREEN_BOTTOM*
G04 *
G04 Offset:    (0.00 0.00)*
G04 Mirror:    No*
G04 Mode:      Positive*
G04 Rotation:  0*
G04 FullContactRelief:  No*
G04 UndefLineWidth:     3.00*
G04 ================== end FILE IDENTIFICATION RECORD ====================*
%FSLAX55Y55*MOIN*%
%IR0*IPPOS*OFA0.00000B0.00000*MIA0B0*SFA1.00000B1.00000*%
%ADD10C,.01*%
%ADD11C,.016*%
%ADD12C,.02362*%
%ADD13C,.003*%
%ADD14C,.005*%
%ADD15C,.006*%
%ADD16C,.008*%
%ADD17C,.00394*%
%ADD18C,.00984*%
G75*
%LPD*%
G75*
G36*
G01X198700Y30300D02*
G03I-700J0D01*
G37*
G36*
G01Y79800D02*
G03I-700J0D01*
G37*
G36*
G01X199200Y139800D02*
G03I-700J0D01*
G37*
G36*
G01X222400Y205100D02*
X224600D01*
X222400Y202900D01*
Y205100D01*
G37*
G36*
G01X238700Y243700D02*
G03I-700J0D01*
G37*
G36*
G01X417000Y41293D02*
X415707Y40000D01*
X418293D01*
X417000Y41293D01*
G37*
G54D10*
G01X112207Y220000D02*
G03I-707J0D01*
G54D11*
G01X993800Y58700D02*
Y36300D01*
X806200D01*
Y58700D01*
X993800D01*
G54D12*
G01X423270Y130635D02*
G03I-1181J0D01*
G54D13*
G01X90100Y203900D02*
Y201100D01*
X83900D01*
Y203900D01*
X90100D01*
G01X84600Y225600D02*
X87400D01*
Y219400D01*
X84600D01*
Y225600D01*
G01X87400Y235400D02*
X84600D01*
Y241600D01*
X87400D01*
Y235400D01*
G01X94600Y242400D02*
Y239600D01*
X88400D01*
Y242400D01*
X94600D01*
G01X128900Y103100D02*
Y105900D01*
X135100D01*
Y103100D01*
X128900D01*
G01X117100Y225600D02*
X119900D01*
Y219400D01*
X117100D01*
Y225600D01*
G01X109900Y239600D02*
Y242400D01*
X116100D01*
Y239600D01*
X109900D01*
G01X119900Y235400D02*
X117100D01*
Y241600D01*
X119900D01*
Y235400D01*
G01X138600Y110400D02*
Y107600D01*
X132400D01*
Y110400D01*
X138600D01*
G01X174900Y127600D02*
Y130400D01*
X181100D01*
Y127600D01*
X174900D01*
G01X181100Y133900D02*
Y131100D01*
X174900D01*
Y133900D01*
X181100D01*
G01X175900Y166100D02*
Y168900D01*
X182100D01*
Y166100D01*
X175900D01*
G01X182100Y164900D02*
Y162100D01*
X175900D01*
Y164900D01*
X182100D01*
G01X209100Y199100D02*
X211900D01*
Y192900D01*
X209100D01*
Y199100D01*
G01X240900Y54400D02*
X238100D01*
Y60600D01*
X240900D01*
Y54400D01*
G01X252400Y219600D02*
Y222400D01*
X258600D01*
Y219600D01*
X252400D01*
G01X246100Y225900D02*
Y223100D01*
X239900D01*
Y225900D01*
X246100D01*
G01X243400Y245600D02*
Y248400D01*
X249600D01*
Y245600D01*
X243400D01*
G01X246100Y257900D02*
Y255100D01*
X239900D01*
Y257900D01*
X246100D01*
G01X281100Y145400D02*
Y142600D01*
X274900D01*
Y145400D01*
X281100D01*
G01X282100Y155900D02*
Y153100D01*
X275900D01*
Y155900D01*
X282100D01*
G01X270400Y205600D02*
Y208400D01*
X276600D01*
Y205600D01*
X270400D01*
G01X285900Y138900D02*
X283100D01*
Y145100D01*
X285900D01*
Y138900D01*
G01X303900Y201900D02*
X301100D01*
Y208100D01*
X303900D01*
Y201900D01*
G01X307900Y41600D02*
Y44400D01*
X314100D01*
Y41600D01*
X307900D01*
G01X316600Y58600D02*
X319400D01*
Y52400D01*
X316600D01*
Y58600D01*
G01X316400Y141100D02*
Y143900D01*
X322600D01*
Y141100D01*
X316400D01*
G01X317400Y151600D02*
Y154400D01*
X323600D01*
Y151600D01*
X317400D01*
G01X313600Y158100D02*
X316400D01*
Y151900D01*
X313600D01*
Y158100D01*
G01X315400Y255400D02*
X312600D01*
Y261600D01*
X315400D01*
Y255400D01*
G01X315600Y250900D02*
Y248100D01*
X309400D01*
Y250900D01*
X315600D01*
G01X408300Y44900D02*
X405500D01*
Y51100D01*
X408300D01*
Y44900D01*
G01X392900Y40100D02*
Y42900D01*
X399100D01*
Y40100D01*
X392900D01*
G01X408400Y37900D02*
X405600D01*
Y44100D01*
X408400D01*
Y37900D01*
G01X394900Y44900D02*
X392100D01*
Y51100D01*
X394900D01*
Y44900D01*
G01X398600Y55400D02*
Y52600D01*
X392400D01*
Y55400D01*
X398600D01*
G01X408400Y51900D02*
X405600D01*
Y58100D01*
X408400D01*
Y51900D01*
G01X571900Y234400D02*
X569100D01*
Y240600D01*
X571900D01*
Y234400D01*
G01X592400D02*
X589600D01*
Y240600D01*
X592400D01*
Y234400D01*
G01X621900D02*
X619100D01*
Y240600D01*
X621900D01*
Y234400D01*
G01X642400D02*
X639600D01*
Y240600D01*
X642400D01*
Y234400D01*
G01X671900D02*
X669100D01*
Y240600D01*
X671900D01*
Y234400D01*
G01X692400D02*
X689600D01*
Y240600D01*
X692400D01*
Y234400D01*
G01X707100Y368400D02*
Y365600D01*
X700900D01*
Y368400D01*
X707100D01*
G01X721900Y234400D02*
X719100D01*
Y240600D01*
X721900D01*
Y234400D01*
G01X713400Y365600D02*
Y368400D01*
X719600D01*
Y365600D01*
X713400D01*
G01X742400Y234400D02*
X739600D01*
Y240600D01*
X742400D01*
Y234400D01*
G01X836900Y364100D02*
Y366900D01*
X843100D01*
Y364100D01*
X836900D01*
G01X830600Y366900D02*
Y364100D01*
X824400D01*
Y366900D01*
X830600D01*
G01X1031100Y235900D02*
Y233100D01*
X1024900D01*
Y235900D01*
X1031100D01*
G01X1044100Y236900D02*
Y234100D01*
X1037900D01*
Y236900D01*
X1044100D01*
G01X1083100D02*
Y234100D01*
X1076900D01*
Y236900D01*
X1083100D01*
G01X1070100Y235900D02*
Y233100D01*
X1063900D01*
Y235900D01*
X1070100D01*
G01X1107900Y234900D02*
X1105100D01*
Y241100D01*
X1107900D01*
Y234900D01*
G01X1128400D02*
X1125600D01*
Y241100D01*
X1128400D01*
Y234900D01*
G01X1144900D02*
X1142100D01*
Y241100D01*
X1144900D01*
Y234900D01*
G01X1165400D02*
X1162600D01*
Y241100D01*
X1165400D01*
Y234900D01*
G01X1181900D02*
X1179100D01*
Y241100D01*
X1181900D01*
Y234900D01*
G01X1202400D02*
X1199600D01*
Y241100D01*
X1202400D01*
Y234900D01*
G01X1220400D02*
X1217600D01*
Y241100D01*
X1220400D01*
Y234900D01*
G01X1240900D02*
X1238100D01*
Y241100D01*
X1240900D01*
Y234900D01*
G01X6500Y246000D02*
X64500D01*
Y26000D01*
X43000D01*
X40500D01*
Y23500D01*
X30500D01*
Y26000D01*
X6500D01*
Y246000D01*
G01X95083Y101500D02*
X96617D01*
Y104600D01*
X95083D01*
G01X95697Y103102D02*
X96617D01*
G01X93555Y101500D02*
X91945Y104600D01*
G01X93555D02*
X91945Y101500D01*
G01X89650Y104600D02*
Y101500D01*
G01X90532Y104600D02*
X88768D01*
G01X84293Y101500D02*
Y104600D01*
X83527D01*
X83220Y104445D01*
X82990Y104238D01*
X82798Y103928D01*
X82645Y103567D01*
X82607Y103050D01*
X82645Y102533D01*
X82798Y102172D01*
X82990Y101862D01*
X83220Y101655D01*
X83527Y101500D01*
X84293D01*
G01X81308D02*
X80350Y104600D01*
X79392Y101500D01*
G01X79737Y102585D02*
X80963D01*
G01X76407Y104342D02*
X76637Y104497D01*
X76905Y104600D01*
X77212D01*
X77557Y104445D01*
X77825Y104187D01*
X78017Y103877D01*
X78170Y103360D01*
X78208Y102895D01*
X78132Y102430D01*
X78017Y102120D01*
X77787Y101810D01*
X77518Y101603D01*
X77250Y101500D01*
X76982D01*
X76713Y101603D01*
X76483Y101758D01*
X76292Y101965D01*
G01X72008Y104600D02*
X71050Y101500D01*
X70092Y104600D01*
G01X68717Y101500D02*
Y104600D01*
X67758D01*
X67452Y104445D01*
X67260Y104238D01*
X67183Y103825D01*
X67260Y103412D01*
X67490Y103153D01*
X67758Y102998D01*
X68717D01*
G01X67758D02*
X67183Y101500D01*
G01X64083D02*
X65617D01*
Y104600D01*
X64083D01*
G01X64697Y103102D02*
X65617D01*
G01X62478Y101500D02*
Y104600D01*
X61022D01*
G01X61558Y103102D02*
X62478D01*
G01X81808Y204100D02*
X80850Y201000D01*
X79892Y204100D01*
G01X76907Y203842D02*
X77137Y203997D01*
X77405Y204100D01*
X77712D01*
X78057Y203945D01*
X78325Y203687D01*
X78517Y203377D01*
X78670Y202860D01*
X78708Y202395D01*
X78632Y201930D01*
X78517Y201620D01*
X78287Y201310D01*
X78018Y201103D01*
X77750Y201000D01*
X77482D01*
X77213Y201103D01*
X76983Y201258D01*
X76792Y201465D01*
G01X73807Y203842D02*
X74037Y203997D01*
X74305Y204100D01*
X74612D01*
X74957Y203945D01*
X75225Y203687D01*
X75417Y203377D01*
X75570Y202860D01*
X75608Y202395D01*
X75532Y201930D01*
X75417Y201620D01*
X75187Y201310D01*
X74918Y201103D01*
X74650Y201000D01*
X74382D01*
X74113Y201103D01*
X73883Y201258D01*
X73692Y201465D01*
G01X72393D02*
X72163Y201207D01*
X71895Y201052D01*
X71550Y201000D01*
X71205Y201103D01*
X70937Y201310D01*
X70745Y201672D01*
X70707Y202085D01*
X70783Y202498D01*
X70975Y202757D01*
X71243Y202963D01*
X71512Y203015D01*
X71780Y202963D01*
X72125Y202757D01*
X72010Y204100D01*
X70975D01*
G01X94600Y225100D02*
Y236900D01*
X110400D01*
Y225100D01*
X94600D01*
G01X142308Y200600D02*
X141350Y197500D01*
X140392Y200600D01*
G01X137407Y200342D02*
X137637Y200497D01*
X137905Y200600D01*
X138212D01*
X138557Y200445D01*
X138825Y200187D01*
X139017Y199877D01*
X139170Y199360D01*
X139208Y198895D01*
X139132Y198430D01*
X139017Y198120D01*
X138787Y197810D01*
X138518Y197603D01*
X138250Y197500D01*
X137982D01*
X137713Y197603D01*
X137483Y197758D01*
X137292Y197965D01*
G01X134307Y200342D02*
X134537Y200497D01*
X134805Y200600D01*
X135112D01*
X135457Y200445D01*
X135725Y200187D01*
X135917Y199877D01*
X136070Y199360D01*
X136108Y198895D01*
X136032Y198430D01*
X135917Y198120D01*
X135687Y197810D01*
X135418Y197603D01*
X135150Y197500D01*
X134882D01*
X134613Y197603D01*
X134383Y197758D01*
X134192Y197965D01*
G01X132778Y200083D02*
X132548Y200393D01*
X132280Y200548D01*
X131973Y200600D01*
X131590Y200497D01*
X131322Y200238D01*
X131245Y199928D01*
X131283Y199618D01*
X131437Y199360D01*
X132203Y198843D01*
X132548Y198482D01*
X132778Y197965D01*
X132855Y197500D01*
X131245D01*
G01X129908Y200600D02*
X128950Y197500D01*
X127992Y200600D01*
G01X126693Y197965D02*
X126463Y197707D01*
X126195Y197552D01*
X125850Y197500D01*
X125505Y197603D01*
X125237Y197810D01*
X125045Y198172D01*
X125007Y198585D01*
X125083Y198998D01*
X125275Y199257D01*
X125543Y199463D01*
X125812Y199515D01*
X126080Y199463D01*
X126425Y199257D01*
X126310Y200600D01*
X125275D01*
G01X187600Y32600D02*
Y44400D01*
X199400D01*
Y32600D01*
X187600D01*
G01Y82100D02*
Y93900D01*
X199400D01*
Y82100D01*
X187600D01*
G01X188100Y142100D02*
Y153900D01*
X199900D01*
Y142100D01*
X188100D01*
G01X228308Y277000D02*
X227350Y280100D01*
X226392Y277000D01*
G01X226737Y278085D02*
X227963D01*
G01X225208Y280100D02*
X224250Y277000D01*
X223292Y280100D01*
G01X221993Y277000D02*
Y280100D01*
X221227D01*
X220920Y279945D01*
X220690Y279738D01*
X220498Y279428D01*
X220345Y279067D01*
X220307Y278550D01*
X220345Y278033D01*
X220498Y277672D01*
X220690Y277362D01*
X220920Y277155D01*
X221227Y277000D01*
X221993D01*
G01X218893D02*
Y280100D01*
X218127D01*
X217820Y279945D01*
X217590Y279738D01*
X217398Y279428D01*
X217245Y279067D01*
X217207Y278550D01*
X217245Y278033D01*
X217398Y277672D01*
X217590Y277362D01*
X217820Y277155D01*
X218127Y277000D01*
X218893D01*
G01X215793Y277465D02*
X215563Y277207D01*
X215295Y277052D01*
X214950Y277000D01*
X214605Y277103D01*
X214337Y277310D01*
X214145Y277672D01*
X214107Y278085D01*
X214183Y278498D01*
X214375Y278757D01*
X214643Y278963D01*
X214912Y279015D01*
X215180Y278963D01*
X215525Y278757D01*
X215410Y280100D01*
X214375D01*
G01X266308Y127100D02*
X265350Y124000D01*
X264392Y127100D01*
G01X263093Y124000D02*
Y127100D01*
X262327D01*
X262020Y126945D01*
X261790Y126738D01*
X261598Y126428D01*
X261445Y126067D01*
X261407Y125550D01*
X261445Y125033D01*
X261598Y124672D01*
X261790Y124362D01*
X262020Y124155D01*
X262327Y124000D01*
X263093D01*
G01X259993D02*
Y127100D01*
X259227D01*
X258920Y126945D01*
X258690Y126738D01*
X258498Y126428D01*
X258345Y126067D01*
X258307Y125550D01*
X258345Y125033D01*
X258498Y124672D01*
X258690Y124362D01*
X258920Y124155D01*
X259227Y124000D01*
X259993D01*
G01X256050D02*
Y127100D01*
X256510Y126480D01*
G01Y124000D02*
X255590D01*
G01X253908Y127100D02*
X252950Y124000D01*
X251992Y127100D01*
G01X250578Y126583D02*
X250348Y126893D01*
X250080Y127048D01*
X249773Y127100D01*
X249390Y126997D01*
X249122Y126738D01*
X249045Y126428D01*
X249083Y126118D01*
X249237Y125860D01*
X250003Y125343D01*
X250348Y124982D01*
X250578Y124465D01*
X250655Y124000D01*
X249045D01*
G01X247900Y122967D02*
X245600D01*
G01X243343Y125653D02*
X243190Y125808D01*
X243075Y126067D01*
X242998Y126428D01*
X243075Y126738D01*
X243228Y126945D01*
X243497Y127100D01*
X244532D01*
Y124000D01*
X243267D01*
X242998Y124207D01*
X242845Y124517D01*
X242768Y124878D01*
X242845Y125240D01*
X243075Y125550D01*
X243343Y125653D01*
X244532D01*
G01X241393Y127100D02*
Y124878D01*
X241240Y124413D01*
X240933Y124103D01*
X240550Y124000D01*
X240167Y124103D01*
X239860Y124413D01*
X239707Y124878D01*
Y127100D01*
G01X238178Y124000D02*
Y127100D01*
X236722D01*
G01X237258Y125602D02*
X238178D01*
G01X235078Y124000D02*
Y127100D01*
X233622D01*
G01X234158Y125602D02*
X235078D01*
G01X230483Y124000D02*
X232017D01*
Y127100D01*
X230483D01*
G01X231097Y125602D02*
X232017D01*
G01X228917Y124000D02*
Y127100D01*
X227958D01*
X227652Y126945D01*
X227460Y126738D01*
X227383Y126325D01*
X227460Y125912D01*
X227690Y125653D01*
X227958Y125498D01*
X228917D01*
G01X227958D02*
X227383Y124000D01*
G01X234600Y205100D02*
Y192900D01*
X222400D01*
Y205100D01*
X234600D01*
G01X248400Y241400D02*
Y229600D01*
X236600D01*
Y241400D01*
X248400D01*
G01X238620Y279050D02*
X237853D01*
Y278120D01*
X238083Y277810D01*
X238352Y277603D01*
X238735Y277500D01*
X239118Y277603D01*
X239387Y277810D01*
X239617Y278120D01*
X239770Y278482D01*
X239847Y278895D01*
Y279257D01*
X239770Y279567D01*
X239617Y279928D01*
X239387Y280238D01*
X239157Y280445D01*
X238850Y280600D01*
X238582D01*
X238275Y280497D01*
X238045Y280290D01*
G01X236632Y277500D02*
Y280600D01*
X234868Y277500D01*
Y280600D01*
G01X233493Y277500D02*
Y280600D01*
X232727D01*
X232420Y280445D01*
X232190Y280238D01*
X231998Y279928D01*
X231845Y279567D01*
X231807Y279050D01*
X231845Y278533D01*
X231998Y278172D01*
X232190Y277862D01*
X232420Y277655D01*
X232727Y277500D01*
X233493D01*
G01X250100Y83600D02*
X267900D01*
Y52400D01*
X250100D01*
Y83600D01*
G01X259094Y109154D02*
Y115846D01*
X270906D01*
Y109154D01*
X259094D01*
G01X251808Y206000D02*
X250850Y209100D01*
X249892Y206000D01*
G01X250237Y207085D02*
X251463D01*
G01X248708Y209100D02*
X247750Y206000D01*
X246792Y209100D01*
G01X243883Y206000D02*
X245417D01*
Y209100D01*
X243883D01*
G01X244497Y207602D02*
X245417D01*
G01X240783Y206000D02*
X242317D01*
Y209100D01*
X240783D01*
G01X241397Y207602D02*
X242317D01*
G01X259808Y261500D02*
X258850Y264600D01*
X257892Y261500D01*
G01X258237Y262585D02*
X259463D01*
G01X256708Y264600D02*
X255750Y261500D01*
X254792Y264600D01*
G01X251807Y264342D02*
X252037Y264497D01*
X252305Y264600D01*
X252612D01*
X252957Y264445D01*
X253225Y264187D01*
X253417Y263877D01*
X253570Y263360D01*
X253608Y262895D01*
X253532Y262430D01*
X253417Y262120D01*
X253187Y261810D01*
X252918Y261603D01*
X252650Y261500D01*
X252382D01*
X252113Y261603D01*
X251883Y261758D01*
X251692Y261965D01*
G01X248707Y264342D02*
X248937Y264497D01*
X249205Y264600D01*
X249512D01*
X249857Y264445D01*
X250125Y264187D01*
X250317Y263877D01*
X250470Y263360D01*
X250508Y262895D01*
X250432Y262430D01*
X250317Y262120D01*
X250087Y261810D01*
X249818Y261603D01*
X249550Y261500D01*
X249282D01*
X249013Y261603D01*
X248783Y261758D01*
X248592Y261965D01*
G01X264620Y281550D02*
X263853D01*
Y280620D01*
X264083Y280310D01*
X264352Y280103D01*
X264735Y280000D01*
X265118Y280103D01*
X265387Y280310D01*
X265617Y280620D01*
X265770Y280982D01*
X265847Y281395D01*
Y281757D01*
X265770Y282067D01*
X265617Y282428D01*
X265387Y282738D01*
X265157Y282945D01*
X264850Y283100D01*
X264582D01*
X264275Y282997D01*
X264045Y282790D01*
G01X262632Y280000D02*
Y283100D01*
X260868Y280000D01*
Y283100D01*
G01X259493Y280000D02*
Y283100D01*
X258727D01*
X258420Y282945D01*
X258190Y282738D01*
X257998Y282428D01*
X257845Y282067D01*
X257807Y281550D01*
X257845Y281033D01*
X257998Y280672D01*
X258190Y280362D01*
X258420Y280155D01*
X258727Y280000D01*
X259493D01*
G01X310083Y280500D02*
X311617D01*
Y283600D01*
X310083D01*
G01X310697Y282102D02*
X311617D01*
G01X308555Y280500D02*
X306945Y283600D01*
G01X308555D02*
X306945Y280500D01*
G01X304650Y283600D02*
Y280500D01*
G01X305532Y283600D02*
X303768D01*
G01X299408Y280500D02*
X298450Y283600D01*
X297492Y280500D01*
G01X297837Y281585D02*
X299063D01*
G01X296193Y280500D02*
Y283600D01*
X295427D01*
X295120Y283445D01*
X294890Y283238D01*
X294698Y282928D01*
X294545Y282567D01*
X294507Y282050D01*
X294545Y281533D01*
X294698Y281172D01*
X294890Y280862D01*
X295120Y280655D01*
X295427Y280500D01*
X296193D01*
G01X291407Y283342D02*
X291637Y283497D01*
X291905Y283600D01*
X292212D01*
X292557Y283445D01*
X292825Y283187D01*
X293017Y282877D01*
X293170Y282360D01*
X293208Y281895D01*
X293132Y281430D01*
X293017Y281120D01*
X292787Y280810D01*
X292518Y280603D01*
X292250Y280500D01*
X291982D01*
X291713Y280603D01*
X291483Y280758D01*
X291292Y280965D01*
G01X287008Y283600D02*
X286050Y280500D01*
X285092Y283600D01*
G01X283717Y280500D02*
Y283600D01*
X282758D01*
X282452Y283445D01*
X282260Y283238D01*
X282183Y282825D01*
X282260Y282412D01*
X282490Y282153D01*
X282758Y281998D01*
X283717D01*
G01X282758D02*
X282183Y280500D01*
G01X279083D02*
X280617D01*
Y283600D01*
X279083D01*
G01X279697Y282102D02*
X280617D01*
G01X277478Y280500D02*
Y283600D01*
X276022D01*
G01X276558Y282102D02*
X277478D01*
G01X347617Y11500D02*
Y14600D01*
X346658D01*
X346352Y14445D01*
X346160Y14238D01*
X346083Y13825D01*
X346160Y13412D01*
X346390Y13153D01*
X346658Y12998D01*
X347617D01*
G01X346658D02*
X346083Y11500D01*
G01X343750D02*
X344057Y11552D01*
X344325Y11758D01*
X344555Y12068D01*
X344708Y12430D01*
X344785Y12843D01*
Y13257D01*
X344708Y13670D01*
X344555Y14032D01*
X344325Y14342D01*
X344057Y14548D01*
X343750Y14600D01*
X343443Y14548D01*
X343175Y14342D01*
X342945Y14032D01*
X342792Y13670D01*
X342715Y13257D01*
Y12843D01*
X342792Y12430D01*
X342945Y12068D01*
X343175Y11758D01*
X343443Y11552D01*
X343750Y11500D01*
G01X341800Y10467D02*
X339500D01*
G01X338317Y11500D02*
Y14600D01*
X337397D01*
X337090Y14445D01*
X336860Y14083D01*
X336783Y13670D01*
X336860Y13257D01*
X337052Y12947D01*
X337397Y12792D01*
X338317D01*
G01X334220Y13050D02*
X333453D01*
Y12120D01*
X333683Y11810D01*
X333952Y11603D01*
X334335Y11500D01*
X334718Y11603D01*
X334987Y11810D01*
X335217Y12120D01*
X335370Y12482D01*
X335447Y12895D01*
Y13257D01*
X335370Y13567D01*
X335217Y13928D01*
X334987Y14238D01*
X334757Y14445D01*
X334450Y14600D01*
X334182D01*
X333875Y14497D01*
X333645Y14290D01*
G01X332500Y10467D02*
X330200D01*
G01X328250Y11500D02*
X328557Y11552D01*
X328825Y11758D01*
X329055Y12068D01*
X329208Y12430D01*
X329285Y12843D01*
Y13257D01*
X329208Y13670D01*
X329055Y14032D01*
X328825Y14342D01*
X328557Y14548D01*
X328250Y14600D01*
X327943Y14548D01*
X327675Y14342D01*
X327445Y14032D01*
X327292Y13670D01*
X327215Y13257D01*
Y12843D01*
X327292Y12430D01*
X327445Y12068D01*
X327675Y11758D01*
X327943Y11552D01*
X328250Y11500D01*
G01X333100Y83600D02*
X350900D01*
Y52400D01*
X333100D01*
Y83600D01*
G01X428220Y31217D02*
X455780D01*
Y-4217D01*
X428220D01*
Y31217D01*
G01X410563Y45539D02*
Y50461D01*
X418437D01*
Y45539D01*
X410563D01*
G01X434700Y91500D02*
X422100D01*
Y104100D01*
X434700D01*
Y91500D01*
G01X457220Y31217D02*
X484780D01*
Y-4217D01*
X457220D01*
Y31217D01*
G01X479308Y40600D02*
X478350Y37500D01*
X477392Y40600D01*
G01X474483Y37500D02*
X476017D01*
Y40600D01*
X474483D01*
G01X475097Y39102D02*
X476017D01*
G01X471383Y37500D02*
X472917D01*
Y40600D01*
X471383D01*
G01X471997Y39102D02*
X472917D01*
G01X469893Y37965D02*
X469663Y37707D01*
X469395Y37552D01*
X469050Y37500D01*
X468705Y37603D01*
X468437Y37810D01*
X468245Y38172D01*
X468207Y38585D01*
X468283Y38998D01*
X468475Y39257D01*
X468743Y39463D01*
X469012Y39515D01*
X469280Y39463D01*
X469625Y39257D01*
X469510Y40600D01*
X468475D01*
G01X474120Y279050D02*
X473353D01*
Y278120D01*
X473583Y277810D01*
X473852Y277603D01*
X474235Y277500D01*
X474618Y277603D01*
X474887Y277810D01*
X475117Y278120D01*
X475270Y278482D01*
X475347Y278895D01*
Y279257D01*
X475270Y279567D01*
X475117Y279928D01*
X474887Y280238D01*
X474657Y280445D01*
X474350Y280600D01*
X474082D01*
X473775Y280497D01*
X473545Y280290D01*
G01X472132Y277500D02*
Y280600D01*
X470368Y277500D01*
Y280600D01*
G01X468993Y277500D02*
Y280600D01*
X468227D01*
X467920Y280445D01*
X467690Y280238D01*
X467498Y279928D01*
X467345Y279567D01*
X467307Y279050D01*
X467345Y278533D01*
X467498Y278172D01*
X467690Y277862D01*
X467920Y277655D01*
X468227Y277500D01*
X468993D01*
G01X495308Y54600D02*
X494350Y51500D01*
X493392Y54600D01*
G01X492093Y51500D02*
Y54600D01*
X491327D01*
X491020Y54445D01*
X490790Y54238D01*
X490598Y53928D01*
X490445Y53567D01*
X490407Y53050D01*
X490445Y52533D01*
X490598Y52172D01*
X490790Y51862D01*
X491020Y51655D01*
X491327Y51500D01*
X492093D01*
G01X488993D02*
Y54600D01*
X488227D01*
X487920Y54445D01*
X487690Y54238D01*
X487498Y53928D01*
X487345Y53567D01*
X487307Y53050D01*
X487345Y52533D01*
X487498Y52172D01*
X487690Y51862D01*
X487920Y51655D01*
X488227Y51500D01*
X488993D01*
G01X485817D02*
Y54600D01*
X484858D01*
X484552Y54445D01*
X484360Y54238D01*
X484283Y53825D01*
X484360Y53412D01*
X484590Y53153D01*
X484858Y52998D01*
X485817D01*
G01X484858D02*
X484283Y51500D01*
G01X482717Y54600D02*
Y51500D01*
X481183D01*
G01X494620Y63550D02*
X493853D01*
Y62620D01*
X494083Y62310D01*
X494352Y62103D01*
X494735Y62000D01*
X495118Y62103D01*
X495387Y62310D01*
X495617Y62620D01*
X495770Y62982D01*
X495847Y63395D01*
Y63757D01*
X495770Y64067D01*
X495617Y64428D01*
X495387Y64738D01*
X495157Y64945D01*
X494850Y65100D01*
X494582D01*
X494275Y64997D01*
X494045Y64790D01*
G01X492632Y62000D02*
Y65100D01*
X490868Y62000D01*
Y65100D01*
G01X489493Y62000D02*
Y65100D01*
X488727D01*
X488420Y64945D01*
X488190Y64738D01*
X487998Y64428D01*
X487845Y64067D01*
X487807Y63550D01*
X487845Y63033D01*
X487998Y62672D01*
X488190Y62362D01*
X488420Y62155D01*
X488727Y62000D01*
X489493D01*
G01X513655Y70913D02*
X513348Y70655D01*
X513003Y70500D01*
X512697D01*
X512390Y70655D01*
X512160Y70913D01*
X512045Y71275D01*
X512122Y71637D01*
X512313Y71947D01*
X512658Y72153D01*
X513118Y72257D01*
X513387Y72463D01*
X513502Y72825D01*
X513425Y73187D01*
X513233Y73445D01*
X512965Y73600D01*
X512697D01*
X512428Y73497D01*
X512198Y73238D01*
G01X509750Y70500D02*
X510057Y70552D01*
X510325Y70758D01*
X510555Y71068D01*
X510708Y71430D01*
X510785Y71843D01*
Y72257D01*
X510708Y72670D01*
X510555Y73032D01*
X510325Y73342D01*
X510057Y73548D01*
X509750Y73600D01*
X509443Y73548D01*
X509175Y73342D01*
X508945Y73032D01*
X508792Y72670D01*
X508715Y72257D01*
Y71843D01*
X508792Y71430D01*
X508945Y71068D01*
X509175Y70758D01*
X509443Y70552D01*
X509750Y70500D01*
G01X507493Y73600D02*
Y71378D01*
X507340Y70913D01*
X507033Y70603D01*
X506650Y70500D01*
X506267Y70603D01*
X505960Y70913D01*
X505807Y71378D01*
Y73600D01*
G01X504317Y70500D02*
Y73600D01*
X503358D01*
X503052Y73445D01*
X502860Y73238D01*
X502783Y72825D01*
X502860Y72412D01*
X503090Y72153D01*
X503358Y71998D01*
X504317D01*
G01X503358D02*
X502783Y70500D01*
G01X499607Y73342D02*
X499837Y73497D01*
X500105Y73600D01*
X500412D01*
X500757Y73445D01*
X501025Y73187D01*
X501217Y72877D01*
X501370Y72360D01*
X501408Y71895D01*
X501332Y71430D01*
X501217Y71120D01*
X500987Y70810D01*
X500718Y70603D01*
X500450Y70500D01*
X500182D01*
X499913Y70603D01*
X499683Y70758D01*
X499492Y70965D01*
G01X496583Y70500D02*
X498117D01*
Y73600D01*
X496583D01*
G01X497197Y72102D02*
X498117D01*
G01X499693Y130000D02*
Y133100D01*
X498927D01*
X498620Y132945D01*
X498390Y132738D01*
X498198Y132428D01*
X498045Y132067D01*
X498007Y131550D01*
X498045Y131033D01*
X498198Y130672D01*
X498390Y130362D01*
X498620Y130155D01*
X498927Y130000D01*
X499693D01*
G01X496517D02*
Y133100D01*
X495558D01*
X495252Y132945D01*
X495060Y132738D01*
X494983Y132325D01*
X495060Y131912D01*
X495290Y131653D01*
X495558Y131498D01*
X496517D01*
G01X495558D02*
X494983Y130000D01*
G01X493608D02*
X492650Y133100D01*
X491692Y130000D01*
G01X492037Y131085D02*
X493263D01*
G01X490010Y133100D02*
X489090D01*
G01X489550D02*
Y130000D01*
G01X490010D02*
X489090D01*
G01X487332D02*
Y133100D01*
X485568Y130000D01*
Y133100D01*
G01X492120Y169050D02*
X491353D01*
Y168120D01*
X491583Y167810D01*
X491852Y167603D01*
X492235Y167500D01*
X492618Y167603D01*
X492887Y167810D01*
X493117Y168120D01*
X493270Y168482D01*
X493347Y168895D01*
Y169257D01*
X493270Y169567D01*
X493117Y169928D01*
X492887Y170238D01*
X492657Y170445D01*
X492350Y170600D01*
X492082D01*
X491775Y170497D01*
X491545Y170290D01*
G01X490132Y167500D02*
Y170600D01*
X488368Y167500D01*
Y170600D01*
G01X486993Y167500D02*
Y170600D01*
X486227D01*
X485920Y170445D01*
X485690Y170238D01*
X485498Y169928D01*
X485345Y169567D01*
X485307Y169050D01*
X485345Y168533D01*
X485498Y168172D01*
X485690Y167862D01*
X485920Y167655D01*
X486227Y167500D01*
X486993D01*
G01X495808Y183100D02*
X494850Y180000D01*
X493892Y183100D01*
G01X490907Y182842D02*
X491137Y182997D01*
X491405Y183100D01*
X491712D01*
X492057Y182945D01*
X492325Y182687D01*
X492517Y182377D01*
X492670Y181860D01*
X492708Y181395D01*
X492632Y180930D01*
X492517Y180620D01*
X492287Y180310D01*
X492018Y180103D01*
X491750Y180000D01*
X491482D01*
X491213Y180103D01*
X490983Y180258D01*
X490792Y180465D01*
G01X487807Y182842D02*
X488037Y182997D01*
X488305Y183100D01*
X488612D01*
X488957Y182945D01*
X489225Y182687D01*
X489417Y182377D01*
X489570Y181860D01*
X489608Y181395D01*
X489532Y180930D01*
X489417Y180620D01*
X489187Y180310D01*
X488918Y180103D01*
X488650Y180000D01*
X488382D01*
X488113Y180103D01*
X487883Y180258D01*
X487692Y180465D01*
G01X486393D02*
X486163Y180207D01*
X485895Y180052D01*
X485550Y180000D01*
X485205Y180103D01*
X484937Y180310D01*
X484745Y180672D01*
X484707Y181085D01*
X484783Y181498D01*
X484975Y181757D01*
X485243Y181963D01*
X485512Y182015D01*
X485780Y181963D01*
X486125Y181757D01*
X486010Y183100D01*
X484975D01*
G01X494620Y197050D02*
X493853D01*
Y196120D01*
X494083Y195810D01*
X494352Y195603D01*
X494735Y195500D01*
X495118Y195603D01*
X495387Y195810D01*
X495617Y196120D01*
X495770Y196482D01*
X495847Y196895D01*
Y197257D01*
X495770Y197567D01*
X495617Y197928D01*
X495387Y198238D01*
X495157Y198445D01*
X494850Y198600D01*
X494582D01*
X494275Y198497D01*
X494045Y198290D01*
G01X492632Y195500D02*
Y198600D01*
X490868Y195500D01*
Y198600D01*
G01X489493Y195500D02*
Y198600D01*
X488727D01*
X488420Y198445D01*
X488190Y198238D01*
X487998Y197928D01*
X487845Y197567D01*
X487807Y197050D01*
X487845Y196533D01*
X487998Y196172D01*
X488190Y195862D01*
X488420Y195655D01*
X488727Y195500D01*
X489493D01*
G01X513308Y221100D02*
X512350Y218000D01*
X511392Y221100D01*
G01X508407Y220842D02*
X508637Y220997D01*
X508905Y221100D01*
X509212D01*
X509557Y220945D01*
X509825Y220687D01*
X510017Y220377D01*
X510170Y219860D01*
X510208Y219395D01*
X510132Y218930D01*
X510017Y218620D01*
X509787Y218310D01*
X509518Y218103D01*
X509250Y218000D01*
X508982D01*
X508713Y218103D01*
X508483Y218258D01*
X508292Y218465D01*
G01X505307Y220842D02*
X505537Y220997D01*
X505805Y221100D01*
X506112D01*
X506457Y220945D01*
X506725Y220687D01*
X506917Y220377D01*
X507070Y219860D01*
X507108Y219395D01*
X507032Y218930D01*
X506917Y218620D01*
X506687Y218310D01*
X506418Y218103D01*
X506150Y218000D01*
X505882D01*
X505613Y218103D01*
X505383Y218258D01*
X505192Y218465D01*
G01X503778Y220583D02*
X503548Y220893D01*
X503280Y221048D01*
X502973Y221100D01*
X502590Y220997D01*
X502322Y220738D01*
X502245Y220428D01*
X502283Y220118D01*
X502437Y219860D01*
X503203Y219343D01*
X503548Y218982D01*
X503778Y218465D01*
X503855Y218000D01*
X502245D01*
G01X500908Y221100D02*
X499950Y218000D01*
X498992Y221100D01*
G01X497693Y218465D02*
X497463Y218207D01*
X497195Y218052D01*
X496850Y218000D01*
X496505Y218103D01*
X496237Y218310D01*
X496045Y218672D01*
X496007Y219085D01*
X496083Y219498D01*
X496275Y219757D01*
X496543Y219963D01*
X496812Y220015D01*
X497080Y219963D01*
X497425Y219757D01*
X497310Y221100D01*
X496275D01*
G01X506620Y30550D02*
X505853D01*
Y29620D01*
X506083Y29310D01*
X506352Y29103D01*
X506735Y29000D01*
X507118Y29103D01*
X507387Y29310D01*
X507617Y29620D01*
X507770Y29982D01*
X507847Y30395D01*
Y30757D01*
X507770Y31067D01*
X507617Y31428D01*
X507387Y31738D01*
X507157Y31945D01*
X506850Y32100D01*
X506582D01*
X506275Y31997D01*
X506045Y31790D01*
G01X504632Y29000D02*
Y32100D01*
X502868Y29000D01*
Y32100D01*
G01X501493Y29000D02*
Y32100D01*
X500727D01*
X500420Y31945D01*
X500190Y31738D01*
X499998Y31428D01*
X499845Y31067D01*
X499807Y30550D01*
X499845Y30033D01*
X499998Y29672D01*
X500190Y29362D01*
X500420Y29155D01*
X500727Y29000D01*
X501493D01*
G01X511620Y80550D02*
X510853D01*
Y79620D01*
X511083Y79310D01*
X511352Y79103D01*
X511735Y79000D01*
X512118Y79103D01*
X512387Y79310D01*
X512617Y79620D01*
X512770Y79982D01*
X512847Y80395D01*
Y80757D01*
X512770Y81067D01*
X512617Y81428D01*
X512387Y81738D01*
X512157Y81945D01*
X511850Y82100D01*
X511582D01*
X511275Y81997D01*
X511045Y81790D01*
G01X509632Y79000D02*
Y82100D01*
X507868Y79000D01*
Y82100D01*
G01X506493Y79000D02*
Y82100D01*
X505727D01*
X505420Y81945D01*
X505190Y81738D01*
X504998Y81428D01*
X504845Y81067D01*
X504807Y80550D01*
X504845Y80033D01*
X504998Y79672D01*
X505190Y79362D01*
X505420Y79155D01*
X505727Y79000D01*
X506493D01*
G01X507620Y107050D02*
X506853D01*
Y106120D01*
X507083Y105810D01*
X507352Y105603D01*
X507735Y105500D01*
X508118Y105603D01*
X508387Y105810D01*
X508617Y106120D01*
X508770Y106482D01*
X508847Y106895D01*
Y107257D01*
X508770Y107567D01*
X508617Y107928D01*
X508387Y108238D01*
X508157Y108445D01*
X507850Y108600D01*
X507582D01*
X507275Y108497D01*
X507045Y108290D01*
G01X505708Y105500D02*
X504750Y108600D01*
X503792Y105500D01*
G01X504137Y106585D02*
X505363D01*
G01X501650Y108600D02*
Y105500D01*
G01X502532Y108600D02*
X500768D01*
G01X497783Y105500D02*
X499317D01*
Y108600D01*
X497783D01*
G01X498397Y107102D02*
X499317D01*
G01X508808Y245000D02*
X507850Y248100D01*
X506892Y245000D01*
G01X507237Y246085D02*
X508463D01*
G01X505708Y248100D02*
X504750Y245000D01*
X503792Y248100D01*
G01X500883Y245000D02*
X502417D01*
Y248100D01*
X500883D01*
G01X501497Y246602D02*
X502417D01*
G01X497783Y245000D02*
X499317D01*
Y248100D01*
X497783D01*
G01X498397Y246602D02*
X499317D01*
G01X993800Y171700D02*
Y149300D01*
X806200D01*
Y171700D01*
X993800D01*
G54D14*
G01X262500Y152000D02*
Y147000D01*
X273500D01*
Y152000D01*
X262500D01*
G01X264663Y151100D02*
G03I-1063J0D01*
G01X336000Y145000D02*
Y150000D01*
X325000D01*
Y145000D01*
X336000D01*
G01X335963Y145900D02*
G03I-1063J0D01*
G01X386000Y91000D02*
G03I-1000J0D01*
G01X383000Y93000D02*
X403000D01*
Y81000D01*
X383000D01*
Y93000D01*
G54D15*
G01X240414Y52000D02*
G03I-1414J0D01*
G01X323414D02*
G03I-1414J0D01*
G54D16*
G01X139094Y112319D02*
Y114681D01*
X150906D01*
Y112319D01*
X139094D01*
G01X317594Y268819D02*
Y271181D01*
X329406D01*
Y268819D01*
X317594D01*
G01X391774Y126698D02*
Y138902D01*
X426026D01*
Y126698D01*
X391774D01*
G01X430594Y119819D02*
Y122181D01*
X442406D01*
Y119819D01*
X430594D01*
G54D17*
G01X79413Y214787D02*
Y217543D01*
X93587D01*
Y210457D01*
X79413D01*
Y212819D01*
G01X91200Y227300D02*
X92400D01*
Y218900D01*
X88800D01*
Y227300D01*
X90000D01*
G01X96350Y217299D02*
X102650D01*
Y204701D01*
X96350D01*
Y217299D01*
G01X87413Y247787D02*
Y250543D01*
X101587D01*
Y243457D01*
X87413D01*
Y245819D01*
G01X117587Y246213D02*
Y243457D01*
X103413D01*
Y250543D01*
X117587D01*
Y248181D01*
G01X114700Y227300D02*
X115900D01*
Y218900D01*
X112300D01*
Y227300D01*
X113500D01*
G01X125087Y213213D02*
Y210457D01*
X110913D01*
Y217543D01*
X125087D01*
Y215181D01*
G01X153587Y65213D02*
Y62457D01*
X139413D01*
Y69543D01*
X153587D01*
Y67181D01*
G01Y144713D02*
Y141957D01*
X139413D01*
Y149043D01*
X153587D01*
Y146681D01*
G01X158661Y236437D02*
Y228563D01*
X141339D01*
Y236437D01*
X158661D01*
G01X172094Y42055D02*
Y40441D01*
X183906D01*
Y45559D01*
X172094D01*
Y43669D01*
G01X170413Y36787D02*
Y39543D01*
X184587D01*
Y32457D01*
X170413D01*
Y34819D01*
G01X172094Y91555D02*
Y89941D01*
X183906D01*
Y95059D01*
X172094D01*
Y93169D01*
G01X170413Y86287D02*
Y89043D01*
X184587D01*
Y81957D01*
X170413D01*
Y84319D01*
G01X165100Y115700D02*
X166300D01*
Y107300D01*
X162700D01*
Y115700D01*
X163900D01*
G01X157787Y120087D02*
X160543D01*
Y105913D01*
X153457D01*
Y120087D01*
X155819D01*
G01X172594Y151555D02*
Y149941D01*
X184406D01*
Y155059D01*
X172594D01*
Y153169D01*
G01X170913Y146287D02*
Y149043D01*
X185087D01*
Y141957D01*
X170913D01*
Y144319D01*
G01X200900Y25000D02*
Y23800D01*
X192500D01*
Y27400D01*
X200900D01*
Y26200D01*
G01X191688Y17738D02*
X202712D01*
Y22462D01*
X191688D01*
Y17738D01*
G01X187362Y17288D02*
Y28312D01*
X182638D01*
Y17288D01*
X187362D01*
G01X198900Y52000D02*
Y50800D01*
X190500D01*
Y54400D01*
X198900D01*
Y53200D01*
G01X183638Y60812D02*
Y49788D01*
X188362D01*
Y60812D01*
X183638D01*
G01X189688Y56238D02*
X200712D01*
Y60962D01*
X189688D01*
Y56238D01*
G01X187362Y66788D02*
Y77812D01*
X182638D01*
Y66788D01*
X187362D01*
G01X191688Y67238D02*
X202712D01*
Y71962D01*
X191688D01*
Y67238D01*
G01X200900Y74500D02*
Y73300D01*
X192500D01*
Y76900D01*
X200900D01*
Y75700D01*
G01X198900Y101500D02*
Y100300D01*
X190500D01*
Y103900D01*
X198900D01*
Y102700D01*
G01X189688Y105738D02*
X200712D01*
Y110462D01*
X189688D01*
Y105738D01*
G01X183638Y110312D02*
Y99288D01*
X188362D01*
Y110312D01*
X183638D01*
G01X201400Y134500D02*
Y133300D01*
X193000D01*
Y136900D01*
X201400D01*
Y135700D01*
G01X192188Y127238D02*
X203212D01*
Y131962D01*
X192188D01*
Y127238D01*
G01X187862Y126788D02*
Y137812D01*
X183138D01*
Y126788D01*
X187862D01*
G01X199400Y161500D02*
Y160300D01*
X191000D01*
Y163900D01*
X199400D01*
Y162700D01*
G01X190188Y165738D02*
X201212D01*
Y170462D01*
X190188D01*
Y165738D01*
G01X184138Y170312D02*
Y159288D01*
X188862D01*
Y170312D01*
X184138D01*
G01X205838Y28612D02*
Y17588D01*
X210562D01*
Y28612D01*
X205838D01*
G01X216906Y35445D02*
Y37059D01*
X205094D01*
Y31941D01*
X216906D01*
Y33831D01*
G01X218087Y40713D02*
Y37957D01*
X203913D01*
Y45043D01*
X218087D01*
Y42681D01*
G01X210062Y50088D02*
Y61112D01*
X205338D01*
Y50088D01*
X210062D01*
G01X205838Y78112D02*
Y67088D01*
X210562D01*
Y78112D01*
X205838D01*
G01X216906Y84945D02*
Y86559D01*
X205094D01*
Y81441D01*
X216906D01*
Y83331D01*
G01X218087Y90213D02*
Y87457D01*
X203913D01*
Y94543D01*
X218087D01*
Y92181D01*
G01X210062Y99588D02*
Y110612D01*
X205338D01*
Y99588D01*
X210062D01*
G01X206338Y138112D02*
Y127088D01*
X211062D01*
Y138112D01*
X206338D01*
G01X217406Y144945D02*
Y146559D01*
X205594D01*
Y141441D01*
X217406D01*
Y143331D01*
G01X218587Y150213D02*
Y147457D01*
X204413D01*
Y154543D01*
X218587D01*
Y152181D01*
G01X210562Y159588D02*
Y170612D01*
X205838D01*
Y159588D01*
X210562D01*
G01X200839Y228563D02*
Y236437D01*
X218161D01*
Y228563D01*
X200839D01*
G01X222287Y31087D02*
X225043D01*
Y16913D01*
X217957D01*
Y31087D01*
X220319D01*
G01X220713Y47413D02*
X217957D01*
Y61587D01*
X225043D01*
Y47413D01*
X222681D01*
G01X222287Y80587D02*
X225043D01*
Y66413D01*
X217957D01*
Y80587D01*
X220319D01*
G01X220713Y96913D02*
X217957D01*
Y111087D01*
X225043D01*
Y96913D01*
X222681D01*
G01X222787Y140587D02*
X225543D01*
Y126413D01*
X218457D01*
Y140587D01*
X220819D01*
G01X221213Y156913D02*
X218457D01*
Y171087D01*
X225543D01*
Y156913D01*
X223181D01*
G01X230094Y246055D02*
Y244441D01*
X241906D01*
Y249559D01*
X230094D01*
Y247669D01*
G01X253200Y45900D02*
Y44700D01*
X244800D01*
Y48300D01*
X253200D01*
Y47100D01*
G01X256787Y150587D02*
X259543D01*
Y136413D01*
X252457D01*
Y150587D01*
X254819D01*
G01X254100Y232200D02*
X255300D01*
Y223800D01*
X251700D01*
Y232200D01*
X252900D01*
G01X252087Y213213D02*
Y210457D01*
X237913D01*
Y217543D01*
X252087D01*
Y215181D01*
G01X264300Y47100D02*
Y48300D01*
X272700D01*
Y44700D01*
X264300D01*
Y45900D01*
G01X259800Y100600D02*
Y101800D01*
X268200D01*
Y98200D01*
X259800D01*
Y99400D01*
G01X277700Y138900D02*
Y137700D01*
X269300D01*
Y141300D01*
X277700D01*
Y140100D01*
G01X284200Y149900D02*
Y148700D01*
X275800D01*
Y152300D01*
X284200D01*
Y151100D01*
G01X267900Y214800D02*
X266700D01*
Y223200D01*
X270300D01*
Y214800D01*
X269100D01*
G01X281900D02*
X280700D01*
Y223200D01*
X284300D01*
Y214800D01*
X283100D01*
G01X262900D02*
X261700D01*
Y223200D01*
X265300D01*
Y214800D01*
X264100D01*
G01X272400D02*
X271200D01*
Y223200D01*
X274800D01*
Y214800D01*
X273600D01*
G01X277400D02*
X276200D01*
Y223200D01*
X279800D01*
Y214800D01*
X278600D01*
G01X296400D02*
X295200D01*
Y223200D01*
X298800D01*
Y214800D01*
X297600D01*
G01X300900D02*
X299700D01*
Y223200D01*
X303300D01*
Y214800D01*
X302100D01*
G01X291400D02*
X290200D01*
Y223200D01*
X293800D01*
Y214800D01*
X292600D01*
G01X286900D02*
X285700D01*
Y223200D01*
X289300D01*
Y214800D01*
X288100D01*
G01X295900Y262300D02*
X294700D01*
Y270700D01*
X298300D01*
Y262300D01*
X297100D01*
G01X320800Y158100D02*
Y159300D01*
X329200D01*
Y155700D01*
X320800D01*
Y156900D01*
G01X314300Y147100D02*
Y148300D01*
X322700D01*
Y144700D01*
X314300D01*
Y145900D01*
G01X324900Y214800D02*
X323700D01*
Y223200D01*
X327300D01*
Y214800D01*
X326100D01*
G01X305900D02*
X304700D01*
Y223200D01*
X308300D01*
Y214800D01*
X307100D01*
G01X310400D02*
X309200D01*
Y223200D01*
X312800D01*
Y214800D01*
X311600D01*
G01X319900D02*
X318700D01*
Y223200D01*
X322300D01*
Y214800D01*
X321100D01*
G01X315400D02*
X314200D01*
Y223200D01*
X317800D01*
Y214800D01*
X316600D01*
G01X336587Y256713D02*
Y253957D01*
X322413D01*
Y261043D01*
X336587D01*
Y258681D01*
G01X336700Y45900D02*
Y44700D01*
X328300D01*
Y48300D01*
X336700D01*
Y47100D01*
G01X341713Y146413D02*
X338957D01*
Y160587D01*
X346043D01*
Y146413D01*
X343681D01*
G01X334400Y214800D02*
X333200D01*
Y223200D01*
X336800D01*
Y214800D01*
X335600D01*
G01X329400D02*
X328200D01*
Y223200D01*
X331800D01*
Y214800D01*
X330600D01*
G01X342400D02*
X341200D01*
Y223200D01*
X344800D01*
Y214800D01*
X343600D01*
G01Y272200D02*
X344800D01*
Y263800D01*
X341200D01*
Y272200D01*
X342400D01*
G01X336287Y276587D02*
X339043D01*
Y262413D01*
X331957D01*
Y276587D01*
X334319D01*
G01X347800Y47100D02*
Y48300D01*
X356200D01*
Y44700D01*
X347800D01*
Y45900D01*
G01X347400Y214800D02*
X346200D01*
Y223200D01*
X349800D01*
Y214800D01*
X348600D01*
G01X361400D02*
X360200D01*
Y223200D01*
X363800D01*
Y214800D01*
X362600D01*
G01X356900D02*
X355700D01*
Y223200D01*
X359300D01*
Y214800D01*
X358100D01*
G01X351900D02*
X350700D01*
Y223200D01*
X354300D01*
Y214800D01*
X353100D01*
G01X366400D02*
X365200D01*
Y223200D01*
X368800D01*
Y214800D01*
X367600D01*
G01X393512Y106862D02*
X382488D01*
Y102138D01*
X393512D01*
Y106862D01*
G01X370900Y214800D02*
X369700D01*
Y223200D01*
X373300D01*
Y214800D01*
X372100D01*
G01X380400D02*
X379200D01*
Y223200D01*
X382800D01*
Y214800D01*
X381600D01*
G01X389900D02*
X388700D01*
Y223200D01*
X392300D01*
Y214800D01*
X391100D01*
G01X385400D02*
X384200D01*
Y223200D01*
X387800D01*
Y214800D01*
X386600D01*
G01X375900D02*
X374700D01*
Y223200D01*
X378300D01*
Y214800D01*
X377100D01*
G01X375400Y262300D02*
X374200D01*
Y270700D01*
X377800D01*
Y262300D01*
X376600D01*
G01X404200Y44900D02*
Y43700D01*
X395800D01*
Y47300D01*
X404200D01*
Y46100D01*
G01Y49400D02*
Y48200D01*
X395800D01*
Y51800D01*
X404200D01*
Y50600D01*
G01X419012Y84362D02*
X407988D01*
Y79638D01*
X419012D01*
Y84362D01*
G01X404488Y91638D02*
X415512D01*
Y96362D01*
X404488D01*
Y91638D01*
G01X407200Y101900D02*
Y103100D01*
X415600D01*
Y99500D01*
X407200D01*
Y100700D01*
G01X404400Y214800D02*
X403200D01*
Y223200D01*
X406800D01*
Y214800D01*
X405600D01*
G01X399400D02*
X398200D01*
Y223200D01*
X401800D01*
Y214800D01*
X400600D01*
G01X408900D02*
X407700D01*
Y223200D01*
X411300D01*
Y214800D01*
X410100D01*
G01X394900D02*
X393700D01*
Y223200D01*
X397300D01*
Y214800D01*
X396100D01*
G01X416087Y256713D02*
Y253957D01*
X401913D01*
Y261043D01*
X416087D01*
Y258681D01*
G01X430987Y58713D02*
Y55957D01*
X416813D01*
Y63043D01*
X430987D01*
Y60681D01*
G01X430700Y76900D02*
Y78100D01*
X439100D01*
Y74500D01*
X430700D01*
Y75700D01*
G01X426313Y83587D02*
Y86343D01*
X440487D01*
Y79257D01*
X426313D01*
Y81619D01*
G01X419488Y108538D02*
X430512D01*
Y113262D01*
X419488D01*
Y108538D01*
G01X426400Y214800D02*
X425200D01*
Y223200D01*
X428800D01*
Y214800D01*
X427600D01*
G01X430900D02*
X429700D01*
Y223200D01*
X433300D01*
Y214800D01*
X432100D01*
G01X421400D02*
X420200D01*
Y223200D01*
X423800D01*
Y214800D01*
X422600D01*
G01X413900D02*
X412700D01*
Y223200D01*
X416300D01*
Y214800D01*
X415100D01*
G01X441100Y110200D02*
Y109000D01*
X432700D01*
Y112600D01*
X441100D01*
Y111400D01*
G01X435900Y214800D02*
X434700D01*
Y223200D01*
X438300D01*
Y214800D01*
X437100D01*
G01X440400D02*
X439200D01*
Y223200D01*
X442800D01*
Y214800D01*
X441600D01*
G01X445400D02*
X444200D01*
Y223200D01*
X447800D01*
Y214800D01*
X446600D01*
G01X449900D02*
X448700D01*
Y223200D01*
X452300D01*
Y214800D01*
X451100D01*
G01X454400Y262300D02*
X453200D01*
Y270700D01*
X456800D01*
Y262300D01*
X455600D01*
G01X459400Y214800D02*
X458200D01*
Y223200D01*
X461800D01*
Y214800D01*
X460600D01*
G01X464400D02*
X463200D01*
Y223200D01*
X466800D01*
Y214800D01*
X465600D01*
G01X468900D02*
X467700D01*
Y223200D01*
X471300D01*
Y214800D01*
X470100D01*
G01X454900D02*
X453700D01*
Y223200D01*
X457300D01*
Y214800D01*
X456100D01*
G01X473900D02*
X472700D01*
Y223200D01*
X476300D01*
Y214800D01*
X475100D01*
G01X492900D02*
X491700D01*
Y223200D01*
X495300D01*
Y214800D01*
X494100D01*
G01X478400D02*
X477200D01*
Y223200D01*
X480800D01*
Y214800D01*
X479600D01*
G01X483400D02*
X482200D01*
Y223200D01*
X485800D01*
Y214800D01*
X484600D01*
G01X487900D02*
X486700D01*
Y223200D01*
X490300D01*
Y214800D01*
X489100D01*
G01X495087Y256713D02*
Y253957D01*
X480913D01*
Y261043D01*
X495087D01*
Y258681D01*
G01X579906Y231945D02*
Y233559D01*
X568094D01*
Y228441D01*
X579906D01*
Y230331D01*
G01X582094Y230055D02*
Y228441D01*
X593906D01*
Y233559D01*
X582094D01*
Y231669D01*
G01X576488Y262638D02*
X587512D01*
Y267362D01*
X576488D01*
Y262638D01*
G01X629906Y231945D02*
Y233559D01*
X618094D01*
Y228441D01*
X629906D01*
Y230331D01*
G01X632094Y230055D02*
Y228441D01*
X643906D01*
Y233559D01*
X632094D01*
Y231669D01*
G01X626488Y262638D02*
X637512D01*
Y267362D01*
X626488D01*
Y262638D01*
G01X679906Y231945D02*
Y233559D01*
X668094D01*
Y228441D01*
X679906D01*
Y230331D01*
G01X682094Y230055D02*
Y228441D01*
X693906D01*
Y233559D01*
X682094D01*
Y231669D01*
G01X676488Y262638D02*
X687512D01*
Y267362D01*
X676488D01*
Y262638D01*
G01X729906Y231945D02*
Y233559D01*
X718094D01*
Y228441D01*
X729906D01*
Y230331D01*
G01X732094Y230055D02*
Y228441D01*
X743906D01*
Y233559D01*
X732094D01*
Y231669D01*
G01X726488Y262638D02*
X737512D01*
Y267362D01*
X726488D01*
Y262638D01*
G01X995406Y325945D02*
Y327559D01*
X983594D01*
Y322441D01*
X995406D01*
Y324331D01*
G01X996087Y317713D02*
Y314957D01*
X981913D01*
Y322043D01*
X996087D01*
Y319681D01*
G01X995906Y390445D02*
Y392059D01*
X984094D01*
Y386941D01*
X995906D01*
Y388831D01*
G01X998087Y381713D02*
Y378957D01*
X983913D01*
Y386043D01*
X998087D01*
Y383681D01*
G01X1023094Y238055D02*
Y236441D01*
X1034906D01*
Y241559D01*
X1023094D01*
Y239669D01*
G01X1034906Y245945D02*
Y247559D01*
X1023094D01*
Y242441D01*
X1034906D01*
Y244331D01*
G01X1052406Y245945D02*
Y247559D01*
X1040594D01*
Y242441D01*
X1052406D01*
Y244331D01*
G01X1062094Y238055D02*
Y236441D01*
X1073906D01*
Y241559D01*
X1062094D01*
Y239669D01*
G01X1073906Y245945D02*
Y247559D01*
X1062094D01*
Y242441D01*
X1073906D01*
Y244331D01*
G01X1091406Y245945D02*
Y247559D01*
X1079594D01*
Y242441D01*
X1091406D01*
Y244331D01*
G01X1103406Y324445D02*
Y326059D01*
X1091594D01*
Y320941D01*
X1103406D01*
Y322831D01*
G01X1104087Y316213D02*
Y313457D01*
X1089913D01*
Y320543D01*
X1104087D01*
Y318181D01*
G01X1102906Y389945D02*
Y391559D01*
X1091094D01*
Y386441D01*
X1102906D01*
Y388331D01*
G01X1105087Y381213D02*
Y378457D01*
X1090913D01*
Y385543D01*
X1105087D01*
Y383181D01*
G01X1115906Y232445D02*
Y234059D01*
X1104094D01*
Y228941D01*
X1115906D01*
Y230831D01*
G01X1118094Y230555D02*
Y228941D01*
X1129906D01*
Y234059D01*
X1118094D01*
Y232169D01*
G01X1112488Y263138D02*
X1123512D01*
Y267862D01*
X1112488D01*
Y263138D01*
G01X1152906Y232445D02*
Y234059D01*
X1141094D01*
Y228941D01*
X1152906D01*
Y230831D01*
G01X1155094Y230555D02*
Y228941D01*
X1166906D01*
Y234059D01*
X1155094D01*
Y232169D01*
G01X1149488Y263138D02*
X1160512D01*
Y267862D01*
X1149488D01*
Y263138D01*
G01X1189906Y232445D02*
Y234059D01*
X1178094D01*
Y228941D01*
X1189906D01*
Y230831D01*
G01X1186488Y263138D02*
X1197512D01*
Y267862D01*
X1186488D01*
Y263138D01*
G01X1192094Y230555D02*
Y228941D01*
X1203906D01*
Y234059D01*
X1192094D01*
Y232169D01*
G01X1228406Y232445D02*
Y234059D01*
X1216594D01*
Y228941D01*
X1228406D01*
Y230831D01*
G01X1224988Y263138D02*
X1236012D01*
Y267862D01*
X1224988D01*
Y263138D01*
G01X1230594Y230555D02*
Y228941D01*
X1242406D01*
Y234059D01*
X1230594D01*
Y232169D01*
G54D18*
G01X152578Y107988D02*
G03I-491J0D01*
G01X331078Y264488D02*
G03I-491J0D01*
G01X427699Y120005D02*
G03I-492J0D01*
G01X444078Y115488D02*
G03I-491J0D01*
M02*
