G04 ================== begin FILE IDENTIFICATION RECORD ==================*
G04 Layout Name:  //MAC/HOME/DESKTOP/SPB_DATA/CAPTURE/CIS_ATCS/allegro/ATCS_m2.brd*
G04 Film Name:    SILKTOP*
G04 File Format:  Gerber RS274X*
G04 File Origin:  Cadence Allegro 17.2-P019*
G04 Origin Date:  Thu May 10 13:25:58 2018*
G04 *
G04 Layer:  PACKAGE GEOMETRY/SILKSCREEN_TOP*
G04 Layer:  BOARD GEOMETRY/SILKSCREEN_TOP*
G04 *
G04 Offset:    (0.00 0.00)*
G04 Mirror:    No*
G04 Mode:      Positive*
G04 Rotation:  0*
G04 FullContactRelief:  No*
G04 UndefLineWidth:     3.00*
G04 ================== end FILE IDENTIFICATION RECORD ====================*
%FSLAX55Y55*MOIN*%
%IR0*IPPOS*OFA0.00000B0.00000*MIA0B0*SFA1.00000B1.00000*%
%ADD10C,.01*%
%ADD11C,.016*%
%ADD12C,.02362*%
%ADD13C,.003*%
%ADD14C,.005*%
%ADD15C,.006*%
%ADD16C,.007*%
%ADD17C,.008*%
%ADD18C,.00394*%
%ADD19C,.00984*%
G75*
%LPD*%
G75*
G36*
G01X82000Y262500D02*
Y257500D01*
X84500Y260000D01*
X82000Y262500D01*
G37*
G36*
G01X120000Y338000D02*
X130000D01*
Y341000D01*
X120000D01*
Y338000D01*
G37*
G36*
G01Y393000D02*
X130000D01*
Y396000D01*
X120000D01*
Y393000D01*
G37*
G36*
G01X198700Y46700D02*
G03I-700J0D01*
G37*
G36*
G01Y96200D02*
G03I-700J0D01*
G37*
G36*
G01X199200Y156200D02*
G03I-700J0D01*
G37*
G36*
G01X247700Y243700D02*
G03I-700J0D01*
G37*
G36*
G01X310000Y108500D02*
Y98500D01*
X313000D01*
Y108500D01*
X310000D01*
G37*
G36*
G01Y338000D02*
X320000D01*
Y341000D01*
X310000D01*
Y338000D01*
G37*
G36*
G01Y393000D02*
X320000D01*
Y396000D01*
X310000D01*
Y393000D01*
G37*
G36*
G01X385000Y108500D02*
Y98500D01*
X388000D01*
Y108500D01*
X385000D01*
G37*
G36*
G01X412000Y41293D02*
X413293Y40000D01*
X410707D01*
X412000Y41293D01*
G37*
G36*
G01X410400Y175100D02*
Y172900D01*
X412600Y175100D01*
X410400D01*
G37*
G36*
G01X432207Y131500D02*
X433500Y132793D01*
Y130207D01*
X432207Y131500D01*
G37*
G36*
G01X460000Y108500D02*
Y98500D01*
X463000D01*
Y108500D01*
X460000D01*
G37*
G36*
G01X478118Y66500D02*
G03I-1118J0D01*
G37*
G36*
G01X500000Y338000D02*
X510000D01*
Y341000D01*
X500000D01*
Y338000D01*
G37*
G36*
G01Y393000D02*
X510000D01*
Y396000D01*
X500000D01*
Y393000D01*
G37*
G36*
G01X559500Y225000D02*
Y220000D01*
X562000Y222500D01*
X559500Y225000D01*
G37*
G36*
G01Y276500D02*
Y271500D01*
X562000Y274000D01*
X559500Y276500D01*
G37*
G36*
G01X567031Y233756D02*
Y228362D01*
X568449D01*
Y233756D01*
X567031D01*
G37*
G36*
G01X590000Y108500D02*
Y98500D01*
X593000D01*
Y108500D01*
X590000D01*
G37*
G36*
G01X594969Y228244D02*
Y233638D01*
X593551D01*
Y228244D01*
X594969D01*
G37*
G36*
G01X609500Y225000D02*
Y220000D01*
X612000Y222500D01*
X609500Y225000D01*
G37*
G36*
G01X617031Y233756D02*
Y228362D01*
X618449D01*
Y233756D01*
X617031D01*
G37*
G36*
G01X609500Y276500D02*
Y271500D01*
X612000Y274000D01*
X609500Y276500D01*
G37*
G36*
G01X644969Y228244D02*
Y233638D01*
X643551D01*
Y228244D01*
X644969D01*
G37*
G36*
G01X665000Y108500D02*
Y98500D01*
X668000D01*
Y108500D01*
X665000D01*
G37*
G36*
G01X659500Y225000D02*
Y220000D01*
X662000Y222500D01*
X659500Y225000D01*
G37*
G36*
G01X667031Y233756D02*
Y228362D01*
X668449D01*
Y233756D01*
X667031D01*
G37*
G36*
G01X659500Y276500D02*
Y271500D01*
X662000Y274000D01*
X659500Y276500D01*
G37*
G36*
G01X709500Y225000D02*
Y220000D01*
X712000Y222500D01*
X709500Y225000D01*
G37*
G36*
G01X694969Y228244D02*
Y233638D01*
X693551D01*
Y228244D01*
X694969D01*
G37*
G36*
G01X709500Y276500D02*
Y271500D01*
X712000Y274000D01*
X709500Y276500D01*
G37*
G36*
G01X717031Y233756D02*
Y228362D01*
X718449D01*
Y233756D01*
X717031D01*
G37*
G36*
G01X740000Y108500D02*
Y98500D01*
X743000D01*
Y108500D01*
X740000D01*
G37*
G36*
G01X744969Y228244D02*
Y233638D01*
X743551D01*
Y228244D01*
X744969D01*
G37*
G36*
G01X758700Y369700D02*
G03I-700J0D01*
G37*
G36*
G01X782200D02*
G03I-700J0D01*
G37*
G36*
G01X882200Y368200D02*
G03I-700J0D01*
G37*
G36*
G01X905700D02*
G03I-700J0D01*
G37*
G36*
G01X976700Y329700D02*
G03I-700J0D01*
G37*
G36*
G01X1015000Y341000D02*
X1010000D01*
X1012500Y338500D01*
X1015000Y341000D01*
G37*
G36*
G01X1017000Y405500D02*
X1012000D01*
X1014500Y403000D01*
X1017000Y405500D01*
G37*
G36*
G01X1058500Y219500D02*
Y224500D01*
X1056000Y222000D01*
X1058500Y219500D01*
G37*
G36*
G01Y271000D02*
Y276000D01*
X1056000Y273500D01*
X1058500Y271000D01*
G37*
G36*
G01X1097500Y219500D02*
Y224500D01*
X1095000Y222000D01*
X1097500Y219500D01*
G37*
G36*
G01X1095500Y225500D02*
Y220500D01*
X1098000Y223000D01*
X1095500Y225500D01*
G37*
G36*
G01X1097500Y271000D02*
Y276000D01*
X1095000Y273500D01*
X1097500Y271000D01*
G37*
G36*
G01X1095500Y277000D02*
Y272000D01*
X1098000Y274500D01*
X1095500Y277000D01*
G37*
G36*
G01X1084700Y328200D02*
G03I-700J0D01*
G37*
G36*
G01X1123800Y86000D02*
X1117800Y92000D01*
X1123800D01*
Y86000D01*
G37*
G36*
G01X1103031Y234256D02*
Y228862D01*
X1104449D01*
Y234256D01*
X1103031D01*
G37*
G36*
G01X1123000Y339500D02*
X1118000D01*
X1120500Y337000D01*
X1123000Y339500D01*
G37*
G36*
G01X1124000Y405000D02*
X1119000D01*
X1121500Y402500D01*
X1124000Y405000D01*
G37*
G36*
G01X1132500Y225500D02*
Y220500D01*
X1135000Y223000D01*
X1132500Y225500D01*
G37*
G36*
G01X1140031Y234256D02*
Y228862D01*
X1141449D01*
Y234256D01*
X1140031D01*
G37*
G36*
G01X1130969Y228744D02*
Y234138D01*
X1129551D01*
Y228744D01*
X1130969D01*
G37*
G36*
G01X1132500Y277000D02*
Y272000D01*
X1135000Y274500D01*
X1132500Y277000D01*
G37*
G36*
G01X1169500Y225500D02*
Y220500D01*
X1172000Y223000D01*
X1169500Y225500D01*
G37*
G36*
G01X1167969Y228744D02*
Y234138D01*
X1166551D01*
Y228744D01*
X1167969D01*
G37*
G36*
G01X1177031Y234256D02*
Y228862D01*
X1178449D01*
Y234256D01*
X1177031D01*
G37*
G36*
G01X1169500Y277000D02*
Y272000D01*
X1172000Y274500D01*
X1169500Y277000D01*
G37*
G36*
G01X1208000Y225500D02*
Y220500D01*
X1210500Y223000D01*
X1208000Y225500D01*
G37*
G36*
G01X1204969Y228744D02*
Y234138D01*
X1203551D01*
Y228744D01*
X1204969D01*
G37*
G36*
G01X1208000Y277000D02*
Y272000D01*
X1210500Y274500D01*
X1208000Y277000D01*
G37*
G36*
G01X1215531Y234256D02*
Y228862D01*
X1216949D01*
Y234256D01*
X1215531D01*
G37*
G36*
G01X1243469Y228744D02*
Y234138D01*
X1242051D01*
Y228744D01*
X1243469D01*
G37*
G54D10*
G01X94207Y220000D02*
G03I-707J0D01*
G01X702207Y346500D02*
G03I-707J0D01*
G01X825707Y345000D02*
G03I-707J0D01*
G01X984138Y63488D02*
Y74512D01*
X988862D01*
Y63488D01*
X984138D01*
G54D11*
G01X720000Y21000D02*
X740000D01*
Y186000D01*
X720000D01*
Y21000D01*
G01X826850Y63701D02*
X833150D01*
Y76299D01*
X826850D01*
Y63701D01*
G01X836850D02*
X843150D01*
Y76299D01*
X836850D01*
Y63701D01*
G54D12*
G01X290610Y244429D02*
G03I-1181J0D01*
G01X370110D02*
G03I-1181J0D01*
G01X449110D02*
G03I-1181J0D01*
G54D13*
G01X17100Y102900D02*
X19900D01*
Y109100D01*
X17100D01*
Y102900D01*
G01X87900Y225600D02*
X85100D01*
Y219400D01*
X87900D01*
Y225600D01*
G01X85100Y235400D02*
X87900D01*
Y241600D01*
X85100D01*
Y235400D01*
G01X94600Y239600D02*
Y242400D01*
X88400D01*
Y239600D01*
X94600D01*
G01X103100Y267900D02*
X105900D01*
Y274100D01*
X103100D01*
Y267900D01*
G01X98100D02*
X100900D01*
Y274100D01*
X98100D01*
Y267900D01*
G01X128100Y202100D02*
Y204900D01*
X121900D01*
Y202100D01*
X128100D01*
G01X120400Y225600D02*
X117600D01*
Y219400D01*
X120400D01*
Y225600D01*
G01X109900Y242400D02*
Y239600D01*
X116100D01*
Y242400D01*
X109900D01*
G01X117600Y235400D02*
X120400D01*
Y241600D01*
X117600D01*
Y235400D01*
G01X115600Y267900D02*
X118400D01*
Y274100D01*
X115600D01*
Y267900D01*
G01X110600D02*
X113400D01*
Y274100D01*
X110600D01*
Y267900D01*
G01X151600Y156600D02*
Y159400D01*
X145400D01*
Y156600D01*
X151600D01*
G01X145400Y155900D02*
Y153100D01*
X151600D01*
Y155900D01*
X145400D01*
G01X151600Y170600D02*
Y173400D01*
X145400D01*
Y170600D01*
X151600D01*
G01Y163600D02*
Y166400D01*
X145400D01*
Y163600D01*
X151600D01*
G01X145400Y169900D02*
Y167100D01*
X151600D01*
Y169900D01*
X145400D01*
G01Y162900D02*
Y160100D01*
X151600D01*
Y162900D01*
X145400D01*
G01X165600Y66600D02*
Y69400D01*
X159400D01*
Y66600D01*
X165600D01*
G01X159400Y72900D02*
Y70100D01*
X165600D01*
Y72900D01*
X159400D01*
G01Y65900D02*
Y63100D01*
X165600D01*
Y65900D01*
X159400D01*
G01X165600Y80600D02*
Y83400D01*
X159400D01*
Y80600D01*
X165600D01*
G01Y73600D02*
Y76400D01*
X159400D01*
Y73600D01*
X165600D01*
G01X159400Y79900D02*
Y77100D01*
X165600D01*
Y79900D01*
X159400D01*
G01X176400Y126400D02*
Y123600D01*
X182600D01*
Y126400D01*
X176400D01*
G01X182600Y127100D02*
Y129900D01*
X176400D01*
Y127100D01*
X182600D01*
G01X175400Y167900D02*
Y165100D01*
X181600D01*
Y167900D01*
X175400D01*
G01X181600Y161600D02*
Y164400D01*
X175400D01*
Y161600D01*
X181600D01*
G01X232600Y219600D02*
Y222400D01*
X226400D01*
Y219600D01*
X232600D01*
G01X241600Y245600D02*
Y248400D01*
X235400D01*
Y245600D01*
X241600D01*
G01X238900Y225900D02*
Y223100D01*
X245100D01*
Y225900D01*
X238900D01*
G01X246100Y255100D02*
Y257900D01*
X239900D01*
Y255100D01*
X246100D01*
G01X280900Y57600D02*
X278100D01*
Y51400D01*
X280900D01*
Y57600D01*
G01X282100Y151600D02*
Y154400D01*
X275900D01*
Y151600D01*
X282100D01*
G01X281100Y162100D02*
Y164900D01*
X274900D01*
Y162100D01*
X281100D01*
G01X267100Y212900D02*
X269900D01*
Y219100D01*
X267100D01*
Y212900D01*
G01X262100D02*
X264900D01*
Y219100D01*
X262100D01*
Y212900D01*
G01X276600D02*
X279400D01*
Y219100D01*
X276600D01*
Y212900D01*
G01X271600D02*
X274400D01*
Y219100D01*
X271600D01*
Y212900D01*
G01X284900Y168100D02*
X282100D01*
Y161900D01*
X284900D01*
Y168100D01*
G01X300100Y212900D02*
X302900D01*
Y219100D01*
X300100D01*
Y212900D01*
G01X295600D02*
X298400D01*
Y219100D01*
X295600D01*
Y212900D01*
G01X290600D02*
X293400D01*
Y219100D01*
X290600D01*
Y212900D01*
G01X286100D02*
X288900D01*
Y219100D01*
X286100D01*
Y212900D01*
G01X281100D02*
X283900D01*
Y219100D01*
X281100D01*
Y212900D01*
G01X316600Y52400D02*
X319400D01*
Y58600D01*
X316600D01*
Y52400D01*
G01X317400Y138400D02*
Y135600D01*
X323600D01*
Y138400D01*
X317400D01*
G01X314100Y132400D02*
X316900D01*
Y138600D01*
X314100D01*
Y132400D01*
G01X316400Y148900D02*
Y146100D01*
X322600D01*
Y148900D01*
X316400D01*
G01X315100Y156400D02*
X317900D01*
Y162600D01*
X315100D01*
Y156400D01*
G01X318900Y173400D02*
Y170600D01*
X325100D01*
Y173400D01*
X318900D01*
G01X319900Y162900D02*
Y160100D01*
X326100D01*
Y162900D01*
X319900D01*
G01X321900Y207600D02*
X319100D01*
Y201400D01*
X321900D01*
Y207600D01*
G01X319100Y212900D02*
X321900D01*
Y219100D01*
X319100D01*
Y212900D01*
G01X314600D02*
X317400D01*
Y219100D01*
X314600D01*
Y212900D01*
G01X309600D02*
X312400D01*
Y219100D01*
X309600D01*
Y212900D01*
G01X305100D02*
X307900D01*
Y219100D01*
X305100D01*
Y212900D01*
G01X331400Y207600D02*
X328600D01*
Y201400D01*
X331400D01*
Y207600D01*
G01X333600Y212900D02*
X336400D01*
Y219100D01*
X333600D01*
Y212900D01*
G01X328600D02*
X331400D01*
Y219100D01*
X328600D01*
Y212900D01*
G01X324100D02*
X326900D01*
Y219100D01*
X324100D01*
Y212900D01*
G01X341600D02*
X344400D01*
Y219100D01*
X341600D01*
Y212900D01*
G01X359100Y55400D02*
X361900D01*
Y61600D01*
X359100D01*
Y55400D01*
G01X365600Y212900D02*
X368400D01*
Y219100D01*
X365600D01*
Y212900D01*
G01X360600D02*
X363400D01*
Y219100D01*
X360600D01*
Y212900D01*
G01X356100D02*
X358900D01*
Y219100D01*
X356100D01*
Y212900D01*
G01X351100D02*
X353900D01*
Y219100D01*
X351100D01*
Y212900D01*
G01X346600D02*
X349400D01*
Y219100D01*
X346600D01*
Y212900D01*
G01X384600D02*
X387400D01*
Y219100D01*
X384600D01*
Y212900D01*
G01X379600D02*
X382400D01*
Y219100D01*
X379600D01*
Y212900D01*
G01X375100D02*
X377900D01*
Y219100D01*
X375100D01*
Y212900D01*
G01X370100D02*
X372900D01*
Y219100D01*
X370100D01*
Y212900D01*
G01X406600Y177600D02*
Y180400D01*
X400400D01*
Y177600D01*
X406600D01*
G01X408100Y212900D02*
X410900D01*
Y219100D01*
X408100D01*
Y212900D01*
G01X403600D02*
X406400D01*
Y219100D01*
X403600D01*
Y212900D01*
G01X398600D02*
X401400D01*
Y219100D01*
X398600D01*
Y212900D01*
G01X394100D02*
X396900D01*
Y219100D01*
X394100D01*
Y212900D01*
G01X389100D02*
X391900D01*
Y219100D01*
X389100D01*
Y212900D01*
G01X420500Y44900D02*
X423300D01*
Y51100D01*
X420500D01*
Y44900D01*
G01X431100Y98900D02*
X433900D01*
Y105100D01*
X431100D01*
Y98900D01*
G01X420600Y212900D02*
X423400D01*
Y219100D01*
X420600D01*
Y212900D01*
G01X430100D02*
X432900D01*
Y219100D01*
X430100D01*
Y212900D01*
G01X425600D02*
X428400D01*
Y219100D01*
X425600D01*
Y212900D01*
G01X413100D02*
X415900D01*
Y219100D01*
X413100D01*
Y212900D01*
G01X449100D02*
X451900D01*
Y219100D01*
X449100D01*
Y212900D01*
G01X444600D02*
X447400D01*
Y219100D01*
X444600D01*
Y212900D01*
G01X439600D02*
X442400D01*
Y219100D01*
X439600D01*
Y212900D01*
G01X435100D02*
X437900D01*
Y219100D01*
X435100D01*
Y212900D01*
G01X480600Y57100D02*
Y59900D01*
X474400D01*
Y57100D01*
X480600D01*
G01X473100Y212900D02*
X475900D01*
Y219100D01*
X473100D01*
Y212900D01*
G01X468100D02*
X470900D01*
Y219100D01*
X468100D01*
Y212900D01*
G01X463600D02*
X466400D01*
Y219100D01*
X463600D01*
Y212900D01*
G01X458600D02*
X461400D01*
Y219100D01*
X458600D01*
Y212900D01*
G01X454100D02*
X456900D01*
Y219100D01*
X454100D01*
Y212900D01*
G01X478100Y49400D02*
X480900D01*
Y55600D01*
X478100D01*
Y49400D01*
G01X481400Y59900D02*
Y57100D01*
X487600D01*
Y59900D01*
X481400D01*
G01X482600Y212900D02*
X485400D01*
Y219100D01*
X482600D01*
Y212900D01*
G01X477600D02*
X480400D01*
Y219100D01*
X477600D01*
Y212900D01*
G01X492100D02*
X494900D01*
Y219100D01*
X492100D01*
Y212900D01*
G01X487100D02*
X489900D01*
Y219100D01*
X487100D01*
Y212900D01*
G01X575100Y235100D02*
Y237900D01*
X568900D01*
Y235100D01*
X575100D01*
G01X595900Y159900D02*
Y157100D01*
X602100D01*
Y159900D01*
X595900D01*
G01Y154900D02*
Y152100D01*
X602100D01*
Y154900D01*
X595900D01*
G01Y149900D02*
Y147100D01*
X602100D01*
Y149900D01*
X595900D01*
G01Y144900D02*
Y142100D01*
X602100D01*
Y144900D01*
X595900D01*
G01Y164900D02*
Y162100D01*
X602100D01*
Y164900D01*
X595900D01*
G01X596100Y235100D02*
Y237900D01*
X589900D01*
Y235100D01*
X596100D01*
G01X625100D02*
Y237900D01*
X618900D01*
Y235100D01*
X625100D01*
G01X646100D02*
Y237900D01*
X639900D01*
Y235100D01*
X646100D01*
G01X675100D02*
Y237900D01*
X668900D01*
Y235100D01*
X675100D01*
G01X696100D02*
Y237900D01*
X689900D01*
Y235100D01*
X696100D01*
G01X695900Y352100D02*
X693100D01*
Y345900D01*
X695900D01*
Y352100D01*
G01X703100Y365600D02*
Y368400D01*
X696900D01*
Y365600D01*
X703100D01*
G01X693100Y361900D02*
X695900D01*
Y368100D01*
X693100D01*
Y361900D01*
G01X725100Y235100D02*
Y237900D01*
X718900D01*
Y235100D01*
X725100D01*
G01X728400Y352100D02*
X725600D01*
Y345900D01*
X728400D01*
Y352100D01*
G01X717400Y368400D02*
Y365600D01*
X723600D01*
Y368400D01*
X717400D01*
G01X725600Y361900D02*
X728400D01*
Y368100D01*
X725600D01*
Y361900D01*
G01X746100Y235100D02*
Y237900D01*
X739900D01*
Y235100D01*
X746100D01*
G01X749900Y351900D02*
Y349100D01*
X756100D01*
Y351900D01*
X749900D01*
G01X743600Y345600D02*
Y348400D01*
X737400D01*
Y345600D01*
X743600D01*
G01X752600Y371600D02*
Y374400D01*
X746400D01*
Y371600D01*
X752600D01*
G01X757100Y376600D02*
Y379400D01*
X750900D01*
Y376600D01*
X757100D01*
G01X773400Y351900D02*
Y349100D01*
X779600D01*
Y351900D01*
X773400D01*
G01X767100Y345600D02*
Y348400D01*
X760900D01*
Y345600D01*
X767100D01*
G01X776100Y371600D02*
Y374400D01*
X769900D01*
Y371600D01*
X776100D01*
G01X780600Y376600D02*
Y379400D01*
X774400D01*
Y376600D01*
X780600D01*
G01X821000Y76500D02*
Y89000D01*
X790000D01*
Y76000D01*
X821000D01*
Y77000D01*
G01X819400Y350600D02*
X816600D01*
Y344400D01*
X819400D01*
Y350600D01*
G01X816600Y360400D02*
X819400D01*
Y366600D01*
X816600D01*
Y360400D01*
G01X840900Y366900D02*
Y364100D01*
X847100D01*
Y366900D01*
X840900D01*
G01X826600Y364100D02*
Y366900D01*
X820400D01*
Y364100D01*
X826600D01*
G01X851900Y350600D02*
X849100D01*
Y344400D01*
X851900D01*
Y350600D01*
G01X867100Y344100D02*
Y346900D01*
X860900D01*
Y344100D01*
X867100D01*
G01X849100Y360400D02*
X851900D01*
Y366600D01*
X849100D01*
Y360400D01*
G01X873400Y350400D02*
Y347600D01*
X879600D01*
Y350400D01*
X873400D01*
G01X890600Y344100D02*
Y346900D01*
X884400D01*
Y344100D01*
X890600D01*
G01X876100Y370100D02*
Y372900D01*
X869900D01*
Y370100D01*
X876100D01*
G01X880600Y375100D02*
Y377900D01*
X874400D01*
Y375100D01*
X880600D01*
G01X896900Y350400D02*
Y347600D01*
X903100D01*
Y350400D01*
X896900D01*
G01X899600Y370100D02*
Y372900D01*
X893400D01*
Y370100D01*
X899600D01*
G01X904100Y375100D02*
Y377900D01*
X897900D01*
Y375100D01*
X904100D01*
G01X945100Y92100D02*
Y94900D01*
X938900D01*
Y92100D01*
X945100D01*
G01X965600Y65100D02*
Y67900D01*
X959400D01*
Y65100D01*
X965600D01*
G01X966400Y80100D02*
X963600D01*
Y73900D01*
X966400D01*
Y80100D01*
G01X961400D02*
X958600D01*
Y73900D01*
X961400D01*
Y80100D01*
G01X956100Y92100D02*
Y94900D01*
X949900D01*
Y92100D01*
X956100D01*
G01X1024900Y237400D02*
Y234600D01*
X1031100D01*
Y237400D01*
X1024900D01*
G01X1030100Y265100D02*
Y267900D01*
X1023900D01*
Y265100D01*
X1030100D01*
G01X1052600Y234100D02*
Y236900D01*
X1046400D01*
Y234100D01*
X1052600D01*
G01X1063900Y237400D02*
Y234600D01*
X1070100D01*
Y237400D01*
X1063900D01*
G01X1069100Y265100D02*
Y267900D01*
X1062900D01*
Y265100D01*
X1069100D01*
G01X1091600Y234100D02*
Y236900D01*
X1085400D01*
Y234100D01*
X1091600D01*
G01X1111100Y235600D02*
Y238400D01*
X1104900D01*
Y235600D01*
X1111100D01*
G01X1132100D02*
Y238400D01*
X1125900D01*
Y235600D01*
X1132100D01*
G01X1148100D02*
Y238400D01*
X1141900D01*
Y235600D01*
X1148100D01*
G01X1169100D02*
Y238400D01*
X1162900D01*
Y235600D01*
X1169100D01*
G01X1185100D02*
Y238400D01*
X1178900D01*
Y235600D01*
X1185100D01*
G01X1206100D02*
Y238400D01*
X1199900D01*
Y235600D01*
X1206100D01*
G01X1223600D02*
Y238400D01*
X1217400D01*
Y235600D01*
X1223600D01*
G01X1244600D02*
Y238400D01*
X1238400D01*
Y235600D01*
X1244600D01*
G01X-15040Y712120D02*
X-13870Y710300D01*
X-12310Y709260D01*
X-10555Y709000D01*
X-8995Y709260D01*
X-7435Y710560D01*
X-6460Y712120D01*
X-6265Y713680D01*
X-6655Y715500D01*
X-8020Y716800D01*
X-9385Y717320D01*
X-11140D01*
G01X-9385D02*
X-8215Y718100D01*
X-7240Y719400D01*
X-6850Y720960D01*
X-7240Y722520D01*
X-8215Y723820D01*
X-9970Y724600D01*
X-11725Y724340D01*
X-13480Y723300D01*
G01X7150Y708480D02*
X6760Y708740D01*
Y709260D01*
X7150Y709520D01*
X7540Y709260D01*
Y708740D01*
X7150Y708480D01*
G01X39245Y709000D02*
Y724600D01*
X46655D01*
G01X43925Y717060D02*
X39245D01*
G01X58510Y724600D02*
X63190D01*
G01X60850D02*
Y709000D01*
G01X58510D02*
X63190D01*
G01X74265D02*
Y724600D01*
X83235Y709000D01*
Y724600D01*
G01X94310D02*
X98990D01*
G01X96650D02*
Y709000D01*
G01X94310D02*
X98990D01*
G01X110455Y711080D02*
X112015Y709780D01*
X113770Y709000D01*
X115330D01*
X116890Y709780D01*
X118060Y711080D01*
X118645Y712900D01*
X118255Y714720D01*
X117280Y716280D01*
X115525Y717320D01*
X113185Y717840D01*
X111820Y718880D01*
X111235Y720700D01*
X111625Y722520D01*
X112600Y723820D01*
X113965Y724600D01*
X115330D01*
X116695Y724080D01*
X117865Y722780D01*
G01X128355Y709000D02*
Y724600D01*
G01X136545D02*
Y709000D01*
G01Y716800D02*
X128355D01*
G01X150350Y708480D02*
X149960Y708740D01*
Y709260D01*
X150350Y709520D01*
X150740Y709260D01*
Y708740D01*
X150350Y708480D01*
G01Y715500D02*
X149960Y715760D01*
Y716280D01*
X150350Y716540D01*
X150740Y716280D01*
Y715760D01*
X150350Y715500D01*
G01X187710Y717320D02*
X188490Y718100D01*
X189075Y719400D01*
X189465Y721220D01*
X189075Y722780D01*
X188295Y723820D01*
X186930Y724600D01*
X181665D01*
Y709000D01*
X188100D01*
X189465Y710040D01*
X190245Y711600D01*
X190635Y713420D01*
X190245Y715240D01*
X189075Y716800D01*
X187710Y717320D01*
X181665D01*
G01X204050Y709000D02*
X202490Y709260D01*
X201125Y710300D01*
X199955Y711860D01*
X199175Y713680D01*
X198785Y715760D01*
Y717840D01*
X199175Y719920D01*
X199955Y721740D01*
X201125Y723300D01*
X202490Y724340D01*
X204050Y724600D01*
X205610Y724340D01*
X206975Y723300D01*
X208145Y721740D01*
X208925Y719920D01*
X209315Y717840D01*
Y715760D01*
X208925Y713680D01*
X208145Y711860D01*
X206975Y710300D01*
X205610Y709260D01*
X204050Y709000D01*
G01X217465D02*
Y724600D01*
X226435Y709000D01*
Y724600D01*
G01X235560Y709000D02*
Y724600D01*
X239460D01*
X241020Y723820D01*
X242190Y722780D01*
X243165Y721220D01*
X243945Y719400D01*
X244140Y716800D01*
X243945Y714200D01*
X243165Y712380D01*
X242190Y710820D01*
X241020Y709780D01*
X239460Y709000D01*
X235560D01*
G01X252875D02*
X257750Y724600D01*
X262625Y709000D01*
G01X260870Y714460D02*
X254630D01*
G01X277210Y717320D02*
X277990Y718100D01*
X278575Y719400D01*
X278965Y721220D01*
X278575Y722780D01*
X277795Y723820D01*
X276430Y724600D01*
X271165D01*
Y709000D01*
X277600D01*
X278965Y710040D01*
X279745Y711600D01*
X280135Y713420D01*
X279745Y715240D01*
X278575Y716800D01*
X277210Y717320D01*
X271165D01*
G01X289650Y724600D02*
Y709000D01*
X297450D01*
G01X315350D02*
X307550D01*
Y724600D01*
X315350D01*
G01X312230Y717060D02*
X307550D01*
G01X348420Y716800D02*
X352320D01*
Y712120D01*
X351150Y710560D01*
X349785Y709520D01*
X347835Y709000D01*
X345885Y709520D01*
X344520Y710560D01*
X343350Y712120D01*
X342570Y713940D01*
X342180Y716020D01*
Y717840D01*
X342570Y719400D01*
X343350Y721220D01*
X344520Y722780D01*
X345690Y723820D01*
X347250Y724600D01*
X348615D01*
X350175Y724080D01*
X351345Y723040D01*
G01X365150Y709000D02*
X363590Y709260D01*
X362225Y710300D01*
X361055Y711860D01*
X360275Y713680D01*
X359885Y715760D01*
Y717840D01*
X360275Y719920D01*
X361055Y721740D01*
X362225Y723300D01*
X363590Y724340D01*
X365150Y724600D01*
X366710Y724340D01*
X368075Y723300D01*
X369245Y721740D01*
X370025Y719920D01*
X370415Y717840D01*
Y715760D01*
X370025Y713680D01*
X369245Y711860D01*
X368075Y710300D01*
X366710Y709260D01*
X365150Y709000D01*
G01X379150Y724600D02*
Y709000D01*
X386950D01*
G01X396660D02*
Y724600D01*
X400560D01*
X402120Y723820D01*
X403290Y722780D01*
X404265Y721220D01*
X405045Y719400D01*
X405240Y716800D01*
X405045Y714200D01*
X404265Y712380D01*
X403290Y710820D01*
X402120Y709780D01*
X400560Y709000D01*
X396660D01*
G01X-12540Y596000D02*
X-12150Y599380D01*
X-11565Y602240D01*
X-10785Y604840D01*
X-9810Y607700D01*
X-8250Y611600D01*
X-16050D01*
G01X5750Y595480D02*
X5360Y595740D01*
Y596260D01*
X5750Y596520D01*
X6140Y596260D01*
Y595740D01*
X5750Y595480D01*
G01X43110Y604320D02*
X43890Y605100D01*
X44475Y606400D01*
X44865Y608220D01*
X44475Y609780D01*
X43695Y610820D01*
X42330Y611600D01*
X37065D01*
Y596000D01*
X43500D01*
X44865Y597040D01*
X45645Y598600D01*
X46035Y600420D01*
X45645Y602240D01*
X44475Y603800D01*
X43110Y604320D01*
X37065D01*
G01X59450Y596000D02*
X57890Y596260D01*
X56525Y597300D01*
X55355Y598860D01*
X54575Y600680D01*
X54185Y602760D01*
Y604840D01*
X54575Y606920D01*
X55355Y608740D01*
X56525Y610300D01*
X57890Y611340D01*
X59450Y611600D01*
X61010Y611340D01*
X62375Y610300D01*
X63545Y608740D01*
X64325Y606920D01*
X64715Y604840D01*
Y602760D01*
X64325Y600680D01*
X63545Y598860D01*
X62375Y597300D01*
X61010Y596260D01*
X59450Y596000D01*
G01X72475D02*
X77350Y611600D01*
X82225Y596000D01*
G01X80470Y601460D02*
X74230D01*
G01X91350Y596000D02*
Y611600D01*
X96225D01*
X97785Y610820D01*
X98760Y609780D01*
X99150Y607700D01*
X98760Y605620D01*
X97590Y604320D01*
X96225Y603540D01*
X91350D01*
G01X96225D02*
X99150Y596000D01*
G01X108860D02*
Y611600D01*
X112760D01*
X114320Y610820D01*
X115490Y609780D01*
X116465Y608220D01*
X117245Y606400D01*
X117440Y603800D01*
X117245Y601200D01*
X116465Y599380D01*
X115490Y597820D01*
X114320Y596780D01*
X112760Y596000D01*
X108860D01*
G01X144855D02*
Y611600D01*
G01X153045D02*
Y596000D01*
G01Y603800D02*
X144855D01*
G01X161975Y596000D02*
X166850Y611600D01*
X171725Y596000D01*
G01X169970Y601460D02*
X163730D01*
G01X180655Y598080D02*
X182215Y596780D01*
X183970Y596000D01*
X185530D01*
X187090Y596780D01*
X188260Y598080D01*
X188845Y599900D01*
X188455Y601720D01*
X187480Y603280D01*
X185725Y604320D01*
X183385Y604840D01*
X182020Y605880D01*
X181435Y607700D01*
X181825Y609520D01*
X182800Y610820D01*
X184165Y611600D01*
X185530D01*
X186895Y611080D01*
X188065Y609780D01*
G01X215675Y596000D02*
X220550Y611600D01*
X225425Y596000D01*
G01X223670Y601460D02*
X217430D01*
G01X255375Y590800D02*
X253425Y593400D01*
X252450Y596000D01*
Y606400D01*
X253425Y609000D01*
X255375Y611600D01*
G01X292150D02*
X290590Y611080D01*
X289420Y609780D01*
X288640Y608220D01*
X288055Y606140D01*
X287860Y603800D01*
X288055Y601460D01*
X288640Y599380D01*
X289420Y597820D01*
X290590Y596520D01*
X292150Y596000D01*
X293710Y596520D01*
X294880Y597820D01*
X295660Y599380D01*
X296245Y601460D01*
X296440Y603800D01*
X296245Y606140D01*
X295660Y608220D01*
X294880Y609780D01*
X293710Y611080D01*
X292150Y611600D01*
G01X310050Y595480D02*
X309660Y595740D01*
Y596260D01*
X310050Y596520D01*
X310440Y596260D01*
Y595740D01*
X310050Y595480D01*
G01X323660Y598340D02*
X324830Y597040D01*
X326195Y596260D01*
X327950Y596000D01*
X329705Y596520D01*
X331070Y597560D01*
X332045Y599380D01*
X332240Y601460D01*
X331850Y603540D01*
X330875Y604840D01*
X329510Y605880D01*
X328145Y606140D01*
X326780Y605880D01*
X325025Y604840D01*
X325610Y611600D01*
X330875D01*
G01X345850D02*
X344290Y611080D01*
X343120Y609780D01*
X342340Y608220D01*
X341755Y606140D01*
X341560Y603800D01*
X341755Y601460D01*
X342340Y599380D01*
X343120Y597820D01*
X344290Y596520D01*
X345850Y596000D01*
X347410Y596520D01*
X348580Y597820D01*
X349360Y599380D01*
X349945Y601460D01*
X350140Y603800D01*
X349945Y606140D01*
X349360Y608220D01*
X348580Y609780D01*
X347410Y611080D01*
X345850Y611600D01*
G01X360825Y606400D02*
X366675Y596000D01*
G01Y606400D02*
X360825Y596000D01*
G01X381650Y611600D02*
X380090Y611080D01*
X378920Y609780D01*
X378140Y608220D01*
X377555Y606140D01*
X377360Y603800D01*
X377555Y601460D01*
X378140Y599380D01*
X378920Y597820D01*
X380090Y596520D01*
X381650Y596000D01*
X383210Y596520D01*
X384380Y597820D01*
X385160Y599380D01*
X385745Y601460D01*
X385940Y603800D01*
X385745Y606140D01*
X385160Y608220D01*
X384380Y609780D01*
X383210Y611080D01*
X381650Y611600D01*
G01X399550Y595480D02*
X399160Y595740D01*
Y596260D01*
X399550Y596520D01*
X399940Y596260D01*
Y595740D01*
X399550Y595480D01*
G01X419790Y596000D02*
Y611600D01*
X412575Y600420D01*
X422325D01*
G01X431645Y609000D02*
X432815Y610560D01*
X434180Y611340D01*
X435740Y611600D01*
X437690Y611080D01*
X439055Y609780D01*
X439445Y608220D01*
X439250Y606660D01*
X438470Y605360D01*
X434570Y602760D01*
X432815Y600940D01*
X431645Y598340D01*
X431255Y596000D01*
X439445D01*
G01X453250Y611600D02*
X451690Y611080D01*
X450520Y609780D01*
X449740Y608220D01*
X449155Y606140D01*
X448960Y603800D01*
X449155Y601460D01*
X449740Y599380D01*
X450520Y597820D01*
X451690Y596520D01*
X453250Y596000D01*
X454810Y596520D01*
X455980Y597820D01*
X456760Y599380D01*
X457345Y601460D01*
X457540Y603800D01*
X457345Y606140D01*
X456760Y608220D01*
X455980Y609780D01*
X454810Y611080D01*
X453250Y611600D01*
G01X472125Y590800D02*
X474075Y593400D01*
X475050Y596000D01*
Y606400D01*
X474075Y609000D01*
X472125Y611600D01*
G01X503050Y596000D02*
Y611600D01*
X507925D01*
X509485Y610820D01*
X510460Y609780D01*
X510850Y607700D01*
X510460Y605620D01*
X509290Y604320D01*
X507925Y603540D01*
X503050D01*
G01X507925D02*
X510850Y596000D01*
G01X528750D02*
X520950D01*
Y611600D01*
X528750D01*
G01X525630Y604060D02*
X520950D01*
G01X547040Y610300D02*
X545870Y611080D01*
X544505Y611600D01*
X542945D01*
X541190Y610820D01*
X539825Y609520D01*
X538850Y607960D01*
X538070Y605360D01*
X537875Y603020D01*
X538265Y600680D01*
X538850Y599120D01*
X540020Y597560D01*
X541385Y596520D01*
X542750Y596000D01*
X544115D01*
X545480Y596520D01*
X546650Y597300D01*
X547625Y598340D01*
G01X560650Y611600D02*
Y596000D01*
G01X556165Y611600D02*
X565135D01*
G01X573675Y596000D02*
X578550Y611600D01*
X583425Y596000D01*
G01X581670Y601460D02*
X575430D01*
G01X591965Y596000D02*
Y611600D01*
X600935Y596000D01*
Y611600D01*
G01X615520Y603800D02*
X619420D01*
Y599120D01*
X618250Y597560D01*
X616885Y596520D01*
X614935Y596000D01*
X612985Y596520D01*
X611620Y597560D01*
X610450Y599120D01*
X609670Y600940D01*
X609280Y603020D01*
Y604840D01*
X609670Y606400D01*
X610450Y608220D01*
X611620Y609780D01*
X612790Y610820D01*
X614350Y611600D01*
X615715D01*
X617275Y611080D01*
X618445Y610040D01*
G01X628350Y611600D02*
Y596000D01*
X636150D01*
G01X645275D02*
X650150Y611600D01*
X655025Y596000D01*
G01X653270Y601460D02*
X647030D01*
G01X664150Y596000D02*
Y611600D01*
X669025D01*
X670585Y610820D01*
X671560Y609780D01*
X671950Y607700D01*
X671560Y605620D01*
X670390Y604320D01*
X669025Y603540D01*
X664150D01*
G01X669025D02*
X671950Y596000D01*
G01X708140Y610300D02*
X706970Y611080D01*
X705605Y611600D01*
X704045D01*
X702290Y610820D01*
X700925Y609520D01*
X699950Y607960D01*
X699170Y605360D01*
X698975Y603020D01*
X699365Y600680D01*
X699950Y599120D01*
X701120Y597560D01*
X702485Y596520D01*
X703850Y596000D01*
X705215D01*
X706580Y596520D01*
X707750Y597300D01*
X708725Y598340D01*
G01X717460Y611600D02*
Y600420D01*
X718240Y598080D01*
X719800Y596520D01*
X721750Y596000D01*
X723700Y596520D01*
X725260Y598080D01*
X726040Y600420D01*
Y611600D01*
G01X739650D02*
Y596000D01*
G01X735165Y611600D02*
X744135D01*
G01X757550Y596000D02*
X755990Y596260D01*
X754625Y597300D01*
X753455Y598860D01*
X752675Y600680D01*
X752285Y602760D01*
Y604840D01*
X752675Y606920D01*
X753455Y608740D01*
X754625Y610300D01*
X755990Y611340D01*
X757550Y611600D01*
X759110Y611340D01*
X760475Y610300D01*
X761645Y608740D01*
X762425Y606920D01*
X762815Y604840D01*
Y602760D01*
X762425Y600680D01*
X761645Y598860D01*
X760475Y597300D01*
X759110Y596260D01*
X757550Y596000D01*
G01X771160Y611600D02*
Y600420D01*
X771940Y598080D01*
X773500Y596520D01*
X775450Y596000D01*
X777400Y596520D01*
X778960Y598080D01*
X779740Y600420D01*
Y611600D01*
G01X793350D02*
Y596000D01*
G01X788865Y611600D02*
X797835D01*
G01X811250Y595480D02*
X810860Y595740D01*
Y596260D01*
X811250Y596520D01*
X811640Y596260D01*
Y595740D01*
X811250Y595480D01*
G01X-14355Y635000D02*
X-12990Y636820D01*
X-11820Y637860D01*
X-10260Y638380D01*
X-8895Y637860D01*
X-7920Y636820D01*
X-7140Y635260D01*
X-6945Y633440D01*
X-7140Y631880D01*
X-7920Y630320D01*
X-9090Y629020D01*
X-10455Y628500D01*
X-12015Y629020D01*
X-13380Y630580D01*
X-14160Y632920D01*
X-14355Y635520D01*
X-13965Y638900D01*
X-13380Y640720D01*
X-12405Y642540D01*
X-11040Y643840D01*
X-9675Y644100D01*
X-8310Y643580D01*
X-7335Y642280D01*
G01X7250Y627980D02*
X6860Y628240D01*
Y628760D01*
X7250Y629020D01*
X7640Y628760D01*
Y628240D01*
X7250Y627980D01*
G01X38175Y628500D02*
X43050Y644100D01*
X47925Y628500D01*
G01X46170Y633960D02*
X39930D01*
G01X57050Y644100D02*
Y628500D01*
X64850D01*
G01X74950Y644100D02*
Y628500D01*
X82750D01*
G01X114650Y644100D02*
Y628500D01*
G01X110165Y644100D02*
X119135D01*
G01X132550Y628500D02*
X130990Y628760D01*
X129625Y629800D01*
X128455Y631360D01*
X127675Y633180D01*
X127285Y635260D01*
Y637340D01*
X127675Y639420D01*
X128455Y641240D01*
X129625Y642800D01*
X130990Y643840D01*
X132550Y644100D01*
X134110Y643840D01*
X135475Y642800D01*
X136645Y641240D01*
X137425Y639420D01*
X137815Y637340D01*
Y635260D01*
X137425Y633180D01*
X136645Y631360D01*
X135475Y629800D01*
X134110Y628760D01*
X132550Y628500D01*
G01X146550Y644100D02*
Y628500D01*
X154350D01*
G01X172250D02*
X164450D01*
Y644100D01*
X172250D01*
G01X169130Y636560D02*
X164450D01*
G01X182350Y628500D02*
Y644100D01*
X187225D01*
X188785Y643320D01*
X189760Y642280D01*
X190150Y640200D01*
X189760Y638120D01*
X188590Y636820D01*
X187225Y636040D01*
X182350D01*
G01X187225D02*
X190150Y628500D01*
G01X199275D02*
X204150Y644100D01*
X209025Y628500D01*
G01X207270Y633960D02*
X201030D01*
G01X217565Y628500D02*
Y644100D01*
X226535Y628500D01*
Y644100D01*
G01X244240Y642800D02*
X243070Y643580D01*
X241705Y644100D01*
X240145D01*
X238390Y643320D01*
X237025Y642020D01*
X236050Y640460D01*
X235270Y637860D01*
X235075Y635520D01*
X235465Y633180D01*
X236050Y631620D01*
X237220Y630060D01*
X238585Y629020D01*
X239950Y628500D01*
X241315D01*
X242680Y629020D01*
X243850Y629800D01*
X244825Y630840D01*
G01X261750Y628500D02*
X253950D01*
Y644100D01*
X261750D01*
G01X258630Y636560D02*
X253950D01*
G01X271655Y630580D02*
X273215Y629280D01*
X274970Y628500D01*
X276530D01*
X278090Y629280D01*
X279260Y630580D01*
X279845Y632400D01*
X279455Y634220D01*
X278480Y635780D01*
X276725Y636820D01*
X274385Y637340D01*
X273020Y638380D01*
X272435Y640200D01*
X272825Y642020D01*
X273800Y643320D01*
X275165Y644100D01*
X276530D01*
X277895Y643580D01*
X279065Y642280D01*
G01X309405Y633700D02*
X314085D01*
G01X311550Y637080D02*
Y630320D01*
G01X325940Y627980D02*
X332960Y644100D01*
G01X344815Y633700D02*
X349885D01*
G01X360960Y631620D02*
X362130Y629800D01*
X363690Y628760D01*
X365445Y628500D01*
X367005Y628760D01*
X368565Y630060D01*
X369540Y631620D01*
X369735Y633180D01*
X369345Y635000D01*
X367980Y636300D01*
X366615Y636820D01*
X364860D01*
G01X366615D02*
X367785Y637600D01*
X368760Y638900D01*
X369150Y640460D01*
X368760Y642020D01*
X367785Y643320D01*
X366030Y644100D01*
X364275Y643840D01*
X362520Y642800D01*
G01X378080Y628500D02*
Y644100D01*
X383150Y631100D01*
X388220Y644100D01*
Y628500D01*
G01X398710Y644100D02*
X403390D01*
G01X401050D02*
Y628500D01*
G01X398710D02*
X403390D01*
G01X415050Y644100D02*
Y628500D01*
X422850D01*
G01X432755Y630580D02*
X434315Y629280D01*
X436070Y628500D01*
X437630D01*
X439190Y629280D01*
X440360Y630580D01*
X440945Y632400D01*
X440555Y634220D01*
X439580Y635780D01*
X437825Y636820D01*
X435485Y637340D01*
X434120Y638380D01*
X433535Y640200D01*
X433925Y642020D01*
X434900Y643320D01*
X436265Y644100D01*
X437630D01*
X438995Y643580D01*
X440165Y642280D01*
G01X-14440Y658340D02*
X-13270Y657040D01*
X-11905Y656260D01*
X-10150Y656000D01*
X-8395Y656520D01*
X-7030Y657560D01*
X-6055Y659380D01*
X-5860Y661460D01*
X-6250Y663540D01*
X-7225Y664840D01*
X-8590Y665880D01*
X-9955Y666140D01*
X-11320Y665880D01*
X-13075Y664840D01*
X-12490Y671600D01*
X-7225D01*
G01X7750Y655480D02*
X7360Y655740D01*
Y656260D01*
X7750Y656520D01*
X8140Y656260D01*
Y655740D01*
X7750Y655480D01*
G01X38675Y656000D02*
X43550Y671600D01*
X48425Y656000D01*
G01X46670Y661460D02*
X40430D01*
G01X57550Y671600D02*
Y656000D01*
X65350D01*
G01X75450Y671600D02*
Y656000D01*
X83250D01*
G01X111055D02*
Y671600D01*
G01X119245D02*
Y656000D01*
G01Y663800D02*
X111055D01*
G01X133050Y656000D02*
X131490Y656260D01*
X130125Y657300D01*
X128955Y658860D01*
X128175Y660680D01*
X127785Y662760D01*
Y664840D01*
X128175Y666920D01*
X128955Y668740D01*
X130125Y670300D01*
X131490Y671340D01*
X133050Y671600D01*
X134610Y671340D01*
X135975Y670300D01*
X137145Y668740D01*
X137925Y666920D01*
X138315Y664840D01*
Y662760D01*
X137925Y660680D01*
X137145Y658860D01*
X135975Y657300D01*
X134610Y656260D01*
X133050Y656000D01*
G01X147050Y671600D02*
Y656000D01*
X154850D01*
G01X172750D02*
X164950D01*
Y671600D01*
X172750D01*
G01X169630Y664060D02*
X164950D01*
G01X182655Y658080D02*
X184215Y656780D01*
X185970Y656000D01*
X187530D01*
X189090Y656780D01*
X190260Y658080D01*
X190845Y659900D01*
X190455Y661720D01*
X189480Y663280D01*
X187725Y664320D01*
X185385Y664840D01*
X184020Y665880D01*
X183435Y667700D01*
X183825Y669520D01*
X184800Y670820D01*
X186165Y671600D01*
X187530D01*
X188895Y671080D01*
X190065Y669780D01*
G01X217675Y656000D02*
X222550Y671600D01*
X227425Y656000D01*
G01X225670Y661460D02*
X219430D01*
G01X236550Y656000D02*
Y671600D01*
X241425D01*
X242985Y670820D01*
X243960Y669780D01*
X244350Y667700D01*
X243960Y665620D01*
X242790Y664320D01*
X241425Y663540D01*
X236550D01*
G01X241425D02*
X244350Y656000D01*
G01X262250D02*
X254450D01*
Y671600D01*
X262250D01*
G01X259130Y664060D02*
X254450D01*
G01X290250Y656000D02*
Y671600D01*
X294930D01*
X296490Y670820D01*
X297660Y669000D01*
X298050Y666920D01*
X297660Y664840D01*
X296685Y663280D01*
X294930Y662500D01*
X290250D01*
G01X308150Y671600D02*
Y656000D01*
X315950D01*
G01X325075D02*
X329950Y671600D01*
X334825Y656000D01*
G01X333070Y661460D02*
X326830D01*
G01X347850Y671600D02*
Y656000D01*
G01X343365Y671600D02*
X352335D01*
G01X369650Y656000D02*
X361850D01*
Y671600D01*
X369650D01*
G01X366530Y664060D02*
X361850D01*
G01X379360Y656000D02*
Y671600D01*
X383260D01*
X384820Y670820D01*
X385990Y669780D01*
X386965Y668220D01*
X387745Y666400D01*
X387940Y663800D01*
X387745Y661200D01*
X386965Y659380D01*
X385990Y657820D01*
X384820Y656780D01*
X383260Y656000D01*
X379360D01*
G01X419450Y671600D02*
Y656000D01*
G01X414965Y671600D02*
X423935D01*
G01X433255Y656000D02*
Y671600D01*
G01X441445D02*
Y656000D01*
G01Y663800D02*
X433255D01*
G01X451350Y656000D02*
Y671600D01*
X456225D01*
X457785Y670820D01*
X458760Y669780D01*
X459150Y667700D01*
X458760Y665620D01*
X457590Y664320D01*
X456225Y663540D01*
X451350D01*
G01X456225D02*
X459150Y656000D01*
G01X473150D02*
X471590Y656260D01*
X470225Y657300D01*
X469055Y658860D01*
X468275Y660680D01*
X467885Y662760D01*
Y664840D01*
X468275Y666920D01*
X469055Y668740D01*
X470225Y670300D01*
X471590Y671340D01*
X473150Y671600D01*
X474710Y671340D01*
X476075Y670300D01*
X477245Y668740D01*
X478025Y666920D01*
X478415Y664840D01*
Y662760D01*
X478025Y660680D01*
X477245Y658860D01*
X476075Y657300D01*
X474710Y656260D01*
X473150Y656000D01*
G01X486760Y671600D02*
Y660420D01*
X487540Y658080D01*
X489100Y656520D01*
X491050Y656000D01*
X493000Y656520D01*
X494560Y658080D01*
X495340Y660420D01*
Y671600D01*
G01X510120Y663800D02*
X514020D01*
Y659120D01*
X512850Y657560D01*
X511485Y656520D01*
X509535Y656000D01*
X507585Y656520D01*
X506220Y657560D01*
X505050Y659120D01*
X504270Y660940D01*
X503880Y663020D01*
Y664840D01*
X504270Y666400D01*
X505050Y668220D01*
X506220Y669780D01*
X507390Y670820D01*
X508950Y671600D01*
X510315D01*
X511875Y671080D01*
X513045Y670040D01*
G01X522755Y656000D02*
Y671600D01*
G01X530945D02*
Y656000D01*
G01Y663800D02*
X522755D01*
G01X558360Y671600D02*
Y660420D01*
X559140Y658080D01*
X560700Y656520D01*
X562650Y656000D01*
X564600Y656520D01*
X566160Y658080D01*
X566940Y660420D01*
Y671600D01*
G01X576065Y656000D02*
Y671600D01*
X585035Y656000D01*
Y671600D01*
G01X594550D02*
Y656000D01*
X602350D01*
G01X620250D02*
X612450D01*
Y671600D01*
X620250D01*
G01X617130Y664060D02*
X612450D01*
G01X630155Y658080D02*
X631715Y656780D01*
X633470Y656000D01*
X635030D01*
X636590Y656780D01*
X637760Y658080D01*
X638345Y659900D01*
X637955Y661720D01*
X636980Y663280D01*
X635225Y664320D01*
X632885Y664840D01*
X631520Y665880D01*
X630935Y667700D01*
X631325Y669520D01*
X632300Y670820D01*
X633665Y671600D01*
X635030D01*
X636395Y671080D01*
X637565Y669780D01*
G01X648055Y658080D02*
X649615Y656780D01*
X651370Y656000D01*
X652930D01*
X654490Y656780D01*
X655660Y658080D01*
X656245Y659900D01*
X655855Y661720D01*
X654880Y663280D01*
X653125Y664320D01*
X650785Y664840D01*
X649420Y665880D01*
X648835Y667700D01*
X649225Y669520D01*
X650200Y670820D01*
X651565Y671600D01*
X652930D01*
X654295Y671080D01*
X655465Y669780D01*
G01X687950Y656000D02*
X686390Y656260D01*
X685025Y657300D01*
X683855Y658860D01*
X683075Y660680D01*
X682685Y662760D01*
Y664840D01*
X683075Y666920D01*
X683855Y668740D01*
X685025Y670300D01*
X686390Y671340D01*
X687950Y671600D01*
X689510Y671340D01*
X690875Y670300D01*
X692045Y668740D01*
X692825Y666920D01*
X693215Y664840D01*
Y662760D01*
X692825Y660680D01*
X692045Y658860D01*
X690875Y657300D01*
X689510Y656260D01*
X687950Y656000D01*
G01X705850Y671600D02*
Y656000D01*
G01X701365Y671600D02*
X710335D01*
G01X719655Y656000D02*
Y671600D01*
G01X727845D02*
Y656000D01*
G01Y663800D02*
X719655D01*
G01X745550Y656000D02*
X737750D01*
Y671600D01*
X745550D01*
G01X742430Y664060D02*
X737750D01*
G01X755650Y656000D02*
Y671600D01*
X760525D01*
X762085Y670820D01*
X763060Y669780D01*
X763450Y667700D01*
X763060Y665620D01*
X761890Y664320D01*
X760525Y663540D01*
X755650D01*
G01X760525D02*
X763450Y656000D01*
G01X771600Y671600D02*
X774330Y656000D01*
X777450Y671600D01*
X780570Y656000D01*
X783300Y671600D01*
G01X793010D02*
X797690D01*
G01X795350D02*
Y656000D01*
G01X793010D02*
X797690D01*
G01X809155Y658080D02*
X810715Y656780D01*
X812470Y656000D01*
X814030D01*
X815590Y656780D01*
X816760Y658080D01*
X817345Y659900D01*
X816955Y661720D01*
X815980Y663280D01*
X814225Y664320D01*
X811885Y664840D01*
X810520Y665880D01*
X809935Y667700D01*
X810325Y669520D01*
X811300Y670820D01*
X812665Y671600D01*
X814030D01*
X815395Y671080D01*
X816565Y669780D01*
G01X835050Y656000D02*
X827250D01*
Y671600D01*
X835050D01*
G01X831930Y664060D02*
X827250D01*
G01X862465Y656000D02*
Y671600D01*
X871435Y656000D01*
Y671600D01*
G01X884850Y656000D02*
X883290Y656260D01*
X881925Y657300D01*
X880755Y658860D01*
X879975Y660680D01*
X879585Y662760D01*
Y664840D01*
X879975Y666920D01*
X880755Y668740D01*
X881925Y670300D01*
X883290Y671340D01*
X884850Y671600D01*
X886410Y671340D01*
X887775Y670300D01*
X888945Y668740D01*
X889725Y666920D01*
X890115Y664840D01*
Y662760D01*
X889725Y660680D01*
X888945Y658860D01*
X887775Y657300D01*
X886410Y656260D01*
X884850Y656000D01*
G01X902750Y671600D02*
Y656000D01*
G01X898265Y671600D02*
X907235D01*
G01X924550Y656000D02*
X916750D01*
Y671600D01*
X924550D01*
G01X921430Y664060D02*
X916750D01*
G01X934260Y656000D02*
Y671600D01*
X938160D01*
X939720Y670820D01*
X940890Y669780D01*
X941865Y668220D01*
X942645Y666400D01*
X942840Y663800D01*
X942645Y661200D01*
X941865Y659380D01*
X940890Y657820D01*
X939720Y656780D01*
X938160Y656000D01*
X934260D01*
G01X-7310Y682500D02*
Y698100D01*
X-14525Y686920D01*
X-4775D01*
G01X8250Y681980D02*
X7860Y682240D01*
Y682760D01*
X8250Y683020D01*
X8640Y682760D01*
Y682240D01*
X8250Y681980D01*
G01X48340Y696800D02*
X47170Y697580D01*
X45805Y698100D01*
X44245D01*
X42490Y697320D01*
X41125Y696020D01*
X40150Y694460D01*
X39370Y691860D01*
X39175Y689520D01*
X39565Y687180D01*
X40150Y685620D01*
X41320Y684060D01*
X42685Y683020D01*
X44050Y682500D01*
X45415D01*
X46780Y683020D01*
X47950Y683800D01*
X48925Y684840D01*
G01X61950Y682500D02*
X60390Y682760D01*
X59025Y683800D01*
X57855Y685360D01*
X57075Y687180D01*
X56685Y689260D01*
Y691340D01*
X57075Y693420D01*
X57855Y695240D01*
X59025Y696800D01*
X60390Y697840D01*
X61950Y698100D01*
X63510Y697840D01*
X64875Y696800D01*
X66045Y695240D01*
X66825Y693420D01*
X67215Y691340D01*
Y689260D01*
X66825Y687180D01*
X66045Y685360D01*
X64875Y683800D01*
X63510Y682760D01*
X61950Y682500D01*
G01X75950D02*
Y698100D01*
X80630D01*
X82190Y697320D01*
X83360Y695500D01*
X83750Y693420D01*
X83360Y691340D01*
X82385Y689780D01*
X80630Y689000D01*
X75950D01*
G01X93850Y682500D02*
Y698100D01*
X98530D01*
X100090Y697320D01*
X101260Y695500D01*
X101650Y693420D01*
X101260Y691340D01*
X100285Y689780D01*
X98530Y689000D01*
X93850D01*
G01X119550Y682500D02*
X111750D01*
Y698100D01*
X119550D01*
G01X116430Y690560D02*
X111750D01*
G01X129650Y682500D02*
Y698100D01*
X134525D01*
X136085Y697320D01*
X137060Y696280D01*
X137450Y694200D01*
X137060Y692120D01*
X135890Y690820D01*
X134525Y690040D01*
X129650D01*
G01X134525D02*
X137450Y682500D01*
G01X169350Y698100D02*
Y682500D01*
G01X164865Y698100D02*
X173835D01*
G01X183155Y682500D02*
Y698100D01*
G01X191345D02*
Y682500D01*
G01Y690300D02*
X183155D01*
G01X202810Y698100D02*
X207490D01*
G01X205150D02*
Y682500D01*
G01X202810D02*
X207490D01*
G01X227340Y696800D02*
X226170Y697580D01*
X224805Y698100D01*
X223245D01*
X221490Y697320D01*
X220125Y696020D01*
X219150Y694460D01*
X218370Y691860D01*
X218175Y689520D01*
X218565Y687180D01*
X219150Y685620D01*
X220320Y684060D01*
X221685Y683020D01*
X223050Y682500D01*
X224415D01*
X225780Y683020D01*
X226950Y683800D01*
X227925Y684840D01*
G01X236660Y682500D02*
Y698100D01*
G01X244070D02*
X236660Y688480D01*
G01X245240Y682500D02*
X239975Y692900D01*
G01X254365Y682500D02*
Y698100D01*
X263335Y682500D01*
Y698100D01*
G01X280650Y682500D02*
X272850D01*
Y698100D01*
X280650D01*
G01X277530Y690560D02*
X272850D01*
G01X290555Y684580D02*
X292115Y683280D01*
X293870Y682500D01*
X295430D01*
X296990Y683280D01*
X298160Y684580D01*
X298745Y686400D01*
X298355Y688220D01*
X297380Y689780D01*
X295625Y690820D01*
X293285Y691340D01*
X291920Y692380D01*
X291335Y694200D01*
X291725Y696020D01*
X292700Y697320D01*
X294065Y698100D01*
X295430D01*
X296795Y697580D01*
X297965Y696280D01*
G01X308455Y684580D02*
X310015Y683280D01*
X311770Y682500D01*
X313330D01*
X314890Y683280D01*
X316060Y684580D01*
X316645Y686400D01*
X316255Y688220D01*
X315280Y689780D01*
X313525Y690820D01*
X311185Y691340D01*
X309820Y692380D01*
X309235Y694200D01*
X309625Y696020D01*
X310600Y697320D01*
X311965Y698100D01*
X313330D01*
X314695Y697580D01*
X315865Y696280D01*
G01X334350Y682500D02*
X326550D01*
Y698100D01*
X334350D01*
G01X331230Y690560D02*
X326550D01*
G01X344255Y684580D02*
X345815Y683280D01*
X347570Y682500D01*
X349130D01*
X350690Y683280D01*
X351860Y684580D01*
X352445Y686400D01*
X352055Y688220D01*
X351080Y689780D01*
X349325Y690820D01*
X346985Y691340D01*
X345620Y692380D01*
X345035Y694200D01*
X345425Y696020D01*
X346400Y697320D01*
X347765Y698100D01*
X349130D01*
X350495Y697580D01*
X351665Y696280D01*
G01X366250Y681980D02*
X365860Y682240D01*
Y682760D01*
X366250Y683020D01*
X366640Y682760D01*
Y682240D01*
X366250Y681980D01*
G01Y689000D02*
X365860Y689260D01*
Y689780D01*
X366250Y690040D01*
X366640Y689780D01*
Y689260D01*
X366250Y689000D01*
G01X402050Y682500D02*
Y698100D01*
X399710Y694980D01*
G01Y682500D02*
X404390D01*
G01X416440Y681980D02*
X423460Y698100D01*
G01X434145Y695500D02*
X435315Y697060D01*
X436680Y697840D01*
X438240Y698100D01*
X440190Y697580D01*
X441555Y696280D01*
X441945Y694720D01*
X441750Y693160D01*
X440970Y691860D01*
X437070Y689260D01*
X435315Y687440D01*
X434145Y684840D01*
X433755Y682500D01*
X441945D01*
G01X473650D02*
X472480Y682760D01*
X471310Y683800D01*
X470530Y685620D01*
X470140Y687700D01*
X470530Y689780D01*
X471310Y691600D01*
X472480Y692640D01*
X473650Y692900D01*
X474820Y692640D01*
X475990Y691600D01*
X476770Y689780D01*
X476965Y687700D01*
X476770Y685620D01*
X475990Y683800D01*
X474820Y682760D01*
X473650Y682500D01*
G01X488625Y692900D02*
X494475D01*
X488625Y682500D01*
X494475D01*
G01X509450Y681980D02*
X509060Y682240D01*
Y682760D01*
X509450Y683020D01*
X509840Y682760D01*
Y682240D01*
X509450Y681980D01*
G01X-13855Y750500D02*
X-12685Y752060D01*
X-11320Y752840D01*
X-9760Y753100D01*
X-7810Y752580D01*
X-6445Y751280D01*
X-6055Y749720D01*
X-6250Y748160D01*
X-7030Y746860D01*
X-10930Y744260D01*
X-12685Y742440D01*
X-13855Y739840D01*
X-14245Y737500D01*
X-6055D01*
G01X7750Y736980D02*
X7360Y737240D01*
Y737760D01*
X7750Y738020D01*
X8140Y737760D01*
Y737240D01*
X7750Y736980D01*
G01X45110Y745820D02*
X45890Y746600D01*
X46475Y747900D01*
X46865Y749720D01*
X46475Y751280D01*
X45695Y752320D01*
X44330Y753100D01*
X39065D01*
Y737500D01*
X45500D01*
X46865Y738540D01*
X47645Y740100D01*
X48035Y741920D01*
X47645Y743740D01*
X46475Y745300D01*
X45110Y745820D01*
X39065D01*
G01X61450Y737500D02*
X59890Y737760D01*
X58525Y738800D01*
X57355Y740360D01*
X56575Y742180D01*
X56185Y744260D01*
Y746340D01*
X56575Y748420D01*
X57355Y750240D01*
X58525Y751800D01*
X59890Y752840D01*
X61450Y753100D01*
X63010Y752840D01*
X64375Y751800D01*
X65545Y750240D01*
X66325Y748420D01*
X66715Y746340D01*
Y744260D01*
X66325Y742180D01*
X65545Y740360D01*
X64375Y738800D01*
X63010Y737760D01*
X61450Y737500D01*
G01X74475D02*
X79350Y753100D01*
X84225Y737500D01*
G01X82470Y742960D02*
X76230D01*
G01X93350Y737500D02*
Y753100D01*
X98225D01*
X99785Y752320D01*
X100760Y751280D01*
X101150Y749200D01*
X100760Y747120D01*
X99590Y745820D01*
X98225Y745040D01*
X93350D01*
G01X98225D02*
X101150Y737500D01*
G01X110860D02*
Y753100D01*
X114760D01*
X116320Y752320D01*
X117490Y751280D01*
X118465Y749720D01*
X119245Y747900D01*
X119440Y745300D01*
X119245Y742700D01*
X118465Y740880D01*
X117490Y739320D01*
X116320Y738280D01*
X114760Y737500D01*
X110860D01*
G01X150950Y753100D02*
Y737500D01*
G01X146465Y753100D02*
X155435D01*
G01X164755Y737500D02*
Y753100D01*
G01X172945D02*
Y737500D01*
G01Y745300D02*
X164755D01*
G01X184410Y753100D02*
X189090D01*
G01X186750D02*
Y737500D01*
G01X184410D02*
X189090D01*
G01X208940Y751800D02*
X207770Y752580D01*
X206405Y753100D01*
X204845D01*
X203090Y752320D01*
X201725Y751020D01*
X200750Y749460D01*
X199970Y746860D01*
X199775Y744520D01*
X200165Y742180D01*
X200750Y740620D01*
X201920Y739060D01*
X203285Y738020D01*
X204650Y737500D01*
X206015D01*
X207380Y738020D01*
X208550Y738800D01*
X209525Y739840D01*
G01X218260Y737500D02*
Y753100D01*
G01X225670D02*
X218260Y743480D01*
G01X226840Y737500D02*
X221575Y747900D01*
G01X235965Y737500D02*
Y753100D01*
X244935Y737500D01*
Y753100D01*
G01X262250Y737500D02*
X254450D01*
Y753100D01*
X262250D01*
G01X259130Y745560D02*
X254450D01*
G01X272155Y739580D02*
X273715Y738280D01*
X275470Y737500D01*
X277030D01*
X278590Y738280D01*
X279760Y739580D01*
X280345Y741400D01*
X279955Y743220D01*
X278980Y744780D01*
X277225Y745820D01*
X274885Y746340D01*
X273520Y747380D01*
X272935Y749200D01*
X273325Y751020D01*
X274300Y752320D01*
X275665Y753100D01*
X277030D01*
X278395Y752580D01*
X279565Y751280D01*
G01X290055Y739580D02*
X291615Y738280D01*
X293370Y737500D01*
X294930D01*
X296490Y738280D01*
X297660Y739580D01*
X298245Y741400D01*
X297855Y743220D01*
X296880Y744780D01*
X295125Y745820D01*
X292785Y746340D01*
X291420Y747380D01*
X290835Y749200D01*
X291225Y751020D01*
X292200Y752320D01*
X293565Y753100D01*
X294930D01*
X296295Y752580D01*
X297465Y751280D01*
G01X312050Y736980D02*
X311660Y737240D01*
Y737760D01*
X312050Y738020D01*
X312440Y737760D01*
Y737240D01*
X312050Y736980D01*
G01Y744000D02*
X311660Y744260D01*
Y744780D01*
X312050Y745040D01*
X312440Y744780D01*
Y744260D01*
X312050Y744000D01*
G01X347850Y753100D02*
X346290Y752580D01*
X345120Y751280D01*
X344340Y749720D01*
X343755Y747640D01*
X343560Y745300D01*
X343755Y742960D01*
X344340Y740880D01*
X345120Y739320D01*
X346290Y738020D01*
X347850Y737500D01*
X349410Y738020D01*
X350580Y739320D01*
X351360Y740880D01*
X351945Y742960D01*
X352140Y745300D01*
X351945Y747640D01*
X351360Y749720D01*
X350580Y751280D01*
X349410Y752580D01*
X347850Y753100D01*
G01X365750Y736980D02*
X365360Y737240D01*
Y737760D01*
X365750Y738020D01*
X366140Y737760D01*
Y737240D01*
X365750Y736980D01*
G01X383650Y753100D02*
X382090Y752580D01*
X380920Y751280D01*
X380140Y749720D01*
X379555Y747640D01*
X379360Y745300D01*
X379555Y742960D01*
X380140Y740880D01*
X380920Y739320D01*
X382090Y738020D01*
X383650Y737500D01*
X385210Y738020D01*
X386380Y739320D01*
X387160Y740880D01*
X387745Y742960D01*
X387940Y745300D01*
X387745Y747640D01*
X387160Y749720D01*
X386380Y751280D01*
X385210Y752580D01*
X383650Y753100D01*
G01X397845Y744000D02*
X399210Y745820D01*
X400380Y746860D01*
X401940Y747380D01*
X403305Y746860D01*
X404280Y745820D01*
X405060Y744260D01*
X405255Y742440D01*
X405060Y740880D01*
X404280Y739320D01*
X403110Y738020D01*
X401745Y737500D01*
X400185Y738020D01*
X398820Y739580D01*
X398040Y741920D01*
X397845Y744520D01*
X398235Y747900D01*
X398820Y749720D01*
X399795Y751540D01*
X401160Y752840D01*
X402525Y753100D01*
X403890Y752580D01*
X404865Y751280D01*
G01X415745Y750500D02*
X416915Y752060D01*
X418280Y752840D01*
X419840Y753100D01*
X421790Y752580D01*
X423155Y751280D01*
X423545Y749720D01*
X423350Y748160D01*
X422570Y746860D01*
X418670Y744260D01*
X416915Y742440D01*
X415745Y739840D01*
X415355Y737500D01*
X423545D01*
G01X452910Y753100D02*
X457590D01*
G01X455250D02*
Y737500D01*
G01X452910D02*
X457590D01*
G01X468665D02*
Y753100D01*
X477635Y737500D01*
Y753100D01*
G01X495340Y751800D02*
X494170Y752580D01*
X492805Y753100D01*
X491245D01*
X489490Y752320D01*
X488125Y751020D01*
X487150Y749460D01*
X486370Y746860D01*
X486175Y744520D01*
X486565Y742180D01*
X487150Y740620D01*
X488320Y739060D01*
X489685Y738020D01*
X491050Y737500D01*
X492415D01*
X493780Y738020D01*
X494950Y738800D01*
X495925Y739840D01*
G01X504855Y737500D02*
Y753100D01*
G01X513045D02*
Y737500D01*
G01Y745300D02*
X504855D01*
G01X530750Y737500D02*
X522950D01*
Y753100D01*
X530750D01*
G01X527630Y745560D02*
X522950D01*
G01X540655Y739580D02*
X542215Y738280D01*
X543970Y737500D01*
X545530D01*
X547090Y738280D01*
X548260Y739580D01*
X548845Y741400D01*
X548455Y743220D01*
X547480Y744780D01*
X545725Y745820D01*
X543385Y746340D01*
X542020Y747380D01*
X541435Y749200D01*
X541825Y751020D01*
X542800Y752320D01*
X544165Y753100D01*
X545530D01*
X546895Y752580D01*
X548065Y751280D01*
G01X580550Y737500D02*
X578990Y737760D01*
X577625Y738800D01*
X576455Y740360D01*
X575675Y742180D01*
X575285Y744260D01*
Y746340D01*
X575675Y748420D01*
X576455Y750240D01*
X577625Y751800D01*
X578990Y752840D01*
X580550Y753100D01*
X582110Y752840D01*
X583475Y751800D01*
X584645Y750240D01*
X585425Y748420D01*
X585815Y746340D01*
Y744260D01*
X585425Y742180D01*
X584645Y740360D01*
X583475Y738800D01*
X582110Y737760D01*
X580550Y737500D01*
G01X594550D02*
Y753100D01*
X599425D01*
X600985Y752320D01*
X601960Y751280D01*
X602350Y749200D01*
X601960Y747120D01*
X600790Y745820D01*
X599425Y745040D01*
X594550D01*
G01X599425D02*
X602350Y737500D01*
G01X635420Y745300D02*
X639320D01*
Y740620D01*
X638150Y739060D01*
X636785Y738020D01*
X634835Y737500D01*
X632885Y738020D01*
X631520Y739060D01*
X630350Y740620D01*
X629570Y742440D01*
X629180Y744520D01*
Y746340D01*
X629570Y747900D01*
X630350Y749720D01*
X631520Y751280D01*
X632690Y752320D01*
X634250Y753100D01*
X635615D01*
X637175Y752580D01*
X638345Y751540D01*
G01X648250Y737500D02*
Y753100D01*
X653125D01*
X654685Y752320D01*
X655660Y751280D01*
X656050Y749200D01*
X655660Y747120D01*
X654490Y745820D01*
X653125Y745040D01*
X648250D01*
G01X653125D02*
X656050Y737500D01*
G01X673950D02*
X666150D01*
Y753100D01*
X673950D01*
G01X670830Y745560D02*
X666150D01*
G01X683075Y737500D02*
X687950Y753100D01*
X692825Y737500D01*
G01X691070Y742960D02*
X684830D01*
G01X705850Y753100D02*
Y737500D01*
G01X701365Y753100D02*
X710335D01*
G01X727650Y737500D02*
X719850D01*
Y753100D01*
X727650D01*
G01X724530Y745560D02*
X719850D01*
G01X737750Y737500D02*
Y753100D01*
X742625D01*
X744185Y752320D01*
X745160Y751280D01*
X745550Y749200D01*
X745160Y747120D01*
X743990Y745820D01*
X742625Y745040D01*
X737750D01*
G01X742625D02*
X745550Y737500D01*
G01X-11650Y763000D02*
Y778600D01*
X-13990Y775480D01*
G01Y763000D02*
X-9310D01*
G01X6250Y762480D02*
X5860Y762740D01*
Y763260D01*
X6250Y763520D01*
X6640Y763260D01*
Y762740D01*
X6250Y762480D01*
G01X42050Y778600D02*
Y763000D01*
G01X37565Y778600D02*
X46535D01*
G01X55855Y763000D02*
Y778600D01*
G01X64045D02*
Y763000D01*
G01Y770800D02*
X55855D01*
G01X75510Y778600D02*
X80190D01*
G01X77850D02*
Y763000D01*
G01X75510D02*
X80190D01*
G01X91655Y765080D02*
X93215Y763780D01*
X94970Y763000D01*
X96530D01*
X98090Y763780D01*
X99260Y765080D01*
X99845Y766900D01*
X99455Y768720D01*
X98480Y770280D01*
X96725Y771320D01*
X94385Y771840D01*
X93020Y772880D01*
X92435Y774700D01*
X92825Y776520D01*
X93800Y777820D01*
X95165Y778600D01*
X96530D01*
X97895Y778080D01*
X99065Y776780D01*
G01X133110Y771320D02*
X133890Y772100D01*
X134475Y773400D01*
X134865Y775220D01*
X134475Y776780D01*
X133695Y777820D01*
X132330Y778600D01*
X127065D01*
Y763000D01*
X133500D01*
X134865Y764040D01*
X135645Y765600D01*
X136035Y767420D01*
X135645Y769240D01*
X134475Y770800D01*
X133110Y771320D01*
X127065D01*
G01X149450Y763000D02*
X147890Y763260D01*
X146525Y764300D01*
X145355Y765860D01*
X144575Y767680D01*
X144185Y769760D01*
Y771840D01*
X144575Y773920D01*
X145355Y775740D01*
X146525Y777300D01*
X147890Y778340D01*
X149450Y778600D01*
X151010Y778340D01*
X152375Y777300D01*
X153545Y775740D01*
X154325Y773920D01*
X154715Y771840D01*
Y769760D01*
X154325Y767680D01*
X153545Y765860D01*
X152375Y764300D01*
X151010Y763260D01*
X149450Y763000D01*
G01X162475D02*
X167350Y778600D01*
X172225Y763000D01*
G01X170470Y768460D02*
X164230D01*
G01X181350Y763000D02*
Y778600D01*
X186225D01*
X187785Y777820D01*
X188760Y776780D01*
X189150Y774700D01*
X188760Y772620D01*
X187590Y771320D01*
X186225Y770540D01*
X181350D01*
G01X186225D02*
X189150Y763000D01*
G01X198860D02*
Y778600D01*
X202760D01*
X204320Y777820D01*
X205490Y776780D01*
X206465Y775220D01*
X207245Y773400D01*
X207440Y770800D01*
X207245Y768200D01*
X206465Y766380D01*
X205490Y764820D01*
X204320Y763780D01*
X202760Y763000D01*
X198860D01*
G01X234855D02*
Y778600D01*
G01X243045D02*
Y763000D01*
G01Y770800D02*
X234855D01*
G01X251975Y763000D02*
X256850Y778600D01*
X261725Y763000D01*
G01X259970Y768460D02*
X253730D01*
G01X270655Y765080D02*
X272215Y763780D01*
X273970Y763000D01*
X275530D01*
X277090Y763780D01*
X278260Y765080D01*
X278845Y766900D01*
X278455Y768720D01*
X277480Y770280D01*
X275725Y771320D01*
X273385Y771840D01*
X272020Y772880D01*
X271435Y774700D01*
X271825Y776520D01*
X272800Y777820D01*
X274165Y778600D01*
X275530D01*
X276895Y778080D01*
X278065Y776780D01*
G01X306845Y769500D02*
X308210Y771320D01*
X309380Y772360D01*
X310940Y772880D01*
X312305Y772360D01*
X313280Y771320D01*
X314060Y769760D01*
X314255Y767940D01*
X314060Y766380D01*
X313280Y764820D01*
X312110Y763520D01*
X310745Y763000D01*
X309185Y763520D01*
X307820Y765080D01*
X307040Y767420D01*
X306845Y770020D01*
X307235Y773400D01*
X307820Y775220D01*
X308795Y777040D01*
X310160Y778340D01*
X311525Y778600D01*
X312890Y778080D01*
X313865Y776780D01*
G01X342450Y778600D02*
Y763000D01*
X350250D01*
G01X359375D02*
X364250Y778600D01*
X369125Y763000D01*
G01X367370Y768460D02*
X361130D01*
G01X382150Y763000D02*
Y770020D01*
X378250Y778600D01*
G01X386050D02*
X382150Y770020D01*
G01X403950Y763000D02*
X396150D01*
Y778600D01*
X403950D01*
G01X400830Y771060D02*
X396150D01*
G01X414050Y763000D02*
Y778600D01*
X418925D01*
X420485Y777820D01*
X421460Y776780D01*
X421850Y774700D01*
X421460Y772620D01*
X420290Y771320D01*
X418925Y770540D01*
X414050D01*
G01X418925D02*
X421850Y763000D01*
G01X431755Y765080D02*
X433315Y763780D01*
X435070Y763000D01*
X436630D01*
X438190Y763780D01*
X439360Y765080D01*
X439945Y766900D01*
X439555Y768720D01*
X438580Y770280D01*
X436825Y771320D01*
X434485Y771840D01*
X433120Y772880D01*
X432535Y774700D01*
X432925Y776520D01*
X433900Y777820D01*
X435265Y778600D01*
X436630D01*
X437995Y778080D01*
X439165Y776780D01*
G01X453750Y762480D02*
X453360Y762740D01*
Y763260D01*
X453750Y763520D01*
X454140Y763260D01*
Y762740D01*
X453750Y762480D01*
G01X503355Y765080D02*
X504915Y763780D01*
X506670Y763000D01*
X508230D01*
X509790Y763780D01*
X510960Y765080D01*
X511545Y766900D01*
X511155Y768720D01*
X510180Y770280D01*
X508425Y771320D01*
X506085Y771840D01*
X504720Y772880D01*
X504135Y774700D01*
X504525Y776520D01*
X505500Y777820D01*
X506865Y778600D01*
X508230D01*
X509595Y778080D01*
X510765Y776780D01*
G01X525350Y778600D02*
Y763000D01*
G01X520865Y778600D02*
X529835D01*
G01X538375Y763000D02*
X543250Y778600D01*
X548125Y763000D01*
G01X546370Y768460D02*
X540130D01*
G01X565440Y777300D02*
X564270Y778080D01*
X562905Y778600D01*
X561345D01*
X559590Y777820D01*
X558225Y776520D01*
X557250Y774960D01*
X556470Y772360D01*
X556275Y770020D01*
X556665Y767680D01*
X557250Y766120D01*
X558420Y764560D01*
X559785Y763520D01*
X561150Y763000D01*
X562515D01*
X563880Y763520D01*
X565050Y764300D01*
X566025Y765340D01*
G01X574760Y763000D02*
Y778600D01*
G01X582170D02*
X574760Y768980D01*
G01X583340Y763000D02*
X578075Y773400D01*
G01X592660Y778600D02*
Y767420D01*
X593440Y765080D01*
X595000Y763520D01*
X596950Y763000D01*
X598900Y763520D01*
X600460Y765080D01*
X601240Y767420D01*
Y778600D01*
G01X610950Y763000D02*
Y778600D01*
X615630D01*
X617190Y777820D01*
X618360Y776000D01*
X618750Y773920D01*
X618360Y771840D01*
X617385Y770280D01*
X615630Y769500D01*
X610950D01*
G01X649675Y757800D02*
X647725Y760400D01*
X646750Y763000D01*
Y773400D01*
X647725Y776000D01*
X649675Y778600D01*
G01X668550D02*
Y763000D01*
G01X664065Y778600D02*
X673035D01*
G01X686450Y763000D02*
X684890Y763260D01*
X683525Y764300D01*
X682355Y765860D01*
X681575Y767680D01*
X681185Y769760D01*
Y771840D01*
X681575Y773920D01*
X682355Y775740D01*
X683525Y777300D01*
X684890Y778340D01*
X686450Y778600D01*
X688010Y778340D01*
X689375Y777300D01*
X690545Y775740D01*
X691325Y773920D01*
X691715Y771840D01*
Y769760D01*
X691325Y767680D01*
X690545Y765860D01*
X689375Y764300D01*
X688010Y763260D01*
X686450Y763000D01*
G01X700450D02*
Y778600D01*
X705130D01*
X706690Y777820D01*
X707860Y776000D01*
X708250Y773920D01*
X707860Y771840D01*
X706885Y770280D01*
X705130Y769500D01*
X700450D01*
G01X721860Y760140D02*
X722640Y763520D01*
G01X759220Y770800D02*
X763120D01*
Y766120D01*
X761950Y764560D01*
X760585Y763520D01*
X758635Y763000D01*
X756685Y763520D01*
X755320Y764560D01*
X754150Y766120D01*
X753370Y767940D01*
X752980Y770020D01*
Y771840D01*
X753370Y773400D01*
X754150Y775220D01*
X755320Y776780D01*
X756490Y777820D01*
X758050Y778600D01*
X759415D01*
X760975Y778080D01*
X762145Y777040D01*
G01X771465Y763000D02*
Y778600D01*
X780435Y763000D01*
Y778600D01*
G01X789560Y763000D02*
Y778600D01*
X793460D01*
X795020Y777820D01*
X796190Y776780D01*
X797165Y775220D01*
X797945Y773400D01*
X798140Y770800D01*
X797945Y768200D01*
X797165Y766380D01*
X796190Y764820D01*
X795020Y763780D01*
X793460Y763000D01*
X789560D01*
G01X811360Y760140D02*
X812140Y763520D01*
G01X843455Y765080D02*
X845015Y763780D01*
X846770Y763000D01*
X848330D01*
X849890Y763780D01*
X851060Y765080D01*
X851645Y766900D01*
X851255Y768720D01*
X850280Y770280D01*
X848525Y771320D01*
X846185Y771840D01*
X844820Y772880D01*
X844235Y774700D01*
X844625Y776520D01*
X845600Y777820D01*
X846965Y778600D01*
X848330D01*
X849695Y778080D01*
X850865Y776780D01*
G01X863110Y778600D02*
X867790D01*
G01X865450D02*
Y763000D01*
G01X863110D02*
X867790D01*
G01X884520Y770800D02*
X888420D01*
Y766120D01*
X887250Y764560D01*
X885885Y763520D01*
X883935Y763000D01*
X881985Y763520D01*
X880620Y764560D01*
X879450Y766120D01*
X878670Y767940D01*
X878280Y770020D01*
Y771840D01*
X878670Y773400D01*
X879450Y775220D01*
X880620Y776780D01*
X881790Y777820D01*
X883350Y778600D01*
X884715D01*
X886275Y778080D01*
X887445Y777040D01*
G01X901250Y763000D02*
Y778600D01*
X898910Y775480D01*
G01Y763000D02*
X903590D01*
G01X918760Y760140D02*
X919540Y763520D01*
G01X950855Y765080D02*
X952415Y763780D01*
X954170Y763000D01*
X955730D01*
X957290Y763780D01*
X958460Y765080D01*
X959045Y766900D01*
X958655Y768720D01*
X957680Y770280D01*
X955925Y771320D01*
X953585Y771840D01*
X952220Y772880D01*
X951635Y774700D01*
X952025Y776520D01*
X953000Y777820D01*
X954365Y778600D01*
X955730D01*
X957095Y778080D01*
X958265Y776780D01*
G01X970510Y778600D02*
X975190D01*
G01X972850D02*
Y763000D01*
G01X970510D02*
X975190D01*
G01X991920Y770800D02*
X995820D01*
Y766120D01*
X994650Y764560D01*
X993285Y763520D01*
X991335Y763000D01*
X989385Y763520D01*
X988020Y764560D01*
X986850Y766120D01*
X986070Y767940D01*
X985680Y770020D01*
Y771840D01*
X986070Y773400D01*
X986850Y775220D01*
X988020Y776780D01*
X989190Y777820D01*
X990750Y778600D01*
X992115D01*
X993675Y778080D01*
X994845Y777040D01*
G01X1004945Y776000D02*
X1006115Y777560D01*
X1007480Y778340D01*
X1009040Y778600D01*
X1010990Y778080D01*
X1012355Y776780D01*
X1012745Y775220D01*
X1012550Y773660D01*
X1011770Y772360D01*
X1007870Y769760D01*
X1006115Y767940D01*
X1004945Y765340D01*
X1004555Y763000D01*
X1012745D01*
G01X1026160Y760140D02*
X1026940Y763520D01*
G01X1058450Y763000D02*
Y778600D01*
X1063130D01*
X1064690Y777820D01*
X1065860Y776000D01*
X1066250Y773920D01*
X1065860Y771840D01*
X1064885Y770280D01*
X1063130Y769500D01*
X1058450D01*
G01X1080250Y763000D02*
X1078690Y763260D01*
X1077325Y764300D01*
X1076155Y765860D01*
X1075375Y767680D01*
X1074985Y769760D01*
Y771840D01*
X1075375Y773920D01*
X1076155Y775740D01*
X1077325Y777300D01*
X1078690Y778340D01*
X1080250Y778600D01*
X1081810Y778340D01*
X1083175Y777300D01*
X1084345Y775740D01*
X1085125Y773920D01*
X1085515Y771840D01*
Y769760D01*
X1085125Y767680D01*
X1084345Y765860D01*
X1083175Y764300D01*
X1081810Y763260D01*
X1080250Y763000D01*
G01X1092300Y778600D02*
X1095030Y763000D01*
X1098150Y778600D01*
X1101270Y763000D01*
X1104000Y778600D01*
G01X1119950Y763000D02*
X1112150D01*
Y778600D01*
X1119950D01*
G01X1116830Y771060D02*
X1112150D01*
G01X1130050Y763000D02*
Y778600D01*
X1134925D01*
X1136485Y777820D01*
X1137460Y776780D01*
X1137850Y774700D01*
X1137460Y772620D01*
X1136290Y771320D01*
X1134925Y770540D01*
X1130050D01*
G01X1134925D02*
X1137850Y763000D01*
G01X1151460Y760140D02*
X1152240Y763520D01*
G01X1189210Y771320D02*
X1189990Y772100D01*
X1190575Y773400D01*
X1190965Y775220D01*
X1190575Y776780D01*
X1189795Y777820D01*
X1188430Y778600D01*
X1183165D01*
Y763000D01*
X1189600D01*
X1190965Y764040D01*
X1191745Y765600D01*
X1192135Y767420D01*
X1191745Y769240D01*
X1190575Y770800D01*
X1189210Y771320D01*
X1183165D01*
G01X1205550Y763000D02*
X1203990Y763260D01*
X1202625Y764300D01*
X1201455Y765860D01*
X1200675Y767680D01*
X1200285Y769760D01*
Y771840D01*
X1200675Y773920D01*
X1201455Y775740D01*
X1202625Y777300D01*
X1203990Y778340D01*
X1205550Y778600D01*
X1207110Y778340D01*
X1208475Y777300D01*
X1209645Y775740D01*
X1210425Y773920D01*
X1210815Y771840D01*
Y769760D01*
X1210425Y767680D01*
X1209645Y765860D01*
X1208475Y764300D01*
X1207110Y763260D01*
X1205550Y763000D01*
G01X1223450Y778600D02*
Y763000D01*
G01X1218965Y778600D02*
X1227935D01*
G01X1241350D02*
Y763000D01*
G01X1236865Y778600D02*
X1245835D01*
G01X1259250Y763000D02*
X1257690Y763260D01*
X1256325Y764300D01*
X1255155Y765860D01*
X1254375Y767680D01*
X1253985Y769760D01*
Y771840D01*
X1254375Y773920D01*
X1255155Y775740D01*
X1256325Y777300D01*
X1257690Y778340D01*
X1259250Y778600D01*
X1260810Y778340D01*
X1262175Y777300D01*
X1263345Y775740D01*
X1264125Y773920D01*
X1264515Y771840D01*
Y769760D01*
X1264125Y767680D01*
X1263345Y765860D01*
X1262175Y764300D01*
X1260810Y763260D01*
X1259250Y763000D01*
G01X1272080D02*
Y778600D01*
X1277150Y765600D01*
X1282220Y778600D01*
Y763000D01*
G01X1296025Y757800D02*
X1297975Y760400D01*
X1298950Y763000D01*
Y773400D01*
X1297975Y776000D01*
X1296025Y778600D01*
G01X9930Y825527D02*
X10870Y826467D01*
X11575Y828033D01*
X12045Y830227D01*
X11575Y832107D01*
X10635Y833360D01*
X8990Y834300D01*
X2645D01*
Y815500D01*
X10400D01*
X12045Y816753D01*
X12985Y818633D01*
X13455Y820827D01*
X12985Y823020D01*
X11575Y824900D01*
X9930Y825527D01*
X2645D01*
G01X26850Y815500D02*
X24970Y815813D01*
X23325Y817066D01*
X21915Y818947D01*
X20975Y821140D01*
X20505Y823647D01*
Y826153D01*
X20975Y828660D01*
X21915Y830853D01*
X23325Y832733D01*
X24970Y833987D01*
X26850Y834300D01*
X28730Y833987D01*
X30375Y832733D01*
X31785Y830853D01*
X32725Y828660D01*
X33195Y826153D01*
Y823647D01*
X32725Y821140D01*
X31785Y818947D01*
X30375Y817066D01*
X28730Y815813D01*
X26850Y815500D01*
G01X39775D02*
X45650Y834300D01*
X51525Y815500D01*
G01X49410Y822080D02*
X41890D01*
G01X59750Y815500D02*
Y834300D01*
X65625D01*
X67505Y833360D01*
X68680Y832107D01*
X69150Y829600D01*
X68680Y827093D01*
X67270Y825527D01*
X65625Y824586D01*
X59750D01*
G01X65625D02*
X69150Y815500D01*
G01X78080D02*
Y834300D01*
X82780D01*
X84660Y833360D01*
X86070Y832107D01*
X87245Y830227D01*
X88185Y828033D01*
X88420Y824900D01*
X88185Y821766D01*
X87245Y819573D01*
X86070Y817693D01*
X84660Y816440D01*
X82780Y815500D01*
X78080D01*
G01X115445D02*
Y834300D01*
X126255Y815500D01*
Y834300D01*
G01X133775Y815500D02*
X139650Y834300D01*
X145525Y815500D01*
G01X143410Y822080D02*
X135890D01*
G01X152340Y815500D02*
Y834300D01*
X158450Y818633D01*
X164560Y834300D01*
Y815500D01*
G01X181950D02*
X172550D01*
Y834300D01*
X181950D01*
G01X178190Y825214D02*
X172550D01*
G01X196050Y814873D02*
X195580Y815187D01*
Y815813D01*
X196050Y816127D01*
X196520Y815813D01*
Y815187D01*
X196050Y814873D01*
G01Y823333D02*
X195580Y823647D01*
Y824273D01*
X196050Y824586D01*
X196520Y824273D01*
Y823647D01*
X196050Y823333D01*
G01X227775Y815500D02*
X233650Y834300D01*
X239525Y815500D01*
G01X237410Y822080D02*
X229890D01*
G01X246340Y815500D02*
Y834300D01*
X252450Y818633D01*
X258560Y834300D01*
Y815500D01*
G01X265375D02*
X271250Y834300D01*
X277125Y815500D01*
G01X275010Y822080D02*
X267490D01*
G01X295220Y832733D02*
X293810Y833673D01*
X292165Y834300D01*
X290285D01*
X288170Y833360D01*
X286525Y831793D01*
X285350Y829913D01*
X284410Y826780D01*
X284175Y823960D01*
X284645Y821140D01*
X285350Y819260D01*
X286760Y817380D01*
X288405Y816127D01*
X290050Y815500D01*
X291695D01*
X293340Y816127D01*
X294750Y817066D01*
X295925Y818319D01*
G01X327650Y834300D02*
Y815500D01*
G01X322245Y834300D02*
X333055D01*
G01X351150Y815500D02*
X341750D01*
Y834300D01*
X351150D01*
G01X347390Y825214D02*
X341750D01*
G01X360315Y818006D02*
X362195Y816440D01*
X364310Y815500D01*
X366190D01*
X368070Y816440D01*
X369480Y818006D01*
X370185Y820200D01*
X369715Y822393D01*
X368540Y824273D01*
X366425Y825527D01*
X363605Y826153D01*
X361960Y827406D01*
X361255Y829600D01*
X361725Y831793D01*
X362900Y833360D01*
X364545Y834300D01*
X366190D01*
X367835Y833673D01*
X369245Y832107D01*
G01X384050Y834300D02*
Y815500D01*
G01X378645Y834300D02*
X389455D01*
G01X428700Y809234D02*
X416950Y828033D01*
Y831167D01*
X419300Y834300D01*
X421650D01*
X424000Y831167D01*
Y828033D01*
X421650Y824900D01*
X416950Y821766D01*
X414600Y818633D01*
Y812367D01*
X416950Y809234D01*
X424000D01*
X428700Y815500D01*
G01X464420Y832733D02*
X463010Y833673D01*
X461365Y834300D01*
X459485D01*
X457370Y833360D01*
X455725Y831793D01*
X454550Y829913D01*
X453610Y826780D01*
X453375Y823960D01*
X453845Y821140D01*
X454550Y819260D01*
X455960Y817380D01*
X457605Y816127D01*
X459250Y815500D01*
X460895D01*
X462540Y816127D01*
X463950Y817066D01*
X465125Y818319D01*
G01X478050Y815500D02*
X476170Y815813D01*
X474525Y817066D01*
X473115Y818947D01*
X472175Y821140D01*
X471705Y823647D01*
Y826153D01*
X472175Y828660D01*
X473115Y830853D01*
X474525Y832733D01*
X476170Y833987D01*
X478050Y834300D01*
X479930Y833987D01*
X481575Y832733D01*
X482985Y830853D01*
X483925Y828660D01*
X484395Y826153D01*
Y823647D01*
X483925Y821140D01*
X482985Y818947D01*
X481575Y817066D01*
X479930Y815813D01*
X478050Y815500D01*
G01X491445D02*
Y834300D01*
X502255Y815500D01*
Y834300D01*
G01X515650D02*
Y815500D01*
G01X510245Y834300D02*
X521055D01*
G01X529750Y815500D02*
Y834300D01*
X535625D01*
X537505Y833360D01*
X538680Y832107D01*
X539150Y829600D01*
X538680Y827093D01*
X537270Y825527D01*
X535625Y824586D01*
X529750D01*
G01X535625D02*
X539150Y815500D01*
G01X553250D02*
X551370Y815813D01*
X549725Y817066D01*
X548315Y818947D01*
X547375Y821140D01*
X546905Y823647D01*
Y826153D01*
X547375Y828660D01*
X548315Y830853D01*
X549725Y832733D01*
X551370Y833987D01*
X553250Y834300D01*
X555130Y833987D01*
X556775Y832733D01*
X558185Y830853D01*
X559125Y828660D01*
X559595Y826153D01*
Y823647D01*
X559125Y821140D01*
X558185Y818947D01*
X556775Y817066D01*
X555130Y815813D01*
X553250Y815500D01*
G01X567350Y834300D02*
Y815500D01*
X576750D01*
G01X611530Y825527D02*
X612470Y826467D01*
X613175Y828033D01*
X613645Y830227D01*
X613175Y832107D01*
X612235Y833360D01*
X610590Y834300D01*
X604245D01*
Y815500D01*
X612000D01*
X613645Y816753D01*
X614585Y818633D01*
X615055Y820827D01*
X614585Y823020D01*
X613175Y824900D01*
X611530Y825527D01*
X604245D01*
G01X628450Y815500D02*
X626570Y815813D01*
X624925Y817066D01*
X623515Y818947D01*
X622575Y821140D01*
X622105Y823647D01*
Y826153D01*
X622575Y828660D01*
X623515Y830853D01*
X624925Y832733D01*
X626570Y833987D01*
X628450Y834300D01*
X630330Y833987D01*
X631975Y832733D01*
X633385Y830853D01*
X634325Y828660D01*
X634795Y826153D01*
Y823647D01*
X634325Y821140D01*
X633385Y818947D01*
X631975Y817066D01*
X630330Y815813D01*
X628450Y815500D01*
G01X641375D02*
X647250Y834300D01*
X653125Y815500D01*
G01X651010Y822080D02*
X643490D01*
G01X661350Y815500D02*
Y834300D01*
X667225D01*
X669105Y833360D01*
X670280Y832107D01*
X670750Y829600D01*
X670280Y827093D01*
X668870Y825527D01*
X667225Y824586D01*
X661350D01*
G01X667225D02*
X670750Y815500D01*
G01X679680D02*
Y834300D01*
X684380D01*
X686260Y833360D01*
X687670Y832107D01*
X688845Y830227D01*
X689785Y828033D01*
X690020Y824900D01*
X689785Y821766D01*
X688845Y819573D01*
X687670Y817693D01*
X686260Y816440D01*
X684380Y815500D01*
X679680D01*
G01X721275Y809234D02*
X718925Y812367D01*
X717750Y815500D01*
Y828033D01*
X718925Y831167D01*
X721275Y834300D01*
G01X754175Y815500D02*
X760050Y834300D01*
X765925Y815500D01*
G01X763810Y822080D02*
X756290D01*
G01X778850Y834300D02*
Y815500D01*
G01X773445Y834300D02*
X784255D01*
G01X802820Y832733D02*
X801410Y833673D01*
X799765Y834300D01*
X797885D01*
X795770Y833360D01*
X794125Y831793D01*
X792950Y829913D01*
X792010Y826780D01*
X791775Y823960D01*
X792245Y821140D01*
X792950Y819260D01*
X794360Y817380D01*
X796005Y816127D01*
X797650Y815500D01*
X799295D01*
X800940Y816127D01*
X802350Y817066D01*
X803525Y818319D01*
G01X818330Y825527D02*
X819270Y826467D01*
X819975Y828033D01*
X820445Y830227D01*
X819975Y832107D01*
X819035Y833360D01*
X817390Y834300D01*
X811045D01*
Y815500D01*
X818800D01*
X820445Y816753D01*
X821385Y818633D01*
X821855Y820827D01*
X821385Y823020D01*
X819975Y824900D01*
X818330Y825527D01*
X811045D01*
G01X855225Y809234D02*
X857575Y812367D01*
X858750Y815500D01*
Y828033D01*
X857575Y831167D01*
X855225Y834300D01*
G01X207500Y318000D02*
Y338000D01*
X42500D01*
Y318000D01*
X207500D01*
G01X42500Y340000D02*
X46000D01*
Y338000D01*
X42500D01*
Y340000D01*
G01X207500Y373000D02*
Y393000D01*
X42500D01*
Y373000D01*
X207500D01*
G01X42500Y395000D02*
X46000D01*
Y393000D01*
X42500D01*
Y395000D01*
G01X63417Y101500D02*
X61883D01*
Y104600D01*
X63417D01*
G01X62803Y103102D02*
X61883D01*
G01X64945Y101500D02*
X66555Y104600D01*
G01X64945D02*
X66555Y101500D01*
G01X68850Y104600D02*
Y101500D01*
G01X67968Y104600D02*
X69732D01*
G01X74207Y101500D02*
Y104600D01*
X74973D01*
X75280Y104445D01*
X75510Y104238D01*
X75702Y103928D01*
X75855Y103567D01*
X75893Y103050D01*
X75855Y102533D01*
X75702Y102172D01*
X75510Y101862D01*
X75280Y101655D01*
X74973Y101500D01*
X74207D01*
G01X77192D02*
X78150Y104600D01*
X79108Y101500D01*
G01X78763Y102585D02*
X77537D01*
G01X82093Y104342D02*
X81863Y104497D01*
X81595Y104600D01*
X81288D01*
X80943Y104445D01*
X80675Y104187D01*
X80483Y103877D01*
X80330Y103360D01*
X80292Y102895D01*
X80368Y102430D01*
X80483Y102120D01*
X80713Y101810D01*
X80982Y101603D01*
X81250Y101500D01*
X81518D01*
X81787Y101603D01*
X82017Y101758D01*
X82208Y101965D01*
G01X86492Y104600D02*
X87450Y101500D01*
X88408Y104600D01*
G01X89783Y101500D02*
Y104600D01*
X90742D01*
X91048Y104445D01*
X91240Y104238D01*
X91317Y103825D01*
X91240Y103412D01*
X91010Y103153D01*
X90742Y102998D01*
X89783D01*
G01X90742D02*
X91317Y101500D01*
G01X94417D02*
X92883D01*
Y104600D01*
X94417D01*
G01X93803Y103102D02*
X92883D01*
G01X96022Y101500D02*
Y104600D01*
X97478D01*
G01X96942Y103102D02*
X96022D01*
G01X55307Y158500D02*
Y161600D01*
X56073D01*
X56380Y161445D01*
X56610Y161238D01*
X56802Y160928D01*
X56955Y160567D01*
X56993Y160050D01*
X56955Y159533D01*
X56802Y159172D01*
X56610Y158862D01*
X56380Y158655D01*
X56073Y158500D01*
X55307D01*
G01X58292D02*
X59250Y161600D01*
X60208Y158500D01*
G01X59863Y159585D02*
X58637D01*
G01X63193Y161342D02*
X62963Y161497D01*
X62695Y161600D01*
X62388D01*
X62043Y161445D01*
X61775Y161187D01*
X61583Y160877D01*
X61430Y160360D01*
X61392Y159895D01*
X61468Y159430D01*
X61583Y159120D01*
X61813Y158810D01*
X62082Y158603D01*
X62350Y158500D01*
X62618D01*
X62887Y158603D01*
X63117Y158758D01*
X63308Y158965D01*
G01X65450Y158500D02*
Y161600D01*
X64990Y160980D01*
G01Y158500D02*
X65910D01*
G01X67400Y157467D02*
X69700D01*
G01X70653Y158500D02*
Y161600D01*
X71650Y159017D01*
X72647Y161600D01*
Y158500D01*
G01X73907Y161600D02*
Y159378D01*
X74060Y158913D01*
X74367Y158603D01*
X74750Y158500D01*
X75133Y158603D01*
X75440Y158913D01*
X75593Y159378D01*
Y161600D01*
G01X77045Y158500D02*
X78655Y161600D01*
G01X77045D02*
X78655Y158500D01*
G01X79800Y157467D02*
X82100D01*
G01X84050Y158500D02*
X83743Y158552D01*
X83475Y158758D01*
X83245Y159068D01*
X83092Y159430D01*
X83015Y159843D01*
Y160257D01*
X83092Y160670D01*
X83245Y161032D01*
X83475Y161342D01*
X83743Y161548D01*
X84050Y161600D01*
X84357Y161548D01*
X84625Y161342D01*
X84855Y161032D01*
X85008Y160670D01*
X85085Y160257D01*
Y159843D01*
X85008Y159430D01*
X84855Y159068D01*
X84625Y158758D01*
X84357Y158552D01*
X84050Y158500D01*
G01X86307Y161600D02*
Y159378D01*
X86460Y158913D01*
X86767Y158603D01*
X87150Y158500D01*
X87533Y158603D01*
X87840Y158913D01*
X87993Y159378D01*
Y161600D01*
G01X90250D02*
Y158500D01*
G01X89368Y161600D02*
X91132D01*
G01X77000Y53000D02*
Y45000D01*
X78000Y44000D01*
X82000D01*
G01X69307Y54000D02*
Y57100D01*
X70073D01*
X70380Y56945D01*
X70610Y56738D01*
X70802Y56428D01*
X70955Y56067D01*
X70993Y55550D01*
X70955Y55033D01*
X70802Y54672D01*
X70610Y54362D01*
X70380Y54155D01*
X70073Y54000D01*
X69307D01*
G01X72292D02*
X73250Y57100D01*
X74208Y54000D01*
G01X73863Y55085D02*
X72637D01*
G01X77193Y56842D02*
X76963Y56997D01*
X76695Y57100D01*
X76388D01*
X76043Y56945D01*
X75775Y56687D01*
X75583Y56377D01*
X75430Y55860D01*
X75392Y55395D01*
X75468Y54930D01*
X75583Y54620D01*
X75813Y54310D01*
X76082Y54103D01*
X76350Y54000D01*
X76618D01*
X76887Y54103D01*
X77117Y54258D01*
X77308Y54465D01*
G01X79450Y57100D02*
X79143Y56997D01*
X78913Y56738D01*
X78760Y56428D01*
X78645Y56015D01*
X78607Y55550D01*
X78645Y55085D01*
X78760Y54672D01*
X78913Y54362D01*
X79143Y54103D01*
X79450Y54000D01*
X79757Y54103D01*
X79987Y54362D01*
X80140Y54672D01*
X80255Y55085D01*
X80293Y55550D01*
X80255Y56015D01*
X80140Y56428D01*
X79987Y56738D01*
X79757Y56997D01*
X79450Y57100D01*
G01X81400Y52967D02*
X83700D01*
G01X84653Y54000D02*
Y57100D01*
X85650Y54517D01*
X86647Y57100D01*
Y54000D01*
G01X87907Y57100D02*
Y54878D01*
X88060Y54413D01*
X88367Y54103D01*
X88750Y54000D01*
X89133Y54103D01*
X89440Y54413D01*
X89593Y54878D01*
Y57100D01*
G01X91045Y54000D02*
X92655Y57100D01*
G01X91045D02*
X92655Y54000D01*
G01X93800Y52967D02*
X96100D01*
G01X98050Y54000D02*
X97743Y54052D01*
X97475Y54258D01*
X97245Y54568D01*
X97092Y54930D01*
X97015Y55343D01*
Y55757D01*
X97092Y56170D01*
X97245Y56532D01*
X97475Y56842D01*
X97743Y57048D01*
X98050Y57100D01*
X98357Y57048D01*
X98625Y56842D01*
X98855Y56532D01*
X99008Y56170D01*
X99085Y55757D01*
Y55343D01*
X99008Y54930D01*
X98855Y54568D01*
X98625Y54258D01*
X98357Y54052D01*
X98050Y54000D01*
G01X100307Y57100D02*
Y54878D01*
X100460Y54413D01*
X100767Y54103D01*
X101150Y54000D01*
X101533Y54103D01*
X101840Y54413D01*
X101993Y54878D01*
Y57100D01*
G01X104250D02*
Y54000D01*
G01X103368Y57100D02*
X105132D01*
G01X85692Y201000D02*
X86650Y204100D01*
X87608Y201000D01*
G01X87263Y202085D02*
X86037D01*
G01X88792Y204100D02*
X89750Y201000D01*
X90708Y204100D01*
G01X92007Y201000D02*
Y204100D01*
X92773D01*
X93080Y203945D01*
X93310Y203738D01*
X93502Y203428D01*
X93655Y203067D01*
X93693Y202550D01*
X93655Y202033D01*
X93502Y201672D01*
X93310Y201362D01*
X93080Y201155D01*
X92773Y201000D01*
X92007D01*
G01X95107D02*
Y204100D01*
X95873D01*
X96180Y203945D01*
X96410Y203738D01*
X96602Y203428D01*
X96755Y203067D01*
X96793Y202550D01*
X96755Y202033D01*
X96602Y201672D01*
X96410Y201362D01*
X96180Y201155D01*
X95873Y201000D01*
X95107D01*
G01X98207Y201465D02*
X98437Y201207D01*
X98705Y201052D01*
X99050Y201000D01*
X99395Y201103D01*
X99663Y201310D01*
X99855Y201672D01*
X99893Y202085D01*
X99817Y202498D01*
X99625Y202757D01*
X99357Y202963D01*
X99088Y203015D01*
X98820Y202963D01*
X98475Y202757D01*
X98590Y204100D01*
X99625D01*
G01X110400Y225100D02*
Y236900D01*
X94600D01*
Y225100D01*
X110400D01*
G01X113000Y77500D02*
Y56500D01*
X134000D01*
Y77500D01*
X113000D01*
G01Y157000D02*
Y136000D01*
X134000D01*
Y157000D01*
X113000D01*
G01X109692Y198000D02*
X110650Y201100D01*
X111608Y198000D01*
G01X111263Y199085D02*
X110037D01*
G01X112792Y201100D02*
X113750Y198000D01*
X114708Y201100D01*
G01X117693Y200842D02*
X117463Y200997D01*
X117195Y201100D01*
X116888D01*
X116543Y200945D01*
X116275Y200687D01*
X116083Y200377D01*
X115930Y199860D01*
X115892Y199395D01*
X115968Y198930D01*
X116083Y198620D01*
X116313Y198310D01*
X116582Y198103D01*
X116850Y198000D01*
X117118D01*
X117387Y198103D01*
X117617Y198258D01*
X117808Y198465D01*
G01X120793Y200842D02*
X120563Y200997D01*
X120295Y201100D01*
X119988D01*
X119643Y200945D01*
X119375Y200687D01*
X119183Y200377D01*
X119030Y199860D01*
X118992Y199395D01*
X119068Y198930D01*
X119183Y198620D01*
X119413Y198310D01*
X119682Y198103D01*
X119950Y198000D01*
X120218D01*
X120487Y198103D01*
X120717Y198258D01*
X120908Y198465D01*
G01X209807Y243712D02*
Y282688D01*
X148193D01*
Y243712D01*
X209807D01*
G01X168153Y63500D02*
Y66600D01*
X169150Y64017D01*
X170147Y66600D01*
Y63500D01*
G01X171483D02*
Y66600D01*
X172403D01*
X172710Y66445D01*
X172940Y66083D01*
X173017Y65670D01*
X172940Y65257D01*
X172748Y64947D01*
X172403Y64792D01*
X171483D01*
G01X174545Y63913D02*
X174852Y63655D01*
X175197Y63500D01*
X175503D01*
X175810Y63655D01*
X176040Y63913D01*
X176155Y64275D01*
X176078Y64637D01*
X175887Y64947D01*
X175542Y65153D01*
X175082Y65257D01*
X174813Y65463D01*
X174698Y65825D01*
X174775Y66187D01*
X174967Y66445D01*
X175235Y66600D01*
X175503D01*
X175772Y66497D01*
X176002Y66238D01*
G01X178450Y66600D02*
X178143Y66497D01*
X177913Y66238D01*
X177760Y65928D01*
X177645Y65515D01*
X177607Y65050D01*
X177645Y64585D01*
X177760Y64172D01*
X177913Y63862D01*
X178143Y63603D01*
X178450Y63500D01*
X178757Y63603D01*
X178987Y63862D01*
X179140Y64172D01*
X179255Y64585D01*
X179293Y65050D01*
X179255Y65515D01*
X179140Y65928D01*
X178987Y66238D01*
X178757Y66497D01*
X178450Y66600D01*
G01X168153Y70000D02*
Y73100D01*
X169150Y70517D01*
X170147Y73100D01*
Y70000D01*
G01X171483D02*
Y73100D01*
X172403D01*
X172710Y72945D01*
X172940Y72583D01*
X173017Y72170D01*
X172940Y71757D01*
X172748Y71447D01*
X172403Y71292D01*
X171483D01*
G01X174545Y70413D02*
X174852Y70155D01*
X175197Y70000D01*
X175503D01*
X175810Y70155D01*
X176040Y70413D01*
X176155Y70775D01*
X176078Y71137D01*
X175887Y71447D01*
X175542Y71653D01*
X175082Y71757D01*
X174813Y71963D01*
X174698Y72325D01*
X174775Y72687D01*
X174967Y72945D01*
X175235Y73100D01*
X175503D01*
X175772Y72997D01*
X176002Y72738D01*
G01X178450Y70000D02*
Y73100D01*
X177990Y72480D01*
G01Y70000D02*
X178910D01*
G01X168153Y77500D02*
Y80600D01*
X169150Y78017D01*
X170147Y80600D01*
Y77500D01*
G01X171483D02*
Y80600D01*
X172403D01*
X172710Y80445D01*
X172940Y80083D01*
X173017Y79670D01*
X172940Y79257D01*
X172748Y78947D01*
X172403Y78792D01*
X171483D01*
G01X174545Y77913D02*
X174852Y77655D01*
X175197Y77500D01*
X175503D01*
X175810Y77655D01*
X176040Y77913D01*
X176155Y78275D01*
X176078Y78637D01*
X175887Y78947D01*
X175542Y79153D01*
X175082Y79257D01*
X174813Y79463D01*
X174698Y79825D01*
X174775Y80187D01*
X174967Y80445D01*
X175235Y80600D01*
X175503D01*
X175772Y80497D01*
X176002Y80238D01*
G01X177722Y80083D02*
X177952Y80393D01*
X178220Y80548D01*
X178527Y80600D01*
X178910Y80497D01*
X179178Y80238D01*
X179255Y79928D01*
X179217Y79618D01*
X179063Y79360D01*
X178297Y78843D01*
X177952Y78482D01*
X177722Y77965D01*
X177645Y77500D01*
X179255D01*
G01X155153Y154500D02*
Y157600D01*
X156150Y155017D01*
X157147Y157600D01*
Y154500D01*
G01X158483D02*
Y157600D01*
X159403D01*
X159710Y157445D01*
X159940Y157083D01*
X160017Y156670D01*
X159940Y156257D01*
X159748Y155947D01*
X159403Y155792D01*
X158483D01*
G01X161545Y154913D02*
X161852Y154655D01*
X162197Y154500D01*
X162503D01*
X162810Y154655D01*
X163040Y154913D01*
X163155Y155275D01*
X163078Y155637D01*
X162887Y155947D01*
X162542Y156153D01*
X162082Y156257D01*
X161813Y156463D01*
X161698Y156825D01*
X161775Y157187D01*
X161967Y157445D01*
X162235Y157600D01*
X162503D01*
X162772Y157497D01*
X163002Y157238D01*
G01X165450Y157600D02*
X165143Y157497D01*
X164913Y157238D01*
X164760Y156928D01*
X164645Y156515D01*
X164607Y156050D01*
X164645Y155585D01*
X164760Y155172D01*
X164913Y154862D01*
X165143Y154603D01*
X165450Y154500D01*
X165757Y154603D01*
X165987Y154862D01*
X166140Y155172D01*
X166255Y155585D01*
X166293Y156050D01*
X166255Y156515D01*
X166140Y156928D01*
X165987Y157238D01*
X165757Y157497D01*
X165450Y157600D01*
G01X155153Y161000D02*
Y164100D01*
X156150Y161517D01*
X157147Y164100D01*
Y161000D01*
G01X158483D02*
Y164100D01*
X159403D01*
X159710Y163945D01*
X159940Y163583D01*
X160017Y163170D01*
X159940Y162757D01*
X159748Y162447D01*
X159403Y162292D01*
X158483D01*
G01X161545Y161413D02*
X161852Y161155D01*
X162197Y161000D01*
X162503D01*
X162810Y161155D01*
X163040Y161413D01*
X163155Y161775D01*
X163078Y162137D01*
X162887Y162447D01*
X162542Y162653D01*
X162082Y162757D01*
X161813Y162963D01*
X161698Y163325D01*
X161775Y163687D01*
X161967Y163945D01*
X162235Y164100D01*
X162503D01*
X162772Y163997D01*
X163002Y163738D01*
G01X165450Y161000D02*
Y164100D01*
X164990Y163480D01*
G01Y161000D02*
X165910D01*
G01X155153Y168500D02*
Y171600D01*
X156150Y169017D01*
X157147Y171600D01*
Y168500D01*
G01X158483D02*
Y171600D01*
X159403D01*
X159710Y171445D01*
X159940Y171083D01*
X160017Y170670D01*
X159940Y170257D01*
X159748Y169947D01*
X159403Y169792D01*
X158483D01*
G01X161545Y168913D02*
X161852Y168655D01*
X162197Y168500D01*
X162503D01*
X162810Y168655D01*
X163040Y168913D01*
X163155Y169275D01*
X163078Y169637D01*
X162887Y169947D01*
X162542Y170153D01*
X162082Y170257D01*
X161813Y170463D01*
X161698Y170825D01*
X161775Y171187D01*
X161967Y171445D01*
X162235Y171600D01*
X162503D01*
X162772Y171497D01*
X163002Y171238D01*
G01X164722Y171083D02*
X164952Y171393D01*
X165220Y171548D01*
X165527Y171600D01*
X165910Y171497D01*
X166178Y171238D01*
X166255Y170928D01*
X166217Y170618D01*
X166063Y170360D01*
X165297Y169843D01*
X164952Y169482D01*
X164722Y168965D01*
X164645Y168500D01*
X166255D01*
G01X187600Y44400D02*
Y32600D01*
X199400D01*
Y44400D01*
X187600D01*
G01Y93900D02*
Y82100D01*
X199400D01*
Y93900D01*
X187600D01*
G01X192692Y123100D02*
X193650Y120000D01*
X194608Y123100D01*
G01X195907Y120000D02*
Y123100D01*
X196673D01*
X196980Y122945D01*
X197210Y122738D01*
X197402Y122428D01*
X197555Y122067D01*
X197593Y121550D01*
X197555Y121033D01*
X197402Y120672D01*
X197210Y120362D01*
X196980Y120155D01*
X196673Y120000D01*
X195907D01*
G01X200693Y122842D02*
X200463Y122997D01*
X200195Y123100D01*
X199888D01*
X199543Y122945D01*
X199275Y122687D01*
X199083Y122377D01*
X198930Y121860D01*
X198892Y121395D01*
X198968Y120930D01*
X199083Y120620D01*
X199313Y120310D01*
X199582Y120103D01*
X199850Y120000D01*
X200118D01*
X200387Y120103D01*
X200617Y120258D01*
X200808Y120465D01*
G01X202107Y120000D02*
Y123100D01*
X202873D01*
X203180Y122945D01*
X203410Y122738D01*
X203602Y122428D01*
X203755Y122067D01*
X203793Y121550D01*
X203755Y121033D01*
X203602Y120672D01*
X203410Y120362D01*
X203180Y120155D01*
X202873Y120000D01*
X202107D01*
G01X206893Y122842D02*
X206663Y122997D01*
X206395Y123100D01*
X206088D01*
X205743Y122945D01*
X205475Y122687D01*
X205283Y122377D01*
X205130Y121860D01*
X205092Y121395D01*
X205168Y120930D01*
X205283Y120620D01*
X205513Y120310D01*
X205782Y120103D01*
X206050Y120000D01*
X206318D01*
X206587Y120103D01*
X206817Y120258D01*
X207008Y120465D01*
G01X208000Y118967D02*
X210300D01*
G01X212557Y121653D02*
X212710Y121808D01*
X212825Y122067D01*
X212902Y122428D01*
X212825Y122738D01*
X212672Y122945D01*
X212403Y123100D01*
X211368D01*
Y120000D01*
X212633D01*
X212902Y120207D01*
X213055Y120517D01*
X213132Y120878D01*
X213055Y121240D01*
X212825Y121550D01*
X212557Y121653D01*
X211368D01*
G01X214507Y123100D02*
Y120878D01*
X214660Y120413D01*
X214967Y120103D01*
X215350Y120000D01*
X215733Y120103D01*
X216040Y120413D01*
X216193Y120878D01*
Y123100D01*
G01X217722Y120000D02*
Y123100D01*
X219178D01*
G01X218642Y121602D02*
X217722D01*
G01X220822Y120000D02*
Y123100D01*
X222278D01*
G01X221742Y121602D02*
X220822D01*
G01X225417Y120000D02*
X223883D01*
Y123100D01*
X225417D01*
G01X224803Y121602D02*
X223883D01*
G01X226983Y120000D02*
Y123100D01*
X227942D01*
X228248Y122945D01*
X228440Y122738D01*
X228517Y122325D01*
X228440Y121912D01*
X228210Y121653D01*
X227942Y121498D01*
X226983D01*
G01X227942D02*
X228517Y120000D01*
G01X188100Y153900D02*
Y142100D01*
X199900D01*
Y153900D01*
X188100D01*
G01X191692Y175100D02*
X192650Y172000D01*
X193608Y175100D01*
G01X194907Y172000D02*
Y175100D01*
X195673D01*
X195980Y174945D01*
X196210Y174738D01*
X196402Y174428D01*
X196555Y174067D01*
X196593Y173550D01*
X196555Y173033D01*
X196402Y172672D01*
X196210Y172362D01*
X195980Y172155D01*
X195673Y172000D01*
X194907D01*
G01X198007D02*
Y175100D01*
X198773D01*
X199080Y174945D01*
X199310Y174738D01*
X199502Y174428D01*
X199655Y174067D01*
X199693Y173550D01*
X199655Y173033D01*
X199502Y172672D01*
X199310Y172362D01*
X199080Y172155D01*
X198773Y172000D01*
X198007D01*
G01X201145D02*
Y175100D01*
G01X202755D02*
Y172000D01*
G01Y173550D02*
X201145D01*
G01X204590Y175100D02*
X205510D01*
G01X205050D02*
Y172000D01*
G01X204590D02*
X205510D01*
G01X207000Y170967D02*
X209300D01*
G01X211557Y173653D02*
X211710Y173808D01*
X211825Y174067D01*
X211902Y174428D01*
X211825Y174738D01*
X211672Y174945D01*
X211403Y175100D01*
X210368D01*
Y172000D01*
X211633D01*
X211902Y172207D01*
X212055Y172517D01*
X212132Y172878D01*
X212055Y173240D01*
X211825Y173550D01*
X211557Y173653D01*
X210368D01*
G01X213507Y175100D02*
Y172878D01*
X213660Y172413D01*
X213967Y172103D01*
X214350Y172000D01*
X214733Y172103D01*
X215040Y172413D01*
X215193Y172878D01*
Y175100D01*
G01X216722Y172000D02*
Y175100D01*
X218178D01*
G01X217642Y173602D02*
X216722D01*
G01X219822Y172000D02*
Y175100D01*
X221278D01*
G01X220742Y173602D02*
X219822D01*
G01X224417Y172000D02*
X222883D01*
Y175100D01*
X224417D01*
G01X223803Y173602D02*
X222883D01*
G01X225983Y172000D02*
Y175100D01*
X226942D01*
X227248Y174945D01*
X227440Y174738D01*
X227517Y174325D01*
X227440Y173912D01*
X227210Y173653D01*
X226942Y173498D01*
X225983D01*
G01X226942D02*
X227517Y172000D01*
G01X214192Y277000D02*
X215150Y280100D01*
X216108Y277000D01*
G01X215763Y278085D02*
X214537D01*
G01X217292Y280100D02*
X218250Y277000D01*
X219208Y280100D01*
G01X220507Y277000D02*
Y280100D01*
X221273D01*
X221580Y279945D01*
X221810Y279738D01*
X222002Y279428D01*
X222155Y279067D01*
X222193Y278550D01*
X222155Y278033D01*
X222002Y277672D01*
X221810Y277362D01*
X221580Y277155D01*
X221273Y277000D01*
X220507D01*
G01X223607D02*
Y280100D01*
X224373D01*
X224680Y279945D01*
X224910Y279738D01*
X225102Y279428D01*
X225255Y279067D01*
X225293Y278550D01*
X225255Y278033D01*
X225102Y277672D01*
X224910Y277362D01*
X224680Y277155D01*
X224373Y277000D01*
X223607D01*
G01X226707Y277465D02*
X226937Y277207D01*
X227205Y277052D01*
X227550Y277000D01*
X227895Y277103D01*
X228163Y277310D01*
X228355Y277672D01*
X228393Y278085D01*
X228317Y278498D01*
X228125Y278757D01*
X227857Y278963D01*
X227588Y279015D01*
X227320Y278963D01*
X226975Y278757D01*
X227090Y280100D01*
X228125D01*
G01X204000Y340000D02*
X207500D01*
Y338000D01*
X204000D01*
Y340000D01*
G01Y395000D02*
X207500D01*
Y393000D01*
X204000D01*
Y395000D01*
G01X231192Y210100D02*
X232150Y207000D01*
X233108Y210100D01*
G01X236017Y207000D02*
X234483D01*
Y210100D01*
X236017D01*
G01X235403Y208602D02*
X234483D01*
G01X239117Y207000D02*
X237583D01*
Y210100D01*
X239117D01*
G01X238503Y208602D02*
X237583D01*
G01X240607Y207465D02*
X240837Y207207D01*
X241105Y207052D01*
X241450Y207000D01*
X241795Y207103D01*
X242063Y207310D01*
X242255Y207672D01*
X242293Y208085D01*
X242217Y208498D01*
X242025Y208757D01*
X241757Y208963D01*
X241488Y209015D01*
X241220Y208963D01*
X240875Y208757D01*
X240990Y210100D01*
X242025D01*
G01X236600Y241400D02*
Y229600D01*
X248400D01*
Y241400D01*
X236600D01*
G01X233380Y279050D02*
X234147D01*
Y278120D01*
X233917Y277810D01*
X233648Y277603D01*
X233265Y277500D01*
X232882Y277603D01*
X232613Y277810D01*
X232383Y278120D01*
X232230Y278482D01*
X232153Y278895D01*
Y279257D01*
X232230Y279567D01*
X232383Y279928D01*
X232613Y280238D01*
X232843Y280445D01*
X233150Y280600D01*
X233418D01*
X233725Y280497D01*
X233955Y280290D01*
G01X235368Y277500D02*
Y280600D01*
X237132Y277500D01*
Y280600D01*
G01X238507Y277500D02*
Y280600D01*
X239273D01*
X239580Y280445D01*
X239810Y280238D01*
X240002Y279928D01*
X240155Y279567D01*
X240193Y279050D01*
X240155Y278533D01*
X240002Y278172D01*
X239810Y277862D01*
X239580Y277655D01*
X239273Y277500D01*
X238507D01*
G01X397500Y318000D02*
Y338000D01*
X232500D01*
Y318000D01*
X397500D01*
G01X232500Y340000D02*
X236000D01*
Y338000D01*
X232500D01*
Y340000D01*
G01X397500Y373000D02*
Y393000D01*
X232500D01*
Y373000D01*
X397500D01*
G01X232500Y395000D02*
X236000D01*
Y393000D01*
X232500D01*
Y395000D01*
G01X267900Y83600D02*
X250100D01*
Y52400D01*
X267900D01*
Y83600D01*
G01X259094Y115846D02*
Y109154D01*
X270906D01*
Y115846D01*
X259094D01*
G01X249192Y261500D02*
X250150Y264600D01*
X251108Y261500D01*
G01X250763Y262585D02*
X249537D01*
G01X252292Y264600D02*
X253250Y261500D01*
X254208Y264600D01*
G01X257193Y264342D02*
X256963Y264497D01*
X256695Y264600D01*
X256388D01*
X256043Y264445D01*
X255775Y264187D01*
X255583Y263877D01*
X255430Y263360D01*
X255392Y262895D01*
X255468Y262430D01*
X255583Y262120D01*
X255813Y261810D01*
X256082Y261603D01*
X256350Y261500D01*
X256618D01*
X256887Y261603D01*
X257117Y261758D01*
X257308Y261965D01*
G01X260293Y264342D02*
X260063Y264497D01*
X259795Y264600D01*
X259488D01*
X259143Y264445D01*
X258875Y264187D01*
X258683Y263877D01*
X258530Y263360D01*
X258492Y262895D01*
X258568Y262430D01*
X258683Y262120D01*
X258913Y261810D01*
X259182Y261603D01*
X259450Y261500D01*
X259718D01*
X259987Y261603D01*
X260217Y261758D01*
X260408Y261965D01*
G01X259380Y282050D02*
X260147D01*
Y281120D01*
X259917Y280810D01*
X259648Y280603D01*
X259265Y280500D01*
X258882Y280603D01*
X258613Y280810D01*
X258383Y281120D01*
X258230Y281482D01*
X258153Y281895D01*
Y282257D01*
X258230Y282567D01*
X258383Y282928D01*
X258613Y283238D01*
X258843Y283445D01*
X259150Y283600D01*
X259418D01*
X259725Y283497D01*
X259955Y283290D01*
G01X261368Y280500D02*
Y283600D01*
X263132Y280500D01*
Y283600D01*
G01X264507Y280500D02*
Y283600D01*
X265273D01*
X265580Y283445D01*
X265810Y283238D01*
X266002Y282928D01*
X266155Y282567D01*
X266193Y282050D01*
X266155Y281533D01*
X266002Y281172D01*
X265810Y280862D01*
X265580Y280655D01*
X265273Y280500D01*
X264507D01*
G01X278917D02*
X277383D01*
Y283600D01*
X278917D01*
G01X278303Y282102D02*
X277383D01*
G01X280445Y280500D02*
X282055Y283600D01*
G01X280445D02*
X282055Y280500D01*
G01X284350Y283600D02*
Y280500D01*
G01X283468Y283600D02*
X285232D01*
G01X289592Y280500D02*
X290550Y283600D01*
X291508Y280500D01*
G01X291163Y281585D02*
X289937D01*
G01X292807Y280500D02*
Y283600D01*
X293573D01*
X293880Y283445D01*
X294110Y283238D01*
X294302Y282928D01*
X294455Y282567D01*
X294493Y282050D01*
X294455Y281533D01*
X294302Y281172D01*
X294110Y280862D01*
X293880Y280655D01*
X293573Y280500D01*
X292807D01*
G01X297593Y283342D02*
X297363Y283497D01*
X297095Y283600D01*
X296788D01*
X296443Y283445D01*
X296175Y283187D01*
X295983Y282877D01*
X295830Y282360D01*
X295792Y281895D01*
X295868Y281430D01*
X295983Y281120D01*
X296213Y280810D01*
X296482Y280603D01*
X296750Y280500D01*
X297018D01*
X297287Y280603D01*
X297517Y280758D01*
X297708Y280965D01*
G01X301992Y283600D02*
X302950Y280500D01*
X303908Y283600D01*
G01X305283Y280500D02*
Y283600D01*
X306242D01*
X306548Y283445D01*
X306740Y283238D01*
X306817Y282825D01*
X306740Y282412D01*
X306510Y282153D01*
X306242Y281998D01*
X305283D01*
G01X306242D02*
X306817Y280500D01*
G01X309917D02*
X308383D01*
Y283600D01*
X309917D01*
G01X309303Y282102D02*
X308383D01*
G01X311522Y280500D02*
Y283600D01*
X312978D01*
G01X312442Y282102D02*
X311522D01*
G01X290000Y21000D02*
X310000D01*
Y186000D01*
X290000D01*
Y21000D01*
G01X315383Y12500D02*
Y15600D01*
X316342D01*
X316648Y15445D01*
X316840Y15238D01*
X316917Y14825D01*
X316840Y14412D01*
X316610Y14153D01*
X316342Y13998D01*
X315383D01*
G01X316342D02*
X316917Y12500D01*
G01X319250D02*
X318943Y12552D01*
X318675Y12758D01*
X318445Y13068D01*
X318292Y13430D01*
X318215Y13843D01*
Y14257D01*
X318292Y14670D01*
X318445Y15032D01*
X318675Y15342D01*
X318943Y15548D01*
X319250Y15600D01*
X319557Y15548D01*
X319825Y15342D01*
X320055Y15032D01*
X320208Y14670D01*
X320285Y14257D01*
Y13843D01*
X320208Y13430D01*
X320055Y13068D01*
X319825Y12758D01*
X319557Y12552D01*
X319250Y12500D01*
G01X321200Y11467D02*
X323500D01*
G01X324683Y12500D02*
Y15600D01*
X325603D01*
X325910Y15445D01*
X326140Y15083D01*
X326217Y14670D01*
X326140Y14257D01*
X325948Y13947D01*
X325603Y13792D01*
X324683D01*
G01X328780Y14050D02*
X329547D01*
Y13120D01*
X329317Y12810D01*
X329048Y12603D01*
X328665Y12500D01*
X328282Y12603D01*
X328013Y12810D01*
X327783Y13120D01*
X327630Y13482D01*
X327553Y13895D01*
Y14257D01*
X327630Y14567D01*
X327783Y14928D01*
X328013Y15238D01*
X328243Y15445D01*
X328550Y15600D01*
X328818D01*
X329125Y15497D01*
X329355Y15290D01*
G01X330500Y11467D02*
X332800D01*
G01X334750Y12500D02*
X334443Y12552D01*
X334175Y12758D01*
X333945Y13068D01*
X333792Y13430D01*
X333715Y13843D01*
Y14257D01*
X333792Y14670D01*
X333945Y15032D01*
X334175Y15342D01*
X334443Y15548D01*
X334750Y15600D01*
X335057Y15548D01*
X335325Y15342D01*
X335555Y15032D01*
X335708Y14670D01*
X335785Y14257D01*
Y13843D01*
X335708Y13430D01*
X335555Y13068D01*
X335325Y12758D01*
X335057Y12552D01*
X334750Y12500D01*
G01X312000Y24500D02*
Y21000D01*
X310000D01*
Y24500D01*
X312000D01*
G01Y186000D02*
Y182500D01*
X310000D01*
Y186000D01*
X312000D01*
G01X350900Y83600D02*
X333100D01*
Y52400D01*
X350900D01*
Y83600D01*
G01X349406Y99654D02*
Y106346D01*
X337594D01*
Y99654D01*
X349406D01*
G01X365000Y21000D02*
X385000D01*
Y186000D01*
X365000D01*
Y21000D01*
G01X387000Y24500D02*
Y21000D01*
X385000D01*
Y24500D01*
X387000D01*
G01Y186000D02*
Y182500D01*
X385000D01*
Y186000D01*
X387000D01*
G01X394000Y340000D02*
X397500D01*
Y338000D01*
X394000D01*
Y340000D01*
G01Y395000D02*
X397500D01*
Y393000D01*
X394000D01*
Y395000D01*
G01X418437Y45539D02*
Y50461D01*
X410563D01*
Y45539D01*
X418437D01*
G01X427961Y137937D02*
X423039D01*
Y130063D01*
X427961D01*
Y137937D01*
G01X410400Y162900D02*
X422600D01*
Y175100D01*
X410400D01*
Y162900D01*
G01X587500Y318000D02*
Y338000D01*
X422500D01*
Y318000D01*
X587500D01*
G01X422500Y340000D02*
X426000D01*
Y338000D01*
X422500D01*
Y340000D01*
G01X587500Y373000D02*
Y393000D01*
X422500D01*
Y373000D01*
X587500D01*
G01X422500Y395000D02*
X426000D01*
Y393000D01*
X422500D01*
Y395000D01*
G01X440000Y21000D02*
X460000D01*
Y186000D01*
X440000D01*
Y21000D01*
G01X462000Y24500D02*
Y21000D01*
X460000D01*
Y24500D01*
X462000D01*
G01X470192Y40600D02*
X471150Y37500D01*
X472108Y40600D01*
G01X475017Y37500D02*
X473483D01*
Y40600D01*
X475017D01*
G01X474403Y39102D02*
X473483D01*
G01X478117Y37500D02*
X476583D01*
Y40600D01*
X478117D01*
G01X477503Y39102D02*
X476583D01*
G01X479607Y37965D02*
X479837Y37707D01*
X480105Y37552D01*
X480450Y37500D01*
X480795Y37603D01*
X481063Y37810D01*
X481255Y38172D01*
X481293Y38585D01*
X481217Y38998D01*
X481025Y39257D01*
X480757Y39463D01*
X480488Y39515D01*
X480220Y39463D01*
X479875Y39257D01*
X479990Y40600D01*
X481025D01*
G01X462000Y186000D02*
Y182500D01*
X460000D01*
Y186000D01*
X462000D01*
G01X469380Y279050D02*
X470147D01*
Y278120D01*
X469917Y277810D01*
X469648Y277603D01*
X469265Y277500D01*
X468882Y277603D01*
X468613Y277810D01*
X468383Y278120D01*
X468230Y278482D01*
X468153Y278895D01*
Y279257D01*
X468230Y279567D01*
X468383Y279928D01*
X468613Y280238D01*
X468843Y280445D01*
X469150Y280600D01*
X469418D01*
X469725Y280497D01*
X469955Y280290D01*
G01X471368Y277500D02*
Y280600D01*
X473132Y277500D01*
Y280600D01*
G01X474507Y277500D02*
Y280600D01*
X475273D01*
X475580Y280445D01*
X475810Y280238D01*
X476002Y279928D01*
X476155Y279567D01*
X476193Y279050D01*
X476155Y278533D01*
X476002Y278172D01*
X475810Y277862D01*
X475580Y277655D01*
X475273Y277500D01*
X474507D01*
G01X482192Y54100D02*
X483150Y51000D01*
X484108Y54100D01*
G01X485407Y51000D02*
Y54100D01*
X486173D01*
X486480Y53945D01*
X486710Y53738D01*
X486902Y53428D01*
X487055Y53067D01*
X487093Y52550D01*
X487055Y52033D01*
X486902Y51672D01*
X486710Y51362D01*
X486480Y51155D01*
X486173Y51000D01*
X485407D01*
G01X488507D02*
Y54100D01*
X489273D01*
X489580Y53945D01*
X489810Y53738D01*
X490002Y53428D01*
X490155Y53067D01*
X490193Y52550D01*
X490155Y52033D01*
X490002Y51672D01*
X489810Y51362D01*
X489580Y51155D01*
X489273Y51000D01*
X488507D01*
G01X491683D02*
Y54100D01*
X492642D01*
X492948Y53945D01*
X493140Y53738D01*
X493217Y53325D01*
X493140Y52912D01*
X492910Y52653D01*
X492642Y52498D01*
X491683D01*
G01X492642D02*
X493217Y51000D01*
G01X494783Y54100D02*
Y51000D01*
X496317D01*
G01X489380Y63550D02*
X490147D01*
Y62620D01*
X489917Y62310D01*
X489648Y62103D01*
X489265Y62000D01*
X488882Y62103D01*
X488613Y62310D01*
X488383Y62620D01*
X488230Y62982D01*
X488153Y63395D01*
Y63757D01*
X488230Y64067D01*
X488383Y64428D01*
X488613Y64738D01*
X488843Y64945D01*
X489150Y65100D01*
X489418D01*
X489725Y64997D01*
X489955Y64790D01*
G01X491368Y62000D02*
Y65100D01*
X493132Y62000D01*
Y65100D01*
G01X494507Y62000D02*
Y65100D01*
X495273D01*
X495580Y64945D01*
X495810Y64738D01*
X496002Y64428D01*
X496155Y64067D01*
X496193Y63550D01*
X496155Y63033D01*
X496002Y62672D01*
X495810Y62362D01*
X495580Y62155D01*
X495273Y62000D01*
X494507D01*
G01X495845Y70913D02*
X496152Y70655D01*
X496497Y70500D01*
X496803D01*
X497110Y70655D01*
X497340Y70913D01*
X497455Y71275D01*
X497378Y71637D01*
X497187Y71947D01*
X496842Y72153D01*
X496382Y72257D01*
X496113Y72463D01*
X495998Y72825D01*
X496075Y73187D01*
X496267Y73445D01*
X496535Y73600D01*
X496803D01*
X497072Y73497D01*
X497302Y73238D01*
G01X499750Y70500D02*
X499443Y70552D01*
X499175Y70758D01*
X498945Y71068D01*
X498792Y71430D01*
X498715Y71843D01*
Y72257D01*
X498792Y72670D01*
X498945Y73032D01*
X499175Y73342D01*
X499443Y73548D01*
X499750Y73600D01*
X500057Y73548D01*
X500325Y73342D01*
X500555Y73032D01*
X500708Y72670D01*
X500785Y72257D01*
Y71843D01*
X500708Y71430D01*
X500555Y71068D01*
X500325Y70758D01*
X500057Y70552D01*
X499750Y70500D01*
G01X502007Y73600D02*
Y71378D01*
X502160Y70913D01*
X502467Y70603D01*
X502850Y70500D01*
X503233Y70603D01*
X503540Y70913D01*
X503693Y71378D01*
Y73600D01*
G01X505183Y70500D02*
Y73600D01*
X506142D01*
X506448Y73445D01*
X506640Y73238D01*
X506717Y72825D01*
X506640Y72412D01*
X506410Y72153D01*
X506142Y71998D01*
X505183D01*
G01X506142D02*
X506717Y70500D01*
G01X509893Y73342D02*
X509663Y73497D01*
X509395Y73600D01*
X509088D01*
X508743Y73445D01*
X508475Y73187D01*
X508283Y72877D01*
X508130Y72360D01*
X508092Y71895D01*
X508168Y71430D01*
X508283Y71120D01*
X508513Y70810D01*
X508782Y70603D01*
X509050Y70500D01*
X509318D01*
X509587Y70603D01*
X509817Y70758D01*
X510008Y70965D01*
G01X512917Y70500D02*
X511383D01*
Y73600D01*
X512917D01*
G01X512303Y72102D02*
X511383D01*
G01X483437Y69063D02*
Y76937D01*
X475563D01*
Y69063D01*
X483437D01*
G01X486307Y130500D02*
Y133600D01*
X487073D01*
X487380Y133445D01*
X487610Y133238D01*
X487802Y132928D01*
X487955Y132567D01*
X487993Y132050D01*
X487955Y131533D01*
X487802Y131172D01*
X487610Y130862D01*
X487380Y130655D01*
X487073Y130500D01*
X486307D01*
G01X489483D02*
Y133600D01*
X490442D01*
X490748Y133445D01*
X490940Y133238D01*
X491017Y132825D01*
X490940Y132412D01*
X490710Y132153D01*
X490442Y131998D01*
X489483D01*
G01X490442D02*
X491017Y130500D01*
G01X492392D02*
X493350Y133600D01*
X494308Y130500D01*
G01X493963Y131585D02*
X492737D01*
G01X495990Y133600D02*
X496910D01*
G01X496450D02*
Y130500D01*
G01X495990D02*
X496910D01*
G01X498668D02*
Y133600D01*
X500432Y130500D01*
Y133600D01*
G01X485692Y182600D02*
X486650Y179500D01*
X487608Y182600D01*
G01X490593Y182342D02*
X490363Y182497D01*
X490095Y182600D01*
X489788D01*
X489443Y182445D01*
X489175Y182187D01*
X488983Y181877D01*
X488830Y181360D01*
X488792Y180895D01*
X488868Y180430D01*
X488983Y180120D01*
X489213Y179810D01*
X489482Y179603D01*
X489750Y179500D01*
X490018D01*
X490287Y179603D01*
X490517Y179758D01*
X490708Y179965D01*
G01X493693Y182342D02*
X493463Y182497D01*
X493195Y182600D01*
X492888D01*
X492543Y182445D01*
X492275Y182187D01*
X492083Y181877D01*
X491930Y181360D01*
X491892Y180895D01*
X491968Y180430D01*
X492083Y180120D01*
X492313Y179810D01*
X492582Y179603D01*
X492850Y179500D01*
X493118D01*
X493387Y179603D01*
X493617Y179758D01*
X493808Y179965D01*
G01X495107D02*
X495337Y179707D01*
X495605Y179552D01*
X495950Y179500D01*
X496295Y179603D01*
X496563Y179810D01*
X496755Y180172D01*
X496793Y180585D01*
X496717Y180998D01*
X496525Y181257D01*
X496257Y181463D01*
X495988Y181515D01*
X495720Y181463D01*
X495375Y181257D01*
X495490Y182600D01*
X496525D01*
G01X486880Y168550D02*
X487647D01*
Y167620D01*
X487417Y167310D01*
X487148Y167103D01*
X486765Y167000D01*
X486382Y167103D01*
X486113Y167310D01*
X485883Y167620D01*
X485730Y167982D01*
X485653Y168395D01*
Y168757D01*
X485730Y169067D01*
X485883Y169428D01*
X486113Y169738D01*
X486343Y169945D01*
X486650Y170100D01*
X486918D01*
X487225Y169997D01*
X487455Y169790D01*
G01X488868Y167000D02*
Y170100D01*
X490632Y167000D01*
Y170100D01*
G01X492007Y167000D02*
Y170100D01*
X492773D01*
X493080Y169945D01*
X493310Y169738D01*
X493502Y169428D01*
X493655Y169067D01*
X493693Y168550D01*
X493655Y168033D01*
X493502Y167672D01*
X493310Y167362D01*
X493080Y167155D01*
X492773Y167000D01*
X492007D01*
G01X488880Y197050D02*
X489647D01*
Y196120D01*
X489417Y195810D01*
X489148Y195603D01*
X488765Y195500D01*
X488382Y195603D01*
X488113Y195810D01*
X487883Y196120D01*
X487730Y196482D01*
X487653Y196895D01*
Y197257D01*
X487730Y197567D01*
X487883Y197928D01*
X488113Y198238D01*
X488343Y198445D01*
X488650Y198600D01*
X488918D01*
X489225Y198497D01*
X489455Y198290D01*
G01X490868Y195500D02*
Y198600D01*
X492632Y195500D01*
Y198600D01*
G01X494007Y195500D02*
Y198600D01*
X494773D01*
X495080Y198445D01*
X495310Y198238D01*
X495502Y197928D01*
X495655Y197567D01*
X495693Y197050D01*
X495655Y196533D01*
X495502Y196172D01*
X495310Y195862D01*
X495080Y195655D01*
X494773Y195500D01*
X494007D01*
G01X500380Y30550D02*
X501147D01*
Y29620D01*
X500917Y29310D01*
X500648Y29103D01*
X500265Y29000D01*
X499882Y29103D01*
X499613Y29310D01*
X499383Y29620D01*
X499230Y29982D01*
X499153Y30395D01*
Y30757D01*
X499230Y31067D01*
X499383Y31428D01*
X499613Y31738D01*
X499843Y31945D01*
X500150Y32100D01*
X500418D01*
X500725Y31997D01*
X500955Y31790D01*
G01X502368Y29000D02*
Y32100D01*
X504132Y29000D01*
Y32100D01*
G01X505507Y29000D02*
Y32100D01*
X506273D01*
X506580Y31945D01*
X506810Y31738D01*
X507002Y31428D01*
X507155Y31067D01*
X507193Y30550D01*
X507155Y30033D01*
X507002Y29672D01*
X506810Y29362D01*
X506580Y29155D01*
X506273Y29000D01*
X505507D01*
G01X505880Y81550D02*
X506647D01*
Y80620D01*
X506417Y80310D01*
X506148Y80103D01*
X505765Y80000D01*
X505382Y80103D01*
X505113Y80310D01*
X504883Y80620D01*
X504730Y80982D01*
X504653Y81395D01*
Y81757D01*
X504730Y82067D01*
X504883Y82428D01*
X505113Y82738D01*
X505343Y82945D01*
X505650Y83100D01*
X505918D01*
X506225Y82997D01*
X506455Y82790D01*
G01X507868Y80000D02*
Y83100D01*
X509632Y80000D01*
Y83100D01*
G01X511007Y80000D02*
Y83100D01*
X511773D01*
X512080Y82945D01*
X512310Y82738D01*
X512502Y82428D01*
X512655Y82067D01*
X512693Y81550D01*
X512655Y81033D01*
X512502Y80672D01*
X512310Y80362D01*
X512080Y80155D01*
X511773Y80000D01*
X511007D01*
G01X501880Y107050D02*
X502647D01*
Y106120D01*
X502417Y105810D01*
X502148Y105603D01*
X501765Y105500D01*
X501382Y105603D01*
X501113Y105810D01*
X500883Y106120D01*
X500730Y106482D01*
X500653Y106895D01*
Y107257D01*
X500730Y107567D01*
X500883Y107928D01*
X501113Y108238D01*
X501343Y108445D01*
X501650Y108600D01*
X501918D01*
X502225Y108497D01*
X502455Y108290D01*
G01X503792Y105500D02*
X504750Y108600D01*
X505708Y105500D01*
G01X505363Y106585D02*
X504137D01*
G01X507850Y108600D02*
Y105500D01*
G01X506968Y108600D02*
X508732D01*
G01X511717Y105500D02*
X510183D01*
Y108600D01*
X511717D01*
G01X511103Y107102D02*
X510183D01*
G01X496692Y221100D02*
X497650Y218000D01*
X498608Y221100D01*
G01X501593Y220842D02*
X501363Y220997D01*
X501095Y221100D01*
X500788D01*
X500443Y220945D01*
X500175Y220687D01*
X499983Y220377D01*
X499830Y219860D01*
X499792Y219395D01*
X499868Y218930D01*
X499983Y218620D01*
X500213Y218310D01*
X500482Y218103D01*
X500750Y218000D01*
X501018D01*
X501287Y218103D01*
X501517Y218258D01*
X501708Y218465D01*
G01X504693Y220842D02*
X504463Y220997D01*
X504195Y221100D01*
X503888D01*
X503543Y220945D01*
X503275Y220687D01*
X503083Y220377D01*
X502930Y219860D01*
X502892Y219395D01*
X502968Y218930D01*
X503083Y218620D01*
X503313Y218310D01*
X503582Y218103D01*
X503850Y218000D01*
X504118D01*
X504387Y218103D01*
X504617Y218258D01*
X504808Y218465D01*
G01X506222Y220583D02*
X506452Y220893D01*
X506720Y221048D01*
X507027Y221100D01*
X507410Y220997D01*
X507678Y220738D01*
X507755Y220428D01*
X507717Y220118D01*
X507563Y219860D01*
X506797Y219343D01*
X506452Y218982D01*
X506222Y218465D01*
X506145Y218000D01*
X507755D01*
G01X509092Y221100D02*
X510050Y218000D01*
X511008Y221100D01*
G01X512307Y218465D02*
X512537Y218207D01*
X512805Y218052D01*
X513150Y218000D01*
X513495Y218103D01*
X513763Y218310D01*
X513955Y218672D01*
X513993Y219085D01*
X513917Y219498D01*
X513725Y219757D01*
X513457Y219963D01*
X513188Y220015D01*
X512920Y219963D01*
X512575Y219757D01*
X512690Y221100D01*
X513725D01*
G01X497192Y244500D02*
X498150Y247600D01*
X499108Y244500D01*
G01X498763Y245585D02*
X497537D01*
G01X500292Y247600D02*
X501250Y244500D01*
X502208Y247600D01*
G01X505117Y244500D02*
X503583D01*
Y247600D01*
X505117D01*
G01X504503Y246102D02*
X503583D01*
G01X508217Y244500D02*
X506683D01*
Y247600D01*
X508217D01*
G01X507603Y246102D02*
X506683D01*
G01X570000Y21000D02*
X590000D01*
Y186000D01*
X570000D01*
Y21000D01*
G01X592000Y24500D02*
Y21000D01*
X590000D01*
Y24500D01*
X592000D01*
G01Y186000D02*
Y182500D01*
X590000D01*
Y186000D01*
X592000D01*
G01X584000Y340000D02*
X587500D01*
Y338000D01*
X584000D01*
Y340000D01*
G01Y395000D02*
X587500D01*
Y393000D01*
X584000D01*
Y395000D01*
G01X644217Y324720D02*
Y352280D01*
X608783D01*
Y324720D01*
X644217D01*
G01Y359720D02*
Y387280D01*
X608783D01*
Y359720D01*
X644217D01*
G01X645000Y21000D02*
X665000D01*
Y186000D01*
X645000D01*
Y21000D01*
G01X667000Y24500D02*
Y21000D01*
X665000D01*
Y24500D01*
X667000D01*
G01Y186000D02*
Y182500D01*
X665000D01*
Y186000D01*
X667000D01*
G01X706500Y303000D02*
X771500D01*
Y328000D01*
X706500D01*
Y303000D01*
G01X718400Y351600D02*
Y363400D01*
X702600D01*
Y351600D01*
X718400D01*
G01X706500Y385500D02*
X771500D01*
Y410500D01*
X706500D01*
Y385500D01*
G01X742000Y24500D02*
Y21000D01*
X740000D01*
Y24500D01*
X742000D01*
G01Y186000D02*
Y182500D01*
X740000D01*
Y186000D01*
X742000D01*
G01X747600Y367400D02*
Y355600D01*
X759400D01*
Y367400D01*
X747600D01*
G01X771100D02*
Y355600D01*
X782900D01*
Y367400D01*
X771100D01*
G01X820500Y88500D02*
Y76500D01*
X817500D01*
Y88500D01*
X820500D01*
G01X812400Y88400D02*
X798600D01*
Y76600D01*
X812400D01*
Y88400D01*
G01X837380Y256550D02*
X838147D01*
Y255620D01*
X837917Y255310D01*
X837648Y255103D01*
X837265Y255000D01*
X836882Y255103D01*
X836613Y255310D01*
X836383Y255620D01*
X836230Y255982D01*
X836153Y256395D01*
Y256757D01*
X836230Y257067D01*
X836383Y257428D01*
X836613Y257738D01*
X836843Y257945D01*
X837150Y258100D01*
X837418D01*
X837725Y257997D01*
X837955Y257790D01*
G01X839368Y255000D02*
Y258100D01*
X841132Y255000D01*
Y258100D01*
G01X842507Y255000D02*
Y258100D01*
X843273D01*
X843580Y257945D01*
X843810Y257738D01*
X844002Y257428D01*
X844155Y257067D01*
X844193Y256550D01*
X844155Y256033D01*
X844002Y255672D01*
X843810Y255362D01*
X843580Y255155D01*
X843273Y255000D01*
X842507D01*
G01X843120Y256550D02*
X842353D01*
Y255620D01*
X842583Y255310D01*
X842852Y255103D01*
X843235Y255000D01*
X843618Y255103D01*
X843887Y255310D01*
X844117Y255620D01*
X844270Y255982D01*
X844347Y256395D01*
Y256757D01*
X844270Y257067D01*
X844117Y257428D01*
X843887Y257738D01*
X843657Y257945D01*
X843350Y258100D01*
X843082D01*
X842775Y257997D01*
X842545Y257790D01*
G01X841132Y255000D02*
Y258100D01*
X839368Y255000D01*
Y258100D01*
G01X837993Y255000D02*
Y258100D01*
X837227D01*
X836920Y257945D01*
X836690Y257738D01*
X836498Y257428D01*
X836345Y257067D01*
X836307Y256550D01*
X836345Y256033D01*
X836498Y255672D01*
X836690Y255362D01*
X836920Y255155D01*
X837227Y255000D01*
X837993D01*
G01X830000Y301500D02*
X895000D01*
Y326500D01*
X830000D01*
Y301500D01*
G01X841900Y350100D02*
Y361900D01*
X826100D01*
Y350100D01*
X841900D01*
G01X830000Y384000D02*
X895000D01*
Y409000D01*
X830000D01*
Y384000D01*
G01X828600Y596500D02*
X854200D01*
X900000Y550700D01*
Y491800D01*
G01X851993Y257842D02*
X851763Y257997D01*
X851495Y258100D01*
X851188D01*
X850843Y257945D01*
X850575Y257687D01*
X850383Y257377D01*
X850230Y256860D01*
X850192Y256395D01*
X850268Y255930D01*
X850383Y255620D01*
X850613Y255310D01*
X850882Y255103D01*
X851150Y255000D01*
X851418D01*
X851687Y255103D01*
X851917Y255258D01*
X852108Y255465D01*
G01X853483Y258100D02*
Y255000D01*
X855017D01*
G01X856507D02*
Y258100D01*
G01X857963D02*
X856507Y256188D01*
G01X858193Y255000D02*
X857158Y257067D01*
G01X859300Y253967D02*
X861600D01*
G01X863550Y255000D02*
X863243Y255052D01*
X862975Y255258D01*
X862745Y255568D01*
X862592Y255930D01*
X862515Y256343D01*
Y256757D01*
X862592Y257170D01*
X862745Y257532D01*
X862975Y257842D01*
X863243Y258048D01*
X863550Y258100D01*
X863857Y258048D01*
X864125Y257842D01*
X864355Y257532D01*
X864508Y257170D01*
X864585Y256757D01*
Y256343D01*
X864508Y255930D01*
X864355Y255568D01*
X864125Y255258D01*
X863857Y255052D01*
X863550Y255000D01*
G01X865807Y258100D02*
Y255878D01*
X865960Y255413D01*
X866267Y255103D01*
X866650Y255000D01*
X867033Y255103D01*
X867340Y255413D01*
X867493Y255878D01*
Y258100D01*
G01X869750D02*
Y255000D01*
G01X868868Y258100D02*
X870632D01*
G01X869007Y257842D02*
X869237Y257997D01*
X869505Y258100D01*
X869812D01*
X870157Y257945D01*
X870425Y257687D01*
X870617Y257377D01*
X870770Y256860D01*
X870808Y256395D01*
X870732Y255930D01*
X870617Y255620D01*
X870387Y255310D01*
X870118Y255103D01*
X869850Y255000D01*
X869582D01*
X869313Y255103D01*
X869083Y255258D01*
X868892Y255465D01*
G01X867517Y258100D02*
Y255000D01*
X865983D01*
G01X864493D02*
Y258100D01*
G01X863037D02*
X864493Y256188D01*
G01X862807Y255000D02*
X863842Y257067D01*
G01X861700Y253967D02*
X859400D01*
G01X857450Y255000D02*
X857757Y255052D01*
X858025Y255258D01*
X858255Y255568D01*
X858408Y255930D01*
X858485Y256343D01*
Y256757D01*
X858408Y257170D01*
X858255Y257532D01*
X858025Y257842D01*
X857757Y258048D01*
X857450Y258100D01*
X857143Y258048D01*
X856875Y257842D01*
X856645Y257532D01*
X856492Y257170D01*
X856415Y256757D01*
Y256343D01*
X856492Y255930D01*
X856645Y255568D01*
X856875Y255258D01*
X857143Y255052D01*
X857450Y255000D01*
G01X855193Y258100D02*
Y255878D01*
X855040Y255413D01*
X854733Y255103D01*
X854350Y255000D01*
X853967Y255103D01*
X853660Y255413D01*
X853507Y255878D01*
Y258100D01*
G01X851250D02*
Y255000D01*
G01X852132Y258100D02*
X850368D01*
G01X881720Y247783D02*
X909280D01*
Y283217D01*
X881720D01*
Y247783D01*
G01X871100Y365900D02*
Y354100D01*
X882900D01*
Y365900D01*
X871100D01*
G01X894600D02*
Y354100D01*
X906400D01*
Y365900D01*
X894600D01*
G01X915720Y247783D02*
X943280D01*
Y283217D01*
X915720D01*
Y247783D01*
G01X924500Y343500D02*
Y298500D01*
X949500D01*
Y343500D01*
X924500D01*
G01X926500Y408000D02*
Y363000D01*
X951500D01*
Y408000D01*
X926500D01*
G01X965600Y327400D02*
Y315600D01*
X977400D01*
Y327400D01*
X965600D01*
G01X968700Y391300D02*
Y378700D01*
X981300D01*
Y391300D01*
X968700D01*
G01X1032500Y342000D02*
Y297000D01*
X1057500D01*
Y342000D01*
X1032500D01*
G01X1033500Y407500D02*
Y362500D01*
X1058500D01*
Y407500D01*
X1033500D01*
G01X1228550Y41500D02*
Y53500D01*
X1041050D01*
Y41500D01*
X1228550D01*
G01Y154500D02*
Y166500D01*
X1041050D01*
Y154500D01*
X1228550D01*
G01X1073600Y325900D02*
Y314100D01*
X1085400D01*
Y325900D01*
X1073600D01*
G01X1075700Y390800D02*
Y378200D01*
X1088300D01*
Y390800D01*
X1075700D01*
G01X1156050Y85250D02*
Y122750D01*
X1113550D01*
Y85250D01*
X1156050D01*
G54D14*
G01X140000Y217500D02*
Y213500D01*
X160000D01*
Y225500D01*
X140000D01*
Y221500D01*
G01X220000Y222500D02*
Y226500D01*
X200000D01*
Y214500D01*
X220000D01*
Y218500D01*
G01X262500Y155500D02*
Y160500D01*
X273500D01*
Y155500D01*
X262500D01*
G01X264663Y156400D02*
G03I-1063J0D01*
G01X336000Y145000D02*
Y140000D01*
X325000D01*
Y145000D01*
X336000D01*
G01X335963Y144100D02*
G03I-1063J0D01*
G01X338500Y169500D02*
Y164500D01*
X327500D01*
Y169500D01*
X338500D01*
G01X338463Y168600D02*
G03I-1063J0D01*
G54D15*
G01X133500Y80000D02*
G03I-1000J0D01*
G01Y159500D02*
G03I-1000J0D01*
G01X280414Y52000D02*
G03I-1414J0D01*
G01X363414D02*
G03I-1414J0D01*
G54D16*
G01X117500Y254500D02*
X88750D01*
G01D02*
X87500Y255750D01*
G01D02*
Y264500D01*
G01D02*
X117500D01*
G01D02*
Y254500D01*
G01X595000Y217000D02*
X566250D01*
G01D02*
X565000Y218250D01*
G01D02*
Y227000D01*
G01D02*
X595000D01*
G01Y268500D02*
X566250D01*
G01D02*
X565000Y269750D01*
G01D02*
Y278500D01*
G01D02*
X595000D01*
G01Y227000D02*
Y217000D01*
G01Y278500D02*
Y268500D01*
G01X645000Y217000D02*
X616250D01*
G01D02*
X615000Y218250D01*
G01D02*
Y227000D01*
G01D02*
X645000D01*
G01Y268500D02*
X616250D01*
G01D02*
X615000Y269750D01*
G01D02*
Y278500D01*
G01D02*
X645000D01*
G01Y227000D02*
Y217000D01*
G01Y278500D02*
Y268500D01*
G01X695000Y217000D02*
X666250D01*
G01D02*
X665000Y218250D01*
G01D02*
Y227000D01*
G01D02*
X695000D01*
G01Y268500D02*
X666250D01*
G01D02*
X665000Y269750D01*
G01D02*
Y278500D01*
G01D02*
X695000D01*
G01Y227000D02*
Y217000D01*
G01Y278500D02*
Y268500D01*
G01X745000Y217000D02*
X716250D01*
G01D02*
X715000Y218250D01*
G01D02*
Y227000D01*
G01D02*
X745000D01*
G01Y268500D02*
X716250D01*
G01D02*
X715000Y269750D01*
G01D02*
Y278500D01*
G01D02*
X745000D01*
G01Y227000D02*
Y217000D01*
G01Y278500D02*
Y268500D01*
G01X1007000Y305500D02*
Y334250D01*
G01X1017000Y305500D02*
X1007000D01*
G01Y334250D02*
X1008250Y335500D01*
G01D02*
X1017000D01*
G01X1009000Y370000D02*
Y398750D01*
G01X1019000Y370000D02*
X1009000D01*
G01Y398750D02*
X1010250Y400000D01*
G01D02*
X1019000D01*
G01X1053000Y217500D02*
X1023000D01*
G01D02*
Y227500D01*
G01D02*
X1051750D01*
G01X1023000Y279000D02*
X1051750D01*
G01X1053000Y269000D02*
X1023000D01*
G01D02*
Y279000D01*
G01X1017000Y335500D02*
Y305500D01*
G01X1019000Y400000D02*
Y370000D01*
G01X1053000Y226250D02*
Y217500D01*
G01X1051750Y227500D02*
X1053000Y226250D01*
G01X1051750Y279000D02*
X1053000Y277750D01*
G01D02*
Y269000D01*
G01X1092000Y217500D02*
X1062000D01*
G01D02*
Y227500D01*
G01D02*
X1090750D01*
G01X1062000Y279000D02*
X1090750D01*
G01X1092000Y269000D02*
X1062000D01*
G01D02*
Y279000D01*
G01X1092000Y226250D02*
Y217500D01*
G01X1090750Y227500D02*
X1092000Y226250D01*
G01X1090750Y279000D02*
X1092000Y277750D01*
G01D02*
Y269000D01*
G01X1131000Y217500D02*
X1102250D01*
G01D02*
X1101000Y218750D01*
G01D02*
Y227500D01*
G01D02*
X1131000D01*
G01Y269000D02*
X1102250D01*
G01D02*
X1101000Y270250D01*
G01D02*
Y279000D01*
G01D02*
X1131000D01*
G01X1115000Y304000D02*
Y332750D01*
G01X1125000Y304000D02*
X1115000D01*
G01Y332750D02*
X1116250Y334000D01*
G01D02*
X1125000D01*
G01X1116000Y369500D02*
Y398250D01*
G01X1126000Y369500D02*
X1116000D01*
G01Y398250D02*
X1117250Y399500D01*
G01D02*
X1126000D01*
G01X1131000Y227500D02*
Y217500D01*
G01X1168000D02*
X1139250D01*
G01D02*
X1138000Y218750D01*
G01D02*
Y227500D01*
G01D02*
X1168000D01*
G01Y269000D02*
X1139250D01*
G01D02*
X1138000Y270250D01*
G01D02*
Y279000D01*
G01D02*
X1168000D01*
G01X1131000D02*
Y269000D01*
G01X1125000Y334000D02*
Y304000D01*
G01X1126000Y399500D02*
Y369500D01*
G01X1205000Y217500D02*
X1176250D01*
G01D02*
X1175000Y218750D01*
G01D02*
Y227500D01*
G01X1168000D02*
Y217500D01*
G01X1175000Y227500D02*
X1205000D01*
G01Y269000D02*
X1176250D01*
G01D02*
X1175000Y270250D01*
G01D02*
Y279000D01*
G01D02*
X1205000D01*
G01X1168000D02*
Y269000D01*
G01X1205000Y227500D02*
Y217500D01*
G01Y279000D02*
Y269000D01*
G01X1243500Y217500D02*
X1214750D01*
G01D02*
X1213500Y218750D01*
G01D02*
Y227500D01*
G01D02*
X1243500D01*
G01Y269000D02*
X1214750D01*
G01D02*
X1213500Y270250D01*
G01D02*
Y279000D01*
G01D02*
X1243500D01*
G01Y227500D02*
Y217500D01*
G01Y279000D02*
Y269000D01*
G54D17*
G01X32000Y372500D02*
G03I-5000J0D01*
G01X32500Y385000D02*
G03I-5000J0D01*
G01X93500Y44500D02*
G03I-5000J0D01*
G01X90500Y168000D02*
G03I-5000J0D01*
G01X86122Y181500D02*
X88878D01*
G01X77122D02*
X79878D01*
G01X112000Y103000D02*
G03I-5000J0D01*
G01X104122Y181500D02*
X106878D01*
G01X95122D02*
X97878D01*
G01X204500Y201622D02*
Y204378D01*
G01X241500Y271000D02*
G03I-5000J0D01*
G01X226500D02*
G03I-5000J0D01*
G01X257122Y206000D02*
X259878D01*
G01X260000Y254500D02*
G03I-5000J0D01*
G01X268500Y275000D02*
G03I-5000J0D01*
G01X282000D02*
G03I-5000J0D01*
G01X309508Y240492D02*
Y264508D01*
X285492D01*
Y240492D01*
X309508D01*
G01X342000Y22000D02*
G03I-5000J0D01*
G01X389008Y240492D02*
Y264508D01*
X364992D01*
Y240492D01*
X389008D01*
G01X428000Y105500D02*
G03I-5000J0D01*
G01X468008Y240492D02*
Y264508D01*
X443992D01*
Y240492D01*
X468008D01*
G01X494500Y40000D02*
G03I-5000J0D01*
G01X500500Y99500D02*
G03I-5000J0D01*
G01Y89000D02*
G03I-5000J0D01*
G01Y78500D02*
G03I-5000J0D01*
G01X505500Y238000D02*
G03I-5000J0D01*
G01X487500Y278000D02*
G03I-5000J0D01*
G01X507500Y52500D02*
G03I-5000J0D01*
G01Y39500D02*
G03I-5000J0D01*
G01Y64000D02*
G03I-5000J0D01*
G01X512500Y89000D02*
G03I-5000J0D01*
G01X507500Y140000D02*
G03I-5000J0D01*
G01Y168000D02*
G03I-5000J0D01*
G01X508000Y182000D02*
G03I-5000J0D01*
G01X507500Y197500D02*
G03I-5000J0D01*
G01Y211000D02*
G03I-5000J0D01*
G01X576102Y244819D02*
Y247181D01*
X563898D01*
Y244819D01*
X576102D01*
G01X597102Y245319D02*
Y247681D01*
X584898D01*
Y245319D01*
X597102D01*
G01X626102Y244819D02*
Y247181D01*
X613898D01*
Y244819D01*
X626102D01*
G01X647102Y245319D02*
Y247681D01*
X634898D01*
Y245319D01*
X647102D01*
G01X676102Y244819D02*
Y247181D01*
X663898D01*
Y244819D01*
X676102D01*
G01X697102Y245319D02*
Y247681D01*
X684898D01*
Y245319D01*
X697102D01*
G01X686622Y311000D02*
X689378D01*
G01X695122D02*
X697878D01*
G01X726102Y244819D02*
Y247181D01*
X713898D01*
Y244819D01*
X726102D01*
G01X747102Y245319D02*
Y247681D01*
X734898D01*
Y245319D01*
X747102D01*
G01X781378Y310500D02*
X778622D01*
G01X790878D02*
X788122D01*
G01X810122Y309500D02*
X812878D01*
G01X818622D02*
X821378D01*
G01X845000Y265000D02*
G03I-5000J0D01*
G01X861500D02*
G03I-5000J0D01*
G01X904878Y309000D02*
X902122D01*
G01X914378D02*
X911622D01*
G01X1035602Y248319D02*
Y250681D01*
X1023398D01*
Y248319D01*
X1035602D01*
G01X1053102D02*
Y250681D01*
X1040898D01*
Y248319D01*
X1053102D01*
G01X1074602D02*
Y250681D01*
X1062398D01*
Y248319D01*
X1074602D01*
G01X1112102Y245319D02*
Y247681D01*
X1099898D01*
Y245319D01*
X1112102D01*
G01X1092102Y248319D02*
Y250681D01*
X1079898D01*
Y248319D01*
X1092102D01*
G01X1133102Y245819D02*
Y248181D01*
X1120898D01*
Y245819D01*
X1133102D01*
G01X1149102Y245319D02*
Y247681D01*
X1136898D01*
Y245319D01*
X1149102D01*
G01X1170102Y245819D02*
Y248181D01*
X1157898D01*
Y245819D01*
X1170102D01*
G01X1186102Y245319D02*
Y247681D01*
X1173898D01*
Y245319D01*
X1186102D01*
G01X1207102Y245819D02*
Y248181D01*
X1194898D01*
Y245819D01*
X1207102D01*
G01X1224602Y245319D02*
Y247681D01*
X1212398D01*
Y245319D01*
X1224602D01*
G01X1245602Y245819D02*
Y248181D01*
X1233398D01*
Y245819D01*
X1245602D01*
G54D18*
G01X80862Y199012D02*
Y187988D01*
X76138D01*
Y199012D01*
X80862D01*
G01X89862Y199512D02*
Y188488D01*
X85138D01*
Y199512D01*
X89862D01*
G01X79913Y213213D02*
Y210457D01*
X94087D01*
Y217543D01*
X79913D01*
Y215181D01*
G01X97300Y83900D02*
Y82700D01*
X105700D01*
Y86300D01*
X97300D01*
Y85100D01*
G01X92913Y76213D02*
Y73457D01*
X107087D01*
Y80543D01*
X92913D01*
Y78181D01*
G01Y155713D02*
Y152957D01*
X107087D01*
Y160043D01*
X92913D01*
Y157681D01*
G01X97300Y163400D02*
Y162200D01*
X105700D01*
Y165800D01*
X97300D01*
Y164600D01*
G01X98862Y199512D02*
Y188488D01*
X94138D01*
Y199512D01*
X98862D01*
G01X107362D02*
Y188488D01*
X102638D01*
Y199512D01*
X107362D01*
G01X90300Y227300D02*
X89100D01*
Y218900D01*
X92700D01*
Y227300D01*
X91500D01*
G01X109650Y217299D02*
X103350D01*
Y204701D01*
X109650D01*
Y217299D01*
G01X87413Y246213D02*
Y243457D01*
X101587D01*
Y250543D01*
X87413D01*
Y248181D01*
G01X117587Y247787D02*
Y250543D01*
X103413D01*
Y243457D01*
X117587D01*
Y245819D01*
G01X119100Y42300D02*
X120300D01*
Y50700D01*
X116700D01*
Y42300D01*
X117900D01*
G01X112787Y37913D02*
X115543D01*
Y52087D01*
X108457D01*
Y37913D01*
X110819D01*
G01X111400Y97700D02*
X110200D01*
Y89300D01*
X113800D01*
Y97700D01*
X112600D01*
G01X117713Y102087D02*
X114957D01*
Y87913D01*
X122043D01*
Y102087D01*
X119681D01*
G01X119100Y121800D02*
X120300D01*
Y130200D01*
X116700D01*
Y121800D01*
X117900D01*
G01X112787Y117413D02*
X115543D01*
Y131587D01*
X108457D01*
Y117413D01*
X110819D01*
G01X111400Y177200D02*
X110200D01*
Y168800D01*
X113800D01*
Y177200D01*
X112600D01*
G01X117713Y181587D02*
X114957D01*
Y167413D01*
X122043D01*
Y181587D01*
X119681D01*
G01X113800Y227300D02*
X112600D01*
Y218900D01*
X116200D01*
Y227300D01*
X115000D01*
G01X125587Y214787D02*
Y217543D01*
X111413D01*
Y210457D01*
X125587D01*
Y212819D01*
G01X149200Y66600D02*
Y67800D01*
X140800D01*
Y64200D01*
X149200D01*
Y65400D01*
G01Y61100D02*
Y62300D01*
X140800D01*
Y58700D01*
X149200D01*
Y59900D01*
G01Y56100D02*
Y57300D01*
X140800D01*
Y53700D01*
X149200D01*
Y54900D01*
G01Y135600D02*
Y136800D01*
X140800D01*
Y133200D01*
X149200D01*
Y134400D01*
G01Y146100D02*
Y147300D01*
X140800D01*
Y143700D01*
X149200D01*
Y144900D01*
G01Y140600D02*
Y141800D01*
X140800D01*
Y138200D01*
X149200D01*
Y139400D01*
G01X158661Y228563D02*
Y236437D01*
X141339D01*
Y228563D01*
X158661D01*
G01X172094Y34945D02*
Y36559D01*
X183906D01*
Y31441D01*
X172094D01*
Y33331D01*
G01X170413Y40213D02*
Y37457D01*
X184587D01*
Y44543D01*
X170413D01*
Y42181D01*
G01X172094Y84445D02*
Y86059D01*
X183906D01*
Y80941D01*
X172094D01*
Y82831D01*
G01X170413Y89713D02*
Y86957D01*
X184587D01*
Y94043D01*
X170413D01*
Y91681D01*
G01X172594Y144445D02*
Y146059D01*
X184406D01*
Y140941D01*
X172594D01*
Y142831D01*
G01X170913Y149713D02*
Y146957D01*
X185087D01*
Y154043D01*
X170913D01*
Y151681D01*
G01X198900Y25000D02*
Y26200D01*
X190500D01*
Y22600D01*
X198900D01*
Y23800D01*
G01X189688Y20762D02*
X200712D01*
Y16038D01*
X189688D01*
Y20762D01*
G01X183638Y16188D02*
Y27212D01*
X188362D01*
Y16188D01*
X183638D01*
G01X200900Y52000D02*
Y53200D01*
X192500D01*
Y49600D01*
X200900D01*
Y50800D01*
G01X187362Y59712D02*
Y48688D01*
X182638D01*
Y59712D01*
X187362D01*
G01X198900Y74500D02*
Y75700D01*
X190500D01*
Y72100D01*
X198900D01*
Y73300D01*
G01X191688Y59262D02*
X202712D01*
Y54538D01*
X191688D01*
Y59262D01*
G01X189688Y70262D02*
X200712D01*
Y65538D01*
X189688D01*
Y70262D01*
G01X183638Y65688D02*
Y76712D01*
X188362D01*
Y65688D01*
X183638D01*
G01X200900Y101500D02*
Y102700D01*
X192500D01*
Y99100D01*
X200900D01*
Y100300D01*
G01X191688Y108762D02*
X202712D01*
Y104038D01*
X191688D01*
Y108762D01*
G01X187362Y109212D02*
Y98188D01*
X182638D01*
Y109212D01*
X187362D01*
G01X199400Y134500D02*
Y135700D01*
X191000D01*
Y132100D01*
X199400D01*
Y133300D01*
G01X190188Y130262D02*
X201212D01*
Y125538D01*
X190188D01*
Y130262D01*
G01X184138Y125688D02*
Y136712D01*
X188862D01*
Y125688D01*
X184138D01*
G01X201400Y161500D02*
Y162700D01*
X193000D01*
Y159100D01*
X201400D01*
Y160300D01*
G01X187862Y169212D02*
Y158188D01*
X183138D01*
Y169212D01*
X187862D01*
G01X192188Y168762D02*
X203212D01*
Y164038D01*
X192188D01*
Y168762D01*
G01X210062Y26912D02*
Y15888D01*
X205338D01*
Y26912D01*
X210062D01*
G01X216906Y41555D02*
Y39941D01*
X205094D01*
Y45059D01*
X216906D01*
Y43169D01*
G01X218087Y36287D02*
Y39043D01*
X203913D01*
Y31957D01*
X218087D01*
Y34319D01*
G01X205838Y48388D02*
Y59412D01*
X210562D01*
Y48388D01*
X205838D01*
G01X210062Y76412D02*
Y65388D01*
X205338D01*
Y76412D01*
X210062D01*
G01X216906Y91055D02*
Y89441D01*
X205094D01*
Y94559D01*
X216906D01*
Y92669D01*
G01X218087Y85787D02*
Y88543D01*
X203913D01*
Y81457D01*
X218087D01*
Y83819D01*
G01X205838Y97888D02*
Y108912D01*
X210562D01*
Y97888D01*
X205838D01*
G01X210562Y136412D02*
Y125388D01*
X205838D01*
Y136412D01*
X210562D01*
G01X217406Y151055D02*
Y149441D01*
X205594D01*
Y154559D01*
X217406D01*
Y152669D01*
G01X218587Y145787D02*
Y148543D01*
X204413D01*
Y141457D01*
X218587D01*
Y143819D01*
G01X206338Y157888D02*
Y168912D01*
X211062D01*
Y157888D01*
X206338D01*
G01X216862Y211512D02*
Y200488D01*
X212138D01*
Y211512D01*
X216862D01*
G01X200839Y236437D02*
Y228563D01*
X218161D01*
Y236437D01*
X200839D01*
G01X220713Y29587D02*
X217957D01*
Y15413D01*
X225043D01*
Y29587D01*
X222681D01*
G01X222287Y45913D02*
X225043D01*
Y60087D01*
X217957D01*
Y45913D01*
X220319D01*
G01X220713Y79087D02*
X217957D01*
Y64913D01*
X225043D01*
Y79087D01*
X222681D01*
G01X222287Y95413D02*
X225043D01*
Y109587D01*
X217957D01*
Y95413D01*
X220319D01*
G01X221213Y139087D02*
X218457D01*
Y124913D01*
X225543D01*
Y139087D01*
X223181D01*
G01X222787Y155413D02*
X225543D01*
Y169587D01*
X218457D01*
Y155413D01*
X220819D01*
G01X220300Y185400D02*
Y184200D01*
X228700D01*
Y187800D01*
X220300D01*
Y186600D01*
G01X233100Y196300D02*
X234300D01*
Y204700D01*
X230700D01*
Y196300D01*
X231900D01*
G01X230900Y232200D02*
X229700D01*
Y223800D01*
X233300D01*
Y232200D01*
X232100D01*
G01X232913Y213213D02*
Y210457D01*
X247087D01*
Y217543D01*
X232913D01*
Y215181D01*
G01X253200Y47100D02*
Y48300D01*
X244800D01*
Y44700D01*
X253200D01*
Y45900D01*
G01X256787Y156913D02*
X259543D01*
Y171087D01*
X252457D01*
Y156913D01*
X254819D01*
G01X242988Y205362D02*
X254012D01*
Y200638D01*
X242988D01*
Y205362D01*
G01X254906Y246055D02*
Y244441D01*
X243094D01*
Y249559D01*
X254906D01*
Y247669D01*
G01X264300Y45900D02*
Y44700D01*
X272700D01*
Y48300D01*
X264300D01*
Y47100D01*
G01X259800Y124400D02*
Y123200D01*
X268200D01*
Y126800D01*
X259800D01*
Y125600D01*
G01X284200Y157600D02*
Y158800D01*
X275800D01*
Y155200D01*
X284200D01*
Y156400D01*
G01X277700Y168600D02*
Y169800D01*
X269300D01*
Y166200D01*
X277700D01*
Y167400D01*
G01X271300Y220900D02*
Y219700D01*
X279700D01*
Y223300D01*
X271300D01*
Y222100D01*
G01X261800Y220900D02*
Y219700D01*
X270200D01*
Y223300D01*
X261800D01*
Y222100D01*
G01X280800Y220900D02*
Y219700D01*
X289200D01*
Y223300D01*
X280800D01*
Y222100D01*
G01X265300Y245900D02*
Y244700D01*
X273700D01*
Y248300D01*
X265300D01*
Y247100D01*
G01Y256900D02*
Y255700D01*
X273700D01*
Y259300D01*
X265300D01*
Y258100D01*
G01Y250900D02*
Y249700D01*
X273700D01*
Y253300D01*
X265300D01*
Y252100D01*
G01X290300Y220900D02*
Y219700D01*
X298700D01*
Y223300D01*
X290300D01*
Y222100D01*
G01X299800Y220900D02*
Y219700D01*
X308200D01*
Y223300D01*
X299800D01*
Y222100D01*
G01X320800Y131900D02*
Y130700D01*
X329200D01*
Y134300D01*
X320800D01*
Y133100D01*
G01X314300Y142900D02*
Y141700D01*
X322700D01*
Y145300D01*
X314300D01*
Y144100D01*
G01X323300Y156400D02*
Y155200D01*
X331700D01*
Y158800D01*
X323300D01*
Y157600D01*
G01X316800Y167400D02*
Y166200D01*
X325200D01*
Y169800D01*
X316800D01*
Y168600D01*
G01X318800Y220900D02*
Y219700D01*
X327200D01*
Y223300D01*
X318800D01*
Y222100D01*
G01X309300Y220900D02*
Y219700D01*
X317700D01*
Y223300D01*
X309300D01*
Y222100D01*
G01X330700Y246600D02*
Y247800D01*
X322300D01*
Y244200D01*
X330700D01*
Y245400D01*
G01Y251100D02*
Y252300D01*
X322300D01*
Y248700D01*
X330700D01*
Y249900D01*
G01Y255600D02*
Y256800D01*
X322300D01*
Y253200D01*
X330700D01*
Y254400D01*
G01X336700Y47100D02*
Y48300D01*
X328300D01*
Y44700D01*
X336700D01*
Y45900D01*
G01X348700Y91100D02*
Y92300D01*
X340300D01*
Y88700D01*
X348700D01*
Y89900D01*
G01X341713Y143587D02*
X338957D01*
Y129413D01*
X346043D01*
Y143587D01*
X343681D01*
G01X344213Y168087D02*
X341457D01*
Y153913D01*
X348543D01*
Y168087D01*
X346181D01*
G01X328300Y220900D02*
Y219700D01*
X336700D01*
Y223300D01*
X328300D01*
Y222100D01*
G01X341300Y220900D02*
Y219700D01*
X349700D01*
Y223300D01*
X341300D01*
Y222100D01*
G01X344800Y245900D02*
Y244700D01*
X353200D01*
Y248300D01*
X344800D01*
Y247100D01*
G01Y250900D02*
Y249700D01*
X353200D01*
Y253300D01*
X344800D01*
Y252100D01*
G01Y256900D02*
Y255700D01*
X353200D01*
Y259300D01*
X344800D01*
Y258100D01*
G01X347800Y45900D02*
Y44700D01*
X356200D01*
Y48300D01*
X347800D01*
Y47100D01*
G01X350800Y220900D02*
Y219700D01*
X359200D01*
Y223300D01*
X350800D01*
Y222100D01*
G01X360300Y220900D02*
Y219700D01*
X368700D01*
Y223300D01*
X360300D01*
Y222100D01*
G01X369800Y220900D02*
Y219700D01*
X378200D01*
Y223300D01*
X369800D01*
Y222100D01*
G01X379300Y220900D02*
Y219700D01*
X387700D01*
Y223300D01*
X379300D01*
Y222100D01*
G01X402200Y65900D02*
Y64700D01*
X410600D01*
Y68300D01*
X402200D01*
Y67100D01*
G01X397813Y58713D02*
Y55957D01*
X411987D01*
Y63043D01*
X397813D01*
Y60681D01*
G01X402200Y94600D02*
Y95800D01*
X393800D01*
Y92200D01*
X402200D01*
Y93400D01*
G01X409600Y121800D02*
X410800D01*
Y130200D01*
X407200D01*
Y121800D01*
X408400D01*
G01X405912Y119938D02*
X394888D01*
Y124662D01*
X405912D01*
Y119938D01*
G01X394988Y138862D02*
X406012D01*
Y134138D01*
X394988D01*
Y138862D01*
G01Y131862D02*
X406012D01*
Y127138D01*
X394988D01*
Y131862D01*
G01X406012Y141638D02*
X394988D01*
Y146362D01*
X406012D01*
Y141638D01*
G01X405700Y172600D02*
Y173800D01*
X397300D01*
Y170200D01*
X405700D01*
Y171400D01*
G01X398300Y220900D02*
Y219700D01*
X406700D01*
Y223300D01*
X398300D01*
Y222100D01*
G01X388800Y220900D02*
Y219700D01*
X397200D01*
Y223300D01*
X388800D01*
Y222100D01*
G01X407800Y220900D02*
Y219700D01*
X416200D01*
Y223300D01*
X407800D01*
Y222100D01*
G01X410200Y246600D02*
Y247800D01*
X401800D01*
Y244200D01*
X410200D01*
Y245400D01*
G01Y251100D02*
Y252300D01*
X401800D01*
Y248700D01*
X410200D01*
Y249900D01*
G01Y255600D02*
Y256800D01*
X401800D01*
Y253200D01*
X410200D01*
Y254400D01*
G01X426600Y67100D02*
Y68300D01*
X418200D01*
Y64700D01*
X426600D01*
Y65900D01*
G01X418900Y101700D02*
X417700D01*
Y93300D01*
X421300D01*
Y101700D01*
X420100D01*
G01X425638Y91488D02*
Y102512D01*
X430362D01*
Y91488D01*
X425638D01*
G01X431012Y85638D02*
X419988D01*
Y90362D01*
X431012D01*
Y85638D01*
G01X416100Y127300D02*
X417300D01*
Y135700D01*
X413700D01*
Y127300D01*
X414900D01*
G01X412988Y145862D02*
X424012D01*
Y141138D01*
X412988D01*
Y145862D01*
G01X424012Y147138D02*
X412988D01*
Y151862D01*
X424012D01*
Y147138D01*
G01X429900Y178700D02*
X428700D01*
Y170300D01*
X432300D01*
Y178700D01*
X431100D01*
G01X429800Y220900D02*
Y219700D01*
X438200D01*
Y223300D01*
X429800D01*
Y222100D01*
G01X420300Y220900D02*
Y219700D01*
X428700D01*
Y223300D01*
X420300D01*
Y222100D01*
G01X423800Y245900D02*
Y244700D01*
X432200D01*
Y248300D01*
X423800D01*
Y247100D01*
G01Y256900D02*
Y255700D01*
X432200D01*
Y259300D01*
X423800D01*
Y258100D01*
G01Y250900D02*
Y249700D01*
X432200D01*
Y253300D01*
X423800D01*
Y252100D01*
G01X439300Y220900D02*
Y219700D01*
X447700D01*
Y223300D01*
X439300D01*
Y222100D01*
G01X448800Y220900D02*
Y219700D01*
X457200D01*
Y223300D01*
X448800D01*
Y222100D01*
G01X470213Y79587D02*
X467457D01*
Y65413D01*
X474543D01*
Y79587D01*
X472181D01*
G01X458300Y220900D02*
Y219700D01*
X466700D01*
Y223300D01*
X458300D01*
Y222100D01*
G01X467800Y220900D02*
Y219700D01*
X476200D01*
Y223300D01*
X467800D01*
Y222100D01*
G01X486200Y63600D02*
Y64800D01*
X477800D01*
Y61200D01*
X486200D01*
Y62400D01*
G01X483700Y83100D02*
Y84300D01*
X475300D01*
Y80700D01*
X483700D01*
Y81900D01*
G01X486800Y220900D02*
Y219700D01*
X495200D01*
Y223300D01*
X486800D01*
Y222100D01*
G01X477300Y220900D02*
Y219700D01*
X485700D01*
Y223300D01*
X477300D01*
Y222100D01*
G01X489200Y246600D02*
Y247800D01*
X480800D01*
Y244200D01*
X489200D01*
Y245400D01*
G01Y255600D02*
Y256800D01*
X480800D01*
Y253200D01*
X489200D01*
Y254400D01*
G01Y251100D02*
Y252300D01*
X480800D01*
Y248700D01*
X489200D01*
Y249900D01*
G01X562512Y113638D02*
X551488D01*
Y118362D01*
X562512D01*
Y113638D01*
G01Y107638D02*
X551488D01*
Y112362D01*
X562512D01*
Y107638D01*
G01Y101638D02*
X551488D01*
Y106362D01*
X562512D01*
Y101638D01*
G01X578138Y243488D02*
Y254512D01*
X582862D01*
Y243488D01*
X578138D01*
G01X582094Y230331D02*
Y228441D01*
X593906D01*
Y233559D01*
X582094D01*
Y229031D01*
X582173D01*
G01X568724Y233559D02*
X567150D01*
Y228402D01*
X568567D01*
G01X579906Y231669D02*
Y233559D01*
X568094D01*
Y228441D01*
X579906D01*
Y232969D01*
X579827D01*
G01X569055Y254594D02*
X567441D01*
Y266406D01*
X572559D01*
Y254594D01*
X570669D01*
G01X593276Y228441D02*
X594850D01*
Y233598D01*
X593433D01*
G01X590055Y254594D02*
X588441D01*
Y266406D01*
X593559D01*
Y254594D01*
X591669D01*
G01X618724Y233559D02*
X617150D01*
Y228402D01*
X618567D01*
G01X629906Y231669D02*
Y233559D01*
X618094D01*
Y228441D01*
X629906D01*
Y232969D01*
X629827D01*
G01X619055Y254594D02*
X617441D01*
Y266406D01*
X622559D01*
Y254594D01*
X620669D01*
G01X628138Y243488D02*
Y254512D01*
X632862D01*
Y243488D01*
X628138D01*
G01X643276Y228441D02*
X644850D01*
Y233598D01*
X643433D01*
G01X632094Y230331D02*
Y228441D01*
X643906D01*
Y233559D01*
X632094D01*
Y229031D01*
X632173D01*
G01X640055Y254594D02*
X638441D01*
Y266406D01*
X643559D01*
Y254594D01*
X641669D01*
G01X668724Y233559D02*
X667150D01*
Y228402D01*
X668567D01*
G01X679906Y231669D02*
Y233559D01*
X668094D01*
Y228441D01*
X679906D01*
Y232969D01*
X679827D01*
G01X669055Y254594D02*
X667441D01*
Y266406D01*
X672559D01*
Y254594D01*
X670669D01*
G01X678138Y243488D02*
Y254512D01*
X682862D01*
Y243488D01*
X678138D01*
G01X682094Y230331D02*
Y228441D01*
X693906D01*
Y233559D01*
X682094D01*
Y229031D01*
X682173D01*
G01X690055Y254594D02*
X688441D01*
Y266406D01*
X693559D01*
Y254594D01*
X691669D01*
G01X690362Y329012D02*
Y317988D01*
X685638D01*
Y329012D01*
X690362D01*
G01X687913Y339713D02*
Y336957D01*
X702087D01*
Y344043D01*
X687913D01*
Y341681D01*
G01X693276Y228441D02*
X694850D01*
Y233598D01*
X693433D01*
G01X698862Y329012D02*
Y317988D01*
X694138D01*
Y329012D01*
X698862D01*
G01X698300Y353800D02*
X697100D01*
Y345400D01*
X700700D01*
Y353800D01*
X699500D01*
G01X695413Y372713D02*
Y369957D01*
X709587D01*
Y377043D01*
X695413D01*
Y374681D01*
G01X725587Y374287D02*
Y377043D01*
X711413D01*
Y369957D01*
X725587D01*
Y372319D01*
G01X728138Y243488D02*
Y254512D01*
X732862D01*
Y243488D01*
X728138D01*
G01X718724Y233559D02*
X717150D01*
Y228402D01*
X718567D01*
G01X729906Y231669D02*
Y233559D01*
X718094D01*
Y228441D01*
X729906D01*
Y232969D01*
X729827D01*
G01X732094Y230331D02*
Y228441D01*
X743906D01*
Y233559D01*
X732094D01*
Y229031D01*
X732173D01*
G01X719055Y254594D02*
X717441D01*
Y266406D01*
X722559D01*
Y254594D01*
X720669D01*
G01X721800Y353800D02*
X720600D01*
Y345400D01*
X724200D01*
Y353800D01*
X723000D01*
G01X733587Y341287D02*
Y344043D01*
X719413D01*
Y336957D01*
X733587D01*
Y339319D01*
G01X743276Y228441D02*
X744850D01*
Y233598D01*
X743433D01*
G01X740055Y254594D02*
X738441D01*
Y266406D01*
X743559D01*
Y254594D01*
X741669D01*
G01X741900Y358200D02*
X740700D01*
Y349800D01*
X744300D01*
Y358200D01*
X743100D01*
G01X743913Y339213D02*
Y336457D01*
X758087D01*
Y343543D01*
X743913D01*
Y341181D01*
G01X765906Y372055D02*
Y370441D01*
X754094D01*
Y375559D01*
X765906D01*
Y373669D01*
G01X765400Y358200D02*
X764200D01*
Y349800D01*
X767800D01*
Y358200D01*
X766600D01*
G01X767413Y339213D02*
Y336457D01*
X781587D01*
Y343543D01*
X767413D01*
Y341181D01*
G01X795638Y46488D02*
Y57512D01*
X800362D01*
Y46488D01*
X795638D01*
G01X782362Y329512D02*
Y318488D01*
X777638D01*
Y329512D01*
X782362D01*
G01X791862D02*
Y318488D01*
X787138D01*
Y329512D01*
X791862D01*
G01X789406Y372055D02*
Y370441D01*
X777594D01*
Y375559D01*
X789406D01*
Y373669D01*
G01X818488Y109362D02*
X829512D01*
Y104638D01*
X818488D01*
Y109362D01*
G01Y99362D02*
X829512D01*
Y94638D01*
X818488D01*
Y99362D01*
G01Y117862D02*
X829512D01*
Y113138D01*
X818488D01*
Y117862D01*
G01X813862Y327512D02*
Y316488D01*
X809138D01*
Y327512D01*
X813862D01*
G01X822362D02*
Y316488D01*
X817638D01*
Y327512D01*
X822362D01*
G01X811413Y338213D02*
Y335457D01*
X825587D01*
Y342543D01*
X811413D01*
Y340181D01*
G01X818913Y371213D02*
Y368457D01*
X833087D01*
Y375543D01*
X818913D01*
Y373181D01*
G01X831988Y109362D02*
X843012D01*
Y104638D01*
X831988D01*
Y109362D01*
G01X824638Y119988D02*
Y131012D01*
X829362D01*
Y119988D01*
X824638D01*
G01X821800Y352300D02*
X820600D01*
Y343900D01*
X824200D01*
Y352300D01*
X823000D01*
G01X849087Y372787D02*
Y375543D01*
X834913D01*
Y368457D01*
X849087D01*
Y370819D01*
G01X845300Y352300D02*
X844100D01*
Y343900D01*
X847700D01*
Y352300D01*
X846500D01*
G01X857087Y339787D02*
Y342543D01*
X842913D01*
Y335457D01*
X857087D01*
Y337819D01*
G01X865400Y356700D02*
X864200D01*
Y348300D01*
X867800D01*
Y356700D01*
X866600D01*
G01X867413Y337713D02*
Y334957D01*
X881587D01*
Y342043D01*
X867413D01*
Y339681D01*
G01X889406Y370555D02*
Y368941D01*
X877594D01*
Y374059D01*
X889406D01*
Y372169D01*
G01X905862Y328012D02*
Y316988D01*
X901138D01*
Y328012D01*
X905862D01*
G01X888900Y356700D02*
X887700D01*
Y348300D01*
X891300D01*
Y356700D01*
X890100D01*
G01X890913Y337713D02*
Y334957D01*
X905087D01*
Y342043D01*
X890913D01*
Y339681D01*
G01X912906Y370555D02*
Y368941D01*
X901094D01*
Y374059D01*
X912906D01*
Y372169D01*
G01X915362Y328012D02*
Y316988D01*
X910638D01*
Y328012D01*
X915362D01*
G01X966700Y71600D02*
Y72800D01*
X958300D01*
Y69200D01*
X966700D01*
Y70400D01*
G01X958150Y145299D02*
X951850D01*
Y132701D01*
X958150D01*
Y145299D01*
G01X976900Y308000D02*
Y309200D01*
X968500D01*
Y305600D01*
X976900D01*
Y306800D01*
G01X967688Y303762D02*
X978712D01*
Y299038D01*
X967688D01*
Y303762D01*
G01X955488Y303862D02*
X966512D01*
Y299138D01*
X955488D01*
Y303862D01*
G01Y310862D02*
X966512D01*
Y306138D01*
X955488D01*
Y310862D01*
G01X956488Y336362D02*
X967512D01*
Y331638D01*
X956488D01*
Y336362D01*
G01X978900Y335000D02*
Y336200D01*
X970500D01*
Y332600D01*
X978900D01*
Y333800D01*
G01X969688Y342262D02*
X980712D01*
Y337538D01*
X969688D01*
Y342262D01*
G01X956488Y342362D02*
X967512D01*
Y337638D01*
X956488D01*
Y342362D01*
G01X970488Y367362D02*
X981512D01*
Y362638D01*
X970488D01*
Y367362D01*
G01X957488D02*
X968512D01*
Y362638D01*
X957488D01*
Y367362D01*
G01Y373362D02*
X968512D01*
Y368638D01*
X957488D01*
Y373362D01*
G01X959488Y406862D02*
X970512D01*
Y402138D01*
X959488D01*
Y406862D01*
G01Y401362D02*
X970512D01*
Y396638D01*
X959488D01*
Y401362D01*
G01X973138Y63488D02*
Y74512D01*
X977862D01*
Y63488D01*
X973138D01*
G01X990638D02*
Y74512D01*
X995362D01*
Y63488D01*
X990638D01*
G01X978638D02*
Y74512D01*
X983362D01*
Y63488D01*
X978638D01*
G01X988062Y309912D02*
Y298888D01*
X983338D01*
Y309912D01*
X988062D01*
G01X995406Y324055D02*
Y322441D01*
X983594D01*
Y327559D01*
X995406D01*
Y325669D01*
G01X996087Y319287D02*
Y322043D01*
X981913D01*
Y314957D01*
X996087D01*
Y317319D01*
G01X983838Y331388D02*
Y342412D01*
X988562D01*
Y331388D01*
X983838D01*
G01X979700Y370600D02*
Y371800D01*
X971300D01*
Y368200D01*
X979700D01*
Y369400D01*
G01X987862Y373512D02*
Y362488D01*
X983138D01*
Y373512D01*
X987862D01*
G01X995906Y388555D02*
Y386941D01*
X984094D01*
Y392059D01*
X995906D01*
Y390169D01*
G01X998087Y383287D02*
Y386043D01*
X983913D01*
Y378957D01*
X998087D01*
Y381319D01*
G01X985138Y395488D02*
Y406512D01*
X989862D01*
Y395488D01*
X985138D01*
G01X983700Y400100D02*
Y401300D01*
X975300D01*
Y397700D01*
X983700D01*
Y398900D01*
G01X972488Y406862D02*
X983512D01*
Y402138D01*
X972488D01*
Y406862D01*
G01X998713Y312587D02*
X995957D01*
Y298413D01*
X1003043D01*
Y312587D01*
X1000681D01*
G01X1000287Y328413D02*
X1003043D01*
Y342587D01*
X995957D01*
Y328413D01*
X998319D01*
G01X1000713Y377087D02*
X997957D01*
Y362913D01*
X1005043D01*
Y377087D01*
X1002681D01*
G01X1002287Y392913D02*
X1005043D01*
Y407087D01*
X997957D01*
Y392913D01*
X1000319D01*
G01X1033594Y236945D02*
Y238559D01*
X1045406D01*
Y233441D01*
X1033594D01*
Y235331D01*
G01X1034406Y260555D02*
Y258941D01*
X1022594D01*
Y264059D01*
X1034406D01*
Y262169D01*
G01X1049406Y260555D02*
Y258941D01*
X1037594D01*
Y264059D01*
X1049406D01*
Y262169D01*
G01X1068100Y64900D02*
Y63700D01*
X1076500D01*
Y67300D01*
X1068100D01*
Y66100D01*
G01X1063713Y71213D02*
Y68457D01*
X1077887D01*
Y75543D01*
X1063713D01*
Y73181D01*
G01X1068500Y93900D02*
Y95100D01*
X1060100D01*
Y91500D01*
X1068500D01*
Y92700D01*
G01X1072887Y87587D02*
Y90343D01*
X1058713D01*
Y83257D01*
X1072887D01*
Y85619D01*
G01X1072594Y236945D02*
Y238559D01*
X1084406D01*
Y233441D01*
X1072594D01*
Y235331D01*
G01X1073406Y260555D02*
Y258941D01*
X1061594D01*
Y264059D01*
X1073406D01*
Y262169D01*
G01X1088406Y260555D02*
Y258941D01*
X1076594D01*
Y264059D01*
X1088406D01*
Y262169D01*
G01X1084900Y306500D02*
Y307700D01*
X1076500D01*
Y304100D01*
X1084900D01*
Y305300D01*
G01X1063488Y309362D02*
X1074512D01*
Y304638D01*
X1063488D01*
Y309362D01*
G01X1075688Y302262D02*
X1086712D01*
Y297538D01*
X1075688D01*
Y302262D01*
G01X1063488Y302362D02*
X1074512D01*
Y297638D01*
X1063488D01*
Y302362D01*
G01X1086900Y333500D02*
Y334700D01*
X1078500D01*
Y331100D01*
X1086900D01*
Y332300D01*
G01X1064488Y334862D02*
X1075512D01*
Y330138D01*
X1064488D01*
Y334862D01*
G01X1077688Y340762D02*
X1088712D01*
Y336038D01*
X1077688D01*
Y340762D01*
G01X1064488Y340862D02*
X1075512D01*
Y336138D01*
X1064488D01*
Y340862D01*
G01X1086700Y370100D02*
Y371300D01*
X1078300D01*
Y367700D01*
X1086700D01*
Y368900D01*
G01X1064488Y372862D02*
X1075512D01*
Y368138D01*
X1064488D01*
Y372862D01*
G01X1077488Y366862D02*
X1088512D01*
Y362138D01*
X1077488D01*
Y366862D01*
G01X1064488D02*
X1075512D01*
Y362138D01*
X1064488D01*
Y366862D01*
G01X1066488Y400862D02*
X1077512D01*
Y396138D01*
X1066488D01*
Y400862D01*
G01Y406362D02*
X1077512D01*
Y401638D01*
X1066488D01*
Y406362D01*
G01X1091500Y75100D02*
Y76300D01*
X1083100D01*
Y72700D01*
X1091500D01*
Y73900D01*
G01X1095887Y68787D02*
Y71543D01*
X1081713D01*
Y64457D01*
X1095887D01*
Y66819D01*
G01X1096062Y308412D02*
Y297388D01*
X1091338D01*
Y308412D01*
X1096062D01*
G01X1103406Y322555D02*
Y320941D01*
X1091594D01*
Y326059D01*
X1103406D01*
Y324169D01*
G01X1104087Y317787D02*
Y320543D01*
X1089913D01*
Y313457D01*
X1104087D01*
Y315819D01*
G01X1091838Y329888D02*
Y340912D01*
X1096562D01*
Y329888D01*
X1091838D01*
G01X1094862Y373012D02*
Y361988D01*
X1090138D01*
Y373012D01*
X1094862D01*
G01X1102906Y388055D02*
Y386441D01*
X1091094D01*
Y391559D01*
X1102906D01*
Y389669D01*
G01X1105087Y382787D02*
Y385543D01*
X1090913D01*
Y378457D01*
X1105087D01*
Y380819D01*
G01X1092138Y394988D02*
Y406012D01*
X1096862D01*
Y394988D01*
X1092138D01*
G01X1090700Y399600D02*
Y400800D01*
X1082300D01*
Y397200D01*
X1090700D01*
Y398400D01*
G01X1079488Y406362D02*
X1090512D01*
Y401638D01*
X1079488D01*
Y406362D01*
G01X1114138Y243988D02*
Y255012D01*
X1118862D01*
Y243988D01*
X1114138D01*
G01X1118094Y230831D02*
Y228941D01*
X1129906D01*
Y234059D01*
X1118094D01*
Y229531D01*
X1118173D01*
G01X1104724Y234059D02*
X1103150D01*
Y228902D01*
X1104567D01*
G01X1115906Y232169D02*
Y234059D01*
X1104094D01*
Y228941D01*
X1115906D01*
Y233469D01*
X1115827D01*
G01X1105055Y255094D02*
X1103441D01*
Y266906D01*
X1108559D01*
Y255094D01*
X1106669D01*
G01X1106713Y311087D02*
X1103957D01*
Y296913D01*
X1111043D01*
Y311087D01*
X1108681D01*
G01X1108287Y326913D02*
X1111043D01*
Y341087D01*
X1103957D01*
Y326913D01*
X1106319D01*
G01X1107713Y376587D02*
X1104957D01*
Y362413D01*
X1112043D01*
Y376587D01*
X1109681D01*
G01X1109287Y392413D02*
X1112043D01*
Y406587D01*
X1104957D01*
Y392413D01*
X1107319D01*
G01X1141724Y234059D02*
X1140150D01*
Y228902D01*
X1141567D01*
G01X1152906Y232169D02*
Y234059D01*
X1141094D01*
Y228941D01*
X1152906D01*
Y233469D01*
X1152827D01*
G01X1129276Y228941D02*
X1130850D01*
Y234098D01*
X1129433D01*
G01X1142055Y255094D02*
X1140441D01*
Y266906D01*
X1145559D01*
Y255094D01*
X1143669D01*
G01X1126055D02*
X1124441D01*
Y266906D01*
X1129559D01*
Y255094D01*
X1127669D01*
G01X1151138Y243988D02*
Y255012D01*
X1155862D01*
Y243988D01*
X1151138D01*
G01X1155094Y230831D02*
Y228941D01*
X1166906D01*
Y234059D01*
X1155094D01*
Y229531D01*
X1155173D01*
G01X1163055Y255094D02*
X1161441D01*
Y266906D01*
X1166559D01*
Y255094D01*
X1164669D01*
G01X1170862Y85512D02*
Y74488D01*
X1166138D01*
Y85512D01*
X1170862D01*
G01X1166276Y228941D02*
X1167850D01*
Y234098D01*
X1166433D01*
G01X1178724Y234059D02*
X1177150D01*
Y228902D01*
X1178567D01*
G01X1189906Y232169D02*
Y234059D01*
X1178094D01*
Y228941D01*
X1189906D01*
Y233469D01*
X1189827D01*
G01X1179055Y255094D02*
X1177441D01*
Y266906D01*
X1182559D01*
Y255094D01*
X1180669D01*
G01X1194400Y65200D02*
X1193200D01*
Y56800D01*
X1196800D01*
Y65200D01*
X1195600D01*
G01X1199400D02*
X1198200D01*
Y56800D01*
X1201800D01*
Y65200D01*
X1200600D01*
G01X1200887Y136287D02*
Y139043D01*
X1186713D01*
Y131957D01*
X1200887D01*
Y134319D01*
G01X1196500Y142600D02*
Y143800D01*
X1188100D01*
Y140200D01*
X1196500D01*
Y141400D01*
G01X1188138Y243988D02*
Y255012D01*
X1192862D01*
Y243988D01*
X1188138D01*
G01X1203276Y228941D02*
X1204850D01*
Y234098D01*
X1203433D01*
G01X1192094Y230831D02*
Y228941D01*
X1203906D01*
Y234059D01*
X1192094D01*
Y229531D01*
X1192173D01*
G01X1200055Y255094D02*
X1198441D01*
Y266906D01*
X1203559D01*
Y255094D01*
X1201669D01*
G01X1226012Y118138D02*
X1214988D01*
Y122862D01*
X1226012D01*
Y118138D01*
G01X1226638Y243988D02*
Y255012D01*
X1231362D01*
Y243988D01*
X1226638D01*
G01X1217224Y234059D02*
X1215650D01*
Y228902D01*
X1217067D01*
G01X1228406Y232169D02*
Y234059D01*
X1216594D01*
Y228941D01*
X1228406D01*
Y233469D01*
X1228327D01*
G01X1217555Y255094D02*
X1215941D01*
Y266906D01*
X1221059D01*
Y255094D01*
X1219169D01*
G01X1241776Y228941D02*
X1243350D01*
Y234098D01*
X1241933D01*
G01X1230594Y230831D02*
Y228941D01*
X1242406D01*
Y234059D01*
X1230594D01*
Y229531D01*
X1230673D01*
G01X1238555Y255094D02*
X1236941D01*
Y266906D01*
X1242059D01*
Y255094D01*
X1240169D01*
G54D19*
G01X87992Y174610D02*
G03I-492J0D01*
G01X78992D02*
G03I-492J0D01*
G01X105992D02*
G03I-492J0D01*
G01X96992D02*
G03I-492J0D01*
G01X211882Y203000D02*
G03I-492J0D01*
G01X258992Y199110D02*
G03I-492J0D01*
G01X284409Y233996D02*
G03I-492J0D01*
G01X363909D02*
G03I-492J0D01*
G01X442909D02*
G03I-492J0D01*
G01X563405Y240488D02*
G03I-492J0D01*
G01X584405Y240988D02*
G03I-492J0D01*
G01X613405Y240488D02*
G03I-492J0D01*
G01X634405Y240988D02*
G03I-492J0D01*
G01X663405Y240488D02*
G03I-492J0D01*
G01X684405Y240988D02*
G03I-492J0D01*
G01X688492Y304110D02*
G03I-492J0D01*
G01X713405Y240488D02*
G03I-492J0D01*
G01X696992Y304110D02*
G03I-492J0D01*
G01X734405Y240988D02*
G03I-492J0D01*
G01X780492Y317390D02*
G03I-492J0D01*
G01X789992D02*
G03I-492J0D01*
G01X811992Y302610D02*
G03I-492J0D01*
G01X820492D02*
G03I-492J0D01*
G01X903992Y315890D02*
G03I-492J0D01*
G01X913492D02*
G03I-492J0D01*
G01X1022905Y243988D02*
G03I-492J0D01*
G01X1040405D02*
G03I-492J0D01*
G01X1061905D02*
G03I-492J0D01*
G01X1079405D02*
G03I-492J0D01*
G01X1099405Y240988D02*
G03I-492J0D01*
G01X1120405Y241488D02*
G03I-492J0D01*
G01X1136405Y240988D02*
G03I-492J0D01*
G01X1157405Y241488D02*
G03I-492J0D01*
G01X1173405Y240988D02*
G03I-492J0D01*
G01X1194405Y241488D02*
G03I-492J0D01*
G01X1211905Y240988D02*
G03I-492J0D01*
G01X1232905Y241488D02*
G03I-492J0D01*
M02*
