G04 ================== begin FILE IDENTIFICATION RECORD ==================*
G04 Layout Name:  //MAC/HOME/DESKTOP/SPB_DATA/CAPTURE/CIS_ATCS/allegro/ATCS_m2.brd*
G04 Film Name:    SOLDERMASK_TOP*
G04 File Format:  Gerber RS274X*
G04 File Origin:  Cadence Allegro 17.2-P019*
G04 Origin Date:  Thu May 10 13:25:58 2018*
G04 *
G04 Layer:  VIA CLASS/SOLDERMASK_TOP*
G04 Layer:  PIN/SOLDERMASK_TOP*
G04 Layer:  DRC ERROR CLASS/SOLDERMASK_TOP*
G04 *
G04 Offset:    (0.00 0.00)*
G04 Mirror:    No*
G04 Mode:      Positive*
G04 Rotation:  0*
G04 FullContactRelief:  No*
G04 UndefLineWidth:     0.00*
G04 ================== end FILE IDENTIFICATION RECORD ====================*
%FSLAX55Y55*MOIN*%
%IR0*IPPOS*OFA0.00000B0.00000*MIA0B0*SFA1.00000B1.00000*%
%ADD31R,.06X.1*%
%ADD54R,.05X.118*%
%ADD55C,.03*%
%ADD25R,.13X.067*%
%ADD14C,.022*%
%ADD15C,.07*%
%ADD12C,.026*%
%ADD10C,.035*%
%ADD16C,.036*%
%ADD34C,.075*%
%ADD53R,.07X.07*%
%ADD26R,.09X.09*%
%ADD47R,.069X.069*%
%ADD50R,.014X.02*%
%ADD61R,.014X.04*%
%ADD59R,.04X.014*%
%ADD46R,.04X.016*%
%ADD39R,.05X.014*%
%ADD22R,.01X.028*%
%ADD57R,.225X.16*%
%ADD45R,.016X.04*%
%ADD60R,.004X.004*%
%ADD58R,.004X.004*%
%ADD56R,.017X.042*%
%ADD41R,.028X.04*%
%ADD40R,.015X.026*%
%ADD21R,.027X.025*%
%ADD13C,.25*%
%ADD35C,.116*%
%ADD20R,.025X.027*%
%ADD37R,.094X.07*%
%ADD49R,.063X.039*%
%ADD23R,.05512X.04331*%
%ADD52R,.04252X.04134*%
%ADD48R,.01181X.03543*%
%ADD33R,.04134X.04252*%
%ADD51R,.02362X.0374*%
%ADD44R,.03543X.01181*%
%ADD11R,.02362X.02165*%
%ADD24R,.02165X.02362*%
%ADD18R,.0374X.0374*%
%ADD38R,.03543X.0374*%
%ADD36R,.0374X.0374*%
%ADD28R,.0375X.0158*%
%ADD29R,.0158X.0375*%
%ADD17R,.0374X.03543*%
%ADD43R,.01181X.05906*%
%ADD42R,.05906X.01181*%
%ADD30R,.14183X.14183*%
%ADD27R,.05906X.05118*%
%ADD19R,.05118X.05906*%
%ADD32R,.04921X.0689*%
%LPD*%
G75*
G54D10*
X23000Y38500D03*
Y43500D03*
Y48500D03*
Y53500D03*
Y58500D03*
Y63500D03*
Y68500D03*
Y73500D03*
Y78500D03*
Y83500D03*
Y88500D03*
Y93500D03*
Y98500D03*
Y103500D03*
Y108500D03*
Y113500D03*
Y118500D03*
Y123500D03*
Y128500D03*
Y133500D03*
Y138500D03*
Y143500D03*
Y148500D03*
Y153500D03*
Y158500D03*
Y163500D03*
Y168500D03*
Y173500D03*
Y178500D03*
Y183500D03*
Y188500D03*
Y193500D03*
Y198500D03*
Y203500D03*
Y208500D03*
Y213500D03*
Y218500D03*
Y223500D03*
Y228500D03*
Y233500D03*
X43000Y38500D03*
Y43500D03*
Y48500D03*
Y53500D03*
X28000Y38500D03*
Y43500D03*
Y48500D03*
Y53500D03*
X43000Y58500D03*
Y63500D03*
Y68500D03*
Y73500D03*
X28000Y58500D03*
Y63500D03*
Y68500D03*
Y73500D03*
X43000Y78500D03*
Y83500D03*
Y88500D03*
Y93500D03*
X28000Y78500D03*
Y83500D03*
Y88500D03*
Y93500D03*
X43000Y98500D03*
Y103500D03*
Y108500D03*
Y113500D03*
Y118500D03*
X28000Y98500D03*
Y103500D03*
Y108500D03*
Y113500D03*
Y118500D03*
X43000Y123500D03*
Y128500D03*
Y133500D03*
Y138500D03*
X28000Y123500D03*
Y128500D03*
Y133500D03*
Y138500D03*
X43000Y143500D03*
Y148500D03*
Y153500D03*
Y158500D03*
X28000Y143500D03*
Y148500D03*
Y153500D03*
Y158500D03*
X43000Y163500D03*
Y168500D03*
Y173500D03*
Y178500D03*
Y183500D03*
X28000Y163500D03*
Y168500D03*
Y173500D03*
Y178500D03*
Y183500D03*
X43000Y188500D03*
Y193500D03*
Y198500D03*
Y203500D03*
X28000Y188500D03*
Y193500D03*
Y198500D03*
Y203500D03*
X43000Y208500D03*
Y213500D03*
Y218500D03*
Y223500D03*
X28000Y208500D03*
Y213500D03*
Y218500D03*
Y223500D03*
X43000Y228500D03*
Y233500D03*
X28000Y228500D03*
Y233500D03*
X48000Y38500D03*
Y43500D03*
Y48500D03*
Y53500D03*
Y58500D03*
Y63500D03*
Y68500D03*
Y73500D03*
Y78500D03*
Y83500D03*
Y88500D03*
Y93500D03*
Y98500D03*
Y103500D03*
Y108500D03*
Y113500D03*
Y118500D03*
Y123500D03*
Y128500D03*
Y133500D03*
Y138500D03*
Y143500D03*
Y148500D03*
Y153500D03*
Y158500D03*
Y163500D03*
Y168500D03*
Y173500D03*
Y178500D03*
Y183500D03*
Y188500D03*
Y193500D03*
Y198500D03*
Y203500D03*
Y208500D03*
Y213500D03*
Y218500D03*
Y223500D03*
Y228500D03*
Y233500D03*
G54D11*
X18500Y107772D03*
Y104228D03*
X86500Y220728D03*
Y224272D03*
Y240272D03*
Y236728D03*
X104500Y272772D03*
Y269228D03*
X99500Y272772D03*
Y269228D03*
X119000Y220728D03*
Y224272D03*
Y240272D03*
Y236728D03*
X117000Y272772D03*
Y269228D03*
X112000Y272772D03*
Y269228D03*
X279500Y52728D03*
Y56272D03*
X268500Y217772D03*
Y214228D03*
X263500Y217772D03*
Y214228D03*
X278000Y217772D03*
Y214228D03*
X273000Y217772D03*
Y214228D03*
X283500Y163228D03*
Y166772D03*
X301500Y217772D03*
Y214228D03*
X297000Y217772D03*
Y214228D03*
X292000Y217772D03*
Y214228D03*
X287500Y217772D03*
Y214228D03*
X282500Y217772D03*
Y214228D03*
X318000Y57272D03*
Y53728D03*
X315500Y137272D03*
Y133728D03*
X316500Y157728D03*
Y161272D03*
X320500Y202728D03*
Y217772D03*
Y214228D03*
X316000Y217772D03*
Y214228D03*
X311000Y217772D03*
Y214228D03*
X306500Y217772D03*
Y214228D03*
X320500Y206272D03*
X330000Y202728D03*
X335000Y217772D03*
Y214228D03*
X330000Y217772D03*
Y214228D03*
X325500Y217772D03*
Y214228D03*
X343000Y217772D03*
Y214228D03*
X330000Y206272D03*
X360500Y60272D03*
Y56728D03*
X367000Y217772D03*
Y214228D03*
X362000Y217772D03*
Y214228D03*
X357500Y217772D03*
Y214228D03*
X352500Y217772D03*
Y214228D03*
X348000Y217772D03*
Y214228D03*
X386000Y217772D03*
Y214228D03*
X381000Y217772D03*
Y214228D03*
X376500Y217772D03*
Y214228D03*
X371500Y217772D03*
Y214228D03*
X409500Y217772D03*
Y214228D03*
X405000Y217772D03*
Y214228D03*
X400000Y217772D03*
Y214228D03*
X395500Y217772D03*
Y214228D03*
X390500Y217772D03*
Y214228D03*
X421900Y49772D03*
Y46228D03*
X432500Y103772D03*
Y100228D03*
X422000Y217772D03*
Y214228D03*
X431500Y217772D03*
Y214228D03*
X427000Y217772D03*
Y214228D03*
X414500Y217772D03*
Y214228D03*
X450500Y217772D03*
Y214228D03*
X446000Y217772D03*
Y214228D03*
X441000Y217772D03*
Y214228D03*
X436500Y217772D03*
Y214228D03*
X474500Y217772D03*
Y214228D03*
X469500Y217772D03*
Y214228D03*
X465000Y217772D03*
Y214228D03*
X460000Y217772D03*
Y214228D03*
X455500Y217772D03*
Y214228D03*
X479500Y50728D03*
Y54272D03*
X484000Y217772D03*
Y214228D03*
X479000Y217772D03*
Y214228D03*
X493500Y217772D03*
Y214228D03*
X488500Y217772D03*
Y214228D03*
X694500Y347228D03*
Y350772D03*
Y366772D03*
Y363228D03*
X727000Y347228D03*
Y350772D03*
Y366772D03*
Y363228D03*
X818000Y345728D03*
Y349272D03*
Y365272D03*
Y361728D03*
X850500Y345728D03*
Y349272D03*
Y365272D03*
Y361728D03*
X965000Y75228D03*
Y78772D03*
X960000Y75228D03*
Y78772D03*
G54D20*
X99136Y84500D03*
X103864D03*
X99136Y164000D03*
X103864D03*
X147364Y66000D03*
X142636D03*
X147364Y60500D03*
X142636D03*
X147364Y55500D03*
X142636D03*
X147364Y135000D03*
X142636D03*
X147364Y145500D03*
X142636D03*
X147364Y140000D03*
X142636D03*
X192336Y24400D03*
X194336Y51400D03*
X192336Y73900D03*
X194336Y100900D03*
X192836Y133900D03*
X194836Y160900D03*
X197064Y24400D03*
X199064Y51400D03*
X197064Y73900D03*
X199064Y100900D03*
X197564Y133900D03*
X199564Y160900D03*
X222136Y186000D03*
X226864D03*
X251364Y46500D03*
X246636D03*
X266136D03*
X270864D03*
X261636Y125000D03*
X266364D03*
X277636Y157000D03*
X275864Y168000D03*
X271136D03*
X273136Y221500D03*
X277864D03*
X263636D03*
X268364D03*
X267136Y246500D03*
X271864D03*
X267136Y257500D03*
X271864D03*
X267136Y251500D03*
X271864D03*
X282364Y157000D03*
X292136Y221500D03*
X296864D03*
X282636D03*
X287364D03*
X301636D03*
X322636Y132500D03*
X316136Y143500D03*
X320864D03*
X318636Y168000D03*
X323364D03*
X320636Y221500D03*
X311136D03*
X315864D03*
X306364D03*
X324136Y246000D03*
Y250500D03*
Y255000D03*
X334864Y46500D03*
X330136D03*
X342136Y90500D03*
X327364Y132500D03*
X325136Y157000D03*
X329864D03*
X325364Y221500D03*
X330136D03*
X334864D03*
X343136D03*
X328864Y246000D03*
X346636Y246500D03*
X328864Y250500D03*
X346636Y251500D03*
X328864Y255000D03*
X346636Y257500D03*
X349636Y46500D03*
X354364D03*
X346864Y90500D03*
X352636Y221500D03*
X357364D03*
X347864D03*
X362136D03*
X366864D03*
X351364Y246500D03*
Y251500D03*
Y257500D03*
X371636Y221500D03*
X376364D03*
X381136D03*
X385864D03*
X404036Y66500D03*
X408764D03*
X400364Y94000D03*
X395636D03*
X403864Y172000D03*
X399136D03*
X400136Y221500D03*
X404864D03*
X390636D03*
X395364D03*
X409636D03*
X408364Y246000D03*
X403636D03*
X408364Y250500D03*
X403636D03*
X408364Y255000D03*
X403636D03*
X424764Y66500D03*
X420036D03*
X431636Y221500D03*
X422136D03*
X426864D03*
X414364D03*
X425636Y246500D03*
X430364D03*
X425636Y257500D03*
X430364D03*
X425636Y251500D03*
X430364D03*
X436364Y221500D03*
X441136D03*
X445864D03*
X450636D03*
X460136D03*
X464864D03*
X469636D03*
X474364D03*
X455364D03*
X484364Y63000D03*
X479636D03*
X481864Y82500D03*
X477136D03*
X488636Y221500D03*
X493364D03*
X479136D03*
X483864D03*
X487364Y246000D03*
X482636D03*
X487364Y255000D03*
X482636D03*
X487364Y250500D03*
X482636D03*
X964864Y71000D03*
X960136D03*
X970336Y307400D03*
X975064D03*
X977064Y334400D03*
X972336D03*
X977864Y370000D03*
X973136D03*
X981864Y399500D03*
X977136D03*
X1069936Y65500D03*
X1074664D03*
X1066664Y93300D03*
X1061936D03*
X1078336Y305900D03*
X1089664Y74500D03*
X1084936D03*
X1083064Y305900D03*
X1085064Y332900D03*
X1080336D03*
X1084864Y369500D03*
X1080136D03*
X1088864Y399000D03*
X1084136D03*
X1194664Y142000D03*
X1189936D03*
G54D30*
X123500Y67000D03*
Y146500D03*
G54D21*
X90900Y220736D03*
Y225464D03*
X118500Y44136D03*
Y48864D03*
X112000Y91136D03*
Y95864D03*
X118500Y123636D03*
Y128364D03*
X112000Y175364D03*
Y170636D03*
X114400Y220736D03*
Y225464D03*
X232500Y198136D03*
Y202864D03*
X231500Y230364D03*
Y225636D03*
X409000Y123636D03*
Y128364D03*
X419500Y95136D03*
Y99864D03*
X415500Y129136D03*
Y133864D03*
X430500Y176864D03*
Y172136D03*
X698900Y351964D03*
Y347236D03*
X722400Y351964D03*
Y347236D03*
X742500Y351636D03*
Y356364D03*
X766000Y351636D03*
Y356364D03*
X822400Y350464D03*
Y345736D03*
X845900Y350464D03*
Y345736D03*
X866000Y350136D03*
Y354864D03*
X889500Y350136D03*
Y354864D03*
X1195000Y63364D03*
Y58636D03*
X1200000Y63364D03*
Y58636D03*
G54D12*
X21782Y286491D03*
X18282D03*
X14782D03*
X11282D03*
X7782D03*
X4282D03*
X42782D03*
X39282D03*
X35782D03*
X32282D03*
X28782D03*
X25282D03*
X62250Y66750D03*
X66499Y62501D03*
X66500Y138600D03*
X62000Y143000D03*
X63782Y286491D03*
X60282D03*
X56782D03*
X53282D03*
X49782D03*
X46282D03*
X79000Y221000D03*
X80999Y219001D03*
X74000Y214000D03*
X77500D03*
X85999Y206500D03*
X80000D03*
X82500Y247000D03*
X85000D03*
X88282Y286491D03*
X84782D03*
X81282D03*
X77782D03*
X74282D03*
X70782D03*
X67282D03*
X106094Y202594D03*
X90937Y206500D03*
X99800Y240500D03*
X98437Y251937D03*
X109282Y286491D03*
X105782D03*
X102282D03*
X98782D03*
X95282D03*
X91782D03*
X129378Y194378D03*
X129000Y188500D03*
X115500Y203500D03*
X119500D03*
X130500Y214000D03*
X127000D03*
X126500Y221500D03*
X124501Y219501D03*
X123000Y247000D03*
X120000D03*
X130282Y286491D03*
X126782D03*
X123282D03*
X119782D03*
X116282D03*
X112782D03*
X138469Y104500D03*
X152000Y118028D03*
X148500D03*
X136000Y194378D03*
X135000Y188500D03*
X138000Y232500D03*
X151282Y286491D03*
X147782D03*
X144282D03*
X140782D03*
X137282D03*
X133782D03*
X164000Y36000D03*
X167500D03*
Y41000D03*
Y90500D03*
X164000Y85500D03*
X167500D03*
X171000Y132500D03*
X164500Y118000D03*
X168000Y139500D03*
Y145500D03*
Y150500D03*
X163500Y232500D03*
X172282Y286491D03*
X168782D03*
X165282D03*
X161782D03*
X158282D03*
X154782D03*
X177000Y158500D03*
X193282Y286491D03*
X189782D03*
X186282D03*
X182782D03*
X179282D03*
X175782D03*
X216000Y227300D03*
X215209Y238000D03*
X197500Y232500D03*
X217782Y286491D03*
X214282D03*
X210782D03*
X207282D03*
X203782D03*
X200282D03*
X196782D03*
X221500Y35000D03*
Y42000D03*
Y84500D03*
Y91500D03*
X230500Y108000D03*
X236000D03*
X222000Y144500D03*
Y151500D03*
X227728Y217500D03*
X227500Y214000D03*
X230500D03*
X221500Y220500D03*
X220500Y232500D03*
X238782Y286491D03*
X235282D03*
X231782D03*
X228282D03*
X224782D03*
X221282D03*
X249500Y51000D03*
X249000Y42250D03*
X256000Y46500D03*
X261000D03*
X241125Y107875D03*
X258500Y118500D03*
X254000D03*
X244000Y146500D03*
Y141000D03*
X258500Y151796D03*
Y154896D03*
X244000Y192109D03*
Y197000D03*
X246000Y208000D03*
Y220500D03*
X257272Y217500D03*
X257500Y214000D03*
X254500D03*
X240500Y206500D03*
X259782Y286491D03*
X256282D03*
X252782D03*
X249282D03*
X245782D03*
X242282D03*
X271000Y43000D03*
X266364Y104000D03*
X263000D03*
X266750Y121250D03*
X261636Y121000D03*
X268000Y139563D03*
X263500D03*
X280000Y139500D03*
X263500Y167937D03*
X268000D03*
X280000Y168000D03*
X280782Y286491D03*
X277282D03*
X273782D03*
X270282D03*
X266782D03*
X263282D03*
X286000Y157000D03*
Y150400D03*
X289119Y154763D03*
X301782Y286491D03*
X298282D03*
X294782D03*
X291282D03*
X287782D03*
X284282D03*
X286673Y274000D03*
X320000Y16000D03*
Y46500D03*
Y50500D03*
X318500Y132500D03*
X312000D03*
X319500Y157500D03*
X309500Y147500D03*
X315000Y168000D03*
X316000Y172000D03*
X309282Y245610D03*
X319500Y260500D03*
X309000Y253500D03*
X322782Y286491D03*
X319282D03*
X315782D03*
X312282D03*
X308782D03*
X305282D03*
X308327Y274500D03*
X340000Y46500D03*
X345000D03*
X330136Y42000D03*
X342136Y94500D03*
X345500D03*
X330200Y84700D03*
X330500Y132563D03*
X337747D03*
Y157063D03*
X333000Y157000D03*
X341000Y145000D03*
X343818Y144652D03*
X344932Y170068D03*
X345000Y173500D03*
X333000Y246000D03*
X339500Y257500D03*
X347282Y286491D03*
X343782D03*
X340282D03*
X336782D03*
X333282D03*
X329782D03*
X326282D03*
X330500Y274528D03*
X327000D03*
X343000Y274500D03*
X353864Y51000D03*
Y42636D03*
X353800Y84300D03*
X368282Y286491D03*
X364782D03*
X361282D03*
X357782D03*
X354282D03*
X350782D03*
X366173Y274000D03*
X373500Y18500D03*
X388782Y245610D03*
X388500Y253500D03*
X389282Y286491D03*
X385782D03*
X382282D03*
X378782D03*
X375282D03*
X371782D03*
X372500Y278000D03*
X379500D03*
X387827Y274500D03*
X407000Y36000D03*
X398400Y66500D03*
X394400Y59500D03*
X400364Y89364D03*
X395636Y103500D03*
X408900Y116800D03*
X407400Y133500D03*
X408900Y154600D03*
Y151500D03*
X399000Y260500D03*
X410282Y286491D03*
X406782D03*
X403282D03*
X399782D03*
X396282D03*
X392782D03*
X417000Y12500D03*
X425500Y33500D03*
X414500Y39000D03*
X414400Y66500D03*
Y61500D03*
Y56000D03*
X429500Y65000D03*
X420900Y82800D03*
X424400D03*
X428900Y76300D03*
X416000Y106000D03*
X417500Y115500D03*
X416000Y137500D03*
X424500Y134000D03*
X428000Y143500D03*
X416500Y169500D03*
X412500Y246000D03*
X419000Y257500D03*
X431282Y286491D03*
X427782D03*
X424282D03*
X420782D03*
X417282D03*
X413782D03*
X437100Y90000D03*
X434500Y134000D03*
X438000Y173500D03*
X452282Y286491D03*
X448782D03*
X445282D03*
X441782D03*
X438282D03*
X434782D03*
X451500Y278000D03*
X445173Y274000D03*
X467782Y245610D03*
X467500Y253500D03*
X476782Y286491D03*
X473282D03*
X469782D03*
X466282D03*
X462782D03*
X459282D03*
X455782D03*
X458500Y278000D03*
X466827Y274500D03*
X491500Y246000D03*
Y250500D03*
X491937Y264000D03*
X478000Y260500D03*
X497782Y286491D03*
X494282D03*
X490782D03*
X487282D03*
X483782D03*
X480282D03*
X516569Y10005D03*
Y6505D03*
Y3005D03*
Y31005D03*
Y27505D03*
Y24005D03*
Y20505D03*
Y17005D03*
Y13505D03*
Y52005D03*
Y48505D03*
Y45005D03*
Y38005D03*
Y34505D03*
Y41505D03*
Y73005D03*
Y69505D03*
Y66005D03*
Y62505D03*
Y59005D03*
Y55505D03*
Y94005D03*
Y90505D03*
Y87005D03*
Y83505D03*
Y80005D03*
Y76505D03*
Y115005D03*
Y111505D03*
Y108005D03*
Y104505D03*
Y101005D03*
Y97505D03*
Y136005D03*
Y132505D03*
Y129005D03*
Y125505D03*
Y122005D03*
Y118505D03*
Y160505D03*
Y157005D03*
Y153505D03*
Y150005D03*
Y146505D03*
Y143005D03*
Y139505D03*
Y181505D03*
Y178005D03*
Y174505D03*
Y171005D03*
Y167505D03*
Y164005D03*
Y202505D03*
Y199005D03*
Y195505D03*
Y192005D03*
Y188505D03*
Y185005D03*
Y223505D03*
Y220005D03*
Y216505D03*
Y213005D03*
Y209505D03*
Y206005D03*
Y244505D03*
Y241005D03*
Y237505D03*
Y234005D03*
Y230505D03*
Y227005D03*
Y265505D03*
Y262005D03*
Y258505D03*
Y255005D03*
Y251505D03*
Y248005D03*
X516500Y283000D03*
X516569Y279505D03*
Y276005D03*
Y272505D03*
Y269005D03*
X518782Y286491D03*
X515282D03*
X511782D03*
X508282D03*
X504782D03*
X501282D03*
X539782D03*
X536282D03*
X532782D03*
X529282D03*
X525782D03*
X522282D03*
X560782D03*
X557282D03*
X553782D03*
X550282D03*
X546782D03*
X543282D03*
X581000Y231000D03*
X580750Y240750D03*
X580500Y257000D03*
X584500Y261000D03*
X581782Y286491D03*
X578282D03*
X574782D03*
X571282D03*
X567782D03*
X564282D03*
X602782D03*
X599282D03*
X595782D03*
X592282D03*
X588782D03*
X585282D03*
X627282D03*
X623782D03*
X620282D03*
X616782D03*
X613282D03*
X609782D03*
X606282D03*
X644000Y4000D03*
X647500Y24000D03*
X641500Y169000D03*
X630750Y240750D03*
X631000Y231000D03*
X630500Y257000D03*
X634500Y261000D03*
X648282Y286491D03*
X644782D03*
X641282D03*
X637782D03*
X634282D03*
X630782D03*
X669282D03*
X665782D03*
X662282D03*
X658782D03*
X655282D03*
X651782D03*
X667632Y311595D03*
Y308095D03*
Y304595D03*
Y301095D03*
Y297595D03*
Y294095D03*
Y290595D03*
Y332595D03*
Y329095D03*
Y325595D03*
Y322095D03*
Y318595D03*
Y315095D03*
Y353595D03*
Y350095D03*
Y346595D03*
Y343095D03*
Y339595D03*
Y336095D03*
Y374595D03*
Y371095D03*
Y367595D03*
Y364095D03*
Y360595D03*
Y357095D03*
Y395595D03*
Y392095D03*
Y388595D03*
Y385095D03*
Y381595D03*
Y378095D03*
Y416595D03*
Y413095D03*
Y409595D03*
Y406095D03*
Y402595D03*
Y399095D03*
X681000Y231000D03*
X680750Y240750D03*
X680500Y257000D03*
X684500Y261000D03*
X690282Y286491D03*
X686782D03*
X683282D03*
X679782D03*
X676282D03*
X672782D03*
X686000Y340500D03*
X691063Y345937D03*
X690500Y373500D03*
X696000Y14250D03*
X708000Y32000D03*
X711500Y48500D03*
X696000Y108500D03*
X711282Y286491D03*
X707782D03*
X704282D03*
X700782D03*
X697282D03*
X693782D03*
X705500Y281500D03*
X714000Y340500D03*
X708000D03*
X704000D03*
X693000Y373500D03*
X706437Y380937D03*
X715500Y36500D03*
X716500Y180000D03*
Y214000D03*
X731000Y231000D03*
X730750Y240750D03*
X730500Y257000D03*
X734500Y261000D03*
X732282Y286491D03*
X728782D03*
X725282D03*
X721782D03*
X718282D03*
X714782D03*
X735000Y340500D03*
X730437Y345437D03*
X728000Y373500D03*
X731000D03*
X714563Y380937D03*
X749500Y40500D03*
X754000Y145000D03*
Y179000D03*
X756782Y286491D03*
X753282D03*
X749782D03*
X746282D03*
X742782D03*
X739282D03*
X735782D03*
X738728Y343500D03*
X738500Y340000D03*
X741500D03*
X754937Y345500D03*
X775400Y6600D03*
X778000Y30000D03*
X759000Y14250D03*
X766760Y32740D03*
X772000Y38500D03*
X767500Y67000D03*
X772000Y91000D03*
X778000Y97000D03*
X777782Y286491D03*
X774282D03*
X770782D03*
X767282D03*
X763782D03*
X760282D03*
X762228Y343500D03*
X762000Y340000D03*
X765000D03*
X778437Y346000D03*
Y334063D03*
X780000Y21000D03*
X788500Y49000D03*
X793000Y102000D03*
X785000Y139000D03*
X783500Y149500D03*
X793000Y163500D03*
X782500Y183000D03*
X798782Y286491D03*
X795282D03*
X791782D03*
X788282D03*
X784782D03*
X781282D03*
X815000Y73740D03*
X819782Y286491D03*
X816282D03*
X812782D03*
X809282D03*
X805782D03*
X802282D03*
X802132Y291595D03*
Y295095D03*
Y298595D03*
Y302095D03*
Y305595D03*
Y309095D03*
Y316095D03*
Y319595D03*
Y323095D03*
Y326595D03*
Y330095D03*
Y312595D03*
Y337095D03*
Y340595D03*
Y344095D03*
Y347595D03*
Y351095D03*
Y354595D03*
Y333595D03*
X809500Y339000D03*
X814563Y344437D03*
X802132Y358095D03*
Y361595D03*
Y365095D03*
Y368595D03*
Y372095D03*
Y375595D03*
X814000Y372000D03*
X816500D03*
X802132Y379095D03*
Y382595D03*
Y386095D03*
Y389595D03*
Y393095D03*
Y396595D03*
Y400095D03*
Y403595D03*
Y407095D03*
Y410595D03*
Y414095D03*
Y417595D03*
X839500Y84000D03*
X833500Y97000D03*
X837500Y102000D03*
X822453Y128453D03*
X840782Y286491D03*
X837282D03*
X833782D03*
X830282D03*
X826782D03*
X823282D03*
X831500Y339000D03*
X827500D03*
X837500D03*
X838063Y379437D03*
X829937D03*
X850000Y91000D03*
X844500Y122500D03*
X861782Y286491D03*
X858282D03*
X854782D03*
X851282D03*
X847782D03*
X844282D03*
X853937Y343937D03*
X858500Y339000D03*
X865000Y338500D03*
X862000D03*
X862228Y342000D03*
X854500Y372000D03*
X851500D03*
X886282Y286491D03*
X882782D03*
X879282D03*
X875782D03*
X872282D03*
X868782D03*
X865282D03*
X885500Y338500D03*
X885728Y342000D03*
X878437Y344000D03*
X907282Y286491D03*
X903782D03*
X900282D03*
X896782D03*
X893282D03*
X889782D03*
X901937Y332563D03*
X888500Y338500D03*
X901937Y344500D03*
X928282Y286491D03*
X924782D03*
X921282D03*
X917782D03*
X914282D03*
X910782D03*
X921132Y290595D03*
Y294095D03*
Y297595D03*
Y301095D03*
Y304595D03*
Y308095D03*
Y311595D03*
Y315095D03*
Y318595D03*
Y322095D03*
Y325595D03*
Y329095D03*
Y332595D03*
Y336095D03*
Y339595D03*
Y343095D03*
Y346595D03*
Y350095D03*
Y353595D03*
X924782Y356991D03*
X928282D03*
X921132Y357095D03*
Y360595D03*
Y364095D03*
Y367595D03*
Y371095D03*
Y374595D03*
Y378095D03*
Y381595D03*
Y385095D03*
Y388595D03*
Y392095D03*
Y395595D03*
Y399095D03*
Y402595D03*
Y406095D03*
Y409595D03*
Y413095D03*
Y416595D03*
X940228Y89772D03*
X947500Y93500D03*
X944500Y139000D03*
Y146000D03*
X949282Y286491D03*
X945782D03*
X942282D03*
X938782D03*
X935282D03*
X931782D03*
X945782Y356991D03*
X949282D03*
X931782D03*
X935282D03*
X938782D03*
X942282D03*
X963000Y93500D03*
X970282Y286491D03*
X966782D03*
X963282D03*
X959782D03*
X956282D03*
X952782D03*
X966782Y356991D03*
X970282D03*
X952782D03*
X956282D03*
X959782D03*
X963282D03*
X971200Y387100D03*
Y384000D03*
X991282Y286491D03*
X987782D03*
X984282D03*
X980782D03*
X977282D03*
X973782D03*
X978500Y313000D03*
X987782Y356991D03*
X991282D03*
X973782D03*
X977282D03*
X980782D03*
X984282D03*
X982500Y376300D03*
X986500Y377000D03*
X1015782Y286491D03*
X1012282D03*
X1008782D03*
X1005282D03*
X1001782D03*
X998282D03*
X994782D03*
X1008782Y356991D03*
X1012282D03*
X1015782D03*
X994782D03*
X998282D03*
X1001782D03*
X1005282D03*
X1018569Y2005D03*
Y5505D03*
Y9005D03*
Y12505D03*
Y16005D03*
Y19505D03*
Y23005D03*
Y26505D03*
Y30005D03*
Y33505D03*
Y37005D03*
Y40505D03*
Y44005D03*
Y47505D03*
Y51005D03*
Y54505D03*
Y58005D03*
Y61505D03*
Y65005D03*
Y68505D03*
Y72005D03*
Y75505D03*
Y79005D03*
Y82505D03*
Y86005D03*
Y89505D03*
Y93005D03*
Y117505D03*
Y96505D03*
Y100005D03*
Y103505D03*
Y107005D03*
Y110505D03*
Y114005D03*
Y138505D03*
Y121005D03*
Y124505D03*
Y128005D03*
Y131505D03*
Y135005D03*
Y142005D03*
Y145505D03*
Y149005D03*
Y152505D03*
Y156005D03*
Y159505D03*
Y163005D03*
Y166505D03*
Y170005D03*
Y173505D03*
Y177005D03*
Y180505D03*
Y184005D03*
Y187505D03*
Y191005D03*
Y194505D03*
Y198005D03*
Y201505D03*
Y205005D03*
Y208505D03*
Y212005D03*
Y215505D03*
Y219005D03*
Y222505D03*
X1029282Y211991D03*
X1032782D03*
X1036282D03*
X1022282D03*
X1025782D03*
X1018569Y247005D03*
Y226005D03*
Y229505D03*
Y233005D03*
Y236505D03*
Y240005D03*
Y243505D03*
X1022500Y234000D03*
X1018569Y268005D03*
Y250505D03*
Y254005D03*
Y257505D03*
Y261005D03*
Y264505D03*
Y271505D03*
Y275005D03*
Y278505D03*
X1018500Y282000D03*
X1036782Y286491D03*
X1033282D03*
X1029782D03*
X1026282D03*
X1022782D03*
X1019282D03*
X1026132Y290595D03*
Y294095D03*
Y297595D03*
Y301095D03*
Y304595D03*
Y308095D03*
Y311595D03*
Y315095D03*
Y318595D03*
Y322095D03*
Y325595D03*
Y329095D03*
Y332595D03*
Y336095D03*
Y339595D03*
Y343095D03*
Y346595D03*
Y350095D03*
Y353595D03*
X1033282Y356991D03*
X1036782D03*
X1019282D03*
X1022782D03*
X1029782D03*
X1026132Y357095D03*
Y360595D03*
Y364095D03*
Y367595D03*
Y371095D03*
Y374595D03*
Y378095D03*
Y381595D03*
Y385095D03*
Y388595D03*
Y392095D03*
Y395595D03*
Y399095D03*
Y402595D03*
Y406095D03*
Y409595D03*
Y413095D03*
Y416595D03*
X1058069Y222505D03*
Y219005D03*
X1043282Y211991D03*
X1046782D03*
X1050282D03*
X1053782D03*
X1057282D03*
X1039782D03*
X1058069Y243505D03*
Y240005D03*
Y236505D03*
Y233005D03*
Y229505D03*
Y226005D03*
Y247005D03*
X1038000Y244972D03*
X1058069Y264505D03*
Y261005D03*
Y257505D03*
Y254005D03*
Y250505D03*
Y268005D03*
X1058000Y282000D03*
X1058069Y278505D03*
Y275005D03*
Y271505D03*
X1057782Y286491D03*
X1054282D03*
X1050782D03*
X1047282D03*
X1043782D03*
X1040282D03*
X1054282Y356991D03*
X1057782D03*
X1040282D03*
X1043782D03*
X1047282D03*
X1050782D03*
X1065802Y65500D03*
X1066863Y77100D03*
X1066606Y80506D03*
X1069700Y80800D03*
X1070798Y93300D03*
X1064282Y211991D03*
X1067782D03*
X1071282D03*
X1074782D03*
X1078282D03*
X1060782D03*
X1077000Y244972D03*
X1061500Y234000D03*
X1078782Y286491D03*
X1075282D03*
X1071782D03*
X1068282D03*
X1064782D03*
X1061282D03*
X1075282Y356991D03*
X1078782D03*
X1061282D03*
X1064782D03*
X1068282D03*
X1071782D03*
X1078200Y383500D03*
Y386600D03*
X1093798Y74500D03*
X1097096Y68000D03*
X1100300D03*
X1097069Y222505D03*
Y219005D03*
X1085282Y211991D03*
X1088782D03*
X1092282D03*
X1095782D03*
X1099282D03*
X1081782D03*
X1097069Y243505D03*
Y240005D03*
Y236505D03*
Y233005D03*
Y229505D03*
Y226005D03*
Y247005D03*
Y264505D03*
Y261005D03*
Y257505D03*
Y254005D03*
Y250505D03*
Y268005D03*
X1097000Y282000D03*
X1097069Y278505D03*
Y275005D03*
Y271505D03*
X1099782Y286491D03*
X1096282D03*
X1092782D03*
X1089282D03*
X1085782D03*
X1082282D03*
X1086500Y311500D03*
X1096282Y356991D03*
X1099782D03*
X1082282D03*
X1085782D03*
X1089282D03*
X1092782D03*
X1093500Y376500D03*
X1089500Y375800D03*
X1106282Y211991D03*
X1109782D03*
X1113282D03*
X1116782D03*
X1120282D03*
X1123782D03*
X1102782D03*
X1117000Y231500D03*
X1116750Y241250D03*
X1120500Y261500D03*
X1116500Y257500D03*
X1120782Y286491D03*
X1117282D03*
X1113782D03*
X1110282D03*
X1106782D03*
X1103282D03*
X1117282Y356991D03*
X1120782D03*
X1103282D03*
X1106782D03*
X1110282D03*
X1113782D03*
X1135069Y222505D03*
Y219005D03*
X1127282Y211991D03*
X1130782D03*
X1134282D03*
X1137782D03*
X1141282D03*
X1144782D03*
X1135069Y243505D03*
Y240005D03*
Y236505D03*
Y233005D03*
Y229505D03*
Y226005D03*
Y247005D03*
Y264505D03*
Y261005D03*
Y257505D03*
Y254005D03*
Y250505D03*
Y268005D03*
X1135000Y282000D03*
X1135069Y278505D03*
Y275005D03*
Y271505D03*
X1145282Y286491D03*
X1141782D03*
X1138282D03*
X1134782D03*
X1131282D03*
X1127782D03*
X1124282D03*
X1131132Y290595D03*
Y294095D03*
Y297595D03*
Y301095D03*
Y304595D03*
Y308095D03*
Y311595D03*
Y315095D03*
Y318595D03*
Y322095D03*
Y325595D03*
Y329095D03*
Y332595D03*
Y336095D03*
Y339595D03*
Y343095D03*
Y346595D03*
Y350095D03*
Y353595D03*
X1124282Y356991D03*
X1127782D03*
X1131132Y357095D03*
Y360595D03*
Y364095D03*
Y367595D03*
Y371095D03*
Y374595D03*
Y378095D03*
Y381595D03*
Y385095D03*
Y388595D03*
Y392095D03*
Y395595D03*
Y399095D03*
Y402595D03*
Y406095D03*
Y409595D03*
Y413095D03*
Y416595D03*
X1151782Y211991D03*
X1155282D03*
X1158782D03*
X1162282D03*
X1165782D03*
X1148282D03*
X1154000Y231500D03*
X1153750Y241250D03*
X1157500Y261500D03*
X1153500Y257500D03*
X1166282Y286491D03*
X1162782D03*
X1159282D03*
X1155782D03*
X1152282D03*
X1148782D03*
X1172069Y222505D03*
Y219005D03*
X1172782Y211991D03*
X1176282D03*
X1179782D03*
X1183282D03*
X1186782D03*
X1169282D03*
X1172069Y243505D03*
Y240005D03*
Y236505D03*
Y233005D03*
Y229505D03*
Y226005D03*
Y247005D03*
Y264505D03*
Y261005D03*
Y257505D03*
Y254005D03*
Y250505D03*
Y268005D03*
X1172000Y282000D03*
X1172069Y278505D03*
Y275005D03*
Y271505D03*
X1187282Y286491D03*
X1183782D03*
X1180282D03*
X1176782D03*
X1173282D03*
X1169782D03*
X1197737Y129000D03*
X1198798Y142000D03*
X1198800Y145500D03*
X1193782Y211991D03*
X1197282D03*
X1200782D03*
X1204282D03*
X1207782D03*
X1190282D03*
X1191000Y231500D03*
X1190750Y241250D03*
X1194500Y261500D03*
X1190500Y257500D03*
X1208282Y286491D03*
X1204782D03*
X1201282D03*
X1197782D03*
X1194282D03*
X1190782D03*
X1210569Y222505D03*
Y219005D03*
X1214782Y211991D03*
X1218282D03*
X1221782D03*
X1225282D03*
X1228782D03*
X1211282D03*
X1210569Y243505D03*
Y240005D03*
Y236505D03*
Y233005D03*
Y229505D03*
Y226005D03*
Y247005D03*
X1229500Y231500D03*
X1229250Y241250D03*
X1210569Y264505D03*
Y261005D03*
Y257505D03*
Y254005D03*
Y250505D03*
Y268005D03*
X1229000Y257500D03*
X1210500Y282000D03*
X1210569Y278505D03*
Y275005D03*
Y271505D03*
X1229282Y286491D03*
X1225782D03*
X1222282D03*
X1218782D03*
X1215282D03*
X1211782D03*
X1235782Y211991D03*
X1239282D03*
X1242782D03*
X1246282D03*
X1232282D03*
X1233000Y261500D03*
X1243282Y286491D03*
X1239782D03*
X1236282D03*
X1232782D03*
G54D13*
X20000Y305000D03*
Y405000D03*
X43400Y12000D03*
Y260000D03*
X220700Y355200D03*
X325000Y116000D03*
X410300Y355000D03*
X501500Y11811D03*
Y116000D03*
Y273500D03*
X536000Y11811D03*
Y196189D03*
X605000Y116000D03*
X650000Y305000D03*
Y405000D03*
X815000Y11811D03*
Y196189D03*
X985000Y11811D03*
Y196189D03*
X1049800Y11811D03*
Y196189D03*
X1219800Y11811D03*
Y196189D03*
G54D40*
X268839Y107874D03*
X266280D03*
X263720D03*
X261161D03*
Y117126D03*
X263720D03*
X266280D03*
X268839D03*
X339661Y107626D03*
X342220D03*
X344780D03*
Y98374D03*
X342220D03*
X339661D03*
X347339Y107626D03*
Y98374D03*
G54D22*
X108700Y225300D03*
X106900D03*
X105200D03*
X103400D03*
X101600D03*
X99800D03*
X98100D03*
X96300D03*
Y236700D03*
X98100D03*
X99800D03*
X101600D03*
X103400D03*
X105200D03*
X106900D03*
X108700D03*
X194500Y33000D03*
X192500D03*
X190500D03*
Y44000D03*
X192500D03*
X194500D03*
Y82500D03*
X192500D03*
X190500D03*
Y93500D03*
X192500D03*
X194500D03*
X193000Y142500D03*
X191000D03*
Y153500D03*
X193000D03*
X196500Y33000D03*
Y44000D03*
Y82500D03*
Y93500D03*
X197000Y142500D03*
X195000D03*
Y153500D03*
X197000D03*
X245500Y230000D03*
X243500D03*
X241500D03*
X239500D03*
Y241000D03*
X241500D03*
X243500D03*
X245500D03*
X713200Y351800D03*
X711400D03*
X709600D03*
X707800D03*
X706100D03*
X704300D03*
Y363200D03*
X706100D03*
X707800D03*
X709600D03*
X711400D03*
X713200D03*
X716700Y351800D03*
X714900D03*
Y363200D03*
X716700D03*
X754500Y356000D03*
X752500D03*
X750500D03*
Y367000D03*
X752500D03*
X754500D03*
X756500Y356000D03*
Y367000D03*
X776000Y356000D03*
X774000D03*
Y367000D03*
X776000D03*
X780000Y356000D03*
X778000D03*
Y367000D03*
X780000D03*
X840200Y350300D03*
X838400D03*
X836700D03*
X834900D03*
X833100D03*
X831300D03*
X829600D03*
X827800D03*
Y361700D03*
X829600D03*
X831300D03*
X833100D03*
X834900D03*
X836700D03*
X838400D03*
X840200D03*
X880000Y354500D03*
X878000D03*
X876000D03*
X874000D03*
Y365500D03*
X876000D03*
X878000D03*
X880000D03*
X903500Y354500D03*
X901500D03*
X899500D03*
X897500D03*
Y365500D03*
X899500D03*
X901500D03*
X903500D03*
X970500Y316000D03*
X968500D03*
Y327000D03*
X970500D03*
X974500Y316000D03*
X972500D03*
Y327000D03*
X974500D03*
X1078500Y314500D03*
X1076500D03*
Y325500D03*
X1078500D03*
X1082500Y314500D03*
X1080500D03*
Y325500D03*
X1082500D03*
G54D31*
X144000Y219500D03*
X156000D03*
X216000Y220500D03*
X204000D03*
G54D32*
X144291Y232500D03*
X155709D03*
X215209D03*
X203791D03*
G54D23*
X106500Y207260D03*
Y214740D03*
X830000Y73740D03*
Y66260D03*
X840000Y73740D03*
Y66260D03*
X955000Y135260D03*
Y142740D03*
G54D41*
X271750Y152900D03*
X268000D03*
X264250D03*
Y163100D03*
X271750D03*
X334250Y137400D03*
X326750D03*
Y147600D03*
X330500D03*
X334250D03*
X336750Y161900D03*
X329250D03*
Y172100D03*
X333000D03*
X336750D03*
G54D50*
X482059Y69063D03*
X479500D03*
X476941D03*
Y76937D03*
X479500D03*
X482059D03*
G54D14*
X39000Y81000D03*
X38770Y105577D03*
X34000Y114500D03*
X33000Y189000D03*
X38500Y239000D03*
X34000Y230500D03*
X37000Y236000D03*
X59500Y22500D03*
X54000Y27000D03*
X66000Y27500D03*
X59676Y18500D03*
X60000Y14500D03*
X62049Y60451D03*
X52500Y96000D03*
X52220Y134280D03*
X58500Y120500D03*
X62000Y131500D03*
X53500Y147500D03*
X57500Y156000D03*
X53500Y193500D03*
X54000Y229000D03*
X57500Y234500D03*
X56000Y247500D03*
X65500Y271000D03*
X69000Y4500D03*
X71000Y11500D03*
X72500Y27500D03*
X71000Y64000D03*
X80610Y60110D03*
X67016Y66016D03*
X76079Y62079D03*
X86500Y74000D03*
X71350Y113150D03*
X80500Y104500D03*
X71000Y143547D03*
X80390Y148890D03*
Y139610D03*
X76079Y141579D03*
Y158921D03*
X83000Y178350D03*
X67016Y189016D03*
X82577Y201000D03*
X67500Y208500D03*
X83500Y232000D03*
X72000Y264000D03*
X69000Y267500D03*
X76000Y262000D03*
X106500Y66500D03*
X109579Y71921D03*
X90500Y77000D03*
X94500Y84500D03*
X109000Y77000D03*
X109579Y151421D03*
X90500Y156500D03*
X109000D03*
X94500Y164000D03*
X100000Y178350D03*
X92500Y203000D03*
X94500Y208500D03*
X97724Y229576D03*
X100724D03*
X103724D03*
X106724D03*
X97724Y232576D03*
X100724D03*
X103724D03*
X106724D03*
X93000Y237500D03*
X90000D03*
X99500Y277000D03*
X104500D03*
X125000Y18500D03*
X118500Y39000D03*
X112000Y35500D03*
X124500Y52500D03*
X118579Y53000D03*
X112000Y54000D03*
X119000Y71500D03*
Y62500D03*
X123500Y67000D03*
X128000Y71500D03*
Y62500D03*
X118579Y84000D03*
Y86600D03*
X113000Y76983D03*
X118500Y105500D03*
X112000Y115000D03*
Y99500D03*
X124000D03*
X130500D03*
X112500Y132596D03*
X118579Y132500D03*
X118500Y118500D03*
X125500D03*
X129000Y132500D03*
Y120000D03*
X110516Y147484D03*
X119000Y142000D03*
X123500Y146500D03*
X128000Y142000D03*
X119000Y151000D03*
X113000Y156483D03*
X128000Y151000D03*
X112000Y179000D03*
X118579Y166100D03*
Y163500D03*
X129000Y172000D03*
X122500Y194000D03*
X118500Y185000D03*
X114000Y237500D03*
X111228D03*
X117000Y277000D03*
X112000D03*
X136500Y13000D03*
X135500Y55500D03*
X151500Y60500D03*
X150437Y71937D03*
X151500Y55500D03*
X137500Y63000D03*
Y70500D03*
X138000Y66016D03*
X137750Y57250D03*
X134500Y135500D03*
X151500Y135000D03*
X138469Y135470D03*
X150437Y151437D03*
X151500Y140000D03*
X137500Y142500D03*
Y150000D03*
X138000Y145516D03*
X153500Y51000D03*
X167000Y73000D03*
X164272Y61728D03*
X161500Y60000D03*
X168500Y55500D03*
Y66500D03*
X167000Y78000D03*
X157500Y81000D03*
X157000Y84000D03*
X170000Y74500D03*
X153700Y103800D03*
X157000Y123500D03*
X153000Y154500D03*
X172500Y161500D03*
X153000Y168500D03*
Y161500D03*
X154500Y165500D03*
X158000Y166500D03*
X170685Y200000D03*
X167316D03*
X190500Y38500D03*
X195500Y38484D03*
X175547Y64700D03*
X186000Y62500D03*
X181000Y69000D03*
X193808Y87984D03*
X190500Y88000D03*
X177500Y99500D03*
X176500Y108801D03*
X176792Y120793D03*
X191000Y148000D03*
X195500Y204500D03*
X202300Y41500D03*
X202500Y46000D03*
X202300Y35500D03*
Y31500D03*
X202000Y81500D03*
X202300Y85000D03*
Y94500D03*
Y91000D03*
X197000Y88000D03*
X196500Y147984D03*
X202800Y140000D03*
Y145000D03*
Y151000D03*
Y154701D03*
X207228Y194228D03*
X215500Y191000D03*
X203000Y189000D03*
X221500Y11000D03*
X231500Y40500D03*
X235000Y31500D03*
X239000Y36000D03*
X228500Y55000D03*
X227773Y110183D03*
X235000Y123500D03*
X222000Y120000D03*
X226000D03*
X235000Y150000D03*
X236200Y162500D03*
X228500Y169000D03*
Y199000D03*
X227500Y190000D03*
X222000Y191000D03*
X237909Y195854D03*
X218432Y189526D03*
X219000Y198000D03*
X232750Y188750D03*
X234600Y206400D03*
X231500Y208500D03*
X219000Y204000D03*
X223500Y214500D03*
X237000Y204062D03*
X229559Y210971D03*
X227000Y208500D03*
X222500Y206997D03*
X232500Y239000D03*
X232594Y242406D03*
X235485Y242485D03*
X235100Y230000D03*
X223550Y261450D03*
X239500Y16500D03*
X253500Y25000D03*
X255500Y23000D03*
X257000Y16500D03*
X253500Y42500D03*
X252000Y69000D03*
X242000Y67887D03*
X242500Y59500D03*
X242000Y65000D03*
X260000Y74000D03*
X257000D03*
Y57500D03*
X258100Y62500D03*
X260000Y68000D03*
X257000Y67500D03*
X251500Y61500D03*
X253500Y65000D03*
X255401Y61496D03*
X251500Y74500D03*
X241500Y79500D03*
X251900Y82100D03*
X252000Y79500D03*
X243000Y83500D03*
X260000Y93000D03*
X259500Y82000D03*
X240500Y76300D03*
X255000Y93500D03*
X260000Y105000D03*
X253500Y109500D03*
X255500Y115700D03*
X256000Y121500D03*
X255000Y125700D03*
Y174500D03*
X247437Y166437D03*
X258500Y186500D03*
X240500Y195001D03*
X247437Y184063D03*
X240524Y220477D03*
X251500Y238000D03*
X252406Y242406D03*
X249500Y242000D03*
X249900Y230000D03*
X239500Y235500D03*
X245500D03*
X247000Y258500D03*
X240000Y253000D03*
X243500D03*
X265000Y14800D03*
X263500Y50500D03*
X268000Y51000D03*
X279000Y41500D03*
X263150Y73500D03*
X275000Y71800D03*
X280500Y60500D03*
X274894Y60759D03*
X265750Y74250D03*
X280000Y63500D03*
X266500Y56000D03*
X275500Y66700D03*
X265705Y69107D03*
X265000Y61000D03*
X274900Y82000D03*
X264000Y78000D03*
X282000Y81000D03*
Y93500D03*
X264500Y82000D03*
X261161Y113339D03*
X273000Y110000D03*
X270000Y113339D03*
X263505Y111997D03*
X263720Y134280D03*
X278500Y128500D03*
X270000Y120500D03*
X274500Y131000D03*
X274250Y125250D03*
X268000Y149500D03*
Y158000D03*
X260904Y157096D03*
X263898Y149300D03*
X280772Y196228D03*
X275272D03*
X278000Y203500D03*
X274500Y188500D03*
X275500Y211000D03*
X266000D03*
X278000Y224500D03*
X273000D03*
X268500D03*
X263500D03*
X268500Y204500D03*
X262500Y211500D03*
X271500Y211000D03*
X263000Y246500D03*
X276000Y246567D03*
X263500Y257500D03*
X263000Y251500D03*
X275500Y253000D03*
X281000Y268500D03*
X283437Y13063D03*
X286500Y48500D03*
X283437Y56937D03*
X289000Y53500D03*
X291500Y70000D03*
Y61500D03*
X293500Y65000D03*
X286500Y75000D03*
X288500Y79000D03*
X289126Y117126D03*
Y108626D03*
X289500Y172000D03*
X302315Y200000D03*
X301250Y184750D03*
X285000Y211000D03*
X294500D03*
X292000Y224500D03*
X282500D03*
X301500D03*
X287500D03*
X297000D03*
X286500Y245500D03*
X293500Y263000D03*
X299450D03*
X286500Y249547D03*
X286000Y255453D03*
X297500Y251000D03*
X291500Y277500D03*
X299500Y278000D03*
X297000Y275500D03*
X311000Y16500D03*
X322000Y53728D03*
X323000Y58500D03*
X308000Y68000D03*
X320500Y84000D03*
X305500Y76000D03*
X319500Y91000D03*
X315100Y74400D03*
Y88600D03*
X325000Y77000D03*
Y94000D03*
X307500Y79500D03*
X306500Y116000D03*
X308500Y97000D03*
X318000Y102000D03*
X314000Y96500D03*
Y107000D03*
X312500Y145000D03*
X312000Y158000D03*
X313500Y180000D03*
X312500Y174000D03*
X309500Y172000D03*
X320500Y199500D03*
X311815D03*
X319631Y183000D03*
X315184Y199500D03*
X323000Y183000D03*
X304000Y211000D03*
X313500D03*
X323000D03*
X306500Y224500D03*
X316000D03*
X320500D03*
X311000D03*
X320000Y245000D03*
X319500Y257000D03*
X320000Y251000D03*
X318588Y254000D03*
X304000Y282000D03*
X327500Y30500D03*
X330000Y50500D03*
X335336Y32500D03*
X346500Y74000D03*
X325500Y64500D03*
X345500Y56500D03*
X337500Y73000D03*
Y59000D03*
Y87000D03*
X345500Y81000D03*
X345000Y111500D03*
X330500Y139000D03*
X346500Y121000D03*
X345500Y125500D03*
X330500Y151000D03*
X338000Y145000D03*
X331030Y153648D03*
X333000Y175500D03*
X337500Y180000D03*
X341000D03*
X330000Y199500D03*
X343816Y201000D03*
X332500Y211000D03*
X345500D03*
X330000Y224500D03*
X335000D03*
X343000D03*
X325500D03*
X327500Y209500D03*
X337000D03*
X342500Y246500D03*
X333000Y250500D03*
X343000Y257500D03*
X342500Y251500D03*
X346827Y263327D03*
X365000Y25000D03*
X355500Y11000D03*
X362500Y10000D03*
X367000Y11000D03*
X347900Y53900D03*
X366000Y73500D03*
X358000Y72000D03*
X348000Y71100D03*
X349000Y67000D03*
X347963Y59272D03*
X362500Y83000D03*
X354500Y88000D03*
X352000Y98500D03*
X356316Y137500D03*
X354500Y130500D03*
X359685Y137500D03*
X351131Y130500D03*
X350500Y137000D03*
X347500Y128000D03*
X365316Y149000D03*
X355500Y161000D03*
X361000Y163500D03*
X349000Y175000D03*
X366185Y201000D03*
X362816D03*
X353316D03*
X347185D03*
X356685D03*
X364500Y211000D03*
X355000D03*
X362000Y224500D03*
X357500D03*
X367000D03*
X352500D03*
X348000D03*
X366000Y245500D03*
X355500Y246567D03*
X366000Y249547D03*
X365500Y255453D03*
X353000Y266000D03*
X355000Y253000D03*
X361000Y268500D03*
X369000Y21000D03*
Y38500D03*
X385185Y150000D03*
X368685Y149000D03*
X381816Y150000D03*
X387316Y164000D03*
X386816Y176500D03*
X371933Y200500D03*
X385185D03*
X375302D03*
X381816D03*
X374000Y211000D03*
X383500D03*
X371500Y224500D03*
X381000D03*
X386000D03*
X376500D03*
X373000Y263000D03*
X378950D03*
X384500Y282000D03*
X376000Y280000D03*
Y274500D03*
X399500Y3000D03*
X396000Y30500D03*
X392500Y33500D03*
X390500Y54000D03*
X403600Y117100D03*
X405400Y101300D03*
X409036Y104664D03*
X400685Y112500D03*
X397316D03*
X411616D03*
X403453Y148081D03*
X394302Y157000D03*
X390933D03*
X399000Y157500D03*
X407500Y172000D03*
X400000Y176000D03*
X390685Y164000D03*
X390185Y176500D03*
X406500Y163000D03*
X399500Y166000D03*
X406500D03*
X406000Y175500D03*
X404185Y199500D03*
X400816D03*
X394302Y201000D03*
X390933D03*
X397500Y185000D03*
X410315Y201500D03*
X393000Y211000D03*
X402500D03*
X409500Y224500D03*
X395500D03*
X400000D03*
X390500D03*
X405000D03*
X399500Y246000D03*
X399000Y257000D03*
X401500Y263500D03*
X400000Y251000D03*
X398500Y254000D03*
X427500Y22423D03*
Y25677D03*
X424500Y17823D03*
Y21077D03*
X414400Y48000D03*
X432500Y48816D03*
Y52185D03*
X427528Y116472D03*
X421500Y116500D03*
X414985Y112500D03*
X423500Y96000D03*
X423400Y99500D03*
X428250Y123250D03*
X428500Y127500D03*
X413500Y159500D03*
X423000Y159000D03*
X426515Y172985D03*
X427250Y177250D03*
X419500Y179500D03*
X414340Y179380D03*
X416500Y181000D03*
X426500Y170000D03*
X430000Y168500D03*
X418500Y203500D03*
X432315Y201000D03*
X422815D03*
X426184D03*
X417000Y189000D03*
X420000D03*
X421500Y182500D03*
X413684Y201500D03*
X424500Y211000D03*
X412000D03*
X427000Y224500D03*
X422000D03*
X431500D03*
X414500D03*
X421500Y246500D03*
X419000Y265000D03*
X422000Y257500D03*
X421500Y251500D03*
X412500Y250500D03*
X440500Y12000D03*
X433500Y46077D03*
Y42823D03*
X440500Y55500D03*
Y58869D03*
X439650Y106300D03*
X445500Y168000D03*
X437000Y187500D03*
X447026Y196891D03*
X451315Y200500D03*
X454684D03*
X446973Y199591D03*
X435684Y201000D03*
X453000Y211000D03*
X443500D03*
X434000D03*
X436500Y224500D03*
X441000D03*
X450500D03*
X446000D03*
X445000Y245500D03*
X434500Y246567D03*
X439000Y267500D03*
X452000Y263000D03*
X445000Y249547D03*
X444500Y255453D03*
X434000Y253000D03*
X470500Y3000D03*
X471000Y85500D03*
Y82000D03*
X475500Y93500D03*
X463000Y103500D03*
X471500Y109685D03*
X463000Y100131D03*
X471500Y106316D03*
X467500Y118500D03*
X456000Y166500D03*
X460815Y200000D03*
X470315Y201000D03*
X459000Y195500D03*
X464184Y200000D03*
X473684Y201000D03*
X467500Y188500D03*
X472000Y211000D03*
X462500D03*
X474500Y224500D03*
X469500D03*
X460000D03*
X465000D03*
X455500D03*
X457950Y263000D03*
X462000Y282000D03*
X455000Y280000D03*
Y274500D03*
X490500Y63000D03*
X488000D03*
X484937Y69063D03*
X479500Y73000D03*
X489000Y58500D03*
X476941Y79000D03*
Y86941D03*
X487500Y82500D03*
X485000D03*
X482000Y79500D03*
X481500Y129369D03*
X489315Y138000D03*
X481500Y126000D03*
X492684Y138000D03*
X479500Y136500D03*
X479815Y199500D03*
X489315Y201500D03*
X483184Y199500D03*
X492684Y201500D03*
X477000Y191500D03*
X491000Y211000D03*
X481500D03*
X479000Y224500D03*
X493500D03*
X484000D03*
X488500D03*
X478500Y246000D03*
X478000Y257000D03*
X479327Y263327D03*
X479000Y251000D03*
X477500Y254000D03*
X554047Y98047D03*
X548500Y110000D03*
X554047Y121047D03*
X571000Y136000D03*
X566000Y131050D03*
X596915Y9414D03*
X598824Y11324D03*
X600733Y13234D03*
Y52368D03*
X599615Y58500D03*
X596915Y63000D03*
X591000Y88000D03*
X590500Y80500D03*
X591500Y93364D03*
X605000Y153500D03*
X603500Y158500D03*
X596500Y171500D03*
X603500Y179500D03*
X599000Y192500D03*
X622500Y21000D03*
X622000Y144000D03*
X610500Y148500D03*
X615500Y163500D03*
X607500Y176500D03*
X612500Y174000D03*
X622000Y191500D03*
X610000Y182500D03*
X620500Y202315D03*
Y205684D03*
X629500Y22500D03*
X645000Y30000D03*
X636500Y24000D03*
X629131Y169000D03*
X632500D03*
X669000Y45816D03*
X662500Y37365D03*
X669000Y49185D03*
X662500Y40734D03*
X670000Y168284D03*
X657500Y182500D03*
X674185Y17000D03*
X670816D03*
X677000Y32315D03*
Y35684D03*
X687000Y75950D03*
X688000Y304000D03*
X709500Y191500D03*
X696500Y304000D03*
X710517Y355579D03*
X707017D03*
X710517Y359079D03*
X707017D03*
X713200Y369000D03*
X707800D03*
X700500Y364000D03*
X722500Y183000D03*
X725000Y198684D03*
Y195315D03*
X714017Y359079D03*
Y355579D03*
X720500Y363500D03*
X755685Y43500D03*
X746500Y45500D03*
X752316Y43500D03*
X743800Y45500D03*
X755685Y67500D03*
X752316D03*
X742101Y78304D03*
Y74935D03*
X744784Y105000D03*
X754784D03*
X748500D03*
X738500Y201316D03*
Y204685D03*
X741500Y212184D03*
Y208815D03*
X746100Y356000D03*
X745500Y367000D03*
Y369700D03*
X750500Y361500D03*
X753500D03*
X756500D03*
X759875Y59625D03*
X759784Y105000D03*
X775400Y123000D03*
Y135000D03*
X762646Y150354D03*
X760736Y152264D03*
X764000Y187500D03*
X761000Y189409D03*
X769600Y356000D03*
X762500Y364000D03*
X763406Y368406D03*
X769000Y369700D03*
Y367000D03*
X777000Y361500D03*
X774000D03*
X781000Y49500D03*
X780000Y302500D03*
X789500D03*
X786906Y368406D03*
X786000Y364000D03*
X780000Y361500D03*
X815500Y136500D03*
X807500Y128500D03*
X811500Y302500D03*
X820000D03*
X843000Y39000D03*
X840000Y60000D03*
X840500Y113500D03*
X830517Y354079D03*
X834017D03*
X837517D03*
Y357579D03*
X830517D03*
X834017D03*
X836700Y367500D03*
X824000Y362500D03*
X831300Y367500D03*
X860000Y73500D03*
X863535D03*
X847000Y94500D03*
X861750Y114750D03*
X854250Y107250D03*
X856750Y109750D03*
X859250Y112250D03*
X860000Y141000D03*
X844000Y362000D03*
X870605Y73500D03*
X867070D03*
X867500Y117000D03*
X874000Y146000D03*
X869600Y354500D03*
X869000Y368200D03*
Y365500D03*
X886000Y362500D03*
X874000Y360000D03*
X877000D03*
X880000D03*
X899500Y64035D03*
X894000Y68500D03*
X890000Y132500D03*
X903500Y301000D03*
X893100Y354500D03*
X892500Y368200D03*
Y365500D03*
X886906Y366906D03*
X900500Y360000D03*
X897500D03*
X903500D03*
X926000Y25000D03*
X928000Y66500D03*
X925000Y60500D03*
X910000Y140000D03*
X920000Y147000D03*
X913000Y301000D03*
X910406Y366906D03*
X909500Y362500D03*
X937000Y27000D03*
X940000Y68000D03*
X944500Y80000D03*
X930000Y82000D03*
X950000Y130500D03*
X929750Y123750D03*
X935000Y128000D03*
X955184Y75000D03*
X951815D03*
X960000Y143500D03*
X966000Y151000D03*
X968500Y321700D03*
X971500D03*
X993000Y76000D03*
X981500Y82500D03*
X975500Y76000D03*
X984869Y82500D03*
X979500Y317500D03*
X974500Y321700D03*
X1037000Y240000D03*
X1051000Y239500D03*
X1076000Y240000D03*
X1076500Y320200D03*
X1079500D03*
X1090000Y239500D03*
X1087500Y316000D03*
X1082500Y320200D03*
X1117300Y80500D03*
X1123300Y93000D03*
Y115000D03*
X1120450Y96150D03*
Y110850D03*
X1109300Y132500D03*
X1135000Y104000D03*
X1127500Y108000D03*
X1142000D03*
X1127500Y100000D03*
X1142000Y99500D03*
X1145300Y93000D03*
Y115000D03*
X1149150Y109850D03*
Y99650D03*
X1173453Y77047D03*
X1173500Y82953D03*
X1194300Y124000D03*
X1199800Y123000D03*
G54D42*
X280965Y241673D03*
Y243642D03*
Y245610D03*
Y247579D03*
Y249547D03*
Y251516D03*
Y253484D03*
Y255453D03*
Y257421D03*
Y259390D03*
Y261358D03*
Y263327D03*
X314035Y245610D03*
Y243642D03*
Y241673D03*
Y263327D03*
Y261358D03*
Y259390D03*
Y257421D03*
Y255453D03*
Y253484D03*
Y251516D03*
Y249547D03*
Y247579D03*
X360465Y241673D03*
Y243642D03*
Y245610D03*
Y247579D03*
Y249547D03*
Y251516D03*
Y253484D03*
Y255453D03*
Y257421D03*
Y259390D03*
Y261358D03*
Y263327D03*
X393535Y245610D03*
Y243642D03*
Y241673D03*
Y263327D03*
Y261358D03*
Y259390D03*
Y257421D03*
Y255453D03*
Y253484D03*
Y251516D03*
Y249547D03*
Y247579D03*
X439465Y241673D03*
Y243642D03*
Y245610D03*
Y247579D03*
Y249547D03*
Y251516D03*
Y253484D03*
Y255453D03*
Y257421D03*
Y259390D03*
Y261358D03*
Y263327D03*
X472535Y245610D03*
Y243642D03*
Y241673D03*
Y263327D03*
Y261358D03*
Y259390D03*
Y257421D03*
Y255453D03*
Y253484D03*
Y251516D03*
Y249547D03*
Y247579D03*
G54D24*
X89728Y241000D03*
X93272D03*
X123228Y203500D03*
X126772D03*
X114772Y241000D03*
X111228D03*
X146728Y158000D03*
X150272D03*
Y154500D03*
X146728D03*
Y172000D03*
X150272D03*
X146728Y165000D03*
X150272D03*
Y168500D03*
X146728D03*
X150272Y161500D03*
X146728D03*
X160728Y68000D03*
X164272D03*
Y71500D03*
X160728D03*
X164272Y64500D03*
X160728D03*
Y82000D03*
X164272D03*
X160728Y75000D03*
X164272D03*
Y78500D03*
X160728D03*
X181272Y125000D03*
X177728D03*
Y128500D03*
X181272D03*
X180272Y166500D03*
X176728D03*
Y163000D03*
X180272D03*
X227728Y221000D03*
X231272D03*
X236728Y247000D03*
X243772Y224500D03*
X240228D03*
X240272Y247000D03*
X241228Y256500D03*
X244772D03*
X277228Y153000D03*
X280772D03*
X276228Y163500D03*
X279772D03*
X322272Y137000D03*
X318728D03*
X321272Y147500D03*
X317728D03*
X323772Y172000D03*
X320228D03*
X324772Y161500D03*
X321228D03*
X401728Y179000D03*
X405272D03*
X475728Y58500D03*
X479272D03*
X486272D03*
X482728D03*
X570228Y236500D03*
X573772D03*
X600772Y158500D03*
X597228D03*
X600772Y153500D03*
X597228D03*
X600772Y148500D03*
X597228D03*
X600772Y143500D03*
X597228D03*
X600772Y163500D03*
X597228D03*
X591228Y236500D03*
X594772D03*
X620228D03*
X623772D03*
X641228D03*
X644772D03*
X670228D03*
X673772D03*
X691228D03*
X694772D03*
X698228Y367000D03*
X701772D03*
X720228Y236500D03*
X723772D03*
X722272Y367000D03*
X718728D03*
X741228Y236500D03*
X744772D03*
X754772Y350500D03*
X751228D03*
X738728Y347000D03*
X742272D03*
X747728Y373000D03*
X751272D03*
X752228Y378000D03*
X755772D03*
X774728Y350500D03*
X762228Y347000D03*
X765772D03*
X771228Y373000D03*
X774772D03*
X775728Y378000D03*
X778272Y350500D03*
X779272Y378000D03*
X842228Y365500D03*
X821728D03*
X825272D03*
X862228Y345500D03*
X845772Y365500D03*
X878272Y349000D03*
X874728D03*
X865772Y345500D03*
X871228Y371500D03*
X874772D03*
X875728Y376500D03*
X879272D03*
X901772Y349000D03*
X898228D03*
X885728Y345500D03*
X889272D03*
X894728Y371500D03*
X898272D03*
X899228Y376500D03*
X902772D03*
X940228Y93500D03*
X943772D03*
X960728Y66500D03*
X964272D03*
X951228Y93500D03*
X954772D03*
X1029772Y236000D03*
X1026228D03*
X1025228Y266500D03*
X1028772D03*
X1047728Y235500D03*
X1051272D03*
X1068772Y236000D03*
X1065228D03*
X1064228Y266500D03*
X1067772D03*
X1086728Y235500D03*
X1090272D03*
X1106228Y237000D03*
X1109772D03*
X1127228D03*
X1130772D03*
X1143228D03*
X1146772D03*
X1164228D03*
X1180228D03*
X1183772D03*
X1167772D03*
X1201228D03*
X1204772D03*
X1218728D03*
X1222272D03*
X1239728D03*
X1243272D03*
G54D51*
X573740Y241472D03*
X566260D03*
X570000Y250528D03*
X594740Y241972D03*
X587260D03*
X591000Y251028D03*
X623740Y241472D03*
X616260D03*
X620000Y250528D03*
X644740Y241972D03*
X637260D03*
X641000Y251028D03*
X666260Y241472D03*
X670000Y250528D03*
X687260Y241972D03*
X673740Y241472D03*
X691000Y251028D03*
X694740Y241972D03*
X723740Y241472D03*
X716260D03*
X720000Y250528D03*
X744740Y241972D03*
X737260D03*
X741000Y251028D03*
X1033240Y244972D03*
X1025760D03*
X1029500Y254028D03*
X1050740Y244972D03*
X1043260D03*
X1047000Y254028D03*
X1072240Y244972D03*
X1064760D03*
X1068500Y254028D03*
X1089740Y244972D03*
X1082260D03*
X1086000Y254028D03*
X1109740Y241972D03*
X1102260D03*
X1106000Y251028D03*
X1139260Y241972D03*
X1130740Y242472D03*
X1123260D03*
X1143000Y251028D03*
X1127000Y251528D03*
X1160260Y242472D03*
X1146740Y241972D03*
X1164000Y251528D03*
X1167740Y242472D03*
X1183740Y241972D03*
X1176260D03*
X1180000Y251028D03*
X1204740Y242472D03*
X1197260D03*
X1201000Y251528D03*
X1222240Y241972D03*
X1214760D03*
X1218500Y251028D03*
X1243240Y242472D03*
X1235760D03*
X1239500Y251528D03*
G54D33*
X174594Y34000D03*
Y83500D03*
X181406Y34000D03*
Y83500D03*
X175094Y143500D03*
X181906D03*
X214406Y42500D03*
X207594D03*
X214406Y92000D03*
X207594D03*
X214906Y152000D03*
X208094D03*
X252406Y247000D03*
X245594D03*
X584594Y231000D03*
X577406D03*
X570594D03*
X591406D03*
X627406D03*
X620594D03*
X634594D03*
X641406D03*
X670594D03*
X677406D03*
X684594D03*
X691406D03*
X727406D03*
X720594D03*
X734594D03*
X741406D03*
X756594Y373000D03*
X763406D03*
X786906D03*
X780094D03*
X880094Y371500D03*
X903594D03*
X886906D03*
X910406D03*
X992906Y325000D03*
X986094D03*
X993406Y389500D03*
X986594D03*
X1036094Y236000D03*
X1031906Y261500D03*
X1025094D03*
X1042906Y236000D03*
X1046906Y261500D03*
X1040094D03*
X1075094Y236000D03*
X1070906Y261500D03*
X1064094D03*
X1079094D03*
X1081906Y236000D03*
X1085906Y261500D03*
X1100906Y323500D03*
X1094094D03*
X1100406Y389000D03*
X1093594D03*
X1120594Y231500D03*
X1113406D03*
X1106594D03*
X1143594D03*
X1127406D03*
X1157594D03*
X1164406D03*
X1150406D03*
X1187406D03*
X1180594D03*
X1194594D03*
X1201406D03*
X1225906D03*
X1219094D03*
X1233094D03*
X1239906D03*
G54D60*
X1127400Y93000D03*
X1125750D03*
X1134000D03*
X1133000D03*
X1132050D03*
X1131100D03*
X1136900D03*
X1135900D03*
X1134900D03*
X1140750D03*
X1139750D03*
X1138850D03*
X1137850D03*
X1143650D03*
X1142650D03*
X1141700D03*
X1124800D03*
X1125200Y115000D03*
X1126350D03*
X1127400D03*
X1129700D03*
X1130650D03*
X1131650D03*
X1132600D03*
X1133500D03*
X1134500D03*
X1135500D03*
X1136500D03*
X1137450D03*
X1138400D03*
X1139400D03*
X1140450D03*
X1141350D03*
X1143300D03*
X1142300D03*
G54D15*
X27000Y372500D03*
X27500Y385000D03*
X88500Y44500D03*
X85500Y168000D03*
X107000Y103000D03*
X236500Y271000D03*
X221500D03*
X255000Y254500D03*
X263500Y275000D03*
X277000D03*
X337000Y22000D03*
X489500Y40000D03*
X495500Y89000D03*
Y78500D03*
Y99500D03*
X482500Y278000D03*
X502500Y52500D03*
Y39500D03*
Y64000D03*
X507500Y89000D03*
X502500Y140000D03*
Y168000D03*
X503000Y182000D03*
X502500Y197500D03*
Y211000D03*
X500500Y238000D03*
X714000Y320500D03*
Y403000D03*
X724000Y310500D03*
X734000D03*
X724000Y320500D03*
X734000D03*
X724000Y393000D03*
X734000D03*
X724000Y403000D03*
X734000D03*
X744000Y310500D03*
X754000D03*
X744000Y320500D03*
X754000D03*
X744000Y393000D03*
X754000D03*
X744000Y403000D03*
X754000D03*
X764000Y310500D03*
Y320500D03*
Y393000D03*
Y403000D03*
X840000Y265000D03*
X837500Y319000D03*
Y401500D03*
X856500Y265000D03*
X847500Y309000D03*
X857500D03*
X847500Y319000D03*
X857500D03*
X847500Y391500D03*
X857500D03*
X847500Y401500D03*
X857500D03*
X867500Y309000D03*
X877500D03*
X887500D03*
X867500Y319000D03*
X877500D03*
X887500D03*
X867500Y391500D03*
X877500D03*
X887500D03*
X867500Y401500D03*
X877500D03*
X887500D03*
X932000Y306000D03*
X942000D03*
X932000Y326000D03*
X942000D03*
X932000Y316000D03*
X942000D03*
Y336000D03*
X934000Y370500D03*
X944000D03*
X934000Y390500D03*
X944000D03*
X934000Y380500D03*
X944000D03*
Y400500D03*
X1040000Y304500D03*
X1050000D03*
Y334500D03*
X1040000Y324500D03*
X1050000D03*
X1040000Y314500D03*
X1050000D03*
X1041000Y370000D03*
X1051000D03*
X1041000Y390000D03*
X1051000D03*
X1041000Y380000D03*
X1051000D03*
Y400000D03*
G54D43*
X302421Y235965D03*
X300453D03*
X298484D03*
X296516D03*
X294547D03*
X292579D03*
X290610D03*
X288642D03*
X286673D03*
Y269035D03*
X288642D03*
X290610D03*
X292579D03*
X294547D03*
X296516D03*
X298484D03*
X300453D03*
X302421D03*
X308327Y235965D03*
X306358D03*
X304390D03*
Y269035D03*
X306358D03*
X308327D03*
X366173Y235965D03*
Y269035D03*
X387827Y235965D03*
X385858D03*
X383890D03*
X381921D03*
X379953D03*
X377984D03*
X376016D03*
X374047D03*
X372079D03*
X370110D03*
X368142D03*
Y269035D03*
X370110D03*
X372079D03*
X374047D03*
X376016D03*
X377984D03*
X379953D03*
X381921D03*
X383890D03*
X385858D03*
X387827D03*
X453047Y235965D03*
X451079D03*
X449110D03*
X447142D03*
X445173D03*
Y269035D03*
X447142D03*
X449110D03*
X451079D03*
X453047D03*
X466827Y235965D03*
X464858D03*
X462890D03*
X460921D03*
X458953D03*
X456984D03*
X455016D03*
Y269035D03*
X456984D03*
X458953D03*
X460921D03*
X462890D03*
X464858D03*
X466827D03*
G54D52*
X570000Y257094D03*
Y263906D03*
X591000Y257094D03*
Y263906D03*
X620000Y257094D03*
Y263906D03*
X641000Y257094D03*
Y263906D03*
X670000Y257094D03*
Y263906D03*
X691000Y257094D03*
Y263906D03*
X720000Y257094D03*
Y263906D03*
X741000Y257094D03*
Y263906D03*
X1106000Y257594D03*
Y264406D03*
X1143000Y257594D03*
Y264406D03*
X1127000Y257594D03*
Y264406D03*
X1164000Y257594D03*
Y264406D03*
X1180000Y257594D03*
Y264406D03*
X1201000Y257594D03*
Y264406D03*
X1218500Y257594D03*
Y264406D03*
X1239500Y257594D03*
Y264406D03*
G54D61*
X1144050Y87250D03*
X1143050D03*
X1142050D03*
X1141050D03*
X1140050D03*
X1139050D03*
X1138050D03*
X1137050D03*
X1136050D03*
X1135050D03*
X1134050D03*
X1133050D03*
X1132050D03*
X1131050D03*
X1130050D03*
X1129050D03*
X1128050D03*
X1127050D03*
X1126050D03*
X1125050D03*
Y120750D03*
X1126050D03*
X1127050D03*
X1128050D03*
X1129050D03*
X1130050D03*
X1131050D03*
X1132050D03*
X1133050D03*
X1134050D03*
X1135050D03*
X1136050D03*
X1137050D03*
X1138050D03*
X1139050D03*
X1140050D03*
X1141050D03*
X1142050D03*
X1143050D03*
X1144050D03*
X1145050Y87250D03*
G54D34*
X173094Y247500D03*
X161283D03*
X196717D03*
X184906D03*
G54D16*
X65000Y330500D03*
Y325500D03*
Y385500D03*
Y380500D03*
X85000Y330500D03*
Y325500D03*
X80000Y330500D03*
Y325500D03*
X75000Y330500D03*
Y325500D03*
X70000Y330500D03*
Y325500D03*
X85000Y385500D03*
Y380500D03*
X80000Y385500D03*
Y380500D03*
X75000Y385500D03*
Y380500D03*
X70000Y385500D03*
Y380500D03*
X110000Y330500D03*
Y325500D03*
X105000Y330500D03*
Y325500D03*
X100000Y330500D03*
Y325500D03*
X95000Y330500D03*
Y325500D03*
X90000Y330500D03*
Y325500D03*
X110000Y385500D03*
Y380500D03*
X105000Y385500D03*
Y380500D03*
X100000Y385500D03*
Y380500D03*
X95000Y385500D03*
Y380500D03*
X90000Y385500D03*
Y380500D03*
X130000Y330500D03*
Y325500D03*
X125000Y330500D03*
Y325500D03*
X120000Y330500D03*
Y325500D03*
X115000Y330500D03*
Y325500D03*
X130000Y385500D03*
Y380500D03*
X125000Y385500D03*
Y380500D03*
X120000Y385500D03*
Y380500D03*
X115000Y385500D03*
Y380500D03*
X150000Y330500D03*
Y325500D03*
X145000Y330500D03*
Y325500D03*
X140000Y330500D03*
Y325500D03*
X135000Y330500D03*
Y325500D03*
X150000Y385500D03*
Y380500D03*
X145000Y385500D03*
Y380500D03*
X140000Y385500D03*
Y380500D03*
X135000Y385500D03*
Y380500D03*
X175000Y330500D03*
Y325500D03*
X170000Y330500D03*
Y325500D03*
X165000Y330500D03*
Y325500D03*
X160000Y330500D03*
Y325500D03*
X155000Y330500D03*
Y325500D03*
X175000Y385500D03*
Y380500D03*
X170000Y385500D03*
Y380500D03*
X165000Y385500D03*
Y380500D03*
X160000Y385500D03*
Y380500D03*
X155000Y385500D03*
Y380500D03*
X185000Y330500D03*
Y325500D03*
X180000Y330500D03*
Y325500D03*
X185000Y385500D03*
Y380500D03*
X180000Y385500D03*
Y380500D03*
X260000Y330500D03*
Y325500D03*
X255000Y330500D03*
Y325500D03*
X260000Y385500D03*
Y380500D03*
X255000Y385500D03*
Y380500D03*
X280000Y330500D03*
Y325500D03*
X275000Y330500D03*
Y325500D03*
X270000Y330500D03*
Y325500D03*
X265000Y330500D03*
Y325500D03*
X280000Y385500D03*
Y380500D03*
X275000Y385500D03*
Y380500D03*
X270000Y385500D03*
Y380500D03*
X265000Y385500D03*
Y380500D03*
X302500Y43500D03*
X297500D03*
X302500Y48500D03*
X297500D03*
X302500Y53500D03*
X297500D03*
X302500Y58500D03*
X297500D03*
X302500Y63500D03*
X297500D03*
X302500Y68500D03*
X297500D03*
X302500Y73500D03*
X297500D03*
X302500Y78500D03*
X297500D03*
X302500Y83500D03*
X297500D03*
X302500Y88500D03*
X297500D03*
X302500Y93500D03*
X297500D03*
X302500Y98500D03*
X297500D03*
X302500Y103500D03*
X297500D03*
X302500Y108500D03*
X297500D03*
X302500Y113500D03*
X297500D03*
X302500Y118500D03*
X297500D03*
X302500Y123500D03*
X297500D03*
X302500Y128500D03*
X297500D03*
X302500Y133500D03*
X297500D03*
X302500Y138500D03*
X297500D03*
X302500Y143500D03*
X297500D03*
X302500Y148500D03*
X297500D03*
X302500Y153500D03*
X297500D03*
X302500Y158500D03*
X297500D03*
X302500Y163500D03*
X297500D03*
X300000Y330500D03*
Y325500D03*
X295000Y330500D03*
Y325500D03*
X290000Y330500D03*
Y325500D03*
X285000Y330500D03*
Y325500D03*
X300000Y385500D03*
Y380500D03*
X295000Y385500D03*
Y380500D03*
X290000Y385500D03*
Y380500D03*
X285000Y385500D03*
Y380500D03*
X325000Y330500D03*
Y325500D03*
X320000Y330500D03*
Y325500D03*
X315000Y330500D03*
Y325500D03*
X310000Y330500D03*
Y325500D03*
X305000Y330500D03*
Y325500D03*
X325000Y385500D03*
Y380500D03*
X320000Y385500D03*
Y380500D03*
X315000Y385500D03*
Y380500D03*
X310000Y385500D03*
Y380500D03*
X305000Y385500D03*
Y380500D03*
X345000Y330500D03*
Y325500D03*
X340000Y330500D03*
Y325500D03*
X335000Y330500D03*
Y325500D03*
X330000Y330500D03*
Y325500D03*
X345000Y385500D03*
Y380500D03*
X340000Y385500D03*
Y380500D03*
X335000Y385500D03*
Y380500D03*
X330000Y385500D03*
Y380500D03*
X365000Y330500D03*
Y325500D03*
X360000Y330500D03*
Y325500D03*
X355000Y330500D03*
Y325500D03*
X350000Y330500D03*
Y325500D03*
X365000Y385500D03*
Y380500D03*
X360000Y385500D03*
Y380500D03*
X355000Y385500D03*
Y380500D03*
X350000Y385500D03*
Y380500D03*
X377500Y43500D03*
X372500D03*
X377500Y48500D03*
X372500D03*
X377500Y53500D03*
X372500D03*
X377500Y58500D03*
X372500D03*
X377500Y63500D03*
X372500D03*
X377500Y68500D03*
X372500D03*
X377500Y73500D03*
X372500D03*
X377500Y78500D03*
X372500D03*
X377500Y83500D03*
X372500D03*
X377500Y88500D03*
X372500D03*
X377500Y93500D03*
X372500D03*
X377500Y98500D03*
X372500D03*
X377500Y103500D03*
X372500D03*
X377500Y108500D03*
X372500D03*
X377500Y113500D03*
X372500D03*
X377500Y118500D03*
X372500D03*
X377500Y123500D03*
X372500D03*
X377500Y128500D03*
X372500D03*
X377500Y133500D03*
X372500D03*
X377500Y138500D03*
X372500D03*
X377500Y143500D03*
X372500D03*
X377500Y148500D03*
X372500D03*
X377500Y153500D03*
X372500D03*
X377500Y158500D03*
X372500D03*
X377500Y163500D03*
X372500D03*
X375000Y330500D03*
Y325500D03*
X370000Y330500D03*
Y325500D03*
X375000Y385500D03*
Y380500D03*
X370000Y385500D03*
Y380500D03*
X407000Y88000D03*
X423000Y105500D03*
X452500Y43500D03*
X447500D03*
X452500Y48500D03*
X447500D03*
X452500Y53500D03*
X447500D03*
X452500Y58500D03*
X447500D03*
X452500Y63500D03*
X447500D03*
X452500Y68500D03*
X447500D03*
X452500Y73500D03*
X447500D03*
X452500Y78500D03*
X447500D03*
X452500Y83500D03*
X447500D03*
X452500Y88500D03*
X447500D03*
X452500Y93500D03*
X447500D03*
X452500Y98500D03*
X447500D03*
X452500Y103500D03*
X447500D03*
X452500Y108500D03*
X447500D03*
X452500Y113500D03*
X447500D03*
X452500Y118500D03*
X447500D03*
X452500Y123500D03*
X447500D03*
X452500Y128500D03*
X447500D03*
X452500Y133500D03*
X447500D03*
X452500Y138500D03*
X447500D03*
X452500Y143500D03*
X447500D03*
X452500Y148500D03*
X447500D03*
X452500Y153500D03*
X447500D03*
X452500Y158500D03*
X447500D03*
X452500Y163500D03*
X447500D03*
X455000Y330500D03*
Y325500D03*
X450000Y330500D03*
Y325500D03*
X445000Y330500D03*
Y325500D03*
X455000Y385500D03*
Y380500D03*
X450000Y385500D03*
Y380500D03*
X445000Y385500D03*
Y380500D03*
X475000Y330500D03*
Y325500D03*
X470000Y330500D03*
Y325500D03*
X465000Y330500D03*
Y325500D03*
X460000Y330500D03*
Y325500D03*
X475000Y385500D03*
Y380500D03*
X470000Y385500D03*
Y380500D03*
X465000Y385500D03*
Y380500D03*
X460000Y385500D03*
Y380500D03*
X495000Y330500D03*
Y325500D03*
X490000Y330500D03*
Y325500D03*
X485000Y330500D03*
Y325500D03*
X480000Y330500D03*
Y325500D03*
X495000Y385500D03*
Y380500D03*
X490000Y385500D03*
Y380500D03*
X485000Y385500D03*
Y380500D03*
X480000Y385500D03*
Y380500D03*
X520000Y330500D03*
Y325500D03*
X515000Y330500D03*
Y325500D03*
X510000Y330500D03*
Y325500D03*
X505000Y330500D03*
Y325500D03*
X500000Y330500D03*
Y325500D03*
X520000Y385500D03*
Y380500D03*
X515000Y385500D03*
Y380500D03*
X510000Y385500D03*
Y380500D03*
X505000Y385500D03*
Y380500D03*
X500000Y385500D03*
Y380500D03*
X540000Y330500D03*
Y325500D03*
X535000Y330500D03*
Y325500D03*
X530000Y330500D03*
Y325500D03*
X525000Y330500D03*
Y325500D03*
X540000Y385500D03*
Y380500D03*
X535000Y385500D03*
Y380500D03*
X530000Y385500D03*
Y380500D03*
X525000Y385500D03*
Y380500D03*
X560000Y330500D03*
Y325500D03*
X555000Y330500D03*
Y325500D03*
X550000Y330500D03*
Y325500D03*
X545000Y330500D03*
Y325500D03*
X560000Y385500D03*
Y380500D03*
X555000Y385500D03*
Y380500D03*
X550000Y385500D03*
Y380500D03*
X545000Y385500D03*
Y380500D03*
X582500Y43500D03*
X577500D03*
X582500Y48500D03*
X577500D03*
X582500Y53500D03*
X577500D03*
X582500Y58500D03*
X577500D03*
X582500Y63500D03*
X577500D03*
X582500Y68500D03*
X577500D03*
X582500Y73500D03*
X577500D03*
X582500Y78500D03*
X577500D03*
X582500Y83500D03*
X577500D03*
X582500Y88500D03*
X577500D03*
X582500Y93500D03*
X577500D03*
X582500Y98500D03*
X577500D03*
X582500Y103500D03*
X577500D03*
X582500Y108500D03*
X577500D03*
X582500Y113500D03*
X577500D03*
X582500Y118500D03*
X577500D03*
X582500Y123500D03*
X577500D03*
X582500Y128500D03*
X577500D03*
X582500Y133500D03*
X577500D03*
X582500Y138500D03*
X577500D03*
X582500Y143500D03*
X577500D03*
X582500Y148500D03*
X577500D03*
X582500Y153500D03*
X577500D03*
X582500Y158500D03*
X577500D03*
X582500Y163500D03*
X577500D03*
X565000Y330500D03*
Y325500D03*
Y385500D03*
Y380500D03*
X657500Y43500D03*
X652500D03*
X657500Y48500D03*
X652500D03*
X657500Y53500D03*
X652500D03*
X657500Y58500D03*
X652500D03*
X657500Y63500D03*
X652500D03*
X657500Y68500D03*
X652500D03*
X657500Y73500D03*
X652500D03*
X657500Y78500D03*
X652500D03*
X657500Y83500D03*
X652500D03*
X657500Y88500D03*
X652500D03*
X657500Y93500D03*
X652500D03*
X657500Y98500D03*
X652500D03*
X657500Y103500D03*
X652500D03*
X657500Y108500D03*
X652500D03*
X657500Y113500D03*
X652500D03*
X657500Y118500D03*
X652500D03*
X657500Y123500D03*
X652500D03*
X657500Y128500D03*
X652500D03*
X657500Y133500D03*
X652500D03*
X657500Y138500D03*
X652500D03*
X657500Y143500D03*
X652500D03*
X657500Y148500D03*
X652500D03*
X657500Y153500D03*
X652500D03*
X657500Y158500D03*
X652500D03*
X657500Y163500D03*
X652500D03*
X732500Y43500D03*
X727500D03*
X732500Y48500D03*
X727500D03*
X732500Y53500D03*
X727500D03*
X732500Y58500D03*
X727500D03*
X732500Y63500D03*
X727500D03*
X732500Y68500D03*
X727500D03*
X732500Y73500D03*
X727500D03*
X732500Y78500D03*
X727500D03*
X732500Y83500D03*
X727500D03*
X732500Y88500D03*
X727500D03*
X732500Y93500D03*
X727500D03*
X732500Y98500D03*
X727500D03*
X732500Y103500D03*
X727500D03*
X732500Y108500D03*
X727500D03*
X732500Y113500D03*
X727500D03*
X732500Y118500D03*
X727500D03*
X732500Y123500D03*
X727500D03*
X732500Y128500D03*
X727500D03*
X732500Y133500D03*
X727500D03*
X732500Y138500D03*
X727500D03*
X732500Y143500D03*
X727500D03*
X732500Y148500D03*
X727500D03*
X732500Y153500D03*
X727500D03*
X732500Y158500D03*
X727500D03*
X732500Y163500D03*
X727500D03*
X1054800Y45000D03*
Y50000D03*
X1049800Y45000D03*
Y50000D03*
X1054800Y158000D03*
X1049800D03*
X1054800Y163000D03*
X1049800D03*
X1079800Y45000D03*
Y50000D03*
X1074800Y45000D03*
Y50000D03*
X1069800Y45000D03*
Y50000D03*
X1064800Y45000D03*
Y50000D03*
X1059800Y45000D03*
Y50000D03*
X1079800Y158000D03*
X1074800D03*
X1069800D03*
X1064800D03*
X1059800D03*
X1079800Y163000D03*
X1074800D03*
X1069800D03*
X1064800D03*
X1059800D03*
X1099800Y45000D03*
Y50000D03*
X1094800Y45000D03*
Y50000D03*
X1089800Y45000D03*
Y50000D03*
X1084800Y45000D03*
Y50000D03*
X1099800Y158000D03*
X1094800D03*
X1089800D03*
X1084800D03*
X1099800Y163000D03*
X1094800D03*
X1089800D03*
X1084800D03*
X1119800Y45000D03*
Y50000D03*
X1114800Y45000D03*
Y50000D03*
X1109800Y45000D03*
Y50000D03*
X1104800Y45000D03*
Y50000D03*
X1119800Y158000D03*
X1114800D03*
X1109800D03*
X1104800D03*
X1119800Y163000D03*
X1114800D03*
X1109800D03*
X1104800D03*
X1144800Y45000D03*
Y50000D03*
X1139800Y45000D03*
Y50000D03*
X1134800Y45000D03*
Y50000D03*
X1129800Y45000D03*
Y50000D03*
X1124800Y45000D03*
Y50000D03*
X1144800Y158000D03*
X1139800D03*
X1134800D03*
X1129800D03*
X1124800D03*
X1144800Y163000D03*
X1139800D03*
X1134800D03*
X1129800D03*
X1124800D03*
X1164800Y45000D03*
Y50000D03*
X1159800Y45000D03*
Y50000D03*
X1154800Y45000D03*
Y50000D03*
X1149800Y45000D03*
Y50000D03*
X1164800Y158000D03*
X1159800D03*
X1154800D03*
X1149800D03*
X1164800Y163000D03*
X1159800D03*
X1154800D03*
X1149800D03*
X1184800Y45000D03*
Y50000D03*
X1179800Y45000D03*
Y50000D03*
X1174800Y45000D03*
Y50000D03*
X1169800Y45000D03*
Y50000D03*
X1184800Y158000D03*
X1179800D03*
X1174800D03*
X1169800D03*
X1184800Y163000D03*
X1179800D03*
X1174800D03*
X1169800D03*
X1209800Y45000D03*
Y50000D03*
X1204800Y45000D03*
Y50000D03*
X1199800Y45000D03*
Y50000D03*
X1194800Y45000D03*
Y50000D03*
X1189800Y45000D03*
Y50000D03*
X1209800Y158000D03*
X1204800D03*
X1199800D03*
X1194800D03*
X1189800D03*
X1209800Y163000D03*
X1204800D03*
X1199800D03*
X1194800D03*
X1189800D03*
X1219800Y45000D03*
Y50000D03*
X1214800Y45000D03*
Y50000D03*
X1219800Y158000D03*
X1214800D03*
X1219800Y163000D03*
X1214800D03*
G54D25*
X102500Y231000D03*
X710500Y357500D03*
X834000Y356000D03*
G54D17*
X87500Y178350D03*
X78500D03*
X87500Y184650D03*
X78500D03*
X105500Y178350D03*
X96500D03*
X105500Y184650D03*
X96500D03*
X258500Y202850D03*
Y209150D03*
X688000Y307850D03*
Y314150D03*
X696500Y307850D03*
Y314150D03*
X780000Y307350D03*
X789500D03*
X780000Y313650D03*
X789500D03*
X811500Y306350D03*
X820000D03*
X811500Y312650D03*
X820000D03*
X903500Y305850D03*
Y312150D03*
X913000Y305850D03*
Y312150D03*
G54D44*
X410400Y166000D03*
Y168000D03*
Y170000D03*
Y172000D03*
X422600D03*
Y170000D03*
Y168000D03*
Y166000D03*
G54D35*
X169748Y264508D03*
X188252D03*
G54D26*
X92500Y259500D03*
X102500D03*
X112500D03*
X570000Y222000D03*
X580000D03*
X570000Y273500D03*
X580000D03*
X590000Y222000D03*
Y273500D03*
X620000Y222000D03*
X630000D03*
X620000Y273500D03*
X630000D03*
X626500Y331610D03*
Y345390D03*
Y366610D03*
Y380390D03*
X640000Y222000D03*
Y273500D03*
X670000Y222000D03*
Y273500D03*
X680000Y222000D03*
X690000D03*
X680000Y273500D03*
X690000D03*
X720000Y222000D03*
X730000D03*
X720000Y273500D03*
X730000D03*
X740000Y222000D03*
Y273500D03*
X888610Y265500D03*
X902390D03*
X922610D03*
X936390D03*
X1012000Y310500D03*
Y330500D03*
Y320500D03*
X1014000Y375000D03*
Y395000D03*
Y385000D03*
X1038000Y222500D03*
X1028000D03*
X1038000Y274000D03*
X1028000D03*
X1048000Y222500D03*
Y274000D03*
X1077000Y222500D03*
X1067000D03*
X1077000Y274000D03*
X1067000D03*
X1087000Y222500D03*
Y274000D03*
X1106000Y222500D03*
X1116000D03*
X1126000D03*
X1106000Y274000D03*
X1116000D03*
X1126000D03*
X1120000Y309000D03*
Y329000D03*
Y319000D03*
X1121000Y374500D03*
Y394500D03*
Y384500D03*
X1143000Y222500D03*
Y274000D03*
X1153000Y222500D03*
X1163000D03*
X1153000Y274000D03*
X1163000D03*
X1180000Y222500D03*
X1190000D03*
X1180000Y274000D03*
X1190000D03*
X1200000Y222500D03*
Y274000D03*
X1218500Y222500D03*
X1228500D03*
X1218500Y274000D03*
X1228500D03*
X1238500Y222500D03*
Y274000D03*
G54D53*
X714000Y310500D03*
Y393000D03*
X837500Y309000D03*
Y391500D03*
X932000Y336000D03*
X934000Y400500D03*
X1040000Y334500D03*
X1041000Y400000D03*
G54D27*
X112000Y41063D03*
Y48937D03*
X118500Y91063D03*
Y98937D03*
X112000Y120563D03*
Y128437D03*
X118500Y178437D03*
Y170563D03*
X221500Y26437D03*
Y18563D03*
Y49063D03*
Y56937D03*
Y68063D03*
Y75937D03*
Y98563D03*
Y106437D03*
X222000Y135937D03*
Y128063D03*
Y158563D03*
Y166437D03*
X256000Y160063D03*
Y167937D03*
X342500Y132563D03*
X345000Y157063D03*
X342500Y140437D03*
X345000Y164937D03*
X471000Y68563D03*
Y76437D03*
X999500Y309437D03*
Y301563D03*
Y331563D03*
Y339437D03*
X1001500Y373937D03*
Y366063D03*
Y396063D03*
Y403937D03*
X1107500Y307937D03*
Y300063D03*
Y330063D03*
Y337937D03*
X1108500Y373437D03*
Y365563D03*
Y395563D03*
Y403437D03*
G54D36*
X192247Y18400D03*
X194247Y56900D03*
X192247Y67900D03*
X194247Y106400D03*
X192747Y127900D03*
X194747Y166400D03*
X198153Y18400D03*
X200153Y56900D03*
X198153Y67900D03*
X200153Y106400D03*
X198653Y127900D03*
X200653Y166400D03*
X251453Y203000D03*
X245547D03*
X397447Y122300D03*
X403353D03*
X403453Y136500D03*
X397547D03*
X403453Y129500D03*
X397547D03*
Y144000D03*
X403453D03*
X422547Y88000D03*
X428453D03*
X421453Y143500D03*
X415547D03*
Y149500D03*
X421453D03*
X554047Y116000D03*
X559953D03*
X554047Y110000D03*
X559953D03*
X554047Y104000D03*
X559953D03*
X821047Y107000D03*
Y97000D03*
Y115500D03*
X826953Y107000D03*
Y97000D03*
X840453Y107000D03*
X834547D03*
X826953Y115500D03*
X970247Y301400D03*
X963953Y301500D03*
X958047D03*
X963953Y308500D03*
X958047D03*
X972247Y339900D03*
X964953Y340000D03*
X959047D03*
X964953Y334000D03*
X959047D03*
X965953Y365000D03*
X960047D03*
X965953Y371000D03*
X960047D03*
X967953Y404500D03*
X962047D03*
X967953Y399000D03*
X962047D03*
X976153Y301400D03*
X978153Y339900D03*
X978953Y365000D03*
X973047D03*
X980953Y404500D03*
X975047D03*
X1071953Y307000D03*
X1066047D03*
X1078247Y299900D03*
X1071953Y300000D03*
X1066047D03*
X1072953Y332500D03*
X1067047D03*
X1080247Y338400D03*
X1072953Y338500D03*
X1067047D03*
X1072953Y370500D03*
X1067047D03*
X1080047Y364500D03*
X1072953D03*
X1067047D03*
X1074953Y404000D03*
X1069047D03*
X1074953Y398500D03*
X1069047D03*
X1084153Y299900D03*
X1086153Y338400D03*
X1085953Y364500D03*
X1087953Y404000D03*
X1082047D03*
X1217547Y120500D03*
X1223453D03*
G54D18*
X78500Y190547D03*
Y196453D03*
X87500Y191047D03*
Y196953D03*
X96500Y191047D03*
Y196953D03*
X105000Y191047D03*
Y196953D03*
X186000Y24653D03*
Y18747D03*
X185000Y51247D03*
Y57153D03*
X186000Y74153D03*
Y68247D03*
X185000Y100747D03*
Y106653D03*
X186500Y134153D03*
Y128247D03*
X185500Y160747D03*
Y166653D03*
X207700Y18447D03*
Y24353D03*
X208200Y50947D03*
Y56853D03*
X207700Y67947D03*
Y73853D03*
X208200Y106353D03*
Y100447D03*
Y127947D03*
Y133853D03*
X208700Y160447D03*
Y166353D03*
X214500Y203047D03*
Y208953D03*
X428000Y94047D03*
Y99953D03*
X580500Y246047D03*
Y251953D03*
X630500Y246047D03*
Y251953D03*
X680500Y246047D03*
Y251953D03*
X688000Y320547D03*
Y326453D03*
X696500Y320547D03*
Y326453D03*
X730500Y246047D03*
Y251953D03*
X798000Y49047D03*
Y54953D03*
X780000Y321047D03*
Y326953D03*
X789500Y321047D03*
Y326953D03*
X811500Y319047D03*
Y324953D03*
X820000Y319047D03*
Y324953D03*
X827000Y128453D03*
Y122547D03*
X903500Y319547D03*
Y325453D03*
X913000Y319547D03*
Y325453D03*
X975500Y71953D03*
Y66047D03*
X993000Y71953D03*
Y66047D03*
X981000Y71953D03*
Y66047D03*
X986500Y71953D03*
Y66047D03*
X985700Y301447D03*
Y307353D03*
X986200Y339853D03*
Y333947D03*
X985500Y365047D03*
Y370953D03*
X987500Y398047D03*
Y403953D03*
X1093700Y299947D03*
Y305853D03*
X1094200Y332447D03*
Y338353D03*
X1092500Y364547D03*
Y370453D03*
X1094500Y397547D03*
Y403453D03*
X1116500Y246547D03*
Y252453D03*
X1153500Y246547D03*
Y252453D03*
X1168500Y77047D03*
Y82953D03*
X1190500Y246547D03*
Y252453D03*
X1229000Y246547D03*
Y252453D03*
G54D45*
X414500Y52330D03*
X411910Y43670D03*
X414500D03*
X417090D03*
Y52330D03*
X411910D03*
G54D54*
X796150Y82500D03*
X814850D03*
G54D19*
X83063Y214000D03*
X96063Y77000D03*
X103937D03*
X96063Y156500D03*
X103937D03*
X90937Y214000D03*
X90563Y247000D03*
X98437D03*
X106563D03*
X122437Y214000D03*
X114563D03*
X114437Y247000D03*
X173563Y41000D03*
Y90500D03*
X174063Y150500D03*
X181437Y41000D03*
Y90500D03*
X181937Y150500D03*
X214937Y35500D03*
X207063D03*
X214937Y85000D03*
X207063D03*
X215437Y145000D03*
X207563D03*
X236063Y214000D03*
X243937D03*
X400963Y59500D03*
X408837D03*
X691063Y340500D03*
X698937D03*
X698563Y373500D03*
X706437D03*
X714563D03*
X730437Y340500D03*
X722563D03*
X722437Y373500D03*
X747063Y340000D03*
X754937D03*
X770563D03*
X778437D03*
X814563Y339000D03*
X822437D03*
X822063Y372000D03*
X838063D03*
X829937D03*
X853937Y339000D03*
X846063D03*
X845937Y372000D03*
X870563Y338500D03*
X878437D03*
X894063D03*
X901937D03*
X992937Y318500D03*
X985063D03*
X994937Y382500D03*
X987063D03*
X1066863Y72000D03*
X1074737D03*
X1069737Y86800D03*
X1061863D03*
X1092737Y68000D03*
X1084863D03*
X1100937Y317000D03*
X1093063D03*
X1101937Y382000D03*
X1094063D03*
X1197737Y135500D03*
X1189863D03*
G54D28*
X113756Y71921D03*
Y69953D03*
Y67984D03*
Y66016D03*
Y64047D03*
Y62079D03*
Y60110D03*
Y73890D03*
Y153390D03*
Y151421D03*
Y149453D03*
Y147484D03*
Y145516D03*
Y143547D03*
Y141579D03*
Y139610D03*
X133244Y60110D03*
Y62079D03*
Y64047D03*
Y66016D03*
Y67984D03*
Y69953D03*
Y71921D03*
Y73890D03*
Y139610D03*
Y141579D03*
Y143547D03*
Y145516D03*
Y147484D03*
Y149453D03*
Y151421D03*
Y153390D03*
G54D37*
X193500Y38500D03*
Y88000D03*
X194000Y148000D03*
X242500Y235500D03*
X753500Y361500D03*
X777000D03*
X877000Y360000D03*
X900500D03*
X971500Y321500D03*
X1079500Y320000D03*
G54D46*
X421170Y134000D03*
X429830Y131410D03*
Y134000D03*
Y136590D03*
X421170D03*
Y131410D03*
G54D55*
X820000Y45000D03*
Y50000D03*
X815000Y45000D03*
Y50000D03*
X820000Y158000D03*
X815000D03*
X820000Y163000D03*
X815000D03*
X840000Y45000D03*
Y50000D03*
X835000Y45000D03*
Y50000D03*
X830000Y45000D03*
Y50000D03*
X825000Y45000D03*
Y50000D03*
X840000Y158000D03*
X835000D03*
X830000D03*
X825000D03*
X840000Y163000D03*
X835000D03*
X830000D03*
X825000D03*
X865000Y45000D03*
Y50000D03*
X860000Y45000D03*
Y50000D03*
X855000Y45000D03*
Y50000D03*
X850000Y45000D03*
Y50000D03*
X845000Y45000D03*
Y50000D03*
X865000Y158000D03*
X860000D03*
X855000D03*
X850000D03*
X845000D03*
X865000Y163000D03*
X860000D03*
X855000D03*
X850000D03*
X845000D03*
X885000Y45000D03*
Y50000D03*
X880000Y45000D03*
Y50000D03*
X875000Y45000D03*
Y50000D03*
X870000Y45000D03*
Y50000D03*
X885000Y158000D03*
X880000D03*
X875000D03*
X870000D03*
X885000Y163000D03*
X880000D03*
X875000D03*
X870000D03*
X905000Y45000D03*
Y50000D03*
X900000Y45000D03*
Y50000D03*
X895000Y45000D03*
Y50000D03*
X890000Y45000D03*
Y50000D03*
X905000Y158000D03*
X900000D03*
X895000D03*
X890000D03*
X905000Y163000D03*
X900000D03*
X895000D03*
X890000D03*
X925000Y45000D03*
Y50000D03*
X920000Y45000D03*
Y50000D03*
X915000Y45000D03*
Y50000D03*
X910000Y45000D03*
Y50000D03*
X925000Y158000D03*
X920000D03*
X915000D03*
X910000D03*
X925000Y163000D03*
X920000D03*
X915000D03*
X910000D03*
X950000Y45000D03*
Y50000D03*
X945000Y45000D03*
Y50000D03*
X940000Y45000D03*
Y50000D03*
X935000Y45000D03*
Y50000D03*
X930000Y45000D03*
Y50000D03*
X950000Y158000D03*
X945000D03*
X940000D03*
X935000D03*
X930000D03*
X950000Y163000D03*
X945000D03*
X940000D03*
X935000D03*
X930000D03*
X970000Y45000D03*
Y50000D03*
X965000Y45000D03*
Y50000D03*
X960000Y45000D03*
Y50000D03*
X955000Y45000D03*
Y50000D03*
X970000Y158000D03*
X965000D03*
X960000D03*
X955000D03*
X970000Y163000D03*
X965000D03*
X960000D03*
X955000D03*
X985000Y45000D03*
Y50000D03*
X980000Y45000D03*
Y50000D03*
X975000Y45000D03*
Y50000D03*
X985000Y158000D03*
X980000D03*
X975000D03*
X985000Y163000D03*
X980000D03*
X975000D03*
X999500Y326400D03*
Y321400D03*
Y315900D03*
X1001500Y380400D03*
Y385900D03*
Y390900D03*
X1107500Y314400D03*
Y319900D03*
Y324900D03*
X1108500Y379900D03*
Y385400D03*
Y390400D03*
G54D29*
X116610Y57256D03*
X118579D03*
X120547D03*
X122516D03*
X124484D03*
X126453D03*
X128421D03*
X130390D03*
Y76744D03*
X128421D03*
X126453D03*
X124484D03*
X122516D03*
X120547D03*
X118579D03*
X116610D03*
Y136756D03*
X118579D03*
X120547D03*
X122516D03*
X124484D03*
X126453D03*
X128421D03*
X130390D03*
Y156244D03*
X128421D03*
X126453D03*
X124484D03*
X122516D03*
X120547D03*
X118579D03*
X116610D03*
G54D38*
X201350Y203000D03*
X207650D03*
G54D56*
X971200Y376300D03*
Y393700D03*
X978800Y376300D03*
X976300D03*
X973700D03*
Y393700D03*
X976300D03*
X978800D03*
X1078200Y375800D03*
Y393200D03*
X1085800Y375800D03*
X1083300D03*
X1080700D03*
Y393200D03*
X1083300D03*
X1085800D03*
G54D47*
X416500Y169000D03*
G54D48*
X413500Y175100D03*
X415500D03*
X417500D03*
X419500D03*
Y162900D03*
X417500D03*
X415500D03*
X413500D03*
G54D57*
X1135000Y104000D03*
G54D39*
X247200Y53900D03*
Y56500D03*
Y59000D03*
Y61600D03*
Y64200D03*
Y66700D03*
Y69300D03*
Y71800D03*
Y74400D03*
Y77000D03*
Y79500D03*
Y82100D03*
X270800Y74400D03*
Y71800D03*
Y69300D03*
Y66700D03*
Y64200D03*
Y61600D03*
Y59000D03*
Y56500D03*
Y53900D03*
Y82100D03*
Y79500D03*
Y77000D03*
X330200Y53900D03*
Y56500D03*
Y59000D03*
Y61600D03*
Y64200D03*
Y66700D03*
Y69300D03*
Y71800D03*
Y74400D03*
Y77000D03*
Y79500D03*
Y82100D03*
X353800Y74400D03*
Y71800D03*
Y69300D03*
Y66700D03*
Y64200D03*
Y61600D03*
Y59000D03*
Y56500D03*
Y53900D03*
Y82100D03*
Y79500D03*
Y77000D03*
G54D49*
X479500Y73000D03*
G54D58*
X1120450Y109600D03*
Y107300D03*
Y98600D03*
Y97350D03*
Y101050D03*
Y99750D03*
Y103400D03*
Y104400D03*
Y105300D03*
Y106350D03*
Y102400D03*
Y108300D03*
X1149150Y108450D03*
Y105800D03*
Y104850D03*
Y103800D03*
Y102700D03*
Y100850D03*
Y106800D03*
G54D59*
X1115600Y98000D03*
Y101000D03*
X1115550Y103000D03*
X1115600Y97000D03*
Y100000D03*
X1115550Y104000D03*
Y105000D03*
Y106000D03*
Y107000D03*
Y108000D03*
Y109000D03*
X1154050Y110500D03*
Y109500D03*
Y108500D03*
Y107500D03*
Y106500D03*
Y105500D03*
Y104500D03*
Y103500D03*
Y102500D03*
Y101500D03*
Y100500D03*
Y99500D03*
Y98500D03*
Y97500D03*
M02*
