G04 ================== begin FILE IDENTIFICATION RECORD ==================*
G04 Layout Name:  //Mac/Home/Desktop/SPB_Data/Capture/cis_atcs/allegro/ATCS_m3.brd*
G04 Film Name:    POWER*
G04 File Format:  Gerber RS274X*
G04 File Origin:  Cadence Allegro 17.2-P019*
G04 Origin Date:  Thu May 24 12:20:24 2018*
G04 *
G04 Layer:  ETCH/POWER*
G04 Layer:  PIN/POWER*
G04 Layer:  VIA CLASS/POWER*
G04 *
G04 Offset:    (0.00 0.00)*
G04 Mirror:    No*
G04 Mode:      Positive*
G04 Rotation:  0*
G04 FullContactRelief:  No*
G04 UndefLineWidth:     0.00*
G04 ================== end FILE IDENTIFICATION RECORD ====================*
%FSLAX55Y55*MOIN*%
%IR0*IPPOS*OFA0.00000B0.00000*MIA0B0*SFA1.00000B1.00000*%
%ADD23C,.03*%
%ADD18C,.04*%
%ADD11C,.022*%
%ADD15C,.06*%
%ADD13C,.024*%
%ADD21C,.07*%
%ADD16C,.025*%
%ADD12C,.026*%
%ADD10C,.035*%
%ADD19C,.09*%
%ADD17C,.036*%
%ADD14C,.2*%
%ADD22C,.12*%
%ADD20C,.118*%
%ADD24C,.01*%
%ADD25C,.02*%
%ADD26C,.012*%
%ADD27C,.014*%
%ADD28C,.016*%
%ADD29C,.008*%
%ADD37C,.04004*%
%ADD32C,.03204*%
%ADD34C,.07004*%
%ADD31C,.03604*%
%ADD30C,.04504*%
%ADD36C,.04604*%
%ADD33C,.05604*%
%ADD35C,.21004*%
G75*
%LPD*%
G75*
G36*
G01X18000Y205500D02*
Y239000D01*
X32000D01*
Y205500D01*
X29035D01*
G03X26965I-1035J-2000D01*
G01X24035D01*
G03X21965I-1035J-2000D01*
G01X18000D01*
G37*
G36*
G01X59500Y42000D02*
Y119248D01*
G03Y121752I-1000J1252D01*
G01Y282000D01*
X60500Y283000D01*
X248500D01*
X260000Y271500D01*
X263385D01*
G03X263615I115J3500D01*
G01X276885D01*
G03X277115I115J3500D01*
G01X455500D01*
Y250000D01*
X446543D01*
X446493Y250128D01*
G03X443507I-1493J-581D01*
G01X443457Y250000D01*
X433000D01*
X424500Y258500D01*
X423252D01*
G03X420805Y258567I-1252J-1000D01*
G01X420745Y258500D01*
X420502D01*
X420442Y258580D01*
G03X417501Y258500I-1442J-1080D01*
G01X400513D01*
G02X400238Y259191I0J400D01*
G03X397762I-1238J1309D01*
G02X397487Y258500I-275J-291D01*
G01X368500D01*
X366609Y256609D01*
G03X364230Y254476I-1110J-1156D01*
G01X364337Y254337D01*
X360000Y250000D01*
X346000D01*
X344033Y251967D01*
X344018Y252011D01*
G03X343011Y253018I-1518J-511D01*
G01X342967Y253033D01*
X340542Y255458D01*
G02X340584Y256061I283J283D01*
G03X341030Y256549I-1084J1439D01*
G02X341696Y256570I340J-211D01*
G03Y258430I1304J930D01*
G02X341030Y258451I-326J232D01*
G03X337812Y258130I-1530J-951D01*
G01X337763Y258000D01*
X320752D01*
G03X320430Y258304I-1250J-1002D01*
G02X320451Y258970I232J326D01*
G03X318549I-951J1530D01*
G02X318570Y258304I-211J-340D01*
G03X318248Y258000I928J-1306D01*
G01X291500D01*
X283500Y250000D01*
X273000D01*
Y256500D01*
X269000Y260500D01*
X237252D01*
G03X234748I-1252J-1000D01*
G01X225475D01*
G02X225090Y261010I0J400D01*
G03X222010I-1540J440D01*
G02X221625Y260500I-385J-110D01*
G01X197000D01*
X194000Y263500D01*
X185105D01*
X185097Y263692D01*
G03X172303I-6397J-242D01*
G01X172295Y263500D01*
X101500D01*
Y262117D01*
G03Y256883I1000J-2617D01*
G01Y242277D01*
G02X100864Y241954I-400J0D01*
G03Y239046I-1064J-1454D01*
G02X101500Y238723I236J-323D01*
G01Y234542D01*
G02X101025Y234149I-400J0D01*
G03X99524Y233637I-301J-1573D01*
G02X98924I-300J265D01*
G03X96663Y231376I-1200J-1061D01*
G02Y230776I-265J-300D01*
G03X98924Y228515I1061J-1200D01*
G02X99524I300J-265D01*
G03X101025Y228003I1200J1061D01*
G02X101500Y227610I75J-393D01*
G01Y203000D01*
X94112D01*
X94092Y203178D01*
G03X90908I-1592J-178D01*
G01X90888Y203000D01*
X70500D01*
X69500Y202000D01*
Y144111D01*
X69489Y144078D01*
G03Y143016I1511J-531D01*
G01X69500Y142983D01*
Y64564D01*
X69489Y64531D01*
G03Y63469I1511J-531D01*
G01X69500Y63436D01*
Y42000D01*
X59500D01*
G37*
G36*
G01X196502Y28502D02*
Y34502D01*
X199000Y37000D01*
Y37084D01*
X199002Y37085D01*
Y38406D01*
G03Y38562I-1700J78D01*
G01Y44002D01*
X184498D01*
Y35000D01*
X169619D01*
G02X169234Y35509I0J400D01*
G03X166068Y37094I-1734J491D01*
G02X165432I-318J242D01*
G03X162266Y35509I-1432J-1094D01*
G02X161881Y35000I-385J-109D01*
G01X72000D01*
Y62748D01*
G03Y65252I-1000J1252D01*
G01Y111686D01*
G03Y114614I-650J1464D01*
G01Y142295D01*
G03Y144799I-1000J1252D01*
G01Y200500D01*
X81049D01*
X81101Y200378D01*
G03X84053I1476J622D01*
G01X84105Y200500D01*
X103000D01*
Y227600D01*
G02X103465Y227995I400J0D01*
G03X104924Y228515I259J1581D01*
G02X105524I300J-265D01*
G03X107785Y230776I1200J1061D01*
G02Y231376I265J300D01*
G03X105524Y233637I-1061J1200D01*
G02X104924I-300J265D01*
G03X103465Y234157I-1200J-1061D01*
G02X103000Y234552I-65J395D01*
G01Y256738D01*
X103153Y256775D01*
G03X105301Y259588I-653J2725D01*
G02X105700Y260000I400J12D01*
G01X109300D01*
G02X109699Y259588I-1J-400D01*
G03X115301I2801J-88D01*
G02X115700Y260000I400J12D01*
G01X173307D01*
G03X184093I5393J3450D01*
G01X192500D01*
X195500Y257000D01*
X269500D01*
X271998Y254502D01*
Y248998D01*
X272000D01*
Y247500D01*
X274038Y245462D01*
X274051Y245439D01*
G03X274408Y244975I1948J1129D01*
G01X276000Y243383D01*
Y239500D01*
X314500D01*
Y248748D01*
X320000D01*
G03X321034Y249000I-1J2252D01*
G01X325500D01*
Y239500D01*
X394000D01*
Y248748D01*
X402933D01*
X403184Y249000D01*
X405000D01*
Y239500D01*
X473500D01*
Y248748D01*
X477910D01*
G03X479000Y248498I1090J2251D01*
G01X482035D01*
X482537Y249000D01*
X484500D01*
Y228000D01*
X246000D01*
X240500Y233500D01*
Y237388D01*
X240678Y237408D01*
G03Y240592I-178J1592D01*
G01X240500Y240612D01*
Y241469D01*
G02X241001Y241856I400J0D01*
G03X240092Y244323I405J1550D01*
G02X239512Y244242I-328J229D01*
G03X236900Y242920I-1012J-1242D01*
G02X236501Y242500I-399J-20D01*
G01X226400D01*
G02X226017Y243017I0J400D01*
G03X223298Y244561I-1532J468D01*
G02X222720Y244545I-297J268D01*
G03X220044Y243001I-1126J-1139D01*
G02X219657Y242500I-387J-101D01*
G01X197000D01*
X194000Y239500D01*
X188518D01*
G03X185382I-1568J-4750D01*
G01X172018D01*
G03X168882I-1568J-4750D01*
G01X129500D01*
X122000Y232000D01*
Y231954D01*
X121946Y231896D01*
G03X122000Y227048I2554J-2396D01*
G01Y195528D01*
X121878Y195476D01*
G03Y192524I622J-1476D01*
G01X122000Y192472D01*
Y161000D01*
X102000D01*
Y97000D01*
X210000D01*
X210500Y96500D01*
Y79500D01*
X203203D01*
G02X202963Y80220I0J400D01*
G03X202886Y82835I-963J1280D01*
G02X202946Y83534I221J333D01*
G03X201414Y83665I-646J1466D01*
G02X201354Y82966I-221J-333D01*
G03X201037Y80220I646J-1466D01*
G02X200797Y79500I-240J-320D01*
G01X199502D01*
Y85085D01*
X202002Y87585D01*
Y89001D01*
G02X202381Y89400I400J0D01*
G03X203078Y92400I-81J1600D01*
G02Y93100I194J350D01*
G03X200708Y94679I-778J1400D01*
G01X200688Y94502D01*
X187498D01*
Y82498D01*
X186500Y81500D01*
X159028D01*
X158976Y81622D01*
G03X158328Y82372I-1477J-621D01*
G02X158228Y82971I206J342D01*
G03X156172Y82628I-1228J1029D01*
G02X156272Y82029I-206J-342D01*
G03X156024Y81622I1229J-1028D01*
G01X155972Y81500D01*
X102000D01*
Y46000D01*
X151000D01*
X153500Y48500D01*
X211498D01*
Y28998D01*
X211002Y28502D01*
X196502D01*
G37*
G36*
G01X174882Y159500D02*
G02X175266Y158991I-1J-400D01*
G03X178734I1734J-491D01*
G02X179118Y159500I385J109D01*
G01X182500D01*
X183000Y159000D01*
Y115500D01*
X244998D01*
Y84705D01*
G02X244279Y84464I-400J0D01*
G03X244599Y83401I-1279J-965D01*
G01X244611Y83588D01*
X244998D01*
Y82498D01*
X243165Y80665D01*
G02X242606Y80659I-283J283D01*
G03X240468Y78275I-1107J-1158D01*
G01X240474Y78269D01*
X240622Y78122D01*
X240400Y77900D01*
X240330Y77893D01*
G03X238907Y76470I170J-1593D01*
G01X238900Y76400D01*
X232000Y69500D01*
Y42499D01*
G02X231580Y42100I-400J0D01*
G03Y38900I-80J-1600D01*
G02X232000Y38501I20J-399D01*
G01Y22500D01*
X177000D01*
X176500Y23000D01*
Y29500D01*
X183500D01*
X185500Y31500D01*
Y43000D01*
X198000D01*
Y37500D01*
X195500Y35000D01*
Y28000D01*
X196000Y27500D01*
X212000D01*
X212500Y28000D01*
Y50500D01*
X155499D01*
G02X155100Y50920I0J400D01*
G03X151900I-1600J80D01*
G02X151501Y50500I-399J-20D01*
G01X150500D01*
X148000Y48000D01*
X106500D01*
Y64888D01*
X106678Y64908D01*
G03Y68092I-178J1592D01*
G01X106500Y68112D01*
Y80000D01*
X156248D01*
G03X158752I1252J1000D01*
G01X165797D01*
G02X166037Y79280I0J-400D01*
G03X165990Y76757I963J-1280D01*
G01X166064Y76697D01*
Y76402D01*
X165590D01*
X165090Y75902D01*
X145903D01*
X137559Y67557D01*
X137513Y67542D01*
G03X136779Y64978I487J-1526D01*
G02X136679Y64376I-305J-259D01*
G03X138721Y64038I821J-1376D01*
G02X138821Y64640I305J259D01*
G03X139526Y65529I-821J1375D01*
G01X139541Y65575D01*
X147065Y73098D01*
X148586D01*
G02X148955Y72546I-1J-400D01*
G03X151919I1482J-609D01*
G02X152288Y73098I370J152D01*
G01X165390D01*
X165401Y72910D01*
G03X168599I1599J90D01*
G01X168610Y73098D01*
X169222D01*
X169266Y73076D01*
G03Y75924I734J1424D01*
G01X169222Y75902D01*
X168910D01*
X168410Y76402D01*
X167936D01*
Y76697D01*
X168010Y76757D01*
G03X167963Y79280I-1010J1243D01*
G02X168203Y80000I240J320D01*
G01X186500D01*
X188500Y82000D01*
Y86797D01*
G02X189220Y87037I400J0D01*
G03X191819Y87091I1280J963D01*
G02X192480Y87088I329J-227D01*
G03X195090Y87023I1328J896D01*
G02X195728Y87027I321J-239D01*
G03X195718Y88961I1272J974D01*
G02X195080Y88957I-321J239D01*
G03X192489Y88893I-1272J-973D01*
G02X191828Y88896I-329J227D01*
G03X189220Y88963I-1328J-896D01*
G02X188500Y89203I-320J240D01*
G01Y93500D01*
X200923D01*
G03X201000Y93402I1376J1002D01*
G01Y92098D01*
G03X200598Y91000I1300J-1098D01*
G01Y89198D01*
G03X201000Y88100I1702J0D01*
G01Y88000D01*
X198500Y85500D01*
Y81609D01*
G03Y81391I1698J-109D01*
G01Y78500D01*
X199000Y78000D01*
X211500D01*
X212500Y79000D01*
Y100500D01*
X211000Y102000D01*
X155131D01*
G02X154845Y102680I0J400D01*
G03X152555I-1145J1120D01*
G02X152269Y102000I-286J-280D01*
G01X110855D01*
G02X110460Y102461I0J400D01*
G03X106910Y106501I-3460J539D01*
G02X106500Y106901I-10J400D01*
G01Y159500D01*
X174882D01*
G37*
G36*
G01X187000Y129000D02*
Y142498D01*
X187002D01*
Y151002D01*
X187498Y151498D01*
X199498D01*
Y145915D01*
X196998Y143415D01*
Y142998D01*
X196500Y142500D01*
Y136500D01*
X196998Y136002D01*
Y135998D01*
X212915D01*
X212916Y136000D01*
X213500D01*
X214000Y136500D01*
Y137084D01*
X214002Y137085D01*
Y149000D01*
X233748D01*
G03X236252I1252J1000D01*
G01X247000D01*
X247500Y148500D01*
Y129000D01*
X187000D01*
G37*
G36*
G01X198000Y137000D02*
Y143000D01*
X200500Y145500D01*
Y152000D01*
X200000Y152500D01*
X187000D01*
X186000Y151500D01*
Y143500D01*
X184002D01*
Y157000D01*
X213000D01*
Y137500D01*
X212500Y137000D01*
X198000D01*
G37*
G36*
G01X175000Y213000D02*
Y216172D01*
G03Y220328I-4550J2078D01*
G01Y232672D01*
G03X175150Y236463I-4550J2078D01*
G02X175525Y237000I376J137D01*
G01X181875D01*
G02X182250Y236463I-1J-400D01*
G03X191650I4700J-1713D01*
G02X192025Y237000I376J137D01*
G01X201000D01*
X204000Y240000D01*
X212487D01*
G02X212762Y239309I0J-400D01*
G03X215238I1238J-1309D01*
G02X215513Y240000I275J291D01*
G01X219888D01*
X219908Y239822D01*
G03X223092I1592J178D01*
G01X223112Y240000D01*
X238000D01*
Y232325D01*
G03X237308Y231178I900J-1325D01*
G01X237288Y231000D01*
X225712D01*
X225692Y231178D01*
G03X223833Y229420I-1592J-178D01*
G01X224000Y229392D01*
Y213000D01*
X221013D01*
G02X220738Y213691I0J400D01*
G03X218272Y216319I-1238J1309D01*
G02X217728I-272J293D01*
G03X217681Y216361I-1224J-1322D01*
G02X217722Y216997I262J302D01*
G03X215547Y217139I-994J1503D01*
G02X215506Y216503I-262J-302D01*
G03X215262Y213691I994J-1503D01*
G02X214987Y213000I-275J-291D01*
G01X189329D01*
G02X189153Y213759I0J400D01*
G03X184747I-2203J4491D01*
G02X184571Y213000I-176J-359D01*
G01X175000D01*
G37*
G36*
G01X346000Y109500D02*
X344884D01*
Y109891D01*
X345075Y109900D01*
G03X344037Y110220I-75J1600D01*
G02X343797Y109500I-240J-320D01*
G01X334035D01*
G02X333704Y110124I0J400D01*
G03X316296I-8704J5876D01*
G02X315965Y109500I-331J-224D01*
G01X304573D01*
G03X303373Y110630I-2073J-1000D01*
G02Y111370I152J370D01*
G03Y115630I-873J2130D01*
G02Y116370I152J370D01*
G03Y120630I-873J2130D01*
G02Y121370I152J370D01*
G03Y125630I-873J2130D01*
G02Y126370I152J370D01*
G03Y130630I-873J2130D01*
G02Y131370I152J370D01*
G03Y135630I-873J2130D01*
G02Y136370I152J370D01*
G03Y140630I-873J2130D01*
G02Y141370I152J370D01*
G03Y145630I-873J2130D01*
G02Y146370I152J370D01*
G03Y150630I-873J2130D01*
G02Y151370I152J370D01*
G03Y155630I-873J2130D01*
G02Y156370I152J370D01*
G03Y160630I-873J2130D01*
G02Y161370I152J370D01*
G03X300370Y164373I-873J2130D01*
G02X299630I-370J152D01*
G03X296627Y161370I-2130J-873D01*
G02Y160630I-152J-370D01*
G03Y156370I873J-2130D01*
G02Y155630I-152J-370D01*
G03Y151370I873J-2130D01*
G02Y150630I-152J-370D01*
G03Y146370I873J-2130D01*
G02Y145630I-152J-370D01*
G03Y141370I873J-2130D01*
G02Y140630I-152J-370D01*
G03Y136370I873J-2130D01*
G02Y135630I-152J-370D01*
G03Y131370I873J-2130D01*
G02Y130630I-152J-370D01*
G03Y126370I873J-2130D01*
G02Y125630I-152J-370D01*
G03Y121370I873J-2130D01*
G02Y120630I-152J-370D01*
G03Y116370I873J-2130D01*
G02Y115630I-152J-370D01*
G03Y111370I873J-2130D01*
G02Y110630I-152J-370D01*
G03X295427Y109500I873J-2130D01*
G01X291843D01*
G03X289439Y109826I-1343J-874D01*
G01X289298Y109702D01*
X275548Y123452D01*
G02X275831Y124134I283J282D01*
G01X277000D01*
G03X278051Y127839I0J2002D01*
G02X277948Y128429I210J341D01*
G03X275127Y129760I-1254J997D01*
G01X275093Y129602D01*
X271093D01*
X270246Y128754D01*
X265240Y133760D01*
X265269Y133871D01*
G03X263311Y135829I-1549J409D01*
G01X263200Y135800D01*
X260500Y138500D01*
Y155094D01*
G02X260901Y155494I400J0D01*
G03Y158698I3J1602D01*
G02X260500Y159098I-1J400D01*
G01Y194000D01*
X272500Y206000D01*
X403500D01*
X404000Y205500D01*
Y201099D01*
X403843Y201065D01*
G03X402837Y200366I342J-1565D01*
G02X402164I-336J216D01*
G03Y198634I-1348J-866D01*
G02X402837I337J-216D01*
G03X403843Y197935I1348J866D01*
G01X404000Y197901D01*
Y161000D01*
X408165Y156835D01*
G02X408067Y156198I-283J-282D01*
G03X407620Y153332I833J-1598D01*
G02Y152768I-284J-282D01*
G03X410180I1280J-1268D01*
G02Y153332I284J282D01*
G03X410498Y153767I-1279J1269D01*
G02X411135Y153865I355J-185D01*
G01X415748Y149252D01*
Y140786D01*
X414231Y139269D01*
G03X413652Y138362I1770J-1768D01*
G01X413637Y138321D01*
X411067Y135752D01*
X407400D01*
G03Y131248I0J-2252D01*
G01X412933D01*
X416821Y135137D01*
X416862Y135152D01*
G03X417769Y135731I-861J2349D01*
G01X418988Y136950D01*
X428049D01*
X431500Y133500D01*
Y127500D01*
X430750Y126750D01*
X424750D01*
X421250Y123250D01*
Y118090D01*
X421100Y118051D01*
G03Y114949I400J-1551D01*
G01X421250Y114910D01*
Y106996D01*
G03Y104004I1750J-1496D01*
G01Y85001D01*
G02X420859Y84602I-400J1D01*
G03Y80998I41J-1802D01*
G02X421250Y80599I-9J-400D01*
G01Y46250D01*
X415504Y40504D01*
X415372Y40577D01*
G03X412923Y38128I-872J-1577D01*
G01X412996Y37996D01*
X399000Y24000D01*
X375311D01*
X375293Y24180D01*
G03X371707I-1793J-180D01*
G01X371689Y24000D01*
X366909D01*
G02X366528Y24520I1J400D01*
G03X363472I-1528J480D01*
G02X363091Y24000I-382J-120D01*
G01X339875D01*
G03X334125I-2875J-2000D01*
G01X268637D01*
G03X255158Y31842I-10277J-2160D01*
G01X244000Y43000D01*
Y52963D01*
X246537Y55500D01*
X262500D01*
X266000Y52000D01*
Y51074D01*
G03Y50926I2000J-74D01*
G01Y30000D01*
X268000Y28000D01*
X284000D01*
X287500Y31500D01*
X325591D01*
G02X325972Y30980I-1J-400D01*
G03X329028I1528J-480D01*
G02X329409Y31500I382J120D01*
G01X332000D01*
X333063Y32563D01*
G02X333744Y32324I283J-282D01*
G03X335512Y34092I1592J176D01*
G02X335273Y34773I43J398D01*
G01X335500Y35000D01*
Y54500D01*
X347101Y66101D01*
G02X347707Y66054I283J-283D01*
G03X349946Y68293I1293J946D01*
G02X349899Y68899I236J323D01*
G01X351000Y70000D01*
Y96591D01*
G02X351520Y96972I400J-1D01*
G03Y100028I480J1528D01*
G02X351000Y100409I-120J382D01*
G01Y104500D01*
X346000Y109500D01*
G37*
G36*
G01X299630Y114373D02*
G03X298373Y115630I-2130J-873D01*
G02Y116370I152J370D01*
G03X299630Y117627I-873J2130D01*
G02X300370I370J-152D01*
G03X301627Y116370I2130J873D01*
G02Y115630I-152J-370D01*
G03X300370Y114373I873J-2130D01*
G02X299630I-370J152D01*
G37*
G36*
G01X299573Y109500D02*
G03X298373Y110630I-2073J-1000D01*
G02Y111370I152J370D01*
G03X299630Y112627I-873J2130D01*
G02X300370I370J-152D01*
G03X301627Y111370I2130J873D01*
G02Y110630I-152J-370D01*
G03X300427Y109500I873J-2130D01*
G01X299573D01*
G37*
G36*
G01X299630Y134373D02*
G03X298373Y135630I-2130J-873D01*
G02Y136370I152J370D01*
G03X299630Y137627I-873J2130D01*
G02X300370I370J-152D01*
G03X301627Y136370I2130J873D01*
G02Y135630I-152J-370D01*
G03X300370Y134373I873J-2130D01*
G02X299630I-370J152D01*
G37*
G36*
G01Y129373D02*
G03X298373Y130630I-2130J-873D01*
G02Y131370I152J370D01*
G03X299630Y132627I-873J2130D01*
G02X300370I370J-152D01*
G03X301627Y131370I2130J873D01*
G02Y130630I-152J-370D01*
G03X300370Y129373I873J-2130D01*
G02X299630I-370J152D01*
G37*
G36*
G01Y124373D02*
G03X298373Y125630I-2130J-873D01*
G02Y126370I152J370D01*
G03X299630Y127627I-873J2130D01*
G02X300370I370J-152D01*
G03X301627Y126370I2130J873D01*
G02Y125630I-152J-370D01*
G03X300370Y124373I873J-2130D01*
G02X299630I-370J152D01*
G37*
G36*
G01Y119373D02*
G03X298373Y120630I-2130J-873D01*
G02Y121370I152J370D01*
G03X299630Y122627I-873J2130D01*
G02X300370I370J-152D01*
G03X301627Y121370I2130J873D01*
G02Y120630I-152J-370D01*
G03X300370Y119373I873J-2130D01*
G02X299630I-370J152D01*
G37*
G36*
G01Y154373D02*
G03X298373Y155630I-2130J-873D01*
G02Y156370I152J370D01*
G03X299630Y157627I-873J2130D01*
G02X300370I370J-152D01*
G03X301627Y156370I2130J873D01*
G02Y155630I-152J-370D01*
G03X300370Y154373I873J-2130D01*
G02X299630I-370J152D01*
G37*
G36*
G01Y149373D02*
G03X298373Y150630I-2130J-873D01*
G02Y151370I152J370D01*
G03X299630Y152627I-873J2130D01*
G02X300370I370J-152D01*
G03X301627Y151370I2130J873D01*
G02Y150630I-152J-370D01*
G03X300370Y149373I873J-2130D01*
G02X299630I-370J152D01*
G37*
G36*
G01Y144373D02*
G03X298373Y145630I-2130J-873D01*
G02Y146370I152J370D01*
G03X299630Y147627I-873J2130D01*
G02X300370I370J-152D01*
G03X301627Y146370I2130J873D01*
G02Y145630I-152J-370D01*
G03X300370Y144373I873J-2130D01*
G02X299630I-370J152D01*
G37*
G36*
G01Y139373D02*
G03X298373Y140630I-2130J-873D01*
G02Y141370I152J370D01*
G03X299630Y142627I-873J2130D01*
G02X300370I370J-152D01*
G03X301627Y141370I2130J873D01*
G02Y140630I-152J-370D01*
G03X300370Y139373I873J-2130D01*
G02X299630I-370J152D01*
G37*
G36*
G01Y159373D02*
G03X298373Y160630I-2130J-873D01*
G02Y161370I152J370D01*
G03X299630Y162627I-873J2130D01*
G02X300370I370J-152D01*
G03X301627Y161370I2130J873D01*
G02Y160630I-152J-370D01*
G03X300370Y159373I873J-2130D01*
G02X299630I-370J152D01*
G37*
G36*
G01X711002Y363000D02*
Y384498D01*
X719002D01*
Y398502D01*
X718998D01*
X718500Y399000D01*
X705500D01*
Y409500D01*
X729000D01*
Y375619D01*
G02X728491Y375234I-400J0D01*
G03Y371766I-491J-1734D01*
G02X729000Y371381I109J-385D01*
G01Y363000D01*
X722499D01*
G02X722100Y363420I0J400D01*
G03X718900I-1600J80D01*
G02X718501Y363000I-399J-20D01*
G01X711002D01*
G37*
G36*
G01X702028Y363520D02*
G03X698972I-1528J480D01*
G02X698591Y363000I-382J-120D01*
G01X696000D01*
Y397500D01*
X718000D01*
Y385500D01*
X710000D01*
Y369970D01*
G03Y368030I1398J-970D01*
G01Y363000D01*
X702409D01*
G02X702028Y363520I1J400D01*
G37*
G36*
G01X740000Y358500D02*
Y397500D01*
X759000D01*
Y358500D01*
X740000D01*
G37*
G36*
G01X760002D02*
Y398502D01*
X759998D01*
X759500Y399000D01*
X749500D01*
Y410500D01*
X783000D01*
Y358500D01*
X760002D01*
G37*
G36*
G01X833500Y384000D02*
Y361500D01*
X819500D01*
Y397500D01*
X841500D01*
Y384000D01*
X833500D01*
G37*
G36*
G01X834502Y361500D02*
Y368032D01*
G03X834605Y368202I-1401J965D01*
G02X835306Y368211I353J-188D01*
G03Y369789I1394J789D01*
G02X834605Y369798I-348J197D01*
G03X834502Y369968I-1504J-795D01*
G01Y382998D01*
X836618D01*
G02X836880Y382297I0J-400D01*
G03X839246I1183J-1360D01*
G02X839508Y382998I262J301D01*
G01X842502D01*
Y398502D01*
X829000D01*
Y409500D01*
X852500D01*
Y375619D01*
G02X851991Y375234I-400J0D01*
G03Y371766I-491J-1734D01*
G02X852500Y371381I109J-385D01*
G01Y361500D01*
X845203D01*
G02X844963Y362220I0J400D01*
G03X843037I-963J1280D01*
G02X842797Y361500I-240J-320D01*
G01X834502D01*
G37*
G36*
G01X883502Y358500D02*
Y398502D01*
X883498D01*
X883000Y399000D01*
X873000D01*
Y410500D01*
X906500D01*
Y358500D01*
X883502D01*
G37*
G36*
G01X863500D02*
Y397500D01*
X882500D01*
Y358500D01*
X863500D01*
G37*
G36*
G01X930500Y301500D02*
Y327500D01*
X934141D01*
X934187Y327365D01*
G03X940813I3313J1135D01*
G01X940859Y327500D01*
X944141D01*
X944187Y327365D01*
G03X950813I3313J1135D01*
G01X950859Y327500D01*
X981498D01*
Y325874D01*
G02X980879Y325539I-400J0D01*
G03X978800Y325261I-879J-1339D01*
G02X978200I-300J265D01*
G03X975800I-1200J-1061D01*
G02X975200I-300J265D01*
G03Y323139I-1200J-1061D01*
G02X975800I300J-265D01*
G03X978200I1200J1061D01*
G02X978800I300J-265D01*
G03X980879Y322861I1200J1061D01*
G02X981498Y322526I219J-335D01*
G01Y301500D01*
X930500D01*
G37*
G36*
G01X982500D02*
Y313592D01*
G02X983100Y313939I400J1D01*
G03Y317061I900J1561D01*
G02X982500Y317408I-200J346D01*
G01Y329000D01*
X950970D01*
X950939Y329162D01*
G03X944061I-3439J-662D01*
G01X944030Y329000D01*
X940970D01*
X940939Y329162D01*
G03X934061I-3439J-662D01*
G01X934030Y329000D01*
X930500D01*
Y346000D01*
X1009000D01*
Y301500D01*
X982500D01*
G37*
G36*
G01X932000Y363500D02*
Y389500D01*
X935641D01*
X935687Y389365D01*
G03X942313I3313J1135D01*
G01X942359Y389500D01*
X945641D01*
X945687Y389365D01*
G03X952313I3313J1135D01*
G01X952359Y389500D01*
X982998D01*
Y387874D01*
G02X982379Y387539I-400J0D01*
G03X980300Y387261I-879J-1339D01*
G02X979700I-300J265D01*
G03X977300I-1200J-1061D01*
G02X976700I-300J265D01*
G03Y385139I-1200J-1061D01*
G02X977300I300J-265D01*
G03X979700I1200J1061D01*
G02X980300I300J-265D01*
G03X982379Y384861I1200J1061D01*
G02X982998Y384526I219J-335D01*
G01Y363500D01*
X932000D01*
G37*
G36*
G01X984000D02*
Y375592D01*
G02X984600Y375939I400J1D01*
G03Y379061I900J1561D01*
G02X984000Y379408I-200J346D01*
G01Y391000D01*
X952470D01*
X952439Y391162D01*
G03X945561I-3439J-662D01*
G01X945530Y391000D01*
X942470D01*
X942439Y391162D01*
G03X935561I-3439J-662D01*
G01X935530Y391000D01*
X932000D01*
Y408000D01*
X1010500D01*
Y363500D01*
X984000D01*
G37*
G36*
G01X1034500Y302000D02*
Y328000D01*
X1037641D01*
X1037687Y327865D01*
G03X1044313I3313J1135D01*
G01X1044359Y328000D01*
X1047641D01*
X1047687Y327865D01*
G03X1054313I3313J1135D01*
G01X1054359Y328000D01*
X1085500D01*
Y302416D01*
X1085084Y302000D01*
X1034500D01*
G37*
G36*
G01X1087466D02*
G02X1087183Y302683I0J400D01*
G01X1087500Y303000D01*
Y313287D01*
G02X1088191Y313562I400J0D01*
G03Y316038I1309J1238D01*
G02X1087500Y316313I-291J275D01*
G01Y329000D01*
X1087000Y329500D01*
X1054470D01*
X1054439Y329662D01*
G03X1047561I-3439J-662D01*
G01X1047530Y329500D01*
X1044470D01*
X1044439Y329662D01*
G03X1037561I-3439J-662D01*
G01X1037530Y329500D01*
X1034000D01*
Y346500D01*
X1112500D01*
Y302500D01*
X1112000Y302000D01*
X1087466D01*
G37*
G36*
G01X1033500Y364500D02*
Y390500D01*
X1036641D01*
X1036687Y390365D01*
G03X1043313I3313J1135D01*
G01X1043359Y390500D01*
X1046641D01*
X1046687Y390365D01*
G03X1053313I3313J1135D01*
G01X1053359Y390500D01*
X1084500D01*
Y364916D01*
X1084084Y364500D01*
X1033500D01*
G37*
G36*
G01X1086466D02*
G02X1086183Y365183I0J400D01*
G01X1086500Y365500D01*
Y375787D01*
G02X1087191Y376062I400J0D01*
G03Y378538I1309J1238D01*
G02X1086500Y378813I-291J275D01*
G01Y391500D01*
X1086000Y392000D01*
X1053470D01*
X1053439Y392162D01*
G03X1046561I-3439J-662D01*
G01X1046530Y392000D01*
X1043470D01*
X1043439Y392162D01*
G03X1036561I-3439J-662D01*
G01X1036530Y392000D01*
X1033000D01*
Y409000D01*
X1111500D01*
Y365000D01*
X1111000Y364500D01*
X1086466D01*
G37*
G36*
G01X1193400Y300200D02*
Y323198D01*
X1233402D01*
Y323202D01*
X1233900Y323700D01*
Y333700D01*
X1245400D01*
Y300200D01*
X1193400D01*
G37*
G36*
G01Y324200D02*
Y343200D01*
X1232400D01*
Y324200D01*
X1193400D01*
G37*
%LPC*%
G75*
G36*
G01X83750Y245702D02*
G02Y248298I-1250J1298D01*
G02Y245702I1250J-1298D01*
G37*
G36*
G01X91800Y236439D02*
G03X91200I-300J-265D01*
G02Y238561I-1200J1061D01*
G03X91800I300J265D01*
G02Y236439I1200J-1061D01*
G37*
G36*
G01X79197Y218998D02*
G03X78997Y219198I-200J0D01*
G02X80802Y221003I3J1802D01*
G03X81002Y220803I200J0D01*
G02X79197Y218998I-3J-1802D01*
G37*
G36*
G01X76068Y212906D02*
G03X75432I-318J-242D01*
G02Y215094I-1432J1094D01*
G03X76068I318J242D01*
G02Y212906I1432J-1094D01*
G37*
G36*
G01X67633Y63901D02*
G02X65816Y64169I-1135J-1400D01*
G03X65935Y64834I-151J370D01*
G02X67711Y64573I1081J1182D01*
G03X67633Y63901I173J-361D01*
G37*
G36*
G01X121228Y248319D02*
G03X121772I272J293D01*
G02Y245681I1228J-1319D01*
G03X121228I-272J-293D01*
G02Y248319I-1228J1319D01*
G37*
G36*
G01X112891Y236344D02*
G03X112337I-277J-289D01*
G02Y238656I-1109J1156D01*
G03X112891I277J289D01*
G02Y236344I1109J-1156D01*
G37*
G36*
G01X119797Y165060D02*
G03Y164540I304J-260D01*
G02X117361I-1218J-1040D01*
G03Y165060I-304J260D01*
G02X119797I1218J1040D01*
G37*
G36*
G01X166068Y84406D02*
G03X165432I-318J-242D01*
G02Y86594I-1432J1094D01*
G03X166068I318J242D01*
G02Y84406I1432J-1094D01*
G37*
G36*
G01X119797Y85560D02*
G03Y85040I304J-260D01*
G02X117361I-1218J-1040D01*
G03Y85560I-304J260D01*
G02X119797I1218J1040D01*
G37*
G36*
G01X230400Y253222D02*
G02Y254778I-1400J778D01*
G03X231100I350J194D01*
G02Y253222I1400J-778D01*
G03X230400I-350J-194D01*
G37*
G36*
G01X117137Y202746D02*
G02Y204254I-1637J754D01*
G03X117863I363J167D01*
G02Y202746I1637J-754D01*
G03X117137I-363J-167D01*
G37*
G36*
G01X136679Y143876D02*
G03X136779Y144478I-205J343D01*
G02X138821Y144140I1221J1038D01*
G03X138721Y143538I205J-343D01*
G02X136679Y143876I-1221J-1038D01*
G37*
G36*
G01X150568Y116934D02*
G03X149932I-318J-242D01*
G02Y119122I-1432J1094D01*
G03X150568I318J242D01*
G02Y116934I1432J-1094D01*
G37*
G36*
G01X137540Y55662D02*
G03X137091Y55312I-52J-397D01*
G02X135710Y57088I-1591J188D01*
G03X136159Y57438I52J397D01*
G02X137540Y55662I1591J-188D01*
G37*
G36*
G01X229904Y109701D02*
G02X228710Y108209I596J-1701D01*
G03X228205Y108640I-397J46D01*
G02X229373Y110099I-432J1543D01*
G03X229904Y109701I399J-21D01*
G37*
G36*
G01X163099Y59905D02*
G02X162119Y61478I-1599J95D01*
G03X162673Y61823I155J369D01*
G02X163653Y60250I1599J-95D01*
G03X163099Y59905I-155J-369D01*
G37*
G36*
G01X374630Y42627D02*
G02X371627Y45630I-2130J873D01*
G03Y46370I-152J370D01*
G02Y50630I873J2130D01*
G03Y51370I-152J370D01*
G02Y55630I873J2130D01*
G03Y56370I-152J370D01*
G02Y60630I873J2130D01*
G03Y61370I-152J370D01*
G02Y65630I873J2130D01*
G03Y66370I-152J370D01*
G02Y70630I873J2130D01*
G03Y71370I-152J370D01*
G02Y75630I873J2130D01*
G03Y76370I-152J370D01*
G02Y80630I873J2130D01*
G03Y81370I-152J370D01*
G02Y85630I873J2130D01*
G03Y86370I-152J370D01*
G02Y90630I873J2130D01*
G03Y91370I-152J370D01*
G02Y95630I873J2130D01*
G03Y96370I-152J370D01*
G02Y100630I873J2130D01*
G03Y101370I-152J370D01*
G02Y105630I873J2130D01*
G03Y106370I-152J370D01*
G02Y110630I873J2130D01*
G03Y111370I-152J370D01*
G02Y115630I873J2130D01*
G03Y116370I-152J370D01*
G02Y120630I873J2130D01*
G03Y121370I-152J370D01*
G02Y125630I873J2130D01*
G03Y126370I-152J370D01*
G02Y130630I873J2130D01*
G03Y131370I-152J370D01*
G02Y135630I873J2130D01*
G03Y136370I-152J370D01*
G02Y140630I873J2130D01*
G03Y141370I-152J370D01*
G02Y145630I873J2130D01*
G03Y146370I-152J370D01*
G02X370366Y147636I873J2130D01*
G03X369734Y147789I-371J-150D01*
G02X367337Y148134I-1049J1211D01*
G03X366664I-336J-216D01*
G02Y149866I-1348J866D01*
G03X367337I337J216D01*
G02X370010Y149900I1348J-866D01*
G03X370661Y149884I331J225D01*
G02X371627Y150630I1840J-1384D01*
G03Y151370I-152J370D01*
G02Y155630I873J2130D01*
G03Y156370I-152J370D01*
G02Y160630I873J2130D01*
G03Y161370I-152J370D01*
G02X374630Y164373I873J2130D01*
G03X375370I370J152D01*
G02X378373Y161370I2130J-873D01*
G03Y160630I152J-370D01*
G02Y156370I-873J-2130D01*
G03Y155630I152J-370D01*
G02Y151370I-873J-2130D01*
G03Y150630I152J-370D01*
G02Y146370I-873J-2130D01*
G03Y145630I152J-370D01*
G02Y141370I-873J-2130D01*
G03Y140630I152J-370D01*
G02Y136370I-873J-2130D01*
G03Y135630I152J-370D01*
G02Y131370I-873J-2130D01*
G03Y130630I152J-370D01*
G02Y126370I-873J-2130D01*
G03Y125630I152J-370D01*
G02Y121370I-873J-2130D01*
G03Y120630I152J-370D01*
G02Y116370I-873J-2130D01*
G03Y115630I152J-370D01*
G02Y111370I-873J-2130D01*
G03Y110630I152J-370D01*
G02Y106370I-873J-2130D01*
G03Y105630I152J-370D01*
G02Y101370I-873J-2130D01*
G03Y100630I152J-370D01*
G02Y96370I-873J-2130D01*
G03Y95630I152J-370D01*
G02Y91370I-873J-2130D01*
G03Y90630I152J-370D01*
G02Y86370I-873J-2130D01*
G03Y85630I152J-370D01*
G02Y81370I-873J-2130D01*
G03Y80630I152J-370D01*
G02Y76370I-873J-2130D01*
G03Y75630I152J-370D01*
G02Y71370I-873J-2130D01*
G03Y70630I152J-370D01*
G02Y66370I-873J-2130D01*
G03Y65630I152J-370D01*
G02Y61370I-873J-2130D01*
G03Y60630I152J-370D01*
G02Y56370I-873J-2130D01*
G03Y55630I152J-370D01*
G02Y51370I-873J-2130D01*
G03Y50630I152J-370D01*
G02Y46370I-873J-2130D01*
G03Y45630I152J-370D01*
G02X375370Y42627I-873J-2130D01*
G03X374630I-370J-152D01*
G37*
G36*
G01X392281Y200134D02*
G02Y201866I-1348J866D01*
G03X392954I337J216D01*
G02Y200134I1348J-866D01*
G03X392281I-337J-216D01*
G37*
G36*
G01X364164D02*
G02Y201866I-1348J866D01*
G03X364837I337J216D01*
G02Y200134I1348J-866D01*
G03X364164I-336J-216D01*
G37*
G36*
G01X354664D02*
G02Y201866I-1348J866D01*
G03X355337I337J216D01*
G02Y200134I1348J-866D01*
G03X354664I-337J-216D01*
G37*
G36*
G01X345164D02*
G02Y201866I-1348J866D01*
G03X345837I337J216D01*
G02Y200134I1348J-866D01*
G03X345164I-336J-216D01*
G37*
G36*
G01X383164Y199634D02*
G02Y201366I-1348J866D01*
G03X383837I337J216D01*
G02Y199634I1348J-866D01*
G03X383164I-336J-216D01*
G37*
G36*
G01X373281D02*
G02Y201366I-1348J866D01*
G03X373954I337J216D01*
G02Y199634I1348J-866D01*
G03X373281I-336J-216D01*
G37*
G36*
G01X313163Y198634D02*
G02Y200366I-1348J866D01*
G03X313836I336J216D01*
G02Y198634I1348J-866D01*
G03X313163I-337J-216D01*
G37*
G36*
G01X320979Y182134D02*
G02Y183866I-1348J866D01*
G03X321652I337J216D01*
G02Y182134I1348J-866D01*
G03X320979I-336J-216D01*
G37*
G36*
G01X338900Y179222D02*
G02Y180778I-1400J778D01*
G03X339600I350J194D01*
G02Y179222I1400J-778D01*
G03X338900I-350J-194D01*
G37*
G36*
G01X388164Y175634D02*
G02Y177366I-1348J866D01*
G03X388837I337J216D01*
G02Y175634I1348J-866D01*
G03X388164I-337J-216D01*
G37*
G36*
G01X388664Y163134D02*
G02Y164866I-1348J866D01*
G03X389337I337J216D01*
G02Y163134I1348J-866D01*
G03X388664I-336J-216D01*
G37*
G36*
G01X392281Y156134D02*
G02Y157866I-1348J866D01*
G03X392954I337J216D01*
G02Y156134I1348J-866D01*
G03X392281I-337J-216D01*
G37*
G36*
G01X287773Y150078D02*
G02X287270Y151678I-1773J322D01*
G03X287941Y151870I282J284D01*
G02X288319Y152582I1558J-371D01*
G03X288223Y153200I-295J271D01*
G02X287328Y154960I896J1563D01*
G03X286761Y155367I-398J44D01*
G02X287791Y156803I-761J1633D01*
G03X288358Y156396I398J-44D01*
G02X290351Y153448I761J-1633D01*
G03X290400Y152825I274J-292D01*
G02X288433Y150305I-900J-1325D01*
G03X287773Y150078I-266J-298D01*
G37*
G36*
G01X383164Y149134D02*
G02Y150866I-1348J866D01*
G03X383837I337J216D01*
G02Y149134I1348J-866D01*
G03X383164I-336J-216D01*
G37*
G36*
G01X357664Y136634D02*
G02Y138366I-1348J866D01*
G03X358337I337J216D01*
G02Y136634I1348J-866D01*
G03X357664I-336J-216D01*
G37*
G36*
G01X352479Y129634D02*
G02Y131366I-1348J866D01*
G03X353152I337J216D01*
G02Y129634I1348J-866D01*
G03X352479I-336J-216D01*
G37*
G36*
G01X412964Y111634D02*
G02Y113366I-1348J866D01*
G03X413637I336J216D01*
G02Y111634I1348J-866D01*
G03X412964I-337J-216D01*
G37*
G36*
G01X354854Y85762D02*
G02X353353Y86046I-1054J-1462D01*
G03X353503Y86746I-99J387D01*
G02X354970Y86469I996J1254D01*
G03X354854Y85762I118J-382D01*
G37*
G36*
G01X347491Y55449D02*
G02X346389Y54432I409J-1549D01*
G03X345909Y54951I-377J132D01*
G02X347011Y55968I-409J1549D01*
G03X347491Y55449I377J-132D01*
G37*
G36*
G01X347451Y126399D02*
G03X347051Y125899I-12J-400D01*
G02X345549Y127101I-1551J-399D01*
G03X345949Y127601I12J400D01*
G02X347451Y126399I1551J399D01*
G37*
G36*
G01X283317Y131361D02*
G03X283889Y131271I329J228D01*
G02X283547Y129088I975J-1271D01*
G03X282975Y129178I-329J-228D01*
G02X283317Y131361I-975J1271D01*
G37*
G36*
G01X342424Y146104D02*
G03X342705Y146070I157J123D01*
G02X342394Y143548I1113J-1417D01*
G03X342113Y143582I-157J-123D01*
G02X339658Y143798I-1112J1418D01*
G03X339088Y143824I-298J-267D01*
G02Y146176I-1088J1176D01*
G03X339658Y146202I272J293D01*
G02X342424Y146104I1342J-1202D01*
G37*
G36*
G01X331978Y152356D02*
G03X331872Y151827I236J-322D01*
G02X329552Y152292I-1372J-827D01*
G03X329658Y152821I-236J322D01*
G02X331978Y152356I1372J827D01*
G37*
G36*
G01X346101Y172073D02*
G03X346088Y171450I244J-317D01*
G02X343831Y171495I-1157J-1382D01*
G03X343844Y172118I-244J317D01*
G02X346101Y172073I1157J1382D01*
G37*
G36*
G01X746683Y368620D02*
G03Y368080I295J-270D01*
G02X744317I-1183J-1080D01*
G03Y368620I-295J270D01*
G02X746683I1183J1080D01*
G37*
G36*
G01X752300Y360439D02*
G03X751700I-300J-265D01*
G02Y362561I-1200J1061D01*
G03X752300I300J265D01*
G02X754700I1200J-1061D01*
G03X755300I300J265D01*
G02Y360439I1200J-1061D01*
G03X754700I-300J-265D01*
G02X752300I-1200J1061D01*
G37*
G36*
G01X770183Y368620D02*
G03Y368080I295J-270D01*
G02X767817I-1183J-1080D01*
G03Y368620I-295J270D01*
G02X770183I1183J1080D01*
G37*
G36*
G01X775800Y360439D02*
G03X775200I-300J-265D01*
G02Y362561I-1200J1061D01*
G03X775800I300J265D01*
G02X778200I1200J-1061D01*
G03X778800I300J265D01*
G02Y360439I1200J-1061D01*
G03X778200I-300J-265D01*
G02X775800I-1200J1061D01*
G37*
G36*
G01X893683Y368620D02*
G03Y368080I295J-270D01*
G02X891317I-1183J-1080D01*
G03Y368620I-295J270D01*
G02X893683I1183J1080D01*
G37*
G36*
G01X899300Y360439D02*
G03X898700I-300J-265D01*
G02Y362561I-1200J1061D01*
G03X899300I300J265D01*
G02X901700I1200J-1061D01*
G03X902300I300J265D01*
G02Y360439I1200J-1061D01*
G03X901700I-300J-265D01*
G02X899300I-1200J1061D01*
G37*
G36*
G01X870183Y368620D02*
G03Y368080I295J-270D01*
G02X867817I-1183J-1080D01*
G03Y368620I-295J270D01*
G02X870183I1183J1080D01*
G37*
G36*
G01X875800Y360439D02*
G03X875200I-300J-265D01*
G02Y362561I-1200J1061D01*
G03X875800I300J265D01*
G02X878200I1200J-1061D01*
G03X878800I300J265D01*
G02Y360439I1200J-1061D01*
G03X878200I-300J-265D01*
G02X875800I-1200J1061D01*
G37*
G36*
G01X1079480Y324332D02*
G03Y323768I284J-282D01*
G02X1076920I-1280J-1268D01*
G03Y324332I-284J282D01*
G02X1079480I1280J1268D01*
G37*
G36*
G01X1078480Y386832D02*
G03Y386268I284J-282D01*
G02X1075920I-1280J-1268D01*
G03Y386832I-284J282D01*
G02X1078480I1280J1268D01*
G37*
G36*
G01X1203520Y313017D02*
G03X1202980I-270J-295D01*
G02Y315383I-1080J1183D01*
G03X1203520I270J295D01*
G02Y313017I1080J-1183D01*
G37*
G36*
G01X1197461Y305000D02*
G03Y304400I265J-300D01*
G02X1195339I-1061J-1200D01*
G03Y305000I-265J300D01*
G02Y307400I1061J1200D01*
G03Y308000I-265J300D01*
G02X1197461I1061J1200D01*
G03Y307400I265J-300D01*
G02Y305000I-1061J-1200D01*
G37*
G36*
G01X1203520Y336517D02*
G03X1202980I-270J-295D01*
G02Y338883I-1080J1183D01*
G03X1203520I270J295D01*
G02Y336517I1080J-1183D01*
G37*
G36*
G01X1197461Y328500D02*
G03Y327900I265J-300D01*
G02X1195339I-1061J-1200D01*
G03Y328500I-265J300D01*
G02Y330900I1061J1200D01*
G03Y331500I-265J300D01*
G02X1197461I1061J1200D01*
G03Y330900I265J-300D01*
G02Y328500I-1061J-1200D01*
G37*
G54D37*
X1005000Y318400D03*
Y323900D03*
Y328900D03*
X1006500Y390900D03*
Y385900D03*
Y380400D03*
X1108500Y318900D03*
Y324400D03*
Y329400D03*
X1107500Y391900D03*
Y386900D03*
Y381400D03*
G54D32*
X62049Y60451D03*
X62000Y131500D03*
X65500Y271000D03*
X67016Y189016D03*
X67500Y208500D03*
X83500Y232000D03*
X72000Y264000D03*
X69000Y267500D03*
X76000Y262000D03*
X94500Y208500D03*
X104500Y277000D03*
X99500D03*
X112000D03*
X117000D03*
X275500Y265300D03*
X275864Y257636D03*
X275500Y253000D03*
X281000Y268500D03*
X293500Y263000D03*
X299450D03*
X286000Y255453D03*
X346827Y263327D03*
X353000Y266000D03*
X355000Y253000D03*
X361000Y268500D03*
X373000Y263000D03*
X378950D03*
X401500Y263500D03*
X421500Y267000D03*
X439000Y267500D03*
X452000Y263000D03*
X444500Y255453D03*
X434000Y253000D03*
X80610Y60110D03*
X76079Y62079D03*
X86500Y74000D03*
X80500Y104500D03*
X82500Y158500D03*
X80390Y148890D03*
Y139610D03*
X76079Y141579D03*
Y158921D03*
X83000Y178350D03*
X106000Y41063D03*
X90500Y77000D03*
X94500Y84500D03*
X90500Y156500D03*
X94500Y164000D03*
X100000Y178350D03*
X118500Y39000D03*
X112000Y179000D03*
X118500Y185000D03*
X202300Y41500D03*
X202500Y46000D03*
X202300Y35500D03*
Y31500D03*
X278000Y235500D03*
X320000Y245000D03*
X399500Y246000D03*
X478500D03*
X109579Y71921D03*
X109000Y77000D03*
X109579Y151421D03*
X109000Y156500D03*
X124500Y52500D03*
X118579Y53000D03*
X112000Y54000D03*
X119000Y71500D03*
Y62500D03*
X123500Y67000D03*
X128000Y71500D03*
Y62500D03*
X113000Y76983D03*
X118500Y105500D03*
X112000Y115000D03*
X112500Y132596D03*
X118579Y132500D03*
X118500Y118500D03*
X125500D03*
X129000Y132500D03*
Y120000D03*
X110516Y147484D03*
X119000Y142000D03*
X123500Y146500D03*
X128000Y142000D03*
X119000Y151000D03*
X113000Y156483D03*
X128000Y151000D03*
X151500Y60500D03*
Y55500D03*
X137500Y70500D03*
X134500Y135500D03*
X151500Y135000D03*
X138469Y135470D03*
X150437Y151437D03*
X151500Y140000D03*
X137500Y150000D03*
X168500Y55500D03*
Y66500D03*
X157000Y123500D03*
X153000Y154500D03*
X190500Y38500D03*
X195500Y38484D03*
X175547Y64700D03*
X186000Y62500D03*
X181000Y69000D03*
X176500Y108801D03*
X176792Y120793D03*
X228500Y55000D03*
X191000Y148000D03*
X196500Y147984D03*
X202800Y140000D03*
Y145000D03*
Y151000D03*
Y154701D03*
X234500Y236500D03*
X228500D03*
X414400Y48000D03*
X397500Y185000D03*
X399500Y166000D03*
X400000Y176000D03*
X399000Y157500D03*
X403453Y148081D03*
X409036Y104664D03*
X405400Y101300D03*
X403600Y117100D03*
X390500Y54000D03*
X392500Y33500D03*
X396000Y30500D03*
X369000Y38500D03*
X349000Y175000D03*
X361000Y163500D03*
X355500Y161000D03*
X350500Y137000D03*
X362500Y83000D03*
X347963Y59272D03*
X358000Y72000D03*
X366000Y73500D03*
X358000Y67500D03*
X330000Y199500D03*
X333000Y175500D03*
X346500Y121000D03*
X330500Y139000D03*
X320500Y199500D03*
X309500Y172000D03*
X312500Y174000D03*
X313500Y180000D03*
X312000Y158000D03*
X312500Y145000D03*
X306500Y116000D03*
X301250Y184750D03*
X302315Y200000D03*
X289500Y172000D03*
X284364Y117500D03*
X289126Y117126D03*
X274500Y188500D03*
X278000Y203500D03*
X275272Y196228D03*
X280772D03*
X263898Y149300D03*
X268000Y158000D03*
Y149500D03*
X272500Y132500D03*
X263500Y50500D03*
X253500Y42500D03*
X713200Y369000D03*
X707800D03*
X762500Y364000D03*
X763406Y368406D03*
X824000Y364000D03*
X831300Y369000D03*
X886000Y364000D03*
X886906Y368406D03*
X985000Y320000D03*
X986500Y382000D03*
X1198900Y320700D03*
X1203306Y319794D03*
G54D34*
X88500Y44500D03*
X85500Y168000D03*
X714000Y403000D03*
X724000Y393000D03*
Y403000D03*
X714000Y393000D03*
X744000D03*
X754000D03*
Y403000D03*
X764000Y393000D03*
Y403000D03*
X837500Y393000D03*
Y403000D03*
X847500Y393000D03*
Y403000D03*
X887500Y393000D03*
X877500Y403000D03*
X887500D03*
X867500Y393000D03*
X877500D03*
X937500Y308500D03*
X947500D03*
X937500Y318500D03*
X947500D03*
X937500Y338500D03*
X947500D03*
X939000Y370500D03*
X949000D03*
X939000Y380500D03*
X949000D03*
X939000Y400500D03*
X949000D03*
X1041000Y309000D03*
X1051000D03*
X1041000Y319000D03*
X1051000D03*
X1041000Y339000D03*
X1051000D03*
X1040000Y371500D03*
X1050000D03*
X1040000Y381500D03*
X1050000D03*
X1040000Y401500D03*
X1050000D03*
X1227900Y319200D03*
X1237900Y329200D03*
Y319200D03*
X1227900Y329200D03*
Y339200D03*
G54D31*
X62250Y66750D03*
X66500Y138600D03*
X62000Y143000D03*
X85999Y206500D03*
X80000D03*
X90937D03*
X98437Y251937D03*
X410000Y268000D03*
X416000D03*
X106094Y202594D03*
X167500Y41000D03*
Y90500D03*
X476500Y234000D03*
X482000D03*
X138469Y104500D03*
X171000Y132500D03*
X164500Y118000D03*
X168000Y139500D03*
Y145500D03*
Y150500D03*
X221500Y35000D03*
Y42000D03*
Y84500D03*
Y91500D03*
X236000Y108000D03*
X241125Y107875D03*
X222000Y144500D03*
X243500Y131678D03*
X244000Y141000D03*
Y146500D03*
X209000Y217500D03*
Y235500D03*
X213709Y226000D03*
X424500Y134000D03*
X417500Y115500D03*
X416000Y106000D03*
X414400Y56000D03*
Y61500D03*
Y66500D03*
X408900Y116800D03*
X395636Y103500D03*
X400364Y89364D03*
X394400Y59500D03*
X398400Y66500D03*
X407000Y36000D03*
X353864Y42636D03*
Y51000D03*
X333000Y157000D03*
X337747Y157063D03*
Y132563D03*
X330500D03*
X345000Y46500D03*
X340000D03*
X316000Y172000D03*
X315000Y168000D03*
X309500Y147500D03*
X319500Y157500D03*
X312000Y132500D03*
X318500D03*
X280000Y168000D03*
X268000Y167937D03*
X263500D03*
X280000Y139500D03*
X263500Y139563D03*
X268000D03*
X261000Y46500D03*
X256000D03*
X249000Y42250D03*
X249500Y51000D03*
X714563Y380937D03*
X706437D03*
X829937D03*
X1093500Y315500D03*
X1092500Y378000D03*
G54D30*
X23000Y208500D03*
Y213500D03*
Y218500D03*
Y223500D03*
Y228500D03*
Y233500D03*
X28000Y208500D03*
Y213500D03*
Y218500D03*
Y223500D03*
Y228500D03*
Y233500D03*
G54D36*
X407000Y88000D03*
G54D33*
X92500Y259500D03*
G54D35*
X258360Y244480D03*
%LPD*%
G75*
G36*
G01X374630Y49373D02*
G03X373373Y50630I-2130J-873D01*
G02Y51370I152J370D01*
G03X374630Y52627I-873J2130D01*
G02X375370I370J-152D01*
G03X376627Y51370I2130J873D01*
G02Y50630I-152J-370D01*
G03X375370Y49373I873J-2130D01*
G02X374630I-370J152D01*
G37*
G36*
G01Y44373D02*
G03X373373Y45630I-2130J-873D01*
G02Y46370I152J370D01*
G03X374630Y47627I-873J2130D01*
G02X375370I370J-152D01*
G03X376627Y46370I2130J873D01*
G02Y45630I-152J-370D01*
G03X375370Y44373I873J-2130D01*
G02X374630I-370J152D01*
G37*
G36*
G01Y69373D02*
G03X373373Y70630I-2130J-873D01*
G02Y71370I152J370D01*
G03X374630Y72627I-873J2130D01*
G02X375370I370J-152D01*
G03X376627Y71370I2130J873D01*
G02Y70630I-152J-370D01*
G03X375370Y69373I873J-2130D01*
G02X374630I-370J152D01*
G37*
G36*
G01Y64373D02*
G03X373373Y65630I-2130J-873D01*
G02Y66370I152J370D01*
G03X374630Y67627I-873J2130D01*
G02X375370I370J-152D01*
G03X376627Y66370I2130J873D01*
G02Y65630I-152J-370D01*
G03X375370Y64373I873J-2130D01*
G02X374630I-370J152D01*
G37*
G36*
G01Y59373D02*
G03X373373Y60630I-2130J-873D01*
G02Y61370I152J370D01*
G03X374630Y62627I-873J2130D01*
G02X375370I370J-152D01*
G03X376627Y61370I2130J873D01*
G02Y60630I-152J-370D01*
G03X375370Y59373I873J-2130D01*
G02X374630I-370J152D01*
G37*
G36*
G01Y54373D02*
G03X373373Y55630I-2130J-873D01*
G02Y56370I152J370D01*
G03X374630Y57627I-873J2130D01*
G02X375370I370J-152D01*
G03X376627Y56370I2130J873D01*
G02Y55630I-152J-370D01*
G03X375370Y54373I873J-2130D01*
G02X374630I-370J152D01*
G37*
G36*
G01Y94373D02*
G03X373373Y95630I-2130J-873D01*
G02Y96370I152J370D01*
G03X374630Y97627I-873J2130D01*
G02X375370I370J-152D01*
G03X376627Y96370I2130J873D01*
G02Y95630I-152J-370D01*
G03X375370Y94373I873J-2130D01*
G02X374630I-370J152D01*
G37*
G36*
G01Y89373D02*
G03X373373Y90630I-2130J-873D01*
G02Y91370I152J370D01*
G03X374630Y92627I-873J2130D01*
G02X375370I370J-152D01*
G03X376627Y91370I2130J873D01*
G02Y90630I-152J-370D01*
G03X375370Y89373I873J-2130D01*
G02X374630I-370J152D01*
G37*
G36*
G01Y84373D02*
G03X373373Y85630I-2130J-873D01*
G02Y86370I152J370D01*
G03X374630Y87627I-873J2130D01*
G02X375370I370J-152D01*
G03X376627Y86370I2130J873D01*
G02Y85630I-152J-370D01*
G03X375370Y84373I873J-2130D01*
G02X374630I-370J152D01*
G37*
G36*
G01Y79373D02*
G03X373373Y80630I-2130J-873D01*
G02Y81370I152J370D01*
G03X374630Y82627I-873J2130D01*
G02X375370I370J-152D01*
G03X376627Y81370I2130J873D01*
G02Y80630I-152J-370D01*
G03X375370Y79373I873J-2130D01*
G02X374630I-370J152D01*
G37*
G36*
G01Y74373D02*
G03X373373Y75630I-2130J-873D01*
G02Y76370I152J370D01*
G03X374630Y77627I-873J2130D01*
G02X375370I370J-152D01*
G03X376627Y76370I2130J873D01*
G02Y75630I-152J-370D01*
G03X375370Y74373I873J-2130D01*
G02X374630I-370J152D01*
G37*
G36*
G01Y114373D02*
G03X373373Y115630I-2130J-873D01*
G02Y116370I152J370D01*
G03X374630Y117627I-873J2130D01*
G02X375370I370J-152D01*
G03X376627Y116370I2130J873D01*
G02Y115630I-152J-370D01*
G03X375370Y114373I873J-2130D01*
G02X374630I-370J152D01*
G37*
G36*
G01Y109373D02*
G03X373373Y110630I-2130J-873D01*
G02Y111370I152J370D01*
G03X374630Y112627I-873J2130D01*
G02X375370I370J-152D01*
G03X376627Y111370I2130J873D01*
G02Y110630I-152J-370D01*
G03X375370Y109373I873J-2130D01*
G02X374630I-370J152D01*
G37*
G36*
G01Y104373D02*
G03X373373Y105630I-2130J-873D01*
G02Y106370I152J370D01*
G03X374630Y107627I-873J2130D01*
G02X375370I370J-152D01*
G03X376627Y106370I2130J873D01*
G02Y105630I-152J-370D01*
G03X375370Y104373I873J-2130D01*
G02X374630I-370J152D01*
G37*
G36*
G01Y99373D02*
G03X373373Y100630I-2130J-873D01*
G02Y101370I152J370D01*
G03X374630Y102627I-873J2130D01*
G02X375370I370J-152D01*
G03X376627Y101370I2130J873D01*
G02Y100630I-152J-370D01*
G03X375370Y99373I873J-2130D01*
G02X374630I-370J152D01*
G37*
G36*
G01Y134373D02*
G03X373373Y135630I-2130J-873D01*
G02Y136370I152J370D01*
G03X374630Y137627I-873J2130D01*
G02X375370I370J-152D01*
G03X376627Y136370I2130J873D01*
G02Y135630I-152J-370D01*
G03X375370Y134373I873J-2130D01*
G02X374630I-370J152D01*
G37*
G36*
G01Y129373D02*
G03X373373Y130630I-2130J-873D01*
G02Y131370I152J370D01*
G03X374630Y132627I-873J2130D01*
G02X375370I370J-152D01*
G03X376627Y131370I2130J873D01*
G02Y130630I-152J-370D01*
G03X375370Y129373I873J-2130D01*
G02X374630I-370J152D01*
G37*
G36*
G01Y124373D02*
G03X373373Y125630I-2130J-873D01*
G02Y126370I152J370D01*
G03X374630Y127627I-873J2130D01*
G02X375370I370J-152D01*
G03X376627Y126370I2130J873D01*
G02Y125630I-152J-370D01*
G03X375370Y124373I873J-2130D01*
G02X374630I-370J152D01*
G37*
G36*
G01Y119373D02*
G03X373373Y120630I-2130J-873D01*
G02Y121370I152J370D01*
G03X374630Y122627I-873J2130D01*
G02X375370I370J-152D01*
G03X376627Y121370I2130J873D01*
G02Y120630I-152J-370D01*
G03X375370Y119373I873J-2130D01*
G02X374630I-370J152D01*
G37*
G36*
G01Y154373D02*
G03X373373Y155630I-2130J-873D01*
G02Y156370I152J370D01*
G03X374630Y157627I-873J2130D01*
G02X375370I370J-152D01*
G03X376627Y156370I2130J873D01*
G02Y155630I-152J-370D01*
G03X375370Y154373I873J-2130D01*
G02X374630I-370J152D01*
G37*
G36*
G01Y149373D02*
G03X373373Y150630I-2130J-873D01*
G02Y151370I152J370D01*
G03X374630Y152627I-873J2130D01*
G02X375370I370J-152D01*
G03X376627Y151370I2130J873D01*
G02Y150630I-152J-370D01*
G03X375370Y149373I873J-2130D01*
G02X374630I-370J152D01*
G37*
G36*
G01Y144373D02*
G03X373373Y145630I-2130J-873D01*
G02Y146370I152J370D01*
G03X374630Y147627I-873J2130D01*
G02X375370I370J-152D01*
G03X376627Y146370I2130J873D01*
G02Y145630I-152J-370D01*
G03X375370Y144373I873J-2130D01*
G02X374630I-370J152D01*
G37*
G36*
G01Y139373D02*
G03X373373Y140630I-2130J-873D01*
G02Y141370I152J370D01*
G03X374630Y142627I-873J2130D01*
G02X375370I370J-152D01*
G03X376627Y141370I2130J873D01*
G02Y140630I-152J-370D01*
G03X375370Y139373I873J-2130D01*
G02X374630I-370J152D01*
G37*
G36*
G01Y159373D02*
G03X373373Y160630I-2130J-873D01*
G02Y161370I152J370D01*
G03X374630Y162627I-873J2130D01*
G02X375370I370J-152D01*
G03X376627Y161370I2130J873D01*
G02Y160630I-152J-370D01*
G03X375370Y159373I873J-2130D01*
G02X374630I-370J152D01*
G37*
G54D10*
X23000Y38500D03*
Y43500D03*
Y48500D03*
Y53500D03*
Y58500D03*
Y63500D03*
Y68500D03*
Y73500D03*
Y78500D03*
Y83500D03*
Y88500D03*
Y93500D03*
Y98500D03*
Y103500D03*
Y108500D03*
Y113500D03*
Y118500D03*
Y123500D03*
Y128500D03*
Y133500D03*
Y138500D03*
Y143500D03*
Y148500D03*
Y153500D03*
Y158500D03*
Y163500D03*
Y168500D03*
Y173500D03*
Y178500D03*
Y183500D03*
Y188500D03*
Y193500D03*
Y198500D03*
Y203500D03*
Y208500D03*
Y213500D03*
Y218500D03*
Y223500D03*
Y228500D03*
Y233500D03*
X43000Y38500D03*
Y43500D03*
Y48500D03*
Y53500D03*
X28000Y38500D03*
Y43500D03*
Y48500D03*
Y53500D03*
X43000Y58500D03*
Y63500D03*
Y68500D03*
Y73500D03*
X28000Y58500D03*
Y63500D03*
Y68500D03*
Y73500D03*
X43000Y78500D03*
Y83500D03*
Y88500D03*
Y93500D03*
X28000Y78500D03*
Y83500D03*
Y88500D03*
Y93500D03*
X43000Y98500D03*
Y103500D03*
Y108500D03*
Y113500D03*
Y118500D03*
X28000Y98500D03*
Y103500D03*
Y108500D03*
Y113500D03*
Y118500D03*
X43000Y123500D03*
Y128500D03*
Y133500D03*
Y138500D03*
X28000Y123500D03*
Y128500D03*
Y133500D03*
Y138500D03*
X43000Y143500D03*
Y148500D03*
Y153500D03*
Y158500D03*
X28000Y143500D03*
Y148500D03*
Y153500D03*
Y158500D03*
X43000Y163500D03*
Y168500D03*
Y173500D03*
Y178500D03*
Y183500D03*
X28000Y163500D03*
Y168500D03*
Y173500D03*
Y178500D03*
Y183500D03*
X43000Y188500D03*
Y193500D03*
Y198500D03*
Y203500D03*
X28000Y188500D03*
Y193500D03*
Y198500D03*
Y203500D03*
X43000Y208500D03*
Y213500D03*
Y218500D03*
Y223500D03*
X28000Y208500D03*
Y213500D03*
Y218500D03*
Y223500D03*
X43000Y228500D03*
Y233500D03*
X28000Y228500D03*
Y233500D03*
X48000Y38500D03*
Y43500D03*
Y48500D03*
Y53500D03*
Y58500D03*
Y63500D03*
Y68500D03*
Y73500D03*
Y78500D03*
Y83500D03*
Y88500D03*
Y93500D03*
Y98500D03*
Y103500D03*
Y108500D03*
Y113500D03*
Y118500D03*
Y123500D03*
Y128500D03*
Y133500D03*
Y138500D03*
Y143500D03*
Y148500D03*
Y153500D03*
Y158500D03*
Y163500D03*
Y168500D03*
Y173500D03*
Y178500D03*
Y183500D03*
Y188500D03*
Y193500D03*
Y198500D03*
Y203500D03*
Y208500D03*
Y213500D03*
Y218500D03*
Y223500D03*
Y228500D03*
Y233500D03*
G54D20*
X178700Y263450D03*
G54D11*
X14500Y45000D03*
X15500Y166000D03*
X10500Y222500D03*
X39000Y81000D03*
X38770Y105577D03*
X34000Y114500D03*
X33000Y189000D03*
X38500Y239000D03*
X34000Y230500D03*
X37000Y236000D03*
X66500Y7000D03*
X59500Y22500D03*
X66000Y27500D03*
X59676Y18500D03*
X63000Y14500D03*
X62049Y60451D03*
X52500Y96000D03*
X52220Y134280D03*
X57000Y138500D03*
X58500Y120500D03*
X62000Y131500D03*
X53500Y147500D03*
Y193500D03*
X54000Y229000D03*
X57500Y234500D03*
X56000Y247500D03*
X65500Y271000D03*
X71500Y9150D03*
X69000Y4500D03*
X72500Y27500D03*
X71000Y64000D03*
X80610Y60110D03*
X67016Y66016D03*
X76079Y62079D03*
X86500Y74000D03*
X71350Y113150D03*
X80500Y104500D03*
X71000Y143547D03*
X80390Y148890D03*
Y139610D03*
X76079Y141579D03*
Y158921D03*
X82500Y158500D03*
X83000Y178350D03*
X67016Y189016D03*
X82577Y201000D03*
X67500Y208500D03*
X83500Y232000D03*
X72000Y264000D03*
X69000Y267500D03*
X76000Y262000D03*
X106000Y41063D03*
X106500Y66500D03*
X109579Y71921D03*
X90500Y77000D03*
X94500Y84500D03*
X109000Y77000D03*
X109579Y151421D03*
X90500Y156500D03*
X109000D03*
X94500Y164000D03*
X100000Y178350D03*
X92500Y203000D03*
X94500Y208500D03*
X97724Y229576D03*
X100724D03*
X103724D03*
X106724D03*
X97724Y232576D03*
X100724D03*
X103724D03*
X106724D03*
X93000Y237500D03*
X90000D03*
X104500Y277000D03*
X99500D03*
X125000Y18500D03*
X118500Y39000D03*
X124500Y52500D03*
X118579Y53000D03*
X112000Y54000D03*
X119000Y71500D03*
Y62500D03*
X123500Y67000D03*
X128000Y71500D03*
Y62500D03*
X118579Y84000D03*
Y86600D03*
X113000Y76983D03*
X118500Y105500D03*
X112000Y115000D03*
Y99500D03*
X124000D03*
X130500D03*
X112500Y132596D03*
X118579Y132500D03*
X118500Y118500D03*
X125500D03*
X129000Y132500D03*
Y120000D03*
X110516Y147484D03*
X119000Y142000D03*
X123500Y146500D03*
X128000Y142000D03*
X119000Y151000D03*
X113000Y156483D03*
X128000Y151000D03*
X112000Y179000D03*
X118579Y166100D03*
Y163500D03*
X129000Y172000D03*
X122500Y194000D03*
X118500Y185000D03*
X114000Y237500D03*
X111228D03*
X112000Y277000D03*
X117000D03*
X136500Y13000D03*
X135500Y55500D03*
X151500Y60500D03*
X150437Y71937D03*
X151500Y55500D03*
X137500Y63000D03*
Y70500D03*
X138000Y66016D03*
X137750Y57250D03*
X134500Y135500D03*
X151500Y135000D03*
X138469Y135470D03*
X150437Y151437D03*
X151500Y140000D03*
X137500Y142500D03*
Y150000D03*
X138000Y145516D03*
X153500Y51000D03*
X167000Y73000D03*
X164272Y61728D03*
X161500Y60000D03*
X168500Y55500D03*
Y66500D03*
X167000Y78000D03*
X157500Y81000D03*
X157000Y84000D03*
X170000Y74500D03*
X153700Y103800D03*
X157000Y123500D03*
X153000Y154500D03*
X172500Y161500D03*
X153000Y168500D03*
Y161500D03*
X154500Y165500D03*
X158000Y166500D03*
X170685Y200000D03*
X167316D03*
X190500Y38500D03*
X195500Y38484D03*
X175547Y64700D03*
X186000Y62500D03*
X181000Y69000D03*
X193808Y87984D03*
X190500Y88000D03*
X177500Y99500D03*
X176500Y108801D03*
X176792Y120793D03*
X191000Y148000D03*
X195500Y204500D03*
X202300Y41500D03*
X202500Y46000D03*
X202300Y35500D03*
Y31500D03*
X202000Y81500D03*
X202300Y85000D03*
Y94500D03*
Y91000D03*
X197000Y88000D03*
X196500Y147984D03*
X202800Y140000D03*
Y145000D03*
Y151000D03*
Y154701D03*
X207228Y194228D03*
X215500Y191000D03*
X203000Y189000D03*
X221500Y11000D03*
X230000Y20000D03*
X231500Y40500D03*
X235000Y31500D03*
X237500Y36500D03*
X228500Y55000D03*
X227773Y110183D03*
X235000Y123500D03*
X222000Y120000D03*
X226000D03*
X235000Y150000D03*
X236200Y162500D03*
X228500Y169000D03*
Y199000D03*
X227500Y190000D03*
X222000Y191000D03*
X237909Y195854D03*
X218432Y189526D03*
X219000Y198000D03*
X232750Y188750D03*
X234600Y207500D03*
X231500Y208500D03*
X219000Y204000D03*
X226000Y222500D03*
X237000Y204062D03*
X229500Y210447D03*
X227000Y208500D03*
X222500Y206997D03*
X229524Y221477D03*
X221500Y240000D03*
X221594Y243406D03*
X224485Y243485D03*
X238900Y231000D03*
X224100D03*
X238500Y243000D03*
X228500Y236500D03*
X234500D03*
X223550Y261450D03*
X236000Y259500D03*
X229000Y254000D03*
X232500D03*
X243500Y25500D03*
X241500Y20500D03*
X243500Y14000D03*
X253500Y42500D03*
X252000Y69000D03*
X242000Y67887D03*
X242500Y59500D03*
X242000Y65000D03*
X260000Y74000D03*
X257000D03*
Y57500D03*
X258100Y62500D03*
X260000Y68000D03*
X257000Y67500D03*
X251500Y61500D03*
X253500Y65000D03*
X255401Y61496D03*
X251500Y74500D03*
X241500Y79500D03*
X251900Y82100D03*
X252000Y79500D03*
X243000Y83500D03*
X260000Y93000D03*
X259500Y82000D03*
X240500Y76300D03*
X255000Y93500D03*
X260000Y105000D03*
X253500Y109500D03*
X255500Y115700D03*
X256000Y121500D03*
X255000Y125700D03*
Y174500D03*
X247437Y166437D03*
X258500Y186500D03*
X240500Y195001D03*
X247437Y184063D03*
X240500Y239000D03*
X241406Y243406D03*
X279000Y16500D03*
X274000Y20000D03*
X263500Y50500D03*
X268000Y51000D03*
X279000Y41500D03*
X263150Y73500D03*
X275000Y71800D03*
X280500Y60500D03*
X274894Y60759D03*
X265750Y74250D03*
X280000Y63500D03*
X266500Y56000D03*
X275500Y66700D03*
X265705Y69107D03*
X265000Y61000D03*
X274900Y82000D03*
X264000Y78000D03*
X282000Y81000D03*
Y93500D03*
X264500Y82000D03*
X261161Y113339D03*
X273000Y110000D03*
X271500Y117126D03*
X270000Y113339D03*
X263505Y111997D03*
X263720Y134280D03*
X276694Y129426D03*
X270000Y120500D03*
X272500Y132500D03*
X273000Y125000D03*
X282000Y130449D03*
X268000Y149500D03*
Y158000D03*
X260904Y157096D03*
X263898Y149300D03*
X280772Y196228D03*
X275272D03*
X278000Y203500D03*
X274500Y188500D03*
X275500Y211000D03*
X266000D03*
X278000Y224500D03*
X273000D03*
X268500D03*
X263500D03*
X268500Y204500D03*
X262500Y211500D03*
X271500Y211000D03*
X278000Y235500D03*
X276000Y246567D03*
X275500Y265300D03*
X275864Y257636D03*
X275500Y253000D03*
X281000Y268500D03*
X283437Y13063D03*
X286500Y48500D03*
X283437Y56937D03*
X289000Y53500D03*
X291500Y70000D03*
Y61500D03*
X293500Y65000D03*
X286500Y75000D03*
X288500Y79000D03*
X289126Y117126D03*
X290500Y108626D03*
X288500Y103500D03*
X284864Y130000D03*
X284364Y117500D03*
X289500Y151500D03*
Y172000D03*
X302315Y200000D03*
X301250Y184750D03*
X285000Y211000D03*
X294500D03*
X292000Y224500D03*
X282500D03*
X301500D03*
X287500D03*
X297000D03*
X286500Y245500D03*
X293500Y263000D03*
X299450D03*
X286500Y249547D03*
X286000Y255453D03*
X297500Y251000D03*
X291500Y277500D03*
X299500Y278000D03*
X297000Y275500D03*
X311000Y16500D03*
X322000Y53728D03*
X323000Y58500D03*
X308000Y68000D03*
X320500Y84000D03*
X305500Y76000D03*
X319500Y91000D03*
X315100Y74400D03*
Y88600D03*
X325000Y77000D03*
Y94000D03*
X307500Y79500D03*
X306500Y116000D03*
X308500Y97000D03*
X318000Y102000D03*
X314000Y96500D03*
Y107000D03*
X312500Y145000D03*
X312000Y158000D03*
X313500Y180000D03*
X312500Y174000D03*
X309500Y172000D03*
X320500Y199500D03*
X311815D03*
X319631Y183000D03*
X315184Y199500D03*
X323000Y183000D03*
X304000Y211000D03*
X313500D03*
X323000D03*
X306500Y224500D03*
X316000D03*
X320500D03*
X311000D03*
X320000Y245000D03*
X319500Y257000D03*
X320000Y251000D03*
X318588Y254000D03*
X304000Y282000D03*
X327500Y30500D03*
X343500Y10500D03*
X330000Y50500D03*
X335336Y32500D03*
X346500Y74000D03*
X325500Y64500D03*
X345500Y56500D03*
X337500Y73000D03*
Y59000D03*
X338000Y68500D03*
X337500Y87000D03*
X345500Y81000D03*
X345000Y111500D03*
X330500Y139000D03*
X346500Y121000D03*
X345500Y125500D03*
X330500Y151000D03*
X338000Y145000D03*
X331030Y153648D03*
X333000Y175500D03*
X337500Y180000D03*
X341000D03*
X330000Y199500D03*
X343816Y201000D03*
X332500Y211000D03*
X345500D03*
X330000Y224500D03*
X335000D03*
X343000D03*
X325500D03*
X327500Y209500D03*
X337000D03*
X342500Y246500D03*
X333000Y250500D03*
X343000Y257500D03*
X342500Y251500D03*
X346827Y263327D03*
X365000Y25000D03*
X355500Y11000D03*
X362500Y10000D03*
X367000Y11000D03*
X359000Y11500D03*
X347900Y53900D03*
X366000Y73500D03*
X358000Y72000D03*
X348000Y71100D03*
X349000Y67000D03*
X347963Y59272D03*
X358000Y67500D03*
X362500Y83000D03*
X354500Y88000D03*
X352000Y98500D03*
X356316Y137500D03*
X354500Y130500D03*
X359685Y137500D03*
X351131Y130500D03*
X350500Y137000D03*
X347500Y128000D03*
X365316Y149000D03*
X355500Y161000D03*
X361000Y163500D03*
X349000Y175000D03*
X366185Y201000D03*
X362816D03*
X353316D03*
X347185D03*
X356685D03*
X364500Y211000D03*
X355000D03*
X362000Y224500D03*
X357500D03*
X367000D03*
X352500D03*
X348000D03*
X366000Y245500D03*
X355500Y246567D03*
X366000Y249547D03*
X365500Y255453D03*
X353000Y266000D03*
X355000Y253000D03*
X361000Y268500D03*
X369500Y21500D03*
X369000Y38500D03*
X385185Y150000D03*
X368685Y149000D03*
X381816Y150000D03*
X387316Y164000D03*
X386816Y176500D03*
X371933Y200500D03*
X385185D03*
X375302D03*
X381816D03*
X374000Y211000D03*
X383500D03*
X371500Y224500D03*
X381000D03*
X386000D03*
X376500D03*
X373000Y263000D03*
X378950D03*
X384500Y282000D03*
X376000Y280000D03*
Y274500D03*
X399500Y3000D03*
X396000Y30500D03*
X392500Y33500D03*
X390500Y54000D03*
X403600Y117100D03*
X405400Y101300D03*
X409036Y104664D03*
X411616Y112500D03*
X403453Y148081D03*
X394302Y157000D03*
X390933D03*
X399000Y157500D03*
X407500Y172000D03*
X400000Y176000D03*
X390685Y164000D03*
X390185Y176500D03*
X406500Y163000D03*
X399500Y166000D03*
X406500D03*
X406000Y175500D03*
X404185Y199500D03*
X400816D03*
X394302Y201000D03*
X390933D03*
X397500Y185000D03*
X410315Y201500D03*
X393000Y211000D03*
X402500D03*
X409500Y224500D03*
X395500D03*
X400000D03*
X390500D03*
X405000D03*
X399500Y246000D03*
X399000Y257000D03*
X401500Y263500D03*
X400000Y251000D03*
X398500Y254000D03*
X427500Y22423D03*
Y25677D03*
X424500Y17823D03*
Y21077D03*
X414400Y48000D03*
X427528Y116472D03*
X421500Y116500D03*
X414985Y112500D03*
X423500Y96000D03*
X423400Y99500D03*
X428250Y123250D03*
X413500Y159500D03*
X423000Y159000D03*
X428500Y152500D03*
X426515Y172985D03*
X427250Y177250D03*
X419500Y179500D03*
X414340Y179380D03*
X416500Y181000D03*
X426500Y170000D03*
X430000Y168500D03*
X418500Y203500D03*
X432315Y201000D03*
X423173Y201358D03*
X426542D03*
X417000Y189000D03*
X420000D03*
X421500Y182500D03*
X413684Y201500D03*
X424500Y211000D03*
X412000D03*
X427000Y224500D03*
X422000D03*
X431500D03*
X414500D03*
X421500Y246500D03*
Y267000D03*
X422000Y257500D03*
X421500Y251500D03*
X412500Y250500D03*
X442250Y11250D03*
X433500Y46077D03*
Y42823D03*
X440500Y55500D03*
Y58869D03*
X439650Y106300D03*
X439000Y137000D03*
X440000Y126500D03*
X436364Y153000D03*
X435864Y140500D03*
X440000Y144000D03*
X445500Y168000D03*
X437000Y187500D03*
X447026Y196891D03*
X451315Y200500D03*
X454684D03*
X446973Y199591D03*
X435684Y201000D03*
X453000Y211000D03*
X443500D03*
X434000D03*
X436500Y224500D03*
X441000D03*
X450500D03*
X446000D03*
X445000Y245500D03*
X434500Y246567D03*
X439000Y267500D03*
X452000Y263000D03*
X445000Y249547D03*
X444500Y255453D03*
X434000Y253000D03*
X475500Y93500D03*
X463000Y103500D03*
X471500Y109685D03*
X463000Y100131D03*
X471500Y106316D03*
X469000Y138000D03*
X467500Y118500D03*
X471500Y155500D03*
X456000Y166500D03*
X460815Y200000D03*
X470315Y201000D03*
X459000Y195500D03*
X464184Y200000D03*
X473684Y201000D03*
X469000Y188000D03*
X472000Y211000D03*
X462500D03*
X474500Y224500D03*
X469500D03*
X460000D03*
X465000D03*
X455500D03*
X457950Y263000D03*
X462000Y282000D03*
X455000Y280000D03*
Y274500D03*
X480000Y40500D03*
Y36000D03*
X496224Y58076D03*
Y55076D03*
X487224Y58076D03*
X490224D03*
X493224D03*
X487224Y55076D03*
X490224D03*
X493224D03*
X480000Y53500D03*
X486563Y86437D03*
X481500Y129369D03*
X489315Y138000D03*
X481500Y126000D03*
X492684Y138000D03*
X478500Y140500D03*
X479815Y199500D03*
X489315Y201500D03*
X483184Y199500D03*
X492684Y201500D03*
X477000Y191500D03*
X491000Y211000D03*
X481500D03*
X479000Y224500D03*
X493500D03*
X484000D03*
X488500D03*
X478500Y246000D03*
X478000Y257000D03*
X479327Y263327D03*
X479000Y251000D03*
X477500Y254000D03*
X554047Y98047D03*
X548500Y110000D03*
X554047Y121047D03*
X571000Y136000D03*
X566000Y131050D03*
X571000Y177500D03*
X568000Y196500D03*
X566000Y208000D03*
X596915Y9414D03*
X598824Y11324D03*
X600733Y13234D03*
Y52368D03*
X599615Y58500D03*
X596915Y63000D03*
X591000Y88000D03*
X590500Y80500D03*
X591500Y93364D03*
X605000Y153500D03*
X603500Y158500D03*
X596500Y171500D03*
X603500Y179500D03*
X599000Y192500D03*
X622500Y21000D03*
X622000Y144000D03*
X610500Y148500D03*
X615500Y163500D03*
X607500Y176500D03*
X612500Y174000D03*
X622000Y191500D03*
X610000Y182500D03*
X620500Y202315D03*
Y205684D03*
X629500Y22500D03*
X645000Y30000D03*
X636500Y24000D03*
X629131Y169000D03*
X632500D03*
X669000Y45816D03*
X662500Y37365D03*
X669000Y49185D03*
X662500Y40734D03*
X670000Y168284D03*
X657500Y182500D03*
X674185Y17000D03*
X670816D03*
X677000Y32315D03*
Y35684D03*
X691500Y53500D03*
X687000Y75950D03*
Y185000D03*
X688000Y304000D03*
X709500Y191500D03*
X696500Y304000D03*
X713200Y369000D03*
X707800D03*
X700500Y364000D03*
X707017Y355579D03*
X710517Y359079D03*
X707017D03*
X710517Y355579D03*
X722500Y183000D03*
X725000Y198684D03*
Y195315D03*
X720500Y363500D03*
X714017Y359079D03*
Y355579D03*
X755685Y43500D03*
X746500Y45500D03*
X752316Y43500D03*
X743800Y45500D03*
X755685Y67500D03*
X752316D03*
X742101Y78304D03*
Y74935D03*
X744784Y105000D03*
X754784D03*
X748500D03*
X738500Y201316D03*
Y204685D03*
X741500Y212184D03*
Y208815D03*
X750500Y361500D03*
X753500D03*
X756500D03*
X745500Y369700D03*
Y367000D03*
X746100Y356000D03*
X759875Y59625D03*
X759784Y105000D03*
X775400Y123000D03*
Y135000D03*
X762646Y150354D03*
X760736Y152264D03*
X764000Y187500D03*
X761000Y189409D03*
X777000Y361500D03*
X774000D03*
X769000Y367000D03*
Y369700D03*
X769600Y356000D03*
X763406Y368406D03*
X762500Y364000D03*
X781000Y49500D03*
X798000Y166500D03*
X789500Y302500D03*
X780000D03*
Y361500D03*
X786000Y364000D03*
X786906Y368406D03*
X815500Y136500D03*
X807500Y128500D03*
X817000Y222500D03*
X811500Y304000D03*
X820000D03*
X843000Y39000D03*
X840000Y60000D03*
X840500Y113500D03*
X837517Y355579D03*
X834017D03*
X830517D03*
X834017Y359079D03*
X830517D03*
X837517D03*
X836700Y369000D03*
X824000Y364000D03*
X831300Y369000D03*
X860000Y73500D03*
X863535D03*
X847000Y94500D03*
X861750Y114750D03*
X854250Y107250D03*
X856750Y109750D03*
X859250Y112250D03*
X860000Y141000D03*
X846500Y209500D03*
X854000Y215500D03*
X844000Y363500D03*
X870605Y73500D03*
X867070D03*
X867500Y117000D03*
X874000Y146000D03*
X869000Y369700D03*
Y367000D03*
X869600Y356000D03*
X886000Y364000D03*
X880000Y361500D03*
X877000D03*
X874000D03*
X899500Y64035D03*
X894000Y68500D03*
X890000Y132500D03*
X896000Y176700D03*
X903500Y302500D03*
X892500Y369700D03*
Y367000D03*
X893100Y356000D03*
X886906Y368406D03*
X903500Y361500D03*
X897500D03*
X900500D03*
X926000Y25000D03*
X928000Y66500D03*
X925000Y60500D03*
X910000Y140000D03*
X920000Y147000D03*
X913000Y302500D03*
X910406Y368406D03*
X909500Y364000D03*
X937000Y27000D03*
X940000Y68000D03*
X944500Y80000D03*
X930000Y82000D03*
X929750Y123750D03*
X935000Y128000D03*
X955184Y75000D03*
X951815D03*
X960000Y143500D03*
X966000Y151000D03*
X985000Y84500D03*
X979000Y78000D03*
X988369Y84500D03*
X985000Y320000D03*
X974000Y324200D03*
X977000D03*
X980000D03*
X986500Y382000D03*
X981500Y386200D03*
X975500D03*
X978500D03*
X1010400Y45500D03*
X996500Y78000D03*
X1010000Y163000D03*
X1014000Y180000D03*
X999000Y223500D03*
X1010000Y218000D03*
X1037000Y240000D03*
X1051000Y239500D03*
X1076000Y240000D03*
X1094500Y83500D03*
X1093400Y148400D03*
X1090000Y239500D03*
X1117300Y80500D03*
X1123300Y93000D03*
Y115000D03*
X1120450Y96150D03*
Y110850D03*
X1135000Y104000D03*
X1138600Y116900D03*
X1127500Y108000D03*
X1142000D03*
X1127500Y100000D03*
X1142000Y99500D03*
X1132600Y117400D03*
X1137400Y293700D03*
Y303200D03*
X1162500Y92000D03*
X1145300Y93000D03*
X1151000Y106500D03*
X1149150Y99650D03*
Y110450D03*
X1145700Y115000D03*
X1162900Y342500D03*
X1163247Y362347D03*
X1159000Y412000D03*
X1162847Y398353D03*
X1168500Y92000D03*
X1167800Y342260D03*
X1176800Y362300D03*
X1176227Y367800D03*
X1178800Y377800D03*
X1181800D03*
X1176300D03*
X1178800Y383800D03*
X1181300D03*
X1176300D03*
X1176000Y393300D03*
X1176800Y398800D03*
X1172028Y410972D03*
X1191000Y120000D03*
X1196000Y118500D03*
X1196400Y303200D03*
Y309200D03*
Y306200D03*
X1198900Y297200D03*
X1203306Y296294D03*
X1196400Y326700D03*
Y329700D03*
Y332700D03*
X1198900Y320700D03*
X1203306Y319794D03*
X1204600Y314200D03*
X1201900D03*
X1190900Y313600D03*
X1204600Y337700D03*
X1201900D03*
X1190900Y337100D03*
X1197713Y370300D03*
X1197900Y356000D03*
X1193000Y356500D03*
X1206800Y383800D03*
Y377800D03*
X1197500Y392000D03*
X1195950Y377150D03*
X1188650D03*
X1195950Y384450D03*
X1188650D03*
Y380800D03*
X1197500Y405501D03*
X1191800Y405300D03*
G54D12*
X10500Y231000D03*
Y227000D03*
X62250Y66750D03*
X66499Y62501D03*
X66500Y138600D03*
X62000Y143000D03*
X79000Y221000D03*
X80999Y219001D03*
X74000Y214000D03*
X77500D03*
X85999Y206500D03*
X80000D03*
X82500Y247000D03*
X85000D03*
X106094Y202594D03*
X90937Y206500D03*
X99800Y240500D03*
X98437Y251937D03*
X129378Y194378D03*
X129000Y188500D03*
X115500Y203500D03*
X119500D03*
X130500Y214000D03*
X127000D03*
X126500Y221500D03*
X124501Y219501D03*
X123000Y247000D03*
X120000D03*
X138469Y104500D03*
X152000Y118028D03*
X148500D03*
X136000Y194378D03*
X135000Y188500D03*
X138000Y232500D03*
X164000Y36000D03*
X167500D03*
Y41000D03*
Y90500D03*
X164000Y85500D03*
X167500D03*
X171000Y132500D03*
X164500Y118000D03*
X168000Y139500D03*
Y145500D03*
Y150500D03*
X162500Y232500D03*
X177000Y158500D03*
X216728Y218500D03*
X216500Y215000D03*
X209000Y217500D03*
X213709Y226000D03*
X214000Y238000D03*
X209000Y235500D03*
X221500Y35000D03*
Y42000D03*
Y84500D03*
Y91500D03*
X230500Y108000D03*
X236000D03*
X222000Y144500D03*
Y151500D03*
X236719Y220718D03*
X219500Y215000D03*
X238000Y209000D03*
X249000Y42250D03*
X249500Y51000D03*
X256000Y46500D03*
X261000D03*
X241125Y107875D03*
X243500Y131678D03*
X258500Y118500D03*
X254000D03*
X244000Y146500D03*
Y141000D03*
X258500Y151796D03*
Y154896D03*
X244000Y192109D03*
Y197000D03*
X246000Y208000D03*
X246272Y218500D03*
X246500Y215000D03*
X243500D03*
X240500Y206500D03*
X271000Y43000D03*
X266364Y104000D03*
X263000D03*
X277000Y126136D03*
X266750Y121250D03*
X261636Y121000D03*
X268000Y139563D03*
X263500D03*
X280000Y139500D03*
X263500Y167937D03*
X268000D03*
X280000Y168000D03*
X286000Y157000D03*
Y150400D03*
X289119Y154763D03*
X286673Y274000D03*
X320000Y16000D03*
Y46500D03*
Y50500D03*
X318500Y132500D03*
X312000D03*
X319500Y157500D03*
X309500Y147500D03*
X315000Y168000D03*
X316000Y172000D03*
X309282Y245610D03*
X319500Y260500D03*
X309000Y253500D03*
X308327Y274500D03*
X340000Y46500D03*
X345000D03*
X330136Y42000D03*
X342136Y94500D03*
X345500D03*
X330200Y84700D03*
X330500Y132563D03*
X337747D03*
Y157063D03*
X333000Y157000D03*
X341000Y145000D03*
X343818Y144652D03*
X344932Y170068D03*
X345000Y173500D03*
X333000Y246000D03*
X339500Y257500D03*
X330500Y274528D03*
X327000D03*
X343000Y274500D03*
X353864Y51000D03*
Y42636D03*
X353800Y84300D03*
X366173Y274000D03*
X373500Y24000D03*
X388782Y245610D03*
X388500Y253500D03*
X372500Y278000D03*
X379500D03*
X387827Y274500D03*
X407000Y36000D03*
X398400Y66500D03*
X394400Y59500D03*
X400364Y89364D03*
X395636Y103500D03*
X408900Y116800D03*
X407400Y133500D03*
X408900Y154600D03*
Y151500D03*
X399000Y260500D03*
X410000Y268000D03*
X417000Y12500D03*
X425000Y39500D03*
X422501Y37001D03*
X414500Y39000D03*
X414400Y66500D03*
Y61500D03*
Y56000D03*
X429500Y65000D03*
X420900Y82800D03*
X424400D03*
X428900Y76300D03*
X416000Y106000D03*
X417500Y115500D03*
X416000Y137500D03*
X424500Y134000D03*
X428500Y149136D03*
X428750Y159250D03*
X427500Y143500D03*
X416500Y169500D03*
X412500Y246000D03*
X419000Y257500D03*
X416000Y268000D03*
X437100Y90000D03*
X438000Y173500D03*
X451500Y278000D03*
X445173Y274000D03*
X466000Y33500D03*
Y39500D03*
X472500Y65000D03*
X475500Y81000D03*
X465500Y179000D03*
X467782Y245610D03*
X476500Y234000D03*
X467500Y253500D03*
X458500Y278000D03*
X466827Y274500D03*
X493000Y46500D03*
X494772Y66500D03*
X482000Y80000D03*
X491500Y246000D03*
X482000Y234000D03*
X491500Y250500D03*
X491937Y264000D03*
X478000Y260500D03*
X500500Y225500D03*
Y230500D03*
X580750Y241250D03*
X581000Y231500D03*
X580500Y257500D03*
X584500Y261500D03*
X644000Y4000D03*
X647500Y24000D03*
X641500Y169000D03*
X631000Y231500D03*
X630750Y241250D03*
X630500Y257500D03*
X634500Y261500D03*
X681000Y231500D03*
X680750Y241250D03*
X680500Y257500D03*
X684500Y261500D03*
X691063Y345937D03*
X686000Y340500D03*
X690500Y373500D03*
X696000Y14250D03*
X708000Y32000D03*
X711500Y48500D03*
X696000Y108500D03*
X705500Y281500D03*
X714000Y340500D03*
X708000D03*
X704000D03*
X693000Y373500D03*
X706437Y380937D03*
X715500Y36500D03*
X716500Y180000D03*
Y214000D03*
X731000Y231500D03*
X730750Y241250D03*
X730500Y257500D03*
X734500Y261500D03*
X735000Y340500D03*
X730437Y345437D03*
X731000Y373500D03*
X728000D03*
X714563Y380937D03*
X749500Y40500D03*
X754000Y145000D03*
Y179000D03*
X754937Y345500D03*
X741500Y340000D03*
X738500D03*
X738728Y343500D03*
X775400Y6600D03*
X778000Y30000D03*
X759000Y14250D03*
X766760Y32740D03*
X772000Y38500D03*
X767500Y67000D03*
X772000Y91000D03*
X778000Y97000D03*
X778437Y346000D03*
Y334063D03*
X765000Y340000D03*
X762000D03*
X762228Y343500D03*
X780000Y21000D03*
X788500Y49000D03*
X793000Y102000D03*
X785000Y139000D03*
X783500Y149500D03*
X793000Y163500D03*
X782500Y183000D03*
X808000Y73740D03*
X814563Y345937D03*
X809500Y340500D03*
X814000Y373500D03*
X816500D03*
X833500Y97000D03*
X837500Y102000D03*
X822453Y128453D03*
X827500Y340500D03*
X831500D03*
X837500D03*
X838063Y380937D03*
X829937D03*
X846000Y87000D03*
X844500Y122500D03*
X853937Y345437D03*
X858500Y340500D03*
X865000Y340000D03*
X862000D03*
X862228Y343500D03*
X854500Y373500D03*
X851500D03*
X885500Y340000D03*
X885728Y343500D03*
X878437Y345500D03*
X888500Y340000D03*
X901937Y346000D03*
Y334063D03*
X940228Y89772D03*
X947500Y93500D03*
X944500Y139000D03*
Y146000D03*
X963000Y93500D03*
X984000Y315500D03*
X985500Y377500D03*
X1022500Y234000D03*
X1038000Y244972D03*
X1065802Y69500D03*
X1066863Y81100D03*
X1063763D03*
X1070000Y81500D03*
X1070798Y93300D03*
X1077000Y244972D03*
X1061500Y234000D03*
X1078200Y325600D03*
Y322500D03*
X1077200Y385000D03*
Y388100D03*
X1094596Y76000D03*
X1097800D03*
X1090500Y89437D03*
X1093437D03*
X1089500Y314800D03*
X1093500Y315500D03*
X1092500Y378000D03*
X1088500Y377300D03*
X1116500Y231500D03*
X1116250Y241250D03*
X1120000Y261500D03*
X1116000Y257500D03*
X1154000Y232000D03*
X1153750Y241750D03*
X1157500Y262000D03*
X1153500Y258000D03*
X1163363Y366863D03*
Y383300D03*
Y379300D03*
Y394737D03*
X1168963Y304763D03*
X1180900D03*
X1180400Y328263D03*
X1178400Y320972D03*
X1174900Y321200D03*
Y318200D03*
X1198237Y121500D03*
X1199298Y134500D03*
X1199300Y138000D03*
X1191000Y232000D03*
X1190750Y241750D03*
X1194500Y262000D03*
X1190500Y258000D03*
X1229500Y232000D03*
X1229250Y241750D03*
X1229000Y258000D03*
X1233000Y262000D03*
G54D21*
X436331Y14000D03*
X450110D03*
X477669D03*
X463890D03*
X787831Y269500D03*
X801610D03*
X815390D03*
X829169D03*
X984610Y259000D03*
X998390D03*
G54D22*
X755700Y270100D03*
X770900D03*
X1104800Y129000D03*
X1164800Y79000D03*
G54D13*
X2933Y286714D03*
X20633D03*
X17133D03*
X13633D03*
X10133D03*
X6633D03*
X41633D03*
X38133D03*
X34633D03*
X31133D03*
X27633D03*
X24133D03*
X66133D03*
X62633D03*
X59133D03*
X55633D03*
X52133D03*
X48633D03*
X45133D03*
X87133D03*
X83633D03*
X80133D03*
X76633D03*
X73133D03*
X69633D03*
X108133D03*
X104633D03*
X101133D03*
X97633D03*
X94133D03*
X90633D03*
X129133D03*
X125633D03*
X122133D03*
X118633D03*
X115133D03*
X111633D03*
X150133D03*
X146633D03*
X143133D03*
X139633D03*
X136133D03*
X132633D03*
X171133D03*
X167633D03*
X164133D03*
X160633D03*
X157133D03*
X153633D03*
X195633D03*
X192133D03*
X188633D03*
X185133D03*
X181633D03*
X178133D03*
X174633D03*
X216633D03*
X213133D03*
X209633D03*
X206133D03*
X202633D03*
X199133D03*
X237633D03*
X234133D03*
X230633D03*
X227133D03*
X223633D03*
X220133D03*
X258633D03*
X255133D03*
X251633D03*
X248133D03*
X244633D03*
X241133D03*
X279633D03*
X276133D03*
X272633D03*
X269133D03*
X265633D03*
X262133D03*
X300633D03*
X297133D03*
X293633D03*
X290133D03*
X286633D03*
X283133D03*
X321633D03*
X318133D03*
X314633D03*
X311133D03*
X307633D03*
X304133D03*
X346133D03*
X342633D03*
X339133D03*
X335633D03*
X332133D03*
X328633D03*
X325133D03*
X367133D03*
X363633D03*
X360133D03*
X356633D03*
X353133D03*
X349633D03*
X388133D03*
X384633D03*
X381133D03*
X377633D03*
X374133D03*
X370633D03*
X409133D03*
X405633D03*
X402133D03*
X398633D03*
X395133D03*
X391633D03*
X430133D03*
X426633D03*
X423133D03*
X419633D03*
X416133D03*
X412633D03*
X451133D03*
X447633D03*
X444133D03*
X440633D03*
X437133D03*
X433633D03*
X475633D03*
X472133D03*
X468633D03*
X465133D03*
X461633D03*
X458133D03*
X454633D03*
X496633D03*
X493133D03*
X489633D03*
X486133D03*
X482633D03*
X479133D03*
X517633D03*
X514133D03*
X510633D03*
X507133D03*
X503633D03*
X500133D03*
X522848Y8320D03*
Y4820D03*
Y1320D03*
Y29320D03*
Y25820D03*
Y22320D03*
Y18820D03*
Y15320D03*
Y11820D03*
Y50320D03*
Y46820D03*
Y43320D03*
Y39820D03*
Y36320D03*
Y32820D03*
Y71320D03*
Y67820D03*
Y64320D03*
Y60820D03*
Y57320D03*
Y53820D03*
Y92320D03*
Y88820D03*
Y85320D03*
Y81820D03*
Y78320D03*
Y74820D03*
Y116820D03*
Y113320D03*
Y109820D03*
Y106320D03*
Y102820D03*
Y99320D03*
Y95820D03*
Y137820D03*
Y134320D03*
Y130820D03*
Y127320D03*
Y123820D03*
Y120320D03*
Y158820D03*
Y155320D03*
Y151820D03*
Y148320D03*
Y144820D03*
Y141320D03*
Y179820D03*
Y176320D03*
Y172820D03*
Y169320D03*
Y165820D03*
Y162320D03*
Y200820D03*
Y197320D03*
Y193820D03*
Y190320D03*
Y186820D03*
Y183320D03*
Y221820D03*
Y218320D03*
Y214820D03*
Y211320D03*
Y207820D03*
Y204320D03*
Y246320D03*
Y242820D03*
Y239320D03*
Y235820D03*
Y232320D03*
Y228820D03*
Y225320D03*
Y267320D03*
Y263820D03*
Y260320D03*
Y256820D03*
Y253320D03*
Y249820D03*
X538633Y286714D03*
X535133D03*
X531633D03*
X528133D03*
X524633D03*
X521133D03*
X522848Y281320D03*
Y277820D03*
Y274320D03*
Y270820D03*
X559633Y286714D03*
X556133D03*
X552633D03*
X549133D03*
X545633D03*
X542133D03*
X580633D03*
X577133D03*
X573633D03*
X570133D03*
X566633D03*
X563133D03*
X605133D03*
X601633D03*
X598133D03*
X594633D03*
X591133D03*
X587633D03*
X584133D03*
X626133D03*
X622633D03*
X619133D03*
X615633D03*
X612133D03*
X608633D03*
X647133D03*
X643633D03*
X640133D03*
X636633D03*
X633133D03*
X629633D03*
X668133D03*
X664633D03*
X661133D03*
X657633D03*
X654133D03*
X650633D03*
X668248Y289520D03*
Y293020D03*
Y296520D03*
Y300020D03*
Y303520D03*
Y307020D03*
Y310520D03*
Y314020D03*
Y317520D03*
Y321020D03*
Y324520D03*
Y328020D03*
Y331520D03*
Y335020D03*
Y338520D03*
Y342020D03*
Y345520D03*
Y349020D03*
Y352520D03*
Y359520D03*
Y363020D03*
Y366520D03*
Y370020D03*
Y373520D03*
Y356020D03*
Y380520D03*
Y384020D03*
Y387520D03*
Y391020D03*
Y394520D03*
Y377020D03*
Y401520D03*
Y405020D03*
Y408520D03*
Y412020D03*
Y415520D03*
Y398020D03*
Y419020D03*
X689133Y286714D03*
X685633D03*
X682133D03*
X678633D03*
X675133D03*
X671633D03*
X710133D03*
X706633D03*
X703133D03*
X699633D03*
X696133D03*
X692633D03*
X734633D03*
X731133D03*
X727633D03*
X724133D03*
X720633D03*
X717133D03*
X713633D03*
X755633D03*
X752133D03*
X748633D03*
X745133D03*
X741633D03*
X738133D03*
X776633D03*
X773133D03*
X769633D03*
X766133D03*
X762633D03*
X759133D03*
X797633D03*
X794133D03*
X790633D03*
X787133D03*
X783633D03*
X780133D03*
X818633D03*
X815133D03*
X811633D03*
X808133D03*
X804633D03*
X801133D03*
X801248Y310620D03*
Y307120D03*
Y303620D03*
Y300120D03*
Y296620D03*
Y293120D03*
Y289620D03*
Y331620D03*
Y328120D03*
Y324620D03*
Y321120D03*
Y317620D03*
Y314120D03*
Y352620D03*
Y349120D03*
Y345620D03*
Y342120D03*
Y338620D03*
Y335120D03*
Y356120D03*
Y373620D03*
Y370120D03*
Y366620D03*
Y363120D03*
Y359620D03*
Y394620D03*
Y391120D03*
Y387620D03*
Y384120D03*
Y380620D03*
Y377120D03*
Y415620D03*
Y412120D03*
Y408620D03*
Y405120D03*
Y401620D03*
Y398120D03*
Y419120D03*
X839633Y286714D03*
X836133D03*
X832633D03*
X829133D03*
X825633D03*
X822133D03*
X864133D03*
X860633D03*
X857133D03*
X853633D03*
X850133D03*
X846633D03*
X843133D03*
X885133D03*
X881633D03*
X878133D03*
X874633D03*
X871133D03*
X867633D03*
X906133D03*
X902633D03*
X899133D03*
X895633D03*
X892133D03*
X888633D03*
X927133D03*
X923633D03*
X920133D03*
X916633D03*
X913133D03*
X909633D03*
X920248Y289120D03*
Y310120D03*
Y306620D03*
Y303120D03*
Y299620D03*
Y296120D03*
Y292620D03*
Y331120D03*
Y327620D03*
Y324120D03*
Y320620D03*
Y317120D03*
Y313620D03*
Y352120D03*
Y348620D03*
Y345120D03*
Y341620D03*
Y338120D03*
Y334620D03*
X927433Y356714D03*
X923933D03*
X920433D03*
X920248Y355620D03*
Y373120D03*
Y369620D03*
Y366120D03*
Y362620D03*
Y359120D03*
Y394120D03*
Y390620D03*
Y387120D03*
Y383620D03*
Y380120D03*
Y376620D03*
Y418620D03*
Y415120D03*
Y411620D03*
Y408120D03*
Y404620D03*
Y401120D03*
Y397620D03*
X948133Y286714D03*
X944633D03*
X941133D03*
X937633D03*
X934133D03*
X930633D03*
X948433Y356714D03*
X944933D03*
X941433D03*
X937933D03*
X934433D03*
X930933D03*
X969133Y286714D03*
X965633D03*
X962133D03*
X958633D03*
X955133D03*
X951633D03*
X969433Y356714D03*
X965933D03*
X962433D03*
X958933D03*
X955433D03*
X951933D03*
X990133Y286714D03*
X986633D03*
X983133D03*
X979633D03*
X976133D03*
X972633D03*
X990433Y356714D03*
X986933D03*
X983433D03*
X979933D03*
X976433D03*
X972933D03*
X1014633Y286714D03*
X1011133D03*
X1007633D03*
X1004133D03*
X1000633D03*
X997133D03*
X993633D03*
X1014933Y356714D03*
X1011433D03*
X1007933D03*
X1004433D03*
X1000933D03*
X997433D03*
X993933D03*
X1018048Y3320D03*
Y6820D03*
Y13820D03*
Y17320D03*
Y20820D03*
Y24320D03*
Y27820D03*
Y10320D03*
Y34820D03*
Y38320D03*
Y41820D03*
Y45320D03*
Y48820D03*
Y52320D03*
Y31320D03*
Y55820D03*
Y59320D03*
Y62820D03*
Y66320D03*
Y69820D03*
Y73320D03*
Y76820D03*
Y80320D03*
Y83820D03*
Y87320D03*
Y90820D03*
Y94320D03*
Y97820D03*
Y101320D03*
Y104820D03*
Y108320D03*
Y111820D03*
Y115320D03*
Y118820D03*
Y122320D03*
Y125820D03*
Y129320D03*
Y132820D03*
Y136320D03*
Y143320D03*
Y146820D03*
Y150320D03*
Y153820D03*
Y157320D03*
Y139820D03*
Y164320D03*
Y167820D03*
Y171320D03*
Y174820D03*
Y178320D03*
Y160820D03*
Y185320D03*
Y188820D03*
Y192320D03*
Y195820D03*
Y199320D03*
Y202820D03*
Y181820D03*
X1035633Y212114D03*
X1032133D03*
X1028633D03*
X1025133D03*
X1021633D03*
X1018048Y206320D03*
Y209820D03*
Y213320D03*
Y216820D03*
Y220320D03*
Y223820D03*
Y227320D03*
Y230820D03*
Y234320D03*
Y237820D03*
Y241320D03*
Y244820D03*
Y248320D03*
Y251820D03*
Y255320D03*
Y258820D03*
Y262320D03*
Y265820D03*
X1035633Y286714D03*
X1032133D03*
X1028633D03*
X1025133D03*
X1021633D03*
X1018133D03*
X1018048Y272820D03*
Y276320D03*
Y279820D03*
Y283320D03*
Y269320D03*
X1028748Y311020D03*
Y307520D03*
Y304020D03*
Y300520D03*
Y297020D03*
Y293520D03*
Y290020D03*
Y332020D03*
Y328520D03*
Y325020D03*
Y321520D03*
Y318020D03*
Y314520D03*
Y353020D03*
Y349520D03*
Y346020D03*
Y342520D03*
Y339020D03*
Y335520D03*
X1035933Y356714D03*
X1032433D03*
X1028933D03*
X1025433D03*
X1021933D03*
X1018433D03*
X1028748Y356520D03*
Y374020D03*
Y370520D03*
Y367020D03*
Y363520D03*
Y360020D03*
Y395020D03*
Y391520D03*
Y388020D03*
Y384520D03*
Y381020D03*
Y377520D03*
Y416020D03*
Y412520D03*
Y409020D03*
Y405520D03*
Y402020D03*
Y398520D03*
Y419520D03*
X1056633Y212114D03*
X1053133D03*
X1049633D03*
X1046133D03*
X1042633D03*
X1039133D03*
X1058148Y214020D03*
Y217520D03*
Y221020D03*
Y224520D03*
Y228020D03*
Y231520D03*
Y235020D03*
Y238520D03*
Y242020D03*
Y245520D03*
Y249020D03*
Y252520D03*
Y256020D03*
Y259520D03*
Y263020D03*
Y266520D03*
X1056633Y286714D03*
X1053133D03*
X1049633D03*
X1046133D03*
X1042633D03*
X1039133D03*
X1058148Y270020D03*
Y273520D03*
Y277020D03*
Y284020D03*
Y280520D03*
X1056933Y356714D03*
X1053433D03*
X1049933D03*
X1046433D03*
X1042933D03*
X1039433D03*
X1077633Y212114D03*
X1074133D03*
X1070633D03*
X1067133D03*
X1063633D03*
X1060133D03*
X1077633Y286714D03*
X1074133D03*
X1070633D03*
X1067133D03*
X1063633D03*
X1060133D03*
X1077933Y356714D03*
X1074433D03*
X1070933D03*
X1067433D03*
X1063933D03*
X1060433D03*
X1098633Y212114D03*
X1095133D03*
X1091633D03*
X1088133D03*
X1084633D03*
X1081133D03*
X1096448Y214020D03*
Y217520D03*
Y221020D03*
Y224520D03*
Y228020D03*
Y231520D03*
Y235020D03*
Y238520D03*
Y242020D03*
Y245520D03*
Y249020D03*
Y252520D03*
Y256020D03*
Y259520D03*
Y263020D03*
Y266520D03*
X1098633Y286714D03*
X1095133D03*
X1091633D03*
X1088133D03*
X1084633D03*
X1081133D03*
X1096448Y270020D03*
Y273520D03*
Y277020D03*
Y284020D03*
Y280520D03*
X1098933Y356714D03*
X1095433D03*
X1091933D03*
X1088433D03*
X1084933D03*
X1081433D03*
X1119633Y212114D03*
X1116133D03*
X1112633D03*
X1109133D03*
X1105633D03*
X1102133D03*
X1119633Y286714D03*
X1116133D03*
X1112633D03*
X1109133D03*
X1105633D03*
X1102133D03*
X1119933Y356714D03*
X1116433D03*
X1112933D03*
X1109433D03*
X1105933D03*
X1102433D03*
X1144133Y212114D03*
X1140633D03*
X1137133D03*
X1133633D03*
X1130133D03*
X1126633D03*
X1123133D03*
X1135148Y214020D03*
Y217520D03*
Y221020D03*
Y224520D03*
Y228020D03*
Y231520D03*
Y235020D03*
Y238520D03*
Y242020D03*
Y245520D03*
Y249020D03*
Y252520D03*
Y256020D03*
Y259520D03*
Y263020D03*
Y266520D03*
X1144133Y286714D03*
X1140633D03*
X1137133D03*
X1133633D03*
X1130133D03*
X1126633D03*
X1123133D03*
X1135148Y270020D03*
Y273520D03*
Y277020D03*
Y284020D03*
Y280520D03*
X1130248Y307720D03*
Y304220D03*
Y300720D03*
Y297220D03*
Y293720D03*
Y290220D03*
Y332220D03*
Y328720D03*
Y325220D03*
Y321720D03*
Y318220D03*
Y314720D03*
Y311220D03*
Y353220D03*
Y349720D03*
Y346220D03*
Y342720D03*
Y339220D03*
Y335720D03*
X1126933Y356714D03*
X1123433D03*
X1130248Y356720D03*
Y374220D03*
Y370720D03*
Y367220D03*
Y363720D03*
Y360220D03*
Y395220D03*
Y391720D03*
Y388220D03*
Y384720D03*
Y381220D03*
Y377720D03*
Y416220D03*
Y412720D03*
Y409220D03*
Y405720D03*
Y402220D03*
Y398720D03*
Y419720D03*
X1165133Y212114D03*
X1161633D03*
X1158133D03*
X1154633D03*
X1151133D03*
X1147633D03*
X1165133Y286714D03*
X1161633D03*
X1158133D03*
X1154633D03*
X1151133D03*
X1147633D03*
X1186133Y212114D03*
X1182633D03*
X1179133D03*
X1175633D03*
X1172133D03*
X1168633D03*
X1171948Y214020D03*
Y217520D03*
Y221020D03*
Y224520D03*
Y228020D03*
Y231520D03*
Y235020D03*
Y238520D03*
Y242020D03*
Y245520D03*
Y249020D03*
Y252520D03*
Y256020D03*
Y259520D03*
Y263020D03*
Y266520D03*
X1186133Y286714D03*
X1182633D03*
X1179133D03*
X1175633D03*
X1172133D03*
X1168633D03*
X1171948Y270020D03*
Y273520D03*
Y277020D03*
Y284020D03*
Y280520D03*
X1207133Y212114D03*
X1203633D03*
X1200133D03*
X1196633D03*
X1193133D03*
X1189633D03*
X1207133Y286714D03*
X1203633D03*
X1200133D03*
X1196633D03*
X1193133D03*
X1189633D03*
X1228133Y212114D03*
X1224633D03*
X1221133D03*
X1217633D03*
X1214133D03*
X1210633D03*
X1210448Y214020D03*
Y217520D03*
Y221020D03*
Y224520D03*
Y228020D03*
Y231520D03*
Y235020D03*
Y238520D03*
Y242020D03*
Y245520D03*
Y249020D03*
Y252520D03*
Y256020D03*
Y259520D03*
Y263020D03*
Y266520D03*
X1228133Y286714D03*
X1224633D03*
X1221133D03*
X1217633D03*
X1214133D03*
X1210633D03*
X1210448Y270020D03*
Y273520D03*
Y277020D03*
Y284020D03*
Y280520D03*
X1249133Y212114D03*
X1245633D03*
X1242133D03*
X1238633D03*
X1235133D03*
X1231633D03*
X1249133Y286714D03*
X1245633D03*
X1242133D03*
X1238633D03*
X1235133D03*
X1231633D03*
G54D14*
X20000Y305000D03*
Y405000D03*
X43400Y12000D03*
Y260000D03*
X258360Y21840D03*
Y244480D03*
X325000Y116000D03*
X501500Y11811D03*
Y116000D03*
Y273500D03*
X542500Y11811D03*
Y196189D03*
X605000Y116000D03*
X650000Y305000D03*
Y405000D03*
X815000Y11811D03*
Y196189D03*
X985000Y11811D03*
Y196189D03*
X1049800Y11811D03*
Y196189D03*
X1219800Y11811D03*
Y196189D03*
G54D23*
G01X136000Y194378D02*
X129378D01*
G01X135000Y188500D02*
X129000D01*
G01X136000Y194378D02*
X136122Y194500D01*
X194499D01*
X197327Y197328D01*
X211673D01*
X214501Y194500D01*
X233000D01*
X234600Y192900D01*
G01X135000Y188500D02*
X150500D01*
X156300Y182700D01*
X202800D01*
G01D02*
Y154701D01*
G01Y182700D02*
X227500D01*
G01X247500Y133500D02*
Y60001D01*
X237500Y50001D01*
Y44501D01*
X242500Y39501D01*
Y31501D01*
X235900Y24901D01*
Y12940D01*
X238900Y9940D01*
X263291D01*
X263314Y9963D01*
X298463D01*
X307950Y19450D01*
X309565D01*
X309715Y19600D01*
X312285D01*
X312435Y19450D01*
X324930D01*
X329880Y14500D01*
X345999D01*
X348999Y17500D01*
X356089D01*
X356389Y17800D01*
X361611D01*
X361911Y17500D01*
X403000D01*
X422501Y37001D01*
G01X261655Y189655D02*
X251655D01*
X250000Y188000D01*
X239500D01*
X234600Y192900D01*
G01X227500Y182700D02*
X241300D01*
X255000Y169000D01*
Y138000D01*
X266364Y126636D01*
Y121636D01*
X266750Y121250D01*
G01X236719Y220718D02*
Y217113D01*
X245832Y208000D01*
X246000D01*
G01X240500Y206500D02*
X238000Y209000D01*
G01D02*
X229524Y217476D01*
Y221477D01*
G01D02*
X230500Y222453D01*
X230719D01*
X233466Y225200D01*
X249800D01*
X257000Y218000D01*
X493000D01*
X500500Y225500D01*
G01X244000Y141000D02*
Y137000D01*
G01D02*
X247500Y133500D01*
G01X244000Y192109D02*
Y197000D01*
G01D02*
Y202500D01*
X246000Y204500D01*
Y208000D01*
G01X266364Y104000D02*
Y99636D01*
X271794Y94206D01*
Y59474D01*
X278000Y53268D01*
Y49000D01*
X288500Y38500D01*
X315800D01*
X320000Y42700D01*
Y46500D01*
G01X266750Y121250D02*
Y104386D01*
X266364Y104000D01*
G01X263500Y191500D02*
X261655Y189655D01*
G01X275115Y205000D02*
X276715Y206600D01*
X279285D01*
X280885Y205000D01*
G01X272500D02*
X275115D01*
G01X280885D02*
X412000D01*
X414000Y207000D01*
X498500D01*
G01X299500Y278000D02*
X297000Y275500D01*
G01X299500Y278000D02*
X372500D01*
G01X464400Y165500D02*
Y113099D01*
X466500Y110999D01*
Y75500D01*
G01X320000Y50500D02*
Y51343D01*
X318900Y52443D01*
Y55013D01*
X320000Y56113D01*
Y57115D01*
X319900Y57215D01*
Y59785D01*
X320000Y59885D01*
Y64068D01*
X336932Y81000D01*
X339136D01*
X342136Y84000D01*
Y94500D01*
G01X451500Y278000D02*
X379500D01*
G01D02*
X376000Y274500D01*
G01D02*
X372500Y278000D01*
G01X437100Y90000D02*
X436600Y89500D01*
Y64600D01*
X425500Y53500D01*
Y40000D01*
X425000Y39500D01*
G01X422501Y37001D02*
X425000Y39500D01*
G01X418000Y139500D02*
X418048Y139452D01*
X430548D01*
G01X418000Y139500D02*
X416000Y137500D01*
G01X430548Y139452D02*
X436000Y134001D01*
Y91100D01*
X437100Y90000D01*
G01X464400Y165500D02*
Y170500D01*
X461400Y173500D01*
X438000D01*
G01X458500Y278000D02*
X455000Y274500D01*
G01D02*
X451500Y278000D01*
G01X498500Y207000D02*
X508000Y216500D01*
Y253000D01*
X502000Y259000D01*
X488039D01*
X480612Y266427D01*
X480573D01*
X469000Y278000D01*
X458500D01*
G01X500500Y230500D02*
Y246700D01*
X493200Y254000D01*
X483999D01*
X480999Y251000D01*
X479000D01*
G01X500500Y225500D02*
Y230500D01*
X820000Y45000D03*
Y50000D03*
X815000Y45000D03*
Y50000D03*
X820000Y158000D03*
X815000D03*
X820000Y163000D03*
X815000D03*
X840000Y45000D03*
Y50000D03*
X835000Y45000D03*
Y50000D03*
X830000Y45000D03*
Y50000D03*
X825000Y45000D03*
Y50000D03*
X840000Y158000D03*
X835000D03*
X830000D03*
X825000D03*
X840000Y163000D03*
X835000D03*
X830000D03*
X825000D03*
X865000Y45000D03*
Y50000D03*
X860000Y45000D03*
Y50000D03*
X855000Y45000D03*
Y50000D03*
X850000Y45000D03*
Y50000D03*
X845000Y45000D03*
Y50000D03*
X865000Y158000D03*
X860000D03*
X855000D03*
X850000D03*
X845000D03*
X865000Y163000D03*
X860000D03*
X855000D03*
X850000D03*
X845000D03*
X885000Y45000D03*
Y50000D03*
X880000Y45000D03*
Y50000D03*
X875000Y45000D03*
Y50000D03*
X870000Y45000D03*
Y50000D03*
X885000Y158000D03*
X880000D03*
X875000D03*
X870000D03*
X885000Y163000D03*
X880000D03*
X875000D03*
X870000D03*
X905000Y45000D03*
Y50000D03*
X900000Y45000D03*
Y50000D03*
X895000Y45000D03*
Y50000D03*
X890000Y45000D03*
Y50000D03*
X905000Y158000D03*
X900000D03*
X895000D03*
X890000D03*
X905000Y163000D03*
X900000D03*
X895000D03*
X890000D03*
X925000Y45000D03*
Y50000D03*
X920000Y45000D03*
Y50000D03*
X915000Y45000D03*
Y50000D03*
X910000Y45000D03*
Y50000D03*
X925000Y158000D03*
X920000D03*
X915000D03*
X910000D03*
X925000Y163000D03*
X920000D03*
X915000D03*
X910000D03*
X950000Y45000D03*
Y50000D03*
X945000Y45000D03*
Y50000D03*
X940000Y45000D03*
Y50000D03*
X935000Y45000D03*
Y50000D03*
X930000Y45000D03*
Y50000D03*
X950000Y158000D03*
X945000D03*
X940000D03*
X935000D03*
X930000D03*
X950000Y163000D03*
X945000D03*
X940000D03*
X935000D03*
X930000D03*
X970000Y45000D03*
Y50000D03*
X965000Y45000D03*
Y50000D03*
X960000Y45000D03*
Y50000D03*
X955000Y45000D03*
Y50000D03*
X970000Y158000D03*
X965000D03*
X960000D03*
X955000D03*
X970000Y163000D03*
X965000D03*
X960000D03*
X955000D03*
X985000Y45000D03*
Y50000D03*
X980000Y45000D03*
Y50000D03*
X975000Y45000D03*
Y50000D03*
X985000Y158000D03*
X980000D03*
X975000D03*
X985000Y163000D03*
X980000D03*
X975000D03*
X1005000Y328900D03*
Y323900D03*
Y318400D03*
X1006500Y380400D03*
Y385900D03*
Y390900D03*
X1108500Y318900D03*
Y324400D03*
Y329400D03*
X1107500Y381400D03*
Y386900D03*
Y391900D03*
G54D24*
G01X122500Y194000D02*
X129000D01*
X129378Y194378D01*
G01X227000Y208500D02*
X226403Y209097D01*
X125097D01*
X119500Y203500D01*
G01X234600Y207500D02*
Y205570D01*
X234400Y205370D01*
Y203630D01*
X234600Y203430D01*
Y192900D01*
G01X896000Y176700D02*
X753047D01*
X752747Y177000D01*
X629500D01*
X624400Y171900D01*
X599600D01*
X594000Y177500D01*
X571000D01*
G54D15*
X23000Y351100D03*
Y363000D03*
X88500Y44500D03*
X85500Y168000D03*
X107000Y103000D03*
X124500Y229500D03*
X263500Y275000D03*
X277000D03*
X337000Y22000D03*
X496000Y95000D03*
X484500D03*
X481000Y116500D03*
X508000Y95000D03*
X714000Y310500D03*
Y320500D03*
Y393000D03*
Y403000D03*
X724000Y310500D03*
X734000D03*
X724000Y320500D03*
X734000D03*
X724000Y393000D03*
X734000D03*
X724000Y403000D03*
X734000D03*
X757000Y248400D03*
X744000Y310500D03*
X754000D03*
X744000Y320500D03*
X754000D03*
X744000Y393000D03*
X754000D03*
X744000Y403000D03*
X754000D03*
X769800Y248300D03*
X764000Y310500D03*
Y320500D03*
Y393000D03*
Y403000D03*
X837500Y310500D03*
Y320500D03*
Y393000D03*
Y403000D03*
X849500Y255000D03*
Y265000D03*
X859500Y255000D03*
Y265000D03*
X847500Y310500D03*
X857500D03*
X847500Y320500D03*
X857500D03*
X847500Y393000D03*
X857500D03*
X847500Y403000D03*
X857500D03*
X869500Y255000D03*
Y265000D03*
X879500Y255000D03*
Y265000D03*
X867500Y310500D03*
X877500D03*
X887500D03*
X867500Y320500D03*
X877500D03*
X887500D03*
X867500Y393000D03*
X877500D03*
X887500D03*
X867500Y403000D03*
X877500D03*
X887500D03*
X898000Y255000D03*
Y265000D03*
X908000Y255000D03*
Y265000D03*
X918000Y255000D03*
Y265000D03*
X928000Y255000D03*
Y265000D03*
X945000Y255000D03*
Y265000D03*
X937500Y308500D03*
X947500D03*
X937500Y328500D03*
X947500D03*
X937500Y318500D03*
X947500D03*
X937500Y338500D03*
X947500D03*
X939000Y370500D03*
X949000D03*
X939000Y390500D03*
X949000D03*
X939000Y380500D03*
X949000D03*
X939000Y400500D03*
X949000D03*
X955000Y255000D03*
Y265000D03*
X965000Y255000D03*
Y265000D03*
X1041000Y309000D03*
X1051000D03*
X1041000Y329000D03*
X1051000D03*
X1041000Y319000D03*
X1051000D03*
X1041000Y339000D03*
X1051000D03*
X1040000Y371500D03*
X1050000D03*
X1040000Y391500D03*
X1050000D03*
X1040000Y381500D03*
X1050000D03*
X1040000Y401500D03*
X1050000D03*
X1140000Y329500D03*
Y319500D03*
Y349500D03*
Y339500D03*
Y369500D03*
Y359500D03*
X1150000Y329500D03*
Y319500D03*
Y349500D03*
Y339500D03*
Y369500D03*
Y359500D03*
X1227900Y329200D03*
Y319200D03*
Y349200D03*
Y339200D03*
Y369200D03*
Y359200D03*
X1237900Y329200D03*
Y319200D03*
Y349200D03*
Y339200D03*
Y369200D03*
Y359200D03*
G54D25*
G01X236200Y162500D02*
X238500D01*
X251000Y150000D01*
Y136500D01*
X258500Y129000D01*
Y122678D01*
X258600Y122578D01*
Y120422D01*
X258500Y120322D01*
Y118500D01*
G01X250900Y41949D02*
X248551D01*
X248852Y42250D01*
X249000D01*
G01X258500Y118500D02*
Y113500D01*
X257000Y112000D01*
Y99000D01*
X260400Y95600D01*
X262900D01*
X268594Y89906D01*
Y58148D01*
X269100Y57642D01*
Y52100D01*
X268000Y51000D01*
G01X258500Y118500D02*
X254000D01*
G01X271000Y43000D02*
Y48000D01*
X268000Y51000D01*
G01X330136Y42000D02*
Y39700D01*
X324436Y34000D01*
X284500D01*
X282500Y32000D01*
X275000D01*
X271000Y36000D01*
Y43000D01*
G01X277000Y126136D02*
X275542D01*
X274078Y127600D01*
X271922D01*
X266750Y122428D01*
Y121250D01*
G01X330000Y50500D02*
X330136Y50364D01*
Y42000D01*
G01X428500Y149136D02*
X429264Y149900D01*
X429578D01*
X431100Y151422D01*
Y151736D01*
X438000Y158636D01*
Y173500D01*
G54D16*
G01X493000Y46500D02*
X486000Y39500D01*
Y9500D01*
X482000Y5500D01*
X413500D01*
X412000Y7000D01*
X365500D01*
X361500Y3000D01*
X312000D01*
X310450Y4550D01*
X111950D01*
X95500Y21000D01*
X67000D01*
X53750Y34250D01*
X16249D01*
X10500Y39999D01*
Y222500D01*
G01X320000Y251000D02*
X313000D01*
X311000Y249000D01*
X305000D01*
X298400Y242400D01*
X280167D01*
X276000Y246567D01*
G01X466500Y75500D02*
Y45000D01*
X450500Y29000D01*
X423500D01*
X407000Y12500D01*
X369531D01*
X368181Y13850D01*
X360681D01*
X360181Y14350D01*
X357819D01*
X357319Y13850D01*
X352500D01*
X347150Y8500D01*
X345531D01*
X344681Y7650D01*
X342319D01*
X341469Y8500D01*
X326000D01*
X320000Y14500D01*
Y16000D01*
G01X355500Y246567D02*
X350933Y242000D01*
X339000D01*
X336500Y244500D01*
Y253500D01*
X335500Y254500D01*
X323500D01*
X320000Y251000D01*
G01X400000D02*
X392500D01*
X391000Y249500D01*
X381500D01*
X374400Y242400D01*
X359667D01*
X355500Y246567D01*
G01X407400Y133500D02*
X412000D01*
X416000Y137500D01*
G01X407500Y172000D02*
X414000D01*
X416500Y169500D01*
G01X434500Y246567D02*
X430133Y242200D01*
X419500D01*
X416500Y245200D01*
Y252500D01*
X414500Y254500D01*
X405500D01*
X402000Y251000D01*
X400000D01*
G01X416500Y169500D02*
X418000Y168000D01*
Y139500D01*
G01X426515Y172985D02*
X427485D01*
X428000Y173500D01*
X438000D01*
G01X479000Y251000D02*
X469668D01*
X468168Y249500D01*
X460500D01*
X453400Y242400D01*
X438667D01*
X434500Y246567D01*
G01X494500Y160500D02*
X469400D01*
X464400Y165500D01*
G01X494500Y175500D02*
X499500D01*
G01X498500Y207000D02*
Y202931D01*
X488000Y192431D01*
Y178000D01*
X490500Y175500D01*
X494500D01*
G01X499500Y160500D02*
X494500D01*
G01X499500Y165500D02*
X494500D01*
G01X1150000Y359500D02*
X1140000D01*
G01X1150000D02*
X1150500Y360000D01*
X1154000D01*
X1156500Y362500D01*
Y385000D01*
X1159500Y388000D01*
X1172100D01*
X1176300Y383800D01*
G01X1178800D02*
X1176300D01*
G01X1181300D02*
X1178800D01*
X35500Y28950D03*
X47500Y243050D03*
G54D26*
G01X227500Y190000D02*
Y182700D01*
G01X652500Y88500D02*
X647500D01*
X638500Y79500D01*
Y45500D01*
X659500Y24500D01*
X787500D01*
X799000Y36000D01*
X998000D01*
X1003000Y41000D01*
Y82200D01*
X991700Y93500D01*
X963000D01*
G54D17*
X65000Y330500D03*
Y325500D03*
Y385500D03*
Y380500D03*
X85000Y330500D03*
Y325500D03*
X80000Y330500D03*
Y325500D03*
X75000Y330500D03*
Y325500D03*
X70000Y330500D03*
Y325500D03*
X85000Y385500D03*
Y380500D03*
X80000Y385500D03*
Y380500D03*
X75000Y385500D03*
Y380500D03*
X70000Y385500D03*
Y380500D03*
X110000Y330500D03*
Y325500D03*
X105000Y330500D03*
Y325500D03*
X100000Y330500D03*
Y325500D03*
X95000Y330500D03*
Y325500D03*
X90000Y330500D03*
Y325500D03*
X110000Y385500D03*
Y380500D03*
X105000Y385500D03*
Y380500D03*
X100000Y385500D03*
Y380500D03*
X95000Y385500D03*
Y380500D03*
X90000Y385500D03*
Y380500D03*
X130000Y330500D03*
Y325500D03*
X125000Y330500D03*
Y325500D03*
X120000Y330500D03*
Y325500D03*
X115000Y330500D03*
Y325500D03*
X130000Y385500D03*
Y380500D03*
X125000Y385500D03*
Y380500D03*
X120000Y385500D03*
Y380500D03*
X115000Y385500D03*
Y380500D03*
X150000Y330500D03*
Y325500D03*
X145000Y330500D03*
Y325500D03*
X140000Y330500D03*
Y325500D03*
X135000Y330500D03*
Y325500D03*
X150000Y385500D03*
Y380500D03*
X145000Y385500D03*
Y380500D03*
X140000Y385500D03*
Y380500D03*
X135000Y385500D03*
Y380500D03*
X175000Y330500D03*
Y325500D03*
X170000Y330500D03*
Y325500D03*
X165000Y330500D03*
Y325500D03*
X160000Y330500D03*
Y325500D03*
X155000Y330500D03*
Y325500D03*
X175000Y385500D03*
Y380500D03*
X170000Y385500D03*
Y380500D03*
X165000Y385500D03*
Y380500D03*
X160000Y385500D03*
Y380500D03*
X155000Y385500D03*
Y380500D03*
X185000Y330500D03*
Y325500D03*
X180000Y330500D03*
Y325500D03*
X185000Y385500D03*
Y380500D03*
X180000Y385500D03*
Y380500D03*
X260000Y330500D03*
Y325500D03*
X255000Y330500D03*
Y325500D03*
X260000Y385500D03*
Y380500D03*
X255000Y385500D03*
Y380500D03*
X280000Y330500D03*
Y325500D03*
X275000Y330500D03*
Y325500D03*
X270000Y330500D03*
Y325500D03*
X265000Y330500D03*
Y325500D03*
X280000Y385500D03*
Y380500D03*
X275000Y385500D03*
Y380500D03*
X270000Y385500D03*
Y380500D03*
X265000Y385500D03*
Y380500D03*
X302500Y43500D03*
X297500D03*
X302500Y48500D03*
X297500D03*
X302500Y53500D03*
X297500D03*
X302500Y58500D03*
X297500D03*
X302500Y63500D03*
X297500D03*
X302500Y68500D03*
X297500D03*
X302500Y73500D03*
X297500D03*
X302500Y78500D03*
X297500D03*
X302500Y83500D03*
X297500D03*
X302500Y88500D03*
X297500D03*
X302500Y93500D03*
X297500D03*
X302500Y98500D03*
X297500D03*
X302500Y103500D03*
X297500D03*
X302500Y108500D03*
X297500D03*
X302500Y113500D03*
X297500D03*
X302500Y118500D03*
X297500D03*
X302500Y123500D03*
X297500D03*
X302500Y128500D03*
X297500D03*
X302500Y133500D03*
X297500D03*
X302500Y138500D03*
X297500D03*
X302500Y143500D03*
X297500D03*
X302500Y148500D03*
X297500D03*
X302500Y153500D03*
X297500D03*
X302500Y158500D03*
X297500D03*
X302500Y163500D03*
X297500D03*
X300000Y330500D03*
Y325500D03*
X295000Y330500D03*
Y325500D03*
X290000Y330500D03*
Y325500D03*
X285000Y330500D03*
Y325500D03*
X300000Y385500D03*
Y380500D03*
X295000Y385500D03*
Y380500D03*
X290000Y385500D03*
Y380500D03*
X285000Y385500D03*
Y380500D03*
X325000Y330500D03*
Y325500D03*
X320000Y330500D03*
Y325500D03*
X315000Y330500D03*
Y325500D03*
X310000Y330500D03*
Y325500D03*
X305000Y330500D03*
Y325500D03*
X325000Y385500D03*
Y380500D03*
X320000Y385500D03*
Y380500D03*
X315000Y385500D03*
Y380500D03*
X310000Y385500D03*
Y380500D03*
X305000Y385500D03*
Y380500D03*
X345000Y330500D03*
Y325500D03*
X340000Y330500D03*
Y325500D03*
X335000Y330500D03*
Y325500D03*
X330000Y330500D03*
Y325500D03*
X345000Y385500D03*
Y380500D03*
X340000Y385500D03*
Y380500D03*
X335000Y385500D03*
Y380500D03*
X330000Y385500D03*
Y380500D03*
X365000Y330500D03*
Y325500D03*
X360000Y330500D03*
Y325500D03*
X355000Y330500D03*
Y325500D03*
X350000Y330500D03*
Y325500D03*
X365000Y385500D03*
Y380500D03*
X360000Y385500D03*
Y380500D03*
X355000Y385500D03*
Y380500D03*
X350000Y385500D03*
Y380500D03*
X377500Y43500D03*
X372500D03*
X377500Y48500D03*
X372500D03*
X377500Y53500D03*
X372500D03*
X377500Y58500D03*
X372500D03*
X377500Y63500D03*
X372500D03*
X377500Y68500D03*
X372500D03*
X377500Y73500D03*
X372500D03*
X377500Y78500D03*
X372500D03*
X377500Y83500D03*
X372500D03*
X377500Y88500D03*
X372500D03*
X377500Y93500D03*
X372500D03*
X377500Y98500D03*
X372500D03*
X377500Y103500D03*
X372500D03*
X377500Y108500D03*
X372500D03*
X377500Y113500D03*
X372500D03*
X377500Y118500D03*
X372500D03*
X377500Y123500D03*
X372500D03*
X377500Y128500D03*
X372500D03*
X377500Y133500D03*
X372500D03*
X377500Y138500D03*
X372500D03*
X377500Y143500D03*
X372500D03*
X377500Y148500D03*
X372500D03*
X377500Y153500D03*
X372500D03*
X377500Y158500D03*
X372500D03*
X377500Y163500D03*
X372500D03*
X375000Y330500D03*
Y325500D03*
X370000Y330500D03*
Y325500D03*
X375000Y385500D03*
Y380500D03*
X370000Y385500D03*
Y380500D03*
X407000Y88000D03*
X423000Y105500D03*
X452500Y43500D03*
X447500D03*
X452500Y48500D03*
X447500D03*
X452500Y53500D03*
X447500D03*
X452500Y58500D03*
X447500D03*
X452500Y63500D03*
X447500D03*
X452500Y68500D03*
X447500D03*
X452500Y73500D03*
X447500D03*
X452500Y78500D03*
X447500D03*
X452500Y83500D03*
X447500D03*
X452500Y88500D03*
X447500D03*
X452500Y93500D03*
X447500D03*
X452500Y98500D03*
X447500D03*
X452500Y103500D03*
X447500D03*
X452500Y108500D03*
X447500D03*
X452500Y113500D03*
X447500D03*
X452500Y118500D03*
X447500D03*
X452500Y123500D03*
X447500D03*
X452500Y128500D03*
X447500D03*
X452500Y133500D03*
X447500D03*
X452500Y138500D03*
X447500D03*
X452500Y143500D03*
X447500D03*
X452500Y148500D03*
X447500D03*
X452500Y153500D03*
X447500D03*
X452500Y158500D03*
X447500D03*
X452500Y163500D03*
X447500D03*
X455000Y330500D03*
Y325500D03*
X450000Y330500D03*
Y325500D03*
X445000Y330500D03*
Y325500D03*
X455000Y385500D03*
Y380500D03*
X450000Y385500D03*
Y380500D03*
X445000Y385500D03*
Y380500D03*
X475000Y330500D03*
Y325500D03*
X470000Y330500D03*
Y325500D03*
X465000Y330500D03*
Y325500D03*
X460000Y330500D03*
Y325500D03*
X475000Y385500D03*
Y380500D03*
X470000Y385500D03*
Y380500D03*
X465000Y385500D03*
Y380500D03*
X460000Y385500D03*
Y380500D03*
X494500Y160500D03*
Y155500D03*
Y150500D03*
Y145500D03*
Y180500D03*
Y175500D03*
Y170500D03*
Y165500D03*
Y190500D03*
Y185500D03*
X495000Y330500D03*
Y325500D03*
X490000Y330500D03*
Y325500D03*
X485000Y330500D03*
Y325500D03*
X480000Y330500D03*
Y325500D03*
X495000Y385500D03*
Y380500D03*
X490000Y385500D03*
Y380500D03*
X485000Y385500D03*
Y380500D03*
X480000Y385500D03*
Y380500D03*
X499500Y160500D03*
Y155500D03*
Y150500D03*
Y145500D03*
Y180500D03*
Y175500D03*
Y170500D03*
Y165500D03*
Y190500D03*
Y185500D03*
X520000Y330500D03*
Y325500D03*
X515000Y330500D03*
Y325500D03*
X510000Y330500D03*
Y325500D03*
X505000Y330500D03*
Y325500D03*
X500000Y330500D03*
Y325500D03*
X520000Y385500D03*
Y380500D03*
X515000Y385500D03*
Y380500D03*
X510000Y385500D03*
Y380500D03*
X505000Y385500D03*
Y380500D03*
X500000Y385500D03*
Y380500D03*
X540000Y330500D03*
Y325500D03*
X535000Y330500D03*
Y325500D03*
X530000Y330500D03*
Y325500D03*
X525000Y330500D03*
Y325500D03*
X540000Y385500D03*
Y380500D03*
X535000Y385500D03*
Y380500D03*
X530000Y385500D03*
Y380500D03*
X525000Y385500D03*
Y380500D03*
X560000Y330500D03*
Y325500D03*
X555000Y330500D03*
Y325500D03*
X550000Y330500D03*
Y325500D03*
X545000Y330500D03*
Y325500D03*
X560000Y385500D03*
Y380500D03*
X555000Y385500D03*
Y380500D03*
X550000Y385500D03*
Y380500D03*
X545000Y385500D03*
Y380500D03*
X582500Y43500D03*
X577500D03*
X582500Y48500D03*
X577500D03*
X582500Y53500D03*
X577500D03*
X582500Y58500D03*
X577500D03*
X582500Y63500D03*
X577500D03*
X582500Y68500D03*
X577500D03*
X582500Y73500D03*
X577500D03*
X582500Y78500D03*
X577500D03*
X582500Y83500D03*
X577500D03*
X582500Y88500D03*
X577500D03*
X582500Y93500D03*
X577500D03*
X582500Y98500D03*
X577500D03*
X582500Y103500D03*
X577500D03*
X582500Y108500D03*
X577500D03*
X582500Y113500D03*
X577500D03*
X582500Y118500D03*
X577500D03*
X582500Y123500D03*
X577500D03*
X582500Y128500D03*
X577500D03*
X582500Y133500D03*
X577500D03*
X582500Y138500D03*
X577500D03*
X582500Y143500D03*
X577500D03*
X582500Y148500D03*
X577500D03*
X582500Y153500D03*
X577500D03*
X582500Y158500D03*
X577500D03*
X582500Y163500D03*
X577500D03*
X565000Y330500D03*
Y325500D03*
Y385500D03*
Y380500D03*
X657500Y43500D03*
X652500D03*
X657500Y48500D03*
X652500D03*
X657500Y53500D03*
X652500D03*
X657500Y58500D03*
X652500D03*
X657500Y63500D03*
X652500D03*
X657500Y68500D03*
X652500D03*
X657500Y73500D03*
X652500D03*
X657500Y78500D03*
X652500D03*
X657500Y83500D03*
X652500D03*
X657500Y88500D03*
X652500D03*
X657500Y93500D03*
X652500D03*
X657500Y98500D03*
X652500D03*
X657500Y103500D03*
X652500D03*
X657500Y108500D03*
X652500D03*
X657500Y113500D03*
X652500D03*
X657500Y118500D03*
X652500D03*
X657500Y123500D03*
X652500D03*
X657500Y128500D03*
X652500D03*
X657500Y133500D03*
X652500D03*
X657500Y138500D03*
X652500D03*
X657500Y143500D03*
X652500D03*
X657500Y148500D03*
X652500D03*
X657500Y153500D03*
X652500D03*
X657500Y158500D03*
X652500D03*
X657500Y163500D03*
X652500D03*
X732500Y43500D03*
X727500D03*
X732500Y48500D03*
X727500D03*
X732500Y53500D03*
X727500D03*
X732500Y58500D03*
X727500D03*
X732500Y63500D03*
X727500D03*
X732500Y68500D03*
X727500D03*
X732500Y73500D03*
X727500D03*
X732500Y78500D03*
X727500D03*
X732500Y83500D03*
X727500D03*
X732500Y88500D03*
X727500D03*
X732500Y93500D03*
X727500D03*
X732500Y98500D03*
X727500D03*
X732500Y103500D03*
X727500D03*
X732500Y108500D03*
X727500D03*
X732500Y113500D03*
X727500D03*
X732500Y118500D03*
X727500D03*
X732500Y123500D03*
X727500D03*
X732500Y128500D03*
X727500D03*
X732500Y133500D03*
X727500D03*
X732500Y138500D03*
X727500D03*
X732500Y143500D03*
X727500D03*
X732500Y148500D03*
X727500D03*
X732500Y153500D03*
X727500D03*
X732500Y158500D03*
X727500D03*
X732500Y163500D03*
X727500D03*
X1054800Y45000D03*
Y50000D03*
X1049800Y45000D03*
Y50000D03*
X1054800Y158000D03*
X1049800D03*
X1054800Y163000D03*
X1049800D03*
X1079800Y45000D03*
Y50000D03*
X1074800Y45000D03*
Y50000D03*
X1069800Y45000D03*
Y50000D03*
X1064800Y45000D03*
Y50000D03*
X1059800Y45000D03*
Y50000D03*
X1079800Y158000D03*
X1074800D03*
X1069800D03*
X1064800D03*
X1059800D03*
X1079800Y163000D03*
X1074800D03*
X1069800D03*
X1064800D03*
X1059800D03*
X1099800Y45000D03*
Y50000D03*
X1094800Y45000D03*
Y50000D03*
X1089800Y45000D03*
Y50000D03*
X1084800Y45000D03*
Y50000D03*
X1099800Y158000D03*
X1094800D03*
X1089800D03*
X1084800D03*
X1099800Y163000D03*
X1094800D03*
X1089800D03*
X1084800D03*
X1119800Y45000D03*
Y50000D03*
X1114800Y45000D03*
Y50000D03*
X1109800Y45000D03*
Y50000D03*
X1104800Y45000D03*
Y50000D03*
X1119800Y158000D03*
X1114800D03*
X1109800D03*
X1104800D03*
X1119800Y163000D03*
X1114800D03*
X1109800D03*
X1104800D03*
X1144800Y45000D03*
Y50000D03*
X1139800Y45000D03*
Y50000D03*
X1134800Y45000D03*
Y50000D03*
X1129800Y45000D03*
Y50000D03*
X1124800Y45000D03*
Y50000D03*
X1144800Y158000D03*
X1139800D03*
X1134800D03*
X1129800D03*
X1124800D03*
X1144800Y163000D03*
X1139800D03*
X1134800D03*
X1129800D03*
X1124800D03*
X1164800Y45000D03*
Y50000D03*
X1159800Y45000D03*
Y50000D03*
X1154800Y45000D03*
Y50000D03*
X1149800Y45000D03*
Y50000D03*
X1164800Y158000D03*
X1159800D03*
X1154800D03*
X1149800D03*
X1164800Y163000D03*
X1159800D03*
X1154800D03*
X1149800D03*
X1184800Y45000D03*
Y50000D03*
X1179800Y45000D03*
Y50000D03*
X1174800Y45000D03*
Y50000D03*
X1169800Y45000D03*
Y50000D03*
X1184800Y158000D03*
X1179800D03*
X1174800D03*
X1169800D03*
X1184800Y163000D03*
X1179800D03*
X1174800D03*
X1169800D03*
X1209800Y45000D03*
Y50000D03*
X1204800Y45000D03*
Y50000D03*
X1199800Y45000D03*
Y50000D03*
X1194800Y45000D03*
Y50000D03*
X1189800Y45000D03*
Y50000D03*
X1209800Y158000D03*
X1204800D03*
X1199800D03*
X1194800D03*
X1189800D03*
X1209800Y163000D03*
X1204800D03*
X1199800D03*
X1194800D03*
X1189800D03*
X1219800Y45000D03*
Y50000D03*
X1214800Y45000D03*
Y50000D03*
X1219800Y158000D03*
X1214800D03*
X1219800Y163000D03*
X1214800D03*
G54D27*
G01X21066Y226566D02*
X23000Y228500D01*
G01X21066Y230434D02*
X23000Y228500D01*
G01X26066Y221566D02*
X28000Y223500D01*
G01D02*
X29934Y225434D01*
G01X26066D02*
X28000Y223500D01*
G01D02*
X29934Y221566D01*
G01X26066Y211566D02*
X28000Y213500D01*
G01D02*
X29934Y215434D01*
G01X26066D02*
X28000Y213500D01*
G01D02*
X29934Y211566D01*
G01X26066Y231566D02*
X28000Y233500D01*
G01D02*
X29934Y235434D01*
G01X26066D02*
X28000Y233500D01*
G01D02*
X29934Y231566D01*
G01X23000Y228500D02*
X24934Y230434D01*
G01X23000Y228500D02*
X24934Y226566D01*
G01X64497Y62501D02*
X66499D01*
G01X62250Y64748D02*
Y66750D01*
G01D02*
Y68752D01*
G01X60248Y66750D02*
X62250D01*
G01D02*
X64252D01*
G01X62000Y140998D02*
Y143000D01*
G01D02*
Y145002D01*
G01X59998Y143000D02*
X62000D01*
G01D02*
X64002D01*
G01X64498Y138600D02*
X66500D01*
G01X66499Y60499D02*
Y62501D01*
G01D02*
X68501D01*
G01X66500Y136598D02*
Y138600D01*
G01D02*
Y140602D01*
G01Y138600D02*
X68502D01*
G01X80000Y204498D02*
Y206500D01*
G01D02*
Y208502D01*
G01X77998Y206500D02*
X80000D01*
G01D02*
X82002D01*
G01X85999Y204498D02*
Y206500D01*
G01D02*
Y208502D01*
G01X83997Y206500D02*
X85999D01*
G01D02*
X88001D01*
G01X107198Y77000D02*
X109000D01*
G01X107198Y156500D02*
X109000D01*
G01X106094Y200592D02*
Y202594D01*
G01D02*
Y204596D01*
G01X104092Y202594D02*
X106094D01*
G01D02*
X108096D01*
G01X90937Y206500D02*
Y208502D01*
G01X88935Y206500D02*
X90937D01*
G01D02*
X92939D01*
G01X128000Y60698D02*
Y62500D01*
G01D02*
Y64302D01*
G01X126198Y62500D02*
X128000D01*
G01D02*
X129802D01*
G01X128000Y69698D02*
Y71500D01*
G01D02*
Y73302D01*
G01X126198Y71500D02*
X128000D01*
G01D02*
X129802D01*
G01X123500Y65198D02*
Y67000D01*
G01D02*
Y68802D01*
G01X121698Y67000D02*
X123500D01*
G01D02*
X125302D01*
G01X119000Y60698D02*
Y62500D01*
G01D02*
Y64302D01*
G01X117198Y62500D02*
X119000D01*
G01D02*
X120802D01*
G01X119000Y69698D02*
Y71500D01*
G01D02*
Y73302D01*
G01X117198Y71500D02*
X119000D01*
G01D02*
X120802D01*
G01X118579Y86600D02*
Y88402D01*
G01X116777Y86600D02*
X118579D01*
G01D02*
X120381D01*
G01X118579Y82198D02*
Y84000D01*
G01X116777D02*
X118579D01*
G01D02*
X120381D01*
G01X113000Y75181D02*
Y76983D01*
G01D02*
Y78785D01*
G01X111198Y76983D02*
X113000D01*
G01D02*
X114802D01*
G01X109000Y75198D02*
Y77000D01*
G01D02*
Y78802D01*
G01Y77000D02*
X110802D01*
G01X128000Y149198D02*
Y151000D01*
G01D02*
Y152802D01*
G01X126198Y151000D02*
X128000D01*
G01D02*
X129802D01*
G01X113000Y154681D02*
Y156483D01*
G01D02*
Y158285D01*
G01X111198Y156483D02*
X113000D01*
G01D02*
X114802D01*
G01X119000Y149198D02*
Y151000D01*
G01D02*
Y152802D01*
G01X117198Y151000D02*
X119000D01*
G01D02*
X120802D01*
G01X128000Y140198D02*
Y142000D01*
G01D02*
Y143802D01*
G01X126198Y142000D02*
X128000D01*
G01D02*
X129802D01*
G01X123500Y144698D02*
Y146500D01*
G01D02*
Y148302D01*
G01X121698Y146500D02*
X123500D01*
G01D02*
X125302D01*
G01X119000Y140198D02*
Y142000D01*
G01D02*
Y143802D01*
G01X117198Y142000D02*
X119000D01*
G01D02*
X120802D01*
G01X109000Y154698D02*
Y156500D01*
G01D02*
Y158302D01*
G01Y156500D02*
X110802D01*
G01X118579Y161698D02*
Y163500D01*
G01X116777D02*
X118579D01*
G01D02*
X120381D01*
G01X118579Y166100D02*
Y167902D01*
G01X116777Y166100D02*
X118579D01*
G01D02*
X120381D01*
G01X119500Y201498D02*
Y203500D01*
G01X115500Y201498D02*
Y203500D01*
G01X119500D02*
Y205502D01*
G01Y203500D02*
X121502D01*
G01X115500D02*
Y205502D01*
G01X113498Y203500D02*
X115500D01*
G01X193698Y38484D02*
X195500D01*
G01X190500Y36698D02*
Y38500D01*
G01D02*
Y40302D01*
G01X188698Y38500D02*
X190500D01*
G01D02*
X192302D01*
G01X190500Y86198D02*
Y88000D01*
G01D02*
Y89802D01*
G01X193808Y86182D02*
Y87984D01*
G01D02*
Y89786D01*
G01X194698Y147984D02*
X196500D01*
G01X191000Y146198D02*
Y148000D01*
G01D02*
Y149802D01*
G01X189198Y148000D02*
X191000D01*
G01D02*
X192802D01*
G01X202300Y29698D02*
Y31500D01*
G01D02*
Y33302D01*
G01X200498Y31500D02*
X202300D01*
G01D02*
X204102D01*
G01X202300Y33698D02*
Y35500D01*
G01D02*
Y37302D01*
G01X200498Y35500D02*
X202300D01*
G01D02*
X204102D01*
G01X202500Y44198D02*
Y46000D01*
G01D02*
Y47802D01*
G01X200698Y46000D02*
X202500D01*
G01D02*
X204302D01*
G01X202300Y39698D02*
Y41500D01*
G01D02*
Y43302D01*
G01X200498Y41500D02*
X202300D01*
G01D02*
X204102D01*
G01X195500Y36682D02*
Y38484D01*
G01D02*
Y40286D01*
G01Y38484D02*
X197302D01*
G01X202300Y89198D02*
Y91000D01*
G01D02*
X204102D01*
G01X202300Y94500D02*
Y96302D01*
G01Y94500D02*
X204102D01*
G01X202300Y85000D02*
Y86802D01*
G01X200498Y85000D02*
X202300D01*
G01D02*
X204102D01*
G01X200198Y81500D02*
X202000D01*
G01D02*
X203802D01*
G01X197000Y86198D02*
Y88000D01*
G01D02*
Y89802D01*
G01Y88000D02*
X198802D01*
G01X196500Y146182D02*
Y147984D01*
G01D02*
Y149786D01*
G01Y147984D02*
X198302D01*
G01X202800Y152899D02*
Y154701D01*
G01X200998D02*
X202800D01*
G01D02*
X204602D01*
G01X202800Y149198D02*
Y151000D01*
G01D02*
Y152802D01*
G01Y151000D02*
X204602D01*
G01X202800Y143198D02*
Y145000D01*
G01D02*
Y146802D01*
G01X200998Y145000D02*
X202800D01*
G01D02*
X204602D01*
G01X202800Y138198D02*
Y140000D01*
G01D02*
Y141802D01*
G01X200998Y140000D02*
X202800D01*
G01D02*
X204602D01*
G01X213709Y223998D02*
Y226000D01*
G01X209000Y215498D02*
Y217500D01*
G01D02*
Y219502D01*
G01X206998Y217500D02*
X209000D01*
G01D02*
X211002D01*
G01X214000Y235998D02*
Y238000D01*
G01X211998D02*
X214000D01*
G01D02*
X216002D01*
G01X213709Y226000D02*
Y228002D01*
G01X211707Y226000D02*
X213709D01*
G01D02*
X215711D01*
G01X209000Y233498D02*
Y235500D01*
G01D02*
Y237502D01*
G01X206998Y235500D02*
X209000D01*
G01D02*
X211002D01*
G01X236000Y105998D02*
Y108000D01*
G01D02*
Y110002D01*
G01X233998Y108000D02*
X236000D01*
G01D02*
X238002D01*
G01X230500Y105998D02*
Y108000D01*
G01D02*
Y110002D01*
G01X228498Y108000D02*
X230500D01*
G01D02*
X232502D01*
G01X228500Y234698D02*
Y236500D01*
G01D02*
Y238302D01*
G01X226698Y236500D02*
X228500D01*
G01D02*
X230302D01*
G01X234500Y234698D02*
Y236500D01*
G01D02*
Y238302D01*
G01X232698Y236500D02*
X234500D01*
G01D02*
X236302D01*
G01X249000Y40248D02*
Y42250D01*
G01D02*
Y44252D01*
G01Y42250D02*
X251002D01*
G01X249500Y48998D02*
Y51000D01*
G01D02*
Y53002D01*
G01X247498Y51000D02*
X249500D01*
G01D02*
X251502D01*
G01X241125Y105873D02*
Y107875D01*
G01D02*
Y109877D01*
G01X239123Y107875D02*
X241125D01*
G01D02*
X243127D01*
G01X243500Y129676D02*
Y131678D01*
G01D02*
Y133680D01*
G01X241498Y131678D02*
X243500D01*
G01D02*
X245502D01*
G01X244000Y144498D02*
Y146500D01*
G01D02*
Y148502D01*
G01X241998Y146500D02*
X244000D01*
G01D02*
X246002D01*
G01X244000Y141000D02*
Y143002D01*
G01X241998Y141000D02*
X244000D01*
G01D02*
X246002D01*
G01X263500Y137561D02*
Y139563D01*
G01X268000Y137561D02*
Y139563D01*
G01X263500D02*
Y141565D01*
G01X261498Y139563D02*
X263500D01*
G01D02*
X265502D01*
G01X268000D02*
Y141565D01*
G01X265998Y139563D02*
X268000D01*
G01D02*
X270002D01*
G01X268000Y165935D02*
Y167937D01*
G01D02*
Y169939D01*
G01X265998Y167937D02*
X268000D01*
G01D02*
X270002D01*
G01X263500Y165935D02*
Y167937D01*
G01D02*
Y169939D01*
G01X261498Y167937D02*
X263500D01*
G01D02*
X265502D01*
G01X275500Y251198D02*
Y253000D01*
G01D02*
Y254802D01*
G01X273698Y253000D02*
X275500D01*
G01D02*
X277302D01*
G01X320000Y243198D02*
Y245000D01*
G01D02*
Y246802D01*
G01X318198Y245000D02*
X320000D01*
G01D02*
X321802D01*
G01X346098Y53900D02*
X347900D01*
G01X337747Y130561D02*
Y132563D01*
G01D02*
Y134565D01*
G01X335745Y132563D02*
X337747D01*
G01D02*
X339749D01*
G01X330500Y130561D02*
Y132563D01*
G01D02*
Y134565D01*
G01X328498Y132563D02*
X330500D01*
G01D02*
X332502D01*
G01X333000Y154998D02*
Y157000D01*
G01D02*
Y159002D01*
G01X330998Y157000D02*
X333000D01*
G01D02*
X335002D01*
G01X337747Y155061D02*
Y157063D01*
G01D02*
Y159065D01*
G01X335745Y157063D02*
X337747D01*
G01D02*
X339749D01*
G01X353864Y40634D02*
Y42636D01*
G01D02*
Y44638D01*
G01X351862Y42636D02*
X353864D01*
G01D02*
X355866D01*
G01X353864Y48998D02*
Y51000D01*
G01D02*
Y53002D01*
G01X351862Y51000D02*
X353864D01*
G01D02*
X355866D01*
G01X347900Y52098D02*
Y53900D01*
G01D02*
Y55702D01*
G01Y53900D02*
X349702D01*
G01X355000Y251198D02*
Y253000D01*
G01D02*
Y254802D01*
G01X353198Y253000D02*
X355000D01*
G01D02*
X356802D01*
G01X395636Y101498D02*
Y103500D01*
G01D02*
Y105502D01*
G01X393634Y103500D02*
X395636D01*
G01D02*
X397638D01*
G01X399500Y244198D02*
Y246000D01*
G01X410000Y265998D02*
Y268000D01*
G01X399500Y246000D02*
Y247802D01*
G01X397698Y246000D02*
X399500D01*
G01D02*
X401302D01*
G01X410000Y268000D02*
Y270002D01*
G01X407998Y268000D02*
X410000D01*
G01D02*
X412002D01*
G01X414400Y53998D02*
Y56000D01*
G01D02*
Y58002D01*
G01X412398Y56000D02*
X414400D01*
G01D02*
X416402D01*
G01X414400Y59498D02*
Y61500D01*
G01D02*
Y63502D01*
G01X412398Y61500D02*
X414400D01*
G01D02*
X416402D01*
G01X414400Y64498D02*
Y66500D01*
G01D02*
Y68502D01*
G01X412398Y66500D02*
X414400D01*
G01D02*
X416402D01*
G01X424500Y131998D02*
Y134000D01*
G01D02*
Y136002D01*
G01X422498Y134000D02*
X424500D01*
G01D02*
X426502D01*
G01X432198Y253000D02*
X434000D01*
G01X416000Y265998D02*
Y268000D01*
G01D02*
Y270002D01*
G01X413998Y268000D02*
X416000D01*
G01D02*
X418002D01*
G01X434000Y251198D02*
Y253000D01*
G01D02*
Y254802D01*
G01Y253000D02*
X435802D01*
G01X474498Y234000D02*
X476500D01*
G01X482000Y231998D02*
Y234000D01*
G01D02*
Y236002D01*
G01X479998Y234000D02*
X482000D01*
G01D02*
X484002D01*
G01X478500Y244198D02*
Y246000D01*
G01X476500Y231998D02*
Y234000D01*
G01D02*
Y236002D01*
G01Y234000D02*
X478502D01*
G01X478500Y246000D02*
Y247802D01*
G01X476698Y246000D02*
X478500D01*
G01D02*
X480302D01*
G01X711398Y369000D02*
X713200D01*
G01X707800Y367198D02*
Y369000D01*
G01D02*
Y370802D01*
G01X705998Y369000D02*
X707800D01*
G01X712561Y380937D02*
X714563D01*
G01X706437Y378935D02*
Y380937D01*
G01D02*
Y382939D01*
G01X704435Y380937D02*
X706437D01*
G01D02*
X708439D01*
G01X711182Y390182D02*
X714000Y393000D01*
G01X711182Y395818D02*
X714000Y393000D01*
G01X711182Y400182D02*
X714000Y403000D01*
G01X711182Y405818D02*
X714000Y403000D01*
G01X713200Y367198D02*
Y369000D01*
G01D02*
Y370802D01*
G01Y369000D02*
X715002D01*
G01X714563Y378935D02*
Y380937D01*
G01D02*
Y382939D01*
G01Y380937D02*
X716565D01*
G01X714000Y393000D02*
X716818Y395818D01*
G01X714000Y393000D02*
X716818Y390182D01*
G01X714000Y403000D02*
X716818Y405818D01*
G01X714000Y403000D02*
X716818Y400182D01*
G01X753500Y359698D02*
Y361500D01*
G01D02*
Y363302D01*
G01X750500Y359698D02*
Y361500D01*
G01D02*
Y363302D01*
G01X748698Y361500D02*
X750500D01*
G01X751182Y390182D02*
X754000Y393000D01*
G01D02*
X756818Y395818D01*
G01X751182D02*
X754000Y393000D01*
G01D02*
X756818Y390182D01*
G01X751182Y400182D02*
X754000Y403000D01*
G01D02*
X756818Y405818D01*
G01X751182D02*
X754000Y403000D01*
G01D02*
X756818Y400182D01*
G01X756500Y359698D02*
Y361500D01*
G01D02*
Y363302D01*
G01Y361500D02*
X758302D01*
G01X774000Y359698D02*
Y361500D01*
G01D02*
Y363302D01*
G01X772198Y361500D02*
X774000D01*
G01X777000Y359698D02*
Y361500D01*
G01D02*
Y363302D01*
G01X780000Y359698D02*
Y361500D01*
G01D02*
Y363302D01*
G01Y361500D02*
X781802D01*
G01X836700Y367198D02*
Y369000D01*
G01D02*
Y370802D01*
G01Y369000D02*
X838502D01*
G01X831300Y367198D02*
Y369000D01*
G01D02*
Y370802D01*
G01X829498Y369000D02*
X831300D01*
G01D02*
X833102D01*
G01X838063Y378935D02*
Y380937D01*
G01X836061D02*
X838063D01*
G01D02*
X840065D01*
G01X829937Y378935D02*
Y380937D01*
G01D02*
Y382939D01*
G01X827935Y380937D02*
X829937D01*
G01D02*
X831939D01*
G01X834682Y390182D02*
X837500Y393000D01*
G01D02*
X840318Y395818D01*
G01X834682D02*
X837500Y393000D01*
G01D02*
X840318Y390182D01*
G01X834682Y400182D02*
X837500Y403000D01*
G01D02*
X840318Y405818D01*
G01X834682D02*
X837500Y403000D01*
G01D02*
X840318Y400182D01*
G01X880000Y359698D02*
Y361500D01*
G01D02*
Y363302D01*
G01Y361500D02*
X881802D01*
G01X877000Y359698D02*
Y361500D01*
G01D02*
Y363302D01*
G01X874000Y359698D02*
Y361500D01*
G01D02*
Y363302D01*
G01X872198Y361500D02*
X874000D01*
G01X874682Y390182D02*
X877500Y393000D01*
G01D02*
X880318Y395818D01*
G01X874682D02*
X877500Y393000D01*
G01D02*
X880318Y390182D01*
G01X874682Y400182D02*
X877500Y403000D01*
G01D02*
X880318Y405818D01*
G01X874682D02*
X877500Y403000D01*
G01D02*
X880318Y400182D01*
G01X903500Y359698D02*
Y361500D01*
G01D02*
Y363302D01*
G01Y361500D02*
X905302D01*
G01X897500Y359698D02*
Y361500D01*
G01D02*
Y363302D01*
G01X895698Y361500D02*
X897500D01*
G01X900500Y359698D02*
Y361500D01*
G01D02*
Y363302D01*
G01X934682Y305682D02*
X937500Y308500D01*
G01D02*
X940318Y311318D01*
G01X934682D02*
X937500Y308500D01*
G01D02*
X940318Y305682D01*
G01X934682Y335682D02*
X937500Y338500D01*
G01D02*
X940318Y341318D01*
G01X934682D02*
X937500Y338500D01*
G01D02*
X940318Y335682D01*
G01X936182Y367682D02*
X939000Y370500D01*
G01D02*
X941818Y373318D01*
G01X936182D02*
X939000Y370500D01*
G01D02*
X941818Y367682D01*
G01X936182Y397682D02*
X939000Y400500D01*
G01D02*
X941818Y403318D01*
G01X936182D02*
X939000Y400500D01*
G01D02*
X941818Y397682D01*
G01X984000Y313498D02*
Y315500D01*
G01D02*
Y317502D01*
G01Y315500D02*
X986002D01*
G01X985000Y318198D02*
Y320000D01*
G01D02*
Y321802D01*
G01X983198Y320000D02*
X985000D01*
G01D02*
X986802D01*
G01X980000Y322398D02*
Y324200D01*
G01D02*
Y326002D01*
G01X977000Y322398D02*
Y324200D01*
G01D02*
Y326002D01*
G01X974000Y322398D02*
Y324200D01*
G01D02*
Y326002D01*
G01X972198Y324200D02*
X974000D01*
G01X986500Y380198D02*
Y382000D01*
G01D02*
Y383802D01*
G01X984698Y382000D02*
X986500D01*
G01D02*
X988302D01*
G01X985500Y375498D02*
Y377500D01*
G01D02*
Y379502D01*
G01Y377500D02*
X987502D01*
G01X981500Y384398D02*
Y386200D01*
G01D02*
Y388002D01*
G01X975500Y384398D02*
Y386200D01*
G01D02*
Y388002D01*
G01X973698Y386200D02*
X975500D01*
G01X978500Y384398D02*
Y386200D01*
G01D02*
Y388002D01*
G01X1038182Y306182D02*
X1041000Y309000D01*
G01D02*
X1043818Y311818D01*
G01X1038182D02*
X1041000Y309000D01*
G01D02*
X1043818Y306182D01*
G01X1038182Y336182D02*
X1041000Y339000D01*
G01D02*
X1043818Y341818D01*
G01X1038182D02*
X1041000Y339000D01*
G01D02*
X1043818Y336182D01*
G01X1037182Y368682D02*
X1040000Y371500D01*
G01D02*
X1042818Y374318D01*
G01X1037182D02*
X1040000Y371500D01*
G01D02*
X1042818Y368682D01*
G01X1037182Y398682D02*
X1040000Y401500D01*
G01D02*
X1042818Y404318D01*
G01X1037182D02*
X1040000Y401500D01*
G01D02*
X1042818Y398682D01*
G01X1078200Y320498D02*
Y322500D01*
G01X1076198D02*
X1078200D01*
G01D02*
X1080202D01*
G01X1078200Y325600D02*
Y327602D01*
G01X1076198Y325600D02*
X1078200D01*
G01D02*
X1080202D01*
G01X1077200Y382998D02*
Y385000D01*
G01X1075198D02*
X1077200D01*
G01D02*
X1079202D01*
G01X1077200Y388100D02*
Y390102D01*
G01X1075198Y388100D02*
X1077200D01*
G01D02*
X1079202D01*
G01X1089500Y312798D02*
Y314800D01*
G01D02*
Y316802D01*
G01Y314800D02*
X1091502D01*
G01X1093500Y313498D02*
Y315500D01*
G01D02*
Y317502D01*
G01X1091498Y315500D02*
X1093500D01*
G01D02*
X1095502D01*
G01X1088500Y375298D02*
Y377300D01*
G01X1092500Y375998D02*
Y378000D01*
G01D02*
Y380002D01*
G01X1090498Y378000D02*
X1092500D01*
G01D02*
X1094502D01*
G01X1088500Y377300D02*
Y379302D01*
G01Y377300D02*
X1090502D01*
G01X1196400Y301398D02*
Y303200D01*
G01X1194598D02*
X1196400D01*
G01D02*
X1198202D01*
G01X1196400Y309200D02*
Y311002D01*
G01X1194598Y309200D02*
X1196400D01*
G01D02*
X1198202D01*
G01X1194598Y306200D02*
X1196400D01*
G01D02*
X1198202D01*
G01X1196400Y324898D02*
Y326700D01*
G01X1194598D02*
X1196400D01*
G01D02*
X1198202D01*
G01X1194598Y329700D02*
X1196400D01*
G01D02*
X1198202D01*
G01X1196400Y332700D02*
Y334502D01*
G01X1194598Y332700D02*
X1196400D01*
G01D02*
X1198202D01*
G01X1225082Y326382D02*
X1227900Y329200D01*
G01D02*
X1230718Y332018D01*
G01X1225082D02*
X1227900Y329200D01*
G01D02*
X1230718Y326382D01*
G01X1235082D02*
X1237900Y329200D01*
G01D02*
X1240718Y332018D01*
G01X1235082D02*
X1237900Y329200D01*
G01D02*
X1240718Y326382D01*
G54D18*
G01X10500Y222500D02*
Y227000D01*
G01D02*
Y231000D01*
X92500Y259500D03*
X102500D03*
X112500D03*
X570000Y222500D03*
X580000D03*
X570000Y274000D03*
X580000D03*
X590000Y222500D03*
Y274000D03*
X620000Y222500D03*
X630000D03*
X620000Y274000D03*
X630000D03*
X626500Y331610D03*
Y345390D03*
Y366610D03*
Y380390D03*
X640000Y222500D03*
Y274000D03*
X670000Y222500D03*
Y274000D03*
X680000Y222500D03*
X690000D03*
X680000Y274000D03*
X690000D03*
X720000Y222500D03*
X730000D03*
X720000Y274000D03*
X730000D03*
X740000Y222500D03*
Y274000D03*
X1017500Y313000D03*
Y333000D03*
Y323000D03*
X1028000Y222500D03*
X1038000D03*
X1028000Y274000D03*
X1038000D03*
X1019000Y375000D03*
Y395000D03*
Y385000D03*
X1048000Y222500D03*
Y274000D03*
X1067000Y222500D03*
X1077000D03*
X1067000Y274000D03*
X1077000D03*
X1087000Y222500D03*
Y274000D03*
X1105500Y222500D03*
X1115500D03*
X1125500D03*
X1105500Y274000D03*
X1115500D03*
X1125500D03*
X1121000Y313500D03*
Y333500D03*
Y323500D03*
X1120000Y376000D03*
Y396000D03*
Y386000D03*
X1143000Y223000D03*
Y274500D03*
X1153000Y223000D03*
X1163000D03*
X1153000Y274500D03*
X1163000D03*
X1180000Y223000D03*
X1190000D03*
X1180000Y274500D03*
X1190000D03*
X1200000Y223000D03*
Y274500D03*
X1218500Y223000D03*
X1228500D03*
X1218500Y274500D03*
X1228500D03*
X1238500Y223000D03*
Y274500D03*
G54D28*
G01X430548Y139452D02*
X439500Y148404D01*
Y151500D01*
X438000Y153000D01*
X436364D01*
G01X467500Y118500D02*
X468000Y119000D01*
Y124500D01*
X477500Y134000D01*
X506000D01*
X508000Y136000D01*
Y153900D01*
X506400Y155500D01*
X499500D01*
G01X808000Y73740D02*
X746240D01*
X745000Y72500D01*
X738500D01*
X732500Y78500D01*
G01X727500Y93500D02*
X732500D01*
G01X846000Y87000D02*
X764500D01*
X759500Y92000D01*
X734000D01*
X732500Y93500D01*
G01X772000Y91000D02*
X850000D01*
G01D02*
Y50000D01*
G01Y158000D02*
Y91000D01*
G01X859500Y255000D02*
X866500Y248000D01*
X875500D01*
X879500Y252000D01*
Y255000D01*
G01X859500D02*
X849500D01*
G01X908000D02*
X898000D01*
G01X980000Y163000D02*
Y173500D01*
X912500Y241000D01*
Y250500D01*
X908000Y255000D01*
G01X950000Y50000D02*
X949500Y50500D01*
Y57500D01*
X947500Y59500D01*
Y93500D01*
G01X940000Y158000D02*
Y103000D01*
X947500Y95500D01*
Y93500D01*
G01X955000Y255000D02*
X1005000Y205000D01*
Y103000D01*
X1010400Y97600D01*
Y45500D01*
G54D19*
X170450Y218250D03*
Y234750D03*
X186950Y218250D03*
Y234750D03*
G54D29*
G01X170000Y74500D02*
X168329D01*
X167829Y75000D01*
X166171D01*
X165671Y74500D01*
X146484D01*
X138000Y66016D01*
M02*
