G04 ================== begin FILE IDENTIFICATION RECORD ==================*
G04 Layout Name:  //MAC/HOME/DESKTOP/SPB_DATA/CAPTURE/CIS_ATCS/allegro/ATCS_Final.brd*
G04 Film Name:    POWER*
G04 File Format:  Gerber RS274X*
G04 File Origin:  Cadence Allegro 17.2-P019*
G04 Origin Date:  Thu Jun 21 16:22:31 2018*
G04 *
G04 Layer:  ETCH/POWER*
G04 Layer:  PIN/POWER*
G04 Layer:  VIA CLASS/POWER*
G04 *
G04 Offset:    (0.00 0.00)*
G04 Mirror:    No*
G04 Mode:      Positive*
G04 Rotation:  0*
G04 FullContactRelief:  No*
G04 UndefLineWidth:     0.00*
G04 ================== end FILE IDENTIFICATION RECORD ====================*
%FSLAX54Y54*MOIN*%
%IR0*IPPOS*OFA0.00000B0.00000*MIA0B0*SFA1.00000B1.00000*%
%ADD10C,.03*%
%ADD11C,.022*%
%ADD17C,.06*%
%ADD15C,.07*%
%ADD13C,.025*%
%ADD16C,.035*%
%ADD12C,.026*%
%ADD18C,.09*%
%ADD14C,.2*%
%ADD20C,.12*%
%ADD19C,.118*%
%ADD21C,.01*%
%ADD22C,.02*%
%ADD23C,.012*%
%ADD24C,.04*%
%ADD25C,.014*%
%ADD26C,.016*%
%ADD27C,.008*%
%ADD28C,.04004*%
%ADD29C,.05104*%
%ADD36C,.07004*%
%ADD38C,.04404*%
%ADD37C,.08004*%
%ADD31C,.08104*%
%ADD30C,.03604*%
%ADD33C,.09104*%
%ADD32C,.05604*%
%ADD35C,.04904*%
%ADD34C,.22104*%
G75*
%LPD*%
G75*
G36*
G01X2516Y21986D02*
G03X2436Y22066I-216J-136D01*
G02Y22134I21J34D01*
G03X2164I-136J216D01*
G02Y22066I-21J-34D01*
G03Y21634I136J-216D01*
G02Y21566I-21J-34D01*
G03Y21134I136J-216D01*
G02Y21066I-21J-34D01*
G03Y20634I136J-216D01*
G02Y20566I-21J-34D01*
G03X2142Y20550I136J-216D01*
G01X1800D01*
Y23900D01*
X3200D01*
Y20550D01*
X2958D01*
G03X2936Y20566I-158J-200D01*
G02Y20634I21J34D01*
G03X2584Y20986I-136J216D01*
G02X2516I-34J21D01*
G03X2436Y21066I-216J-136D01*
G02Y21134I21J34D01*
G03Y21566I-136J216D01*
G02Y21634I21J34D01*
G03X2516Y21714I-136J216D01*
G02X2584I34J-21D01*
G03Y21986I216J136D01*
G02X2516I-34J21D01*
G37*
G36*
G01X5950Y4200D02*
Y11900D01*
G03Y12200I-100J150D01*
G01Y21388D01*
G02X6001Y21427I40J0D01*
G03Y21773I49J173D01*
G02X5950Y21812I-11J38D01*
G01Y28200D01*
X6050Y28300D01*
X10752D01*
X10756Y28285D01*
G03X11105I174J45D01*
G01X11108Y28300D01*
X11969D01*
X11971Y28282D01*
G03X12329I179J18D01*
G01X12331Y28300D01*
X24850D01*
X26000Y27150D01*
X26059D01*
X26064Y27146D01*
G03X26641Y27150I286J354D01*
G01X27409D01*
G03X27991I291J350D01*
G01X34784D01*
G03X35176I196J200D01*
G01X42840D01*
G03X42860I10J280D01*
G01X45550D01*
Y25000D01*
X44675D01*
X44670Y25014D01*
G03X44330I-170J-59D01*
G01X44325Y25000D01*
X43300D01*
X42450Y25850D01*
X42350D01*
G03X42078Y25882I-150J-100D01*
G02X42049Y25884I-14J15D01*
G03X41727Y25850I-149J-134D01*
G01X40079D01*
G02X40049Y25917I0J40D01*
G03X40088Y26118I-149J133D01*
G02X40130Y26171I38J14D01*
G03X39977Y26298I20J179D01*
G02X39932Y26248I-38J-12D01*
G03X39751Y25917I-33J-198D01*
G02X39721Y25850I-30J-27D01*
G01X36850D01*
X36676Y25676D01*
X36662Y25687D01*
G03X36420Y25420I-112J-141D01*
G01X36000Y25000D01*
X34600D01*
X34429Y25171D01*
X34428Y25177D01*
G03X34277Y25328I-178J-27D01*
G01X34271Y25329D01*
X34068Y25532D01*
G02X34072Y25592I28J28D01*
G03X34107Y25626I-122J158D01*
G02X34168Y25628I31J-25D01*
G03Y25872I132J122D01*
G02X34107Y25874I-29J27D01*
G03X33760Y25814I-157J-124D01*
G01X33756Y25800D01*
X32100D01*
G03X32072Y25832I-150J-100D01*
G02X32074Y25893I27J29D01*
G03X31826I-124J157D01*
G02X31828Y25832I-25J-31D01*
G03X31800Y25800I122J-132D01*
G01X29150D01*
X28848Y25498D01*
G02X28779Y25529I-28J28D01*
G03X28616Y25366I-179J16D01*
G02X28648Y25298I3J-40D01*
G01X28350Y25000D01*
X27300D01*
Y25650D01*
X26900Y26050D01*
X23750D01*
G03X23450I-150J-100D01*
G01X22568D01*
G02X22529Y26100I0J40D01*
G03X22181I-174J45D01*
G02X22142Y26050I-39J-10D01*
G01X19700D01*
X19400Y26350D01*
X18510D01*
X18510Y26369D01*
G03X17230I-640J-24D01*
G01X17230Y26350D01*
X11315D01*
X11313Y26350D01*
G03X11187I-63J-400D01*
G01X11185Y26350D01*
X10315D01*
X10313Y26350D01*
G03X10187I-63J-400D01*
G01X10185Y26350D01*
X10150D01*
Y26343D01*
X10136Y26339D01*
G03Y25561I114J-389D01*
G01X10150Y25557D01*
Y24252D01*
G02X10088Y24218I-40J0D01*
G03Y23882I-108J-168D01*
G02X10150Y23848I22J-34D01*
G01Y23475D01*
G02X10103Y23435I-40J0D01*
G03X9950Y23390I-31J-178D01*
G02X9895I-27J29D01*
G03X9640Y23135I-123J-132D01*
G02Y23080I-29J-27D01*
G03X9895Y22826I132J-123D01*
G02X9950I27J-29D01*
G03X10103Y22780I123J132D01*
G02X10150Y22741I7J-39D01*
G01Y20300D01*
X9431D01*
X9429Y20318D01*
G03X9285Y20477I-179J-18D01*
G02X9260Y20538I8J39D01*
G03X9294Y20661I-166J112D01*
G02X9355Y20697I40J2D01*
G03X9270Y20848I95J153D01*
G02X9207Y20815I-40J0D01*
G03X9066Y20452I-113J-165D01*
G02X9095Y20392I-6J-40D01*
G03X9071Y20318I155J-92D01*
G01X9069Y20300D01*
X7050D01*
X6950Y20200D01*
Y14455D01*
G03Y14255I150J-100D01*
G01Y6500D01*
G03Y6300I150J-100D01*
G01Y4200D01*
X5950D01*
G37*
G36*
G01X19650Y2850D02*
Y3450D01*
X19900Y3700D01*
Y3708D01*
X19900Y4400D01*
X18450D01*
Y3500D01*
X16983D01*
G02X16944Y3550I0J40D01*
G03X16604Y3737I-194J50D01*
G02X16546I-29J27D01*
G03X16206Y3550I-146J-137D01*
G02X16167Y3500I-39J-10D01*
G01X7200D01*
Y6250D01*
G03Y6550I-100J150D01*
G01Y11147D01*
X7212Y11152D01*
G03Y11478I-76J163D01*
G01X7200Y11484D01*
Y14205D01*
G03Y14505I-100J150D01*
G01Y20050D01*
X8084D01*
X8089Y20037D01*
G03X8426I169J63D01*
G01X8431Y20050D01*
X10300D01*
Y22740D01*
G02X10346Y22779I40J0D01*
G03X10495Y22826I27J178D01*
G02X10550I27J-29D01*
G03X10804Y23080I123J132D01*
G02Y23135I29J27D01*
G03X10550Y23390I-132J123D01*
G02X10495I-27J29D01*
G03X10346Y23436I-123J-132D01*
G02X10300Y23475I-6J40D01*
G01Y25548D01*
X10317Y25550D01*
G03X10655Y25959I-67J400D01*
G02X10695Y26000I40J1D01*
G01X10805D01*
G02X10845Y25959I0J-40D01*
G03X11655I405J-9D01*
G02X11695Y26000I40J1D01*
G01X17331D01*
G03X18409I539J345D01*
G01X19250D01*
X19550Y25700D01*
X26950D01*
X27160Y25490D01*
Y25311D01*
G03Y25289I190J-11D01*
G01Y24970D01*
X27305Y24825D01*
Y24515D01*
X27600Y24220D01*
Y23950D01*
X31450D01*
Y24855D01*
X32000D01*
G03X32142Y24900I0J245D01*
G01X32550D01*
Y23950D01*
X39400D01*
Y24855D01*
X40302D01*
X40347Y24900D01*
X40500D01*
Y23950D01*
X47350D01*
Y24855D01*
X47786D01*
G03X47900Y24830I114J245D01*
G01X48212D01*
X48282Y24900D01*
X48450D01*
Y22800D01*
X24600D01*
X24050Y23350D01*
Y23719D01*
X24068Y23721D01*
G03Y24079I-18J179D01*
G01X24050Y24081D01*
Y24126D01*
G02X24099Y24165I40J0D01*
G03X24003Y24457I41J175D01*
G02X23950Y24450I-31J26D01*
G03X23670Y24292I-100J-150D01*
G02X23630Y24250I-40J-2D01*
G01X22661D01*
G02X22622Y24301I0J40D01*
G03X22326Y24481I-174J48D01*
G02X22274Y24480I-27J29D01*
G03X21984Y24299I-115J-139D01*
G02X21945Y24250I-39J-9D01*
G01X19700D01*
X19400Y23950D01*
X18982D01*
G03X18408I-287J-475D01*
G01X17332D01*
G03X16758I-287J-475D01*
G01X12950D01*
X12403Y23403D01*
X12396Y23402D01*
G03X12200Y22570I54J-452D01*
G01Y19574D01*
X12187Y19569D01*
G03Y19231I63J-169D01*
G01X12200Y19226D01*
Y16100D01*
X10200D01*
Y9700D01*
X21000D01*
X21050Y9650D01*
Y7950D01*
X20351D01*
G02X20324Y8019I0J40D01*
G03X20321Y8284I-124J131D01*
G02X20326Y8348I27J30D01*
G03X20220Y8680I-96J152D01*
G02X20190Y8748I-2J40D01*
G01X20200Y8758D01*
Y8880D01*
G02X20238Y8920I40J0D01*
G03X20339Y9243I-8J180D01*
G02Y9307I24J32D01*
G03X20051Y9468I-109J143D01*
G01X20049Y9450D01*
X18750D01*
Y8250D01*
X18650Y8150D01*
X15924D01*
X15919Y8163D01*
G03X15858Y8244I-169J-63D01*
G02X15849Y8299I24J32D01*
G03X15592Y8256I-149J101D01*
G02X15601Y8201I-24J-32D01*
G03X15581Y8163I149J-101D01*
G01X15576Y8150D01*
X10200D01*
Y4600D01*
X15100D01*
X15350Y4850D01*
X17456D01*
X17460Y4836D01*
G03X17840I190J64D01*
G01X17844Y4850D01*
X21150D01*
Y2900D01*
X21100Y2850D01*
X19650D01*
G37*
G36*
G01X24480Y11550D02*
Y8520D01*
G02X24414Y8489I-40J0D01*
G03X24320Y8171I-114J-139D01*
G02X24353Y8103I5J-40D01*
G01X24073Y7823D01*
G02X24008Y7836I-28J28D01*
G03X23774Y7602I-168J-66D01*
G02X23787Y7537I-15J-37D01*
G01X23200Y6950D01*
Y4270D01*
G02X23158Y4230I-40J0D01*
G03Y3870I-8J-180D01*
G02X23200Y3830I2J-40D01*
G01Y2250D01*
X17700D01*
X17650Y2300D01*
Y2950D01*
X18350D01*
X18550Y3150D01*
Y4300D01*
X19800D01*
Y3750D01*
X19550Y3500D01*
Y2800D01*
X19600Y2750D01*
X21200D01*
X21250Y2800D01*
Y5050D01*
X17783D01*
G03X17517I-133J-150D01*
G01X15570D01*
G02X15530Y5092I0J40D01*
G03X15170I-180J8D01*
G02X15130Y5050I-40J-2D01*
G01X15050D01*
X14800Y4800D01*
X10650D01*
Y6469D01*
X10668Y6471D01*
G03Y6829I-18J179D01*
G01X10650Y6831D01*
Y8000D01*
X15600D01*
G03X15900I150J100D01*
G01X16549D01*
G02X16576Y7931I0J-40D01*
G03X16557Y7691I124J-131D01*
G01X16567Y7677D01*
X16501Y7610D01*
X14582D01*
X13998Y7026D01*
G02X13930Y7054I-28J28D01*
G03X13746Y6870I-180J-4D01*
G02X13773Y6802I-1J-40D01*
G01X13745Y6773D01*
X13741Y6772D01*
G03X13652Y6499I59J-170D01*
G02X13642Y6445I-33J-23D01*
G03X13898Y6402I108J-145D01*
G02X13908Y6457I33J23D01*
G03X13970Y6542I-108J145D01*
G01X13972Y6547D01*
X14715Y7290D01*
X14831D01*
G02X14870Y7240I0J-40D01*
G03X15218I174J-46D01*
G02X15257Y7290I39J10D01*
G01X16519D01*
X16522Y7273D01*
G03X16878I178J27D01*
G01X16881Y7290D01*
X16917D01*
X16921Y7288D01*
G03Y7612I79J162D01*
G01X16917Y7610D01*
X16899D01*
X16833Y7677D01*
X16843Y7691D01*
G03X16824Y7931I-143J109D01*
G02X16851Y8000I27J29D01*
G01X18650D01*
X18850Y8200D01*
Y8649D01*
G02X18919Y8676I40J0D01*
G03X19185Y8680I131J124D01*
G02X19245Y8680I30J-27D01*
G03X19512Y8675I136J118D01*
G02X19570Y8675I29J-27D01*
G03X19569Y8924I130J125D01*
G02X19511Y8923I-29J27D01*
G03X19246Y8918I-130J-125D01*
G02X19186Y8918I-30J27D01*
G03X18919Y8924I-136J-118D01*
G02X18850Y8951I-29J27D01*
G01Y9350D01*
X20080D01*
G03X20100Y9325I150J100D01*
G01Y9239D01*
G03X20040Y9100I130J-139D01*
G01Y8900D01*
G03X20068Y8800I190J0D01*
G03X20045Y8745I162J-100D01*
G01X19850Y8550D01*
Y7850D01*
X19900Y7800D01*
X21150D01*
X21250Y7900D01*
Y10050D01*
X21100Y10200D01*
X17708D01*
G03X17692I-9J-200D01*
G01X17100D01*
G03X16800I-150J-100D01*
G01X15540D01*
G02X15509Y10265I0J40D01*
G03X15231I-139J115D01*
G02X15200Y10200I-31J-25D01*
G01X11192D01*
G02X11152Y10245I0J40D01*
G03X10691Y10755I-452J55D01*
G02X10650Y10795I-1J40D01*
G01Y15950D01*
X17467D01*
G02X17506Y15900I0J-40D01*
G03X17894I194J-50D01*
G02X17933Y15950I39J10D01*
G01X18250D01*
X18300Y15900D01*
Y13321D01*
G02X18240Y13286I-40J0D01*
G03X18007Y13240I-90J-156D01*
G02X17946Y13237I-32J24D01*
G03X17967Y12990I-146J-137D01*
G02X18028Y12998I33J-22D01*
G03X18240Y12974I122J133D01*
G02X18300Y12939I20J-35D01*
G01Y12291D01*
G02X18244Y12255I-40J0D01*
G03Y11926I-74J-165D01*
G02X18300Y11889I16J-36D01*
G01Y11550D01*
X24480D01*
G37*
G36*
G01X18700Y12900D02*
Y13317D01*
G03Y13483I-160J83D01*
G01Y14250D01*
X18700Y15100D01*
X18750Y15150D01*
X19950D01*
Y14592D01*
X19700Y14342D01*
Y14300D01*
X19650Y14250D01*
Y13650D01*
X19700Y13600D01*
X21292Y13600D01*
X21350Y13600D01*
X21400Y13650D01*
Y13708D01*
X21400Y14900D01*
X23350D01*
G03X23650I150J100D01*
G01X24700D01*
X24750Y14850D01*
Y12900D01*
X18700D01*
G37*
G36*
G01X19800Y13700D02*
Y14300D01*
X20050Y14550D01*
Y15200D01*
X20000Y15250D01*
X18700D01*
X18600Y15150D01*
Y14350D01*
X18400D01*
Y15700D01*
X21300D01*
Y13750D01*
X21250Y13700D01*
X19800D01*
G37*
G36*
G01X22591Y23100D02*
X22589Y23118D01*
G03X22383Y22922I-179J-18D01*
G01X22400Y22919D01*
Y21300D01*
X22129D01*
G02X22099Y21367I0J40D01*
G03X21814Y21647I-149J133D01*
G02X21786I-14J15D01*
G03X21781Y21651I-135J-148D01*
G02X21783Y21683I13J15D01*
G03X21527Y21713I-110J167D01*
G02X21523Y21655I-29J-27D01*
G03X21501Y21367I127J-155D01*
G02X21471Y21300I-30J-27D01*
G01X19040D01*
G02X19017Y21373I0J40D01*
G03X18373I-322J452D01*
G02X18350Y21300I-23J-33D01*
G01X17500D01*
Y21507D01*
X17504Y21512D01*
G03X17500Y22143I-458J313D01*
G01Y23157D01*
G03X17573Y23648I-455J318D01*
G02X17611Y23700I38J12D01*
G01X18129D01*
G02X18167Y23648I0J-40D01*
G03X19223I528J-173D01*
G02X19261Y23700I38J12D01*
G01X20100D01*
X20400Y24000D01*
X21221D01*
G02X21251Y23933I0J-40D01*
G03X21549I149J-133D01*
G02X21579Y24000I30J27D01*
G01X21969D01*
X21971Y23982D01*
G03X22329I179J18D01*
G01X22331Y24000D01*
X23800D01*
Y23256D01*
G03X23711Y23118I90J-156D01*
G01X23709Y23100D01*
X22591D01*
G37*
G36*
G01X27350Y2400D02*
X26065Y3685D01*
X25015D01*
X24400Y4300D01*
Y4500D01*
X24401Y4503D01*
G03Y4617I-171J57D01*
G01X24400Y4620D01*
Y5268D01*
X24682Y5550D01*
X25050D01*
G02X25076Y5479I0J-40D01*
G03X25010Y5340I114J-139D01*
G02X24967Y5300I-40J0D01*
G03X25149Y5116I-17J-200D01*
G02X25189Y5160I40J3D01*
G03X25304Y5479I0J180D01*
G02X25330Y5550I25J31D01*
G01X26250D01*
X26600Y5200D01*
Y5192D01*
G03Y5008I200J-92D01*
G01Y4284D01*
G03Y4016I120J-134D01*
G01Y3740D01*
X27190Y3150D01*
X32538D01*
G02X32577Y3099I0J-40D01*
G03X32923I173J-49D01*
G02X32962Y3150I38J11D01*
G01X33200D01*
X33289Y3239D01*
G02X33356Y3218I28J-28D01*
G03X33566Y3427I177J32D01*
G02X33545Y3495I7J39D01*
G01X33550Y3500D01*
Y5450D01*
X33850Y5750D01*
X33852Y5751D01*
G03X33899Y5798I-102J149D01*
G01X33900Y5800D01*
X34651Y6551D01*
G02X34711Y6547I28J-28D01*
G03X34963Y6799I144J108D01*
G02X34959Y6859I24J32D01*
G01X35100Y7000D01*
Y9638D01*
G02X35151Y9677I40J0D01*
G03Y10023I49J173D01*
G02X35100Y10062I-11J38D01*
G01Y10450D01*
X34600Y10950D01*
X34568D01*
Y10982D01*
X34579Y10988D01*
G03X34376Y11019I-79J162D01*
G02X34349Y10950I-27J-29D01*
G01X33469D01*
G02X33435Y11011I0J40D01*
G03X31565I-935J589D01*
G02X31531Y10950I-34J-21D01*
G01X30512D01*
G03X30425Y11069I-262J-100D01*
G02Y11131I25J31D01*
G03X30527Y11390I-175J219D01*
G02X30582Y11433I40J6D01*
G03Y11767I68J167D01*
G02X30527Y11810I-15J37D01*
G03X30425Y12069I-277J40D01*
G02Y12131I25J31D01*
G03Y12569I-175J219D01*
G02Y12631I25J31D01*
G03Y13069I-175J219D01*
G02Y13131I25J31D01*
G03Y13569I-175J219D01*
G02Y13631I25J31D01*
G03Y14069I-175J219D01*
G02Y14131I25J31D01*
G03Y14569I-175J219D01*
G02Y14631I25J31D01*
G03Y15069I-175J219D01*
G02Y15131I25J31D01*
G03Y15569I-175J219D01*
G02Y15631I25J31D01*
G03Y16069I-175J219D01*
G02Y16131I25J31D01*
G03X30031Y16525I-175J219D01*
G02X29969I-31J25D01*
G03X29575Y16131I-219J-175D01*
G02Y16069I-25J-31D01*
G03Y15631I175J-219D01*
G02Y15569I-25J-31D01*
G03Y15131I175J-219D01*
G02Y15069I-25J-31D01*
G03Y14631I175J-219D01*
G02Y14569I-25J-31D01*
G03Y14131I175J-219D01*
G02Y14069I-25J-31D01*
G03Y13631I175J-219D01*
G02Y13569I-25J-31D01*
G03Y13131I175J-219D01*
G02Y13069I-25J-31D01*
G03Y12631I175J-219D01*
G02Y12569I-25J-31D01*
G03Y12131I175J-219D01*
G02Y12069I-25J-31D01*
G03Y11631I175J-219D01*
G02Y11569I-25J-31D01*
G03Y11131I175J-219D01*
G02Y11069I-25J-31D01*
G03X29488Y10950I175J-219D01*
G01X29208D01*
G03X28930Y10997I-158J-87D01*
G01X28916Y10984D01*
X28398Y11502D01*
G02X28428Y11570I28J28D01*
G03X28256Y11742I8J180D01*
G02X28188Y11712I-40J-2D01*
G01X27575Y12325D01*
G02X27603Y12393I28J28D01*
G01X27700D01*
G03X27831Y12791I0J220D01*
G02X27821Y12845I24J32D01*
G03X27497Y12994I-151J98D01*
G01X27492Y12980D01*
X27101D01*
X27010Y12890D01*
X26540Y13360D01*
X26543Y13372D01*
G03X26316Y13599I-171J56D01*
G01X26304Y13596D01*
X26050Y13850D01*
Y15171D01*
G03Y15188I-200J9D01*
G01Y15481D01*
G03Y15498I-200J9D01*
G01Y15530D01*
X26071D01*
X26072Y15530D01*
G03X26090Y15890I18J179D01*
G02X26050Y15930I0J40D01*
G01Y19400D01*
X26950Y20300D01*
X26952Y20301D01*
G03X27000Y20350I-102J149D01*
G01X27250Y20600D01*
X40350D01*
X40400Y20550D01*
Y20130D01*
X40384Y20127D01*
G03X40281Y20066I35J-177D01*
G02X40219I-31J26D01*
G03Y19834I-138J-116D01*
G02X40281I31J-26D01*
G03X40384Y19773I138J116D01*
G01X40400Y19770D01*
Y16100D01*
X40802Y15698D01*
G02X40793Y15635I-28J-28D01*
G03X40748Y15319I97J-175D01*
G02Y15291I-14J-14D01*
G03X41032I142J-141D01*
G02Y15319I14J14D01*
G03X41065Y15363I-142J141D01*
G02X41128Y15372I35J-19D01*
G01X41555Y14945D01*
Y14087D01*
X41409Y13941D01*
G03X41348Y13847I191J-191D01*
G01X41346Y13843D01*
X41099Y13595D01*
X40740D01*
G03Y13105I0J-245D01*
G01X41301D01*
X41693Y13496D01*
X41697Y13498D01*
G03X41791Y13559I-97J252D01*
G01X41907Y13675D01*
X42825D01*
X43150Y13350D01*
Y12750D01*
X43075Y12675D01*
X42475D01*
X42125Y12325D01*
Y11829D01*
X42109Y11826D01*
G03X41975Y11693I41J-176D01*
G02X41905Y11677I-39J9D01*
G03X41562Y11482I-155J-127D01*
G02X41519Y11429I-38J-14D01*
G03X41361Y11366I-21J-179D01*
G02X41300I-31J26D01*
G03Y11134I-138J-116D01*
G02X41361I31J-26D01*
G03X41671Y11302I138J116D01*
G02X41716Y11353I38J11D01*
G03X41946Y11511I34J197D01*
G02X42016Y11530I39J-8D01*
G03X42109Y11474I135J120D01*
G01X42125Y11471D01*
Y10769D01*
G03Y10331I175J-219D01*
G01Y8520D01*
G02X42086Y8480I-40J0D01*
G03Y8080I4J-200D01*
G02X42125Y8040I-1J-40D01*
G01Y4625D01*
X41565Y4065D01*
X41551Y4073D01*
G03X41277Y3799I-101J-173D01*
G01X41285Y3785D01*
X39900Y2400D01*
X37551D01*
X37549Y2418D01*
G03X37151I-199J-18D01*
G01X37149Y2400D01*
X36712D01*
G02X36673Y2451I0J40D01*
G03X36327I-173J49D01*
G02X36288Y2400I-38J-11D01*
G01X34109D01*
G03X33291I-409J-200D01*
G01X27350D01*
G37*
G36*
G01X71100Y36300D02*
Y36773D01*
G02X71173Y36796I40J0D01*
G03Y37004I147J104D01*
G02X71100Y37027I-33J23D01*
G01Y38450D01*
X71900D01*
Y39850D01*
X71850Y39900D01*
X71653D01*
G02X71630Y39973I0J40D01*
G03X71170I-230J327D01*
G02X71147Y39900I-23J-33D01*
G01X70550D01*
Y40950D01*
X72900D01*
Y37583D01*
G02X72850Y37544I-40J0D01*
G03Y37156I-50J-194D01*
G02X72900Y37117I10J-39D01*
G01Y36300D01*
X72270D01*
G02X72230Y36342I0J40D01*
G03X71870I-180J8D01*
G02X71830Y36300I-40J-2D01*
G01X71100D01*
G37*
G36*
G01X69600D02*
Y39750D01*
X71800D01*
Y38550D01*
X71000D01*
Y37027D01*
G02X70927Y37004I-40J0D01*
G03Y36796I-147J-104D01*
G02X71000Y36773I33J-23D01*
G01Y36300D01*
X70262D01*
G02X70223Y36351I0J40D01*
G03X69877I-173J49D01*
G02X69838Y36300I-38J-11D01*
G01X69600D01*
G37*
G36*
G01X74000Y35850D02*
Y38960D01*
G02X74069Y38987I40J0D01*
G03X74655Y39677I331J313D01*
G02X74678Y39750I22J33D01*
G01X75900D01*
Y35850D01*
X74000D01*
G37*
G36*
G01X76000D02*
Y38960D01*
G02X76069Y38987I40J0D01*
G03Y39613I331J313D01*
G02X76000Y39640I-29J27D01*
G01Y39850D01*
X75950Y39900D01*
X75653D01*
G02X75630Y39973I0J40D01*
G03X75170I-230J327D01*
G02X75147Y39900I-23J-33D01*
G01X74950D01*
Y41050D01*
X78300D01*
Y35850D01*
X76000D01*
G37*
G36*
G01X81950Y36150D02*
Y39750D01*
X84150D01*
Y38400D01*
X83350D01*
Y37027D01*
G02X83277Y37004I-40J0D01*
G03Y36796I-147J-104D01*
G02X83350Y36773I33J-23D01*
G01Y36150D01*
X81950D01*
G37*
G36*
G01X83450D02*
Y36773D01*
G02X83523Y36796I40J0D01*
G03Y37004I147J104D01*
G02X83450Y37027I-33J23D01*
G01Y38300D01*
X83633D01*
G02X83662Y38232I0J-40D01*
G03X83951I145J-139D01*
G02X83980Y38300I29J28D01*
G01X84250D01*
Y39850D01*
X82900D01*
Y40950D01*
X85250D01*
Y37583D01*
G02X85200Y37544I-40J0D01*
G03Y37156I-50J-194D01*
G02X85250Y37117I10J-39D01*
G01Y36150D01*
X84551D01*
G02X84524Y36219I0J40D01*
G03X84276I-124J131D01*
G02X84249Y36150I-27J-29D01*
G01X83450D01*
G37*
G36*
G01X88350Y35850D02*
Y38960D01*
G02X88419Y38987I40J0D01*
G03Y39613I331J313D01*
G02X88350Y39640I-29J27D01*
G01Y39850D01*
X88300Y39900D01*
X88003D01*
G02X87980Y39973I0J40D01*
G03X87520I-230J327D01*
G02X87497Y39900I-23J-33D01*
G01X87300D01*
Y41050D01*
X90650D01*
Y35850D01*
X88350D01*
G37*
G36*
G01X86350D02*
Y38960D01*
G02X86419Y38987I40J0D01*
G03X87005Y39677I331J313D01*
G02X87028Y39750I22J33D01*
G01X88250D01*
Y35850D01*
X86350D01*
G37*
G36*
G01X93050Y30150D02*
Y32750D01*
X93306D01*
X93310Y32735D01*
G03X94190I440J115D01*
G01X94194Y32750D01*
X94306D01*
X94310Y32735D01*
G03X95190I440J115D01*
G01X95194Y32750D01*
X98150D01*
Y32611D01*
G02X98090Y32576I-40J0D01*
G03X97877Y32552I-90J-156D01*
G02X97823I-27J29D01*
G03X97577I-123J-132D01*
G02X97523I-27J29D01*
G03Y32288I-123J-132D01*
G02X97577I27J-29D01*
G03X97823I123J132D01*
G02X97877I27J-29D01*
G03X98090Y32264I123J132D01*
G02X98150Y32229I20J-35D01*
G01Y30150D01*
X93050D01*
G37*
G36*
G01X98250D02*
Y31337D01*
G02X98308Y31372I40J0D01*
G03Y31728I92J178D01*
G02X98250Y31763I-18J36D01*
G01Y32900D01*
X95203D01*
X95200Y32917D01*
G03X94300I-450J-67D01*
G01X94297Y32900D01*
X94203D01*
X94200Y32917D01*
G03X93300I-450J-67D01*
G01X93297Y32900D01*
X93050D01*
Y34600D01*
X100900D01*
Y30150D01*
X98250D01*
G37*
G36*
G01X93200Y36350D02*
Y38950D01*
X93456D01*
X93460Y38935D01*
G03X94340I440J115D01*
G01X94344Y38950D01*
X94456D01*
X94460Y38935D01*
G03X95340I440J115D01*
G01X95344Y38950D01*
X98300D01*
Y38811D01*
G02X98240Y38776I-40J0D01*
G03X98027Y38752I-90J-156D01*
G02X97973I-27J29D01*
G03X97727I-123J-132D01*
G02X97673I-27J29D01*
G03Y38488I-123J-132D01*
G02X97727I27J-29D01*
G03X97973I123J132D01*
G02X98027I27J-29D01*
G03X98240Y38464I123J132D01*
G02X98300Y38429I20J-35D01*
G01Y36350D01*
X93200D01*
G37*
G36*
G01X98400D02*
Y37537D01*
G02X98458Y37572I40J0D01*
G03Y37928I92J178D01*
G02X98400Y37964I-18J36D01*
G01Y39100D01*
X95353D01*
X95350Y39117D01*
G03X94450I-450J-67D01*
G01X94447Y39100D01*
X94353D01*
X94350Y39117D01*
G03X93450I-450J-67D01*
G01X93447Y39100D01*
X93200D01*
Y40800D01*
X101050D01*
Y36350D01*
X98400D01*
G37*
G36*
G01X103450Y30200D02*
Y32800D01*
X103656D01*
X103660Y32785D01*
G03X104540I440J115D01*
G01X104544Y32800D01*
X104656D01*
X104660Y32785D01*
G03X105540I440J115D01*
G01X105544Y32800D01*
X107687D01*
G02X107709Y32727I0J-40D01*
G03X107678Y32419I111J-167D01*
G02Y32391I-14J-14D01*
G03X107962I142J-141D01*
G02Y32419I14J14D01*
G03X107931Y32727I-142J141D01*
G02X107953Y32800I22J33D01*
G01X108550D01*
Y30242D01*
X108508Y30200D01*
X103450D01*
G37*
G36*
G01X108747D02*
G02X108718Y30268I0J40D01*
G01X108750Y30300D01*
Y31301D01*
G02X108817Y31331I40J0D01*
G03X109135Y31404I133J149D01*
G02X109202Y31416I37J-15D01*
G03X109165Y31626I148J134D01*
G02X109098Y31614I-37J15D01*
G03X108817Y31629I-148J-134D01*
G02X108750Y31659I-27J30D01*
G01Y32900D01*
X108700Y32950D01*
X105553D01*
X105550Y32967D01*
G03X104650I-450J-67D01*
G01X104647Y32950D01*
X104553D01*
X104550Y32967D01*
G03X103650I-450J-67D01*
G01X103647Y32950D01*
X103400D01*
Y34650D01*
X111250D01*
Y30250D01*
X111200Y30200D01*
X108747D01*
G37*
G36*
G01X103350Y36450D02*
Y39050D01*
X103556D01*
X103560Y39035D01*
G03X104440I440J115D01*
G01X104444Y39050D01*
X104556D01*
X104560Y39035D01*
G03X105440I440J115D01*
G01X105444Y39050D01*
X107587D01*
G02X107609Y38977I0J-40D01*
G03X107578Y38669I111J-167D01*
G02Y38641I-14J-14D01*
G03X107862I142J-141D01*
G02Y38669I14J14D01*
G03X107831Y38977I-142J141D01*
G02X107853Y39050I22J33D01*
G01X108450D01*
Y36492D01*
X108408Y36450D01*
X103350D01*
G37*
G36*
G01X108647D02*
G02X108618Y36518I0J40D01*
G01X108650Y36550D01*
Y37551D01*
G02X108717Y37581I40J0D01*
G03X109035Y37654I133J149D01*
G02X109102Y37666I37J-15D01*
G03X109065Y37876I148J134D01*
G02X108998Y37864I-37J15D01*
G03X108717Y37879I-148J-134D01*
G02X108650Y37909I-27J30D01*
G01Y39150D01*
X108600Y39200D01*
X105453D01*
X105450Y39217D01*
G03X104550I-450J-67D01*
G01X104547Y39200D01*
X104453D01*
X104450Y39217D01*
G03X103550I-450J-67D01*
G01X103547Y39200D01*
X103300D01*
Y40900D01*
X111150D01*
Y36500D01*
X111100Y36450D01*
X108647D01*
G37*
G36*
G01X119340Y30350D02*
Y32650D01*
X122450D01*
G02X122477Y32581I0J-40D01*
G03X123103I313J-331D01*
G02X123130Y32650I27J29D01*
G01X123340D01*
X123390Y32700D01*
Y32997D01*
G02X123463Y33020I40J0D01*
G03Y33480I327J230D01*
G02X123390Y33503I-33J23D01*
G01Y33700D01*
X124540D01*
Y30350D01*
X119340D01*
G37*
G36*
G01Y32750D02*
Y34650D01*
X122450D01*
G02X122477Y34581I0J-40D01*
G03X123167Y33995I313J-331D01*
G02X123240Y33972I33J-22D01*
G01Y32750D01*
X119340D01*
G37*
%LPC*%
G75*
G36*
G01X8375Y24544D02*
G02Y24856I-125J156D01*
G02Y24544I125J-156D01*
G37*
G36*
G01X9123Y23882D02*
G03X9177I27J29D01*
G02Y23618I123J-132D01*
G03X9123I-27J-29D01*
G02Y23882I-123J132D01*
G37*
G36*
G01X8816Y23031D02*
G03X8817Y23059I-14J14D01*
G02X9073Y23312I133J121D01*
G03X9127I27J29D01*
G02X9379Y23054I123J-132D01*
G03Y23026I14J-14D01*
G02X9123Y22772I-129J-126D01*
G03X9067I-28J-28D01*
G02X8816Y23031I-127J128D01*
G37*
G36*
G01X8100Y22100D02*
G02X7900Y21900I0J-200D01*
G02X8100Y22100I0J200D01*
G37*
G36*
G01X7604Y21263D02*
G03X7546I-29J-27D01*
G02Y21537I-146J137D01*
G03X7604I29J27D01*
G02Y21263I146J-137D01*
G37*
G36*
G01X6800Y6451D02*
G03X6794Y6390I22J-33D01*
G02X6552Y6425I-144J-139D01*
G03X6564Y6486I-19J35D01*
G02X6800Y6451I138J116D01*
G37*
G36*
G01X23107Y25291D02*
G03X23043I-32J-24D01*
G02Y25509I-143J109D01*
G03X23107I32J24D01*
G02Y25291I143J-109D01*
G37*
G36*
G01X12136Y24847D02*
G03X12164I14J15D01*
G02Y24553I136J-147D01*
G03X12136I-14J-15D01*
G02Y24847I-136J147D01*
G37*
G36*
G01X11248Y23880D02*
G03X11275I14J14D01*
G02Y23620I125J-130D01*
G03X11248I-14J-14D01*
G02Y23880I-125J130D01*
G37*
G36*
G01X11303Y22752D02*
G03X11247I-28J-28D01*
G02X10996Y23011I-127J128D01*
G03X10997Y23039I-14J14D01*
G02X11253Y23292I133J121D01*
G03X11307I27J29D01*
G02X11559Y23034I123J-132D01*
G03Y23006I14J-14D01*
G02X11303Y22752I-129J-126D01*
G37*
G36*
G01X11783Y20239D02*
G03X11717I-33J-22D01*
G02Y20461I-167J111D01*
G03X11783I33J22D01*
G02Y20239I167J-111D01*
G37*
G36*
G01X11995Y16493D02*
G03Y16467I15J-13D01*
G02X11721I-137J-117D01*
G03Y16493I-15J13D01*
G02X11995I137J117D01*
G37*
G36*
G01X16604Y8413D02*
G03X16546I-29J-27D01*
G02Y8687I-146J137D01*
G03X16604I29J27D01*
G02Y8413I146J-137D01*
G37*
G36*
G01X11995Y8543D02*
G03Y8517I15J-13D01*
G02X11721I-137J-117D01*
G03Y8543I-15J13D01*
G02X11995I137J117D01*
G37*
G36*
G01X20305Y3314D02*
G02X20155I-75J-164D01*
G03Y3386I-17J36D01*
G02X20305I75J164D01*
G03Y3314I17J-36D01*
G37*
G36*
G01X13908Y14407D02*
G03X13898Y14352I24J-32D01*
G02X13642Y14395I-148J-102D01*
G03X13652Y14449I-24J32D01*
G02X13908Y14407I148J102D01*
G37*
G36*
G01X15054Y11666D02*
G03X14996I-29J-27D01*
G02Y11940I-146J137D01*
G03X15054I29J27D01*
G02Y11666I146J-137D01*
G37*
G36*
G01X22957Y11031D02*
G03X23006Y10995I40J3D01*
G02X22850Y10800I44J-195D01*
G03X22804Y10840I-40J0D01*
G02X22957Y11031I-27J178D01*
G37*
G36*
G01X16378Y6000D02*
G03X16327Y5968I-11J-38D01*
G02X16200Y6173I-177J32D01*
G03X16250Y6205I11J38D01*
G02X16378Y6000I177J-32D01*
G37*
G36*
G01X13751Y5546D02*
G03X13729Y5529I-3J-20D01*
G02X13574Y5729I-179J21D01*
G03X13596Y5746I3J20D01*
G02X13751Y5546I179J-21D01*
G37*
G36*
G01X11137Y15724D02*
G02X11136Y15574I163J-76D01*
G03X11063Y15574I-36J-17D01*
G02X11064Y15725I-163J76D01*
G03X11137Y15724I36J17D01*
G37*
G36*
G01X15207Y15220D02*
G02X15090Y15318I-163J-77D01*
G03X15137Y15373I10J39D01*
G02X15253Y15276I163J77D01*
G03X15207Y15220I-10J-39D01*
G37*
G36*
G01X13685Y13626D02*
G02X13684Y13470I162J-79D01*
G03X13612Y13471I-36J-17D01*
G02X13613Y13627I-162J79D01*
G03X13685Y13626I36J17D01*
G37*
G36*
G01X12729Y11828D02*
G02X12658Y11995I-179J22D01*
G03X12721Y12022I24J32D01*
G02X12792Y11855I179J-22D01*
G03X12729Y11828I-24J-32D01*
G37*
G36*
G01X11137Y7774D02*
G02X11136Y7624I163J-76D01*
G03X11063Y7624I-36J-17D01*
G02X11064Y7775I-163J76D01*
G03X11137Y7774I36J17D01*
G37*
G36*
G01X20378Y15251D02*
G02X20182I-98J-151D01*
G03Y15319I-22J34D01*
G02X20378I98J151D01*
G03Y15251I22J-34D01*
G37*
G36*
G01X39292Y19984D02*
G03X39231I-31J-26D01*
G02Y20216I-138J116D01*
G03X39292I31J26D01*
G02Y19984I138J-116D01*
G37*
G36*
G01X36481D02*
G03X36420I-31J-26D01*
G02Y20216I-138J116D01*
G03X36481I31J26D01*
G02Y19984I138J-116D01*
G37*
G36*
G01X35531D02*
G03X35470I-31J-26D01*
G02Y20216I-138J116D01*
G03X35531I31J26D01*
G02Y19984I138J-116D01*
G37*
G36*
G01X34581D02*
G03X34520I-31J-26D01*
G02Y20216I-138J116D01*
G03X34581I31J26D01*
G02Y19984I138J-116D01*
G37*
G36*
G01X38381Y19934D02*
G03X38320I-31J-26D01*
G02Y20166I-138J116D01*
G03X38381I31J26D01*
G02Y19934I138J-116D01*
G37*
G36*
G01X37392D02*
G03X37331I-31J-26D01*
G02Y20166I-138J116D01*
G03X37392I31J26D01*
G02Y19934I138J-116D01*
G37*
G36*
G01X31381Y19834D02*
G03X31319I-31J-26D01*
G02Y20066I-138J116D01*
G03X31381I31J26D01*
G02Y19834I138J-116D01*
G37*
G36*
G01X32162Y18184D02*
G03X32101I-31J-26D01*
G02Y18416I-138J116D01*
G03X32162I31J26D01*
G02Y18184I138J-116D01*
G37*
G36*
G01X33957Y17891D02*
G03X33893I-32J-24D01*
G02Y18109I-143J109D01*
G03X33957I32J24D01*
G02Y17891I143J-109D01*
G37*
G36*
G01X38881Y17534D02*
G03X38820I-31J-26D01*
G02Y17766I-138J116D01*
G03X38881I31J26D01*
G02Y17534I138J-116D01*
G37*
G36*
G01X34637Y17204D02*
G03X34636Y17147I27J-29D01*
G02X34356Y17153I-143J-140D01*
G03X34357Y17210I-27J29D01*
G02X34637Y17204I143J140D01*
G37*
G36*
G01X38931Y16284D02*
G03X38870I-31J-26D01*
G02Y16516I-138J116D01*
G03X38931I31J26D01*
G02Y16284I138J-116D01*
G37*
G36*
G01X39292Y15584D02*
G03X39231I-31J-26D01*
G02Y15816I-138J116D01*
G03X39292I31J26D01*
G02Y15584I138J-116D01*
G37*
G36*
G01X28851Y15000D02*
G03X28791Y14979I-22J-33D01*
G02X28721Y15199I-191J61D01*
G03X28782Y15217I24J32D01*
G02X28805Y15257I167J-67D01*
G03X28796Y15313I-32J24D01*
G02X28712Y15472I116J163D01*
G03X28660Y15509I-40J-1D01*
G02X28800Y15705I-60J191D01*
G03X28852Y15667I40J1D01*
G02X29062Y15344I60J-191D01*
G03X29067Y15287I30J-26D01*
G02X28851Y15000I-117J-137D01*
G37*
G36*
G01X33951Y14634D02*
G02X34258Y14623I149J-134D01*
G02X34224Y14342I124J-157D01*
G02X33951Y14366I-124J157D01*
G03X33922Y14368I-15J-13D01*
G02Y14632I-122J132D01*
G03X33951Y14634I14J15D01*
G37*
G36*
G01X35831Y13634D02*
G03X35770I-31J-26D01*
G02Y13866I-138J116D01*
G03X35831I31J26D01*
G02Y13634I138J-116D01*
G37*
G36*
G01X35312Y12934D02*
G03X35251I-31J-26D01*
G02Y13166I-138J116D01*
G03X35312I31J26D01*
G02Y12934I138J-116D01*
G37*
G36*
G01X28338Y13160D02*
G03X28390Y13152I31J26D01*
G02X28348Y12884I96J-152D01*
G03X28296Y12892I-31J-26D01*
G02X28338Y13160I-96J152D01*
G37*
G36*
G01X34765Y12620D02*
G03X34728Y12575I3J-40D01*
G02X34535Y12730I-178J-25D01*
G03X34572Y12775I-3J40D01*
G02X34765Y12620I178J25D01*
G37*
G36*
G01X37531Y4175D02*
G03X37469I-31J-25D01*
G02X37075Y4569I-219J175D01*
G03Y4631I-25J31D01*
G02Y5069I175J219D01*
G03Y5131I-25J31D01*
G02Y5569I175J219D01*
G03Y5631I-25J31D01*
G02Y6069I175J219D01*
G03Y6131I-25J31D01*
G02Y6569I175J219D01*
G03Y6631I-25J31D01*
G02Y7069I175J219D01*
G03Y7131I-25J31D01*
G02Y7569I175J219D01*
G03Y7631I-25J31D01*
G02Y8069I175J219D01*
G03Y8131I-25J31D01*
G02Y8569I175J219D01*
G03Y8631I-25J31D01*
G02Y9069I175J219D01*
G03Y9131I-25J31D01*
G02Y9569I175J219D01*
G03Y9631I-25J31D01*
G02Y10069I175J219D01*
G03Y10131I-25J31D01*
G02Y10569I175J219D01*
G03Y10631I-25J31D01*
G02Y11069I175J219D01*
G03Y11131I-25J31D01*
G02Y11569I175J219D01*
G03Y11631I-25J31D01*
G02Y12069I175J219D01*
G03Y12131I-25J31D01*
G02Y12569I175J219D01*
G03Y12631I-25J31D01*
G02Y13069I175J219D01*
G03Y13131I-25J31D01*
G02Y13569I175J219D01*
G03Y13631I-25J31D01*
G02Y14069I175J219D01*
G03Y14131I-25J31D01*
G02Y14569I175J219D01*
G03Y14631I-25J31D01*
G02X37001Y14721I175J219D01*
G03X36948Y14738I-36J-18D01*
G02X36731Y14784I-80J162D01*
G03X36670I-31J-26D01*
G02Y15016I-138J116D01*
G03X36731I31J26D01*
G02X36987Y15036I138J-116D01*
G03X37043Y15039I26J30D01*
G02X37075Y15069I207J-188D01*
G03Y15131I-25J31D01*
G02Y15569I175J219D01*
G03Y15631I-25J31D01*
G02Y16069I175J219D01*
G03Y16131I-25J31D01*
G02X37469Y16525I175J219D01*
G03X37531I31J25D01*
G02X37925Y16131I219J-175D01*
G03Y16069I25J-31D01*
G02Y15631I-175J-219D01*
G03Y15569I25J-31D01*
G02Y15131I-175J-219D01*
G03Y15069I25J-31D01*
G02X37947Y15049I-175J-219D01*
G03X38013Y15063I28J28D01*
G02X38320Y15116I169J-63D01*
G03X38381I31J26D01*
G02Y14884I138J-116D01*
G03X38320I-31J-26D01*
G02X38088Y14846I-138J116D01*
G03X38028Y14816I-21J-34D01*
G02X37925Y14631I-278J34D01*
G03Y14569I25J-31D01*
G02Y14131I-175J-219D01*
G03Y14069I25J-31D01*
G02Y13631I-175J-219D01*
G03Y13569I25J-31D01*
G02Y13131I-175J-219D01*
G03Y13069I25J-31D01*
G02Y12631I-175J-219D01*
G03Y12569I25J-31D01*
G02Y12131I-175J-219D01*
G03Y12069I25J-31D01*
G02Y11631I-175J-219D01*
G03Y11569I25J-31D01*
G02Y11131I-175J-219D01*
G03Y11069I25J-31D01*
G02Y10631I-175J-219D01*
G03Y10569I25J-31D01*
G02Y10131I-175J-219D01*
G03Y10069I25J-31D01*
G02Y9631I-175J-219D01*
G03Y9569I25J-31D01*
G02Y9131I-175J-219D01*
G03Y9069I25J-31D01*
G02Y8631I-175J-219D01*
G03Y8569I25J-31D01*
G02Y8131I-175J-219D01*
G03Y8069I25J-31D01*
G02Y7631I-175J-219D01*
G03Y7569I25J-31D01*
G02Y7131I-175J-219D01*
G03Y7069I25J-31D01*
G02Y6631I-175J-219D01*
G03Y6569I25J-31D01*
G02Y6131I-175J-219D01*
G03Y6069I25J-31D01*
G02Y5631I-175J-219D01*
G03Y5569I25J-31D01*
G02Y5131I-175J-219D01*
G03Y5069I25J-31D01*
G02Y4631I-175J-219D01*
G03Y4569I25J-31D01*
G02X37531Y4175I-175J-219D01*
G37*
G36*
G01X31641Y16942D02*
G02X31442Y16992I-141J-142D01*
G03X31459Y17058I-12J38D01*
G02X31400Y17208I141J142D01*
G03X31340Y17244I-40J2D01*
G02X31185Y17232I-90J156D01*
G03X31130Y17196I-14J-37D01*
G02X31015Y17368I-180J4D01*
G03X31070Y17404I14J37D01*
G02X31430Y17402I180J-4D01*
G03X31492Y17368I40J0D01*
G02X31658Y17008I108J-168D01*
G03X31641Y16942I12J-38D01*
G37*
G36*
G01X33204Y15193D02*
G02X32943Y15245I-154J-93D01*
G03X32949Y15272I-12J16D01*
G02X33092Y15545I154J93D01*
G03X33124Y15604I-2J40D01*
G02X33301Y15500I176J96D01*
G03X33266Y15443I0J-40D01*
G02X33210Y15220I-163J-78D01*
G03X33204Y15193I12J-16D01*
G37*
G36*
G01X31198Y14673D02*
G02X31071Y14520I52J-173D01*
G03X31018Y14562I-40J4D01*
G02X31148Y14718I-68J188D01*
G03X31198Y14673I39J-6D01*
G37*
G36*
G01X34771Y5569D02*
G02X34613Y5424I19J-179D01*
G03X34569Y5471I-39J7D01*
G02X34578Y5828I-19J179D01*
G03X34623Y5878I6J39D01*
G02X34768Y5749I173J49D01*
G03X34724Y5699I-6J-39D01*
G02X34727Y5616I-174J-49D01*
G03X34771Y5569I39J-7D01*
G37*
G36*
G01X26214Y5168D02*
G02X26191Y4964I136J-118D01*
G03X26126Y4972I-35J-19D01*
G02X26149Y5176I-136J118D01*
G03X26214Y5168I35J19D01*
G37*
G36*
G01X74683Y36848D02*
G03Y36822I15J-13D01*
G02X74417I-133J-122D01*
G03Y36848I-15J13D01*
G02X74683I133J122D01*
G37*
G36*
G01X75227Y36018D02*
G03X75173I-27J-29D01*
G02Y36282I-123J132D01*
G03X75227I27J29D01*
G02X75473I123J-132D01*
G03X75527I27J29D01*
G02Y36018I123J-132D01*
G03X75473I-27J-29D01*
G02X75227I-123J132D01*
G37*
G36*
G01X77033Y36848D02*
G03Y36822I15J-13D01*
G02X76767I-133J-122D01*
G03Y36848I-15J13D01*
G02X77033I133J122D01*
G37*
G36*
G01X77577Y36018D02*
G03X77523I-27J-29D01*
G02Y36282I-123J132D01*
G03X77577I27J29D01*
G02X77823I123J-132D01*
G03X77877I27J29D01*
G02Y36018I123J-132D01*
G03X77823I-27J-29D01*
G02X77577I-123J132D01*
G37*
G36*
G01X89383Y36848D02*
G03Y36822I15J-13D01*
G02X89117I-133J-122D01*
G03Y36848I-15J13D01*
G02X89383I133J122D01*
G37*
G36*
G01X89927Y36018D02*
G03X89873I-27J-29D01*
G02Y36282I-123J132D01*
G03X89927I27J29D01*
G02X90173I123J-132D01*
G03X90227I27J29D01*
G02Y36018I123J-132D01*
G03X90173I-27J-29D01*
G02X89927I-123J132D01*
G37*
G36*
G01X87033Y36848D02*
G03Y36822I15J-13D01*
G02X86767I-133J-122D01*
G03Y36848I-15J13D01*
G02X87033I133J122D01*
G37*
G36*
G01X87577Y36018D02*
G03X87523I-27J-29D01*
G02Y36282I-123J132D01*
G03X87577I27J29D01*
G02X87823I123J-132D01*
G03X87877I27J29D01*
G02Y36018I123J-132D01*
G03X87823I-27J-29D01*
G02X87577I-123J132D01*
G37*
G36*
G01X120339Y31617D02*
G03X120312I-14J-15D01*
G02Y31883I-122J133D01*
G03X120339I14J15D01*
G02Y31617I121J-133D01*
G37*
G36*
G01X119772Y30827D02*
G03Y30773I29J-27D01*
G02X119508I-132J-123D01*
G03Y30827I-29J27D01*
G02Y31073I132J123D01*
G03Y31127I-29J27D01*
G02X119772I132J123D01*
G03Y31073I29J-27D01*
G02Y30827I-132J-123D01*
G37*
G36*
G01X120339Y33967D02*
G03X120312I-14J-15D01*
G02Y34233I-122J133D01*
G03X120339I14J15D01*
G02Y33967I121J-133D01*
G37*
G36*
G01X119772Y33177D02*
G03Y33123I29J-27D01*
G02X119508I-132J-123D01*
G03Y33177I-29J27D01*
G02Y33423I132J123D01*
G03Y33477I-29J27D01*
G02X119772I132J123D01*
G03Y33423I29J-27D01*
G02Y33177I-132J-123D01*
G37*
G54D28*
X2300Y22850D03*
X2800Y21350D03*
Y22350D03*
Y23350D03*
X6225Y6675D03*
X6650Y13860D03*
X6200Y14300D03*
X8600Y20650D03*
X8000D03*
X9844Y25194D03*
X41000Y26800D03*
X41600D03*
X10609Y20259D03*
X16750Y4100D03*
Y9050D03*
X47650Y23400D03*
X48200D03*
X13847Y10450D03*
X16450Y11800D03*
X16800Y13950D03*
Y14550D03*
Y15050D03*
X17800Y7350D03*
X22150Y3500D03*
Y4200D03*
Y8450D03*
Y9150D03*
X23600Y10800D03*
X24112Y10788D03*
X22200Y14450D03*
X24350Y13168D03*
X24400Y14650D03*
Y14100D03*
X20900Y21750D03*
X21371Y22600D03*
X20900Y23550D03*
X24900Y4225D03*
X25600Y4650D03*
X26100D03*
X26800Y13956D03*
X26350D03*
X28000Y13950D03*
X26350Y16794D03*
X26800D03*
X28000Y16800D03*
X31850Y13250D03*
X31200D03*
X31950Y15750D03*
X34000Y4650D03*
X34500D03*
X33050Y13256D03*
X33775D03*
Y15706D03*
X35386Y5100D03*
Y4264D03*
X35380Y8430D03*
X40700Y3600D03*
X39840Y6650D03*
X39440Y5950D03*
X40036Y8936D03*
X39564Y10350D03*
X40890Y11680D03*
X41440Y6650D03*
Y6150D03*
Y5600D03*
X41600Y10600D03*
X42450Y13400D03*
X71456Y38094D03*
X70644D03*
X82994D03*
G54D29*
X2300Y23350D03*
X2800Y22850D03*
G54D36*
X71400Y39300D03*
X83750D03*
X93750Y33850D03*
X93900Y40050D03*
X104100Y33900D03*
X104000Y40150D03*
G54D38*
X100500Y32890D03*
Y32390D03*
Y31840D03*
X100650Y38040D03*
Y38590D03*
Y39090D03*
X110850Y31890D03*
Y32440D03*
Y32940D03*
X110750Y38140D03*
Y38690D03*
Y39190D03*
G54D37*
X75400Y39300D03*
X83750Y40300D03*
X87750Y39300D03*
X93750Y30850D03*
X93900Y37050D03*
X104100Y30900D03*
X104000Y37150D03*
X122790Y33250D03*
G54D31*
X9250Y25950D03*
X9240Y27050D03*
X10240D03*
X11240D03*
G54D30*
X6205Y6045D03*
X6200Y13150D03*
X6550Y27100D03*
X6702Y18902D03*
X6750Y20850D03*
X8350Y23200D03*
X7200Y26400D03*
X6900Y26750D03*
X7600Y26200D03*
X11000Y27750D03*
X27550Y26530D03*
X27586Y25764D03*
X27550Y25300D03*
X28100Y26850D03*
X29350Y26300D03*
X29945D03*
X34683Y26333D03*
X35300Y26600D03*
X35500Y25300D03*
X36100Y26850D03*
X37300Y26300D03*
X37895D03*
X42150Y26700D03*
X43900Y26750D03*
X45200Y26300D03*
X44450Y25545D03*
X43400Y25300D03*
X8061Y6011D03*
X7608Y6208D03*
X8650Y7400D03*
X8050Y10450D03*
X8039Y14889D03*
Y13961D03*
X7608Y14158D03*
Y15892D03*
X8250Y15850D03*
X8300Y17835D03*
X10600Y4106D03*
X9050Y7700D03*
X9450Y8450D03*
X9050Y15650D03*
X9450Y16400D03*
X10000Y17835D03*
X11850Y3900D03*
X11200Y17900D03*
X11850Y18500D03*
X12800Y25350D03*
X20230Y4150D03*
X20250Y4600D03*
X27800Y23550D03*
X32000Y24500D03*
X39950Y24600D03*
X47850D03*
X10958Y7192D03*
Y15142D03*
X12450Y5250D03*
X11858Y5300D03*
X11200Y5400D03*
X11900Y7150D03*
Y6250D03*
X12350Y6700D03*
X12800Y7150D03*
Y6250D03*
X11850Y10550D03*
X11200Y11500D03*
X11250Y13260D03*
X11858Y13250D03*
X11850Y11850D03*
X12900Y13250D03*
X11052Y14748D03*
X11900Y14200D03*
X12350Y14650D03*
X12800Y14200D03*
X11900Y15100D03*
X12800D03*
X15150Y6050D03*
Y5550D03*
Y13500D03*
Y14000D03*
X13750Y15000D03*
X16850Y5550D03*
Y6650D03*
X15700Y12350D03*
X19050Y3850D03*
X19550Y3848D03*
X17555Y6470D03*
X18600Y6250D03*
X18100Y6900D03*
X17650Y10880D03*
X22850Y5500D03*
X19100Y14800D03*
X19650Y14798D03*
X20280Y14000D03*
Y14500D03*
X22850Y23650D03*
X23450D03*
X27250Y13250D03*
X26800Y14950D03*
Y15800D03*
X26390Y14930D03*
X28077Y19623D03*
X27527D03*
X27800Y20350D03*
X27450Y18850D03*
X28913Y11713D03*
X28950Y17200D03*
X30232Y20000D03*
X30125Y18475D03*
X31200Y15800D03*
X31350Y18000D03*
X32050Y19950D03*
X33050Y13900D03*
X34650Y12100D03*
X33300Y17550D03*
X33000Y19950D03*
X36600Y7350D03*
X35791Y6830D03*
X35790Y5630D03*
X35870Y7300D03*
X36250Y8300D03*
X35050Y13700D03*
X35550Y16100D03*
X36100Y16350D03*
X34900Y17500D03*
X36900Y3850D03*
X39600Y3050D03*
X39250Y3350D03*
X39050Y5400D03*
X40360Y11710D03*
X40540Y10130D03*
X40904Y10466D03*
X40345Y14808D03*
X39900Y15750D03*
X40000Y17600D03*
X39950Y16600D03*
X39750Y18500D03*
X41440Y4800D03*
X76341Y36841D03*
X76250Y36400D03*
X82400D03*
X88600D03*
X88691Y36841D03*
X98500Y32000D03*
X98650Y38200D03*
X119890Y32400D03*
X120331Y32309D03*
G54D33*
X8850Y4450D03*
X8550Y16800D03*
X72400Y39300D03*
Y40300D03*
X76400D03*
X84750Y39300D03*
Y40300D03*
X88750D03*
X94750Y30850D03*
X93750Y31850D03*
X94750D03*
Y33850D03*
X94900Y37050D03*
X93900Y38050D03*
X94900D03*
Y40050D03*
X105100Y30900D03*
X104100Y31900D03*
X105100D03*
Y33900D03*
X104000Y38150D03*
X105000Y37150D03*
Y38150D03*
Y40150D03*
X123790Y32250D03*
G54D32*
X25050Y27580D03*
G54D35*
X40700Y8800D03*
G54D34*
X25836Y24448D03*
%LPD*%
G75*
G54D10*
G01X13600Y19438D02*
X12938D01*
G01X13500Y18850D02*
X12900D01*
G01X13600Y19438D02*
X13612Y19450D01*
X19450D01*
X19733Y19733D01*
X21167D01*
X21450Y19450D01*
X23300D01*
X23460Y19290D01*
G01X13500Y18850D02*
X15050D01*
X15630Y18270D01*
X20280D01*
G01D02*
Y15470D01*
G01Y18270D02*
X22750D01*
G01X42250Y3700D02*
X40330Y1780D01*
X34930D01*
X34600Y1450D01*
X32988D01*
X32493Y1945D01*
X31244D01*
X31228Y1960D01*
X30972D01*
X30956Y1945D01*
X30795D01*
X29846Y996D01*
X26331D01*
X26329Y994D01*
X23890D01*
X23590Y1294D01*
Y2490D01*
X24250Y3150D01*
Y3950D01*
X23750Y4450D01*
Y5000D01*
X24750Y6000D01*
Y13350D01*
G01X26166Y18966D02*
X25166D01*
X25000Y18800D01*
X23950D01*
X23460Y19290D01*
G01X22750Y18270D02*
X24130D01*
X25500Y16900D01*
Y13800D01*
X26636Y12664D01*
Y12164D01*
X26675Y12125D01*
G01X23672Y22072D02*
Y21711D01*
X24583Y20800D01*
X24600D01*
G01X24050Y20650D02*
X23800Y20900D01*
G01D02*
X22952Y21748D01*
Y22148D01*
G01D02*
X23050Y22245D01*
X23072D01*
X23347Y22520D01*
X24980D01*
X25700Y21800D01*
X49300D01*
X50050Y22550D01*
G01X24750Y13350D02*
X24400Y13700D01*
G01D02*
Y14100D01*
G01Y19211D02*
Y19700D01*
G01D02*
Y20250D01*
X24600Y20450D01*
Y20800D01*
G01X26636Y10400D02*
X27260Y9776D01*
Y9168D01*
X27860Y8568D01*
Y7927D01*
X27636Y7703D01*
X27473D01*
X27179Y7409D01*
Y5947D01*
X27800Y5327D01*
Y4900D01*
X28850Y3850D01*
X31580D01*
X32000Y4270D01*
Y4650D01*
G01X26675Y12125D02*
Y10439D01*
X26636Y10400D01*
G01X26350Y19150D02*
X26166Y18966D01*
G01X27512Y20500D02*
X27672Y20660D01*
X27928D01*
X28088Y20500D01*
G01X27250D02*
X27512D01*
G01X28088D02*
X41200D01*
X41400Y20700D01*
X49850D01*
G01X29950Y27800D02*
X29700Y27550D01*
G01X29950Y27800D02*
X37250D01*
G01X46634Y7633D02*
Y11116D01*
X46440Y11310D01*
Y16550D01*
G01X32000Y4650D02*
Y5050D01*
G01X37950Y27800D02*
X37600Y27450D01*
G01D02*
X37250Y27800D01*
G01X45150D02*
X45060Y27890D01*
X38040D01*
X37950Y27800D01*
G01X43710Y9000D02*
X43660Y8950D01*
Y6460D01*
X42550Y5350D01*
Y4000D01*
X42500Y3950D01*
G01X42250Y3700D02*
X42500Y3950D01*
G01X41800Y13950D02*
X41805Y13945D01*
X43055D01*
G01X41800Y13950D02*
X41600Y13750D01*
G01X43055Y13945D02*
X43600Y13400D01*
Y9110D01*
X43710Y9000D01*
G01X46440Y16550D02*
Y17050D01*
X46140Y17350D01*
X43800D01*
G01X45850Y27800D02*
X45500Y27450D01*
G01D02*
X45150Y27800D01*
G01X49850Y20700D02*
X50800Y21650D01*
Y25300D01*
X50200Y25900D01*
X48804D01*
X48061Y26643D01*
X48057D01*
X46900Y27800D01*
X45850D01*
G01X50050Y23050D02*
Y24670D01*
X49320Y25400D01*
X48400D01*
X48100Y25100D01*
X47900D01*
G01X50050Y22550D02*
Y23050D01*
X2300Y3850D03*
Y4350D03*
Y4850D03*
Y5350D03*
Y5850D03*
Y6350D03*
Y6850D03*
Y7350D03*
Y7850D03*
Y8350D03*
Y8850D03*
Y9350D03*
Y9850D03*
Y10350D03*
Y10850D03*
Y11350D03*
Y11850D03*
Y12350D03*
Y12850D03*
Y13350D03*
Y13850D03*
Y14350D03*
Y14850D03*
Y15350D03*
Y15850D03*
Y16350D03*
Y16850D03*
Y17350D03*
Y17850D03*
Y18350D03*
Y18850D03*
Y19350D03*
Y19850D03*
Y20350D03*
Y20850D03*
Y21350D03*
Y21850D03*
Y22350D03*
Y22850D03*
Y23350D03*
X4300Y3850D03*
Y4350D03*
Y4850D03*
Y5350D03*
X2800Y3850D03*
Y4350D03*
Y4850D03*
Y5350D03*
X4300Y5850D03*
Y6350D03*
Y6850D03*
Y7350D03*
X2800Y5850D03*
Y6350D03*
Y6850D03*
Y7350D03*
X4300Y7850D03*
Y8350D03*
Y8850D03*
Y9350D03*
X2800Y7850D03*
Y8350D03*
Y8850D03*
Y9350D03*
X4300Y9850D03*
Y10350D03*
Y10850D03*
Y11350D03*
Y11850D03*
X2800Y9850D03*
Y10350D03*
Y10850D03*
Y11350D03*
Y11850D03*
X4300Y12350D03*
Y12850D03*
Y13350D03*
Y13850D03*
X2800Y12350D03*
Y12850D03*
Y13350D03*
Y13850D03*
X4300Y14350D03*
Y14850D03*
Y15350D03*
Y15850D03*
X2800Y14350D03*
Y14850D03*
Y15350D03*
Y15850D03*
X4300Y16350D03*
Y16850D03*
Y17350D03*
Y17850D03*
X2800Y16350D03*
Y16850D03*
Y17350D03*
Y17850D03*
X4300Y18350D03*
Y18850D03*
Y19350D03*
Y19850D03*
Y20350D03*
X2800Y18350D03*
Y18850D03*
Y19350D03*
Y19850D03*
Y20350D03*
X4300Y20850D03*
Y21350D03*
Y21850D03*
Y22350D03*
X2800Y20850D03*
Y21350D03*
Y21850D03*
Y22350D03*
X4300Y22850D03*
Y23350D03*
X2800Y22850D03*
Y23350D03*
X4800Y3850D03*
Y4350D03*
Y4850D03*
Y5350D03*
Y5850D03*
Y6350D03*
Y6850D03*
Y7350D03*
Y7850D03*
Y8350D03*
Y8850D03*
Y9350D03*
Y9850D03*
Y10350D03*
Y10850D03*
Y11350D03*
Y11850D03*
Y12350D03*
Y12850D03*
Y13350D03*
Y13850D03*
Y14350D03*
Y14850D03*
Y15350D03*
Y15850D03*
Y16350D03*
Y16850D03*
Y17350D03*
Y17850D03*
Y18350D03*
Y18850D03*
Y19350D03*
Y19850D03*
Y20350D03*
Y20850D03*
Y21350D03*
Y21850D03*
Y22350D03*
Y22850D03*
Y23350D03*
X82000Y4500D03*
Y5000D03*
X81500Y4500D03*
Y5000D03*
X82000Y15800D03*
X81500D03*
X82000Y16300D03*
X81500D03*
X84000Y4500D03*
Y5000D03*
X83500Y4500D03*
Y5000D03*
X83000Y4500D03*
Y5000D03*
X82500Y4500D03*
Y5000D03*
X84000Y15800D03*
X83500D03*
X83000D03*
X82500D03*
X84000Y16300D03*
X83500D03*
X83000D03*
X82500D03*
X86500Y4500D03*
Y5000D03*
X86000Y4500D03*
Y5000D03*
X85500Y4500D03*
Y5000D03*
X85000Y4500D03*
Y5000D03*
X84500Y4500D03*
Y5000D03*
X86500Y15800D03*
X86000D03*
X85500D03*
X85000D03*
X84500D03*
X86500Y16300D03*
X86000D03*
X85500D03*
X85000D03*
X84500D03*
X88500Y4500D03*
Y5000D03*
X88000Y4500D03*
Y5000D03*
X87500Y4500D03*
Y5000D03*
X87000Y4500D03*
Y5000D03*
X88500Y15800D03*
X88000D03*
X87500D03*
X87000D03*
X88500Y16300D03*
X88000D03*
X87500D03*
X87000D03*
X90500Y4500D03*
Y5000D03*
X90000Y4500D03*
Y5000D03*
X89500Y4500D03*
Y5000D03*
X89000Y4500D03*
Y5000D03*
X90500Y15800D03*
X90000D03*
X89500D03*
X89000D03*
X90500Y16300D03*
X90000D03*
X89500D03*
X89000D03*
X92500Y4500D03*
Y5000D03*
X92000Y4500D03*
Y5000D03*
X91500Y4500D03*
Y5000D03*
X91000Y4500D03*
Y5000D03*
X92500Y15800D03*
X92000D03*
X91500D03*
X91000D03*
X92500Y16300D03*
X92000D03*
X91500D03*
X91000D03*
X95000Y4500D03*
Y5000D03*
X94500Y4500D03*
Y5000D03*
X94000Y4500D03*
Y5000D03*
X93500Y4500D03*
Y5000D03*
X93000Y4500D03*
Y5000D03*
X95000Y15800D03*
X94500D03*
X94000D03*
X93500D03*
X93000D03*
X95000Y16300D03*
X94500D03*
X94000D03*
X93500D03*
X93000D03*
X97000Y4500D03*
Y5000D03*
X96500Y4500D03*
Y5000D03*
X96000Y4500D03*
Y5000D03*
X95500Y4500D03*
Y5000D03*
X97000Y15800D03*
X96500D03*
X96000D03*
X95500D03*
X97000Y16300D03*
X96500D03*
X96000D03*
X95500D03*
X98500Y4500D03*
Y5000D03*
X98000Y4500D03*
Y5000D03*
X97500Y4500D03*
Y5000D03*
X98500Y15800D03*
X98000D03*
X97500D03*
X98500Y16300D03*
X98000D03*
X97500D03*
X100500Y32890D03*
Y32390D03*
Y31840D03*
X100650Y38040D03*
Y38590D03*
Y39090D03*
X110850Y31890D03*
Y32440D03*
Y32940D03*
X110750Y38140D03*
Y38690D03*
Y39190D03*
G54D20*
X75570Y27010D03*
X77090D03*
X110480Y12900D03*
X116480Y7900D03*
X133990Y12880D03*
Y34330D03*
X139990Y7880D03*
Y29330D03*
G54D11*
X1450Y4500D03*
X1550Y16600D03*
X1050Y22250D03*
X3900Y8100D03*
X3877Y10558D03*
X3400Y11450D03*
X3300Y18900D03*
X3850Y23900D03*
X3480Y22980D03*
X3700Y23600D03*
X6650Y700D03*
X5950Y2250D03*
X6600Y2750D03*
X5968Y1850D03*
X6300Y1450D03*
X6205Y6045D03*
X5250Y9600D03*
X5222Y13428D03*
X5700Y13850D03*
X5850Y12050D03*
X6200Y13150D03*
X5350Y14750D03*
Y19350D03*
X6050Y21600D03*
X5400Y22900D03*
X5750Y23450D03*
X5600Y24750D03*
X6550Y27100D03*
X7150Y915D03*
X6900Y450D03*
X7250Y2750D03*
X7100Y6400D03*
X8061Y6011D03*
X6702Y6602D03*
X7608Y6208D03*
X8650Y7400D03*
X7135Y11315D03*
X8050Y10450D03*
X7100Y14355D03*
X8039Y14889D03*
Y13961D03*
X7608Y14158D03*
Y15892D03*
X8250Y15850D03*
X8300Y17835D03*
X6702Y18902D03*
X8258Y20100D03*
X6750Y20850D03*
X8350Y23200D03*
X7200Y26400D03*
X6900Y26750D03*
X7600Y26200D03*
X9350Y1100D03*
X10600Y4106D03*
X10650Y6650D03*
X10958Y7192D03*
X9050Y7700D03*
X9450Y8450D03*
X10900Y7700D03*
X10958Y15142D03*
X9050Y15650D03*
X10900D03*
X9450Y16400D03*
X10000Y17835D03*
X9250Y20300D03*
X9450Y20850D03*
X9772Y22958D03*
X10072D03*
X10372D03*
X10672D03*
X9772Y23258D03*
X10072D03*
X10372D03*
X10672D03*
X8950Y23180D03*
X9250D03*
X8940Y22900D03*
X9250D03*
X9300Y23750D03*
X9000D03*
X10930Y28330D03*
X12500Y1850D03*
X11850Y3900D03*
X12450Y5250D03*
X11858Y5300D03*
X11200Y5400D03*
X11900Y7150D03*
Y6250D03*
X12350Y6700D03*
X12800Y7150D03*
Y6250D03*
X11858Y8400D03*
Y8660D03*
X11300Y7698D03*
X11850Y10550D03*
X11200Y11500D03*
Y9950D03*
X12400D03*
X13050D03*
X11250Y13260D03*
X11858Y13250D03*
X11850Y11850D03*
X12550D03*
X12900Y13250D03*
Y12000D03*
X11052Y14748D03*
X11900Y14200D03*
X12350Y14650D03*
X12800Y14200D03*
X11900Y15100D03*
X11300Y15648D03*
X12800Y15100D03*
X11200Y17900D03*
X11858Y16610D03*
Y16350D03*
X12900Y17200D03*
X12250Y19400D03*
X11850Y18500D03*
X11430Y22880D03*
X11120D03*
X11430Y23160D03*
X11130D03*
X11400Y23750D03*
X11123D03*
X12800Y25350D03*
X12150Y28300D03*
X11000Y27750D03*
X13650Y1300D03*
X13550Y5550D03*
X15150Y6050D03*
X15044Y7194D03*
X15150Y5550D03*
X13750Y6300D03*
Y7050D03*
X13800Y6602D03*
X13775Y5725D03*
X13450Y13550D03*
X15150Y13500D03*
X13847Y13547D03*
X15044Y15144D03*
X15150Y14000D03*
X13750Y14250D03*
Y15000D03*
X13800Y14552D03*
X15350Y5100D03*
X16700Y7300D03*
X16427Y6173D03*
X16150Y6000D03*
X16850Y5550D03*
Y6650D03*
X16700Y7800D03*
X15750Y8100D03*
X15700Y8400D03*
X17000Y7450D03*
X16950Y10100D03*
X15370Y10380D03*
X15700Y12350D03*
X15300Y15450D03*
X17250Y16150D03*
X15300Y16850D03*
Y16150D03*
X15450Y16550D03*
X15800Y16650D03*
X17068Y20000D03*
X16732D03*
X19050Y3850D03*
X19550Y3848D03*
X17555Y6470D03*
X18600Y6250D03*
X18100Y6900D03*
X19381Y8798D03*
X19050Y8800D03*
X17650Y10880D03*
X18540Y13400D03*
X18150Y13130D03*
X18170Y12090D03*
X19100Y14800D03*
X18540Y17430D03*
X17920Y17750D03*
X19550Y20450D03*
X20230Y4150D03*
X20250Y4600D03*
X20230Y3550D03*
Y3150D03*
Y9100D03*
Y9450D03*
Y8500D03*
X20200Y8150D03*
X19700Y8800D03*
X19650Y14798D03*
X20280Y14000D03*
Y14500D03*
Y15100D03*
Y15470D03*
X20723Y19423D03*
X21550Y19100D03*
X20300Y18900D03*
X22150Y1100D03*
X23000Y2000D03*
X23150Y4050D03*
X23500Y3150D03*
X23750Y3650D03*
X22850Y5500D03*
X23900Y6180D03*
X23840Y7770D03*
X22777Y11018D03*
X23500Y12350D03*
X22200Y12000D03*
X22600D03*
X23500Y15000D03*
X23620Y16250D03*
X22850Y16900D03*
X22150Y17420D03*
X23270Y17210D03*
X22850Y19900D03*
X22750Y19000D03*
X22200Y19100D03*
X23791Y19585D03*
X21843Y18953D03*
X21900Y19800D03*
X23275Y18875D03*
X23460Y20750D03*
X23150Y20850D03*
X21900Y20400D03*
X22600Y22250D03*
X23700Y20406D03*
X22950Y21045D03*
X22700Y20850D03*
X22250Y20700D03*
X22952Y22148D03*
X22150Y24000D03*
X22159Y24341D03*
X22448Y24348D03*
X23890Y23100D03*
X22410D03*
X23850Y24300D03*
X22850Y23650D03*
X23450D03*
X22355Y26145D03*
X23600Y25950D03*
X22900Y25400D03*
X23250D03*
X24350Y2550D03*
X24150Y2050D03*
X24350Y1400D03*
X24230Y4560D03*
X25990Y5090D03*
X25150Y6730D03*
X24240Y6000D03*
X24050Y7300D03*
X24200Y6789D03*
X25160Y6320D03*
X25190Y5340D03*
X24200Y6500D03*
X25700Y5750D03*
X25780Y6300D03*
X25950Y6730D03*
X25500D03*
X25470Y6300D03*
X25190Y8210D03*
X25200Y7950D03*
X24300Y8350D03*
X26000Y9300D03*
X26040Y7460D03*
X25700Y7450D03*
X25950Y8400D03*
X25190Y7440D03*
X24250Y7700D03*
X25500Y9350D03*
X26000Y10500D03*
X25350Y10950D03*
X25550Y11570D03*
X25600Y12150D03*
X25500Y12570D03*
Y17450D03*
X24744Y16644D03*
X25850Y18650D03*
X24050Y19500D03*
X24744Y18406D03*
X24050Y23900D03*
X24141Y24341D03*
X27900Y1650D03*
X27400Y2000D03*
X26350Y5050D03*
X26800Y5100D03*
X26720Y4150D03*
X26330Y6710D03*
X28190Y6660D03*
X27490Y6990D03*
X26575Y7425D03*
X27550Y7260D03*
X26650Y5600D03*
X27605Y6615D03*
X26571Y6911D03*
X26500Y6100D03*
X26960Y8500D03*
X27550Y8440D03*
X27526Y8031D03*
X27570Y9350D03*
X26500Y7750D03*
X26350Y8430D03*
X26116Y11334D03*
X27300Y11000D03*
X27150Y11713D03*
X27000Y11334D03*
X26350Y11200D03*
X26372Y13428D03*
X27669Y12943D03*
X27000Y12050D03*
X27250Y13250D03*
X27300Y12500D03*
X28200Y13045D03*
X26800Y14950D03*
Y15800D03*
X26090Y15710D03*
X26390Y14930D03*
X28077Y19623D03*
X27527D03*
X27800Y20350D03*
X27450Y18850D03*
X27550Y21100D03*
X26600D03*
X27800Y22450D03*
X27300D03*
X26850D03*
X26350D03*
X26850Y20450D03*
X26250Y21150D03*
X27150Y21100D03*
X27800Y23550D03*
X27600Y24657D03*
X27550Y26530D03*
X27586Y25764D03*
X27550Y25300D03*
X28100Y26850D03*
X28344Y1306D03*
X28650Y4850D03*
X28344Y5694D03*
X28900Y5350D03*
X28750Y6160D03*
X29140Y5560D03*
X29050Y6920D03*
X29150Y6150D03*
X29390Y7400D03*
X29270Y8780D03*
X28250Y7780D03*
X28913Y11713D03*
X29050Y10863D03*
X28850Y10350D03*
X28486Y13000D03*
X28436Y11750D03*
X28950Y15150D03*
Y17200D03*
X30232Y20000D03*
X30125Y18475D03*
X28500Y21100D03*
X29450D03*
X29200Y22450D03*
X28250D03*
X30150D03*
X28750D03*
X29700D03*
X28650Y24550D03*
X29350Y26300D03*
X29945D03*
X28650Y24955D03*
X28600Y25545D03*
X29750Y25100D03*
X29150Y27750D03*
X29950Y27800D03*
X29700Y27550D03*
X31100Y1650D03*
X32200Y5373D03*
X32300Y5850D03*
X31510Y6700D03*
X31115Y6370D03*
X30810Y7660D03*
X32460Y7440D03*
X32050Y8400D03*
X31950Y9100D03*
X31510Y8860D03*
X32455Y7835D03*
X30650Y11600D03*
X30850Y9700D03*
X31800Y10200D03*
X31400Y9650D03*
Y10700D03*
X31250Y14500D03*
X31200Y15800D03*
X31350Y18000D03*
X31250Y17400D03*
X30950Y17200D03*
X32050Y19950D03*
X31182D03*
X31963Y18300D03*
X31518Y19950D03*
X32300Y18300D03*
X30400Y21100D03*
X31350D03*
X32300D03*
X30650Y22450D03*
X31600D03*
X32050D03*
X31100D03*
X32000Y24500D03*
X31950Y25700D03*
X32000Y25100D03*
X31859Y25400D03*
X30400Y28200D03*
X32750Y3050D03*
X34350Y1050D03*
X33000Y5050D03*
X33534Y3250D03*
X34650Y7400D03*
X32550Y6450D03*
X34550Y5650D03*
X33750Y7300D03*
X33460Y6420D03*
X34700Y7050D03*
X33750Y5900D03*
X33930Y6930D03*
X33750Y8700D03*
X33230Y9270D03*
X34520Y8650D03*
X34650Y7740D03*
X34550Y8100D03*
X34500Y11150D03*
X33050Y13900D03*
X34650Y12100D03*
X34550Y12550D03*
X33050Y15100D03*
X33800Y14500D03*
X33103Y15365D03*
X33300Y17550D03*
X33750Y18000D03*
X34100D03*
X33000Y19950D03*
X34382Y20100D03*
X33250Y21100D03*
X34550D03*
X33000Y22450D03*
X33500D03*
X34300D03*
X32550D03*
X32750Y20950D03*
X33700D03*
X34250Y24650D03*
X33300Y25050D03*
X34300Y25750D03*
X34250Y25150D03*
X34683Y26333D03*
X36500Y2500D03*
X35575Y1075D03*
X36250Y1000D03*
X36700D03*
X35900Y1050D03*
X34790Y5390D03*
X36600Y7350D03*
X35791Y6830D03*
X35790Y5630D03*
X34855Y6655D03*
X34796Y5927D03*
X35870Y7300D03*
X36250Y8300D03*
X35200Y9850D03*
X35632Y13750D03*
X35450Y13050D03*
X35968Y13750D03*
X35113Y13050D03*
X35050Y13700D03*
X34750Y12800D03*
X36532Y14900D03*
X35550Y16100D03*
X36100Y16350D03*
X34900Y17500D03*
X36618Y20100D03*
X36282D03*
X35332D03*
X34718D03*
X35668D03*
X36450Y21100D03*
X35500D03*
X36200Y22450D03*
X35750D03*
X36700D03*
X35250D03*
X34800D03*
X36600Y24550D03*
X35550Y24657D03*
X36600Y24955D03*
X36550Y25545D03*
X35300Y26600D03*
X35500Y25300D03*
X36100Y26850D03*
X36950Y2150D03*
X36900Y3850D03*
X38518Y15000D03*
X36868Y14900D03*
X38182Y15000D03*
X38732Y16400D03*
X38682Y17650D03*
X37193Y20050D03*
X38518D03*
X37530D03*
X38182D03*
X37400Y21100D03*
X38350D03*
X37150Y22450D03*
X38100D03*
X38600D03*
X37650D03*
X37300Y26300D03*
X37895D03*
X38450Y28200D03*
X37600Y28000D03*
Y27450D03*
X39950Y300D03*
X39600Y3050D03*
X40900Y1650D03*
X39250Y3350D03*
X39050Y5400D03*
X40360Y11710D03*
X40540Y10130D03*
X40904Y10466D03*
X41162Y11250D03*
X40345Y14808D03*
X39430Y15700D03*
X39093D03*
X39900Y15750D03*
X40750Y17200D03*
X40000Y17600D03*
X39068Y16400D03*
X39018Y17650D03*
X40650Y16300D03*
X39950Y16600D03*
X40650D03*
X40600Y17550D03*
X40418Y19950D03*
X40082D03*
X39430Y20100D03*
X39093D03*
X41031Y20150D03*
X39750Y18500D03*
X39300Y21100D03*
X40250D03*
X40950Y22450D03*
X39550D03*
X40000D03*
X39050D03*
X40500D03*
X39950Y24600D03*
X39900Y25700D03*
X40150Y26350D03*
X40000Y25100D03*
X39850Y25400D03*
X42750Y2242D03*
Y2568D03*
X42450Y1782D03*
Y2108D03*
X41440Y4800D03*
X42753Y11647D03*
X41499Y11250D03*
X42350Y9600D03*
X42340Y9950D03*
X42150Y11650D03*
X42825Y12325D03*
X41350Y15950D03*
X42300Y15900D03*
X42850Y15250D03*
X42651Y17298D03*
X42725Y17725D03*
X41950Y17950D03*
X41434Y17938D03*
X41650Y18100D03*
X42650Y17000D03*
X43000Y16850D03*
X41850Y20350D03*
X43232Y20100D03*
X42317Y20136D03*
X42654D03*
X41700Y18900D03*
X42000D03*
X41368Y20150D03*
X42150Y18250D03*
X42450Y21100D03*
X41200D03*
X42700Y22450D03*
X42200D03*
X43150D03*
X41450D03*
X42150Y24650D03*
Y26700D03*
X42200Y25750D03*
X42150Y25150D03*
X41250Y25050D03*
X44225Y1125D03*
X43350Y4608D03*
Y4282D03*
X44050Y5550D03*
Y5887D03*
X43965Y10630D03*
X43900Y13700D03*
X44000Y12650D03*
X43636Y15300D03*
X43586Y14050D03*
X44000Y14400D03*
X44600Y16890D03*
X43700Y18750D03*
X44703Y19689D03*
X45131Y20050D03*
X45468D03*
X44697Y19959D03*
X43568Y20100D03*
X45300Y21100D03*
X44350D03*
X43400D03*
X43650Y22450D03*
X44100D03*
X45050D03*
X44600D03*
X44500Y24550D03*
X43450Y24657D03*
X43900Y26750D03*
X45200Y26300D03*
X44500Y24955D03*
X44450Y25545D03*
X43400Y25300D03*
X46300Y10350D03*
X47150Y10968D03*
X46300Y10013D03*
X47150Y10632D03*
X46750Y11850D03*
X46900Y13800D03*
X47150Y15550D03*
X45600Y16650D03*
X46081Y20000D03*
X47032Y20100D03*
X45900Y19550D03*
X46418Y20000D03*
X47368Y20100D03*
X46900Y18800D03*
X47200Y21100D03*
X46250D03*
X47450Y22450D03*
X46950D03*
X46000D03*
X46500D03*
X45550D03*
X45795Y26300D03*
X46200Y28200D03*
X45500Y28000D03*
Y27450D03*
X47970Y3690D03*
Y3240D03*
X49348Y5148D03*
X49048D03*
X48748D03*
X49648D03*
X47970Y4990D03*
X49048Y5448D03*
X48748D03*
X49648D03*
X49348D03*
X48230Y6220D03*
X48626Y8284D03*
X49714D03*
X48150Y12937D03*
X48931Y13800D03*
X48150Y12600D03*
X49268Y13800D03*
X47850Y14050D03*
X47982Y19950D03*
X48931Y20150D03*
X48318Y19950D03*
X49268Y20150D03*
X47700Y19150D03*
X49100Y21100D03*
X48150D03*
X47900Y22450D03*
X49350D03*
X48400D03*
X48850D03*
X47850Y24600D03*
X47800Y25700D03*
X47933Y26333D03*
X47900Y25100D03*
X47750Y25400D03*
X50370Y3690D03*
Y3240D03*
Y4990D03*
X50440Y5760D03*
X55405Y9805D03*
X54850Y11000D03*
X55405Y12105D03*
X56193Y17257D03*
X56002Y17448D03*
X56845Y1635D03*
X56595Y1385D03*
X57100Y13600D03*
X56600Y13105D03*
X56575Y16875D03*
X56384Y17066D03*
X57100Y17750D03*
X56800Y19650D03*
X56600Y20800D03*
X59692Y941D03*
X59882Y1132D03*
X60073Y1323D03*
Y5237D03*
X59962Y5850D03*
X59692Y6300D03*
X59100Y8800D03*
X59050Y8050D03*
X59150Y9336D03*
X60500Y15350D03*
X60350Y15850D03*
X59650Y17150D03*
X60350Y17950D03*
X59900Y19250D03*
X62250Y2100D03*
X62200Y14400D03*
X61050Y14850D03*
X61550Y16350D03*
X60750Y17650D03*
X61250Y17400D03*
X62200Y19150D03*
X61000Y18250D03*
X62050Y20232D03*
Y20568D03*
X62950Y2250D03*
X64500Y3000D03*
X63650Y2400D03*
X62913Y16900D03*
X63250D03*
X66900Y4582D03*
X66250Y3736D03*
X66900Y4918D03*
X66250Y4073D03*
X67000Y16828D03*
X65750Y18250D03*
X67418Y1700D03*
X67082D03*
X67700Y3232D03*
Y3568D03*
X69150Y5350D03*
X68700Y7595D03*
Y18500D03*
X68800Y30400D03*
X70950Y19150D03*
X69650Y30400D03*
X71320Y36900D03*
X70780D03*
X70050Y36400D03*
X70702Y35558D03*
X71052Y35908D03*
X70702D03*
X71052Y35558D03*
X72250Y18300D03*
X72500Y19868D03*
Y19532D03*
X72050Y36350D03*
X71402Y35908D03*
Y35558D03*
X75569Y4350D03*
X74650Y4550D03*
X75232Y4350D03*
X74380Y4550D03*
X75569Y6750D03*
X75232D03*
X74210Y7830D03*
Y7494D03*
X74478Y10500D03*
X75478D03*
X74850D03*
X73850Y20132D03*
Y20468D03*
X74150Y21218D03*
Y20882D03*
X75050Y36150D03*
X75350D03*
X75650D03*
X74550Y36970D03*
Y36700D03*
X74610Y35600D03*
X75988Y5963D03*
X75978Y10500D03*
X77540Y12300D03*
Y13500D03*
X76265Y15035D03*
X76074Y15226D03*
X76400Y18750D03*
X76100Y18941D03*
X77700Y36150D03*
X77400D03*
X76900Y36700D03*
Y36970D03*
X76960Y35600D03*
X76341Y36841D03*
X76250Y36400D03*
X78100Y4950D03*
X79800Y16650D03*
X78950Y30250D03*
X78000D03*
Y36150D03*
X78600Y36400D03*
X78691Y36841D03*
X81550Y13650D03*
X80750Y12850D03*
X81780Y17873D03*
X81700Y22250D03*
X81150Y30400D03*
X82000D03*
X84300Y3900D03*
X84000Y6000D03*
X84050Y11350D03*
X82212Y17682D03*
X83752Y35558D03*
X83402D03*
X83052D03*
X83402Y35908D03*
X83052D03*
X83752D03*
X83670Y36900D03*
X82400Y36400D03*
X83130Y36900D03*
X86000Y7350D03*
X86354D03*
X84700Y9450D03*
X86175Y11475D03*
X85425Y10725D03*
X85675Y10975D03*
X85925Y11225D03*
X86000Y14100D03*
X84650Y20950D03*
X85400Y21550D03*
X84400Y36350D03*
X87060Y7350D03*
X86707D03*
X86750Y11700D03*
X87400Y14600D03*
X86900Y36970D03*
Y36700D03*
X86960Y35600D03*
X88600Y36400D03*
X88000Y36150D03*
X87700D03*
X87400D03*
X90230Y1780D03*
X89950Y6404D03*
X89400Y6850D03*
X89000Y13250D03*
X89600Y17670D03*
X89330Y18540D03*
X90350Y30250D03*
X89250Y36970D03*
Y36700D03*
X89310Y35600D03*
X88691Y36841D03*
X90350Y36150D03*
X89750D03*
X90050D03*
X92600Y2500D03*
X90780Y2230D03*
X91850Y1780D03*
X92800Y6650D03*
X92500Y6050D03*
X91000Y14000D03*
X92000Y14700D03*
X91050Y18540D03*
X91300Y30250D03*
X91041Y36841D03*
X90950Y36400D03*
X93700Y2700D03*
X94000Y6800D03*
X94450Y8000D03*
X93000Y8200D03*
X92975Y12375D03*
X93500Y12800D03*
X95518Y7500D03*
X95182D03*
X96000Y14350D03*
X96600Y15100D03*
X98500Y8450D03*
X97900Y7800D03*
X98837Y8450D03*
X98500Y32000D03*
X97400Y32420D03*
X97700D03*
X98000D03*
X98650Y38200D03*
X98150Y38620D03*
X97550D03*
X97850D03*
X101040Y4550D03*
X99650Y7800D03*
X101000Y16300D03*
X101400Y18000D03*
X99900Y22350D03*
X101000Y21800D03*
X103700Y24000D03*
X105100Y23950D03*
X107600Y24000D03*
X109450Y8350D03*
X109705Y14475D03*
X109000Y23950D03*
X111730Y8050D03*
X112330Y9300D03*
Y11500D03*
X112045Y9615D03*
Y11085D03*
X113500Y10400D03*
X113860Y11690D03*
X112750Y10800D03*
X114200D03*
X112750Y10000D03*
X114200Y9950D03*
X113260Y11740D03*
X113740Y29700D03*
Y30650D03*
X116250Y9200D03*
X114530Y9300D03*
X115100Y10650D03*
X114915Y9965D03*
Y11045D03*
X114570Y11500D03*
X116290Y34580D03*
X116325Y36565D03*
X115900Y41530D03*
X116285Y40165D03*
X116850Y9200D03*
X116780Y34556D03*
X117680Y36560D03*
X117623Y37110D03*
X117880Y38110D03*
X118180D03*
X117630D03*
X117880Y38710D03*
X118130D03*
X117630D03*
X117600Y39660D03*
X117680Y40210D03*
X117203Y41427D03*
X119100Y12000D03*
X119600Y11850D03*
X119640Y30650D03*
Y30950D03*
X119890Y30050D03*
X120331Y29959D03*
X119640Y31250D03*
Y33000D03*
Y33300D03*
X119890Y32400D03*
X120331Y32309D03*
X120460Y31750D03*
X120190D03*
X119090Y31690D03*
X119640Y33600D03*
X120460Y34100D03*
X120190D03*
X119090Y34040D03*
X119771Y37360D03*
X119790Y35930D03*
X119300Y35980D03*
X120680Y38710D03*
Y38110D03*
X119750Y39530D03*
X119595Y38045D03*
X118865D03*
X119595Y38775D03*
X118865D03*
Y38410D03*
X119750Y40880D03*
X119180Y40860D03*
X132960Y8330D03*
X133215Y14455D03*
X132960Y29780D03*
X133215Y35905D03*
X135240Y8030D03*
X135840Y9280D03*
X135555Y9595D03*
Y11065D03*
X135840Y11480D03*
X135240Y29480D03*
X135555Y31045D03*
X135840Y30730D03*
X135555Y32515D03*
X135840Y32930D03*
X138040Y9280D03*
X137370Y11670D03*
X137710Y9930D03*
X136260Y9980D03*
X137710Y10780D03*
X136260D03*
X137010Y10380D03*
X138080Y11480D03*
X136770Y11720D03*
X138040Y30730D03*
X137370Y33120D03*
X137710Y31380D03*
X136260Y31430D03*
X137710Y32230D03*
X136260D03*
X137010Y31830D03*
X138080Y32930D03*
X136770Y33170D03*
X139760Y9180D03*
X140360D03*
X138425Y9945D03*
X138610Y10630D03*
X138425Y11025D03*
X139760Y30630D03*
X140360D03*
X138425Y31395D03*
X138610Y32080D03*
X138425Y32475D03*
X143110Y11830D03*
X142610Y11980D03*
X143110Y33280D03*
X142610Y33430D03*
G54D21*
G01X12250Y19400D02*
X12900D01*
X12938Y19438D01*
G01X22700Y20850D02*
X22640Y20910D01*
X12510D01*
X11950Y20350D01*
G01X23460Y20750D02*
Y20557D01*
X23440Y20537D01*
Y20363D01*
X23460Y20343D01*
Y19290D01*
G01X89600Y17670D02*
X82497D01*
X82299Y17472D01*
X82125D01*
X81927Y17670D01*
X81894D01*
X81887Y17663D01*
X81713D01*
X81706Y17670D01*
X75305D01*
X75275Y17700D01*
X62950D01*
X62440Y17190D01*
X59960D01*
X59400Y17750D01*
X57100D01*
G54D12*
X1050Y22700D03*
Y23100D03*
X6225Y6675D03*
X6650Y6250D03*
X6650Y13860D03*
X6200Y14300D03*
X7900Y22100D03*
X8100Y21900D03*
X7400Y21400D03*
X7750D03*
X8600Y20650D03*
X8000D03*
X8250Y24700D03*
X8500D03*
X10609Y20259D03*
X9094Y20650D03*
X9980Y24050D03*
X9844Y25194D03*
X12938Y19438D03*
X12900Y18850D03*
X11550Y20350D03*
X11950D03*
X13050Y21400D03*
X12700D03*
X12650Y22150D03*
X12450Y21950D03*
X12300Y24700D03*
X12000D03*
X13847Y10450D03*
X15200Y11803D03*
X14850D03*
X13600Y19438D03*
X13500Y18850D03*
X13800Y23250D03*
X16400Y3600D03*
X16750D03*
Y4100D03*
Y9050D03*
X16400Y8550D03*
X16750D03*
X16450Y11800D03*
X16800Y13950D03*
Y14550D03*
Y15050D03*
X16250Y23250D03*
X18700Y1800D03*
X17650Y4900D03*
X17800Y7350D03*
X17700Y10000D03*
X17800Y13100D03*
X17700Y15850D03*
X21673Y21850D03*
X21650Y21500D03*
X20900Y21750D03*
X21371Y22600D03*
X21400Y23800D03*
X20900Y23550D03*
X22150Y3500D03*
Y4200D03*
Y8450D03*
Y9150D03*
X23050Y10800D03*
X23600D03*
X22200Y14450D03*
Y15150D03*
X23672Y22072D03*
X21950Y21500D03*
X23800Y20900D03*
X24950Y5100D03*
X24900Y4225D03*
X25600Y4650D03*
X26100D03*
X24112Y10788D03*
X24350Y13168D03*
X25850Y11850D03*
X25400D03*
X24400Y14650D03*
Y14100D03*
X25850Y15180D03*
Y15490D03*
X24400Y19211D03*
Y19700D03*
X24600Y20800D03*
X24627Y21850D03*
X24650Y21500D03*
X24350D03*
X24050Y20650D03*
X27100Y4300D03*
X26636Y10400D03*
X26300D03*
X27700Y12614D03*
X26675Y12125D03*
X26164Y12100D03*
X26800Y13956D03*
X26350D03*
X28000Y13950D03*
X26350Y16794D03*
X26800D03*
X28000Y16800D03*
X28600Y15700D03*
Y15040D03*
X28912Y15476D03*
X28667Y27400D03*
X32000Y1600D03*
Y4650D03*
Y5050D03*
X31850Y13250D03*
X31200D03*
X31950Y15750D03*
X30950Y14750D03*
X31500Y16800D03*
X31600Y17200D03*
X30928Y24561D03*
X31950Y26050D03*
X30900Y25350D03*
X30833Y27450D03*
X34000Y4650D03*
X34500D03*
X33014Y4200D03*
X34214Y9450D03*
X34550D03*
X33020Y8470D03*
X33050Y13256D03*
X33775D03*
Y15706D03*
X33300Y15700D03*
X34100Y14500D03*
X34382Y14465D03*
X34493Y17007D03*
X34500Y17350D03*
X33300Y24600D03*
X33950Y25750D03*
X33050Y27453D03*
X32700D03*
X34300Y27450D03*
X35386Y5100D03*
Y4264D03*
X35380Y8430D03*
X36617Y27400D03*
X37350Y2400D03*
X38878Y24561D03*
X38850Y25350D03*
X37250Y27800D03*
X37950D03*
X38783Y27450D03*
X40700Y3600D03*
X39840Y6650D03*
X39440Y5950D03*
X40036Y8936D03*
X39564Y10350D03*
X40890Y11680D03*
X40740Y13350D03*
X40890Y15460D03*
Y15150D03*
X39900Y26050D03*
X41000Y26800D03*
X41700Y1250D03*
X42500Y3950D03*
X42250Y3700D03*
X41450Y3900D03*
X41440Y6650D03*
Y6150D03*
Y5600D03*
X42950Y6500D03*
X42090Y8280D03*
X42440D03*
X42890Y7630D03*
X41600Y10600D03*
X41750Y11550D03*
X41600Y13750D03*
X42450Y13400D03*
X42850Y14914D03*
X42875Y15925D03*
X42750Y14350D03*
X41650Y16950D03*
X41250Y24600D03*
X41900Y25750D03*
X41600Y26800D03*
X43710Y9000D03*
X43800Y17350D03*
X45150Y27800D03*
X44517Y27400D03*
X46600Y3350D03*
Y3950D03*
X47010Y6520D03*
X47610Y7990D03*
X47300Y9350D03*
X46550Y17900D03*
X46778Y24561D03*
X47650Y23400D03*
X46750Y25350D03*
X45850Y27800D03*
X46683Y27450D03*
X49100Y2900D03*
X49080Y3190D03*
X49070Y4290D03*
X49270D03*
X48600Y6310D03*
X49700Y6300D03*
X48170Y7640D03*
X49150Y24600D03*
X48200Y23400D03*
X49150Y25050D03*
X49194Y26400D03*
X47800Y26050D03*
X50170Y7640D03*
X50820Y7740D03*
X50050Y22550D03*
Y23050D03*
X58075Y24125D03*
X58100Y23150D03*
X58050Y25750D03*
X58450Y26150D03*
X64400Y400D03*
X64750Y2400D03*
X64150Y16900D03*
X63100Y23150D03*
X63075Y24125D03*
X63050Y25750D03*
X63450Y26150D03*
X68100Y23150D03*
X68075Y24125D03*
X68050Y25750D03*
X68450Y26150D03*
X69106Y34594D03*
X68600Y34050D03*
X69050Y37350D03*
X69600Y1425D03*
X70800Y3200D03*
X71150Y4850D03*
X69600Y10850D03*
X70550Y28150D03*
X71400Y34050D03*
X70800D03*
X70400D03*
X69300Y37350D03*
X70644Y38094D03*
X71550Y3650D03*
X71650Y18000D03*
Y21400D03*
X73100Y23150D03*
X73075Y24125D03*
X73050Y25750D03*
X73450Y26150D03*
X73500Y34050D03*
X73044Y34544D03*
X73100Y37350D03*
X72800D03*
X71456Y38094D03*
X74950Y4050D03*
X75400Y14500D03*
Y17940D03*
X75494Y34550D03*
X74150Y34000D03*
X73850D03*
X73873Y34350D03*
X77540Y660D03*
X77800Y3000D03*
X75900Y1425D03*
X76676Y3274D03*
X77200Y3850D03*
X76750Y6700D03*
X77200Y9100D03*
X77800Y9700D03*
X77844Y34600D03*
Y33406D03*
X76500Y34000D03*
X76200D03*
X76223Y34350D03*
X78000Y2100D03*
X78850Y4900D03*
X79300Y10200D03*
X78500Y13900D03*
X78350Y14950D03*
X79300Y16350D03*
X78250Y18300D03*
X80800Y7374D03*
X81456Y34594D03*
X80950Y34050D03*
X81400Y37350D03*
X81650D03*
X83350Y9700D03*
X83750Y10200D03*
X82245Y12845D03*
X82750Y34050D03*
X83150D03*
X83750D03*
X83806Y38094D03*
X82994D03*
X84600Y8700D03*
X84450Y12250D03*
X85394Y34544D03*
X85850Y34050D03*
X86500Y34000D03*
X86200D03*
X86223Y34350D03*
X85450Y37350D03*
X85150D03*
X88550Y34000D03*
X88573Y34350D03*
X87844Y34550D03*
X88850Y34000D03*
X90194Y34600D03*
Y33406D03*
X94023Y8977D03*
X94750Y9350D03*
X94450Y13900D03*
Y14600D03*
X96300Y9350D03*
X98400Y31550D03*
X98550Y37750D03*
X102250Y23400D03*
X103800Y24497D03*
X106580Y6950D03*
X106686Y8110D03*
X106376D03*
X107000Y8150D03*
X107080Y9330D03*
X107700Y24497D03*
X106150Y23400D03*
X107820Y32560D03*
Y32250D03*
X107720Y38500D03*
Y38810D03*
X109460Y7600D03*
X109780D03*
X109050Y8944D03*
X109344D03*
X108950Y31480D03*
X109350Y31550D03*
X109250Y37800D03*
X108850Y37730D03*
X111650Y23150D03*
X111625Y24125D03*
X112000Y26150D03*
X111600Y25750D03*
X115400Y23200D03*
X115375Y24175D03*
X115750Y26200D03*
X115350Y25800D03*
X116336Y37016D03*
Y38660D03*
Y38260D03*
Y39804D03*
X116896Y30806D03*
X118090D03*
X118040Y33156D03*
X117840Y32427D03*
X117490Y32450D03*
Y32150D03*
X119824Y12150D03*
X119930Y13450D03*
X119930Y13800D03*
X119100Y23200D03*
X119075Y24175D03*
X119450Y26200D03*
X119050Y25800D03*
X122950Y23200D03*
X122925Y24175D03*
X122900Y25800D03*
X123300Y26200D03*
X130090Y6930D03*
X130196Y8090D03*
X129886D03*
X130510Y8130D03*
X130590Y9310D03*
X130090Y28380D03*
X130196Y29540D03*
X129886D03*
X130510Y29580D03*
X130590Y30760D03*
X132560Y8924D03*
X132854D03*
X132970Y7580D03*
X133290D03*
X132970Y29030D03*
X133290D03*
X132560Y30374D03*
X132854D03*
X143440Y13430D03*
X143440Y13780D03*
X143334Y12130D03*
X143440Y34880D03*
X143440Y35230D03*
X143334Y33580D03*
G54D22*
G01X23620Y16250D02*
X23850D01*
X25100Y15000D01*
Y13650D01*
X25850Y12900D01*
Y12268D01*
X25860Y12258D01*
Y12042D01*
X25850Y12032D01*
Y11850D01*
G01X25090Y4195D02*
X24855D01*
X24885Y4225D01*
X24900D01*
G01X25850Y11850D02*
Y11350D01*
X25700Y11200D01*
Y10150D01*
X26630Y9220D01*
Y8462D01*
X26859Y8233D01*
Y7306D01*
X26859Y5815D01*
X26910Y5764D01*
Y5210D01*
X26800Y5100D01*
G01X25850Y11850D02*
X25400D01*
G01X27100Y4300D02*
Y4800D01*
X26800Y5100D01*
G01X33014Y4200D02*
Y3970D01*
X32434Y3390D01*
X28100D01*
X27190Y4300D01*
X27100D01*
G01X27700Y12614D02*
X27554D01*
X27408Y12760D01*
X27192D01*
X26675Y12243D01*
Y12125D01*
G01X34214Y9450D02*
Y8400D01*
X33914Y8100D01*
X33693D01*
X31890Y6297D01*
Y5244D01*
X32000Y5134D01*
Y5050D01*
G01X33000D02*
X33014Y5036D01*
Y4200D01*
G01X42850Y14914D02*
X42926Y14990D01*
X42958D01*
X43110Y15142D01*
Y15174D01*
X43800Y15864D01*
Y17350D01*
G01X47010Y6520D02*
X48414D01*
X48484Y6590D01*
X49410D01*
X49700Y6300D01*
G54D13*
G01X49100Y2900D02*
Y2100D01*
X48700Y1700D01*
Y1050D01*
X48200Y550D01*
X41350D01*
X41200Y700D01*
X36550D01*
X36150Y300D01*
X31200D01*
X31045Y455D01*
X11195D01*
X9550Y2100D01*
X6700D01*
X5375Y3425D01*
X1625D01*
X1050Y4000D01*
Y22250D01*
G01X32000Y25100D02*
X31300D01*
X31100Y24900D01*
X30500D01*
X29840Y24240D01*
X28017D01*
X27600Y24657D01*
G01X32000Y1600D02*
Y1450D01*
X32750Y700D01*
X34550D01*
X35235Y1385D01*
X37315D01*
X37500Y1200D01*
X41050D01*
X41350Y1500D01*
Y1900D01*
X42350Y2900D01*
X45050D01*
X46190Y4040D01*
Y7188D01*
X46634Y7633D01*
G01X35550Y24657D02*
X35093Y24200D01*
X33900D01*
X33650Y24450D01*
Y25350D01*
X33550Y25450D01*
X32350D01*
X32000Y25100D01*
G01X40000D02*
X39250D01*
X39100Y24950D01*
X38150D01*
X37440Y24240D01*
X35967D01*
X35550Y24657D01*
G01X40740Y13350D02*
X41200D01*
X41600Y13750D01*
G01X40750Y17200D02*
X41400D01*
X41650Y16950D01*
G01X43450Y24657D02*
X43013Y24220D01*
X41950D01*
X41650Y24520D01*
Y25250D01*
X41450Y25450D01*
X40550D01*
X40200Y25100D01*
X40000D01*
G01X41650Y16950D02*
X41800Y16800D01*
Y13950D01*
G01X42651Y17298D02*
X42749D01*
X42800Y17350D01*
X43800D01*
G01X47900Y25100D02*
X46967D01*
X46817Y24950D01*
X46050D01*
X45340Y24240D01*
X43867D01*
X43450Y24657D01*
G01X49450Y16050D02*
X46940D01*
X46440Y16550D01*
G01X49850Y20700D02*
Y20293D01*
X48800Y19243D01*
Y17800D01*
X49050Y17550D01*
X49450D01*
G01D02*
X49950D01*
G01Y16050D02*
X49450D01*
G01X49950Y16550D02*
X49450D01*
G01X115000Y36280D02*
X114000D01*
G01X115000D02*
X115050Y36330D01*
X115400D01*
X115650Y36580D01*
Y38830D01*
X115950Y39130D01*
X117210D01*
X117630Y38710D01*
G01X117880D02*
X117630D01*
G01X118130D02*
X117880D01*
X2124Y28900D03*
X1624D03*
X1124D03*
X624D03*
X3550Y2895D03*
X4124Y28900D03*
X3624D03*
X3124D03*
X2624D03*
X4750Y24305D03*
X6624Y28900D03*
X6124D03*
X5624D03*
X5124D03*
X4624D03*
X8624D03*
X8124D03*
X7624D03*
X7124D03*
X10624D03*
X10124D03*
X9624D03*
X9124D03*
X12624D03*
X12124D03*
X11624D03*
X11124D03*
X15124D03*
X14624D03*
X14124D03*
X13624D03*
X13124D03*
X17124D03*
X16624D03*
X16124D03*
X15624D03*
X19124D03*
X18624D03*
X18124D03*
X17624D03*
X21624D03*
X21124D03*
X20624D03*
X20124D03*
X19624D03*
X23624D03*
X23124D03*
X22624D03*
X22124D03*
X25624D03*
X25124D03*
X24624D03*
X24124D03*
X28124D03*
X27624D03*
X27124D03*
X26624D03*
X26124D03*
X30124D03*
X29624D03*
X29124D03*
X28624D03*
X32124D03*
X31624D03*
X31124D03*
X30624D03*
X34624D03*
X34124D03*
X33624D03*
X33124D03*
X32624D03*
X36624D03*
X36124D03*
X35624D03*
X35124D03*
X38624D03*
X38124D03*
X37624D03*
X37124D03*
X41124D03*
X40624D03*
X40124D03*
X39624D03*
X39124D03*
X43124D03*
X42624D03*
X42124D03*
X41624D03*
X45124D03*
X44624D03*
X44124D03*
X43624D03*
X47124D03*
X46624D03*
X46124D03*
X45624D03*
X49624D03*
X49124D03*
X48624D03*
X48124D03*
X47624D03*
X51624D03*
X51124D03*
X50624D03*
X50124D03*
X52135Y794D03*
Y294D03*
Y2794D03*
Y2294D03*
Y1794D03*
Y1294D03*
Y4794D03*
Y4294D03*
Y3794D03*
Y3294D03*
Y7294D03*
Y6794D03*
Y6294D03*
Y5794D03*
Y5294D03*
Y9294D03*
Y8794D03*
Y8294D03*
Y7794D03*
Y11294D03*
Y10794D03*
Y10294D03*
Y9794D03*
Y13794D03*
Y13294D03*
Y12794D03*
Y12294D03*
Y11794D03*
Y15794D03*
Y15294D03*
Y14794D03*
Y14294D03*
Y17794D03*
Y17294D03*
Y16794D03*
Y16294D03*
Y20294D03*
Y19794D03*
Y19294D03*
Y18794D03*
Y18294D03*
Y22294D03*
Y21794D03*
Y21294D03*
Y20794D03*
Y24294D03*
Y23794D03*
Y23294D03*
Y22794D03*
Y26794D03*
Y26294D03*
Y25794D03*
Y25294D03*
Y24794D03*
Y28294D03*
Y27794D03*
Y27294D03*
X53624Y28900D03*
X53124D03*
X52624D03*
X52124D03*
X56124D03*
X55624D03*
X55124D03*
X54624D03*
X54124D03*
X58124D03*
X57624D03*
X57124D03*
X56624D03*
X60124D03*
X59624D03*
X59124D03*
X58624D03*
X62624D03*
X62124D03*
X61624D03*
X61124D03*
X60624D03*
X64624D03*
X64124D03*
X63624D03*
X63124D03*
X66624D03*
X66124D03*
X65624D03*
X65124D03*
X69124D03*
X68624D03*
X68124D03*
X67624D03*
X67124D03*
X67495Y30474D03*
Y29474D03*
Y29974D03*
Y30974D03*
Y32474D03*
Y31474D03*
Y31974D03*
Y32974D03*
Y34474D03*
Y33474D03*
Y33974D03*
Y34974D03*
Y35974D03*
Y36474D03*
Y36974D03*
Y37474D03*
Y35474D03*
Y38974D03*
Y37974D03*
Y38474D03*
Y39474D03*
Y40974D03*
Y39974D03*
Y40474D03*
Y41474D03*
X71124Y28900D03*
X70624D03*
X70124D03*
X69624D03*
X73124D03*
X72624D03*
X72124D03*
X71624D03*
X75624D03*
X75124D03*
X74624D03*
X74124D03*
X73624D03*
X77624D03*
X77124D03*
X76624D03*
X76124D03*
X79624D03*
X79124D03*
X78624D03*
X78124D03*
X81624D03*
X81124D03*
X80624D03*
X80124D03*
X80155Y30544D03*
Y29544D03*
Y30044D03*
Y31044D03*
Y32544D03*
Y31544D03*
Y32044D03*
Y33044D03*
Y34544D03*
Y33544D03*
Y34044D03*
Y35044D03*
Y36044D03*
Y36544D03*
Y37044D03*
Y37544D03*
Y35544D03*
Y39044D03*
Y38044D03*
Y38544D03*
Y39544D03*
Y41044D03*
Y40044D03*
Y40544D03*
Y41544D03*
X84124Y28900D03*
X83624D03*
X83124D03*
X82624D03*
X82124D03*
X86124D03*
X85624D03*
X85124D03*
X84624D03*
X88124D03*
X87624D03*
X87124D03*
X86624D03*
X90624D03*
X90124D03*
X89624D03*
X89124D03*
X88624D03*
X92624D03*
X92124D03*
X91624D03*
X91124D03*
X92475Y30544D03*
Y29544D03*
Y30044D03*
Y31044D03*
Y32544D03*
Y31544D03*
Y32044D03*
Y33044D03*
Y34544D03*
Y33544D03*
Y34044D03*
Y35044D03*
Y36044D03*
Y36544D03*
Y37044D03*
Y37544D03*
Y35544D03*
Y39044D03*
Y38044D03*
Y38544D03*
Y39544D03*
Y41044D03*
Y40044D03*
Y40544D03*
Y41544D03*
X94624Y28900D03*
X94124D03*
X93624D03*
X93124D03*
X94694Y35640D03*
X94194D03*
X93694D03*
X93194D03*
X97124Y28900D03*
X96624D03*
X96124D03*
X95624D03*
X95124D03*
X97194Y35640D03*
X96694D03*
X96194D03*
X95694D03*
X95194D03*
X99124Y28900D03*
X98624D03*
X98124D03*
X97624D03*
X98694Y35640D03*
X98194D03*
X97694D03*
X99194D03*
X101124Y28900D03*
X100624D03*
X100124D03*
X99624D03*
X101194Y35640D03*
X100694D03*
X100194D03*
X99694D03*
X101885Y294D03*
Y794D03*
Y1294D03*
Y1794D03*
Y2294D03*
Y2794D03*
Y3294D03*
Y3794D03*
Y4294D03*
Y4794D03*
Y5794D03*
Y6294D03*
Y6794D03*
Y7294D03*
Y5294D03*
Y7794D03*
Y8294D03*
Y8794D03*
Y9294D03*
Y9794D03*
Y10294D03*
Y10794D03*
Y11294D03*
Y11794D03*
Y12294D03*
Y12794D03*
Y13294D03*
Y13794D03*
Y14294D03*
Y14794D03*
Y15294D03*
Y15794D03*
Y16294D03*
Y16794D03*
Y17294D03*
Y17794D03*
Y18294D03*
Y18794D03*
Y19294D03*
Y19794D03*
Y20294D03*
X103004Y21170D03*
X102504D03*
X103504D03*
X101885Y20794D03*
Y21294D03*
Y21794D03*
Y22294D03*
Y22794D03*
Y23294D03*
Y23794D03*
Y24294D03*
Y24794D03*
Y25294D03*
Y25794D03*
Y26294D03*
Y26794D03*
Y27294D03*
Y27794D03*
Y28294D03*
X103624Y28900D03*
X103124D03*
X102624D03*
X102124D03*
X101624D03*
X102945Y30444D03*
Y29444D03*
Y29944D03*
Y30944D03*
Y32444D03*
Y31444D03*
Y31944D03*
Y32944D03*
Y34444D03*
Y33444D03*
Y33944D03*
Y34944D03*
X102194Y35640D03*
X101694D03*
X102945Y35944D03*
Y36444D03*
Y36944D03*
Y37444D03*
Y35444D03*
Y38944D03*
Y37944D03*
Y38444D03*
Y39444D03*
Y40944D03*
Y39944D03*
Y40444D03*
Y41444D03*
X105705Y21804D03*
Y22304D03*
X105504Y21170D03*
X105004D03*
X104504D03*
X104004D03*
X105705Y22804D03*
Y23304D03*
Y23804D03*
Y24304D03*
Y24804D03*
Y25304D03*
Y25804D03*
Y26304D03*
Y26804D03*
Y27304D03*
Y27804D03*
Y28304D03*
X105624Y28900D03*
X105124D03*
X104624D03*
X104124D03*
X105694Y35640D03*
X105194D03*
X104694D03*
X104194D03*
X103694D03*
X107504Y21170D03*
X107004D03*
X106504D03*
X106004D03*
X107624Y28900D03*
X107124D03*
X106624D03*
X106124D03*
X107194Y35640D03*
X106694D03*
X106194D03*
X107694D03*
X109504Y21170D03*
X109004D03*
X108504D03*
X108004D03*
X110004D03*
X110124Y28900D03*
X109624D03*
X109124D03*
X108624D03*
X108124D03*
X109694Y35640D03*
X109194D03*
X108694D03*
X108194D03*
X112004Y21170D03*
X111504D03*
X111004D03*
X110504D03*
X112124Y28900D03*
X111624D03*
X111124D03*
X110624D03*
X112194Y35640D03*
X111694D03*
X111194D03*
X110694D03*
X110194D03*
X113455Y21824D03*
Y22324D03*
X114004Y21170D03*
X113504D03*
X113004D03*
X112504D03*
X113455Y22824D03*
Y23324D03*
Y23824D03*
Y24324D03*
Y24824D03*
Y25324D03*
Y25824D03*
Y26324D03*
Y27324D03*
Y27824D03*
Y28324D03*
Y26824D03*
X114124Y28900D03*
X113624D03*
X113124D03*
X112624D03*
X112845Y30944D03*
Y29944D03*
Y29444D03*
Y30444D03*
Y32944D03*
Y31944D03*
Y31444D03*
Y32444D03*
Y34944D03*
Y33944D03*
Y33444D03*
Y34444D03*
Y37444D03*
Y36944D03*
Y36444D03*
Y35944D03*
Y35444D03*
Y39444D03*
Y38444D03*
Y37944D03*
Y38944D03*
Y41444D03*
Y40444D03*
Y39944D03*
Y40944D03*
X116504Y21170D03*
X116004D03*
X115504D03*
X115004D03*
X114504D03*
X116124Y28900D03*
X115624D03*
X115124D03*
X114624D03*
X117205Y21814D03*
Y22314D03*
X118004Y21170D03*
X117504D03*
X117004D03*
X118504D03*
X117205Y22814D03*
Y23314D03*
Y23814D03*
Y24314D03*
Y24814D03*
Y25314D03*
Y25814D03*
Y26314D03*
Y27314D03*
Y27814D03*
Y28314D03*
Y26814D03*
X118624Y28900D03*
X118124D03*
X117624D03*
X117124D03*
X116624D03*
X120504Y21170D03*
X120004D03*
X119504D03*
X119004D03*
X120624Y28900D03*
X120124D03*
X119624D03*
X119124D03*
X120955Y21824D03*
Y22324D03*
X123004Y21170D03*
X122504D03*
X122004D03*
X121504D03*
X121004D03*
X120955Y22824D03*
Y23324D03*
Y23824D03*
Y24324D03*
Y24824D03*
Y25324D03*
Y25824D03*
Y26324D03*
Y27324D03*
Y27824D03*
Y28324D03*
Y26824D03*
X122624Y28900D03*
X122124D03*
X121624D03*
X121124D03*
X125095Y644D03*
Y1144D03*
Y2644D03*
Y2144D03*
Y1644D03*
Y3144D03*
Y5144D03*
Y4644D03*
Y4144D03*
Y3644D03*
Y5644D03*
Y7144D03*
Y6644D03*
Y6144D03*
Y7644D03*
Y9144D03*
Y8644D03*
Y8144D03*
Y9644D03*
Y11644D03*
Y11144D03*
Y10644D03*
Y10144D03*
Y12144D03*
Y13644D03*
Y13144D03*
Y12644D03*
X125125Y14784D03*
Y14284D03*
Y15784D03*
Y15284D03*
Y16784D03*
Y16284D03*
Y17784D03*
Y17284D03*
Y18784D03*
Y18284D03*
Y20284D03*
Y19784D03*
Y19284D03*
X124504Y21170D03*
X124004D03*
X123504D03*
X125124D03*
X125125Y22284D03*
Y21784D03*
Y23284D03*
Y22784D03*
Y24284D03*
Y23784D03*
Y25284D03*
Y24784D03*
Y26784D03*
Y26284D03*
Y25784D03*
X124624Y28900D03*
X124124D03*
X123624D03*
X123124D03*
X125125Y27784D03*
Y27284D03*
Y28784D03*
Y28284D03*
Y29784D03*
Y29284D03*
Y30784D03*
Y30284D03*
Y31784D03*
Y31284D03*
Y32784D03*
Y32284D03*
Y34284D03*
Y33784D03*
Y33284D03*
Y35284D03*
Y34784D03*
Y36284D03*
Y35784D03*
Y37284D03*
Y36784D03*
Y38284D03*
Y37784D03*
Y39284D03*
Y38784D03*
Y40784D03*
Y40284D03*
Y39784D03*
Y41784D03*
Y41284D03*
Y42284D03*
X127124Y21170D03*
X126624D03*
X126124D03*
X125624D03*
X127624D03*
X129124D03*
X128624D03*
X128124D03*
X129624D03*
X131624D03*
X131124D03*
X130624D03*
X130124D03*
X133624D03*
X133124D03*
X132624D03*
X132124D03*
X134124D03*
X135624D03*
X135124D03*
X134624D03*
X136124D03*
X138124D03*
X137624D03*
X137124D03*
X136624D03*
X140124D03*
X139624D03*
X139124D03*
X138624D03*
X142124D03*
X141624D03*
X141124D03*
X140624D03*
X142624D03*
X144624D03*
X144124D03*
X143624D03*
X143124D03*
X146624D03*
X146124D03*
X145624D03*
X145124D03*
X147624D03*
X147124D03*
G54D23*
G01X22750Y19000D02*
Y18270D01*
G01X65250Y8850D02*
X64750D01*
X63850Y7950D01*
Y4550D01*
X65950Y2450D01*
X78750D01*
X79900Y3600D01*
X99800D01*
X100300Y4100D01*
Y8220D01*
X99170Y9350D01*
X96300D01*
G54D14*
X2000Y30500D03*
Y40500D03*
X4340Y1200D03*
Y26000D03*
X25836Y2184D03*
Y24448D03*
X32500Y11600D03*
X50150Y1181D03*
Y11600D03*
Y27350D03*
X54250Y1181D03*
Y19619D03*
X60500Y11600D03*
X65000Y30500D03*
Y40500D03*
X81500Y1181D03*
Y19619D03*
X98500Y1181D03*
Y19619D03*
X104980Y1181D03*
Y19619D03*
X121980Y1181D03*
Y19619D03*
X128490Y1161D03*
Y19599D03*
Y22611D03*
Y41049D03*
X145490Y1161D03*
Y19599D03*
Y22611D03*
Y41049D03*
G54D24*
G01X1050Y22250D02*
Y22700D01*
G01D02*
Y23100D01*
G54D15*
X2300Y35110D03*
Y36300D03*
X8850Y4450D03*
X8550Y16800D03*
X10700Y10300D03*
X12450Y22950D03*
X26350Y27500D03*
X27700D03*
X33700Y2200D03*
X43633Y1400D03*
X45011D03*
X47767D03*
X46389D03*
X49600Y9500D03*
X48450D03*
X48100Y11650D03*
X50800Y9500D03*
X61740Y35031D03*
Y33653D03*
Y37787D03*
Y36409D03*
X71400Y32050D03*
Y40300D03*
X72400Y31050D03*
X73400D03*
X72400Y32050D03*
X73400D03*
X72400Y39300D03*
X73400D03*
X72400Y40300D03*
X73400D03*
X75700Y24800D03*
X74400Y31050D03*
X75400D03*
X74400Y32050D03*
X75400D03*
X74400Y39300D03*
X75400D03*
X74400Y40300D03*
X75400D03*
X76980Y24830D03*
X76400Y31050D03*
Y32050D03*
Y39300D03*
Y40300D03*
X78783Y26950D03*
X80161D03*
X81539D03*
X82917D03*
X83750Y32050D03*
Y40300D03*
X84950Y26500D03*
X85950Y25500D03*
Y26500D03*
X84750Y31050D03*
X85750D03*
X86750D03*
X84750Y32050D03*
X85750D03*
X86750D03*
X84750Y39300D03*
X85750D03*
X86750D03*
X84750Y40300D03*
X85750D03*
X86750D03*
X86950Y25500D03*
Y26500D03*
X87950Y25500D03*
Y26500D03*
X87750Y31050D03*
X88750D03*
X87750Y32050D03*
X88750D03*
X87750Y39300D03*
X88750D03*
X87750Y40300D03*
X88750D03*
X89800Y26500D03*
X90800Y25500D03*
Y26500D03*
X91800Y25500D03*
Y26500D03*
X92800Y25500D03*
Y26500D03*
X94500D03*
X93750Y30850D03*
X94750D03*
X93750Y32850D03*
X94750D03*
X93750Y31850D03*
X94750D03*
Y33850D03*
X93900Y37050D03*
X94900D03*
Y40050D03*
X93900Y39050D03*
X94900D03*
X93900Y38050D03*
X94900D03*
X95500Y25500D03*
Y26500D03*
X96500Y25500D03*
Y26500D03*
X98461Y25900D03*
X99839D03*
X104000Y37150D03*
Y39150D03*
Y38150D03*
X104100Y30900D03*
X105100D03*
X104100Y32900D03*
X105100D03*
X104100Y31900D03*
X105100D03*
Y33900D03*
X105000Y37150D03*
Y39150D03*
Y38150D03*
Y40150D03*
X114000Y33280D03*
Y32280D03*
Y35280D03*
Y34280D03*
Y36280D03*
X115000Y33280D03*
Y32280D03*
Y35280D03*
Y34280D03*
Y37280D03*
Y36280D03*
X122790Y33250D03*
Y32250D03*
Y35250D03*
Y34250D03*
Y36250D03*
X123790Y33250D03*
Y32250D03*
Y35250D03*
Y34250D03*
Y37250D03*
Y36250D03*
G54D25*
G01X2124Y22674D02*
X2300Y22850D01*
G01X2124Y23026D02*
X2300Y22850D01*
G01X2624Y22174D02*
X2800Y22350D01*
G01D02*
X2976Y22526D01*
G01X2624D02*
X2800Y22350D01*
G01D02*
X2976Y22174D01*
G01X2624Y21174D02*
X2800Y21350D01*
G01D02*
X2976Y21526D01*
G01X2624D02*
X2800Y21350D01*
G01D02*
X2976Y21174D01*
G01X2624Y23174D02*
X2800Y23350D01*
G01D02*
X2976Y23526D01*
G01X2624D02*
X2800Y23350D01*
G01D02*
X2976Y23174D01*
G01X2300Y22850D02*
X2476Y23026D01*
G01X2300Y22850D02*
X2476Y22674D01*
G01X6430Y6250D02*
X6650D01*
G01X6225Y6455D02*
Y6675D01*
G01D02*
Y6895D01*
G01X6005Y6675D02*
X6225D01*
G01D02*
X6445D01*
G01X6200Y14080D02*
Y14300D01*
G01D02*
Y14520D01*
G01X5980Y14300D02*
X6200D01*
G01D02*
X6420D01*
G01X6430Y13860D02*
X6650D01*
G01X6650Y6030D02*
Y6250D01*
G01D02*
X6870D01*
G01X6650Y13640D02*
Y13860D01*
G01D02*
Y14080D01*
G01Y13860D02*
X6870D01*
G01X8000Y20430D02*
Y20650D01*
G01D02*
Y20870D01*
G01X7780Y20650D02*
X8000D01*
G01D02*
X8220D01*
G01X8600Y20430D02*
Y20650D01*
G01D02*
Y20870D01*
G01X8380Y20650D02*
X8600D01*
G01D02*
X8820D01*
G01X10700Y7700D02*
X10900D01*
G01X10700Y15650D02*
X10900D01*
G01X10609Y20039D02*
Y20259D01*
G01D02*
Y20480D01*
G01X10389Y20259D02*
X10609D01*
G01D02*
X10830D01*
G01X9094Y20650D02*
Y20870D01*
G01X8874Y20650D02*
X9094D01*
G01D02*
X9314D01*
G01X12800Y6050D02*
Y6250D01*
G01D02*
Y6450D01*
G01X12600Y6250D02*
X12800D01*
G01D02*
X13000D01*
G01X12800Y6950D02*
Y7150D01*
G01D02*
Y7350D01*
G01X12600Y7150D02*
X12800D01*
G01D02*
X13000D01*
G01X12350Y6500D02*
Y6700D01*
G01D02*
Y6900D01*
G01X12150Y6700D02*
X12350D01*
G01D02*
X12550D01*
G01X11900Y6050D02*
Y6250D01*
G01D02*
Y6450D01*
G01X11700Y6250D02*
X11900D01*
G01D02*
X12100D01*
G01X11900Y6950D02*
Y7150D01*
G01D02*
Y7350D01*
G01X11700Y7150D02*
X11900D01*
G01D02*
X12100D01*
G01X11858Y8660D02*
Y8860D01*
G01X11658Y8660D02*
X11858D01*
G01D02*
X12058D01*
G01X11858Y8200D02*
Y8400D01*
G01X11658D02*
X11858D01*
G01D02*
X12058D01*
G01X11300Y7498D02*
Y7698D01*
G01D02*
Y7899D01*
G01Y7698D02*
X11500D01*
G01X10900Y7500D02*
Y7700D01*
G01D02*
Y7900D01*
G01X12800Y14900D02*
Y15100D01*
G01D02*
Y15300D01*
G01X12600Y15100D02*
X12800D01*
G01D02*
X13000D01*
G01X11300Y15448D02*
Y15648D01*
G01D02*
Y15848D01*
G01Y15648D02*
X11500D01*
G01X11900Y14900D02*
Y15100D01*
G01D02*
Y15300D01*
G01X11700Y15100D02*
X11900D01*
G01D02*
X12100D01*
G01X12800Y14000D02*
Y14200D01*
G01D02*
Y14400D01*
G01X12600Y14200D02*
X12800D01*
G01D02*
X13000D01*
G01X12350Y14450D02*
Y14650D01*
G01D02*
Y14850D01*
G01X12150Y14650D02*
X12350D01*
G01D02*
X12550D01*
G01X11900Y14000D02*
Y14200D01*
G01D02*
Y14400D01*
G01X11700Y14200D02*
X11900D01*
G01D02*
X12100D01*
G01X10900Y15450D02*
Y15650D01*
G01D02*
Y15850D01*
G01X11858Y16150D02*
Y16350D01*
G01X11658D02*
X11858D01*
G01D02*
X12058D01*
G01X11858Y16610D02*
Y16810D01*
G01X11658Y16610D02*
X11858D01*
G01D02*
X12058D01*
G01X11950Y20130D02*
Y20350D01*
G01X11550Y20130D02*
Y20350D01*
G01X11950D02*
Y20570D01*
G01Y20350D02*
X12170D01*
G01X11550D02*
Y20570D01*
G01X11330Y20350D02*
X11550D01*
G01X19350Y3848D02*
X19550D01*
G01X19050Y3650D02*
Y3850D01*
G01D02*
Y4050D01*
G01X18850Y3850D02*
X19050D01*
G01D02*
X19250D01*
G01X19050Y8600D02*
Y8800D01*
G01D02*
Y9000D01*
G01X19381Y8598D02*
Y8798D01*
G01D02*
Y8999D01*
G01X19450Y14798D02*
X19650D01*
G01X19100Y14600D02*
Y14800D01*
G01D02*
Y15000D01*
G01X18900Y14800D02*
X19100D01*
G01D02*
X19300D01*
G01X20230Y2950D02*
Y3150D01*
G01X20030D02*
X20230D01*
G01D02*
X20430D01*
G01X20230Y3550D02*
Y3750D01*
G01X20030Y3550D02*
X20230D01*
G01D02*
X20430D01*
G01X20250Y4400D02*
Y4600D01*
G01D02*
Y4800D01*
G01X20050Y4600D02*
X20250D01*
G01D02*
X20450D01*
G01X20230Y3950D02*
Y4150D01*
G01D02*
Y4350D01*
G01X20030Y4150D02*
X20230D01*
G01D02*
X20430D01*
G01X19550Y3648D02*
Y3848D01*
G01D02*
Y4049D01*
G01X20230Y8500D02*
Y8700D01*
G01Y8500D02*
X20430D01*
G01X20230Y9450D02*
Y9650D01*
G01Y9450D02*
X20430D01*
G01X20230Y8900D02*
Y9100D01*
G01D02*
X20430D01*
G01X19700Y8600D02*
Y8800D01*
G01D02*
Y9000D01*
G01Y8800D02*
X19900D01*
G01X20280Y13800D02*
Y14000D01*
G01X19650Y14598D02*
Y14798D01*
G01D02*
Y14999D01*
G01Y14798D02*
X19850D01*
G01X20080Y15470D02*
X20280D01*
G01D02*
X20480D01*
G01X20280Y14900D02*
Y15100D01*
G01D02*
X20480D01*
G01X20280Y14300D02*
Y14500D01*
G01D02*
Y14700D01*
G01Y14500D02*
X20480D01*
G01X20280Y14000D02*
Y14200D01*
G01X20080Y14000D02*
X20280D01*
G01D02*
X20480D01*
G01X21371Y22380D02*
Y22600D01*
G01X20900Y21530D02*
Y21750D01*
G01D02*
Y21970D01*
G01X20680Y21750D02*
X20900D01*
G01D02*
X21120D01*
G01X20900Y23330D02*
Y23550D01*
G01D02*
Y23770D01*
G01X20680Y23550D02*
X20900D01*
G01D02*
X21120D01*
G01X21400Y23580D02*
Y23800D01*
G01X21180D02*
X21400D01*
G01D02*
X21620D01*
G01X21371Y22600D02*
Y22820D01*
G01X21151Y22600D02*
X21371D01*
G01D02*
X21591D01*
G01X23600Y10580D02*
Y10800D01*
G01D02*
Y11020D01*
G01X23380Y10800D02*
X23600D01*
G01D02*
X23820D01*
G01X23050Y10580D02*
Y10800D01*
G01D02*
Y11020D01*
G01Y10800D02*
X23270D01*
G01X23450Y23450D02*
Y23650D01*
G01D02*
Y23850D01*
G01X23250Y23650D02*
X23450D01*
G01D02*
X23650D01*
G01X22850Y23450D02*
Y23650D01*
G01D02*
Y23850D01*
G01X22650Y23650D02*
X22850D01*
G01D02*
X23050D01*
G01X24900Y4005D02*
Y4225D01*
G01D02*
Y4445D01*
G01Y4225D02*
X25120D01*
G01X24950Y4880D02*
Y5100D01*
G01D02*
Y5320D01*
G01X24730Y5100D02*
X24950D01*
G01D02*
X25170D01*
G01X24112Y10567D02*
Y10788D01*
G01D02*
Y11008D01*
G01X23892Y10788D02*
X24112D01*
G01D02*
X24333D01*
G01X24350Y12948D02*
Y13168D01*
G01D02*
Y13388D01*
G01X24130Y13168D02*
X24350D01*
G01D02*
X24570D01*
G01X24400Y14100D02*
Y14320D01*
G01X24180Y14100D02*
X24400D01*
G01D02*
X24620D01*
G01X24400Y14430D02*
Y14650D01*
G01D02*
Y14870D01*
G01X24180Y14650D02*
X24400D01*
G01D02*
X24620D01*
G01X26350Y13736D02*
Y13956D01*
G01X26800Y13736D02*
Y13956D01*
G01X26350D02*
Y14176D01*
G01X26130Y13956D02*
X26350D01*
G01D02*
X26570D01*
G01X26800D02*
Y14176D01*
G01X26580Y13956D02*
X26800D01*
G01D02*
X27020D01*
G01X26800Y16574D02*
Y16794D01*
G01D02*
Y17014D01*
G01X26580Y16794D02*
X26800D01*
G01D02*
X27020D01*
G01X26350Y16574D02*
Y16794D01*
G01D02*
Y17014D01*
G01X26130Y16794D02*
X26350D01*
G01D02*
X26570D01*
G01X27550Y25100D02*
Y25300D01*
G01D02*
Y25500D01*
G01X27350Y25300D02*
X27550D01*
G01D02*
X27750D01*
G01X32000Y24300D02*
Y24500D01*
G01D02*
Y24700D01*
G01X31800Y24500D02*
X32000D01*
G01D02*
X32200D01*
G01X34590Y5390D02*
X34790D01*
G01X33775Y13036D02*
Y13256D01*
G01D02*
Y13476D01*
G01X33554Y13256D02*
X33775D01*
G01D02*
X33995D01*
G01X33050Y13036D02*
Y13256D01*
G01D02*
Y13476D01*
G01X32830Y13256D02*
X33050D01*
G01D02*
X33270D01*
G01X33300Y15700D02*
Y15920D01*
G01X33080Y15700D02*
X33300D01*
G01D02*
X33520D01*
G01X33775Y15486D02*
Y15706D01*
G01D02*
Y15927D01*
G01X33554Y15706D02*
X33775D01*
G01D02*
X33995D01*
G01X35386Y4043D02*
Y4264D01*
G01D02*
Y4484D01*
G01X35166Y4264D02*
X35386D01*
G01D02*
X35607D01*
G01X35386Y4880D02*
Y5100D01*
G01D02*
Y5320D01*
G01X35166Y5100D02*
X35386D01*
G01D02*
X35607D01*
G01X34790Y5190D02*
Y5390D01*
G01D02*
Y5590D01*
G01Y5390D02*
X34990D01*
G01X35500Y25100D02*
Y25300D01*
G01D02*
Y25500D01*
G01X35300Y25300D02*
X35500D01*
G01D02*
X35700D01*
G01X39564Y10130D02*
Y10350D01*
G01D02*
Y10570D01*
G01X39343Y10350D02*
X39564D01*
G01D02*
X39784D01*
G01X39950Y24400D02*
Y24600D01*
G01X41000Y26580D02*
Y26800D01*
G01X39950Y24600D02*
Y24800D01*
G01X39750Y24600D02*
X39950D01*
G01D02*
X40150D01*
G01X41000Y26800D02*
Y27020D01*
G01X40780Y26800D02*
X41000D01*
G01D02*
X41220D01*
G01X41440Y5380D02*
Y5600D01*
G01D02*
Y5820D01*
G01X41220Y5600D02*
X41440D01*
G01D02*
X41660D01*
G01X41440Y5930D02*
Y6150D01*
G01D02*
Y6370D01*
G01X41220Y6150D02*
X41440D01*
G01D02*
X41660D01*
G01X41440Y6430D02*
Y6650D01*
G01D02*
Y6870D01*
G01X41220Y6650D02*
X41440D01*
G01D02*
X41660D01*
G01X42450Y13180D02*
Y13400D01*
G01D02*
Y13620D01*
G01X42230Y13400D02*
X42450D01*
G01D02*
X42670D01*
G01X43200Y25300D02*
X43400D01*
G01X41600Y26580D02*
Y26800D01*
G01D02*
Y27020D01*
G01X41380Y26800D02*
X41600D01*
G01D02*
X41820D01*
G01X43400Y25100D02*
Y25300D01*
G01D02*
Y25500D01*
G01Y25300D02*
X43600D01*
G01X47430Y23400D02*
X47650D01*
G01X48200Y23180D02*
Y23400D01*
G01D02*
Y23620D01*
G01X47980Y23400D02*
X48200D01*
G01D02*
X48420D01*
G01X47850Y24400D02*
Y24600D01*
G01X47650Y23180D02*
Y23400D01*
G01D02*
Y23620D01*
G01Y23400D02*
X47870D01*
G01X47850Y24600D02*
Y24800D01*
G01X47650Y24600D02*
X47850D01*
G01D02*
X48050D01*
G01X70780Y36700D02*
Y36900D01*
G01D02*
Y37100D01*
G01X70580Y36900D02*
X70780D01*
G01X71236Y38094D02*
X71456D01*
G01X70644Y37874D02*
Y38094D01*
G01D02*
Y38314D01*
G01X70424Y38094D02*
X70644D01*
G01D02*
X70864D01*
G01X71118Y39018D02*
X71400Y39300D01*
G01X71118Y39582D02*
X71400Y39300D01*
G01X71083Y39983D02*
X71400Y40300D01*
G01X71083Y40617D02*
X71400Y40300D01*
G01X71320Y36700D02*
Y36900D01*
G01D02*
Y37100D01*
G01Y36900D02*
X71520D01*
G01X71456Y37874D02*
Y38094D01*
G01D02*
Y38314D01*
G01Y38094D02*
X71676D01*
G01X71400Y39300D02*
X71682Y39582D01*
G01X71400Y39300D02*
X71682Y39018D01*
G01X71400Y40300D02*
X71717Y40617D01*
G01X71400Y40300D02*
X71717Y39983D01*
G01X75350Y35950D02*
Y36150D01*
G01D02*
Y36350D01*
G01X75050Y35950D02*
Y36150D01*
G01D02*
Y36350D01*
G01X74850Y36150D02*
X75050D01*
G01X75083Y38983D02*
X75400Y39300D01*
G01D02*
X75717Y39617D01*
G01X75083D02*
X75400Y39300D01*
G01D02*
X75717Y38983D01*
G01X75083Y39983D02*
X75400Y40300D01*
G01D02*
X75717Y40617D01*
G01X75083D02*
X75400Y40300D01*
G01D02*
X75717Y39983D01*
G01X75650Y35950D02*
Y36150D01*
G01D02*
Y36350D01*
G01X77400Y35950D02*
Y36150D01*
G01D02*
Y36350D01*
G01X77200Y36150D02*
X77400D01*
G01X77700Y35950D02*
Y36150D01*
G01D02*
Y36350D01*
G01X78000Y35950D02*
Y36150D01*
G01D02*
Y36350D01*
G01Y36150D02*
X78200D01*
G01X83670Y36700D02*
Y36900D01*
G01D02*
Y37100D01*
G01Y36900D02*
X83870D01*
G01X83130Y36700D02*
Y36900D01*
G01D02*
Y37100D01*
G01X82930Y36900D02*
X83130D01*
G01X83806Y37874D02*
Y38094D01*
G01X83586D02*
X83806D01*
G01D02*
X84026D01*
G01X82994Y37874D02*
Y38094D01*
G01D02*
Y38314D01*
G01X82774Y38094D02*
X82994D01*
G01D02*
X83214D01*
G01X83468Y39018D02*
X83750Y39300D01*
G01D02*
X84032Y39582D01*
G01X83468D02*
X83750Y39300D01*
G01D02*
X84032Y39018D01*
G01X83433Y39983D02*
X83750Y40300D01*
G01D02*
X84067Y40617D01*
G01X83433D02*
X83750Y40300D01*
G01D02*
X84067Y39983D01*
G01X87400Y35950D02*
Y36150D01*
G01D02*
Y36350D01*
G01X87200Y36150D02*
X87400D01*
G01X87700Y35950D02*
Y36150D01*
G01D02*
Y36350D01*
G01X88000Y35950D02*
Y36150D01*
G01D02*
Y36350D01*
G01X87433Y38983D02*
X87750Y39300D01*
G01D02*
X88067Y39617D01*
G01X87433D02*
X87750Y39300D01*
G01D02*
X88067Y38983D01*
G01X87433Y39983D02*
X87750Y40300D01*
G01D02*
X88067Y40617D01*
G01X87433D02*
X87750Y40300D01*
G01D02*
X88067Y39983D01*
G01X90050Y35950D02*
Y36150D01*
G01D02*
Y36350D01*
G01X89750Y35950D02*
Y36150D01*
G01D02*
Y36350D01*
G01X89550Y36150D02*
X89750D01*
G01X90350Y35950D02*
Y36150D01*
G01D02*
Y36350D01*
G01Y36150D02*
X90550D01*
G01X93433Y30533D02*
X93750Y30850D01*
G01D02*
X94067Y31167D01*
G01X93433D02*
X93750Y30850D01*
G01D02*
X94067Y30533D01*
G01X93468Y33568D02*
X93750Y33850D01*
G01D02*
X94032Y34132D01*
G01X93468D02*
X93750Y33850D01*
G01D02*
X94032Y33568D01*
G01X93583Y36733D02*
X93900Y37050D01*
G01D02*
X94217Y37367D01*
G01X93583D02*
X93900Y37050D01*
G01D02*
X94217Y36733D01*
G01X93618Y39768D02*
X93900Y40050D01*
G01D02*
X94182Y40332D01*
G01X93618D02*
X93900Y40050D01*
G01D02*
X94182Y39768D01*
G01X98500Y31800D02*
Y32000D01*
G01D02*
Y32200D01*
G01Y32000D02*
X98700D01*
G01X98400Y31330D02*
Y31550D01*
G01D02*
Y31770D01*
G01Y31550D02*
X98620D01*
G01X98000Y32220D02*
Y32420D01*
G01D02*
Y32620D01*
G01X97700Y32220D02*
Y32420D01*
G01D02*
Y32620D01*
G01X97400Y32220D02*
Y32420D01*
G01D02*
Y32620D01*
G01X97200Y32420D02*
X97400D01*
G01X98550Y37530D02*
Y37750D01*
G01D02*
Y37970D01*
G01Y37750D02*
X98770D01*
G01X98650Y38000D02*
Y38200D01*
G01D02*
Y38400D01*
G01Y38200D02*
X98850D01*
G01X97850Y38420D02*
Y38620D01*
G01D02*
Y38820D01*
G01X97550Y38420D02*
Y38620D01*
G01D02*
Y38820D01*
G01X97350Y38620D02*
X97550D01*
G01X98150Y38420D02*
Y38620D01*
G01D02*
Y38820D01*
G01X103783Y30583D02*
X104100Y30900D01*
G01D02*
X104417Y31217D01*
G01X103783D02*
X104100Y30900D01*
G01D02*
X104417Y30583D01*
G01X103818Y33618D02*
X104100Y33900D01*
G01D02*
X104382Y34182D01*
G01X103818D02*
X104100Y33900D01*
G01D02*
X104382Y33618D01*
G01X103683Y36833D02*
X104000Y37150D01*
G01D02*
X104317Y37467D01*
G01X103683D02*
X104000Y37150D01*
G01D02*
X104317Y36833D01*
G01X103718Y39868D02*
X104000Y40150D01*
G01D02*
X104282Y40432D01*
G01X103718D02*
X104000Y40150D01*
G01D02*
X104282Y39868D01*
G01X107820Y32030D02*
Y32250D01*
G01X107600D02*
X107820D01*
G01D02*
X108040D01*
G01X107600Y32560D02*
X107820D01*
G01D02*
X108040D01*
G01X107500Y38810D02*
X107720D01*
G01D02*
X107940D01*
G01X107720Y38280D02*
Y38500D01*
G01X107500D02*
X107720D01*
G01D02*
X107940D01*
G01X109350Y31330D02*
Y31550D01*
G01D02*
Y31770D01*
G01Y31550D02*
X109570D01*
G01X108950Y31260D02*
Y31480D01*
G01D02*
Y31700D01*
G01X108850Y37510D02*
Y37730D01*
G01D02*
Y37950D01*
G01X109250Y37580D02*
Y37800D01*
G01D02*
Y38020D01*
G01Y37800D02*
X109470D01*
G01X119440Y30950D02*
X119640D01*
G01D02*
X119840D01*
G01X119640Y30450D02*
Y30650D01*
G01X119440D02*
X119640D01*
G01D02*
X119840D01*
G01X119640Y31250D02*
Y31450D01*
G01X119440Y31250D02*
X119640D01*
G01D02*
X119840D01*
G01X119440Y33000D02*
X119640D01*
G01D02*
X119840D01*
G01X119640Y33600D02*
Y33800D01*
G01X119440Y33600D02*
X119640D01*
G01D02*
X119840D01*
G01X119440Y33300D02*
X119640D01*
G01D02*
X119840D01*
G01X122473Y32933D02*
X122790Y33250D01*
G01D02*
X123107Y33567D01*
G01X122473D02*
X122790Y33250D01*
G01D02*
X123107Y32933D01*
G01X123473D02*
X123790Y33250D01*
G01D02*
X124107Y33567D01*
G01X123473D02*
X123790Y33250D01*
G01D02*
X124107Y32933D01*
G54D16*
X6500Y33050D03*
Y32550D03*
Y38550D03*
Y38050D03*
X8500Y33050D03*
Y32550D03*
X8000Y33050D03*
Y32550D03*
X7500Y33050D03*
Y32550D03*
X7000Y33050D03*
Y32550D03*
X8500Y38550D03*
Y38050D03*
X8000Y38550D03*
Y38050D03*
X7500Y38550D03*
Y38050D03*
X7000Y38550D03*
Y38050D03*
X11000Y33050D03*
Y32550D03*
X10500Y33050D03*
Y32550D03*
X10000Y33050D03*
Y32550D03*
X9500Y33050D03*
Y32550D03*
X9000Y33050D03*
Y32550D03*
X11000Y38550D03*
Y38050D03*
X10500Y38550D03*
Y38050D03*
X10000Y38550D03*
Y38050D03*
X9500Y38550D03*
Y38050D03*
X9000Y38550D03*
Y38050D03*
X13000Y33050D03*
Y32550D03*
X12500Y33050D03*
Y32550D03*
X12000Y33050D03*
Y32550D03*
X11500Y33050D03*
Y32550D03*
X13000Y38550D03*
Y38050D03*
X12500Y38550D03*
Y38050D03*
X12000Y38550D03*
Y38050D03*
X11500Y38550D03*
Y38050D03*
X15000Y33050D03*
Y32550D03*
X14500Y33050D03*
Y32550D03*
X14000Y33050D03*
Y32550D03*
X13500Y33050D03*
Y32550D03*
X15000Y38550D03*
Y38050D03*
X14500Y38550D03*
Y38050D03*
X14000Y38550D03*
Y38050D03*
X13500Y38550D03*
Y38050D03*
X17500Y33050D03*
Y32550D03*
X17000Y33050D03*
Y32550D03*
X16500Y33050D03*
Y32550D03*
X16000Y33050D03*
Y32550D03*
X15500Y33050D03*
Y32550D03*
X17500Y38550D03*
Y38050D03*
X17000Y38550D03*
Y38050D03*
X16500Y38550D03*
Y38050D03*
X16000Y38550D03*
Y38050D03*
X15500Y38550D03*
Y38050D03*
X18500Y33050D03*
Y32550D03*
X18000Y33050D03*
Y32550D03*
X18500Y38550D03*
Y38050D03*
X18000Y38550D03*
Y38050D03*
X25050Y27580D03*
X26000Y33050D03*
Y32550D03*
X25500Y33050D03*
Y32550D03*
X26000Y38550D03*
Y38050D03*
X25500Y38550D03*
Y38050D03*
X28000Y33050D03*
Y32550D03*
X27500Y33050D03*
Y32550D03*
X27000Y33050D03*
Y32550D03*
X26500Y33050D03*
Y32550D03*
X28000Y38550D03*
Y38050D03*
X27500Y38550D03*
Y38050D03*
X27000Y38550D03*
Y38050D03*
X26500Y38550D03*
Y38050D03*
X30250Y4350D03*
X29750D03*
X30250Y4850D03*
X29750D03*
X30250Y5350D03*
X29750D03*
X30250Y5850D03*
X29750D03*
X30250Y6350D03*
X29750D03*
X30250Y6850D03*
X29750D03*
X30250Y7350D03*
X29750D03*
X30250Y7850D03*
X29750D03*
X30250Y8350D03*
X29750D03*
X30250Y8850D03*
X29750D03*
X30250Y9350D03*
X29750D03*
X30250Y9850D03*
X29750D03*
X30250Y10350D03*
X29750D03*
X30250Y10850D03*
X29750D03*
X30250Y11350D03*
X29750D03*
X30250Y11850D03*
X29750D03*
X30250Y12350D03*
X29750D03*
X30250Y12850D03*
X29750D03*
X30250Y13350D03*
X29750D03*
X30250Y13850D03*
X29750D03*
X30250Y14350D03*
X29750D03*
X30250Y14850D03*
X29750D03*
X30250Y15350D03*
X29750D03*
X30250Y15850D03*
X29750D03*
X30250Y16350D03*
X29750D03*
X30500Y33050D03*
Y32550D03*
X30000Y33050D03*
Y32550D03*
X29500Y33050D03*
Y32550D03*
X29000Y33050D03*
Y32550D03*
X28500Y33050D03*
Y32550D03*
X30500Y38550D03*
Y38050D03*
X30000Y38550D03*
Y38050D03*
X29500Y38550D03*
Y38050D03*
X29000Y38550D03*
Y38050D03*
X28500Y38550D03*
Y38050D03*
X32500Y33050D03*
Y32550D03*
X32000Y33050D03*
Y32550D03*
X31500Y33050D03*
Y32550D03*
X31000Y33050D03*
Y32550D03*
X32500Y38550D03*
Y38050D03*
X32000Y38550D03*
Y38050D03*
X31500Y38550D03*
Y38050D03*
X31000Y38550D03*
Y38050D03*
X34500Y33050D03*
Y32550D03*
X34000Y33050D03*
Y32550D03*
X33500Y33050D03*
Y32550D03*
X33000Y33050D03*
Y32550D03*
X34500Y38550D03*
Y38050D03*
X34000Y38550D03*
Y38050D03*
X33500Y38550D03*
Y38050D03*
X33000Y38550D03*
Y38050D03*
X34980Y27350D03*
X37000Y33050D03*
Y32550D03*
X36500Y33050D03*
Y32550D03*
X36000Y33050D03*
Y32550D03*
X35500Y33050D03*
Y32550D03*
X35000Y33050D03*
Y32550D03*
X37000Y38550D03*
Y38050D03*
X36500Y38550D03*
Y38050D03*
X36000Y38550D03*
Y38050D03*
X35500Y38550D03*
Y38050D03*
X35000Y38550D03*
Y38050D03*
X37750Y4350D03*
X37250D03*
X37750Y4850D03*
X37250D03*
X37750Y5350D03*
X37250D03*
X37750Y5850D03*
X37250D03*
X37750Y6350D03*
X37250D03*
X37750Y6850D03*
X37250D03*
X37750Y7350D03*
X37250D03*
X37750Y7850D03*
X37250D03*
X37750Y8350D03*
X37250D03*
X37750Y8850D03*
X37250D03*
X37750Y9350D03*
X37250D03*
X37750Y9850D03*
X37250D03*
X37750Y10350D03*
X37250D03*
X37750Y10850D03*
X37250D03*
X37750Y11350D03*
X37250D03*
X37750Y11850D03*
X37250D03*
X37750Y12350D03*
X37250D03*
X37750Y12850D03*
X37250D03*
X37750Y13350D03*
X37250D03*
X37750Y13850D03*
X37250D03*
X37750Y14350D03*
X37250D03*
X37750Y14850D03*
X37250D03*
X37750Y15350D03*
X37250D03*
X37750Y15850D03*
X37250D03*
X37750Y16350D03*
X37250D03*
X37500Y33050D03*
Y32550D03*
Y38550D03*
Y38050D03*
X40700Y8800D03*
X42300Y10550D03*
X42850Y27430D03*
X45250Y4350D03*
X44750D03*
X45250Y4850D03*
X44750D03*
X45250Y5350D03*
X44750D03*
X45250Y5850D03*
X44750D03*
X45250Y6350D03*
X44750D03*
X45250Y6850D03*
X44750D03*
X45250Y7350D03*
X44750D03*
X45250Y7850D03*
X44750D03*
X45250Y8350D03*
X44750D03*
X45250Y8850D03*
X44750D03*
X45250Y9350D03*
X44750D03*
X45250Y9850D03*
X44750D03*
X45250Y10350D03*
X44750D03*
X45250Y10850D03*
X44750D03*
X45250Y11350D03*
X44750D03*
X45250Y11850D03*
X44750D03*
X45250Y12350D03*
X44750D03*
X45250Y12850D03*
X44750D03*
X45250Y13350D03*
X44750D03*
X45250Y13850D03*
X44750D03*
X45250Y14350D03*
X44750D03*
X45250Y14850D03*
X44750D03*
X45250Y15350D03*
X44750D03*
X45250Y15850D03*
X44750D03*
X45250Y16350D03*
X44750D03*
X45500Y33050D03*
Y32550D03*
X45000Y33050D03*
Y32550D03*
X44500Y33050D03*
Y32550D03*
X45500Y38550D03*
Y38050D03*
X45000Y38550D03*
Y38050D03*
X44500Y38550D03*
Y38050D03*
X47500Y33050D03*
Y32550D03*
X47000Y33050D03*
Y32550D03*
X46500Y33050D03*
Y32550D03*
X46000Y33050D03*
Y32550D03*
X47500Y38550D03*
Y38050D03*
X47000Y38550D03*
Y38050D03*
X46500Y38550D03*
Y38050D03*
X46000Y38550D03*
Y38050D03*
X49950Y16050D03*
X49450D03*
X49950Y15550D03*
X49450D03*
X49950Y15050D03*
X49450D03*
X49950Y14550D03*
X49450D03*
X49950Y18050D03*
X49450D03*
X49950Y17550D03*
X49450D03*
X49950Y17050D03*
X49450D03*
X49950Y16550D03*
X49450D03*
X49950Y19050D03*
X49450D03*
X49950Y18550D03*
X49450D03*
X49500Y33050D03*
Y32550D03*
X49000Y33050D03*
Y32550D03*
X48500Y33050D03*
Y32550D03*
X48000Y33050D03*
Y32550D03*
X49500Y38550D03*
Y38050D03*
X49000Y38550D03*
Y38050D03*
X48500Y38550D03*
Y38050D03*
X48000Y38550D03*
Y38050D03*
X52000Y33050D03*
Y32550D03*
X51500Y33050D03*
Y32550D03*
X51000Y33050D03*
Y32550D03*
X50500Y33050D03*
Y32550D03*
X50000Y33050D03*
Y32550D03*
X52000Y38550D03*
Y38050D03*
X51500Y38550D03*
Y38050D03*
X51000Y38550D03*
Y38050D03*
X50500Y38550D03*
Y38050D03*
X50000Y38550D03*
Y38050D03*
X54000Y33050D03*
Y32550D03*
X53500Y33050D03*
Y32550D03*
X53000Y33050D03*
Y32550D03*
X52500Y33050D03*
Y32550D03*
X54000Y38550D03*
Y38050D03*
X53500Y38550D03*
Y38050D03*
X53000Y38550D03*
Y38050D03*
X52500Y38550D03*
Y38050D03*
X56000Y33050D03*
Y32550D03*
X55500Y33050D03*
Y32550D03*
X55000Y33050D03*
Y32550D03*
X54500Y33050D03*
Y32550D03*
X56000Y38550D03*
Y38050D03*
X55500Y38550D03*
Y38050D03*
X55000Y38550D03*
Y38050D03*
X54500Y38550D03*
Y38050D03*
X58250Y4350D03*
X57750D03*
X58250Y4850D03*
X57750D03*
X58250Y5350D03*
X57750D03*
X58250Y5850D03*
X57750D03*
X58250Y6350D03*
X57750D03*
X58250Y6850D03*
X57750D03*
X58250Y7350D03*
X57750D03*
X58250Y7850D03*
X57750D03*
X58250Y8350D03*
X57750D03*
X58250Y8850D03*
X57750D03*
X58250Y9350D03*
X57750D03*
X58250Y9850D03*
X57750D03*
X58250Y10350D03*
X57750D03*
X58250Y10850D03*
X57750D03*
X58250Y11350D03*
X57750D03*
X58250Y11850D03*
X57750D03*
X58250Y12350D03*
X57750D03*
X58250Y12850D03*
X57750D03*
X58250Y13350D03*
X57750D03*
X58250Y13850D03*
X57750D03*
X58250Y14350D03*
X57750D03*
X58250Y14850D03*
X57750D03*
X58250Y15350D03*
X57750D03*
X58250Y15850D03*
X57750D03*
X58250Y16350D03*
X57750D03*
X56500Y33050D03*
Y32550D03*
Y38550D03*
Y38050D03*
X65750Y4350D03*
X65250D03*
X65750Y4850D03*
X65250D03*
X65750Y5350D03*
X65250D03*
X65750Y5850D03*
X65250D03*
X65750Y6350D03*
X65250D03*
X65750Y6850D03*
X65250D03*
X65750Y7350D03*
X65250D03*
X65750Y7850D03*
X65250D03*
X65750Y8350D03*
X65250D03*
X65750Y8850D03*
X65250D03*
X65750Y9350D03*
X65250D03*
X65750Y9850D03*
X65250D03*
X65750Y10350D03*
X65250D03*
X65750Y10850D03*
X65250D03*
X65750Y11350D03*
X65250D03*
X65750Y11850D03*
X65250D03*
X65750Y12350D03*
X65250D03*
X65750Y12850D03*
X65250D03*
X65750Y13350D03*
X65250D03*
X65750Y13850D03*
X65250D03*
X65750Y14350D03*
X65250D03*
X65750Y14850D03*
X65250D03*
X65750Y15350D03*
X65250D03*
X65750Y15850D03*
X65250D03*
X65750Y16350D03*
X65250D03*
X73250Y4350D03*
X72750D03*
X73250Y4850D03*
X72750D03*
X73250Y5350D03*
X72750D03*
X73250Y5850D03*
X72750D03*
X73250Y6350D03*
X72750D03*
X73250Y6850D03*
X72750D03*
X73250Y7350D03*
X72750D03*
X73250Y7850D03*
X72750D03*
X73250Y8350D03*
X72750D03*
X73250Y8850D03*
X72750D03*
X73250Y9350D03*
X72750D03*
X73250Y9850D03*
X72750D03*
X73250Y10350D03*
X72750D03*
X73250Y10850D03*
X72750D03*
X73250Y11350D03*
X72750D03*
X73250Y11850D03*
X72750D03*
X73250Y12350D03*
X72750D03*
X73250Y12850D03*
X72750D03*
X73250Y13350D03*
X72750D03*
X73250Y13850D03*
X72750D03*
X73250Y14350D03*
X72750D03*
X73250Y14850D03*
X72750D03*
X73250Y15350D03*
X72750D03*
X73250Y15850D03*
X72750D03*
X73250Y16350D03*
X72750D03*
X105980Y4500D03*
Y5000D03*
X105480Y4500D03*
Y5000D03*
X104980Y4500D03*
Y5000D03*
X105980Y15800D03*
X105480D03*
X104980D03*
X105980Y16300D03*
X105480D03*
X104980D03*
X107980Y4500D03*
Y5000D03*
X107480Y4500D03*
Y5000D03*
X106980Y4500D03*
Y5000D03*
X106480Y4500D03*
Y5000D03*
X107980Y15800D03*
X107480D03*
X106980D03*
X106480D03*
X107980Y16300D03*
X107480D03*
X106980D03*
X106480D03*
X109980Y4500D03*
Y5000D03*
X109480Y4500D03*
Y5000D03*
X108980Y4500D03*
Y5000D03*
X108480Y4500D03*
Y5000D03*
X109980Y15800D03*
X109480D03*
X108980D03*
X108480D03*
X109980Y16300D03*
X109480D03*
X108980D03*
X108480D03*
X112480Y4500D03*
Y5000D03*
X111980Y4500D03*
Y5000D03*
X111480Y4500D03*
Y5000D03*
X110980Y4500D03*
Y5000D03*
X110480Y4500D03*
Y5000D03*
X112480Y15800D03*
X111980D03*
X111480D03*
X110980D03*
X110480D03*
X112480Y16300D03*
X111980D03*
X111480D03*
X110980D03*
X110480D03*
X114480Y4500D03*
Y5000D03*
X113980Y4500D03*
Y5000D03*
X113480Y4500D03*
Y5000D03*
X112980Y4500D03*
Y5000D03*
X114480Y15800D03*
X113980D03*
X113480D03*
X112980D03*
X114480Y16300D03*
X113980D03*
X113480D03*
X112980D03*
X116480Y4500D03*
Y5000D03*
X115980Y4500D03*
Y5000D03*
X115480Y4500D03*
Y5000D03*
X114980Y4500D03*
Y5000D03*
X116480Y15800D03*
X115980D03*
X115480D03*
X114980D03*
X116480Y16300D03*
X115980D03*
X115480D03*
X114980D03*
X118480Y4500D03*
Y5000D03*
X117980Y4500D03*
Y5000D03*
X117480Y4500D03*
Y5000D03*
X116980Y4500D03*
Y5000D03*
X118480Y15800D03*
X117980D03*
X117480D03*
X116980D03*
X118480Y16300D03*
X117980D03*
X117480D03*
X116980D03*
X120980Y4500D03*
Y5000D03*
X120480Y4500D03*
Y5000D03*
X119980Y4500D03*
Y5000D03*
X119480Y4500D03*
Y5000D03*
X118980Y4500D03*
Y5000D03*
X120980Y15800D03*
X120480D03*
X119980D03*
X119480D03*
X118980D03*
X120980Y16300D03*
X120480D03*
X119980D03*
X119480D03*
X118980D03*
X121980Y4500D03*
Y5000D03*
X121480Y4500D03*
Y5000D03*
X121980Y15800D03*
X121480D03*
X121980Y16300D03*
X121480D03*
X129490Y4480D03*
Y4980D03*
X128990Y4480D03*
Y4980D03*
X128490Y4480D03*
Y4980D03*
X129490Y15780D03*
X128990D03*
X128490D03*
X129490Y16280D03*
X128990D03*
X128490D03*
X129490Y25930D03*
Y26430D03*
X128990Y25930D03*
Y26430D03*
X128490Y25930D03*
Y26430D03*
X129490Y37230D03*
Y37730D03*
X128990Y37230D03*
Y37730D03*
X128490Y37230D03*
Y37730D03*
X131490Y4480D03*
Y4980D03*
X130990Y4480D03*
Y4980D03*
X130490Y4480D03*
Y4980D03*
X129990Y4480D03*
Y4980D03*
X131490Y15780D03*
X130990D03*
X130490D03*
X129990D03*
X131490Y16280D03*
X130990D03*
X130490D03*
X129990D03*
X131490Y25930D03*
Y26430D03*
X130990Y25930D03*
Y26430D03*
X130490Y25930D03*
Y26430D03*
X129990Y25930D03*
Y26430D03*
X131490Y37230D03*
Y37730D03*
X130990Y37230D03*
Y37730D03*
X130490Y37230D03*
Y37730D03*
X129990Y37230D03*
Y37730D03*
X133990Y4480D03*
Y4980D03*
X133490Y4480D03*
Y4980D03*
X132990Y4480D03*
Y4980D03*
X132490Y4480D03*
Y4980D03*
X131990Y4480D03*
Y4980D03*
X133990Y15780D03*
X133490D03*
X132990D03*
X132490D03*
X131990D03*
X133990Y16280D03*
X133490D03*
X132990D03*
X132490D03*
X131990D03*
X133990Y25930D03*
Y26430D03*
X133490Y25930D03*
Y26430D03*
X132990Y25930D03*
Y26430D03*
X132490Y25930D03*
Y26430D03*
X131990Y25930D03*
Y26430D03*
X133990Y37230D03*
Y37730D03*
X133490Y37230D03*
Y37730D03*
X132990Y37230D03*
Y37730D03*
X132490Y37230D03*
Y37730D03*
X131990Y37230D03*
Y37730D03*
X135990Y4480D03*
Y4980D03*
X135490Y4480D03*
Y4980D03*
X134990Y4480D03*
Y4980D03*
X134490Y4480D03*
Y4980D03*
X135990Y15780D03*
X135490D03*
X134990D03*
X134490D03*
X135990Y16280D03*
X135490D03*
X134990D03*
X134490D03*
X135990Y25930D03*
Y26430D03*
X135490Y25930D03*
Y26430D03*
X134990Y25930D03*
Y26430D03*
X134490Y25930D03*
Y26430D03*
X135990Y37230D03*
Y37730D03*
X135490Y37230D03*
Y37730D03*
X134990Y37230D03*
Y37730D03*
X134490Y37230D03*
Y37730D03*
X137990Y4480D03*
Y4980D03*
X137490Y4480D03*
Y4980D03*
X136990Y4480D03*
Y4980D03*
X136490Y4480D03*
Y4980D03*
X137990Y15780D03*
X137490D03*
X136990D03*
X136490D03*
X137990Y16280D03*
X137490D03*
X136990D03*
X136490D03*
X137990Y25930D03*
Y26430D03*
X137490Y25930D03*
Y26430D03*
X136990Y25930D03*
Y26430D03*
X136490Y25930D03*
Y26430D03*
X137990Y37230D03*
Y37730D03*
X137490Y37230D03*
Y37730D03*
X136990Y37230D03*
Y37730D03*
X136490Y37230D03*
Y37730D03*
X140490Y4480D03*
Y4980D03*
X139990Y4480D03*
Y4980D03*
X139490Y4480D03*
Y4980D03*
X138990Y4480D03*
Y4980D03*
X138490Y4480D03*
Y4980D03*
X140490Y15780D03*
X139990D03*
X139490D03*
X138990D03*
X138490D03*
X140490Y16280D03*
X139990D03*
X139490D03*
X138990D03*
X138490D03*
X140490Y25930D03*
Y26430D03*
X139990Y25930D03*
Y26430D03*
X139490Y25930D03*
Y26430D03*
X138990Y25930D03*
Y26430D03*
X138490Y25930D03*
Y26430D03*
X140490Y37230D03*
Y37730D03*
X139990Y37230D03*
Y37730D03*
X139490Y37230D03*
Y37730D03*
X138990Y37230D03*
Y37730D03*
X138490Y37230D03*
Y37730D03*
X142490Y4480D03*
Y4980D03*
X141990Y4480D03*
Y4980D03*
X141490Y4480D03*
Y4980D03*
X140990Y4480D03*
Y4980D03*
X142490Y15780D03*
X141990D03*
X141490D03*
X140990D03*
X142490Y16280D03*
X141990D03*
X141490D03*
X140990D03*
X142490Y25930D03*
Y26430D03*
X141990Y25930D03*
Y26430D03*
X141490Y25930D03*
Y26430D03*
X140990Y25930D03*
Y26430D03*
X142490Y37230D03*
Y37730D03*
X141990Y37230D03*
Y37730D03*
X141490Y37230D03*
Y37730D03*
X140990Y37230D03*
Y37730D03*
X144490Y4480D03*
Y4980D03*
X143990Y4480D03*
Y4980D03*
X143490Y4480D03*
Y4980D03*
X142990Y4480D03*
Y4980D03*
X144490Y15780D03*
X143990D03*
X143490D03*
X142990D03*
X144490Y16280D03*
X143990D03*
X143490D03*
X142990D03*
X144490Y25930D03*
Y26430D03*
X143990Y25930D03*
Y26430D03*
X143490Y25930D03*
Y26430D03*
X142990Y25930D03*
Y26430D03*
X144490Y37230D03*
Y37730D03*
X143990Y37230D03*
Y37730D03*
X143490Y37230D03*
Y37730D03*
X142990Y37230D03*
Y37730D03*
X145490Y4480D03*
Y4980D03*
X144990Y4480D03*
Y4980D03*
X145490Y15780D03*
X144990D03*
X145490Y16280D03*
X144990D03*
X145490Y25930D03*
Y26430D03*
X144990Y25930D03*
Y26430D03*
X145490Y37230D03*
Y37730D03*
X144990Y37230D03*
Y37730D03*
G54D26*
G01X43055Y13945D02*
X43950Y14840D01*
Y15150D01*
X43800Y15300D01*
X43636D01*
G01X46750Y11850D02*
X46800Y11900D01*
Y12450D01*
X47750Y13400D01*
X50600D01*
X50800Y13600D01*
Y15390D01*
X50640Y15550D01*
X49950D01*
G01X80800Y7374D02*
X74624D01*
X74500Y7250D01*
X73850D01*
X73250Y7850D01*
G01X72750Y9350D02*
X73250D01*
G01X84600Y8700D02*
X76450D01*
X75950Y9200D01*
X73400D01*
X73250Y9350D01*
G01X77200Y9100D02*
X85000D01*
G01D02*
Y5000D01*
G01Y15800D02*
Y9100D01*
G01X85950Y25500D02*
X86650Y24800D01*
X87550D01*
X87950Y25200D01*
Y25500D01*
G01X85950D02*
X84950D01*
G01X90800D02*
X89800D01*
G01X98000Y16300D02*
Y17350D01*
X91250Y24100D01*
Y25050D01*
X90800Y25500D01*
G01X95000Y5000D02*
X94950Y5050D01*
Y5750D01*
X94750Y5950D01*
Y9350D01*
G01X94000Y15800D02*
Y10300D01*
X94750Y9550D01*
Y9350D01*
G01X95500Y25500D02*
X100500Y20500D01*
Y10300D01*
X101040Y9760D01*
Y4550D01*
G54D17*
X9250Y25950D03*
X10250D03*
X11250D03*
X9240Y27050D03*
X10240D03*
X11240D03*
X57000Y22250D03*
X58000D03*
X57000Y27400D03*
X58000D03*
X59000Y22250D03*
Y27400D03*
X62000Y22250D03*
X63000D03*
X62000Y27400D03*
X63000D03*
X64000Y22250D03*
Y27400D03*
X67000Y22250D03*
Y27400D03*
X68000Y22250D03*
X69000D03*
X68000Y27400D03*
X69000D03*
X71400Y31050D03*
Y39300D03*
X72000Y22250D03*
X73000D03*
X72000Y27400D03*
X73000D03*
X74000Y22250D03*
Y27400D03*
X83750Y31050D03*
Y39300D03*
X84950Y25500D03*
X89800D03*
X94500D03*
X93750Y33850D03*
X93900Y40050D03*
X101750Y31300D03*
Y33300D03*
Y32300D03*
X102800Y22250D03*
X103800D03*
X102800Y27400D03*
X103800D03*
X101900Y37500D03*
Y39500D03*
Y38500D03*
X104800Y22250D03*
Y27400D03*
X104100Y33900D03*
X104000Y40150D03*
X106700Y22250D03*
X107700D03*
X106700Y27400D03*
X107700D03*
X108700Y22250D03*
Y27400D03*
X110550Y22250D03*
X111550D03*
X112550D03*
X110550Y27400D03*
X111550D03*
X112550D03*
X112100Y31350D03*
Y33350D03*
Y32350D03*
X112000Y37600D03*
Y39600D03*
Y38600D03*
X114300Y22300D03*
Y27450D03*
X114000Y37280D03*
X115300Y22300D03*
X116300D03*
X115300Y27450D03*
X116300D03*
X118000Y22300D03*
X119000D03*
X118000Y27450D03*
X119000D03*
X120000Y22300D03*
Y27450D03*
X121850Y22300D03*
X122850D03*
X121850Y27450D03*
X122850D03*
X122790Y37250D03*
X123850Y22300D03*
Y27450D03*
G54D27*
G01X17000Y7450D02*
X16833D01*
X16783Y7500D01*
X16617D01*
X16567Y7450D01*
X14648D01*
X13800Y6602D01*
G54D18*
X17045Y21825D03*
Y23475D03*
X18695Y21825D03*
Y23475D03*
G54D19*
X17870Y26345D03*
M02*
