G04 ================== begin FILE IDENTIFICATION RECORD ==================*
G04 Layout Name:  //MAC/HOME/DESKTOP/SPB_DATA/CAPTURE/CIS_ATCS/allegro/ATCS_Final.brd*
G04 Film Name:    SIG1*
G04 File Format:  Gerber RS274X*
G04 File Origin:  Cadence Allegro 17.2-P019*
G04 Origin Date:  Thu Jun 21 16:22:31 2018*
G04 *
G04 Layer:  ETCH/SIG1*
G04 Layer:  PIN/SIG1*
G04 Layer:  VIA CLASS/SIG1*
G04 *
G04 Offset:    (0.00 0.00)*
G04 Mirror:    No*
G04 Mode:      Positive*
G04 Rotation:  0*
G04 FullContactRelief:  No*
G04 UndefLineWidth:     0.00*
G04 ================== end FILE IDENTIFICATION RECORD ====================*
%FSLAX54Y54*MOIN*%
%IR0*IPPOS*OFA0.00000B0.00000*MIA0B0*SFA1.00000B1.00000*%
%ADD10C,.03*%
%ADD11C,.022*%
%ADD17C,.06*%
%ADD15C,.07*%
%ADD13C,.025*%
%ADD16C,.035*%
%ADD12C,.026*%
%ADD18C,.09*%
%ADD14C,.2*%
%ADD20C,.12*%
%ADD19C,.118*%
%ADD21C,.01*%
%ADD22C,.012*%
%ADD23C,.014*%
%ADD24C,.016*%
%ADD25C,.004*%
%ADD26C,.005*%
%ADD27C,.006*%
%ADD28C,.008*%
%ADD30C,.04004*%
%ADD34C,.06004*%
%ADD32C,.05104*%
%ADD29O,.03602X.21228*%
%ADD37C,.08004*%
%ADD36C,.08104*%
%ADD31C,.03604*%
%ADD35C,.09104*%
%ADD41C,.05604*%
%ADD42C,.04904*%
%ADD39C,.10004*%
%ADD38C,.11104*%
%ADD33C,.21004*%
%ADD40C,.12804*%
G75*
%LPD*%
G75*
G36*
G01X100Y100D02*
Y28400D01*
X8648D01*
G02X8676Y28332I0J-40D01*
G01X7875Y27530D01*
Y27458D01*
X7874Y27456D01*
G03X7870Y27420I146J-36D01*
G01Y24018D01*
X8288Y23600D01*
X8900D01*
G03X9094Y23596I100J150D01*
G02X9155Y23562I21J-34D01*
G01Y23510D01*
X8813D01*
X8698Y23395D01*
X8340D01*
X8323Y23378D01*
X8317Y23377D01*
G03X8503Y23105I33J-177D01*
G01X8786D01*
G03X8817Y23059I164J75D01*
G02X8816Y23031I-15J-14D01*
G03X9067Y22772I124J-131D01*
G02X9123I28J-28D01*
G03X9379Y23026I127J128D01*
G02Y23054I14J14D01*
G03X9394Y23289I-129J126D01*
G01X9403Y23297D01*
G03X9445Y23400I-103J103D01*
G01Y23643D01*
G03X9450Y23850I-145J107D01*
G01Y25165D01*
X9795Y25510D01*
Y26865D01*
G02X9872Y26882I40J0D01*
G03Y27218I369J168D01*
G02X9795Y27235I-36J17D01*
G01Y27812D01*
X9983Y28000D01*
X11815D01*
X11970Y28155D01*
X12043D01*
X12048Y28151D01*
G03X12323Y28349I102J149D01*
G02X12362Y28400I38J11D01*
G01X30249D01*
G02X30276Y28331I0J-40D01*
G03X30524I124J-131D01*
G02X30551Y28400I28J29D01*
G01X38299D01*
G02X38326Y28331I0J-40D01*
G03X38574I124J-131D01*
G02X38601Y28400I28J29D01*
G01X46049D01*
G02X46076Y28331I0J-40D01*
G03X46324I124J-131D01*
G02X46351Y28400I28J29D01*
G01X49739D01*
G02X49754Y28323I0J-40D01*
G03X50546I396J-973D01*
G02X50561Y28400I15J37D01*
G01X51400D01*
Y100D01*
X50474D01*
G02X50462Y178I0J40D01*
G03X49838I-312J1003D01*
G02X49826Y100I-12J-38D01*
G01X40101D01*
G02X40074Y169I0J40D01*
G03X40095Y407I-124J131D01*
G01Y2790D01*
X40399Y3093D01*
Y9934D01*
G02X40457Y9970I40J0D01*
G03Y10290I83J160D01*
G02X40399Y10326I-18J35D01*
G01Y11533D01*
X40413Y11538D01*
G03X40360Y11890I-53J172D01*
G02X40320Y11930I0J40D01*
G01Y14165D01*
X40675Y14520D01*
Y14945D01*
X40595Y15025D01*
Y16080D01*
G02X40638Y16120I40J0D01*
G03X40782Y16423I12J180D01*
G02Y16477I29J27D01*
G03X40638Y16780I-132J123D01*
G02X40595Y16820I-3J40D01*
G01Y17012D01*
G02X40656Y17046I40J0D01*
G03X40772Y17379I94J154D01*
G02X40745Y17442I5J40D01*
G03X40423Y17583I-145J108D01*
G01X40422Y17577D01*
X40305Y17460D01*
Y14984D01*
X40291Y14980D01*
G03X40296Y14635I54J-172D01*
G02X40313Y14568I-11J-38D01*
G01X40030Y14285D01*
Y11573D01*
X40108Y11495D01*
Y9175D01*
G02X40063Y9135I-40J0D01*
G03Y8738I-27J-198D01*
G02X40108Y8698I5J-40D01*
G01Y3214D01*
X39805Y2910D01*
Y407D01*
G03X39826Y169I145J-107D01*
G02X39799Y100I-28J-29D01*
G01X100D01*
G37*
G36*
G01X9445Y27400D02*
G03Y26700I-205J-350D01*
G02X9505Y26666I20J-35D01*
G01Y26340D01*
G02X9446Y26305I-40J0D01*
G03X9323Y25551I-196J-355D01*
G02X9358Y25484I7J-39D01*
G01X9225Y25350D01*
X9222Y25349D01*
G03X9150Y25220I77J-129D01*
G01Y23941D01*
G02X9090Y23906I-40J0D01*
G03X8900Y23900I-90J-156D01*
G01X8412D01*
X8170Y24142D01*
Y24463D01*
G02X8217Y24503I40J0D01*
G03X8375Y24544I33J197D01*
G03Y24856I125J156D01*
G03X8217Y24897I-125J-156D01*
G02X8170Y24937I-7J39D01*
G01Y27415D01*
X8940Y28185D01*
X9661D01*
G02X9690Y28117I0J-40D01*
G01X9505Y27932D01*
Y27434D01*
G02X9445Y27400I-40J0D01*
G37*
%LPC*%
G75*
G36*
G01X27630Y18850D02*
Y13375D01*
X27377Y13123D01*
G02X27123Y13377I-127J127D01*
G01X27270Y13525D01*
Y18850D01*
G02X27630I180J0D01*
G37*
G36*
G01X29924Y27622D02*
G03X29878Y27576I-6J-40D01*
G02X29726Y27728I-178J-26D01*
G03X29772Y27774I6J40D01*
G02X29924Y27622I178J26D01*
G37*
G36*
G01X32904Y27316D02*
G03X32846I-29J-27D01*
G02Y27590I-146J137D01*
G03X32904I29J27D01*
G02Y27316I146J-137D01*
G37*
G36*
G01X34168Y25628D02*
G03X34107Y25626I-29J-27D01*
G02Y25874I-157J124D01*
G03X34168Y25872I31J25D01*
G02Y25628I132J-122D01*
G37*
G36*
G01X47733Y26239D02*
G03X47758Y26287I-13J38D01*
G02X48009Y26169I174J46D01*
G03X47988Y26119I17J-36D01*
G02X47924Y25893I-188J-69D01*
G03X47922Y25832I25J-31D01*
G02X47908Y25556I-122J-132D01*
G03X47899Y25501I24J-32D01*
G02X47916Y25330I-149J-101D01*
G03X47943Y25275I37J-16D01*
G02X47734Y25171I-43J-175D01*
G03X47707Y25225I-37J16D01*
G02X47642Y25544I43J175D01*
G03X47651Y25599I-24J32D01*
G02X47678Y25832I149J101D01*
G03X47676Y25893I-27J29D01*
G02X47733Y26239I124J157D01*
G37*
G36*
G01X31835Y25172D02*
G03X31809Y25227I-37J16D01*
G02X31775Y25560I49J173D01*
G03X31792Y25614I-19J35D01*
G02X31828Y25832I158J86D01*
G03X31826Y25893I-27J29D01*
G02X32074I124J157D01*
G03X32072Y25832I25J-31D01*
G02X32034Y25540I-122J-132D01*
G03X32017Y25486I19J-35D01*
G02X32024Y25328I-158J-86D01*
G03X32049Y25273I37J-16D01*
G02X31835Y25172I-49J-173D01*
G37*
G36*
G01X12136Y24847D02*
G03X12164I14J15D01*
G02Y24553I136J-147D01*
G03X12136I-14J-15D01*
G02Y24847I-136J147D01*
G37*
G36*
G01X24040Y24191D02*
G03X23988Y24183I-22J-33D01*
G02X23950Y24450I-137J116D01*
G03X24003Y24457I22J33D01*
G02X24040Y24191I137J-116D01*
G37*
G36*
G01X11480Y26652D02*
G03X11422Y26688I-40J0D01*
G02Y27412I-182J362D01*
G03X11480Y27448I18J36D01*
G01Y27550D01*
G02X11480Y27556I150J-2D01*
G01X11480Y27565D01*
X11440Y27605D01*
X11107D01*
G02Y27895I-107J145D01*
G01X11560D01*
X11775Y27680D01*
Y27588D01*
X11775Y27586D01*
G02X11780Y27550I-146J-36D01*
G01Y25518D01*
X11273Y25011D01*
Y24882D01*
G03X11341Y24854I40J0D01*
G01X11344Y24856D01*
G02X11373Y24879I106J-106D01*
G01X11375Y24880D01*
X11990Y25495D01*
X12693D01*
G02Y25205I107J-145D01*
G01X12110D01*
X11580Y24675D01*
X11579Y24672D01*
G02X11556Y24644I-129J77D01*
G01X11550Y24638D01*
Y23850D01*
G02X11275Y23620I-150J-100D01*
G03X11248I-14J-14D01*
G02X10973Y23850I-125J130D01*
G01Y25135D01*
X11316Y25478D01*
G03X11284Y25546I-28J28D01*
G02X11423Y26317I-34J404D01*
G03X11480Y26353I17J36D01*
G01Y26652D01*
G37*
G36*
G01X3893Y23725D02*
G03X3866Y23671I10J-39D01*
G02X3657Y23775I-166J-70D01*
G03X3684Y23829I-10J39D01*
G02X3893Y23725I166J70D01*
G37*
G36*
G01X11303Y22752D02*
G03X11247I-28J-28D01*
G02X10996Y23011I-127J128D01*
G03X10997Y23039I-14J14D01*
G02X11253Y23292I133J121D01*
G03X11307I27J29D01*
G02X11559Y23034I123J-132D01*
G03Y23006I14J-14D01*
G02X11303Y22752I-129J-126D01*
G37*
G36*
G01X1161Y22933D02*
G03Y22867I22J-33D01*
G02X939I-111J-167D01*
G03Y22933I-22J33D01*
G02X1161I111J167D01*
G37*
G36*
G01X12650Y21950D02*
G02X12450Y22150I-200J0D01*
G02X12650Y21950I200J0D01*
G37*
G36*
G01X8100Y22100D02*
G02X7900Y21900I0J-200D01*
G02X8100Y22100I0J200D01*
G37*
G36*
G01X24514Y21353D02*
G03X24486I-14J-15D01*
G02Y21647I-136J147D01*
G03X24514I14J15D01*
G02X24519Y21651I135J-148D01*
G03X24517Y21683I-13J15D01*
G02X24773Y21713I110J167D01*
G03X24777Y21655I29J-27D01*
G02X24514Y21353I-127J-155D01*
G37*
G36*
G01X21814D02*
G03X21786I-14J-15D01*
G02X21523Y21655I-136J147D01*
G03X21527Y21713I-25J31D01*
G02X21783Y21683I146J137D01*
G03X21781Y21651I11J-17D01*
G02X21786Y21647I-130J-152D01*
G03X21814I14J15D01*
G02Y21353I136J-147D01*
G37*
G36*
G01X12904Y21263D02*
G03X12846I-29J-27D01*
G02Y21537I-146J137D01*
G03X12904I29J27D01*
G02Y21263I146J-137D01*
G37*
G36*
G01X26408Y21236D02*
G03X26472Y21227I35J19D01*
G02X26442Y21014I128J-127D01*
G03X26378Y21023I-35J-19D01*
G02X26408Y21236I-128J127D01*
G37*
G36*
G01X42516Y20020D02*
G03X42455I-31J-26D01*
G02Y20252I-138J116D01*
G03X42516I31J26D01*
G02Y20020I138J-116D01*
G37*
G36*
G01X39292Y19984D02*
G03X39231I-31J-26D01*
G02Y20216I-138J116D01*
G03X39292I31J26D01*
G02Y19984I138J-116D01*
G37*
G36*
G01X35531D02*
G03X35470I-31J-26D01*
G02Y20216I-138J116D01*
G03X35531I31J26D01*
G02Y19984I138J-116D01*
G37*
G36*
G01X34581D02*
G03X34520I-31J-26D01*
G02Y20216I-138J116D01*
G03X34581I31J26D01*
G02Y19984I138J-116D01*
G37*
G36*
G01X45330Y19934D02*
G03X45269I-31J-26D01*
G02Y20166I-138J116D01*
G03X45330I31J26D01*
G02Y19934I138J-116D01*
G37*
G36*
G01X38381D02*
G03X38320I-31J-26D01*
G02Y20166I-138J116D01*
G03X38381I31J26D01*
G02Y19934I138J-116D01*
G37*
G36*
G01X37392D02*
G03X37331I-31J-26D01*
G02Y20166I-138J116D01*
G03X37392I31J26D01*
G02Y19934I138J-116D01*
G37*
G36*
G01X46280Y19884D02*
G03X46219I-31J-26D01*
G02Y20116I-138J116D01*
G03X46280I31J26D01*
G02Y19884I138J-116D01*
G37*
G36*
G01X48181Y19834D02*
G03X48119I-31J-26D01*
G02Y20066I-138J116D01*
G03X48181I31J26D01*
G02Y19834I138J-116D01*
G37*
G36*
G01X40281D02*
G03X40219I-31J-26D01*
G02Y20066I-138J116D01*
G03X40281I31J26D01*
G02Y19834I138J-116D01*
G37*
G36*
G01X31381D02*
G03X31319I-31J-26D01*
G02Y20066I-138J116D01*
G03X31381I31J26D01*
G02Y19834I138J-116D01*
G37*
G36*
G01X44833Y19840D02*
G03X44833Y19813I15J-13D01*
G02X44567Y19808I-131J-124D01*
G03X44567Y19835I-15J13D01*
G02X44833Y19840I131J124D01*
G37*
G36*
G01X2584Y18214D02*
G03X2516I-34J-21D01*
G02X2164Y18566I-216J136D01*
G03Y18634I-21J34D01*
G02X2516Y18986I136J216D01*
G03X2584I34J21D01*
G02X2664Y19066I216J-136D01*
G03Y19134I-21J34D01*
G02Y19566I136J216D01*
G03Y19634I-21J34D01*
G02Y20066I136J216D01*
G03Y20134I-21J34D01*
G02X2584Y20214I136J216D01*
G03X2516I-34J-21D01*
G02X2164Y20566I-216J136D01*
G03Y20634I-21J34D01*
G02X2516Y20986I136J216D01*
G03X2584I34J21D01*
G02X2664Y21066I216J-136D01*
G03Y21134I-21J34D01*
G02X2936I136J216D01*
G03Y21066I21J-34D01*
G02Y20634I-136J-216D01*
G03Y20566I21J-34D01*
G02Y20134I-136J-216D01*
G03Y20066I21J-34D01*
G02Y19634I-136J-216D01*
G03Y19566I21J-34D01*
G02Y19134I-136J-216D01*
G03Y19066I21J-34D01*
G02Y18634I-136J-216D01*
G03Y18566I21J-34D01*
G02Y18134I-136J-216D01*
G03Y18066I21J-34D01*
G02X2664I-136J-216D01*
G03Y18134I-21J34D01*
G02X2584Y18214I136J216D01*
G37*
G36*
G01X38881Y17534D02*
G03X38820I-31J-26D01*
G02Y17766I-138J116D01*
G03X38881I31J26D01*
G02Y17534I138J-116D01*
G37*
G36*
G01X34637Y17204D02*
G03X34636Y17147I27J-29D01*
G02X34356Y17153I-143J-140D01*
G03X34357Y17210I-27J29D01*
G02X34637Y17204I143J140D01*
G37*
G36*
G01X38931Y16284D02*
G03X38870I-31J-26D01*
G02Y16516I-138J116D01*
G03X38931I31J26D01*
G02Y16284I138J-116D01*
G37*
G36*
G01X11995Y16493D02*
G03Y16467I15J-13D01*
G02X11721I-137J-117D01*
G03Y16493I-15J13D01*
G02X11995I137J117D01*
G37*
G36*
G01X2516Y16986D02*
G03X2584I34J21D01*
G02X2936Y16634I216J-136D01*
G03Y16566I21J-34D01*
G02X2584Y16214I-136J-216D01*
G03X2516I-34J-21D01*
G02X2164Y16566I-216J136D01*
G03Y16634I-21J34D01*
G02X2516Y16986I136J216D01*
G37*
G36*
G01X23668Y20650D02*
G03X23607Y20645I-28J-28D01*
G02X23296Y20676I-147J105D01*
G03X23240Y20694I-36J-17D01*
G02X22970Y20845I-90J156D01*
G03X22950Y20864I-20J-1D01*
G02X22925Y20866I0J180D01*
G03X22879Y20831I-6J-40D01*
G02X22725Y21028I-179J19D01*
G03X22771Y21064I6J40D01*
G02X23130Y21050I179J-19D01*
G03X23150Y21030I20J1D01*
G02X23314Y20924I0J-180D01*
G03X23370Y20906I36J17D01*
G02X23374Y20908I90J-156D01*
G01X23376Y20910D01*
X23392Y20926D01*
X22682Y21636D01*
Y22034D01*
G03X22635Y22073I-40J0D01*
G02X22455Y22357I-35J177D01*
G01Y22510D01*
X22505Y22560D01*
Y22887D01*
G03X22455Y22926I-40J0D01*
G02Y23274I-45J174D01*
G03X22505Y23313I10J39D01*
G01Y24129D01*
G03X22462Y24169I-40J0D01*
G02X22334Y24209I-13J180D01*
G03X22281Y24208I-25J-31D01*
G02X22270Y24198I-122J132D01*
G03X22268Y24136I24J-32D01*
G02X22040Y24142I-118J-136D01*
G03X22041Y24204I-24J32D01*
G02X22274Y24480I118J136D01*
G03X22326Y24481I25J31D01*
G02X22462Y24528I122J-133D01*
G03X22505Y24568I3J40D01*
G01Y25790D01*
X22328Y25967D01*
X22322Y25968D01*
G02X22532Y26178I33J177D01*
G01X22533Y26172D01*
X22795Y25910D01*
Y25610D01*
G03X22847Y25572I40J0D01*
G02X23043Y25509I53J-172D01*
G03X23107I32J24D01*
G02Y25291I143J-109D01*
G03X23043I-32J-24D01*
G02X22847Y25228I-143J109D01*
G03X22795Y25190I-12J-38D01*
G01Y23870D01*
G03X22838Y23830I40J0D01*
G02Y23470I12J-180D01*
G03X22795Y23430I-3J-40D01*
G01Y22440D01*
X22745Y22390D01*
Y22349D01*
X22772D01*
X22778Y22354D01*
G02X23223Y22148I174J-206D01*
G01Y21860D01*
X24241Y20841D01*
G02X24220Y20440I-191J-191D01*
G01Y20382D01*
X23445Y19608D01*
Y19532D01*
G03X23513Y19504I40J0D01*
G01X23611Y19602D01*
X23612Y19609D01*
G02X23949Y19672I179J-23D01*
G03X23975Y19664I17J10D01*
G02X24140Y19656I75J-164D01*
G03X24200Y19692I20J35D01*
G02X24582Y19618I200J8D01*
G03X24619Y19561I36J-16D01*
G01X24644D01*
X25210Y18995D01*
X25710D01*
X25877Y18828D01*
X25883Y18827D01*
G02X25673Y18617I-33J-177D01*
G01X25672Y18623D01*
X25590Y18705D01*
X25090D01*
X24649Y19145D01*
G03X24584Y19133I-28J-28D01*
G02X24201Y19227I-184J78D01*
G03X24161Y19271I-40J3D01*
G01X24074D01*
X24023Y19322D01*
X24017Y19323D01*
G02X23922Y19374I33J177D01*
G03X23865Y19374I-28J-28D01*
G01X23790Y19300D01*
Y16309D01*
X23791Y16306D01*
G02X23449I-171J-56D01*
G01X23450Y16309D01*
Y17040D01*
G03X23384Y17071I-40J0D01*
G02Y17349I-114J139D01*
G03X23450Y17380I25J31D01*
G01Y18701D01*
G03X23385Y18732I-40J0D01*
G02X23104Y18931I-110J142D01*
G01X23105Y18934D01*
Y19748D01*
X23576Y20219D01*
G03X23575Y20276I-28J28D01*
G02X23653Y20580I125J130D01*
G03X23671Y20647I-10J39D01*
G01X23668Y20650D01*
G37*
G36*
G01X39970Y17380D02*
Y16780D01*
X39986Y16776D01*
G02Y16424I-36J-176D01*
G01X39970Y16420D01*
Y15970D01*
X40070Y15870D01*
Y15809D01*
X40071Y15806D01*
G02X39721Y15732I-171J-56D01*
G01X39720Y15739D01*
X39630Y15830D01*
Y16382D01*
X39570Y16442D01*
Y16758D01*
X39630Y16818D01*
Y17432D01*
X39620Y17442D01*
Y17758D01*
X39630Y17768D01*
Y18366D01*
G02X39911Y18581I120J134D01*
G01X39912Y18578D01*
X39970Y18520D01*
Y17820D01*
G03X40008Y17780I40J0D01*
G02Y17420I-8J-180D01*
G03X39970Y17380I2J-40D01*
G37*
G36*
G01X39292Y15584D02*
G03X39231I-31J-26D01*
G02Y15816I-138J116D01*
G03X39292I31J26D01*
G02Y15584I138J-116D01*
G37*
G36*
G01X25992Y15349D02*
G03Y15320I14J-14D01*
G02X25708I-142J-141D01*
G03Y15349I-14J14D01*
G02X25868Y15689I142J141D01*
G03X25911Y15725I4J40D01*
G02X26090Y15529I180J-16D01*
G03X26050Y15489I0J-40D01*
G02X25992Y15349I-200J0D01*
G37*
G36*
G01X2516Y14986D02*
G03X2584I34J21D01*
G02X2664Y15066I216J-136D01*
G03Y15134I-21J34D01*
G02X2936I136J216D01*
G03Y15066I21J-34D01*
G02X2584Y14714I-136J-216D01*
G03X2516I-34J-21D01*
G02X2436Y14634I-216J136D01*
G03Y14566I21J-34D01*
G02X2164I-136J-216D01*
G03Y14634I-21J34D01*
G02X2516Y14986I136J216D01*
G37*
G36*
G01X18710Y17371D02*
Y13459D01*
X18711Y13456D01*
G02X18369I-171J-56D01*
G01X18370Y13459D01*
Y17371D01*
X18369Y17374D01*
G02X18711I171J56D01*
G01X18710Y17371D01*
G37*
G36*
G01X2936Y13634D02*
G03Y13566I21J-34D01*
G02X2664I-136J-216D01*
G03Y13634I-21J34D01*
G02X2936I136J216D01*
G37*
G36*
G01X28219Y13224D02*
X28805Y13810D01*
Y14865D01*
G03X28737Y14894I-40J0D01*
G02X28721Y15199I-137J146D01*
G03X28782Y15217I24J32D01*
G02X28805Y15257I167J-67D01*
G03X28796Y15313I-32J24D01*
G02X28712Y15472I116J163D01*
G03X28660Y15509I-40J-1D01*
G02X28725Y15857I-60J191D01*
G03X28790Y15888I25J31D01*
G01Y17117D01*
G02X29110I160J83D01*
G01Y15504D01*
X29110Y15503D01*
G02Y15450I-198J-27D01*
G01X29110Y15448D01*
X29109Y15442D01*
G02X29062Y15344I-197J34D01*
G03X29067Y15287I30J-26D01*
G02X29095Y15043I-117J-137D01*
G01Y13690D01*
X28601Y13196D01*
G03X28603Y13137I28J-28D01*
G02X28348Y12884I-117J-137D01*
G03X28296Y12892I-31J-26D01*
G02X28210Y13225I-96J152D01*
G01X28219Y13224D01*
G37*
G36*
G01X48266Y12799D02*
G03Y12738I26J-31D01*
G02X48034I-116J-138D01*
G03Y12799I-26J31D01*
G02X48266I116J138D01*
G37*
G36*
G01X18320Y13071D02*
Y12190D01*
G02X18009Y12009I-150J-100D01*
G01X18008Y12012D01*
X17980Y12040D01*
Y12905D01*
G03X17917Y12937I-40J0D01*
G02X17946Y13237I-117J163D01*
G03X18007Y13240I29J27D01*
G02X18321Y13074I143J-110D01*
G01X18320Y13071D01*
G37*
G36*
G01X15054Y11666D02*
G03X14996I-29J-27D01*
G02Y11940I-146J137D01*
G03X15054I29J27D01*
G02Y11666I146J-137D01*
G37*
G36*
G01X2936Y12134D02*
G03Y12066I21J-34D01*
G02X2664I-136J-216D01*
G03Y12134I-21J34D01*
G02X2584Y12214I136J216D01*
G03X2516I-34J-21D01*
G02X2164Y12566I-216J136D01*
G03Y12634I-21J34D01*
G02X2436I136J216D01*
G03Y12566I21J-34D01*
G02X2516Y12486I-136J-216D01*
G03X2584I34J21D01*
G02X2936Y12134I216J-136D01*
G37*
G36*
G01X29058Y11060D02*
X29077Y11041D01*
X29083Y11040D01*
G02X28873Y10830I-33J-177D01*
G01X28872Y10836D01*
X28767Y10940D01*
Y11606D01*
G02X29058I145J107D01*
G01Y11060D01*
G37*
G36*
G01X2584Y10214D02*
G03X2516I-34J-21D01*
G02X2164Y10566I-216J136D01*
G03Y10634I-21J34D01*
G02X2516Y10986I136J216D01*
G03X2584I34J21D01*
G02X2936Y10634I216J-136D01*
G03Y10566I21J-34D01*
G02X2584Y10214I-136J-216D01*
G37*
G36*
G01X11139Y10180D02*
G03X11182Y10129I39J-11D01*
G02X11025Y9906I18J-179D01*
G03X10963Y9929I-39J-10D01*
G02X11139Y10180I-263J371D01*
G37*
G36*
G01X42453Y9810D02*
G03X42455Y9746I25J-31D01*
G02X42237Y9740I-105J-146D01*
G03X42235Y9804I-25J31D01*
G02X42453Y9810I105J146D01*
G37*
G36*
G01X20339Y9307D02*
G03Y9243I24J-32D01*
G02X20121I-109J-143D01*
G03Y9307I-24J32D01*
G02X20339I109J143D01*
G37*
G36*
G01X19570Y8675D02*
G03X19512Y8675I-29J-28D01*
G02X19245Y8680I-131J124D01*
G03X19185Y8680I-30J-26D01*
G02X19186Y8918I-135J120D01*
G03X19246Y8918I30J26D01*
G02X19511Y8923I135J-120D01*
G03X19569Y8924I29J28D01*
G02X19570Y8675I131J-124D01*
G37*
G36*
G01X16604Y8413D02*
G03X16546I-29J-27D01*
G02Y8687I-146J137D01*
G03X16604I29J27D01*
G02Y8413I146J-137D01*
G37*
G36*
G01X2436Y8634D02*
G03Y8566I21J-34D01*
G02X2164I-136J-216D01*
G03Y8634I-21J34D01*
G02X2516Y8986I136J216D01*
G03X2584I34J21D01*
G02X2664Y9066I216J-136D01*
G03Y9134I-21J34D01*
G02X2936I136J216D01*
G03Y9066I21J-34D01*
G02X2584Y8714I-136J-216D01*
G03X2516I-34J-21D01*
G02X2436Y8634I-216J136D01*
G37*
G36*
G01X20104Y8302D02*
G03X20109Y8366I-21J34D01*
G02X20326Y8348I121J134D01*
G03X20321Y8284I21J-34D01*
G02X20104Y8302I-121J-134D01*
G37*
G36*
G01X16930Y7284D02*
G03X16875Y7257I-16J-37D01*
G02X16770Y7466I-175J43D01*
G03X16825Y7493I16J37D01*
G02X16930Y7284I175J-43D01*
G37*
G36*
G01X2936Y7634D02*
G03Y7566I21J-34D01*
G02X2664I-136J-216D01*
G03Y7634I-21J34D01*
G02X2936I136J216D01*
G37*
G36*
G01X13908Y6457D02*
G03X13898Y6402I24J-32D01*
G02X13642Y6445I-148J-102D01*
G03X13652Y6499I-24J32D01*
G02X13908Y6457I148J102D01*
G37*
G36*
G01X2436Y6634D02*
G03Y6566I21J-34D01*
G02X2164I-136J-216D01*
G03Y6634I-21J34D01*
G02X2436I136J216D01*
G37*
G36*
G01X8206Y6438D02*
Y6118D01*
G02X7916I-145J-107D01*
G01Y6318D01*
X7905Y6329D01*
Y10343D01*
G02Y10557I145J107D01*
G01Y13841D01*
G02X8195Y13871I134J120D01*
G01Y10557D01*
G02Y10343I-145J-107D01*
G01Y6449D01*
X8206Y6438D01*
G37*
G36*
G01X16378Y6000D02*
G03X16327Y5968I-11J-38D01*
G02X16200Y6173I-177J32D01*
G03X16250Y6205I11J38D01*
G02X16378Y6000I177J-32D01*
G37*
G36*
G01X17020Y6591D02*
Y5609D01*
X17021Y5606D01*
G02X16679I-171J-56D01*
G01X16680Y5609D01*
Y6591D01*
X16679Y6594D01*
G02X17021I171J56D01*
G01X17020Y6591D01*
G37*
G36*
G01X2936Y5634D02*
G03Y5566I21J-34D01*
G02X2664I-136J-216D01*
G03Y5634I-21J34D01*
G02X2936I136J216D01*
G37*
G36*
G01X2436Y4634D02*
G03Y4566I21J-34D01*
G02X2164I-136J-216D01*
G03Y4634I-21J34D01*
G02X2436I136J216D01*
G37*
G36*
G01X49170Y4463D02*
G02Y4117I100J-173D01*
G02Y4463I-100J173D01*
G37*
G36*
G01X8795Y4945D02*
G03X8836Y4905I40J0D01*
G02X8505Y4747I14J-455D01*
G01Y7293D01*
G02X8795I145J107D01*
G01Y4945D01*
G37*
G36*
G01X42492Y3750D02*
G03X42450Y3708I-2J-40D01*
G02X42258Y3900I-200J-8D01*
G03X42300Y3942I2J40D01*
G02X42492Y3750I200J8D01*
G37*
G36*
G01X16604Y3463D02*
G03X16546I-29J-27D01*
G02Y3737I-146J137D01*
G03X16604I29J27D01*
G02Y3463I146J-137D01*
G37*
G36*
G01X39430Y4730D02*
X38880Y5280D01*
Y5341D01*
X38879Y5344D01*
G02X39229Y5418I171J56D01*
G01X39230Y5411D01*
X39770Y4870D01*
Y3109D01*
X39771Y3106D01*
G02X39429I-171J-56D01*
G01X39430Y3109D01*
Y3180D01*
G03X39364Y3211I-40J0D01*
G02Y3489I-114J139D01*
G03X39430Y3520I25J31D01*
G01Y4730D01*
G37*
G36*
G01X49239Y3068D02*
G03X49241Y3042I16J-12D01*
G02X48941Y3021I-141J-142D01*
G03X48939Y3048I-16J12D01*
G02X49239Y3068I141J142D01*
G37*
G36*
G01X43042Y2590D02*
X43460Y3008D01*
Y4074D01*
G03X43407Y4111I-40J0D01*
G02X43229Y4415I-57J171D01*
G03Y4475I-27J30D01*
G02X43526Y4646I121J133D01*
G01X43530Y4630D01*
X43645D01*
X43830Y4445D01*
Y2855D01*
X43195Y2220D01*
X42930D01*
X42926Y2204D01*
G02X42676Y2078I-176J38D01*
G03X42622Y2053I-16J-37D01*
G02X42571Y1975I-172J54D01*
G03Y1915I27J-30D01*
G02X42329I-121J-133D01*
G03Y1975I-27J30D01*
G02X42524Y2272I121J133D01*
G03X42578Y2297I16J37D01*
G02X42629Y2375I172J-54D01*
G03Y2435I-27J30D01*
G02X42926Y2606I121J133D01*
G01X42930Y2590D01*
X43042D01*
G37*
G36*
G01X32245Y4236D02*
Y1600D01*
G02X31755I-245J0D01*
G01Y4236D01*
G02X31730Y4350I245J114D01*
G01Y5050D01*
G02X31983Y5320I270J0D01*
G03X32020Y5362I-3J40D01*
G02X32270Y5207I180J11D01*
G03X32249Y5155I16J-37D01*
G02X32270Y5050I-249J-105D01*
G01Y4350D01*
G02X32245Y4236I-270J0D01*
G37*
G36*
G01X41789Y10666D02*
X41980Y10475D01*
Y8510D01*
G03X42032Y8472I40J0D01*
G02X42236Y8417I58J-192D01*
G03X42294I29J27D01*
G02Y8143I146J-137D01*
G03X42236I-29J-27D01*
G02X42032Y8089I-146J137D01*
G03X41980Y8050I-12J-38D01*
G01Y1675D01*
X41880Y1575D01*
Y1337D01*
G02X41520I-180J-87D01*
G01Y1725D01*
X41620Y1825D01*
Y3698D01*
G03X41558Y3732I-40J0D01*
G02Y4068I-108J168D01*
G03X41620Y4102I22J34D01*
G01Y4630D01*
G03X41554Y4661I-40J0D01*
G02Y4939I-114J139D01*
G03X41620Y4970I25J31D01*
G01Y5405D01*
G03X41557Y5437I-40J0D01*
G02Y5763I-117J163D01*
G03X41620Y5795I23J33D01*
G01Y5955D01*
G03X41557Y5987I-40J0D01*
G02Y6313I-117J163D01*
G03X41620Y6345I23J33D01*
G01Y6455D01*
G03X41557Y6487I-40J0D01*
G02Y6813I-117J163D01*
G03X41620Y6845I23J33D01*
G01Y10325D01*
X41534Y10411D01*
X41530Y10412D01*
G02X41788Y10670I70J188D01*
G01X41789Y10666D01*
G37*
G36*
G01X6828Y674D02*
G03X6874Y628I40J-6D01*
G02X6722Y476I26J-178D01*
G03X6676Y522I-40J6D01*
G02X6828Y674I-26J178D01*
G37*
G36*
G01X13820Y1359D02*
X13821Y1356D01*
G02X13479I-171J-56D01*
G01X13480Y1359D01*
Y4276D01*
X12634Y5122D01*
G03X12577I-28J-28D01*
G02X12378Y5415I-127J127D01*
G01X12390Y5420D01*
Y6480D01*
G03X12350Y6520I-40J0D01*
G02Y6880I0J180D01*
G03X12390Y6920I0J40D01*
G01Y7697D01*
G03X12322Y7725I-40J0D01*
G01X11971Y7375D01*
G03X11982Y7311I28J-28D01*
G02X11739Y7069I-82J-161D01*
G03X11675Y7079I-36J-18D01*
G01X11645Y7049D01*
Y6413D01*
X11699Y6359D01*
G03X11759Y6362I28J28D01*
G02X12012Y6109I141J-112D01*
G03X12009Y6049I25J-31D01*
G01X12103Y5955D01*
Y5300D01*
G02X11858Y5055I-245J0D01*
G01X11198D01*
X11027Y5227D01*
G02X11373Y5573I173J173D01*
G01X11402Y5545D01*
X11613D01*
Y5752D01*
X11155Y6210D01*
Y6480D01*
X10709D01*
X10706Y6479D01*
G02Y6821I-56J171D01*
G01X10709Y6820D01*
X11155D01*
Y7038D01*
G03X11086Y7066I-40J0D01*
G02X11114Y7282I-128J126D01*
G03X11177Y7274I35J20D01*
G01X11355Y7451D01*
G03X11322Y7519I-28J28D01*
G02X11136Y7624I-22J179D01*
G03X11063Y7624I-36J-17D01*
G02X11064Y7775I-163J76D01*
G03X11137Y7774I36J17D01*
G02X11479Y7677I163J-76D01*
G03X11547Y7644I40J-5D01*
G01X12060Y8157D01*
Y8251D01*
G03X11990Y8278I-40J0D01*
G02X11721Y8517I-132J122D01*
G03Y8543I-15J13D01*
G02X11990Y8782I137J117D01*
G03X12060Y8809I29J27D01*
G01Y8894D01*
X11855Y9098D01*
Y10350D01*
G03X11836Y10370I-20J0D01*
G02X11944Y10704I14J180D01*
G03X12005Y10738I21J34D01*
G01Y11662D01*
G03X11944Y11696I-40J0D01*
G02Y12004I-94J154D01*
G03X12005Y12038I21J34D01*
G01Y12756D01*
X11497Y13264D01*
G03X11429Y13240I-28J-28D01*
G02X11230Y13439I-179J20D01*
G03X11254Y13507I-4J40D01*
G01X11205Y13556D01*
Y14578D01*
X11111D01*
X11108Y14577D01*
G02Y14920I-56J171D01*
G01X11111Y14919D01*
X11205D01*
Y15302D01*
X11304Y15401D01*
G03X11280Y15469I-28J28D01*
G02X11136Y15574I19J179D01*
G03X11063Y15574I-36J-17D01*
G02X11064Y15725I-163J76D01*
G03X11137Y15724I36J17D01*
G02X11479Y15668I163J-76D01*
G03X11547Y15644I40J4D01*
G01X12255Y16352D01*
Y19052D01*
X12299Y19096D01*
G03X12285Y19130I-14J14D01*
G01X12250D01*
G02Y19670I0J270D01*
G01X12800D01*
G02X12938Y19708I138J-232D01*
G01X13600D01*
G02Y19168I0J-270D01*
G01X13064D01*
X12986Y19090D01*
G03X12995Y19026I28J-28D01*
G02X12804Y18674I-95J-176D01*
G03X12745Y18639I-19J-35D01*
G01Y17388D01*
G03X12806Y17354I40J0D01*
G02Y17046I94J-154D01*
G03X12745Y17012I-21J-34D01*
G01Y16148D01*
X11936Y15339D01*
G03X11952Y15272I28J-28D01*
G02X11765Y14980I-52J-172D01*
G03X11695Y14954I-30J-27D01*
G01Y14346D01*
G03X11765Y14320I40J0D01*
G02Y14080I135J-120D01*
G03X11695Y14054I-30J-27D01*
G01Y13759D01*
X11929Y13526D01*
X12098Y13695D01*
X13343D01*
G02X13604Y13644I107J-145D01*
G03X13673Y13645I34J21D01*
G02X14047Y13547I174J-98D01*
G01Y9436D01*
X14450Y9033D01*
Y5817D01*
X14158Y5525D01*
X13775D01*
G02X13748Y5527I1J200D01*
G03X13726Y5511I-3J-20D01*
G02X13556Y5730I-176J39D01*
G03X13576Y5748I1J20D01*
G02X13775Y5925I199J-23D01*
G01X13992D01*
X14050Y5983D01*
Y8867D01*
X13647Y9270D01*
Y13395D01*
G03X13578Y13423I-40J0D01*
G02X13343Y13405I-128J127D01*
G01X13088D01*
G03X13054Y13344I0J-40D01*
G02X12746I-154J-94D01*
G03X12712Y13405I-34J21D01*
G01X12218D01*
X12134Y13321D01*
X12495Y12959D01*
Y12070D01*
G03X12538Y12030I40J0D01*
G02X12658Y11995I12J-180D01*
G03X12721Y12022I24J32D01*
G02X12792Y11855I179J-22D01*
G03X12729Y11828I-24J-32D01*
G02X12721Y11794I-179J22D01*
G01X12720Y11791D01*
Y10570D01*
X12920Y10370D01*
Y10151D01*
G03X12977Y10114I40J0D01*
G02Y9786I73J-164D01*
G03X12920Y9749I-16J-37D01*
G01Y9680D01*
X12730Y9490D01*
Y7368D01*
G03X12776Y7328I40J0D01*
G02Y6971I24J-179D01*
G03X12730Y6932I-5J-40D01*
G01Y6468D01*
G03X12776Y6428I40J0D01*
G02Y6072I24J-179D01*
G03X12730Y6032I-5J-40D01*
G01Y5508D01*
X13820Y4418D01*
Y1359D01*
G37*
G36*
G01X20305Y3314D02*
G02X20155I-75J-164D01*
G03Y3386I-17J36D01*
G02X20305I75J164D01*
G03Y3314I17J-36D01*
G37*
G36*
G01X46870Y3350D02*
G02X46330I-270J0D01*
G01Y5758D01*
X45630Y6458D01*
Y12712D01*
X46180Y13262D01*
Y17912D01*
X46359Y18091D01*
G02X46741Y17709I191J-191D01*
G01X46720Y17688D01*
Y13970D01*
G03X46786Y13939I40J0D01*
G02X46908Y13980I114J-139D01*
G03X46950Y14020I2J40D01*
G01Y15550D01*
G02X47246Y15726I200J0D01*
G03X47305Y15761I19J35D01*
G01Y18937D01*
X47270Y18972D01*
Y19183D01*
X46984Y19469D01*
Y19926D01*
X46971Y19930D01*
G02X47169Y20216I61J170D01*
G03X47231I31J26D01*
G02X47402Y19923I138J-116D01*
G01X47395Y19922D01*
X47374Y19901D01*
Y19631D01*
X47676Y19329D01*
X47686Y19330D01*
G02X47861Y19231I14J-180D01*
G01X47862Y19228D01*
X48230Y18860D01*
Y13860D01*
X49070Y13020D01*
Y11928D01*
G03X49148Y11915I40J0D01*
G02Y11285I1002J-315D01*
G03X49070Y11272I-38J-12D01*
G01Y10070D01*
X49170Y9970D01*
Y9805D01*
G03X49242Y9781I40J0D01*
G02Y9219I358J-281D01*
G03X49170Y9195I-31J-25D01*
G01Y7450D01*
X48400Y6680D01*
Y6489D01*
G03X48467Y6459I40J0D01*
G02X48462Y6165I133J-149D01*
G03X48397Y6152I-28J-29D01*
G02X48059Y6276I-167J68D01*
G01X48060Y6279D01*
Y6820D01*
X48830Y7590D01*
Y8136D01*
G03X48760Y8163I-40J0D01*
G02Y8404I-134J121D01*
G03X48830Y8431I30J27D01*
G01Y9140D01*
G03X48762Y9169I-40J0D01*
G02X48795Y9797I-312J331D01*
G01X48801Y9790D01*
X48830D01*
Y9830D01*
X48730Y9930D01*
Y12880D01*
X47890Y13720D01*
Y13830D01*
G03X47850Y13870I-40J0D01*
G02X47756Y13896I0J180D01*
G03X47695Y13862I-21J-34D01*
G01Y11985D01*
G03X47765Y11958I40J0D01*
G02Y11342I335J-308D01*
G03X47695Y11315I-29J-27D01*
G01Y10849D01*
X47451Y10605D01*
X47342D01*
X47325Y10588D01*
X47324Y10583D01*
G02X47060Y10475I-174J48D01*
G03X47000Y10441I-20J-35D01*
G01Y7973D01*
X47320Y7653D01*
Y6547D01*
X47151Y6378D01*
G02X47063Y6327I-142J142D01*
G03X47045Y6260I11J-39D01*
G01X47095Y6210D01*
Y6070D01*
X47997Y5168D01*
X48003Y5167D01*
G02X47793Y4957I-33J-177D01*
G01X47792Y4963D01*
X46938Y5816D01*
G03X46870Y5788I-28J-28D01*
G01Y3350D01*
G37*
G36*
G01X15512Y5022D02*
X15511Y5019D01*
G02X15230Y5234I-161J81D01*
G01Y5333D01*
G03X15183Y5373I-40J0D01*
G02Y5727I-33J177D01*
G03X15230Y5767I7J39D01*
G01Y5833D01*
G03X15183Y5873I-40J0D01*
G02Y6227I-33J177D01*
G03X15230Y6267I7J39D01*
G01Y7029D01*
G03X15163Y7059I-40J0D01*
G02Y7328I-120J135D01*
G03X15230Y7358I27J30D01*
G01Y10267D01*
G02X15531Y10461I140J113D01*
G01X15532Y10458D01*
X15570Y10420D01*
Y8601D01*
G03X15627Y8564I40J0D01*
G02X15849Y8299I73J-165D01*
G03X15858Y8244I33J-22D01*
G02X15636Y7961I-108J-144D01*
G03X15570Y7930I-25J-31D01*
G01Y5080D01*
X15512Y5022D01*
G37*
G36*
G01X23050Y11000D02*
G02X22850Y10800I0J-200D01*
G03X22804Y10840I-40J0D01*
G02X22650Y11146I-27J178D01*
G01X22670Y11166D01*
Y11782D01*
G03X22624Y11822I-40J0D01*
G02X22436Y11925I-24J179D01*
G03X22364I-36J-17D01*
G02Y12075I-164J75D01*
G03X22436I36J17D01*
G02X22624Y12178I164J-75D01*
G03X22670Y12218I5J40D01*
G01Y16900D01*
G02X23030I180J0D01*
G01Y11020D01*
G03X23050Y11000I20J0D01*
G37*
G36*
G01X13911Y14332D02*
G02X13642Y14395I-161J-82D01*
G03X13652Y14449I-24J32D01*
G02X13886Y14710I148J102D01*
G01X15134D01*
X15340Y14916D01*
Y15230D01*
G03X15300Y15270I-40J0D01*
G02X15253Y15276I0J180D01*
G03X15207Y15220I-10J-39D01*
G02X15090Y15318I-163J-77D01*
G03X15137Y15373I10J39D01*
G02X15300Y15630I163J77D01*
G03X15340Y15670I0J40D01*
G01Y15930D01*
G03X15300Y15970I-40J0D01*
G02X15273Y16328I0J180D01*
G01X15290Y16331D01*
Y16467D01*
G02X15284Y16620I160J83D01*
G03X15257Y16675I-37J16D01*
G02X15466Y16780I43J175D01*
G03X15493Y16725I37J-16D01*
G02X15565Y16688I-43J-175D01*
G03X15629Y16707I26J31D01*
G02X15685Y16512I171J-57D01*
G03X15621Y16493I-26J-31D01*
G02X15610Y16467I-171J56D01*
G01Y16349D01*
X15660Y16299D01*
Y14784D01*
X15266Y14390D01*
X13946D01*
G03X13911Y14332I0J-40D01*
G37*
G36*
G01X31198Y14673D02*
G02X31071Y14520I52J-173D01*
G03X31018Y14562I-40J4D01*
G02X30790Y14870I-68J188D01*
G01Y17117D01*
G02X31015Y17368I160J83D01*
G03X31070Y17404I14J37D01*
G02X31364Y17539I180J-4D01*
G03X31430Y17570I25J31D01*
G01Y17783D01*
G03X31383Y17823I-40J0D01*
G02X31336Y18180I-33J177D01*
G03X31362Y18248I-3J40D01*
G01X31304Y18305D01*
X30184D01*
X30181Y18304D01*
G02Y18646I-56J171D01*
G01X30184Y18645D01*
X31446D01*
X31732Y18358D01*
G03X31797Y18371I28J28D01*
G02X32101Y18416I166J-71D01*
G03X32162I31J26D01*
G02Y18184I138J-116D01*
G03X32101I-31J-26D01*
G02X31838Y18170I-138J116D01*
G03X31770Y18142I-28J-29D01*
G01Y17306D01*
G02X31658Y17008I-170J-105D01*
G03X31641Y16942I12J-38D01*
G02X31442Y16992I-141J-142D01*
G03X31459Y17058I-12J38D01*
G02X31400Y17208I141J142D01*
G03X31340Y17244I-40J2D01*
G02X31185Y17232I-90J156D01*
G03X31130Y17196I-14J-37D01*
G02X31110Y17117I-180J4D01*
G01Y16014D01*
G03X31159Y15976I40J0D01*
G02Y15625I41J-175D01*
G03X31110Y15585I-9J-39D01*
G01Y14870D01*
G02X31148Y14718I-160J-120D01*
G03X31198Y14673I39J-6D01*
G37*
G36*
G01X20378Y15251D02*
G02X20182I-98J-151D01*
G03Y15319I-22J34D01*
G02X20378I98J151D01*
G03Y15251I22J-34D01*
G37*
G36*
G01X22022Y18933D02*
G02X21669Y18906I-179J20D01*
G03X21616Y18932I-39J-10D01*
G02X21638Y19257I-66J168D01*
G03X21698Y19292I20J35D01*
G01Y19353D01*
X21898Y19554D01*
G03X21876Y19622I-28J28D01*
G02X22035Y19920I25J179D01*
G03X22105Y19946I30J27D01*
G01Y20254D01*
G03X22035Y20280I-40J0D01*
G02Y20519I-135J120D01*
G03X22105Y20546I30J27D01*
G01Y20593D01*
X22101Y20598D01*
G02X22395Y20593I149J102D01*
G01Y19640D01*
X21988Y19233D01*
Y19138D01*
X22023D01*
X22028Y19152D01*
G02X22087Y18960I173J-52D01*
G03X22022Y18933I-25J-31D01*
G37*
G36*
G01X13760Y19755D02*
X10040D01*
X9590Y20205D01*
X9403D01*
G02X9095Y20392I-153J95D01*
G03X9066Y20452I-34J20D01*
G02X9200Y20820I28J198D01*
G03X9261Y20854I21J34D01*
G01Y20866D01*
X9272Y20877D01*
X9273Y20883D01*
G02X9599Y20748I177J-33D01*
G01X10202Y20145D01*
X10381D01*
G03X10419Y20198I0J40D01*
G02X10800I190J62D01*
G03X10838Y20145I38J-12D01*
G01X11375D01*
G03X11404Y20213I0J40D01*
G02X11717Y20461I146J137D01*
G03X11783I33J22D01*
G02X12096Y20213I167J-111D01*
G03X12125Y20145I29J-27D01*
G01X13598D01*
X14098Y20645D01*
X16741D01*
X17095Y20291D01*
Y20178D01*
X17096Y20178D01*
G02X16931Y19884I-27J-178D01*
G03X16870I-31J-26D01*
G02X16624Y20145I-138J116D01*
G03X16629Y20205I-24J32D01*
G01X16579Y20255D01*
X14260D01*
X13760Y19755D01*
G37*
G36*
G01X41995Y20457D02*
G02X41705I-145J-107D01*
G01Y22490D01*
X41698Y22497D01*
G03X41629Y22465I-28J-28D01*
G02X41465Y22630I-179J-15D01*
G03X41497Y22698I3J40D01*
G01X41455Y22740D01*
Y24425D01*
G03X41387Y24454I-40J0D01*
G02Y24746I-137J146D01*
G03X41455Y24775I27J29D01*
G01Y24904D01*
G03X41385Y24931I-40J0D01*
G02Y25170I-135J119D01*
G03X41455Y25196I30J27D01*
G01Y26310D01*
X41990Y26845D01*
X42043D01*
X42048Y26849D01*
G02X42098Y26528I102J-149D01*
G01X42086Y26531D01*
X41745Y26190D01*
Y25961D01*
G03X41804Y25926I40J0D01*
G02X42049Y25884I96J-176D01*
G03X42078Y25882I15J13D01*
G02Y25618I122J-132D01*
G03X42049Y25616I-14J-15D01*
G02X41804Y25574I-149J134D01*
G03X41745Y25539I-19J-35D01*
G01Y22860D01*
X41995Y22610D01*
Y22596D01*
G03X42065Y22569I40J0D01*
G02Y22331I135J-119D01*
G03X41995Y22304I-30J-27D01*
G01Y20457D01*
G37*
G36*
G01X27314Y21025D02*
G02Y21175I-164J75D01*
G03X27386I36J17D01*
G02Y21025I164J-75D01*
G03X27314I-36J-17D01*
G37*
G36*
G01X29750Y24900D02*
X29517D01*
X28848Y25568D01*
G03X28780Y25541I-28J-28D01*
G02X28596Y25726I-180J4D01*
G03X28623Y25794I-1J40D01*
G01X28617Y25800D01*
X27867D01*
X27640Y26027D01*
Y26316D01*
G03X27591Y26354I-40J0D01*
G02Y26706I-41J175D01*
G03X27640Y26744I9J39D01*
G01Y26797D01*
X27450Y26987D01*
Y27120D01*
G02X27951Y27120I250J380D01*
G03X27944Y27058I22J-33D01*
G01X28002Y27001D01*
G02X28084Y26670I98J-151D01*
G03X28040Y26631I-4J-40D01*
G01Y26200D01*
X28783D01*
X29683Y25300D01*
X29750D01*
G02Y24900I0J-200D01*
G37*
G36*
G01X40043Y25275D02*
G02X39834Y25171I-43J-175D01*
G03X39807Y25225I-37J16D01*
G02X39742Y25544I43J175D01*
G03X39751Y25599I-24J32D01*
G02X39778Y25832I149J101D01*
G03X39776Y25893I-27J29D01*
G02X39932Y26248I124J157D01*
G03X39977Y26298I6J39D01*
G02X40130Y26171I173J52D01*
G03X40088Y26118I-4J-40D01*
G02X40024Y25893I-188J-68D01*
G03X40022Y25832I25J-31D01*
G02X40008Y25556I-122J-132D01*
G03X39999Y25501I24J-32D01*
G02X40016Y25330I-149J-101D01*
G03X40043Y25275I37J-16D01*
G37*
G36*
G01X37450Y27808D02*
G02X37358Y27968I-200J-8D01*
G03X37420Y28002I22J34D01*
G02X37780I180J-2D01*
G03X37842Y27968I40J0D01*
G02X37750Y27808I108J-168D01*
G03X37690Y27844I-40J2D01*
G02X37510I-90J156D01*
G03X37450Y27808I-20J-35D01*
G37*
G36*
G01X45350D02*
G02X45258Y27968I-200J-8D01*
G03X45320Y28002I22J34D01*
G02X45680I180J-2D01*
G03X45742Y27968I40J0D01*
G02X45650Y27808I108J-168D01*
G03X45590Y27844I-40J2D01*
G02X45410I-90J156D01*
G03X45350Y27808I-20J-35D01*
G37*
G36*
G01X49069Y13684D02*
G02X48890Y13975I-138J116D01*
G01X48905Y13979D01*
Y19971D01*
X48890Y19975D01*
G02X49069Y20266I42J175D01*
G03X49130I31J26D01*
G02X49310Y19975I138J-116D01*
G01X49295Y19971D01*
Y19289D01*
G03X49352Y19253I40J0D01*
G02X49579Y18865I98J-203D01*
G03X49582Y18797I23J-33D01*
G02X49669Y18725I-132J-247D01*
G03X49731I31J25D01*
G02X49818Y18797I219J-175D01*
G03X49822Y18865I-19J35D01*
G02X50078I129J185D01*
G03X50082Y18797I23J-33D01*
G02Y18303I-132J-247D01*
G03X50078Y18235I19J-35D01*
G02Y17865I-129J-185D01*
G03X50082Y17797I23J-33D01*
G02X50125Y17331I-132J-247D01*
G03Y17269I25J-31D01*
G02X50105Y16817I-175J-219D01*
G03Y16783I11J-17D01*
G02X50126Y16768I-154J-234D01*
G01X50572D01*
X50605Y16802D01*
Y19248D01*
X49455Y20398D01*
Y22240D01*
G03X49403Y22278I-40J0D01*
G02Y22622I-53J172D01*
G03X49455Y22660I12J38D01*
G01Y22698D01*
X48999Y23155D01*
X47650D01*
G02Y23645I0J245D01*
G01X49201D01*
X49785Y23062D01*
G03X49853Y23083I28J28D01*
G02X49996Y22857I197J-33D01*
G03X49945Y22819I-11J-38D01*
G01Y22781D01*
G03X49996Y22743I40J0D01*
G02Y22357I54J-193D01*
G03X49945Y22319I-11J-38D01*
G01Y20602D01*
X51095Y19452D01*
Y16598D01*
X50775Y16278D01*
X50209D01*
G03X50177Y16215I0J-40D01*
G02X50125Y15831I-227J-165D01*
G03Y15769I25J-31D01*
G02Y15331I-175J-219D01*
G03Y15269I25J-31D01*
G02X50082Y14803I-175J-219D01*
G03X50078Y14735I19J-35D01*
G02X49822I-129J-185D01*
G03X49818Y14803I-23J33D01*
G02X49703Y14918I132J247D01*
G03X49635Y14922I-35J-19D01*
G02X49352Y14847I-185J128D01*
G03X49295Y14811I-17J-36D01*
G01Y14789D01*
G03X49352Y14753I40J0D01*
G02Y14347I98J-203D01*
G03X49295Y14311I-17J-36D01*
G01Y13979D01*
X49310Y13975D01*
G02X49130Y13684I-42J-175D01*
G03X49069I-31J-26D01*
G37*
G36*
G01X41300Y11134D02*
G02X41120Y11425I-138J116D01*
G01X41135Y11429D01*
Y13490D01*
X41005Y13620D01*
Y14922D01*
G03X40952Y14960I-40J0D01*
G02X40748Y15291I-62J190D01*
G03Y15319I-14J14D01*
G02X40976Y15641I142J141D01*
G03X41005Y15659I9J18D01*
G01Y15687D01*
X40920Y15772D01*
Y16128D01*
X41005Y16213D01*
Y17759D01*
X41004Y17760D01*
Y19971D01*
X40989Y19975D01*
G02X41169Y20266I43J175D01*
G03X41230I31J26D01*
G02X41410Y19975I138J-116D01*
G01X41394Y19971D01*
Y18546D01*
G03X41462Y18518I40J0D01*
G01X41555Y18610D01*
Y18793D01*
G02X41823Y19032I145J107D01*
G03X41877I27J29D01*
G02X42095Y18747I123J-132D01*
G01Y18470D01*
G03X42138Y18430I40J0D01*
G02X42321Y18194I12J-180D01*
G01X42320Y18191D01*
Y18118D01*
X42330Y18108D01*
Y17792D01*
X42320Y17782D01*
Y16080D01*
X42336Y16076D01*
G02X42316Y15721I-36J-176D01*
G01X42309Y15720D01*
X42290Y15701D01*
X42320Y15670D01*
Y13623D01*
G03X42375Y13586I40J0D01*
G02Y13214I75J-186D01*
G03X42320Y13177I-15J-37D01*
G01Y11709D01*
X42321Y11706D01*
G02X42016Y11530I-171J-56D01*
G03X41946Y11511I-30J-27D01*
G02X41716Y11353I-196J39D01*
G03X41671Y11302I-7J-39D01*
G02X41361Y11134I-173J-52D01*
G03X41300I-31J-26D01*
G37*
G36*
G01X17735Y6470D02*
G02X17375I-180J0D01*
G01Y9371D01*
X17170Y9575D01*
Y9973D01*
G03X17097Y9996I-40J0D01*
G02Y10204I-147J104D01*
G03X17170Y10227I33J23D01*
G01Y15975D01*
X17123Y16023D01*
G02X17377Y16277I127J127D01*
G01X17530Y16125D01*
Y16052D01*
G03X17592Y16018I40J0D01*
G02Y15682I108J-168D01*
G03X17530Y15648I-22J-34D01*
G01Y11085D01*
G03X17585Y11048I40J0D01*
G02X17821Y10937I65J-168D01*
G01X17822Y10932D01*
X18280Y10475D01*
Y6900D01*
G02X17920I-180J0D01*
G01Y7124D01*
G03X17867Y7161I-40J0D01*
G02X17779Y7151I-67J189D01*
G03X17735Y7111I-4J-40D01*
G01Y6470D01*
G37*
G36*
G01X29969Y4175D02*
G02X29575Y4569I-219J175D01*
G03Y4631I-25J31D01*
G02Y5069I175J219D01*
G03Y5131I-25J31D01*
G02Y5569I175J219D01*
G03Y5631I-25J31D01*
G02Y6069I175J219D01*
G03Y6131I-25J31D01*
G02X29476Y6406I175J219D01*
G01X29478Y6417D01*
X29245Y6650D01*
Y6764D01*
G03X29177Y6792I-40J0D01*
G02Y7048I-127J128D01*
G03X29245Y7076I28J28D01*
G01Y7293D01*
G02X29511Y7533I145J107D01*
G03X29540Y7535I13J15D01*
G02X29575Y7569I211J-185D01*
G03Y7631I-25J31D01*
G02Y8069I175J219D01*
G03Y8131I-25J31D01*
G02Y8569I175J219D01*
G03Y8631I-25J31D01*
G02X29506Y8711I175J219D01*
G03X29435Y8708I-35J-20D01*
G02X29408Y8896I-165J72D01*
G03X29477Y8913I31J26D01*
G02X29575Y9069I273J-63D01*
G03Y9131I-25J31D01*
G02X29618Y9597I175J219D01*
G03X29622Y9665I-19J35D01*
G02Y10035I128J185D01*
G03X29618Y10103I-23J33D01*
G02X29575Y10569I132J247D01*
G03Y10631I-25J31D01*
G02Y11069I175J219D01*
G03Y11131I-25J31D01*
G02X29618Y11597I175J219D01*
G03X29622Y11665I-19J35D01*
G02Y12035I128J185D01*
G03X29618Y12103I-23J33D01*
G02X29575Y12569I132J247D01*
G03Y12631I-25J31D01*
G02Y13069I175J219D01*
G03Y13131I-25J31D01*
G02Y13569I175J219D01*
G03Y13631I-25J31D01*
G02X29618Y14097I175J219D01*
G03X29622Y14165I-19J35D01*
G02X29935Y14478I128J185D01*
G03X30003Y14482I33J23D01*
G02X30075Y14569I247J-132D01*
G03Y14631I-25J31D01*
G02X30003Y14718I175J219D01*
G03X29935Y14722I-35J-19D01*
G02Y14978I-185J129D01*
G03X30003Y14982I33J23D01*
G02X30075Y15069I247J-132D01*
G03Y15131I-25J31D01*
G02X30003Y15218I175J219D01*
G03X29935Y15222I-35J-19D01*
G02Y15478I-185J129D01*
G03X30003Y15482I33J23D01*
G02X30075Y15569I247J-132D01*
G03Y15631I-25J31D01*
G02X30003Y15718I175J219D01*
G03X29935Y15722I-35J-19D01*
G02Y15978I-185J128D01*
G03X30003Y15982I33J23D01*
G02X30075Y16069I247J-132D01*
G03Y16131I-25J31D01*
G02X30003Y16218I175J219D01*
G03X29935Y16222I-35J-19D01*
G02Y16478I-185J128D01*
G03X30003Y16482I33J23D01*
G02X30425Y16131I247J-132D01*
G03Y16069I25J-31D01*
G02Y15631I-175J-219D01*
G03Y15569I25J-31D01*
G02Y15131I-175J-219D01*
G03Y15069I25J-31D01*
G02Y14631I-175J-219D01*
G03Y14569I25J-31D01*
G02X30382Y14103I-175J-219D01*
G03X30378Y14035I19J-35D01*
G02Y13665I-129J-185D01*
G03X30382Y13597I23J-33D01*
G02X30524Y13406I-132J-247D01*
G01X30528Y13390D01*
X30808D01*
X30935Y13263D01*
G03X31003Y13285I28J28D01*
G02X31234Y13053I197J-35D01*
G03X31213Y12985I7J-39D01*
G01X31255Y12943D01*
Y10894D01*
G03X31314Y10858I40J0D01*
G02X31545Y10593I86J-159D01*
G01Y9757D01*
G02X31314Y9492I-145J-107D01*
G03X31255Y9456I-19J-35D01*
G01Y6483D01*
G02X30975I-140J-113D01*
G01Y7479D01*
G03X30912Y7512I-40J0D01*
G02Y7808I-102J148D01*
G03X30975Y7841I23J33D01*
G01Y9497D01*
G03X30919Y9534I-40J0D01*
G02X30836Y9880I-70J166D01*
G03X30855Y9900I-2J20D01*
G01Y11140D01*
X30598Y11397D01*
G03X30530Y11366I-28J-28D01*
G02X30425Y11131I-280J-16D01*
G03Y11069I25J-31D01*
G02Y10631I-175J-219D01*
G03Y10569I25J-31D01*
G02X30382Y10103I-175J-219D01*
G03X30378Y10035I19J-35D01*
G02Y9665I-129J-185D01*
G03X30382Y9597I23J-33D01*
G02X30425Y9131I-132J-247D01*
G03Y9069I25J-31D01*
G02Y8631I-175J-219D01*
G03Y8569I25J-31D01*
G02Y8131I-175J-219D01*
G03Y8069I25J-31D01*
G02Y7631I-175J-219D01*
G03Y7569I25J-31D01*
G02X30382Y7103I-175J-219D01*
G03X30378Y7035I19J-35D01*
G02Y6665I-129J-185D01*
G03X30382Y6597I23J-33D01*
G02X30425Y6131I-132J-247D01*
G03Y6069I25J-31D01*
G02Y5631I-175J-219D01*
G03Y5569I25J-31D01*
G02Y5131I-175J-219D01*
G03Y5069I25J-31D01*
G02Y4631I-175J-219D01*
G03Y4569I25J-31D01*
G02X30031Y4175I-175J-219D01*
G03X29969I-31J-25D01*
G37*
G36*
G01X24853Y2553D02*
G02X24822Y1912I983J-369D01*
G03X24755Y1929I-39J-10D01*
G01X24495Y1670D01*
Y1507D01*
G02X24205I-145J-107D01*
G01Y1790D01*
X24485Y2070D01*
Y2351D01*
G03X24428Y2387I-40J0D01*
G02X24205Y2657I-78J163D01*
G01Y2910D01*
X25415Y4120D01*
Y4290D01*
X25230Y4475D01*
Y5120D01*
G03X25190Y5160I-40J0D01*
G01X25189D01*
G03X25149Y5116I0J-40D01*
G02X24813Y4954I-200J-16D01*
G03X24745Y4925I-27J-29D01*
G01Y4870D01*
X24408Y4533D01*
X24407Y4527D01*
G02X24197Y4737I-177J33D01*
G01X24203Y4738D01*
X24455Y4990D01*
Y5866D01*
G03X24383Y5890I-40J0D01*
G02X24060Y5996I-143J109D01*
G03X23998Y6029I-40J-1D01*
G02X23847Y6008I-98J151D01*
G03X23795Y5970I-12J-38D01*
G01Y3990D01*
X23703Y3898D01*
G03X23735Y3830I28J-28D01*
G02X23570Y3665I15J-180D01*
G03X23502Y3697I-40J3D01*
G01X23395Y3590D01*
Y3360D01*
G03X23447Y3322I40J0D01*
G02Y2978I53J-172D01*
G03X23395Y2940I-12J-38D01*
G01Y2190D01*
X23178Y1973D01*
X23177Y1967D01*
G02X22967Y2177I-177J33D01*
G01X22973Y2178D01*
X23105Y2310D01*
Y3710D01*
X23197Y3802D01*
G03X23165Y3870I-28J28D01*
G02X23330Y4035I-15J180D01*
G03X23398Y4003I40J-4D01*
G01X23505Y4110D01*
Y6360D01*
X23790Y6645D01*
X24006D01*
G03X24041Y6704I0J40D01*
G02X24216Y6968I159J85D01*
G03X24248Y7036I4J40D01*
G01X24141Y7144D01*
X24128Y7138D01*
G02X24157Y7445I-78J162D01*
G01X24250D01*
X24745Y6950D01*
Y5275D01*
G03X24813Y5246I40J0D01*
G02X24967Y5300I137J-146D01*
G03X25010Y5340I3J40D01*
G02X25014Y5380I180J1D01*
G01X25015Y5382D01*
Y6213D01*
G02X25295Y6439I145J107D01*
G03X25351Y6436I30J26D01*
G02X25444Y6478I119J-136D01*
G01X25451Y6479D01*
X25463Y6491D01*
G03X25447Y6558I-28J28D01*
G02X25357Y6621I53J172D01*
G03X25293I-32J-24D01*
G02X25191Y6906I-143J109D01*
G03X25240Y6944I9J39D01*
G01Y7220D01*
G03X25198Y7260I-40J0D01*
G02Y7620I-8J180D01*
G03X25240Y7660I2J40D01*
G01Y7730D01*
G03X25200Y7770I-40J0D01*
G02X25059Y8062I0J180D01*
G03X25058Y8088I-16J12D01*
G02X25198Y8390I132J122D01*
G03X25240Y8430I2J40D01*
G01Y9062D01*
X25030Y9272D01*
Y12298D01*
X25321Y12589D01*
X25322Y12596D01*
G02X25501Y12750I178J-26D01*
G03X25530Y12818I0J40D01*
G01X25405Y12943D01*
Y14690D01*
X25255Y14840D01*
Y15810D01*
X25405Y15960D01*
Y17297D01*
G02X25677Y17483I95J153D01*
G01X25678Y17477D01*
X25695Y17460D01*
Y15840D01*
X25545Y15690D01*
Y14960D01*
X25695Y14810D01*
Y13064D01*
X26485Y12274D01*
G03X26540Y12273I28J28D01*
G02X26851Y12220I135J-148D01*
G03X26907Y12204I35J19D01*
G02X27151Y11952I93J-154D01*
G03X27178Y11891I34J-22D01*
G02X27224Y11877I-29J-178D01*
G03X27280Y11914I16J37D01*
G01Y12320D01*
X27264Y12323D01*
G02X27433Y12622I36J177D01*
G03X27502Y12643I30J27D01*
G02X27553Y12750I198J-29D01*
G03X27551Y12807I-29J27D01*
G02X27811Y12832I119J135D01*
G03X27819Y12775I32J-25D01*
G02X27625Y12428I-119J-161D01*
G03X27570Y12391I-15J-37D01*
G01Y11535D01*
X27740Y11365D01*
Y10685D01*
X27450Y10395D01*
Y9555D01*
G03X27505Y9518I40J0D01*
G02Y9182I65J-168D01*
G03X27450Y9145I-15J-37D01*
G01Y8652D01*
G03X27501Y8613I40J0D01*
G02X27689Y8555I49J-173D01*
G03X27748Y8552I31J26D01*
G01X28620Y9425D01*
Y10375D01*
X28723Y10477D01*
G02X28980Y10225I127J-127D01*
G01Y9275D01*
X27960Y8255D01*
Y7325D01*
X28050Y7235D01*
Y6856D01*
G03X28108Y6821I40J0D01*
G02X28367Y6693I82J-161D01*
G01X28368Y6687D01*
X28535Y6520D01*
Y6318D01*
X28566Y6288D01*
G03X28623I28J28D01*
G02X28916Y6231I127J-127D01*
G03X28988Y6229I37J16D01*
G02X28984Y6079I162J-79D01*
G03X28912Y6081I-37J-16D01*
G02X28809Y5990I-162J79D01*
G01X28795Y5985D01*
Y5560D01*
G03X28847Y5522I40J0D01*
G02X28916Y5530I53J-172D01*
G03X28960Y5568I4J40D01*
G02X29124Y5380I180J-8D01*
G03X29080Y5342I-4J-40D01*
G02X28847Y5178I-180J8D01*
G03X28795Y5140I-12J-38D01*
G01Y4957D01*
G02X28472Y4825I-145J-107D01*
G01X28469Y4842D01*
X28430D01*
Y1925D01*
X28027Y1523D01*
G02X27773Y1777I-127J127D01*
G01X28070Y2075D01*
Y4875D01*
X27690Y5255D01*
Y6399D01*
G03X27642Y6439I-40J0D01*
G02X27428Y6582I-37J176D01*
G01X27427Y6588D01*
X27355Y6660D01*
X27353D01*
X27283Y6730D01*
G03X27215Y6701I-28J-28D01*
G01Y4710D01*
X27074Y4568D01*
G03X27102Y4500I28J-28D01*
G02X26965Y4152I-2J-200D01*
G03X26899Y4127I-27J-30D01*
G02X26878Y4063I-179J23D01*
G01X26871Y4050D01*
X27540Y3381D01*
Y2113D01*
G02X27260I-140J-113D01*
G01Y3265D01*
X26695Y3830D01*
X26587D01*
X26400Y4017D01*
Y4283D01*
X26430Y4313D01*
Y4833D01*
G03X26383Y4873I-40J0D01*
G02X26191Y4964I-33J177D01*
G03X26126Y4972I-35J-19D01*
G02X26004Y4910I-136J118D01*
G03X25985Y4890I2J-20D01*
G01Y4878D01*
G03X26038Y4840I40J0D01*
G02Y4460I62J-190D01*
G03X25985Y4422I-12J-38D01*
G01Y3980D01*
X24775Y2770D01*
Y2567D01*
G03X24853Y2553I40J0D01*
G37*
G36*
G01X43979Y1104D02*
G02X44007Y1660I-346J296D01*
G03X44080Y1682I33J23D01*
G01Y1715D01*
X43905Y1890D01*
Y4990D01*
X43490Y5405D01*
X42640D01*
X42305Y5740D01*
Y7540D01*
X42745Y7980D01*
X42975D01*
X43055Y8060D01*
Y11240D01*
X42905Y11390D01*
Y11458D01*
G03X42844Y11492I-40J0D01*
G02Y11802I-92J155D01*
G03X42905Y11837I20J34D01*
G01Y12108D01*
G03X42858Y12148I-40J0D01*
G02X42800Y12503I-33J177D01*
G03X42823Y12571I-5J40D01*
G01X42705Y12690D01*
Y13259D01*
X42730Y13284D01*
Y14150D01*
X42714Y14153D01*
G02X42903Y14479I36J197D01*
G03X42962Y14477I31J26D01*
G01X43005Y14520D01*
Y14703D01*
G03X42946Y14738I-40J0D01*
G02X42719Y15065I-96J176D01*
G03X42722Y15124I-26J30D01*
G02X42997Y15354I128J126D01*
G01X43003Y15345D01*
X43010D01*
X43137Y15219D01*
G03X43205Y15247I28J28D01*
G01Y16704D01*
G03X43135Y16730I-40J0D01*
G02X42821Y16828I-135J119D01*
G03X42758Y16855I-40J-5D01*
G02X42518Y17123I-108J145D01*
G03X42518Y17177I-29J27D01*
G02X42783Y17176I133J121D01*
G03X42783Y17122I29J-27D01*
G02X42829Y17022I-133J-122D01*
G03X42892Y16995I40J5D01*
G02X43135Y16970I108J-145D01*
G03X43205Y16996I30J27D01*
G01Y19921D01*
X43190Y19925D01*
G02X43369Y20216I42J175D01*
G03X43430I31J26D01*
G02X43611Y19925I138J-116D01*
G01X43595Y19921D01*
Y18960D01*
G03X43647Y18922I40J0D01*
G02X43877Y18783I53J-172D01*
G01X43878Y18777D01*
X44150Y18505D01*
Y17205D01*
X44145Y17200D01*
Y15160D01*
X44410Y14895D01*
G03X44477Y14914I28J28D01*
G02X44575Y15069I273J-64D01*
G03Y15131I-25J31D01*
G02X44476Y15406I175J219D01*
G01X44478Y15417D01*
X44245Y15650D01*
Y16740D01*
X44422Y16917D01*
X44423Y16923D01*
G02X44633Y16713I177J-33D01*
G01X44627Y16712D01*
X44535Y16620D01*
Y16558D01*
X44562D01*
X44568Y16563D01*
G02X44969Y16525I182J-213D01*
G03X45031I31J25D01*
G02X45364Y16606I219J-175D01*
G03X45420Y16644I16J37D01*
G02X45694Y16804I180J6D01*
G03X45755Y16838I21J34D01*
G01Y19443D01*
G02X46045I145J107D01*
G01Y14790D01*
X45516Y14260D01*
X45514Y14256D01*
G02X45382Y14103I-264J94D01*
G03X45379Y14035I19J-35D01*
G02Y13665I-129J-185D01*
G03X45382Y13597I23J-33D01*
G02X45425Y13131I-132J-247D01*
G03Y13069I25J-31D01*
G02X45382Y12603I-175J-219D01*
G03X45379Y12535I19J-35D01*
G02Y12165I-129J-185D01*
G03X45382Y12097I23J-33D01*
G02Y11603I-132J-247D01*
G03X45379Y11535I19J-35D01*
G02Y11165I-129J-185D01*
G03X45382Y11097I23J-33D01*
G02X45425Y10631I-132J-247D01*
G03Y10569I25J-31D01*
G02X45382Y10103I-175J-219D01*
G03X45379Y10035I19J-35D01*
G02Y9665I-129J-185D01*
G03X45382Y9597I23J-33D01*
G02Y9103I-132J-247D01*
G03X45379Y9035I19J-35D01*
G02Y8665I-129J-185D01*
G03X45382Y8597I23J-33D01*
G02X45425Y8131I-132J-247D01*
G03Y8069I25J-31D01*
G02X45382Y7603I-175J-219D01*
G03X45379Y7535I19J-35D01*
G02Y7165I-129J-185D01*
G03X45382Y7097I23J-33D01*
G02Y6603I-132J-247D01*
G03X45379Y6535I19J-35D01*
G02Y6165I-129J-185D01*
G03X45382Y6097I23J-33D01*
G02Y5603I-132J-247D01*
G03X45379Y5535I19J-35D01*
G02Y5165I-129J-185D01*
G03X45382Y5097I23J-33D01*
G02X45465Y5030I-132J-247D01*
G01X45675D01*
X46180Y4525D01*
Y3242D01*
X47599Y1823D01*
X47610Y1828D01*
G02X47339Y1556I156J-427D01*
G01X47344Y1568D01*
X45820Y3092D01*
Y4375D01*
X45525Y4670D01*
X45465D01*
X45459Y4663D01*
G02X45425Y4631I-209J186D01*
G03Y4569I25J-31D01*
G02X45031Y4175I-175J-219D01*
G03X44969I-31J-25D01*
G02X44523Y4186I-219J175D01*
G03X44450Y4163I-32J-23D01*
G01Y3594D01*
X46221Y1823D01*
X46233Y1828D01*
G02X45962Y1556I156J-427D01*
G01X45966Y1568D01*
X44263Y3271D01*
G03X44195Y3242I-28J-28D01*
G01Y2010D01*
X44370Y1835D01*
Y1232D01*
G02X44049Y1087I-145J-107D01*
G03X43979Y1104I-39J-8D01*
G37*
G36*
G01X36845Y1107D02*
G02X36555I-145J-107D01*
G01Y2280D01*
G03X36512Y2320I-40J0D01*
G02X36476Y2322I-12J180D01*
G03X36430Y2282I-5J-40D01*
G01Y1000D01*
G02X36092Y914I-180J0D01*
G03X36028Y923I-35J-19D01*
G02X35758Y939I-128J127D01*
G03X35699Y944I-32J-25D01*
G02X35398Y1042I-124J131D01*
G01X35397Y1048D01*
X35005Y1440D01*
Y1890D01*
X34663Y2231D01*
G03X34595Y2203I-28J-28D01*
G01Y1090D01*
X34528Y1023D01*
X34527Y1017D01*
G02X34291Y1220I-177J33D01*
G01X34305Y1225D01*
Y2490D01*
X34105Y2690D01*
Y4419D01*
G03X34054Y4457I-40J0D01*
G02X33900Y4824I-54J193D01*
G03X33908Y4886I-20J35D01*
G01X33855Y4940D01*
Y5690D01*
G03X33803Y5728I-40J0D01*
G02X33745Y5720I-53J172D01*
G03X33704Y5680I-1J-40D01*
G01Y3309D01*
X33705Y3306D01*
G02X33362I-171J-56D01*
G01X33363Y3309D01*
Y6124D01*
X33421Y6182D01*
G03X33405Y6248I-28J28D01*
G02X33283Y6456I55J172D01*
G01X33286Y6466D01*
X33160Y6592D01*
Y8252D01*
G03X33103Y8288I-40J0D01*
G02X32970Y8276I-83J182D01*
G03X32920Y8237I-10J-39D01*
G01Y6618D01*
X32930Y6608D01*
Y6292D01*
X32920Y6282D01*
Y5267D01*
G03X32967Y5227I40J0D01*
G02Y4873I33J-177D01*
G03X32920Y4833I-7J-39D01*
G01Y4434D01*
G03X32969Y4395I40J0D01*
G02Y4005I45J-195D01*
G03X32920Y3966I-9J-39D01*
G01Y3109D01*
X32921Y3106D01*
G02X32579I-171J-56D01*
G01X32580Y3109D01*
Y6230D01*
G03X32542Y6270I-40J0D01*
G02X32448Y6301I8J180D01*
G01X32443Y6305D01*
X32440D01*
X31655Y7090D01*
Y8660D01*
X31805Y8810D01*
Y8993D01*
G02X32095I145J107D01*
G01Y8690D01*
X32052Y8646D01*
G03X32074Y8578I28J-28D01*
G02X31997Y8228I-24J-179D01*
G03X31945Y8190I-12J-38D01*
G01Y7210D01*
X32526Y6629D01*
X32536Y6630D01*
G02X32542Y6630I15J-180D01*
G03X32580Y6670I-2J40D01*
G01Y7235D01*
G03X32525Y7272I-40J0D01*
G02X32378Y7601I-65J168D01*
G03X32377Y7672I-18J36D01*
G02X32524Y8001I78J163D01*
G03X32580Y8038I15J37D01*
G01Y9341D01*
X32579Y9344D01*
G02X32570Y9400I171J57D01*
G01Y9675D01*
X33570Y10675D01*
Y11242D01*
G03X33492Y11255I-40J0D01*
G02Y11945I-992J345D01*
G03X33570Y11958I38J13D01*
G01Y12075D01*
X32623Y13023D01*
G02X32579Y13206I127J127D01*
G01X32580Y13209D01*
Y20891D01*
X32579Y20894D01*
G02X32921I171J56D01*
G01X32920Y20891D01*
Y20167D01*
G03X32967Y20127I40J0D01*
G02Y19773I33J-177D01*
G03X32920Y19733I-7J-39D01*
G01Y15532D01*
G03X32986Y15502I40J0D01*
G02X33092Y15545I117J-137D01*
G03X33124Y15604I-2J40D01*
G02X33372Y15887I176J96D01*
G01X33384Y15882D01*
X33530Y16027D01*
Y17376D01*
X33484Y17422D01*
G03X33427I-28J-28D01*
G02X33264Y17726I-127J127D01*
G01X33280Y17730D01*
Y20771D01*
X33538Y21028D01*
X33539Y21031D01*
G02X33712Y21130I161J-81D01*
G03X33755Y21170I3J40D01*
G01Y22740D01*
X33405Y23090D01*
Y24369D01*
G03X33354Y24407I-40J0D01*
G02Y24793I-54J193D01*
G03X33405Y24831I11J38D01*
G01Y24840D01*
G03X33353Y24878I-40J0D01*
G02Y25222I-53J172D01*
G03X33405Y25260I12J38D01*
G01Y26110D01*
X33773Y26478D01*
X34576D01*
G02Y26188I107J-145D01*
G01X33893D01*
X33695Y25990D01*
Y23210D01*
X34045Y22860D01*
Y18310D01*
X34245Y18110D01*
Y18107D01*
X34249Y18102D01*
G02X33957Y17891I-149J-102D01*
G03X33893I-32J-24D01*
G02X33676Y17836I-143J109D01*
G03X33620Y17799I-16J-37D01*
G01Y17768D01*
X33870Y17518D01*
Y15882D01*
G02X33758Y15507I-95J-176D01*
G03X33715Y15467I-3J-40D01*
G01Y14716D01*
G03X33763Y14676I40J0D01*
G02X33922Y14632I37J-176D01*
G03X33951Y14634I14J15D01*
G02X34258Y14623I149J-134D01*
G02X34224Y14342I124J-157D01*
G02X33951Y14366I-124J157D01*
G03X33922Y14368I-15J-13D01*
G02X33763Y14324I-122J132D01*
G03X33715Y14284I-8J-39D01*
G01Y13882D01*
X34175Y13422D01*
Y9996D01*
X33704Y9525D01*
Y8920D01*
G03X33745Y8880I40J0D01*
G02Y8520I5J-180D01*
G03X33704Y8480I-1J-40D01*
G01Y7520D01*
G03X33745Y7480I40J0D01*
G02Y7120I5J-180D01*
G03X33704Y7080I-1J-40D01*
G01Y6977D01*
X33735Y6946D01*
X33753Y6964D01*
X33754Y6970D01*
G02X34107Y6963I176J-40D01*
G01X34108Y6957D01*
X34145Y6920D01*
Y5060D01*
X34152Y5054D01*
G03X34220Y5082I28J28D01*
G01Y7175D01*
X34472Y7427D01*
X34473Y7433D01*
G02X34536Y7539I177J-33D01*
G03Y7601I-25J31D01*
G02X34517Y7862I115J139D01*
G03X34499Y7927I-30J27D01*
G02X34685Y8220I51J173D01*
G03X34755Y8246I30J27D01*
G01Y9275D01*
G03X34687Y9304I-40J0D01*
G02X34410Y9307I-137J146D01*
G03X34354I-28J-29D01*
G02Y9593I-140J143D01*
G03X34410I28J29D01*
G02X34687Y9596I140J-143D01*
G03X34755Y9625I27J29D01*
G01Y11890D01*
G03X34703Y11928I-40J0D01*
G02Y12272I-53J172D01*
G03X34755Y12310I12J38D01*
G01Y12404D01*
G03X34685Y12430I-40J0D01*
G02X34535Y12730I-135J120D01*
G03X34572Y12775I-3J40D01*
G02X34736Y12980I178J25D01*
G03X34755Y13000I-2J20D01*
G01Y13610D01*
X34872Y13727D01*
X34873Y13733D01*
G02X35166Y13838I177J-33D01*
G03X35231Y13869I26J31D01*
G01Y14036D01*
X35370Y14175D01*
Y16100D01*
G02X35730I180J0D01*
G01Y14025D01*
X35687Y13982D01*
G03X35700Y13917I28J-28D01*
G02X35770Y13866I-68J-167D01*
G03X35831I31J26D01*
G02X35968Y13930I138J-116D01*
G03X36008Y13970I0J40D01*
G01Y15755D01*
X36255Y16002D01*
Y16162D01*
G03X36194Y16196I-40J0D01*
G02Y16504I-94J154D01*
G03X36255Y16538I21J34D01*
G01Y19921D01*
X36240Y19925D01*
G02X36420Y20216I42J175D01*
G03X36481I31J26D01*
G02X36660Y19925I138J-116D01*
G01X36645Y19921D01*
Y15840D01*
X36399Y15593D01*
Y15100D01*
G03X36456Y15063I40J0D01*
G02X36670Y15016I76J-163D01*
G03X36731I31J26D01*
G02X36987Y15036I138J-116D01*
G03X37043Y15039I26J30D01*
G02X37075Y15069I207J-188D01*
G03Y15131I-25J31D01*
G02X37118Y15597I175J219D01*
G03X37122Y15665I-19J35D01*
G02Y16035I128J185D01*
G03X37118Y16103I-23J33D01*
G02X37469Y16525I132J247D01*
G03X37531I31J25D01*
G02X37882Y16103I219J-175D01*
G03X37878Y16035I19J-35D01*
G02Y15665I-129J-185D01*
G03X37882Y15597I23J-33D01*
G02X37925Y15131I-132J-247D01*
G03Y15069I25J-31D01*
G02X37947Y15049I-175J-219D01*
G03X38013Y15063I28J28D01*
G02X38320Y15116I169J-63D01*
G03X38381I31J26D01*
G02Y14884I138J-116D01*
G03X38320I-31J-26D01*
G02X38088Y14846I-138J116D01*
G03X38028Y14816I-21J-34D01*
G02X37882Y14603I-278J34D01*
G03X37878Y14535I19J-35D01*
G02Y14165I-129J-185D01*
G03X37882Y14097I23J-33D01*
G02X37925Y13631I-132J-247D01*
G03Y13569I25J-31D01*
G02X37882Y13103I-175J-219D01*
G03X37878Y13035I19J-35D01*
G02Y12665I-129J-185D01*
G03X37882Y12597I23J-33D01*
G02X37925Y12131I-132J-247D01*
G03Y12069I25J-31D01*
G02X37882Y11603I-175J-219D01*
G03X37878Y11535I19J-35D01*
G02Y11165I-129J-185D01*
G03X37882Y11097I23J-33D01*
G02Y10603I-132J-247D01*
G03X37878Y10535I19J-35D01*
G02X37565Y10221I-129J-185D01*
G03X37497Y10218I-33J-23D01*
G02X37425Y10131I-247J132D01*
G03Y10069I25J-31D01*
G02X37497Y9982I-175J-219D01*
G03X37565Y9978I35J19D01*
G02Y9722I185J-129D01*
G03X37497Y9718I-33J-23D01*
G02X37425Y9631I-247J132D01*
G03Y9569I25J-31D01*
G02X37497Y9482I-175J-219D01*
G03X37565Y9478I35J19D01*
G02Y9222I185J-129D01*
G03X37497Y9218I-33J-23D01*
G02X37425Y9131I-247J132D01*
G03Y9069I25J-31D01*
G02X37497Y8982I-175J-219D01*
G03X37565Y8978I35J19D01*
G02Y8722I185J-129D01*
G03X37497Y8718I-33J-23D01*
G02X37425Y8631I-247J132D01*
G03Y8569I25J-31D01*
G02X37497Y8482I-175J-219D01*
G03X37565Y8478I35J19D01*
G02Y8222I185J-129D01*
G03X37497Y8218I-33J-23D01*
G02X37425Y8131I-247J132D01*
G03Y8069I25J-31D01*
G02X37497Y7982I-175J-219D01*
G03X37565Y7979I35J19D01*
G02Y7722I185J-129D01*
G03X37497Y7718I-33J-23D01*
G02X37425Y7631I-247J132D01*
G03Y7569I25J-31D01*
G02X37497Y7482I-175J-219D01*
G03X37565Y7478I35J19D01*
G02Y7222I185J-129D01*
G03X37497Y7218I-33J-23D01*
G02X37425Y7131I-247J132D01*
G03Y7069I25J-31D01*
G02X37497Y6982I-175J-219D01*
G03X37565Y6979I35J19D01*
G02Y6722I185J-129D01*
G03X37497Y6718I-33J-23D01*
G02X37382Y6603I-247J132D01*
G03X37378Y6535I19J-35D01*
G02Y6165I-128J-185D01*
G03X37382Y6097I23J-33D01*
G02X37469Y6025I-132J-247D01*
G03X37531I31J25D01*
G02X37618Y6097I219J-175D01*
G03X37622Y6165I-19J35D01*
G02X37878I128J185D01*
G03X37882Y6097I23J-33D01*
G02Y5603I-132J-247D01*
G03X37878Y5535I19J-35D01*
G02Y5165I-129J-185D01*
G03X37882Y5097I23J-33D01*
G02Y4603I-132J-247D01*
G03X37878Y4535I19J-35D01*
G02X37622I-129J-185D01*
G03X37618Y4603I-23J33D01*
G02X37531Y4675I132J247D01*
G03X37469I-31J-25D01*
G02X37382Y4603I-219J175D01*
G03X37378Y4535I19J-35D01*
G02X37122I-128J-185D01*
G03X37118Y4603I-23J33D01*
G02X37066Y4638I132J247D01*
G03X37000Y4608I-26J-30D01*
G01Y4445D01*
X36835Y4280D01*
Y4069D01*
G03X36880Y4029I40J0D01*
G02Y3671I20J-179D01*
G03X36835Y3631I-5J-40D01*
G01Y3620D01*
X37530Y2925D01*
Y2487D01*
G02X37170I-180J-87D01*
G01Y2775D01*
X36913Y3032D01*
G03X36845Y3004I-28J-28D01*
G01Y2360D01*
G03X36897Y2322I40J0D01*
G02Y1978I53J-172D01*
G03X36845Y1940I-12J-38D01*
G01Y1107D01*
G37*
G36*
G01X7295Y1022D02*
G02X7001Y1017I-145J-107D01*
G01X7005Y1022D01*
Y1040D01*
X6548Y1497D01*
G03X6480Y1465I-28J-28D01*
G02X6315Y1629I-180J-15D01*
G03X6347Y1698I3J40D01*
G01X6211Y1833D01*
G03X6144Y1813I-28J-28D01*
G02X5854Y1710I-176J37D01*
G01X5792D01*
X3310Y4192D01*
Y11208D01*
X3328Y11226D01*
G03X3318Y11290I-28J28D01*
G02X3255Y11557I82J160D01*
G01Y18725D01*
X3241Y18730D01*
G02X3435Y19020I59J170D01*
G03X3505Y19046I30J27D01*
G01Y19190D01*
X3255Y19440D01*
Y22960D01*
X3302Y23007D01*
X3303Y23013D01*
G02X3557Y22817I177J-33D01*
G01X3545Y22812D01*
Y19560D01*
X3795Y19310D01*
Y17560D01*
X3981Y17374D01*
G03X4049Y17395I28J28D01*
G02X4336Y17603I251J-45D01*
G01X4346Y17601D01*
X4381Y17636D01*
X4359Y17658D01*
X4348Y17656D01*
G02X4488Y17782I-48J194D01*
G01X4487Y17779D01*
Y17755D01*
X4510D01*
G03X4549Y17803I0J40D01*
G02X4942Y18062I251J47D01*
G03X5005Y18095I22J33D01*
G01Y18175D01*
G03X4937Y18204I-40J0D01*
G02Y18496I-137J146D01*
G03X5005Y18525I27J29D01*
G01Y18605D01*
G03X4942Y18638I-40J0D01*
G02X4584Y18714I-142J212D01*
G03X4516I-34J-21D01*
G02X4436Y18634I-216J136D01*
G03Y18566I21J-34D01*
G02X4164I-136J-216D01*
G03Y18634I-21J34D01*
G02X4516Y18986I136J216D01*
G03X4584I34J21D01*
G02X4664Y19066I216J-136D01*
G03Y19134I-21J34D01*
G02X4942Y19562I136J216D01*
G03X5005Y19595I22J33D01*
G01Y19675D01*
G03X4937Y19704I-40J0D01*
G02Y19996I-137J146D01*
G03X5005Y20025I27J29D01*
G01Y20105D01*
G03X4942Y20138I-40J0D01*
G02X4584Y20214I-142J212D01*
G03X4516I-34J-21D01*
G02X4436Y20134I-216J136D01*
G03Y20066I21J-34D01*
G02X4164I-136J-216D01*
G03Y20134I-21J34D01*
G02X4516Y20486I136J216D01*
G03X4584I34J21D01*
G02X4664Y20566I216J-136D01*
G03Y20634I-21J34D01*
G02X4942Y21062I136J216D01*
G03X5005Y21095I22J33D01*
G01Y21175D01*
G03X4937Y21204I-40J0D01*
G02Y21496I-137J146D01*
G03X5005Y21525I27J29D01*
G01Y21605D01*
G03X4942Y21638I-40J0D01*
G02X4584Y21714I-142J212D01*
G03X4516I-34J-21D01*
G02X4436Y21634I-216J136D01*
G03Y21566I21J-34D01*
G02X4164I-136J-216D01*
G03Y21634I-21J34D01*
G02X4516Y21986I136J216D01*
G03X4584I34J21D01*
G02X4664Y22066I216J-136D01*
G03Y22134I-21J34D01*
G02X4942Y22562I136J216D01*
G03X5005Y22595I22J33D01*
G01Y22675D01*
G03X4937Y22704I-40J0D01*
G02Y22996I-137J146D01*
G03X5005Y23025I27J29D01*
G01Y23105D01*
G03X4942Y23138I-40J0D01*
G02X5042Y23430I-143J212D01*
G03X5109Y23414I38J12D01*
G01X5455Y23760D01*
Y24643D01*
G02X5745I145J107D01*
G01Y23650D01*
G03X5764Y23630I20J0D01*
G02X5895Y23343I-14J-180D01*
G01Y21788D01*
G03X5956Y21754I40J0D01*
G02X6195Y21493I94J-154D01*
G01Y15260D01*
X6595Y14860D01*
Y14100D01*
G03X6638Y14060I40J0D01*
G02X6666Y14060I12J-200D01*
G03X6710Y14099I3J40D01*
G01Y18688D01*
X6675Y18723D01*
X6669Y18724D01*
G02X6714Y19081I33J177D01*
G03X6745Y19150I3J40D01*
G01X6405Y19490D01*
Y26993D01*
G02X6695I145J107D01*
G01Y26896D01*
G03X6765Y26870I40J0D01*
G02X7049Y26648I135J-120D01*
G01X7045Y26643D01*
Y26588D01*
G03X7106Y26554I40J0D01*
G02X7259Y26230I94J-154D01*
G01X7245Y26225D01*
Y21611D01*
G03X7304Y21576I40J0D01*
G02X7546Y21537I96J-176D01*
G03X7604I29J27D01*
G02Y21263I146J-137D01*
G03X7546I-29J-27D01*
G02X7304Y21224I-146J137D01*
G03X7245Y21189I-19J-35D01*
G01Y19660D01*
X7895Y19010D01*
Y16510D01*
X8184Y16221D01*
Y16069D01*
G03X8229Y16029I40J0D01*
G02Y15671I21J-179D01*
G03X8184Y15631I-5J-40D01*
G01Y14996D01*
G02X7894I-145J-107D01*
G01Y16101D01*
X7605Y16390D01*
Y18890D01*
X7579Y18915D01*
G03X7545Y18901I-14J-14D01*
G01Y16111D01*
G03X7589Y16071I40J0D01*
G02Y15713I19J-179D01*
G03X7545Y15673I-4J-40D01*
G01Y15460D01*
X7753Y15252D01*
Y14265D01*
G02Y14051I-145J-107D01*
G01Y6315D01*
G02X7463I-145J-107D01*
G01Y14051D01*
G02Y14265I145J107D01*
G01Y15132D01*
X7313Y15281D01*
G03X7245Y15253I-28J-28D01*
G01Y14462D01*
G02Y14248I-145J-107D01*
G01Y11458D01*
G02Y11172I-110J-143D01*
G01Y6507D01*
G02X6951Y6502I-145J-107D01*
G01X6955Y6507D01*
Y6553D01*
G03X6887Y6581I-40J0D01*
G01X6880Y6575D01*
X6879Y6568D01*
G02X6800Y6451I-177J33D01*
G03X6794Y6390I22J-33D01*
G02X6633Y6051I-144J-139D01*
G03X6590Y6011I-3J-40D01*
G01Y4965D01*
X8095Y3460D01*
Y2560D01*
X9377Y1278D01*
X9383Y1277D01*
G02X9173Y1067I-33J-177D01*
G01X9172Y1073D01*
X7805Y2440D01*
Y3340D01*
X6300Y4845D01*
Y5832D01*
G03X6250Y5871I-40J0D01*
G02X6028Y6012I-45J175D01*
G01X6027Y6018D01*
X5958Y6086D01*
G03X5890Y6058I-28J-28D01*
G01Y4308D01*
X7269Y2929D01*
X7275Y2928D01*
G02X7072Y2724I-25J-178D01*
G01X7071Y2731D01*
X5610Y4192D01*
Y9592D01*
X5035Y10167D01*
G03X4978Y10168I-28J-28D01*
G02X4936Y10134I-178J183D01*
G03Y10066I21J-34D01*
G02X4584Y9714I-136J-216D01*
G03X4516I-34J-21D01*
G02X4436Y9634I-216J136D01*
G03Y9566I21J-34D01*
G02X4164I-136J-216D01*
G03Y9634I-21J34D01*
G02X4087Y9710I136J216D01*
G01X3958D01*
X3790Y9542D01*
Y8309D01*
G03X3843Y8271I40J0D01*
G02X3991Y8256I57J-171D01*
G03X4050Y8298I20J35D01*
G02X4516Y8486I250J52D01*
G03X4584I34J21D01*
G02X4664Y8566I216J-136D01*
G03Y8634I-21J34D01*
G02X4936I136J216D01*
G03Y8566I21J-34D01*
G02X4584Y8214I-136J-216D01*
G03X4516I-34J-21D01*
G02X4436Y8134I-216J136D01*
G03Y8066I21J-34D01*
G02X4110Y7680I-136J-216D01*
G03X4040Y7653I-30J-27D01*
G01Y7047D01*
G03X4110Y7020I40J0D01*
G02X4516Y6986I190J-170D01*
G03X4584I34J21D01*
G02X4664Y7066I216J-136D01*
G03Y7134I-21J34D01*
G02X4936I136J216D01*
G03Y7066I21J-34D01*
G02X5031Y6742I-136J-216D01*
G01X5026Y6730D01*
X5345Y6410D01*
Y4360D01*
X6345Y3360D01*
Y2110D01*
X7295Y1160D01*
Y1022D01*
G37*
G54D30*
X2300Y3850D03*
Y5350D03*
Y5850D03*
Y7350D03*
Y7850D03*
Y9350D03*
Y9850D03*
Y11350D03*
Y11850D03*
Y13350D03*
Y13850D03*
Y15350D03*
Y15850D03*
Y17350D03*
Y17850D03*
Y19350D03*
Y19850D03*
Y21350D03*
Y22350D03*
Y23350D03*
X2800Y4350D03*
Y4850D03*
X4300Y7350D03*
X2800Y6350D03*
Y6850D03*
X4300Y8850D03*
X2800Y8350D03*
Y9850D03*
Y11350D03*
Y12850D03*
Y14350D03*
Y15850D03*
Y17350D03*
X4300Y19350D03*
Y20850D03*
Y22350D03*
X2800Y21850D03*
X4300Y23350D03*
X2800Y22850D03*
X4800Y7850D03*
Y9350D03*
X8600Y20650D03*
X8000D03*
X9980Y24050D03*
X9844Y25194D03*
X13500Y18850D03*
X13800Y23250D03*
X16750Y4100D03*
Y9050D03*
X16450Y11800D03*
X16800Y13950D03*
Y14550D03*
Y15050D03*
X16250Y23250D03*
X18700Y1800D03*
X17650Y4900D03*
X20900Y21750D03*
X21371Y22600D03*
X21400Y23800D03*
X20900Y23550D03*
X22150Y3500D03*
Y4200D03*
Y8450D03*
Y9150D03*
X23600Y10800D03*
X22200Y14450D03*
Y15150D03*
X23672Y22072D03*
X24900Y4225D03*
X24112Y10788D03*
X24350Y13168D03*
X24400Y14650D03*
Y14100D03*
X24600Y20800D03*
X26800Y13956D03*
X26350D03*
X28000Y13950D03*
X26350Y16794D03*
X26800D03*
X28000Y16800D03*
X28667Y27400D03*
X31850Y13250D03*
X31950Y15750D03*
X30928Y24561D03*
X30900Y25350D03*
X30833Y27450D03*
X34300D03*
X36617Y27400D03*
X38878Y24561D03*
X38850Y25350D03*
X38783Y27450D03*
X40700Y3600D03*
X39840Y6650D03*
X39440Y5950D03*
X39564Y10350D03*
X40890Y11680D03*
X40740Y13350D03*
X41000Y26800D03*
X42875Y15925D03*
X41600Y26800D03*
X44517Y27400D03*
X47610Y7990D03*
X47300Y9350D03*
X46778Y24561D03*
X46750Y25350D03*
X46683Y27450D03*
X49700Y6300D03*
X48170Y7640D03*
X49150Y24600D03*
Y25050D03*
X49194Y26400D03*
X50170Y7640D03*
X50820Y7740D03*
G54D34*
X3550Y2895D03*
X4750Y24305D03*
G54D32*
X2300Y21850D03*
Y22850D03*
X2800Y3850D03*
Y22350D03*
X4300Y22850D03*
X2800Y23350D03*
G54D29*
X24744Y17525D03*
G54D37*
X12450Y22950D03*
X26350Y27500D03*
G54D36*
X10250Y25950D03*
G54D31*
X1450Y4500D03*
X1550Y16600D03*
X1050Y22250D03*
X6600Y2750D03*
X5250Y9600D03*
X8300Y17835D03*
X8258Y20100D03*
X7600Y26200D03*
X10600Y4106D03*
X9050Y7700D03*
X9450Y8450D03*
X10958Y15142D03*
X9050Y15650D03*
X9450Y16400D03*
X10000Y17835D03*
X12500Y1850D03*
X11850Y3900D03*
X11200Y11500D03*
X12350Y14650D03*
X12800Y14200D03*
Y15100D03*
X11200Y17900D03*
X11850Y18500D03*
X13750Y7050D03*
X15150Y13500D03*
Y14000D03*
X13750Y15000D03*
X16700Y7800D03*
X15700Y12350D03*
X19050Y3850D03*
X19550Y3848D03*
X18600Y6250D03*
X19100Y14800D03*
X17920Y17750D03*
X19550Y20450D03*
X20230Y4150D03*
X20250Y4600D03*
X19650Y14798D03*
X20280Y14000D03*
Y14500D03*
X20723Y19423D03*
X20300Y18900D03*
X22150Y1100D03*
X22850Y5500D03*
X23840Y7770D03*
X23500Y12350D03*
Y15000D03*
X22150Y17420D03*
X22850Y19900D03*
X22750Y19000D03*
X23890Y23100D03*
X23450Y23650D03*
X23600Y25950D03*
X24150Y2050D03*
X24300Y8350D03*
X24250Y7700D03*
X24050Y23900D03*
X26372Y13428D03*
X26800Y14950D03*
Y15800D03*
X26390Y14930D03*
X28077Y19623D03*
X27527D03*
X27800Y20350D03*
Y22450D03*
X27300D03*
X26850D03*
X26350D03*
X26850Y20450D03*
X27800Y23550D03*
X27600Y24657D03*
X27586Y25764D03*
X27550Y25300D03*
X28344Y1306D03*
X28250Y7780D03*
X28436Y11750D03*
X30232Y20000D03*
X28500Y21100D03*
X29450D03*
X29200Y22450D03*
X28250D03*
X30150D03*
X28750D03*
X29700D03*
X28650Y24550D03*
X29350Y26300D03*
X29945D03*
X28650Y24955D03*
X29150Y27750D03*
X31100Y1650D03*
X32300Y5850D03*
X31510Y6700D03*
Y8860D03*
X31800Y10200D03*
X32050Y19950D03*
X30400Y21100D03*
X31350D03*
X32300D03*
X30650Y22450D03*
X31600D03*
X32050D03*
X31100D03*
X32000Y24500D03*
X34520Y8650D03*
X34500Y11150D03*
X33250Y21100D03*
X34550D03*
X33000Y22450D03*
X33500D03*
X34300D03*
X32550D03*
X34250Y24650D03*
Y25150D03*
X34900Y17500D03*
X36450Y21100D03*
X35500D03*
X36200Y22450D03*
X35750D03*
X36700D03*
X35250D03*
X34800D03*
X36600Y24550D03*
X35550Y24657D03*
X36600Y24955D03*
X36550Y25545D03*
X35300Y26600D03*
X35500Y25300D03*
X36100Y26850D03*
X37400Y21100D03*
X38350D03*
X37150Y22450D03*
X38100D03*
X38600D03*
X37650D03*
X37300Y26300D03*
X37895D03*
X37600Y27450D03*
X40900Y1650D03*
X40904Y10466D03*
X39300Y21100D03*
X40250D03*
X40950Y22450D03*
X39550D03*
X40000D03*
X39050D03*
X40500D03*
X39950Y24600D03*
X42725Y17725D03*
X42450Y21100D03*
X41200D03*
X42700Y22450D03*
X43150D03*
X42150Y24650D03*
Y25150D03*
X45300Y21100D03*
X44350D03*
X43400D03*
X43650Y22450D03*
X44100D03*
X45050D03*
X44600D03*
X44500Y24550D03*
X43450Y24657D03*
X43900Y26750D03*
X45200Y26300D03*
X44500Y24955D03*
X44450Y25545D03*
X43400Y25300D03*
X46900Y18800D03*
X47200Y21100D03*
X46250D03*
X47450Y22450D03*
X46950D03*
X46000D03*
X46500D03*
X45550D03*
X45795Y26300D03*
X45500Y27450D03*
X47970Y3690D03*
Y3240D03*
X49714Y8284D03*
X49100Y21100D03*
X48150D03*
X47900Y22450D03*
X48400D03*
X48850D03*
X47850Y24600D03*
X50370Y3690D03*
Y3240D03*
Y4990D03*
X50440Y5760D03*
G54D35*
X8550Y16800D03*
X33700Y2200D03*
X45011Y1400D03*
X50800Y9500D03*
G54D41*
X25050Y27580D03*
X34980Y27350D03*
X42300Y10550D03*
X42850Y27430D03*
G54D42*
X40700Y8800D03*
G54D39*
X17045Y23475D03*
X18695D03*
G54D38*
X17045Y21825D03*
X18695D03*
G54D33*
X4340Y1200D03*
Y26000D03*
X25836Y24448D03*
G54D40*
X17870Y26345D03*
%LPD*%
G75*
G36*
G01X3973Y4225D02*
X3790Y4408D01*
Y6565D01*
G02X3858Y6593I40J0D01*
G01X4050Y6402D01*
X4048Y6392D01*
G03X4549Y6406I252J-42D01*
G02X4588Y6455I39J9D01*
G01X4617D01*
Y6431D01*
X4615Y6427D01*
G03X4995Y6306I185J-77D01*
G01X4997Y6312D01*
X5015Y6330D01*
X5055Y6290D01*
Y6052D01*
G02X4986Y6025I-40J0D01*
G03X4664Y5634I-186J-175D01*
G02Y5566I-21J-34D01*
G03X4986Y5175I136J-216D01*
G02X5055Y5148I29J-27D01*
G01Y4552D01*
G02X4986Y4525I-40J0D01*
G03X4584Y4486I-186J-175D01*
G02X4516I-34J21D01*
G03X4436Y4566I-216J-136D01*
G02Y4634I21J34D01*
G03X4164I-136J216D01*
G02Y4566I-21J-34D01*
G03X4056Y4277I136J-216D01*
G02X4017Y4225I-38J-11D01*
G01X3973D01*
G37*
G36*
G01X3658Y9807D02*
G02X3590Y9835I-28J28D01*
G01Y11092D01*
X3973Y11475D01*
X4017D01*
G02X4056Y11423I0J-40D01*
G03X4164Y11134I244J-73D01*
G02Y11066I-21J-34D01*
G03X4436I136J-216D01*
G02Y11134I21J34D01*
G03X4516Y11214I-136J216D01*
G02X4584I34J-21D01*
G03X4936Y11566I216J136D01*
G02Y11634I21J34D01*
G03X4548Y11808I-136J216D01*
G01X4550Y11798D01*
X4511Y11759D01*
X4489Y11782D01*
X4492Y11793D01*
G03X4105Y11804I-192J57D01*
G02X4066Y11755I-39J-9D01*
G01X3857D01*
X3624Y11522D01*
G02X3560Y11532I-28J28D01*
G03X3545Y11557I-160J-82D01*
G01Y17303D01*
G02X3613Y17331I40J0D01*
G01X4049Y16896D01*
X4047Y16886D01*
G03X4436Y17066I253J-36D01*
G02Y17134I21J34D01*
G03X4516Y17214I-136J216D01*
G02X4584I34J-21D01*
G03X5031Y17458I216J136D01*
G01X5026Y17470D01*
X5137Y17581D01*
G02X5205Y17553I28J-28D01*
G01Y14857D01*
G03X5495I145J-107D01*
G01Y19243D01*
G03X5338Y19530I-145J107D01*
G02X5295Y19570I-3J40D01*
G01Y22690D01*
G02X5347Y22728I40J0D01*
G03X5535Y22781I53J172D01*
G02X5605Y22754I30J-27D01*
G01Y14003D01*
G03X5877Y13817I95J-153D01*
G01X5878Y13823D01*
X5895Y13840D01*
Y15053D01*
G02X5963Y15081I40J0D01*
G01X6305Y14740D01*
Y14531D01*
G02X6254Y14493I-40J0D01*
G03Y14107I-54J-193D01*
G02X6305Y14069I11J-38D01*
G01Y14010D01*
X6105Y13810D01*
Y13540D01*
X6247Y13398D01*
G02X6215Y13330I-28J-28D01*
G03X6055Y13043I-15J-180D01*
G01Y12196D01*
G02X5985Y12170I-40J0D01*
G03Y11930I-135J-119D01*
G02X6055Y11904I30J-27D01*
G01Y11560D01*
X5805Y11310D01*
Y9890D01*
G02X5737Y9862I-40J0D01*
G01X5108Y10490D01*
X5013D01*
G03X4664Y10134I-213J-140D01*
G02Y10066I-21J-34D01*
G03X4584Y9986I136J-216D01*
G02X4516I-34J21D01*
G03X4087Y9990I-216J-136D01*
G01X3842D01*
X3658Y9807D01*
G37*
G36*
G01X17920Y7577D02*
G02X17867Y7539I-40J0D01*
G03X17779Y7549I-67J-189D01*
G02X17735Y7589I-4J40D01*
G01Y9520D01*
X17530Y9725D01*
Y9798D01*
G02X17592Y9832I40J0D01*
G03X17850Y9867I108J168D01*
G02X17920Y9841I30J-27D01*
G01Y7577D01*
G37*
G36*
G01X17850Y10133D02*
G03X17592Y10168I-150J-133D01*
G02X17530Y10202I-22J34D01*
G01Y10618D01*
G02X17598Y10647I40J0D01*
G01X17920Y10325D01*
Y10159D01*
G02X17850Y10133I-40J0D01*
G37*
G36*
G01X27160Y7642D02*
G02X27092Y7614I-40J0D01*
G01X26784Y7921D01*
X26556D01*
X26553Y7922D01*
G03X26353Y7854I-53J-172D01*
G02X26280Y7877I-33J23D01*
G01Y8212D01*
G02X26326Y8252I40J0D01*
G03Y8608I24J179D01*
G02X26280Y8648I-5J40D01*
G01Y9225D01*
X26178Y9327D01*
X26177Y9333D01*
G03X25902Y9451I-177J-33D01*
G02X25840Y9485I-22J34D01*
G01Y9558D01*
X25490Y9908D01*
Y10837D01*
G03X25350Y11130I-140J113D01*
G02X25310Y11170I0J40D01*
G01Y11661D01*
X25333D01*
X25336Y11660D01*
G03X25346Y11657I63J190D01*
G02X25374Y11610I-11J-39D01*
G03X25724Y11616I176J-40D01*
G02X25777Y11663I39J10D01*
G03X26049Y11868I73J187D01*
G02X26102Y11910I40J4D01*
G03X26206Y11904I62J190D01*
G02X26255Y11865I9J-39D01*
G01Y11531D01*
G02X26197Y11495I-40J0D01*
G03X26156Y11158I-81J-161D01*
G02X26179Y11145I4J-20D01*
G03X26528Y11168I172J55D01*
G01X26529Y11174D01*
X26545Y11190D01*
Y11902D01*
G02X26600Y11939I40J0D01*
G03X26792Y11962I75J186D01*
G02X26849Y11952I23J-32D01*
G03X26972Y11872I151J98D01*
G02X26999Y11811I-6J-39D01*
G03X27224Y11548I151J-98D01*
G02X27280Y11512I16J-37D01*
G01Y11415D01*
X27450Y11245D01*
Y11191D01*
G02X27390Y11156I-40J0D01*
G03X27417Y10863I-90J-156D01*
G02X27450Y10848I13J-15D01*
G01Y10805D01*
X27160Y10515D01*
Y8651D01*
G02X27091Y8624I-40J0D01*
G03Y8376I-131J-124D01*
G02X27160Y8349I29J-28D01*
G01Y7642D01*
G37*
G36*
G01X25912Y12040D02*
G03X25818Y12048I-62J-190D01*
G02X25773Y12098I-6J39D01*
G03X25427Y12101I-173J51D01*
G02X25390Y12050I-38J-11D01*
G03X25358Y12046I10J-200D01*
G02X25310Y12085I-8J39D01*
G01Y12182D01*
X25519Y12391D01*
X25526Y12392D01*
G03X25680Y12571I-26J178D01*
G02X25748Y12600I40J0D01*
G01X26037Y12312D01*
G02X26034Y12253I-28J-28D01*
G03X25964Y12082I129J-153D01*
G02X25912Y12040I-40J-4D01*
G37*
G36*
G01X29969Y6525D02*
G03X29882Y6597I-219J-175D01*
G02X29878Y6665I19J35D01*
G03Y7035I-128J185D01*
G02X29882Y7103I23J33D01*
G03X29969Y7175I-132J247D01*
G02X30031I31J-25D01*
G03X30118Y7103I219J175D01*
G02X30122Y7035I-19J-35D01*
G03Y6665I128J-185D01*
G02X30118Y6597I-23J-33D01*
G03X30031Y6525I132J-247D01*
G02X29969I-31J25D01*
G37*
G36*
G01X30975Y11527D02*
G02X30907Y11499I-40J0D01*
G01X30829Y11576D01*
X30830Y11586D01*
G03X30470Y11612I-180J14D01*
G02X30408Y11582I-40J3D01*
G03X30382Y11597I-157J-232D01*
G02X30378Y11665I19J35D01*
G03X30122I-129J185D01*
G02X30118Y11597I-23J-33D01*
G03X30031Y11525I132J-247D01*
G02X29969I-31J25D01*
G03X29882Y11597I-219J-175D01*
G02X29878Y11665I19J35D01*
G03Y12035I-128J185D01*
G02X29882Y12103I23J33D01*
G03X29997Y12218I-132J247D01*
G02X30065Y12222I35J-19D01*
G03X30378Y12535I185J129D01*
G02X30382Y12603I23J33D01*
G03X30454Y13042I-132J247D01*
G02X30483Y13110I29J27D01*
G01X30692D01*
X30975Y12827D01*
Y11527D01*
G37*
G36*
G01X29969Y9525D02*
G03X29882Y9597I-219J-175D01*
G02X29878Y9665I19J35D01*
G03Y10035I-128J185D01*
G02X29882Y10103I23J33D01*
G03X29969Y10175I-132J247D01*
G02X30031I31J-25D01*
G03X30118Y10103I219J175D01*
G02X30122Y10035I-19J-35D01*
G03Y9665I128J-185D01*
G02X30118Y9597I-23J-33D01*
G03X30031Y9525I132J-247D01*
G02X29969I-31J25D01*
G37*
G36*
G01X32930Y9400D02*
Y9525D01*
X33766Y10362D01*
G02X33835Y10333I28J-28D01*
G01Y10137D01*
X33363Y9666D01*
Y9469D01*
G02X33306Y9433I-40J0D01*
G03X33160Y9104I-76J-163D01*
G01Y8688D01*
G02X33103Y8652I-40J0D01*
G03X32970Y8664I-83J-182D01*
G02X32920Y8703I-10J39D01*
G01Y9341D01*
X32921Y9344D01*
G03X32930Y9400I-171J57D01*
G37*
G36*
G01X33835Y12417D02*
G02X33766Y12388I-40J0D01*
G01X33137Y13018D01*
G02X33146Y13081I28J28D01*
G03X32975Y13442I-96J176D01*
G02X32920Y13479I-15J37D01*
G01Y13699D01*
G02X32976Y13736I40J0D01*
G03Y14064I74J165D01*
G02X32920Y14101I-16J37D01*
G01Y14899D01*
G02X32976Y14936I40J0D01*
G03X33204Y15193I74J165D01*
G02X33210Y15220I17J10D01*
G03X33266Y15443I-107J145D01*
G02X33301Y15500I36J17D01*
G03X33329Y15502I-2J200D01*
G02X33375Y15462I6J-40D01*
G01Y13741D01*
X33648Y13468D01*
G02X33645Y13409I-28J-28D01*
G03X33791Y13057I129J-153D01*
G02X33835Y13017I3J-40D01*
G01Y12417D01*
G37*
G36*
G01X36008Y13530D02*
Y13445D01*
X36348Y13105D01*
X36790D01*
X36892Y13002D01*
G03X36994Y12960I103J103D01*
G02X37033Y12909I0J-40D01*
G03X37122Y12665I217J-59D01*
G02X37118Y12597I-23J-33D01*
G03X37075Y12131I132J-247D01*
G02Y12069I-25J-31D01*
G03X37118Y11603I175J-219D01*
G02X37122Y11535I-19J-35D01*
G03Y11165I128J-185D01*
G02X37118Y11097I-23J-33D01*
G03X37075Y10631I132J-247D01*
G02Y10569I-25J-31D01*
G03Y10131I175J-219D01*
G02Y10069I-25J-31D01*
G03Y9631I175J-219D01*
G02Y9569I-25J-31D01*
G03X37035Y9530I175J-219D01*
G01X36645D01*
X35980Y10195D01*
Y13125D01*
X35592Y13513D01*
Y13530D01*
G02X35632Y13570I40J0D01*
G03X35770Y13634I0J180D01*
G02X35831I31J-26D01*
G03X35968Y13570I138J116D01*
G02X36008Y13530I0J-40D01*
G37*
G36*
G01X36510Y13495D02*
X36399Y13607D01*
Y14700D01*
G02X36456Y14737I40J0D01*
G03X36670Y14784I76J163D01*
G02X36731I31J-26D01*
G03X36948Y14738I138J116D01*
G02X37001Y14721I18J-36D01*
G03X37118Y14603I249J129D01*
G02X37122Y14535I-19J-35D01*
G03Y14165I128J-185D01*
G02X37118Y14097I-23J-33D01*
G03X37075Y13631I132J-247D01*
G02Y13569I-25J-31D01*
G03X37010Y13495I175J-219D01*
G01X36510D01*
G37*
G36*
G01X37469Y5025D02*
G03X37382Y5097I-219J-175D01*
G02X37378Y5165I19J35D01*
G03Y5535I-128J185D01*
G02X37382Y5603I23J33D01*
G03X37469Y5675I-132J247D01*
G02X37531I31J-25D01*
G03X37618Y5603I219J175D01*
G02X37622Y5535I-19J-35D01*
G03Y5165I128J-185D01*
G02X37618Y5097I-23J-33D01*
G03X37531Y5025I132J-247D01*
G02X37469I-31J25D01*
G37*
G36*
G01Y11025D02*
G03X37382Y11097I-219J-175D01*
G02X37378Y11165I19J35D01*
G03Y11535I-128J185D01*
G02X37382Y11603I23J33D01*
G03X37469Y11675I-132J247D01*
G02X37531I31J-25D01*
G03X37618Y11603I219J175D01*
G02X37622Y11535I-19J-35D01*
G03Y11165I128J-185D01*
G02X37618Y11097I-23J-33D01*
G03X37531Y11025I132J-247D01*
G02X37469I-31J25D01*
G37*
G36*
G01Y15525D02*
G03X37382Y15597I-219J-175D01*
G02X37378Y15665I19J35D01*
G03Y16035I-128J185D01*
G02X37382Y16103I23J33D01*
G03X37469Y16175I-132J247D01*
G02X37531I31J-25D01*
G03X37618Y16103I219J175D01*
G02X37622Y16035I-19J-35D01*
G03Y15665I128J-185D01*
G02X37618Y15597I-23J-33D01*
G03X37531Y15525I132J-247D01*
G02X37469I-31J25D01*
G37*
G36*
G01Y14025D02*
G03X37382Y14097I-219J-175D01*
G02X37378Y14165I19J35D01*
G03Y14535I-128J185D01*
G02X37382Y14603I23J33D01*
G03X37469Y14675I-132J247D01*
G02X37531I31J-25D01*
G03X37618Y14603I219J175D01*
G02X37622Y14535I-19J-35D01*
G03Y14165I128J-185D01*
G02X37618Y14097I-23J-33D01*
G03X37531Y14025I132J-247D01*
G02X37469I-31J25D01*
G37*
G36*
G01X44263Y4678D02*
G02X44195Y4706I-28J28D01*
G01Y5110D01*
X44003Y5302D01*
G02X44035Y5370I28J28D01*
G03X44166Y5688I15J180D01*
G02Y5749I26J31D01*
G03X43943Y6032I-116J138D01*
G01X43827D01*
X43740Y5945D01*
X42910D01*
X42815Y6040D01*
Y6279D01*
G02X42871Y6316I40J0D01*
G03Y6684I79J184D01*
G02X42815Y6721I-16J37D01*
G01Y6868D01*
X43645Y7698D01*
Y8761D01*
G02X43689Y8801I40J0D01*
G03Y9199I21J199D01*
G02X43645Y9239I-4J40D01*
G01Y12760D01*
X43295Y13110D01*
Y13698D01*
X43492Y13896D01*
X43505Y13889D01*
G03X43612Y14228I81J161D01*
G01X43595Y14231D01*
Y15080D01*
G02X43635Y15120I40J0D01*
G03X43782Y15194I1J180D01*
G02X43855Y15171I32J-23D01*
G01Y15040D01*
X44478Y14417D01*
X44476Y14407D01*
G03X44618Y14103I274J-56D01*
G02X44621Y14035I-19J-35D01*
G03Y13665I129J-185D01*
G02X44618Y13597I-23J-33D01*
G03X44575Y13131I132J-247D01*
G02Y13069I-25J-31D01*
G03X44618Y12603I175J-219D01*
G02X44621Y12535I-19J-35D01*
G03Y12165I129J-185D01*
G02X44618Y12097I-23J-33D01*
G03Y11603I132J-247D01*
G02X44621Y11535I-19J-35D01*
G03Y11165I129J-185D01*
G02X44618Y11097I-23J-33D01*
G03X44575Y10631I132J-247D01*
G02Y10569I-25J-31D01*
G03X44618Y10103I175J-219D01*
G02X44621Y10035I-19J-35D01*
G03Y9665I129J-185D01*
G02X44618Y9597I-23J-33D01*
G03Y9103I132J-247D01*
G02X44621Y9035I-19J-35D01*
G03Y8665I129J-185D01*
G02X44618Y8597I-23J-33D01*
G03X44575Y8131I132J-247D01*
G02Y8069I-25J-31D01*
G03X44618Y7603I175J-219D01*
G02X44621Y7535I-19J-35D01*
G03Y7165I129J-185D01*
G02X44618Y7097I-23J-33D01*
G03Y6603I132J-247D01*
G02X44621Y6535I-19J-35D01*
G03Y6165I129J-185D01*
G02X44618Y6097I-23J-33D01*
G03X44575Y5631I132J-247D01*
G02Y5569I-25J-31D01*
G03Y5131I175J-219D01*
G02Y5069I-25J-31D01*
G03X44473Y4893I175J-219D01*
G01X44472Y4887D01*
X44263Y4678D01*
G37*
G36*
G01X41525Y11703D02*
Y13512D01*
G02X41571Y13552I40J0D01*
G03X41463Y13896I29J198D01*
G02X41395Y13925I-27J29D01*
G01Y15775D01*
X41409Y15780D01*
G03Y16120I-59J170D01*
G01X41395Y16125D01*
Y17718D01*
G02X41435Y17758I40J0D01*
G03X41611Y17904I-1J180D01*
G02X41633Y17921I20J-4D01*
G03X41721Y17934I17J179D01*
G02X41775Y17907I16J-37D01*
G03X41942Y17770I175J43D01*
G02X41980Y17730I-2J-40D01*
G01Y16171D01*
X41880Y16070D01*
Y15630D01*
X41980Y15530D01*
Y11709D01*
X41979Y11706D01*
G03X41975Y11693I171J-56D01*
G02X41905Y11677I-39J9D01*
G03X41596Y11678I-155J-127D01*
G02X41525Y11703I-31J26D01*
G37*
G36*
G01X44969Y7025D02*
G03X44882Y7097I-219J-175D01*
G02X44879Y7165I19J35D01*
G03Y7535I-129J185D01*
G02X44882Y7603I23J33D01*
G03X44969Y7675I-132J247D01*
G02X45031I31J-25D01*
G03X45118Y7603I219J175D01*
G02X45122Y7535I-19J-35D01*
G03Y7165I129J-185D01*
G02X45118Y7097I-23J-33D01*
G03X45031Y7025I132J-247D01*
G02X44969I-31J25D01*
G37*
G36*
G01Y6025D02*
G03X44882Y6097I-219J-175D01*
G02X44879Y6165I19J35D01*
G03Y6535I-129J185D01*
G02X44882Y6603I23J33D01*
G03X44969Y6675I-132J247D01*
G02X45031I31J-25D01*
G03X45118Y6603I219J175D01*
G02X45122Y6535I-19J-35D01*
G03Y6165I129J-185D01*
G02X45118Y6097I-23J-33D01*
G03X45031Y6025I132J-247D01*
G02X44969I-31J25D01*
G37*
G36*
G01Y8525D02*
G03X44882Y8597I-219J-175D01*
G02X44879Y8665I19J35D01*
G03Y9035I-129J185D01*
G02X44882Y9103I23J33D01*
G03X44969Y9175I-132J247D01*
G02X45031I31J-25D01*
G03X45118Y9103I219J175D01*
G02X45122Y9035I-19J-35D01*
G03Y8665I129J-185D01*
G02X45118Y8597I-23J-33D01*
G03X45031Y8525I132J-247D01*
G02X44969I-31J25D01*
G37*
G36*
G01Y11025D02*
G03X44882Y11097I-219J-175D01*
G02X44879Y11165I19J35D01*
G03Y11535I-129J185D01*
G02X44882Y11603I23J33D01*
G03X44969Y11675I-132J247D01*
G02X45031I31J-25D01*
G03X45118Y11603I219J175D01*
G02X45122Y11535I-19J-35D01*
G03Y11165I129J-185D01*
G02X45118Y11097I-23J-33D01*
G03X45031Y11025I132J-247D01*
G02X44969I-31J25D01*
G37*
G36*
G01Y9525D02*
G03X44882Y9597I-219J-175D01*
G02X44879Y9665I19J35D01*
G03Y10035I-129J185D01*
G02X44882Y10103I23J33D01*
G03X44969Y10175I-132J247D01*
G02X45031I31J-25D01*
G03X45118Y10103I219J175D01*
G02X45122Y10035I-19J-35D01*
G03Y9665I129J-185D01*
G02X45118Y9597I-23J-33D01*
G03X45031Y9525I132J-247D01*
G02X44969I-31J25D01*
G37*
G36*
G01Y13525D02*
G03X44882Y13597I-219J-175D01*
G02X44879Y13665I19J35D01*
G03Y14035I-129J185D01*
G02X44882Y14103I23J33D01*
G03X44969Y14175I-132J247D01*
G02X45031I31J-25D01*
G03X45118Y14103I219J175D01*
G02X45122Y14035I-19J-35D01*
G03Y13665I129J-185D01*
G02X45118Y13597I-23J-33D01*
G03X45031Y13525I132J-247D01*
G02X44969I-31J25D01*
G37*
G36*
G01Y12025D02*
G03X44882Y12097I-219J-175D01*
G02X44879Y12165I19J35D01*
G03Y12535I-129J185D01*
G02X44882Y12603I23J33D01*
G03X44969Y12675I-132J247D01*
G02X45031I31J-25D01*
G03X45118Y12603I219J175D01*
G02X45122Y12535I-19J-35D01*
G03Y12165I129J-185D01*
G02X45118Y12097I-23J-33D01*
G03X45031Y12025I132J-247D01*
G02X44969I-31J25D01*
G37*
G36*
G01Y15525D02*
G03X44882Y15597I-219J-175D01*
G02X44879Y15665I19J35D01*
G03Y16035I-129J185D01*
G02X44882Y16103I23J33D01*
G03X44969Y16175I-132J247D01*
G02X45031I31J-25D01*
G03X45118Y16103I219J175D01*
G02X45122Y16035I-19J-35D01*
G03Y15665I129J-185D01*
G02X45118Y15597I-23J-33D01*
G03X45031Y15525I132J-247D01*
G02X44969I-31J25D01*
G37*
G36*
G01X49669Y17725D02*
G03X49582Y17797I-219J-175D01*
G02X49579Y17865I19J35D01*
G03Y18235I-129J185D01*
G02X49582Y18303I23J33D01*
G03X49669Y18375I-132J247D01*
G02X49731I31J-25D01*
G03X49818Y18303I219J175D01*
G02X49822Y18235I-19J-35D01*
G03Y17865I129J-185D01*
G02X49818Y17797I-23J-33D01*
G03X49731Y17725I132J-247D01*
G02X49669I-31J25D01*
G37*
%LPC*%
G75*
G36*
G01X4436Y15634D02*
G03Y15566I21J-34D01*
G02X4164I-136J-216D01*
G03Y15634I-21J34D01*
G02X4516Y15986I136J216D01*
G03X4584I34J21D01*
G02X4664Y16066I216J-136D01*
G03Y16134I-21J34D01*
G02X4936I136J216D01*
G03Y16066I21J-34D01*
G02X4584Y15714I-136J-216D01*
G03X4516I-34J-21D01*
G02X4436Y15634I-216J136D01*
G37*
G36*
G01Y14134D02*
G03Y14066I21J-34D01*
G02X4164I-136J-216D01*
G03Y14134I-21J34D01*
G02X4516Y14486I136J216D01*
G03X4584I34J21D01*
G02X4664Y14566I216J-136D01*
G03Y14634I-21J34D01*
G02X4936I136J216D01*
G03Y14566I21J-34D01*
G02X4584Y14214I-136J-216D01*
G03X4516I-34J-21D01*
G02X4436Y14134I-216J136D01*
G37*
G36*
G01Y12634D02*
G03Y12566I21J-34D01*
G02X4164I-136J-216D01*
G03Y12634I-21J34D01*
G02X4516Y12986I136J216D01*
G03X4584I34J21D01*
G02X4664Y13066I216J-136D01*
G03Y13134I-21J34D01*
G02X4999Y13510I136J216D01*
G03X5065Y13516I31J25D01*
G02X5106Y13290I157J-88D01*
G03X5043Y13271I-26J-31D01*
G02X4936Y13134I-243J79D01*
G03Y13066I21J-34D01*
G02X4584Y12714I-136J-216D01*
G03X4516I-34J-21D01*
G02X4436Y12634I-216J136D01*
G37*
G36*
G01X26496Y10257D02*
G03X26440I-28J-29D01*
G02X26119Y10314I-140J143D01*
G03X26068Y10333I-36J-17D01*
G02X26155Y10592I-68J167D01*
G03X26208Y10578I34J20D01*
G02X26440Y10543I93J-178D01*
G03X26496I28J29D01*
G02Y10257I140J-143D01*
G37*
G54D30*
X4300Y5350D03*
Y5850D03*
X4800Y4850D03*
X4300Y10350D03*
Y13350D03*
Y14850D03*
Y16350D03*
X4800Y10850D03*
Y12350D03*
Y13850D03*
Y15350D03*
Y16850D03*
X41650Y16950D03*
G54D31*
X3877Y10558D03*
X27000Y11334D03*
X43965Y10630D03*
X43900Y13700D03*
X44000Y12650D03*
Y14400D03*
%LPD*%
G75*
G54D10*
G01X12938Y19438D02*
X12900Y19400D01*
X12250D01*
G01X12938Y19438D02*
X13600D01*
G01X22952Y22148D02*
Y21748D01*
X23800Y20900D01*
G01X24050Y20650D02*
X23800Y20900D01*
G01X32000Y4650D02*
Y4350D01*
G01Y4650D02*
Y5050D01*
G01X46600Y3350D02*
Y3950D01*
G01X46550Y17900D02*
X46450Y17800D01*
Y13150D01*
X45900Y12600D01*
Y6570D01*
X46600Y5870D01*
Y3950D01*
X2300Y3850D03*
Y4350D03*
Y4850D03*
Y5350D03*
Y5850D03*
Y6350D03*
Y6850D03*
Y7350D03*
Y7850D03*
Y8350D03*
Y8850D03*
Y9350D03*
Y9850D03*
Y10350D03*
Y10850D03*
Y11350D03*
Y11850D03*
Y12350D03*
Y12850D03*
Y13350D03*
Y13850D03*
Y14350D03*
Y14850D03*
Y15350D03*
Y15850D03*
Y16350D03*
Y16850D03*
Y17350D03*
Y17850D03*
Y18350D03*
Y18850D03*
Y19350D03*
Y19850D03*
Y20350D03*
Y20850D03*
Y21350D03*
Y21850D03*
Y22350D03*
Y22850D03*
Y23350D03*
X4300Y3850D03*
Y4350D03*
Y4850D03*
Y5350D03*
X2800Y3850D03*
Y4350D03*
Y4850D03*
Y5350D03*
X4300Y5850D03*
Y6350D03*
Y6850D03*
Y7350D03*
X2800Y5850D03*
Y6350D03*
Y6850D03*
Y7350D03*
X4300Y7850D03*
Y8350D03*
Y8850D03*
Y9350D03*
X2800Y7850D03*
Y8350D03*
Y8850D03*
Y9350D03*
X4300Y9850D03*
Y10350D03*
Y10850D03*
Y11350D03*
Y11850D03*
X2800Y9850D03*
Y10350D03*
Y10850D03*
Y11350D03*
Y11850D03*
X4300Y12350D03*
Y12850D03*
Y13350D03*
Y13850D03*
X2800Y12350D03*
Y12850D03*
Y13350D03*
Y13850D03*
X4300Y14350D03*
Y14850D03*
Y15350D03*
Y15850D03*
X2800Y14350D03*
Y14850D03*
Y15350D03*
Y15850D03*
X4300Y16350D03*
Y16850D03*
Y17350D03*
Y17850D03*
X2800Y16350D03*
Y16850D03*
Y17350D03*
Y17850D03*
X4300Y18350D03*
Y18850D03*
Y19350D03*
Y19850D03*
Y20350D03*
X2800Y18350D03*
Y18850D03*
Y19350D03*
Y19850D03*
Y20350D03*
X4300Y20850D03*
Y21350D03*
Y21850D03*
Y22350D03*
X2800Y20850D03*
Y21350D03*
Y21850D03*
Y22350D03*
X4300Y22850D03*
Y23350D03*
X2800Y22850D03*
Y23350D03*
X4800Y3850D03*
Y4350D03*
Y4850D03*
Y5350D03*
Y5850D03*
Y6350D03*
Y6850D03*
Y7350D03*
Y7850D03*
Y8350D03*
Y8850D03*
Y9350D03*
Y9850D03*
Y10350D03*
Y10850D03*
Y11350D03*
Y11850D03*
Y12350D03*
Y12850D03*
Y13350D03*
Y13850D03*
Y14350D03*
Y14850D03*
Y15350D03*
Y15850D03*
Y16350D03*
Y16850D03*
Y17350D03*
Y17850D03*
Y18350D03*
Y18850D03*
Y19350D03*
Y19850D03*
Y20350D03*
Y20850D03*
Y21350D03*
Y21850D03*
Y22350D03*
Y22850D03*
Y23350D03*
X82000Y4500D03*
Y5000D03*
X81500Y4500D03*
Y5000D03*
X82000Y15800D03*
X81500D03*
X82000Y16300D03*
X81500D03*
X84000Y4500D03*
Y5000D03*
X83500Y4500D03*
Y5000D03*
X83000Y4500D03*
Y5000D03*
X82500Y4500D03*
Y5000D03*
X84000Y15800D03*
X83500D03*
X83000D03*
X82500D03*
X84000Y16300D03*
X83500D03*
X83000D03*
X82500D03*
X86500Y4500D03*
Y5000D03*
X86000Y4500D03*
Y5000D03*
X85500Y4500D03*
Y5000D03*
X85000Y4500D03*
Y5000D03*
X84500Y4500D03*
Y5000D03*
X86500Y15800D03*
X86000D03*
X85500D03*
X85000D03*
X84500D03*
X86500Y16300D03*
X86000D03*
X85500D03*
X85000D03*
X84500D03*
X88500Y4500D03*
Y5000D03*
X88000Y4500D03*
Y5000D03*
X87500Y4500D03*
Y5000D03*
X87000Y4500D03*
Y5000D03*
X88500Y15800D03*
X88000D03*
X87500D03*
X87000D03*
X88500Y16300D03*
X88000D03*
X87500D03*
X87000D03*
X90500Y4500D03*
Y5000D03*
X90000Y4500D03*
Y5000D03*
X89500Y4500D03*
Y5000D03*
X89000Y4500D03*
Y5000D03*
X90500Y15800D03*
X90000D03*
X89500D03*
X89000D03*
X90500Y16300D03*
X90000D03*
X89500D03*
X89000D03*
X92500Y4500D03*
Y5000D03*
X92000Y4500D03*
Y5000D03*
X91500Y4500D03*
Y5000D03*
X91000Y4500D03*
Y5000D03*
X92500Y15800D03*
X92000D03*
X91500D03*
X91000D03*
X92500Y16300D03*
X92000D03*
X91500D03*
X91000D03*
X95000Y4500D03*
Y5000D03*
X94500Y4500D03*
Y5000D03*
X94000Y4500D03*
Y5000D03*
X93500Y4500D03*
Y5000D03*
X93000Y4500D03*
Y5000D03*
X95000Y15800D03*
X94500D03*
X94000D03*
X93500D03*
X93000D03*
X95000Y16300D03*
X94500D03*
X94000D03*
X93500D03*
X93000D03*
X97000Y4500D03*
Y5000D03*
X96500Y4500D03*
Y5000D03*
X96000Y4500D03*
Y5000D03*
X95500Y4500D03*
Y5000D03*
X97000Y15800D03*
X96500D03*
X96000D03*
X95500D03*
X97000Y16300D03*
X96500D03*
X96000D03*
X95500D03*
X98500Y4500D03*
Y5000D03*
X98000Y4500D03*
Y5000D03*
X97500Y4500D03*
Y5000D03*
X98500Y15800D03*
X98000D03*
X97500D03*
X98500Y16300D03*
X98000D03*
X97500D03*
X100500Y32890D03*
Y32390D03*
Y31840D03*
X100650Y38040D03*
Y38590D03*
Y39090D03*
X110850Y31890D03*
Y32440D03*
Y32940D03*
X110750Y38140D03*
Y38690D03*
Y39190D03*
G54D20*
X75570Y27010D03*
X77090D03*
X110480Y12900D03*
X116480Y7900D03*
X133990Y12880D03*
Y34330D03*
X139990Y7880D03*
Y29330D03*
G54D11*
X1450Y4500D03*
X1550Y16600D03*
X1050Y22250D03*
X3900Y8100D03*
X3877Y10558D03*
X3400Y11450D03*
X3300Y18900D03*
X3850Y23900D03*
X3480Y22980D03*
X3700Y23600D03*
X6650Y700D03*
X5950Y2250D03*
X6600Y2750D03*
X5968Y1850D03*
X6300Y1450D03*
X6205Y6045D03*
X5250Y9600D03*
X5222Y13428D03*
X5700Y13850D03*
X5850Y12050D03*
X6200Y13150D03*
X5350Y14750D03*
Y19350D03*
X6050Y21600D03*
X5400Y22900D03*
X5750Y23450D03*
X5600Y24750D03*
X6550Y27100D03*
X7150Y915D03*
X6900Y450D03*
X7250Y2750D03*
X7100Y6400D03*
X8061Y6011D03*
X6702Y6602D03*
X7608Y6208D03*
X8650Y7400D03*
X7135Y11315D03*
X8050Y10450D03*
X7100Y14355D03*
X8039Y14889D03*
Y13961D03*
X7608Y14158D03*
Y15892D03*
X8250Y15850D03*
X8300Y17835D03*
X6702Y18902D03*
X8258Y20100D03*
X6750Y20850D03*
X8350Y23200D03*
X7200Y26400D03*
X6900Y26750D03*
X7600Y26200D03*
X9350Y1100D03*
X10600Y4106D03*
X10650Y6650D03*
X10958Y7192D03*
X9050Y7700D03*
X9450Y8450D03*
X10900Y7700D03*
X10958Y15142D03*
X9050Y15650D03*
X10900D03*
X9450Y16400D03*
X10000Y17835D03*
X9250Y20300D03*
X9450Y20850D03*
X9772Y22958D03*
X10072D03*
X10372D03*
X10672D03*
X9772Y23258D03*
X10072D03*
X10372D03*
X10672D03*
X8950Y23180D03*
X9250D03*
X8940Y22900D03*
X9250D03*
X9300Y23750D03*
X9000D03*
X10930Y28330D03*
X12500Y1850D03*
X11850Y3900D03*
X12450Y5250D03*
X11858Y5300D03*
X11200Y5400D03*
X11900Y7150D03*
Y6250D03*
X12350Y6700D03*
X12800Y7150D03*
Y6250D03*
X11858Y8400D03*
Y8660D03*
X11300Y7698D03*
X11850Y10550D03*
X11200Y11500D03*
Y9950D03*
X12400D03*
X13050D03*
X11250Y13260D03*
X11858Y13250D03*
X11850Y11850D03*
X12550D03*
X12900Y13250D03*
Y12000D03*
X11052Y14748D03*
X11900Y14200D03*
X12350Y14650D03*
X12800Y14200D03*
X11900Y15100D03*
X11300Y15648D03*
X12800Y15100D03*
X11200Y17900D03*
X11858Y16610D03*
Y16350D03*
X12900Y17200D03*
X12250Y19400D03*
X11850Y18500D03*
X11430Y22880D03*
X11120D03*
X11430Y23160D03*
X11130D03*
X11400Y23750D03*
X11123D03*
X12800Y25350D03*
X12150Y28300D03*
X11000Y27750D03*
X13650Y1300D03*
X13550Y5550D03*
X15150Y6050D03*
X15044Y7194D03*
X15150Y5550D03*
X13750Y6300D03*
Y7050D03*
X13800Y6602D03*
X13775Y5725D03*
X13450Y13550D03*
X15150Y13500D03*
X13847Y13547D03*
X15044Y15144D03*
X15150Y14000D03*
X13750Y14250D03*
Y15000D03*
X13800Y14552D03*
X15350Y5100D03*
X16700Y7300D03*
X16427Y6173D03*
X16150Y6000D03*
X16850Y5550D03*
Y6650D03*
X16700Y7800D03*
X15750Y8100D03*
X15700Y8400D03*
X17000Y7450D03*
X16950Y10100D03*
X15370Y10380D03*
X15700Y12350D03*
X15300Y15450D03*
X17250Y16150D03*
X15300Y16850D03*
Y16150D03*
X15450Y16550D03*
X15800Y16650D03*
X17068Y20000D03*
X16732D03*
X19050Y3850D03*
X19550Y3848D03*
X17555Y6470D03*
X18600Y6250D03*
X18100Y6900D03*
X19381Y8798D03*
X19050Y8800D03*
X17650Y10880D03*
X18540Y13400D03*
X18150Y13130D03*
X18170Y12090D03*
X19100Y14800D03*
X18540Y17430D03*
X17920Y17750D03*
X19550Y20450D03*
X20230Y4150D03*
X20250Y4600D03*
X20230Y3550D03*
Y3150D03*
Y9100D03*
Y9450D03*
Y8500D03*
X20200Y8150D03*
X19700Y8800D03*
X19650Y14798D03*
X20280Y14000D03*
Y14500D03*
Y15100D03*
Y15470D03*
X20723Y19423D03*
X21550Y19100D03*
X20300Y18900D03*
X22150Y1100D03*
X23000Y2000D03*
X23150Y4050D03*
X23500Y3150D03*
X23750Y3650D03*
X22850Y5500D03*
X23900Y6180D03*
X23840Y7770D03*
X22777Y11018D03*
X23500Y12350D03*
X22200Y12000D03*
X22600D03*
X23500Y15000D03*
X23620Y16250D03*
X22850Y16900D03*
X22150Y17420D03*
X23270Y17210D03*
X22850Y19900D03*
X22750Y19000D03*
X22200Y19100D03*
X23791Y19585D03*
X21843Y18953D03*
X21900Y19800D03*
X23275Y18875D03*
X23460Y20750D03*
X23150Y20850D03*
X21900Y20400D03*
X22600Y22250D03*
X23700Y20406D03*
X22950Y21045D03*
X22700Y20850D03*
X22250Y20700D03*
X22952Y22148D03*
X22150Y24000D03*
X22159Y24341D03*
X22448Y24348D03*
X23890Y23100D03*
X22410D03*
X23850Y24300D03*
X22850Y23650D03*
X23450D03*
X22355Y26145D03*
X23600Y25950D03*
X22900Y25400D03*
X23250D03*
X24350Y2550D03*
X24150Y2050D03*
X24350Y1400D03*
X24230Y4560D03*
X25990Y5090D03*
X25150Y6730D03*
X24240Y6000D03*
X24050Y7300D03*
X24200Y6789D03*
X25160Y6320D03*
X25190Y5340D03*
X24200Y6500D03*
X25700Y5750D03*
X25780Y6300D03*
X25950Y6730D03*
X25500D03*
X25470Y6300D03*
X25190Y8210D03*
X25200Y7950D03*
X24300Y8350D03*
X26000Y9300D03*
X26040Y7460D03*
X25700Y7450D03*
X25950Y8400D03*
X25190Y7440D03*
X24250Y7700D03*
X25500Y9350D03*
X26000Y10500D03*
X25350Y10950D03*
X25550Y11570D03*
X25600Y12150D03*
X25500Y12570D03*
Y17450D03*
X24744Y16644D03*
X25850Y18650D03*
X24050Y19500D03*
X24744Y18406D03*
X24050Y23900D03*
X24141Y24341D03*
X27900Y1650D03*
X27400Y2000D03*
X26350Y5050D03*
X26800Y5100D03*
X26720Y4150D03*
X26330Y6710D03*
X28190Y6660D03*
X27490Y6990D03*
X26575Y7425D03*
X27550Y7260D03*
X26650Y5600D03*
X27605Y6615D03*
X26571Y6911D03*
X26500Y6100D03*
X26960Y8500D03*
X27550Y8440D03*
X27526Y8031D03*
X27570Y9350D03*
X26500Y7750D03*
X26350Y8430D03*
X26116Y11334D03*
X27300Y11000D03*
X27150Y11713D03*
X27000Y11334D03*
X26350Y11200D03*
X26372Y13428D03*
X27669Y12943D03*
X27000Y12050D03*
X27250Y13250D03*
X27300Y12500D03*
X28200Y13045D03*
X26800Y14950D03*
Y15800D03*
X26090Y15710D03*
X26390Y14930D03*
X28077Y19623D03*
X27527D03*
X27800Y20350D03*
X27450Y18850D03*
X27550Y21100D03*
X26600D03*
X27800Y22450D03*
X27300D03*
X26850D03*
X26350D03*
X26850Y20450D03*
X26250Y21150D03*
X27150Y21100D03*
X27800Y23550D03*
X27600Y24657D03*
X27550Y26530D03*
X27586Y25764D03*
X27550Y25300D03*
X28100Y26850D03*
X28344Y1306D03*
X28650Y4850D03*
X28344Y5694D03*
X28900Y5350D03*
X28750Y6160D03*
X29140Y5560D03*
X29050Y6920D03*
X29150Y6150D03*
X29390Y7400D03*
X29270Y8780D03*
X28250Y7780D03*
X28913Y11713D03*
X29050Y10863D03*
X28850Y10350D03*
X28486Y13000D03*
X28436Y11750D03*
X28950Y15150D03*
Y17200D03*
X30232Y20000D03*
X30125Y18475D03*
X28500Y21100D03*
X29450D03*
X29200Y22450D03*
X28250D03*
X30150D03*
X28750D03*
X29700D03*
X28650Y24550D03*
X29350Y26300D03*
X29945D03*
X28650Y24955D03*
X28600Y25545D03*
X29750Y25100D03*
X29150Y27750D03*
X29950Y27800D03*
X29700Y27550D03*
X31100Y1650D03*
X32200Y5373D03*
X32300Y5850D03*
X31510Y6700D03*
X31115Y6370D03*
X30810Y7660D03*
X32460Y7440D03*
X32050Y8400D03*
X31950Y9100D03*
X31510Y8860D03*
X32455Y7835D03*
X30650Y11600D03*
X30850Y9700D03*
X31800Y10200D03*
X31400Y9650D03*
Y10700D03*
X31250Y14500D03*
X31200Y15800D03*
X31350Y18000D03*
X31250Y17400D03*
X30950Y17200D03*
X32050Y19950D03*
X31182D03*
X31963Y18300D03*
X31518Y19950D03*
X32300Y18300D03*
X30400Y21100D03*
X31350D03*
X32300D03*
X30650Y22450D03*
X31600D03*
X32050D03*
X31100D03*
X32000Y24500D03*
X31950Y25700D03*
X32000Y25100D03*
X31859Y25400D03*
X30400Y28200D03*
X32750Y3050D03*
X34350Y1050D03*
X33000Y5050D03*
X33534Y3250D03*
X34650Y7400D03*
X32550Y6450D03*
X34550Y5650D03*
X33750Y7300D03*
X33460Y6420D03*
X34700Y7050D03*
X33750Y5900D03*
X33930Y6930D03*
X33750Y8700D03*
X33230Y9270D03*
X34520Y8650D03*
X34650Y7740D03*
X34550Y8100D03*
X34500Y11150D03*
X33050Y13900D03*
X34650Y12100D03*
X34550Y12550D03*
X33050Y15100D03*
X33800Y14500D03*
X33103Y15365D03*
X33300Y17550D03*
X33750Y18000D03*
X34100D03*
X33000Y19950D03*
X34382Y20100D03*
X33250Y21100D03*
X34550D03*
X33000Y22450D03*
X33500D03*
X34300D03*
X32550D03*
X32750Y20950D03*
X33700D03*
X34250Y24650D03*
X33300Y25050D03*
X34300Y25750D03*
X34250Y25150D03*
X34683Y26333D03*
X36500Y2500D03*
X35575Y1075D03*
X36250Y1000D03*
X36700D03*
X35900Y1050D03*
X34790Y5390D03*
X36600Y7350D03*
X35791Y6830D03*
X35790Y5630D03*
X34855Y6655D03*
X34796Y5927D03*
X35870Y7300D03*
X36250Y8300D03*
X35200Y9850D03*
X35632Y13750D03*
X35450Y13050D03*
X35968Y13750D03*
X35113Y13050D03*
X35050Y13700D03*
X34750Y12800D03*
X36532Y14900D03*
X35550Y16100D03*
X36100Y16350D03*
X34900Y17500D03*
X36618Y20100D03*
X36282D03*
X35332D03*
X34718D03*
X35668D03*
X36450Y21100D03*
X35500D03*
X36200Y22450D03*
X35750D03*
X36700D03*
X35250D03*
X34800D03*
X36600Y24550D03*
X35550Y24657D03*
X36600Y24955D03*
X36550Y25545D03*
X35300Y26600D03*
X35500Y25300D03*
X36100Y26850D03*
X36950Y2150D03*
X36900Y3850D03*
X38518Y15000D03*
X36868Y14900D03*
X38182Y15000D03*
X38732Y16400D03*
X38682Y17650D03*
X37193Y20050D03*
X38518D03*
X37530D03*
X38182D03*
X37400Y21100D03*
X38350D03*
X37150Y22450D03*
X38100D03*
X38600D03*
X37650D03*
X37300Y26300D03*
X37895D03*
X38450Y28200D03*
X37600Y28000D03*
Y27450D03*
X39950Y300D03*
X39600Y3050D03*
X40900Y1650D03*
X39250Y3350D03*
X39050Y5400D03*
X40360Y11710D03*
X40540Y10130D03*
X40904Y10466D03*
X41162Y11250D03*
X40345Y14808D03*
X39430Y15700D03*
X39093D03*
X39900Y15750D03*
X40750Y17200D03*
X40000Y17600D03*
X39068Y16400D03*
X39018Y17650D03*
X40650Y16300D03*
X39950Y16600D03*
X40650D03*
X40600Y17550D03*
X40418Y19950D03*
X40082D03*
X39430Y20100D03*
X39093D03*
X41031Y20150D03*
X39750Y18500D03*
X39300Y21100D03*
X40250D03*
X40950Y22450D03*
X39550D03*
X40000D03*
X39050D03*
X40500D03*
X39950Y24600D03*
X39900Y25700D03*
X40150Y26350D03*
X40000Y25100D03*
X39850Y25400D03*
X42750Y2242D03*
Y2568D03*
X42450Y1782D03*
Y2108D03*
X41440Y4800D03*
X42753Y11647D03*
X41499Y11250D03*
X42350Y9600D03*
X42340Y9950D03*
X42150Y11650D03*
X42825Y12325D03*
X41350Y15950D03*
X42300Y15900D03*
X42850Y15250D03*
X42651Y17298D03*
X42725Y17725D03*
X41950Y17950D03*
X41434Y17938D03*
X41650Y18100D03*
X42650Y17000D03*
X43000Y16850D03*
X41850Y20350D03*
X43232Y20100D03*
X42317Y20136D03*
X42654D03*
X41700Y18900D03*
X42000D03*
X41368Y20150D03*
X42150Y18250D03*
X42450Y21100D03*
X41200D03*
X42700Y22450D03*
X42200D03*
X43150D03*
X41450D03*
X42150Y24650D03*
Y26700D03*
X42200Y25750D03*
X42150Y25150D03*
X41250Y25050D03*
X44225Y1125D03*
X43350Y4608D03*
Y4282D03*
X44050Y5550D03*
Y5887D03*
X43965Y10630D03*
X43900Y13700D03*
X44000Y12650D03*
X43636Y15300D03*
X43586Y14050D03*
X44000Y14400D03*
X44600Y16890D03*
X43700Y18750D03*
X44703Y19689D03*
X45131Y20050D03*
X45468D03*
X44697Y19959D03*
X43568Y20100D03*
X45300Y21100D03*
X44350D03*
X43400D03*
X43650Y22450D03*
X44100D03*
X45050D03*
X44600D03*
X44500Y24550D03*
X43450Y24657D03*
X43900Y26750D03*
X45200Y26300D03*
X44500Y24955D03*
X44450Y25545D03*
X43400Y25300D03*
X46300Y10350D03*
X47150Y10968D03*
X46300Y10013D03*
X47150Y10632D03*
X46750Y11850D03*
X46900Y13800D03*
X47150Y15550D03*
X45600Y16650D03*
X46081Y20000D03*
X47032Y20100D03*
X45900Y19550D03*
X46418Y20000D03*
X47368Y20100D03*
X46900Y18800D03*
X47200Y21100D03*
X46250D03*
X47450Y22450D03*
X46950D03*
X46000D03*
X46500D03*
X45550D03*
X45795Y26300D03*
X46200Y28200D03*
X45500Y28000D03*
Y27450D03*
X47970Y3690D03*
Y3240D03*
X49348Y5148D03*
X49048D03*
X48748D03*
X49648D03*
X47970Y4990D03*
X49048Y5448D03*
X48748D03*
X49648D03*
X49348D03*
X48230Y6220D03*
X48626Y8284D03*
X49714D03*
X48150Y12937D03*
X48931Y13800D03*
X48150Y12600D03*
X49268Y13800D03*
X47850Y14050D03*
X47982Y19950D03*
X48931Y20150D03*
X48318Y19950D03*
X49268Y20150D03*
X47700Y19150D03*
X49100Y21100D03*
X48150D03*
X47900Y22450D03*
X49350D03*
X48400D03*
X48850D03*
X47850Y24600D03*
X47800Y25700D03*
X47933Y26333D03*
X47900Y25100D03*
X47750Y25400D03*
X50370Y3690D03*
Y3240D03*
Y4990D03*
X50440Y5760D03*
X55405Y9805D03*
X54850Y11000D03*
X55405Y12105D03*
X56193Y17257D03*
X56002Y17448D03*
X56845Y1635D03*
X56595Y1385D03*
X57100Y13600D03*
X56600Y13105D03*
X56575Y16875D03*
X56384Y17066D03*
X57100Y17750D03*
X56800Y19650D03*
X56600Y20800D03*
X59692Y941D03*
X59882Y1132D03*
X60073Y1323D03*
Y5237D03*
X59962Y5850D03*
X59692Y6300D03*
X59100Y8800D03*
X59050Y8050D03*
X59150Y9336D03*
X60500Y15350D03*
X60350Y15850D03*
X59650Y17150D03*
X60350Y17950D03*
X59900Y19250D03*
X62250Y2100D03*
X62200Y14400D03*
X61050Y14850D03*
X61550Y16350D03*
X60750Y17650D03*
X61250Y17400D03*
X62200Y19150D03*
X61000Y18250D03*
X62050Y20232D03*
Y20568D03*
X62950Y2250D03*
X64500Y3000D03*
X63650Y2400D03*
X62913Y16900D03*
X63250D03*
X66900Y4582D03*
X66250Y3736D03*
X66900Y4918D03*
X66250Y4073D03*
X67000Y16828D03*
X65750Y18250D03*
X67418Y1700D03*
X67082D03*
X67700Y3232D03*
Y3568D03*
X69150Y5350D03*
X68700Y7595D03*
Y18500D03*
X68800Y30400D03*
X70950Y19150D03*
X69650Y30400D03*
X71320Y36900D03*
X70780D03*
X70050Y36400D03*
X70702Y35558D03*
X71052Y35908D03*
X70702D03*
X71052Y35558D03*
X72250Y18300D03*
X72500Y19868D03*
Y19532D03*
X72050Y36350D03*
X71402Y35908D03*
Y35558D03*
X75569Y4350D03*
X74650Y4550D03*
X75232Y4350D03*
X74380Y4550D03*
X75569Y6750D03*
X75232D03*
X74210Y7830D03*
Y7494D03*
X74478Y10500D03*
X75478D03*
X74850D03*
X73850Y20132D03*
Y20468D03*
X74150Y21218D03*
Y20882D03*
X75050Y36150D03*
X75350D03*
X75650D03*
X74550Y36970D03*
Y36700D03*
X74610Y35600D03*
X75988Y5963D03*
X75978Y10500D03*
X77540Y12300D03*
Y13500D03*
X76265Y15035D03*
X76074Y15226D03*
X76400Y18750D03*
X76100Y18941D03*
X77700Y36150D03*
X77400D03*
X76900Y36700D03*
Y36970D03*
X76960Y35600D03*
X76341Y36841D03*
X76250Y36400D03*
X78100Y4950D03*
X79800Y16650D03*
X78950Y30250D03*
X78000D03*
Y36150D03*
X78600Y36400D03*
X78691Y36841D03*
X81550Y13650D03*
X80750Y12850D03*
X81780Y17873D03*
X81700Y22250D03*
X81150Y30400D03*
X82000D03*
X84300Y3900D03*
X84000Y6000D03*
X84050Y11350D03*
X82212Y17682D03*
X83752Y35558D03*
X83402D03*
X83052D03*
X83402Y35908D03*
X83052D03*
X83752D03*
X83670Y36900D03*
X82400Y36400D03*
X83130Y36900D03*
X86000Y7350D03*
X86354D03*
X84700Y9450D03*
X86175Y11475D03*
X85425Y10725D03*
X85675Y10975D03*
X85925Y11225D03*
X86000Y14100D03*
X84650Y20950D03*
X85400Y21550D03*
X84400Y36350D03*
X87060Y7350D03*
X86707D03*
X86750Y11700D03*
X87400Y14600D03*
X86900Y36970D03*
Y36700D03*
X86960Y35600D03*
X88600Y36400D03*
X88000Y36150D03*
X87700D03*
X87400D03*
X90230Y1780D03*
X89950Y6404D03*
X89400Y6850D03*
X89000Y13250D03*
X89600Y17670D03*
X89330Y18540D03*
X90350Y30250D03*
X89250Y36970D03*
Y36700D03*
X89310Y35600D03*
X88691Y36841D03*
X90350Y36150D03*
X89750D03*
X90050D03*
X92600Y2500D03*
X90780Y2230D03*
X91850Y1780D03*
X92800Y6650D03*
X92500Y6050D03*
X91000Y14000D03*
X92000Y14700D03*
X91050Y18540D03*
X91300Y30250D03*
X91041Y36841D03*
X90950Y36400D03*
X93700Y2700D03*
X94000Y6800D03*
X94450Y8000D03*
X93000Y8200D03*
X92975Y12375D03*
X93500Y12800D03*
X95518Y7500D03*
X95182D03*
X96000Y14350D03*
X96600Y15100D03*
X98500Y8450D03*
X97900Y7800D03*
X98837Y8450D03*
X98500Y32000D03*
X97400Y32420D03*
X97700D03*
X98000D03*
X98650Y38200D03*
X98150Y38620D03*
X97550D03*
X97850D03*
X101040Y4550D03*
X99650Y7800D03*
X101000Y16300D03*
X101400Y18000D03*
X99900Y22350D03*
X101000Y21800D03*
X103700Y24000D03*
X105100Y23950D03*
X107600Y24000D03*
X109450Y8350D03*
X109705Y14475D03*
X109000Y23950D03*
X111730Y8050D03*
X112330Y9300D03*
Y11500D03*
X112045Y9615D03*
Y11085D03*
X113500Y10400D03*
X113860Y11690D03*
X112750Y10800D03*
X114200D03*
X112750Y10000D03*
X114200Y9950D03*
X113260Y11740D03*
X113740Y29700D03*
Y30650D03*
X116250Y9200D03*
X114530Y9300D03*
X115100Y10650D03*
X114915Y9965D03*
Y11045D03*
X114570Y11500D03*
X116290Y34580D03*
X116325Y36565D03*
X115900Y41530D03*
X116285Y40165D03*
X116850Y9200D03*
X116780Y34556D03*
X117680Y36560D03*
X117623Y37110D03*
X117880Y38110D03*
X118180D03*
X117630D03*
X117880Y38710D03*
X118130D03*
X117630D03*
X117600Y39660D03*
X117680Y40210D03*
X117203Y41427D03*
X119100Y12000D03*
X119600Y11850D03*
X119640Y30650D03*
Y30950D03*
X119890Y30050D03*
X120331Y29959D03*
X119640Y31250D03*
Y33000D03*
Y33300D03*
X119890Y32400D03*
X120331Y32309D03*
X120460Y31750D03*
X120190D03*
X119090Y31690D03*
X119640Y33600D03*
X120460Y34100D03*
X120190D03*
X119090Y34040D03*
X119771Y37360D03*
X119790Y35930D03*
X119300Y35980D03*
X120680Y38710D03*
Y38110D03*
X119750Y39530D03*
X119595Y38045D03*
X118865D03*
X119595Y38775D03*
X118865D03*
Y38410D03*
X119750Y40880D03*
X119180Y40860D03*
X132960Y8330D03*
X133215Y14455D03*
X132960Y29780D03*
X133215Y35905D03*
X135240Y8030D03*
X135840Y9280D03*
X135555Y9595D03*
Y11065D03*
X135840Y11480D03*
X135240Y29480D03*
X135555Y31045D03*
X135840Y30730D03*
X135555Y32515D03*
X135840Y32930D03*
X138040Y9280D03*
X137370Y11670D03*
X137710Y9930D03*
X136260Y9980D03*
X137710Y10780D03*
X136260D03*
X137010Y10380D03*
X138080Y11480D03*
X136770Y11720D03*
X138040Y30730D03*
X137370Y33120D03*
X137710Y31380D03*
X136260Y31430D03*
X137710Y32230D03*
X136260D03*
X137010Y31830D03*
X138080Y32930D03*
X136770Y33170D03*
X139760Y9180D03*
X140360D03*
X138425Y9945D03*
X138610Y10630D03*
X138425Y11025D03*
X139760Y30630D03*
X140360D03*
X138425Y31395D03*
X138610Y32080D03*
X138425Y32475D03*
X143110Y11830D03*
X142610Y11980D03*
X143110Y33280D03*
X142610Y33430D03*
G54D21*
G01X11400Y6650D02*
X10650D01*
G01X13650Y1300D02*
Y4347D01*
X12560Y5437D01*
Y9560D01*
X12750Y9750D01*
Y10300D01*
X12550Y10500D01*
Y11850D01*
G01X11052Y14748D02*
X11402D01*
G01X15370Y10380D02*
X15400Y10350D01*
Y5150D01*
X15350Y5100D01*
G01X16850Y5550D02*
Y6650D01*
G01X18540Y17430D02*
Y13400D01*
G01X18150Y13130D02*
Y12110D01*
X18170Y12090D01*
G01X23791Y19585D02*
Y19541D01*
X23620Y19370D01*
Y16250D01*
G01X24050Y20650D02*
Y20453D01*
X23275Y19678D01*
Y18875D01*
G01X30125Y18475D02*
X31375D01*
X31600Y18250D01*
Y17200D01*
G01X32750Y20950D02*
Y13150D01*
G01Y9400D02*
Y6547D01*
X32760Y6537D01*
Y6363D01*
X32750Y6353D01*
Y3050D01*
G01X33700Y20950D02*
X33450Y20700D01*
Y17697D01*
X33700Y17447D01*
Y15957D01*
X33545Y15802D01*
Y13812D01*
X34005Y13352D01*
Y10066D01*
X33534Y9595D01*
Y6906D01*
X33800Y6640D01*
Y6320D01*
X33534Y6054D01*
Y3250D01*
G01X39050Y5400D02*
Y5350D01*
X39600Y4800D01*
Y3050D01*
G01X39750Y18500D02*
X39800Y18450D01*
Y17697D01*
X39790Y17687D01*
Y17513D01*
X39800Y17503D01*
Y16747D01*
X39740Y16687D01*
Y16513D01*
X39800Y16453D01*
Y15900D01*
X39900Y15800D01*
Y15750D01*
G01X42150Y18250D02*
Y18047D01*
X42160Y18037D01*
Y17863D01*
X42150Y17853D01*
Y16100D01*
X42050Y16000D01*
Y15700D01*
X42150Y15600D01*
Y11650D01*
G01X47700Y19150D02*
X48060Y18790D01*
Y13790D01*
X48900Y12950D01*
Y10000D01*
X49000Y9900D01*
Y7520D01*
X48230Y6750D01*
Y6220D01*
G01X57750Y4350D02*
X56800D01*
X55983Y5167D01*
Y16387D01*
X55730Y16640D01*
Y17760D01*
X55800Y17830D01*
Y20000D01*
X56600Y20800D01*
G01X57100Y14300D02*
Y17750D01*
G01X65250Y10350D02*
X64050D01*
X63650Y9950D01*
Y2400D01*
G01X85500Y5000D02*
Y9700D01*
X87100Y11300D01*
Y12180D01*
X86350Y12930D01*
Y15300D01*
X86260Y15390D01*
Y24710D01*
X86400Y24850D01*
Y26050D01*
X85950Y26500D01*
G01X84950D02*
X85150D01*
X85450Y26200D01*
Y21600D01*
X85400Y21550D01*
G01X89800Y26500D02*
X89100Y25800D01*
Y24700D01*
X89600Y24200D01*
Y17670D01*
G01X94500Y25500D02*
X94450Y25450D01*
Y24550D01*
X95000Y24000D01*
Y21150D01*
X95250Y20900D01*
Y16050D01*
X95000Y15800D01*
G54D12*
X1050Y22700D03*
Y23100D03*
X6225Y6675D03*
X6650Y6250D03*
X6650Y13860D03*
X6200Y14300D03*
X7900Y22100D03*
X8100Y21900D03*
X7400Y21400D03*
X7750D03*
X8600Y20650D03*
X8000D03*
X8250Y24700D03*
X8500D03*
X10609Y20259D03*
X9094Y20650D03*
X9980Y24050D03*
X9844Y25194D03*
X12938Y19438D03*
X12900Y18850D03*
X11550Y20350D03*
X11950D03*
X13050Y21400D03*
X12700D03*
X12650Y22150D03*
X12450Y21950D03*
X12300Y24700D03*
X12000D03*
X13847Y10450D03*
X15200Y11803D03*
X14850D03*
X13600Y19438D03*
X13500Y18850D03*
X13800Y23250D03*
X16400Y3600D03*
X16750D03*
Y4100D03*
Y9050D03*
X16400Y8550D03*
X16750D03*
X16450Y11800D03*
X16800Y13950D03*
Y14550D03*
Y15050D03*
X16250Y23250D03*
X18700Y1800D03*
X17650Y4900D03*
X17800Y7350D03*
X17700Y10000D03*
X17800Y13100D03*
X17700Y15850D03*
X21673Y21850D03*
X21650Y21500D03*
X20900Y21750D03*
X21371Y22600D03*
X21400Y23800D03*
X20900Y23550D03*
X22150Y3500D03*
Y4200D03*
Y8450D03*
Y9150D03*
X23050Y10800D03*
X23600D03*
X22200Y14450D03*
Y15150D03*
X23672Y22072D03*
X21950Y21500D03*
X23800Y20900D03*
X24950Y5100D03*
X24900Y4225D03*
X25600Y4650D03*
X26100D03*
X24112Y10788D03*
X24350Y13168D03*
X25850Y11850D03*
X25400D03*
X24400Y14650D03*
Y14100D03*
X25850Y15180D03*
Y15490D03*
X24400Y19211D03*
Y19700D03*
X24600Y20800D03*
X24627Y21850D03*
X24650Y21500D03*
X24350D03*
X24050Y20650D03*
X27100Y4300D03*
X26636Y10400D03*
X26300D03*
X27700Y12614D03*
X26675Y12125D03*
X26164Y12100D03*
X26800Y13956D03*
X26350D03*
X28000Y13950D03*
X26350Y16794D03*
X26800D03*
X28000Y16800D03*
X28600Y15700D03*
Y15040D03*
X28912Y15476D03*
X28667Y27400D03*
X32000Y1600D03*
Y4650D03*
Y5050D03*
X31850Y13250D03*
X31200D03*
X31950Y15750D03*
X30950Y14750D03*
X31500Y16800D03*
X31600Y17200D03*
X30928Y24561D03*
X31950Y26050D03*
X30900Y25350D03*
X30833Y27450D03*
X34000Y4650D03*
X34500D03*
X33014Y4200D03*
X34214Y9450D03*
X34550D03*
X33020Y8470D03*
X33050Y13256D03*
X33775D03*
Y15706D03*
X33300Y15700D03*
X34100Y14500D03*
X34382Y14465D03*
X34493Y17007D03*
X34500Y17350D03*
X33300Y24600D03*
X33950Y25750D03*
X33050Y27453D03*
X32700D03*
X34300Y27450D03*
X35386Y5100D03*
Y4264D03*
X35380Y8430D03*
X36617Y27400D03*
X37350Y2400D03*
X38878Y24561D03*
X38850Y25350D03*
X37250Y27800D03*
X37950D03*
X38783Y27450D03*
X40700Y3600D03*
X39840Y6650D03*
X39440Y5950D03*
X40036Y8936D03*
X39564Y10350D03*
X40890Y11680D03*
X40740Y13350D03*
X40890Y15460D03*
Y15150D03*
X39900Y26050D03*
X41000Y26800D03*
X41700Y1250D03*
X42500Y3950D03*
X42250Y3700D03*
X41450Y3900D03*
X41440Y6650D03*
Y6150D03*
Y5600D03*
X42950Y6500D03*
X42090Y8280D03*
X42440D03*
X42890Y7630D03*
X41600Y10600D03*
X41750Y11550D03*
X41600Y13750D03*
X42450Y13400D03*
X42850Y14914D03*
X42875Y15925D03*
X42750Y14350D03*
X41650Y16950D03*
X41250Y24600D03*
X41900Y25750D03*
X41600Y26800D03*
X43710Y9000D03*
X43800Y17350D03*
X45150Y27800D03*
X44517Y27400D03*
X46600Y3350D03*
Y3950D03*
X47010Y6520D03*
X47610Y7990D03*
X47300Y9350D03*
X46550Y17900D03*
X46778Y24561D03*
X47650Y23400D03*
X46750Y25350D03*
X45850Y27800D03*
X46683Y27450D03*
X49100Y2900D03*
X49080Y3190D03*
X49070Y4290D03*
X49270D03*
X48600Y6310D03*
X49700Y6300D03*
X48170Y7640D03*
X49150Y24600D03*
X48200Y23400D03*
X49150Y25050D03*
X49194Y26400D03*
X47800Y26050D03*
X50170Y7640D03*
X50820Y7740D03*
X50050Y22550D03*
Y23050D03*
X58075Y24125D03*
X58100Y23150D03*
X58050Y25750D03*
X58450Y26150D03*
X64400Y400D03*
X64750Y2400D03*
X64150Y16900D03*
X63100Y23150D03*
X63075Y24125D03*
X63050Y25750D03*
X63450Y26150D03*
X68100Y23150D03*
X68075Y24125D03*
X68050Y25750D03*
X68450Y26150D03*
X69106Y34594D03*
X68600Y34050D03*
X69050Y37350D03*
X69600Y1425D03*
X70800Y3200D03*
X71150Y4850D03*
X69600Y10850D03*
X70550Y28150D03*
X71400Y34050D03*
X70800D03*
X70400D03*
X69300Y37350D03*
X70644Y38094D03*
X71550Y3650D03*
X71650Y18000D03*
Y21400D03*
X73100Y23150D03*
X73075Y24125D03*
X73050Y25750D03*
X73450Y26150D03*
X73500Y34050D03*
X73044Y34544D03*
X73100Y37350D03*
X72800D03*
X71456Y38094D03*
X74950Y4050D03*
X75400Y14500D03*
Y17940D03*
X75494Y34550D03*
X74150Y34000D03*
X73850D03*
X73873Y34350D03*
X77540Y660D03*
X77800Y3000D03*
X75900Y1425D03*
X76676Y3274D03*
X77200Y3850D03*
X76750Y6700D03*
X77200Y9100D03*
X77800Y9700D03*
X77844Y34600D03*
Y33406D03*
X76500Y34000D03*
X76200D03*
X76223Y34350D03*
X78000Y2100D03*
X78850Y4900D03*
X79300Y10200D03*
X78500Y13900D03*
X78350Y14950D03*
X79300Y16350D03*
X78250Y18300D03*
X80800Y7374D03*
X81456Y34594D03*
X80950Y34050D03*
X81400Y37350D03*
X81650D03*
X83350Y9700D03*
X83750Y10200D03*
X82245Y12845D03*
X82750Y34050D03*
X83150D03*
X83750D03*
X83806Y38094D03*
X82994D03*
X84600Y8700D03*
X84450Y12250D03*
X85394Y34544D03*
X85850Y34050D03*
X86500Y34000D03*
X86200D03*
X86223Y34350D03*
X85450Y37350D03*
X85150D03*
X88550Y34000D03*
X88573Y34350D03*
X87844Y34550D03*
X88850Y34000D03*
X90194Y34600D03*
Y33406D03*
X94023Y8977D03*
X94750Y9350D03*
X94450Y13900D03*
Y14600D03*
X96300Y9350D03*
X98400Y31550D03*
X98550Y37750D03*
X102250Y23400D03*
X103800Y24497D03*
X106580Y6950D03*
X106686Y8110D03*
X106376D03*
X107000Y8150D03*
X107080Y9330D03*
X107700Y24497D03*
X106150Y23400D03*
X107820Y32560D03*
Y32250D03*
X107720Y38500D03*
Y38810D03*
X109460Y7600D03*
X109780D03*
X109050Y8944D03*
X109344D03*
X108950Y31480D03*
X109350Y31550D03*
X109250Y37800D03*
X108850Y37730D03*
X111650Y23150D03*
X111625Y24125D03*
X112000Y26150D03*
X111600Y25750D03*
X115400Y23200D03*
X115375Y24175D03*
X115750Y26200D03*
X115350Y25800D03*
X116336Y37016D03*
Y38660D03*
Y38260D03*
Y39804D03*
X116896Y30806D03*
X118090D03*
X118040Y33156D03*
X117840Y32427D03*
X117490Y32450D03*
Y32150D03*
X119824Y12150D03*
X119930Y13450D03*
X119930Y13800D03*
X119100Y23200D03*
X119075Y24175D03*
X119450Y26200D03*
X119050Y25800D03*
X122950Y23200D03*
X122925Y24175D03*
X122900Y25800D03*
X123300Y26200D03*
X130090Y6930D03*
X130196Y8090D03*
X129886D03*
X130510Y8130D03*
X130590Y9310D03*
X130090Y28380D03*
X130196Y29540D03*
X129886D03*
X130510Y29580D03*
X130590Y30760D03*
X132560Y8924D03*
X132854D03*
X132970Y7580D03*
X133290D03*
X132970Y29030D03*
X133290D03*
X132560Y30374D03*
X132854D03*
X143440Y13430D03*
X143440Y13780D03*
X143334Y12130D03*
X143440Y34880D03*
X143440Y35230D03*
X143334Y33580D03*
G54D22*
G01X17555Y6470D02*
Y9445D01*
X17350Y9650D01*
Y16050D01*
X17250Y16150D01*
G01X17650Y10880D02*
Y10850D01*
X18100Y10400D01*
Y6900D01*
G01X22850Y16900D02*
Y11091D01*
X22777Y11018D01*
G01X24744Y16644D02*
Y18406D01*
G01X28850Y10350D02*
X28800Y10300D01*
Y9350D01*
X27780Y8330D01*
Y7250D01*
X27870Y7160D01*
Y5330D01*
X28250Y4950D01*
Y2000D01*
X27900Y1650D01*
G01X27250Y13250D02*
X27450Y13450D01*
Y18850D01*
G01X32750Y13150D02*
X33750Y12150D01*
Y10600D01*
X32750Y9600D01*
Y9400D01*
G01X36250Y8300D02*
X36050Y8100D01*
Y7431D01*
X36250Y7231D01*
Y1000D01*
G01X37250Y8850D02*
X36870D01*
X36750Y8730D01*
Y7511D01*
X36820Y7441D01*
Y4520D01*
X36655Y4355D01*
Y3545D01*
X37350Y2850D01*
Y2400D01*
G01X35550Y16100D02*
Y14100D01*
X35412Y13962D01*
Y13438D01*
X35800Y13050D01*
Y10120D01*
X36570Y9350D01*
X37250D01*
G01X41600Y10600D02*
X41800Y10400D01*
Y1750D01*
X41700Y1650D01*
Y1250D01*
G01X44750Y4850D02*
X44690D01*
X44270Y4430D01*
Y3519D01*
X46389Y1400D01*
G01X45250Y4850D02*
X45600D01*
X46000Y4450D01*
Y3167D01*
X47767Y1400D01*
G01X57750Y13850D02*
X57550D01*
X57100Y14300D01*
G01X60350Y17950D02*
Y17400D01*
X60650Y17100D01*
Y15500D01*
X60500Y15350D01*
G01X61000Y18250D02*
Y14900D01*
X61050Y14850D01*
G01X69150Y5350D02*
Y8650D01*
X68700Y9100D01*
Y18500D01*
G54D13*
G01X11858Y5300D02*
Y5854D01*
X11400Y6312D01*
Y6650D01*
G01X11200Y5400D02*
X11300Y5300D01*
X11858D01*
G01Y13250D02*
X12250Y12858D01*
Y10512D01*
X12100Y10362D01*
Y9200D01*
X12305Y8995D01*
Y8055D01*
X11400Y7150D01*
Y6650D01*
G01X11450Y14700D02*
Y13658D01*
X11858Y13250D01*
G01X12938Y19438D02*
Y19388D01*
X12500Y18950D01*
Y16250D01*
X11450Y15200D01*
Y14700D01*
G01X32000Y4350D02*
Y1600D01*
G01X49450Y16550D02*
X49950D01*
G01D02*
X49977Y16523D01*
X50673D01*
X50850Y16700D01*
Y19350D01*
X49700Y20500D01*
Y22800D01*
X49100Y23400D01*
X48200D01*
G01X47650D02*
X48200D01*
X2124Y28900D03*
X1624D03*
X1124D03*
X624D03*
X3550Y2895D03*
X4124Y28900D03*
X3624D03*
X3124D03*
X2624D03*
X4750Y24305D03*
X6624Y28900D03*
X6124D03*
X5624D03*
X5124D03*
X4624D03*
X8624D03*
X8124D03*
X7624D03*
X7124D03*
X10624D03*
X10124D03*
X9624D03*
X9124D03*
X12624D03*
X12124D03*
X11624D03*
X11124D03*
X15124D03*
X14624D03*
X14124D03*
X13624D03*
X13124D03*
X17124D03*
X16624D03*
X16124D03*
X15624D03*
X19124D03*
X18624D03*
X18124D03*
X17624D03*
X21624D03*
X21124D03*
X20624D03*
X20124D03*
X19624D03*
X23624D03*
X23124D03*
X22624D03*
X22124D03*
X25624D03*
X25124D03*
X24624D03*
X24124D03*
X28124D03*
X27624D03*
X27124D03*
X26624D03*
X26124D03*
X30124D03*
X29624D03*
X29124D03*
X28624D03*
X32124D03*
X31624D03*
X31124D03*
X30624D03*
X34624D03*
X34124D03*
X33624D03*
X33124D03*
X32624D03*
X36624D03*
X36124D03*
X35624D03*
X35124D03*
X38624D03*
X38124D03*
X37624D03*
X37124D03*
X41124D03*
X40624D03*
X40124D03*
X39624D03*
X39124D03*
X43124D03*
X42624D03*
X42124D03*
X41624D03*
X45124D03*
X44624D03*
X44124D03*
X43624D03*
X47124D03*
X46624D03*
X46124D03*
X45624D03*
X49624D03*
X49124D03*
X48624D03*
X48124D03*
X47624D03*
X51624D03*
X51124D03*
X50624D03*
X50124D03*
X52135Y794D03*
Y294D03*
Y2794D03*
Y2294D03*
Y1794D03*
Y1294D03*
Y4794D03*
Y4294D03*
Y3794D03*
Y3294D03*
Y7294D03*
Y6794D03*
Y6294D03*
Y5794D03*
Y5294D03*
Y9294D03*
Y8794D03*
Y8294D03*
Y7794D03*
Y11294D03*
Y10794D03*
Y10294D03*
Y9794D03*
Y13794D03*
Y13294D03*
Y12794D03*
Y12294D03*
Y11794D03*
Y15794D03*
Y15294D03*
Y14794D03*
Y14294D03*
Y17794D03*
Y17294D03*
Y16794D03*
Y16294D03*
Y20294D03*
Y19794D03*
Y19294D03*
Y18794D03*
Y18294D03*
Y22294D03*
Y21794D03*
Y21294D03*
Y20794D03*
Y24294D03*
Y23794D03*
Y23294D03*
Y22794D03*
Y26794D03*
Y26294D03*
Y25794D03*
Y25294D03*
Y24794D03*
Y28294D03*
Y27794D03*
Y27294D03*
X53624Y28900D03*
X53124D03*
X52624D03*
X52124D03*
X56124D03*
X55624D03*
X55124D03*
X54624D03*
X54124D03*
X58124D03*
X57624D03*
X57124D03*
X56624D03*
X60124D03*
X59624D03*
X59124D03*
X58624D03*
X62624D03*
X62124D03*
X61624D03*
X61124D03*
X60624D03*
X64624D03*
X64124D03*
X63624D03*
X63124D03*
X66624D03*
X66124D03*
X65624D03*
X65124D03*
X69124D03*
X68624D03*
X68124D03*
X67624D03*
X67124D03*
X67495Y30474D03*
Y29474D03*
Y29974D03*
Y30974D03*
Y32474D03*
Y31474D03*
Y31974D03*
Y32974D03*
Y34474D03*
Y33474D03*
Y33974D03*
Y34974D03*
Y35974D03*
Y36474D03*
Y36974D03*
Y37474D03*
Y35474D03*
Y38974D03*
Y37974D03*
Y38474D03*
Y39474D03*
Y40974D03*
Y39974D03*
Y40474D03*
Y41474D03*
X71124Y28900D03*
X70624D03*
X70124D03*
X69624D03*
X73124D03*
X72624D03*
X72124D03*
X71624D03*
X75624D03*
X75124D03*
X74624D03*
X74124D03*
X73624D03*
X77624D03*
X77124D03*
X76624D03*
X76124D03*
X79624D03*
X79124D03*
X78624D03*
X78124D03*
X81624D03*
X81124D03*
X80624D03*
X80124D03*
X80155Y30544D03*
Y29544D03*
Y30044D03*
Y31044D03*
Y32544D03*
Y31544D03*
Y32044D03*
Y33044D03*
Y34544D03*
Y33544D03*
Y34044D03*
Y35044D03*
Y36044D03*
Y36544D03*
Y37044D03*
Y37544D03*
Y35544D03*
Y39044D03*
Y38044D03*
Y38544D03*
Y39544D03*
Y41044D03*
Y40044D03*
Y40544D03*
Y41544D03*
X84124Y28900D03*
X83624D03*
X83124D03*
X82624D03*
X82124D03*
X86124D03*
X85624D03*
X85124D03*
X84624D03*
X88124D03*
X87624D03*
X87124D03*
X86624D03*
X90624D03*
X90124D03*
X89624D03*
X89124D03*
X88624D03*
X92624D03*
X92124D03*
X91624D03*
X91124D03*
X92475Y30544D03*
Y29544D03*
Y30044D03*
Y31044D03*
Y32544D03*
Y31544D03*
Y32044D03*
Y33044D03*
Y34544D03*
Y33544D03*
Y34044D03*
Y35044D03*
Y36044D03*
Y36544D03*
Y37044D03*
Y37544D03*
Y35544D03*
Y39044D03*
Y38044D03*
Y38544D03*
Y39544D03*
Y41044D03*
Y40044D03*
Y40544D03*
Y41544D03*
X94624Y28900D03*
X94124D03*
X93624D03*
X93124D03*
X94694Y35640D03*
X94194D03*
X93694D03*
X93194D03*
X97124Y28900D03*
X96624D03*
X96124D03*
X95624D03*
X95124D03*
X97194Y35640D03*
X96694D03*
X96194D03*
X95694D03*
X95194D03*
X99124Y28900D03*
X98624D03*
X98124D03*
X97624D03*
X98694Y35640D03*
X98194D03*
X97694D03*
X99194D03*
X101124Y28900D03*
X100624D03*
X100124D03*
X99624D03*
X101194Y35640D03*
X100694D03*
X100194D03*
X99694D03*
X101885Y294D03*
Y794D03*
Y1294D03*
Y1794D03*
Y2294D03*
Y2794D03*
Y3294D03*
Y3794D03*
Y4294D03*
Y4794D03*
Y5794D03*
Y6294D03*
Y6794D03*
Y7294D03*
Y5294D03*
Y7794D03*
Y8294D03*
Y8794D03*
Y9294D03*
Y9794D03*
Y10294D03*
Y10794D03*
Y11294D03*
Y11794D03*
Y12294D03*
Y12794D03*
Y13294D03*
Y13794D03*
Y14294D03*
Y14794D03*
Y15294D03*
Y15794D03*
Y16294D03*
Y16794D03*
Y17294D03*
Y17794D03*
Y18294D03*
Y18794D03*
Y19294D03*
Y19794D03*
Y20294D03*
X103004Y21170D03*
X102504D03*
X103504D03*
X101885Y20794D03*
Y21294D03*
Y21794D03*
Y22294D03*
Y22794D03*
Y23294D03*
Y23794D03*
Y24294D03*
Y24794D03*
Y25294D03*
Y25794D03*
Y26294D03*
Y26794D03*
Y27294D03*
Y27794D03*
Y28294D03*
X103624Y28900D03*
X103124D03*
X102624D03*
X102124D03*
X101624D03*
X102945Y30444D03*
Y29444D03*
Y29944D03*
Y30944D03*
Y32444D03*
Y31444D03*
Y31944D03*
Y32944D03*
Y34444D03*
Y33444D03*
Y33944D03*
Y34944D03*
X102194Y35640D03*
X101694D03*
X102945Y35944D03*
Y36444D03*
Y36944D03*
Y37444D03*
Y35444D03*
Y38944D03*
Y37944D03*
Y38444D03*
Y39444D03*
Y40944D03*
Y39944D03*
Y40444D03*
Y41444D03*
X105705Y21804D03*
Y22304D03*
X105504Y21170D03*
X105004D03*
X104504D03*
X104004D03*
X105705Y22804D03*
Y23304D03*
Y23804D03*
Y24304D03*
Y24804D03*
Y25304D03*
Y25804D03*
Y26304D03*
Y26804D03*
Y27304D03*
Y27804D03*
Y28304D03*
X105624Y28900D03*
X105124D03*
X104624D03*
X104124D03*
X105694Y35640D03*
X105194D03*
X104694D03*
X104194D03*
X103694D03*
X107504Y21170D03*
X107004D03*
X106504D03*
X106004D03*
X107624Y28900D03*
X107124D03*
X106624D03*
X106124D03*
X107194Y35640D03*
X106694D03*
X106194D03*
X107694D03*
X109504Y21170D03*
X109004D03*
X108504D03*
X108004D03*
X110004D03*
X110124Y28900D03*
X109624D03*
X109124D03*
X108624D03*
X108124D03*
X109694Y35640D03*
X109194D03*
X108694D03*
X108194D03*
X112004Y21170D03*
X111504D03*
X111004D03*
X110504D03*
X112124Y28900D03*
X111624D03*
X111124D03*
X110624D03*
X112194Y35640D03*
X111694D03*
X111194D03*
X110694D03*
X110194D03*
X113455Y21824D03*
Y22324D03*
X114004Y21170D03*
X113504D03*
X113004D03*
X112504D03*
X113455Y22824D03*
Y23324D03*
Y23824D03*
Y24324D03*
Y24824D03*
Y25324D03*
Y25824D03*
Y26324D03*
Y27324D03*
Y27824D03*
Y28324D03*
Y26824D03*
X114124Y28900D03*
X113624D03*
X113124D03*
X112624D03*
X112845Y30944D03*
Y29944D03*
Y29444D03*
Y30444D03*
Y32944D03*
Y31944D03*
Y31444D03*
Y32444D03*
Y34944D03*
Y33944D03*
Y33444D03*
Y34444D03*
Y37444D03*
Y36944D03*
Y36444D03*
Y35944D03*
Y35444D03*
Y39444D03*
Y38444D03*
Y37944D03*
Y38944D03*
Y41444D03*
Y40444D03*
Y39944D03*
Y40944D03*
X116504Y21170D03*
X116004D03*
X115504D03*
X115004D03*
X114504D03*
X116124Y28900D03*
X115624D03*
X115124D03*
X114624D03*
X117205Y21814D03*
Y22314D03*
X118004Y21170D03*
X117504D03*
X117004D03*
X118504D03*
X117205Y22814D03*
Y23314D03*
Y23814D03*
Y24314D03*
Y24814D03*
Y25314D03*
Y25814D03*
Y26314D03*
Y27314D03*
Y27814D03*
Y28314D03*
Y26814D03*
X118624Y28900D03*
X118124D03*
X117624D03*
X117124D03*
X116624D03*
X120504Y21170D03*
X120004D03*
X119504D03*
X119004D03*
X120624Y28900D03*
X120124D03*
X119624D03*
X119124D03*
X120955Y21824D03*
Y22324D03*
X123004Y21170D03*
X122504D03*
X122004D03*
X121504D03*
X121004D03*
X120955Y22824D03*
Y23324D03*
Y23824D03*
Y24324D03*
Y24824D03*
Y25324D03*
Y25824D03*
Y26324D03*
Y27324D03*
Y27824D03*
Y28324D03*
Y26824D03*
X122624Y28900D03*
X122124D03*
X121624D03*
X121124D03*
X125095Y644D03*
Y1144D03*
Y2644D03*
Y2144D03*
Y1644D03*
Y3144D03*
Y5144D03*
Y4644D03*
Y4144D03*
Y3644D03*
Y5644D03*
Y7144D03*
Y6644D03*
Y6144D03*
Y7644D03*
Y9144D03*
Y8644D03*
Y8144D03*
Y9644D03*
Y11644D03*
Y11144D03*
Y10644D03*
Y10144D03*
Y12144D03*
Y13644D03*
Y13144D03*
Y12644D03*
X125125Y14784D03*
Y14284D03*
Y15784D03*
Y15284D03*
Y16784D03*
Y16284D03*
Y17784D03*
Y17284D03*
Y18784D03*
Y18284D03*
Y20284D03*
Y19784D03*
Y19284D03*
X124504Y21170D03*
X124004D03*
X123504D03*
X125124D03*
X125125Y22284D03*
Y21784D03*
Y23284D03*
Y22784D03*
Y24284D03*
Y23784D03*
Y25284D03*
Y24784D03*
Y26784D03*
Y26284D03*
Y25784D03*
X124624Y28900D03*
X124124D03*
X123624D03*
X123124D03*
X125125Y27784D03*
Y27284D03*
Y28784D03*
Y28284D03*
Y29784D03*
Y29284D03*
Y30784D03*
Y30284D03*
Y31784D03*
Y31284D03*
Y32784D03*
Y32284D03*
Y34284D03*
Y33784D03*
Y33284D03*
Y35284D03*
Y34784D03*
Y36284D03*
Y35784D03*
Y37284D03*
Y36784D03*
Y38284D03*
Y37784D03*
Y39284D03*
Y38784D03*
Y40784D03*
Y40284D03*
Y39784D03*
Y41784D03*
Y41284D03*
Y42284D03*
X127124Y21170D03*
X126624D03*
X126124D03*
X125624D03*
X127624D03*
X129124D03*
X128624D03*
X128124D03*
X129624D03*
X131624D03*
X131124D03*
X130624D03*
X130124D03*
X133624D03*
X133124D03*
X132624D03*
X132124D03*
X134124D03*
X135624D03*
X135124D03*
X134624D03*
X136124D03*
X138124D03*
X137624D03*
X137124D03*
X136624D03*
X140124D03*
X139624D03*
X139124D03*
X138624D03*
X142124D03*
X141624D03*
X141124D03*
X140624D03*
X142624D03*
X144624D03*
X144124D03*
X143624D03*
X143124D03*
X146624D03*
X146124D03*
X145624D03*
X145124D03*
X147624D03*
X147124D03*
G54D23*
G01X2124Y5174D02*
X2300Y5350D01*
G01X2124Y3674D02*
X2300Y3850D01*
G01X2124Y4026D02*
X2300Y3850D01*
G01X2124Y7174D02*
X2300Y7350D01*
G01X2124Y5674D02*
X2300Y5850D01*
G01X2124Y6026D02*
X2300Y5850D01*
G01X2124Y5526D02*
X2300Y5350D01*
G01X2124Y9174D02*
X2300Y9350D01*
G01X2124Y9526D02*
X2300Y9350D01*
G01X2124Y7674D02*
X2300Y7850D01*
G01X2124Y8026D02*
X2300Y7850D01*
G01X2124Y7526D02*
X2300Y7350D01*
G01X2124Y11674D02*
X2300Y11850D01*
G01X2124Y11174D02*
X2300Y11350D01*
G01X2124Y11526D02*
X2300Y11350D01*
G01X2124Y9674D02*
X2300Y9850D01*
G01X2124Y10026D02*
X2300Y9850D01*
G01X2124Y13674D02*
X2300Y13850D01*
G01X2124Y13174D02*
X2300Y13350D01*
G01X2124Y13526D02*
X2300Y13350D01*
G01X2124Y12026D02*
X2300Y11850D01*
G01X2124Y15674D02*
X2300Y15850D01*
G01X2124Y16026D02*
X2300Y15850D01*
G01X2124Y15174D02*
X2300Y15350D01*
G01X2124Y15526D02*
X2300Y15350D01*
G01X2124Y14026D02*
X2300Y13850D01*
G01X2124Y17674D02*
X2300Y17850D01*
G01X2124Y18026D02*
X2300Y17850D01*
G01X2124Y17174D02*
X2300Y17350D01*
G01X2124Y17526D02*
X2300Y17350D01*
G01X2124Y19674D02*
X2300Y19850D01*
G01X2124Y20026D02*
X2300Y19850D01*
G01X2124Y19174D02*
X2300Y19350D01*
G01X2124Y19526D02*
X2300Y19350D01*
G01X2124Y22174D02*
X2300Y22350D01*
G01X2124Y22526D02*
X2300Y22350D01*
G01X2124Y21174D02*
X2300Y21350D01*
G01X2124Y21526D02*
X2300Y21350D01*
G01X2124Y23174D02*
X2300Y23350D01*
G01X2124Y23526D02*
X2300Y23350D01*
G01X3563Y423D02*
X4340Y1200D01*
G01D02*
X5117Y1977D01*
G01X3563D02*
X4340Y1200D01*
G01D02*
X5117Y423D01*
G01X2624Y4674D02*
X2800Y4850D01*
G01D02*
X2976Y5026D01*
G01X2624D02*
X2800Y4850D01*
G01D02*
X2976Y4674D01*
G01X2624Y4174D02*
X2800Y4350D01*
G01D02*
X2976Y4526D01*
G01X2624D02*
X2800Y4350D01*
G01D02*
X2976Y4174D01*
G01X4124Y5174D02*
X4300Y5350D01*
G01X2300D02*
X2476Y5174D01*
G01X2300Y3850D02*
X2476Y4026D01*
G01X2300Y3850D02*
X2476Y3674D01*
G01X2624Y6674D02*
X2800Y6850D01*
G01D02*
X2976Y7026D01*
G01X2624D02*
X2800Y6850D01*
G01D02*
X2976Y6674D01*
G01X2624Y6174D02*
X2800Y6350D01*
G01D02*
X2976Y6526D01*
G01X2624D02*
X2800Y6350D01*
G01D02*
X2976Y6174D01*
G01X4124Y7174D02*
X4300Y7350D01*
G01D02*
X4476Y7526D01*
G01X4124D02*
X4300Y7350D01*
G01D02*
X4476Y7174D01*
G01X4124Y5674D02*
X4300Y5850D01*
G01D02*
X4476Y6026D01*
G01X4124D02*
X4300Y5850D01*
G01D02*
X4476Y5674D01*
G01X4300Y5350D02*
X4476Y5526D01*
G01X4124D02*
X4300Y5350D01*
G01D02*
X4476Y5174D01*
G01X2300Y7350D02*
X2476Y7526D01*
G01X2300Y7350D02*
X2476Y7174D01*
G01X2300Y5850D02*
X2476Y6026D01*
G01X2300Y5850D02*
X2476Y5674D01*
G01X2300Y5350D02*
X2476Y5526D01*
G01X2624Y8174D02*
X2800Y8350D01*
G01D02*
X2976Y8526D01*
G01X2624D02*
X2800Y8350D01*
G01D02*
X2976Y8174D01*
G01X4124Y8674D02*
X4300Y8850D01*
G01D02*
X4476Y9026D01*
G01X4124D02*
X4300Y8850D01*
G01D02*
X4476Y8674D01*
G01X2300Y9350D02*
X2476Y9526D01*
G01X2300Y9350D02*
X2476Y9174D01*
G01X2300Y7850D02*
X2476Y8026D01*
G01X2300Y7850D02*
X2476Y7674D01*
G01X2624Y11174D02*
X2800Y11350D01*
G01D02*
X2976Y11526D01*
G01X2624D02*
X2800Y11350D01*
G01D02*
X2976Y11174D01*
G01X2624Y9674D02*
X2800Y9850D01*
G01D02*
X2976Y10026D01*
G01X2624D02*
X2800Y9850D01*
G01D02*
X2976Y9674D01*
G01X4124Y10174D02*
X4300Y10350D01*
G01D02*
X4476Y10526D01*
G01X4124D02*
X4300Y10350D01*
G01D02*
X4476Y10174D01*
G01X2300Y11850D02*
X2476Y11674D01*
G01X2300Y11350D02*
X2476Y11526D01*
G01X2300Y11350D02*
X2476Y11174D01*
G01X2300Y9850D02*
X2476Y10026D01*
G01X2300Y9850D02*
X2476Y9674D01*
G01X2624Y12674D02*
X2800Y12850D01*
G01D02*
X2976Y13026D01*
G01X2624D02*
X2800Y12850D01*
G01D02*
X2976Y12674D01*
G01X4124Y13174D02*
X4300Y13350D01*
G01D02*
X4476Y13526D01*
G01X4124D02*
X4300Y13350D01*
G01D02*
X4476Y13174D01*
G01X4300Y11850D02*
X4476Y12026D01*
G01X4124D02*
X4300Y11850D01*
G01X2300Y13850D02*
X2476Y13674D01*
G01X2300Y13350D02*
X2476Y13526D01*
G01X2300Y13350D02*
X2476Y13174D01*
G01X2300Y11850D02*
X2476Y12026D01*
G01X2624Y15674D02*
X2800Y15850D01*
G01D02*
X2976Y16026D01*
G01X2624D02*
X2800Y15850D01*
G01D02*
X2976Y15674D01*
G01X2624Y14174D02*
X2800Y14350D01*
G01D02*
X2976Y14526D01*
G01X2624D02*
X2800Y14350D01*
G01D02*
X2976Y14174D01*
G01X4124Y14674D02*
X4300Y14850D01*
G01D02*
X4476Y15026D01*
G01X4124D02*
X4300Y14850D01*
G01D02*
X4476Y14674D01*
G01X2300Y15850D02*
X2476Y16026D01*
G01X2300Y15850D02*
X2476Y15674D01*
G01X2300Y15350D02*
X2476Y15526D01*
G01X2300Y15350D02*
X2476Y15174D01*
G01X2300Y13850D02*
X2476Y14026D01*
G01X2624Y17174D02*
X2800Y17350D01*
G01D02*
X2976Y17526D01*
G01X2624D02*
X2800Y17350D01*
G01D02*
X2976Y17174D01*
G01X4124Y17674D02*
X4300Y17850D01*
G01D02*
X4476Y18026D01*
G01X4124D02*
X4300Y17850D01*
G01X4124Y16174D02*
X4300Y16350D01*
G01D02*
X4476Y16526D01*
G01X4124D02*
X4300Y16350D01*
G01D02*
X4476Y16174D01*
G01X2300Y17850D02*
X2476Y18026D01*
G01X2300Y17850D02*
X2476Y17674D01*
G01X2300Y17350D02*
X2476Y17526D01*
G01X2300Y17350D02*
X2476Y17174D01*
G01X4124Y19174D02*
X4300Y19350D01*
G01D02*
X4476Y19526D01*
G01X4124D02*
X4300Y19350D01*
G01D02*
X4476Y19174D01*
G01X2300Y19850D02*
X2476Y20026D01*
G01X2300Y19850D02*
X2476Y19674D01*
G01X2300Y19350D02*
X2476Y19526D01*
G01X2300Y19350D02*
X2476Y19174D01*
G01X2624Y21674D02*
X2800Y21850D01*
G01D02*
X2976Y22026D01*
G01X2624D02*
X2800Y21850D01*
G01D02*
X2976Y21674D01*
G01X4124Y22174D02*
X4300Y22350D01*
G01D02*
X4476Y22526D01*
G01X4124D02*
X4300Y22350D01*
G01D02*
X4476Y22174D01*
G01X4124Y20674D02*
X4300Y20850D01*
G01D02*
X4476Y21026D01*
G01X4124D02*
X4300Y20850D01*
G01D02*
X4476Y20674D01*
G01X2300Y22350D02*
X2476Y22526D01*
G01X2300Y22350D02*
X2476Y22174D01*
G01X2300Y21350D02*
X2476Y21526D01*
G01X2300Y21350D02*
X2476Y21174D01*
G01X2624Y22674D02*
X2800Y22850D01*
G01D02*
X2976Y23026D01*
G01X2624D02*
X2800Y22850D01*
G01D02*
X2976Y22674D01*
G01X4124Y23174D02*
X4300Y23350D01*
G01D02*
X4476Y23526D01*
G01X4124D02*
X4300Y23350D01*
G01D02*
X4476Y23174D01*
G01X2300Y23350D02*
X2476Y23526D01*
G01X2300Y23350D02*
X2476Y23174D01*
G01X3563Y25223D02*
X4340Y26000D01*
G01D02*
X5117Y26777D01*
G01X3563D02*
X4340Y26000D01*
G01D02*
X5117Y25223D01*
G01X4624Y4674D02*
X4800Y4850D01*
G01D02*
X4976Y5026D01*
G01X4624D02*
X4800Y4850D01*
G01D02*
X4976Y4674D01*
G01X4624Y6174D02*
X4800Y6350D01*
G01D02*
X4976Y6174D01*
G01X4624Y9174D02*
X4800Y9350D01*
G01D02*
X4976Y9526D01*
G01X4624D02*
X4800Y9350D01*
G01D02*
X4976Y9174D01*
G01X4624Y7674D02*
X4800Y7850D01*
G01D02*
X4976Y8026D01*
G01X4624D02*
X4800Y7850D01*
G01D02*
X4976Y7674D01*
G01X4624Y10674D02*
X4800Y10850D01*
G01D02*
X4976Y11026D01*
G01X4624D02*
X4800Y10850D01*
G01D02*
X4976Y10674D01*
G01X4624Y13674D02*
X4800Y13850D01*
G01D02*
X4976Y13674D01*
G01X4624Y12174D02*
X4800Y12350D01*
G01D02*
X4976Y12526D01*
G01X4624D02*
X4800Y12350D01*
G01D02*
X4976Y12174D01*
G01X4624Y15174D02*
X4800Y15350D01*
G01D02*
X4976Y15526D01*
G01X4624D02*
X4800Y15350D01*
G01D02*
X4976Y15174D01*
G01X4800Y13850D02*
X4976Y14026D01*
G01X4624D02*
X4800Y13850D01*
G01X4624Y16674D02*
X4800Y16850D01*
G01D02*
X4976Y17026D01*
G01X4624D02*
X4800Y16850D01*
G01D02*
X4976Y16674D01*
G01X4624Y19674D02*
X4800Y19850D01*
G01D02*
X4976Y20026D01*
G01X4624D02*
X4800Y19850D01*
G01D02*
X4976Y19674D01*
G01X4624Y18174D02*
X4800Y18350D01*
G01D02*
X4976Y18526D01*
G01X4624D02*
X4800Y18350D01*
G01D02*
X4976Y18174D01*
G01X4624Y21174D02*
X4800Y21350D01*
G01D02*
X4976Y21526D01*
G01X4624D02*
X4800Y21350D01*
G01D02*
X4976Y21174D01*
G01X4624Y22674D02*
X4800Y22850D01*
G01D02*
X4976Y23026D01*
G01X4624D02*
X4800Y22850D01*
G01D02*
X4976Y22674D01*
G01X8300Y17635D02*
Y17835D01*
G01D02*
Y18035D01*
G01X8100Y17835D02*
X8300D01*
G01D02*
X8500D01*
G01X7750Y21180D02*
Y21400D01*
G01D02*
Y21620D01*
G01Y21400D02*
X7970D01*
G01X7400Y21180D02*
Y21400D01*
G01D02*
Y21620D01*
G01X8100Y21680D02*
Y21900D01*
G01D02*
Y22120D01*
G01X7880Y21900D02*
X8100D01*
G01D02*
X8320D01*
G01X7900Y21880D02*
Y22100D01*
G01D02*
Y22320D01*
G01X7680Y22100D02*
X7900D01*
G01D02*
X8120D01*
G01X8500Y24480D02*
Y24700D01*
G01X8250Y24480D02*
Y24700D01*
G01X8500D02*
Y24920D01*
G01Y24700D02*
X8720D01*
G01X8250D02*
Y24920D01*
G01X10600Y3906D02*
Y4106D01*
G01D02*
Y4306D01*
G01X10400Y4106D02*
X10600D01*
G01D02*
X10800D01*
G01X10758Y7192D02*
X10958D01*
G01X9450Y8250D02*
Y8450D01*
G01D02*
Y8650D01*
G01X9250Y8450D02*
X9450D01*
G01D02*
X9650D01*
G01X9050Y7500D02*
Y7700D01*
G01D02*
Y7900D01*
G01X8850Y7700D02*
X9050D01*
G01D02*
X9250D01*
G01X9050Y15450D02*
Y15650D01*
G01D02*
Y15850D01*
G01X8850Y15650D02*
X9050D01*
G01D02*
X9250D01*
G01X10758Y15142D02*
X10958D01*
G01X10000Y17635D02*
Y17835D01*
G01D02*
Y18035D01*
G01X9800Y17835D02*
X10000D01*
G01D02*
X10200D01*
G01X9450Y16200D02*
Y16400D01*
G01D02*
Y16600D01*
G01X9250Y16400D02*
X9450D01*
G01D02*
X9650D01*
G01X9250Y22700D02*
Y22900D01*
G01D02*
X9450D01*
G01X8940Y22700D02*
Y22900D01*
G01X8740D02*
X8940D01*
G01X11850Y3700D02*
Y3900D01*
G01D02*
Y4100D01*
G01X11650Y3900D02*
X11850D01*
G01D02*
X12050D01*
G01X10958Y6992D02*
Y7192D01*
G01D02*
Y7392D01*
G01X11850Y11650D02*
Y11850D01*
G01X11200Y9750D02*
Y9950D01*
G01D02*
Y10150D01*
G01Y9950D02*
X11400D01*
G01X11200Y11300D02*
Y11500D01*
G01D02*
Y11700D01*
G01X11000Y11500D02*
X11200D01*
G01D02*
X11400D01*
G01X11850Y10550D02*
Y10750D01*
G01X11650Y10550D02*
X11850D01*
G01Y11850D02*
Y12050D01*
G01X11650Y11850D02*
X11850D01*
G01X10958Y15142D02*
Y15342D01*
G01Y15142D02*
X11158D01*
G01X11200Y17700D02*
Y17900D01*
G01D02*
Y18100D01*
G01X11000Y17900D02*
X11200D01*
G01D02*
X11400D01*
G01X11850Y18300D02*
Y18500D01*
G01D02*
Y18700D01*
G01X11650Y18500D02*
X11850D01*
G01D02*
X12050D01*
G01X12450Y21730D02*
Y21950D01*
G01D02*
Y22170D01*
G01X12230Y21950D02*
X12450D01*
G01D02*
X12670D01*
G01X12650Y21930D02*
Y22150D01*
G01D02*
Y22370D01*
G01X12430Y22150D02*
X12650D01*
G01D02*
X12870D01*
G01X12700Y21180D02*
Y21400D01*
G01D02*
Y21620D01*
G01X12480Y21400D02*
X12700D01*
G01X11130Y23160D02*
Y23360D01*
G01X10930Y23160D02*
X11130D01*
G01X11430D02*
Y23360D01*
G01Y23160D02*
X11630D01*
G01X11120Y22680D02*
Y22880D01*
G01X10920D02*
X11120D01*
G01X11430Y22680D02*
Y22880D01*
G01D02*
X11630D01*
G01X12000Y24480D02*
Y24700D01*
G01X12300Y24480D02*
Y24700D01*
G01X12133Y22633D02*
X12450Y22950D01*
G01D02*
X12767Y23267D01*
G01X12133D02*
X12450Y22950D01*
G01D02*
X12767Y22633D01*
G01X12000Y24700D02*
Y24920D01*
G01X11780Y24700D02*
X12000D01*
G01X12300D02*
Y24920D01*
G01Y24700D02*
X12520D01*
G01X13750Y6850D02*
Y7050D01*
G01D02*
Y7250D01*
G01X13550Y7050D02*
X13750D01*
G01D02*
X13950D01*
G01X13750Y6100D02*
Y6300D01*
G01X13550D02*
X13750D01*
G01D02*
X13950D01*
G01X15150Y5350D02*
Y5550D01*
G01D02*
Y5750D01*
G01X14950Y5550D02*
X15150D01*
G01X15044Y6994D02*
Y7194D01*
G01D02*
Y7394D01*
G01X14843Y7194D02*
X15044D01*
G01X15150Y5850D02*
Y6050D01*
G01D02*
Y6250D01*
G01X14950Y6050D02*
X15150D01*
G01X14850Y11583D02*
Y11803D01*
G01X15200Y11583D02*
Y11803D01*
G01X15150Y13800D02*
Y14000D01*
G01X14850Y11803D02*
Y12023D01*
G01X14630Y11803D02*
X14850D01*
G01X15200D02*
Y12023D01*
G01Y11803D02*
X15420D01*
G01X15150Y13300D02*
Y13500D01*
G01D02*
Y13700D01*
G01X14950Y13500D02*
X15150D01*
G01D02*
X15350D01*
G01X15100Y15450D02*
X15300D01*
G01X13750Y14800D02*
Y15000D01*
G01D02*
Y15200D01*
G01X13550Y15000D02*
X13750D01*
G01D02*
X13950D01*
G01X13750Y14050D02*
Y14250D01*
G01X13550D02*
X13750D01*
G01D02*
X13950D01*
G01X15150Y14000D02*
Y14200D01*
G01X14950Y14000D02*
X15150D01*
G01D02*
X15350D01*
G01X15044Y14943D02*
Y15144D01*
G01D02*
Y15344D01*
G01X14843Y15144D02*
X15044D01*
G01D02*
X15244D01*
G01X15100Y16150D02*
X15300D01*
G01X15100Y16850D02*
X15300D01*
G01X13050Y21180D02*
Y21400D01*
G01D02*
Y21620D01*
G01Y21400D02*
X13270D01*
G01X16750Y3880D02*
Y4100D01*
G01D02*
Y4320D01*
G01X16530Y4100D02*
X16750D01*
G01D02*
X16970D01*
G01X16750Y3380D02*
Y3600D01*
G01D02*
Y3820D01*
G01Y3600D02*
X16970D01*
G01X16400Y3380D02*
Y3600D01*
G01D02*
Y3820D01*
G01X16180Y3600D02*
X16400D01*
G01X16427Y5973D02*
Y6173D01*
G01D02*
Y6373D01*
G01Y6173D02*
X16627D01*
G01X16700Y7100D02*
Y7300D01*
G01D02*
Y7500D01*
G01X16500Y7300D02*
X16700D01*
G01Y7600D02*
Y7800D01*
G01D02*
Y8000D01*
G01X16500Y7800D02*
X16700D01*
G01D02*
X16900D01*
G01X16750Y8330D02*
Y8550D01*
G01D02*
Y8770D01*
G01Y8550D02*
X16970D01*
G01X16400Y8330D02*
Y8550D01*
G01D02*
Y8770D01*
G01X16180Y8550D02*
X16400D01*
G01X16750Y8830D02*
Y9050D01*
G01D02*
Y9270D01*
G01X16530Y9050D02*
X16750D01*
G01D02*
X16970D01*
G01X16450Y11580D02*
Y11800D01*
G01X16800Y13730D02*
Y13950D01*
G01X16450Y11800D02*
Y12020D01*
G01X16230Y11800D02*
X16450D01*
G01D02*
X16670D01*
G01X15300Y15950D02*
Y16150D01*
G01Y15250D02*
Y15450D01*
G01D02*
Y15650D01*
G01X16800Y14830D02*
Y15050D01*
G01D02*
Y15270D01*
G01X16580Y15050D02*
X16800D01*
G01D02*
X17020D01*
G01X16800Y14330D02*
Y14550D01*
G01D02*
Y14770D01*
G01X16580Y14550D02*
X16800D01*
G01D02*
X17020D01*
G01X16800Y13950D02*
Y14170D01*
G01X16580Y13950D02*
X16800D01*
G01D02*
X17020D01*
G01X15300Y16850D02*
Y17050D01*
G01Y16850D02*
X15500D01*
G01X16657Y23087D02*
X17045Y23475D01*
G01D02*
X17433Y23863D01*
G01X16657D02*
X17045Y23475D01*
G01D02*
X17433Y23087D01*
G01X18700Y1580D02*
Y1800D01*
G01D02*
Y2020D01*
G01X18480Y1800D02*
X18700D01*
G01D02*
X18920D01*
G01X17650Y4680D02*
Y4900D01*
G01D02*
Y5120D01*
G01X17430Y4900D02*
X17650D01*
G01D02*
X17870D01*
G01X17800Y7130D02*
Y7350D01*
G01D02*
Y7570D01*
G01X17700Y9780D02*
Y10000D01*
G01D02*
Y10220D01*
G01X17800Y12880D02*
Y13100D01*
G01D02*
Y13320D01*
G01X17580Y13100D02*
X17800D01*
G01X17700Y15630D02*
Y15850D01*
G01D02*
Y16070D01*
G01Y15850D02*
X17920D01*
G01X19350Y20450D02*
X19550D01*
G01X18307Y23087D02*
X18695Y23475D01*
G01D02*
X19083Y23863D01*
G01X18307D02*
X18695Y23475D01*
G01D02*
X19083Y23087D01*
G01X20723Y19223D02*
Y19423D01*
G01D02*
Y19623D01*
G01X20523Y19423D02*
X20723D01*
G01D02*
X20923D01*
G01X19550Y20250D02*
Y20450D01*
G01X21650Y21280D02*
Y21500D01*
G01X21430D02*
X21650D01*
G01X21673Y21850D02*
Y22070D01*
G01X21453Y21850D02*
X21673D01*
G01D02*
X21893D01*
G01X19550Y20450D02*
Y20650D01*
G01Y20450D02*
X19750D01*
G01X22150Y3980D02*
Y4200D01*
G01D02*
Y4420D01*
G01X21930Y4200D02*
X22150D01*
G01D02*
X22370D01*
G01X22150Y3280D02*
Y3500D01*
G01D02*
Y3720D01*
G01X21930Y3500D02*
X22150D01*
G01D02*
X22370D01*
G01X22150Y8930D02*
Y9150D01*
G01D02*
Y9370D01*
G01X21930Y9150D02*
X22150D01*
G01D02*
X22370D01*
G01X22150Y8230D02*
Y8450D01*
G01D02*
Y8670D01*
G01X21930Y8450D02*
X22150D01*
G01D02*
X22370D01*
G01X22200Y14930D02*
Y15150D01*
G01D02*
Y15370D01*
G01X21980Y15150D02*
X22200D01*
G01D02*
X22420D01*
G01X22200Y14230D02*
Y14450D01*
G01D02*
Y14670D01*
G01X21980Y14450D02*
X22200D01*
G01D02*
X22420D01*
G01X22200Y18900D02*
Y19100D01*
G01D02*
Y19300D01*
G01Y19100D02*
X22400D01*
G01X21950Y21280D02*
Y21500D01*
G01D02*
Y21720D01*
G01Y21500D02*
X22170D01*
G01X23650Y24300D02*
X23850D01*
G01X22410Y22900D02*
Y23100D01*
G01D02*
Y23300D01*
G01X22210Y23100D02*
X22410D01*
G01X23690D02*
X23890D01*
G01X22448Y24148D02*
Y24348D01*
G01D02*
Y24549D01*
G01X22159Y24341D02*
Y24541D01*
G01X21959Y24341D02*
X22159D01*
G01X22150Y23800D02*
Y24000D01*
G01X21950D02*
X22150D01*
G01D02*
X22350D01*
G01X25059Y1407D02*
X25836Y2184D01*
G01D02*
X26613Y2961D01*
G01X25059D02*
X25836Y2184D01*
G01D02*
X26613Y1407D01*
G01X24300Y8150D02*
Y8350D01*
G01D02*
Y8550D01*
G01X24100Y8350D02*
X24300D01*
G01D02*
X24500D01*
G01X25200Y7750D02*
Y7950D01*
G01X25000D02*
X25200D01*
G01X25190Y8210D02*
Y8410D01*
G01X24990Y8210D02*
X25190D01*
G01X25943Y12100D02*
X26164D01*
G01X25600Y12150D02*
Y12350D01*
G01X25400Y12150D02*
X25600D01*
G01D02*
X25800D01*
G01X25850Y15490D02*
Y15710D01*
G01X25630Y15490D02*
X25850D01*
G01Y14959D02*
Y15180D01*
G01X25630D02*
X25850D01*
G01D02*
X26070D01*
G01X24350Y21280D02*
Y21500D01*
G01D02*
Y21720D01*
G01X24130Y21500D02*
X24350D01*
G01X24650Y21280D02*
Y21500D01*
G01D02*
X24870D01*
G01X24627Y21850D02*
Y22070D01*
G01X24407Y21850D02*
X24627D01*
G01D02*
X24847D01*
G01X24141Y24140D02*
Y24341D01*
G01D02*
Y24541D01*
G01Y24341D02*
X24341D01*
G01X24050Y23700D02*
Y23900D01*
G01D02*
Y24100D01*
G01X23850Y23900D02*
X24050D01*
G01D02*
X24250D01*
G01X25059Y23671D02*
X25836Y24448D01*
G01D02*
X26613Y25225D01*
G01X25059D02*
X25836Y24448D01*
G01D02*
X26613Y23671D01*
G01X23850Y24100D02*
Y24300D01*
G01D02*
Y24500D01*
G01X23890Y22900D02*
Y23100D01*
G01D02*
Y23300D01*
G01Y23100D02*
X24090D01*
G01X26100Y4430D02*
Y4650D01*
G01D02*
Y4870D01*
G01Y4650D02*
X26320D01*
G01X28050Y7780D02*
X28250D01*
G01X26300Y10180D02*
Y10400D01*
G01D02*
Y10620D01*
G01X26164Y11880D02*
Y12100D01*
G01X28000Y13730D02*
Y13950D01*
G01X26800Y15600D02*
Y15800D01*
G01D02*
Y16000D01*
G01X26600Y15800D02*
X26800D01*
G01D02*
X27000D01*
G01X28000Y13950D02*
Y14170D01*
G01X27780Y13950D02*
X28000D01*
G01D02*
X28220D01*
G01X26800Y14750D02*
Y14950D01*
G01D02*
Y15150D01*
G01Y14950D02*
X27000D01*
G01X28000Y16580D02*
Y16800D01*
G01D02*
Y17020D01*
G01X27780Y16800D02*
X28000D01*
G01D02*
X28220D01*
G01X27527Y19423D02*
Y19623D01*
G01D02*
Y19823D01*
G01X27327Y19623D02*
X27527D01*
G01D02*
X27727D01*
G01X28077Y19423D02*
Y19623D01*
G01D02*
Y19823D01*
G01X27877Y19623D02*
X28077D01*
G01D02*
X28277D01*
G01X26600Y20900D02*
Y21100D01*
G01D02*
Y21300D01*
G01Y21100D02*
X26800D01*
G01X27550Y20900D02*
Y21100D01*
G01D02*
Y21300D01*
G01Y21100D02*
X27750D01*
G01X27800Y23350D02*
Y23550D01*
G01D02*
Y23750D01*
G01X27600Y23550D02*
X27800D01*
G01D02*
X28000D01*
G01X27550Y26330D02*
Y26530D01*
G01D02*
Y26730D01*
G01X27350Y26530D02*
X27550D01*
G01X26033Y27183D02*
X26350Y27500D01*
G01D02*
X26667Y27817D01*
G01X26033D02*
X26350Y27500D01*
G01D02*
X26667Y27183D01*
G01X29750Y6850D02*
X29943Y7043D01*
G01X29750Y6850D02*
X29943Y6657D01*
G01X30057D02*
X30250Y6850D01*
G01D02*
X30443Y7043D01*
G01X30057D02*
X30250Y6850D01*
G01D02*
X30443Y6657D01*
G01X28250Y7580D02*
Y7780D01*
G01D02*
Y7980D01*
G01Y7780D02*
X28450D01*
G01X28436Y11550D02*
Y11750D01*
G01X29557Y11657D02*
X29750Y11850D01*
G01D02*
X29943Y11657D01*
G01X30057D02*
X30250Y11850D01*
G01X29557Y9657D02*
X29750Y9850D01*
G01D02*
X29943Y10043D01*
G01X29557D02*
X29750Y9850D01*
G01D02*
X29943Y9657D01*
G01X30057D02*
X30250Y9850D01*
G01D02*
X30443Y10043D01*
G01X30057D02*
X30250Y9850D01*
G01D02*
X30443Y9657D01*
G01X30057Y12157D02*
X30250Y12350D01*
G01X28436Y11750D02*
Y11950D01*
G01X28236Y11750D02*
X28436D01*
G01D02*
X28637D01*
G01X30250Y12350D02*
X30443Y12543D01*
G01X30250Y12350D02*
X30443Y12157D01*
G01X29750Y11850D02*
X29943Y12043D01*
G01X29557D02*
X29750Y11850D01*
G01X30250D02*
X30443Y12043D01*
G01X30057D02*
X30250Y11850D01*
G01X28600Y14820D02*
Y15040D01*
G01D02*
Y15260D01*
G01X28380Y15040D02*
X28600D01*
G01Y15480D02*
Y15700D01*
G01D02*
Y15920D01*
G01X28380Y15700D02*
X28600D01*
G01X29557Y15657D02*
X29750Y15850D01*
G01D02*
X29943Y16043D01*
G01X29557D02*
X29750Y15850D01*
G01D02*
X29943Y15657D01*
G01X29557Y15157D02*
X29750Y15350D01*
G01D02*
X29943Y15543D01*
G01X29557D02*
X29750Y15350D01*
G01D02*
X29943Y15157D01*
G01X29557Y14657D02*
X29750Y14850D01*
G01D02*
X29943Y15043D01*
G01X29557D02*
X29750Y14850D01*
G01D02*
X29943Y14657D01*
G01X29557Y14157D02*
X29750Y14350D01*
G01D02*
X29943Y14543D01*
G01X29557D02*
X29750Y14350D01*
G01X30250Y13850D02*
X30443Y14043D01*
G01X30250Y13850D02*
X30443Y13657D01*
G01X29557Y16157D02*
X29750Y16350D01*
G01D02*
X29943Y16543D01*
G01X29557D02*
X29750Y16350D01*
G01D02*
X29943Y16157D01*
G01X30200Y21100D02*
X30400D01*
G01X29450Y20900D02*
Y21100D01*
G01D02*
Y21300D01*
G01X29250Y21100D02*
X29450D01*
G01D02*
X29650D01*
G01X28500Y20900D02*
Y21100D01*
G01D02*
Y21300D01*
G01X28300Y21100D02*
X28500D01*
G01D02*
X28700D01*
G01X28650Y24350D02*
Y24550D01*
G01D02*
Y24750D01*
G01X28450Y24550D02*
X28650D01*
G01D02*
X28850D01*
G01X28600Y25345D02*
Y25545D01*
G01D02*
Y25746D01*
G01X28400Y25545D02*
X28600D01*
G01D02*
X28800D01*
G01X28650Y24754D02*
Y24955D01*
G01D02*
Y25155D01*
G01X28450Y24955D02*
X28650D01*
G01D02*
X28850D01*
G01X29945Y26100D02*
Y26300D01*
G01D02*
Y26500D01*
G01X29745Y26300D02*
X29945D01*
G01D02*
X30145D01*
G01X29350Y26100D02*
Y26300D01*
G01D02*
Y26500D01*
G01X29150Y26300D02*
X29350D01*
G01D02*
X29550D01*
G01X28667Y27180D02*
Y27400D01*
G01D02*
Y27620D01*
G01X28447Y27400D02*
X28667D01*
G01D02*
X28888D01*
G01X32260Y7440D02*
X32460D01*
G01X31723Y10823D02*
X32500Y11600D01*
G01X31200Y13250D02*
Y13470D01*
G01Y13250D02*
X31420D01*
G01X31850Y13030D02*
Y13250D01*
G01D02*
Y13470D01*
G01X31630Y13250D02*
X31850D01*
G01D02*
X32070D01*
G01X31723Y12377D02*
X32500Y11600D01*
G01X31200Y15600D02*
Y15800D01*
G01D02*
Y16000D01*
G01Y15800D02*
X31400D01*
G01X31950Y15530D02*
Y15750D01*
G01D02*
Y15970D01*
G01X31730Y15750D02*
X31950D01*
G01D02*
X32170D01*
G01X31250Y14300D02*
Y14500D01*
G01D02*
Y14700D01*
G01X31050Y14500D02*
X31250D01*
G01D02*
X31450D01*
G01X31500Y16580D02*
Y16800D01*
G01X31280D02*
X31500D01*
G01D02*
X31720D01*
G01X32050Y19750D02*
Y19950D01*
G01D02*
Y20150D01*
G01X31850Y19950D02*
X32050D01*
G01D02*
X32250D01*
G01X32300Y20900D02*
Y21100D01*
G01D02*
Y21300D01*
G01X32100Y21100D02*
X32300D01*
G01D02*
X32500D01*
G01X31350Y20900D02*
Y21100D01*
G01D02*
Y21300D01*
G01X31150Y21100D02*
X31350D01*
G01D02*
X31550D01*
G01X30400Y20900D02*
Y21100D01*
G01D02*
Y21300D01*
G01Y21100D02*
X30600D01*
G01X30928Y24341D02*
Y24561D01*
G01D02*
Y24781D01*
G01X30708Y24561D02*
X30928D01*
G01D02*
X31148D01*
G01X30900Y25130D02*
Y25350D01*
G01D02*
Y25570D01*
G01X30680Y25350D02*
X30900D01*
G01D02*
X31120D01*
G01X31950Y26050D02*
Y26270D01*
G01X31730Y26050D02*
X31950D01*
G01D02*
X32170D01*
G01X30833Y27230D02*
Y27450D01*
G01D02*
Y27670D01*
G01X30613Y27450D02*
X30833D01*
G01D02*
X31053D01*
G01X34000Y4430D02*
Y4650D01*
G01X33780D02*
X34000D01*
G01X32460Y7240D02*
Y7440D01*
G01X33020Y8250D02*
Y8470D01*
G01D02*
Y8690D01*
G01X34550Y9230D02*
Y9450D01*
G01D02*
Y9670D01*
G01X32500Y11600D02*
X33277Y10823D01*
G01X33050Y13700D02*
Y13900D01*
G01Y14900D02*
Y15100D01*
G01X34382Y14245D02*
Y14465D01*
G01D02*
Y14685D01*
G01Y14465D02*
X34602D01*
G01X33050Y15100D02*
X33250D01*
G01X34100Y14280D02*
Y14500D01*
G01D02*
Y14720D01*
G01X33050Y13900D02*
Y14100D01*
G01Y13900D02*
X33250D01*
G01X33300Y17350D02*
Y17550D01*
G01X33100D02*
X33300D01*
G01X34500Y17350D02*
Y17570D01*
G01X34280Y17350D02*
X34500D01*
G01D02*
X34720D01*
G01X34493Y16787D02*
Y17007D01*
G01X34273D02*
X34493D01*
G01D02*
X34713D01*
G01X33000Y19750D02*
Y19950D01*
G01D02*
Y20150D01*
G01Y19950D02*
X33200D01*
G01X34550Y20900D02*
Y21100D01*
G01D02*
Y21300D01*
G01X34350Y21100D02*
X34550D01*
G01D02*
X34750D01*
G01X33250Y20900D02*
Y21100D01*
G01D02*
Y21300D01*
G01X33050Y21100D02*
X33250D01*
G01D02*
X33450D01*
G01X34250Y24450D02*
Y24650D01*
G01X33300Y24380D02*
Y24600D01*
G01X34250Y24950D02*
Y25150D01*
G01D02*
Y25350D01*
G01X34050Y25150D02*
X34250D01*
G01D02*
X34450D01*
G01X34300Y25550D02*
Y25750D01*
G01D02*
Y25950D01*
G01Y25750D02*
X34500D01*
G01X33950Y25530D02*
Y25750D01*
G01D02*
Y25970D01*
G01X33730Y25750D02*
X33950D01*
G01X33300Y24850D02*
Y25050D01*
G01D02*
Y25250D01*
G01X33100Y25050D02*
X33300D01*
G01X34250Y24650D02*
Y24850D01*
G01X34050Y24650D02*
X34250D01*
G01D02*
X34450D01*
G01X33300Y24600D02*
Y24820D01*
G01X33080Y24600D02*
X33300D01*
G01X34300Y27230D02*
Y27450D01*
G01D02*
Y27670D01*
G01X34080Y27450D02*
X34300D01*
G01D02*
X34520D01*
G01X32700Y27233D02*
Y27453D01*
G01D02*
Y27673D01*
G01X32480Y27453D02*
X32700D01*
G01X33050Y27233D02*
Y27453D01*
G01D02*
Y27673D01*
G01Y27453D02*
X33270D01*
G01X35500Y20900D02*
Y21100D01*
G01D02*
Y21300D01*
G01X35300Y21100D02*
X35500D01*
G01D02*
X35700D01*
G01X36450Y20900D02*
Y21100D01*
G01D02*
Y21300D01*
G01X36250Y21100D02*
X36450D01*
G01D02*
X36650D01*
G01X36600Y24350D02*
Y24550D01*
G01D02*
Y24750D01*
G01X36400Y24550D02*
X36600D01*
G01D02*
X36800D01*
G01X36550Y25345D02*
Y25545D01*
G01D02*
Y25746D01*
G01X36350Y25545D02*
X36550D01*
G01D02*
X36750D01*
G01X36600Y24754D02*
Y24955D01*
G01D02*
Y25155D01*
G01X36400Y24955D02*
X36600D01*
G01D02*
X36800D01*
G01X36617Y27180D02*
Y27400D01*
G01D02*
Y27620D01*
G01X36397Y27400D02*
X36617D01*
G01D02*
X36838D01*
G01X37250Y5350D02*
X37443Y5157D01*
G01X37557D02*
X37750Y5350D01*
G01D02*
X37943Y5157D01*
G01X37057Y4157D02*
X37250Y4350D01*
G01D02*
X37443Y4543D01*
G01X37057D02*
X37250Y4350D01*
G01D02*
X37443Y4157D01*
G01X37557D02*
X37750Y4350D01*
G01D02*
X37943Y4543D01*
G01X37557D02*
X37750Y4350D01*
G01D02*
X37943Y4157D01*
G01X37557Y7157D02*
X37750Y7350D01*
G01D02*
X37943Y7543D01*
G01X37557D02*
X37750Y7350D01*
G01D02*
X37943Y7157D01*
G01X37557Y6657D02*
X37750Y6850D01*
G01D02*
X37943Y7043D01*
G01X37557D02*
X37750Y6850D01*
G01D02*
X37943Y6657D01*
G01X37250Y6350D02*
X37443Y6543D01*
G01X37250Y6350D02*
X37443Y6157D01*
G01X37557D02*
X37750Y6350D01*
G01D02*
X37943Y6543D01*
G01X37557D02*
X37750Y6350D01*
G01D02*
X37943Y6157D01*
G01X37250Y5350D02*
X37443Y5543D01*
G01X37750Y5350D02*
X37943Y5543D01*
G01X37557D02*
X37750Y5350D01*
G01X37557Y9157D02*
X37750Y9350D01*
G01D02*
X37943Y9543D01*
G01X37557D02*
X37750Y9350D01*
G01D02*
X37943Y9157D01*
G01X37557Y8657D02*
X37750Y8850D01*
G01D02*
X37943Y9043D01*
G01X37557D02*
X37750Y8850D01*
G01D02*
X37943Y8657D01*
G01X37557Y8157D02*
X37750Y8350D01*
G01D02*
X37943Y8543D01*
G01X37557D02*
X37750Y8350D01*
G01D02*
X37943Y8157D01*
G01X37557Y7657D02*
X37750Y7850D01*
G01D02*
X37943Y8043D01*
G01X37557D02*
X37750Y7850D01*
G01D02*
X37943Y7657D01*
G01X37057Y11157D02*
X37250Y11350D01*
G01D02*
X37443Y11543D01*
G01X37057D02*
X37250Y11350D01*
G01D02*
X37443Y11157D01*
G01X37557D02*
X37750Y11350D01*
G01D02*
X37943Y11543D01*
G01X37557D02*
X37750Y11350D01*
G01D02*
X37943Y11157D01*
G01X37557Y10157D02*
X37750Y10350D01*
G01D02*
X37943Y10543D01*
G01X37750Y10350D02*
X37943Y10157D01*
G01X37557Y9657D02*
X37750Y9850D01*
G01D02*
X37943Y10043D01*
G01X37557D02*
X37750Y9850D01*
G01D02*
X37943Y9657D01*
G01X37750Y12850D02*
X37943Y13043D01*
G01X37750Y12850D02*
X37943Y12657D01*
G01X37057Y14157D02*
X37250Y14350D01*
G01X37057Y15657D02*
X37250Y15850D01*
G01D02*
X37443Y16043D01*
G01X37057D02*
X37250Y15850D01*
G01D02*
X37443Y15657D01*
G01X37557D02*
X37750Y15850D01*
G01D02*
X37943Y16043D01*
G01X37557D02*
X37750Y15850D01*
G01D02*
X37943Y15657D01*
G01X37250Y14350D02*
X37443Y14543D01*
G01X37057D02*
X37250Y14350D01*
G01D02*
X37443Y14157D01*
G01X37557D02*
X37750Y14350D01*
G01D02*
X37943Y14543D01*
G01X37557D02*
X37750Y14350D01*
G01D02*
X37943Y14157D01*
G01X38350Y20900D02*
Y21100D01*
G01D02*
Y21300D01*
G01X38150Y21100D02*
X38350D01*
G01D02*
X38550D01*
G01X37400Y20900D02*
Y21100D01*
G01D02*
Y21300D01*
G01X37200Y21100D02*
X37400D01*
G01D02*
X37600D01*
G01X38878Y24341D02*
Y24561D01*
G01D02*
Y24781D01*
G01X38658Y24561D02*
X38878D01*
G01D02*
X39098D01*
G01X38850Y25130D02*
Y25350D01*
G01D02*
Y25570D01*
G01X38630Y25350D02*
X38850D01*
G01D02*
X39070D01*
G01X37895Y26100D02*
Y26300D01*
G01D02*
Y26500D01*
G01X37695Y26300D02*
X37895D01*
G01D02*
X38095D01*
G01X37300Y26100D02*
Y26300D01*
G01D02*
Y26500D01*
G01X37100Y26300D02*
X37300D01*
G01D02*
X37500D01*
G01X38783Y27230D02*
Y27450D01*
G01D02*
Y27670D01*
G01X38562Y27450D02*
X38783D01*
G01D02*
X39003D01*
G01X40700Y3380D02*
Y3600D01*
G01D02*
Y3820D01*
G01X40480Y3600D02*
X40700D01*
G01D02*
X40920D01*
G01X39440Y5730D02*
Y5950D01*
G01D02*
Y6170D01*
G01X39220Y5950D02*
X39440D01*
G01D02*
X39660D01*
G01X39840Y6430D02*
Y6650D01*
G01D02*
Y6870D01*
G01X39620Y6650D02*
X39840D01*
G01D02*
X40060D01*
G01X40036Y8716D02*
Y8936D01*
G01D02*
Y9157D01*
G01X39816Y8936D02*
X40036D01*
G01X40890Y11460D02*
Y11680D01*
G01X40904Y10266D02*
Y10466D01*
G01D02*
Y10667D01*
G01X40703Y10466D02*
X40904D01*
G01D02*
X41104D01*
G01X40540Y9930D02*
Y10130D01*
G01D02*
Y10330D01*
G01Y10130D02*
X40740D01*
G01X40890Y11680D02*
Y11900D01*
G01X40670Y11680D02*
X40890D01*
G01D02*
X41110D01*
G01X40890Y14930D02*
Y15150D01*
G01X40670D02*
X40890D01*
G01Y15460D02*
Y15680D01*
G01X40670Y15460D02*
X40890D01*
G01X40000Y17400D02*
Y17600D01*
G01D02*
Y17800D01*
G01Y17600D02*
X40200D01*
G01X41000Y21100D02*
X41200D01*
G01X40250Y20900D02*
Y21100D01*
G01D02*
Y21300D01*
G01X40050Y21100D02*
X40250D01*
G01D02*
X40450D01*
G01X39300Y20900D02*
Y21100D01*
G01D02*
Y21300D01*
G01X39100Y21100D02*
X39300D01*
G01D02*
X39500D01*
G01X41050Y25050D02*
X41250D01*
G01X41030Y24600D02*
X41250D01*
G01X39900Y26050D02*
Y26270D01*
G01X39680Y26050D02*
X39900D01*
G01D02*
X40120D01*
G01X41450Y3680D02*
Y3900D01*
G01D02*
Y4120D01*
G01X41230Y3900D02*
X41450D01*
G01X41440Y4600D02*
Y4800D01*
G01D02*
Y5000D01*
G01X41240Y4800D02*
X41440D01*
G01X42950Y6280D02*
Y6500D01*
G01D02*
Y6720D01*
G01Y6500D02*
X43170D01*
G01X42440Y8060D02*
Y8280D01*
G01D02*
Y8500D01*
G01Y8280D02*
X42660D01*
G01X42090Y8060D02*
Y8280D01*
G01D02*
Y8500D01*
G01X41750Y11330D02*
Y11550D01*
G01D02*
Y11770D01*
G01X42875Y15705D02*
Y15925D01*
G01D02*
Y16145D01*
G01X42655Y15925D02*
X42875D01*
G01D02*
X43095D01*
G01X42725Y17525D02*
Y17725D01*
G01D02*
Y17925D01*
G01X42525Y17725D02*
X42725D01*
G01D02*
X42925D01*
G01X43200Y21100D02*
X43400D01*
G01X41200Y20900D02*
Y21100D01*
G01D02*
Y21300D01*
G01Y21100D02*
X41400D01*
G01X42450Y20900D02*
Y21100D01*
G01D02*
Y21300D01*
G01X42250Y21100D02*
X42450D01*
G01D02*
X42650D01*
G01X41250Y24380D02*
Y24600D01*
G01X42150Y24450D02*
Y24650D01*
G01X41900Y25530D02*
Y25750D01*
G01D02*
Y25970D01*
G01X41250Y24850D02*
Y25050D01*
G01D02*
Y25250D01*
G01X42150Y24950D02*
Y25150D01*
G01D02*
Y25350D01*
G01X41950Y25150D02*
X42150D01*
G01D02*
X42350D01*
G01X42200Y25550D02*
Y25750D01*
G01D02*
Y25950D01*
G01Y25750D02*
X42400D01*
G01X41250Y24600D02*
Y24820D01*
G01X42150Y24650D02*
Y24850D01*
G01X41950Y24650D02*
X42150D01*
G01D02*
X42350D01*
G01X44557Y7157D02*
X44750Y7350D01*
G01D02*
X44943Y7543D01*
G01X44557D02*
X44750Y7350D01*
G01D02*
X44943Y7157D01*
G01X45057D02*
X45250Y7350D01*
G01D02*
X45443Y7543D01*
G01X45057D02*
X45250Y7350D01*
G01D02*
X45443Y7157D01*
G01X44557Y6157D02*
X44750Y6350D01*
G01D02*
X44943Y6543D01*
G01X44557D02*
X44750Y6350D01*
G01D02*
X44943Y6157D01*
G01X45057D02*
X45250Y6350D01*
G01D02*
X45443Y6543D01*
G01X45057D02*
X45250Y6350D01*
G01D02*
X45443Y6157D01*
G01X45250Y5350D02*
X45443Y5543D01*
G01X45250Y5350D02*
X45443Y5157D01*
G01X44557Y8657D02*
X44750Y8850D01*
G01D02*
X44943Y9043D01*
G01X44557D02*
X44750Y8850D01*
G01D02*
X44943Y8657D01*
G01X45057D02*
X45250Y8850D01*
G01D02*
X45443Y9043D01*
G01X45057D02*
X45250Y8850D01*
G01D02*
X45443Y8657D01*
G01X44557Y11157D02*
X44750Y11350D01*
G01D02*
X44943Y11543D01*
G01X44557D02*
X44750Y11350D01*
G01D02*
X44943Y11157D01*
G01X45057D02*
X45250Y11350D01*
G01D02*
X45443Y11543D01*
G01X45057D02*
X45250Y11350D01*
G01D02*
X45443Y11157D01*
G01X44557Y9657D02*
X44750Y9850D01*
G01D02*
X44943Y10043D01*
G01X44557D02*
X44750Y9850D01*
G01D02*
X44943Y9657D01*
G01X45057D02*
X45250Y9850D01*
G01D02*
X45443Y10043D01*
G01X45057D02*
X45250Y9850D01*
G01D02*
X45443Y9657D01*
G01X44557Y13657D02*
X44750Y13850D01*
G01D02*
X44943Y13657D01*
G01X45057D02*
X45250Y13850D01*
G01D02*
X45443Y13657D01*
G01X44557Y12157D02*
X44750Y12350D01*
G01D02*
X44943Y12543D01*
G01X44557D02*
X44750Y12350D01*
G01D02*
X44943Y12157D01*
G01X45057D02*
X45250Y12350D01*
G01D02*
X45443Y12543D01*
G01X45057D02*
X45250Y12350D01*
G01D02*
X45443Y12157D01*
G01X43586Y13850D02*
Y14050D01*
G01D02*
X43787D01*
G01X44750Y15850D02*
X44943Y16043D01*
G01X44750Y15850D02*
X44943Y15657D01*
G01X45057D02*
X45250Y15850D01*
G01X45057Y16043D02*
X45250Y15850D01*
G01X44750Y13850D02*
X44943Y14043D01*
G01X44557D02*
X44750Y13850D01*
G01X45250D02*
X45443Y14043D01*
G01X45057D02*
X45250Y13850D01*
G01X43400Y20900D02*
Y21100D01*
G01D02*
Y21300D01*
G01Y21100D02*
X43600D01*
G01X44350Y20900D02*
Y21100D01*
G01D02*
Y21300D01*
G01X44150Y21100D02*
X44350D01*
G01D02*
X44550D01*
G01X45300Y20900D02*
Y21100D01*
G01D02*
Y21300D01*
G01X45100Y21100D02*
X45300D01*
G01D02*
X45500D01*
G01X44500Y24350D02*
Y24550D01*
G01D02*
Y24750D01*
G01X44300Y24550D02*
X44500D01*
G01D02*
X44700D01*
G01X44450Y25345D02*
Y25545D01*
G01D02*
Y25746D01*
G01X44250Y25545D02*
X44450D01*
G01D02*
X44650D01*
G01X44500Y24754D02*
Y24955D01*
G01D02*
Y25155D01*
G01X44300Y24955D02*
X44500D01*
G01D02*
X44700D01*
G01X45200Y26100D02*
Y26300D01*
G01D02*
Y26500D01*
G01X45000Y26300D02*
X45200D01*
G01D02*
X45400D01*
G01X44517Y27180D02*
Y27400D01*
G01D02*
Y27620D01*
G01X44297Y27400D02*
X44517D01*
G01D02*
X44738D01*
G01X47390Y7990D02*
X47610D01*
G01X46250Y20900D02*
Y21100D01*
G01D02*
Y21300D01*
G01X46050Y21100D02*
X46250D01*
G01D02*
X46450D01*
G01X47200Y20900D02*
Y21100D01*
G01D02*
Y21300D01*
G01X47000Y21100D02*
X47200D01*
G01D02*
X47400D01*
G01X46778Y24341D02*
Y24561D01*
G01D02*
Y24781D01*
G01X46558Y24561D02*
X46778D01*
G01D02*
X46998D01*
G01X46750Y25130D02*
Y25350D01*
G01D02*
Y25570D01*
G01X46530Y25350D02*
X46750D01*
G01D02*
X46970D01*
G01X45795Y26100D02*
Y26300D01*
G01D02*
Y26500D01*
G01X45595Y26300D02*
X45795D01*
G01D02*
X45995D01*
G01X46683Y27230D02*
Y27450D01*
G01D02*
Y27670D01*
G01X46462Y27450D02*
X46683D01*
G01D02*
X46903D01*
G01X49373Y404D02*
X50150Y1181D01*
G01X49373Y1958D02*
X50150Y1181D01*
G01X47970Y3040D02*
Y3240D01*
G01D02*
Y3440D01*
G01X47770Y3240D02*
X47970D01*
G01D02*
X48170D01*
G01X47970Y3490D02*
Y3690D01*
G01D02*
Y3890D01*
G01X47770Y3690D02*
X47970D01*
G01D02*
X48170D01*
G01X49514Y8284D02*
X49714D01*
G01X48626Y8084D02*
Y8284D01*
G01D02*
Y8484D01*
G01X48426Y8284D02*
X48626D01*
G01X48170Y7420D02*
Y7640D01*
G01D02*
Y7860D01*
G01X47950Y7640D02*
X48170D01*
G01D02*
X48390D01*
G01X47610Y7770D02*
Y7990D01*
G01D02*
Y8210D01*
G01Y7990D02*
X47830D01*
G01X49373Y10823D02*
X50150Y11600D01*
G01X49373Y12377D02*
X50150Y11600D01*
G01X49450Y14550D02*
X49643Y14743D01*
G01X49450Y14550D02*
X49643Y14357D01*
G01X49450Y18050D02*
X49643Y18243D01*
G01X49450Y18050D02*
X49643Y17857D01*
G01X49450Y19050D02*
X49643Y19243D01*
G01X49450Y19050D02*
X49643Y18857D01*
G01X48150Y20900D02*
Y21100D01*
G01D02*
Y21300D01*
G01X47950Y21100D02*
X48150D01*
G01D02*
X48350D01*
G01X49100Y20900D02*
Y21100D01*
G01D02*
Y21300D01*
G01X48900Y21100D02*
X49100D01*
G01D02*
X49300D01*
G01X49150Y24380D02*
Y24600D01*
G01X47580Y26050D02*
X47800D01*
G01D02*
X48020D01*
G01X49194Y26180D02*
Y26400D01*
G01D02*
Y26620D01*
G01X48974Y26400D02*
X49194D01*
G01D02*
X49414D01*
G01X49150Y24830D02*
Y25050D01*
G01D02*
Y25270D01*
G01X48930Y25050D02*
X49150D01*
G01D02*
X49370D01*
G01X49373Y26573D02*
X50150Y27350D01*
G01X49150Y24600D02*
Y24820D01*
G01X48930Y24600D02*
X49150D01*
G01D02*
X49370D01*
G01X49373Y28127D02*
X50150Y27350D01*
G01Y1181D02*
X50927Y404D01*
G01X50150Y1181D02*
X50927Y1958D01*
G01X50370Y3040D02*
Y3240D01*
G01D02*
Y3440D01*
G01X50170Y3240D02*
X50370D01*
G01D02*
X50570D01*
G01X50370Y3490D02*
Y3690D01*
G01D02*
Y3890D01*
G01X50170Y3690D02*
X50370D01*
G01D02*
X50570D01*
G01X50820Y7520D02*
Y7740D01*
G01D02*
Y7960D01*
G01X50600Y7740D02*
X50820D01*
G01D02*
X51040D01*
G01X50170Y7420D02*
Y7640D01*
G01D02*
Y7860D01*
G01X49950Y7640D02*
X50170D01*
G01D02*
X50390D01*
G01X49714Y8084D02*
Y8284D01*
G01D02*
Y8484D01*
G01Y8284D02*
X49914D01*
G01X50150Y11600D02*
X50927Y12377D01*
G01X50150Y11600D02*
X50927Y10823D01*
G01X49757Y14357D02*
X49950Y14550D01*
G01D02*
X50143Y14743D01*
G01X49757D02*
X49950Y14550D01*
G01D02*
X50143Y14357D01*
G01X49757Y17857D02*
X49950Y18050D01*
G01D02*
X50143Y18243D01*
G01X49757D02*
X49950Y18050D01*
G01D02*
X50143Y17857D01*
G01X49757Y18857D02*
X49950Y19050D01*
G01D02*
X50143Y19243D01*
G01X49757D02*
X49950Y19050D01*
G01D02*
X50143Y18857D01*
G01X50150Y27350D02*
X50927Y26573D01*
G01X50150Y27350D02*
X50927Y28127D01*
G54D14*
X2000Y30500D03*
Y40500D03*
X4340Y1200D03*
Y26000D03*
X25836Y2184D03*
Y24448D03*
X32500Y11600D03*
X50150Y1181D03*
Y11600D03*
Y27350D03*
X54250Y1181D03*
Y19619D03*
X60500Y11600D03*
X65000Y30500D03*
Y40500D03*
X81500Y1181D03*
Y19619D03*
X98500Y1181D03*
Y19619D03*
X104980Y1181D03*
Y19619D03*
X121980Y1181D03*
Y19619D03*
X128490Y1161D03*
Y19599D03*
Y22611D03*
Y41049D03*
X145490Y1161D03*
Y19599D03*
Y22611D03*
Y41049D03*
G54D24*
G01X11402Y14748D02*
X11450Y14700D01*
G01X13847Y10450D02*
Y9353D01*
X14250Y8950D01*
Y5900D01*
X14075Y5725D01*
X13775D01*
G01X13847Y13547D02*
Y10450D01*
G01X29750Y25100D02*
X29600D01*
X28700Y26000D01*
X27950D01*
X27840Y26110D01*
Y26880D01*
X27650Y27070D01*
Y27450D01*
X27700Y27500D01*
G01X47150Y15550D02*
Y13990D01*
X47200Y13940D01*
Y11550D01*
X46800Y11150D01*
Y7890D01*
X47120Y7570D01*
Y6630D01*
X47010Y6520D01*
G01X65250Y9350D02*
X65200Y9400D01*
X64800D01*
X64100Y8700D01*
Y2600D01*
X64200Y2500D01*
Y600D01*
X64400Y400D01*
G01X65250Y7350D02*
X64860D01*
X64500Y6990D01*
Y3000D01*
G01X69600Y10850D02*
Y1425D01*
G01X70550Y28150D02*
Y17750D01*
X71150Y17150D01*
Y4850D01*
G01X71650Y21400D02*
Y18550D01*
X71300Y18200D01*
Y17600D01*
X71700Y17200D01*
Y4690D01*
X72040Y4350D01*
X72750D01*
G01X78783Y26950D02*
Y24253D01*
X74900Y20370D01*
Y15400D01*
X73750Y14250D01*
Y5150D01*
X73450Y4850D01*
X73250D01*
G01X72750Y7850D02*
Y8350D01*
G01Y10350D02*
Y10850D01*
G01X72250Y18300D02*
Y17950D01*
X72100Y17800D01*
Y13750D01*
X72500Y13350D01*
X72750D01*
G01X81539Y26950D02*
Y25299D01*
X77050Y20810D01*
Y18200D01*
X75450Y16600D01*
Y15350D01*
X74988Y14888D01*
Y11862D01*
X75200Y11650D01*
Y9800D01*
X74988Y9588D01*
Y4409D01*
X74950Y4370D01*
Y4050D01*
G01X78100Y4950D02*
Y3700D01*
X77540Y3140D01*
Y660D01*
G01X75988Y5963D02*
Y4260D01*
X75900Y4172D01*
Y1425D01*
G01X76750Y6700D02*
Y3348D01*
X76676Y3274D01*
G01X77540Y13500D02*
Y12300D01*
G01X78850Y4900D02*
Y3500D01*
X78000Y2650D01*
Y2100D01*
G01X83350Y9700D02*
Y13850D01*
G01X83500Y15800D02*
Y14000D01*
X83350Y13850D01*
G01X84950Y25500D02*
X84650Y25200D01*
Y20950D01*
G01X96500Y26500D02*
X101150D01*
X101400Y26250D01*
Y18000D01*
G01X99900Y22350D02*
Y15960D01*
X99740Y15800D01*
X98500D01*
G01X101000Y21800D02*
Y16300D01*
G54D15*
X2300Y35110D03*
Y36300D03*
X8850Y4450D03*
X8550Y16800D03*
X10700Y10300D03*
X12450Y22950D03*
X26350Y27500D03*
X27700D03*
X33700Y2200D03*
X43633Y1400D03*
X45011D03*
X47767D03*
X46389D03*
X49600Y9500D03*
X48450D03*
X48100Y11650D03*
X50800Y9500D03*
X61740Y35031D03*
Y33653D03*
Y37787D03*
Y36409D03*
X71400Y32050D03*
Y40300D03*
X72400Y31050D03*
X73400D03*
X72400Y32050D03*
X73400D03*
X72400Y39300D03*
X73400D03*
X72400Y40300D03*
X73400D03*
X75700Y24800D03*
X74400Y31050D03*
X75400D03*
X74400Y32050D03*
X75400D03*
X74400Y39300D03*
X75400D03*
X74400Y40300D03*
X75400D03*
X76980Y24830D03*
X76400Y31050D03*
Y32050D03*
Y39300D03*
Y40300D03*
X78783Y26950D03*
X80161D03*
X81539D03*
X82917D03*
X83750Y32050D03*
Y40300D03*
X84950Y26500D03*
X85950Y25500D03*
Y26500D03*
X84750Y31050D03*
X85750D03*
X86750D03*
X84750Y32050D03*
X85750D03*
X86750D03*
X84750Y39300D03*
X85750D03*
X86750D03*
X84750Y40300D03*
X85750D03*
X86750D03*
X86950Y25500D03*
Y26500D03*
X87950Y25500D03*
Y26500D03*
X87750Y31050D03*
X88750D03*
X87750Y32050D03*
X88750D03*
X87750Y39300D03*
X88750D03*
X87750Y40300D03*
X88750D03*
X89800Y26500D03*
X90800Y25500D03*
Y26500D03*
X91800Y25500D03*
Y26500D03*
X92800Y25500D03*
Y26500D03*
X94500D03*
X93750Y30850D03*
X94750D03*
X93750Y32850D03*
X94750D03*
X93750Y31850D03*
X94750D03*
Y33850D03*
X93900Y37050D03*
X94900D03*
Y40050D03*
X93900Y39050D03*
X94900D03*
X93900Y38050D03*
X94900D03*
X95500Y25500D03*
Y26500D03*
X96500Y25500D03*
Y26500D03*
X98461Y25900D03*
X99839D03*
X104000Y37150D03*
Y39150D03*
Y38150D03*
X104100Y30900D03*
X105100D03*
X104100Y32900D03*
X105100D03*
X104100Y31900D03*
X105100D03*
Y33900D03*
X105000Y37150D03*
Y39150D03*
Y38150D03*
Y40150D03*
X114000Y33280D03*
Y32280D03*
Y35280D03*
Y34280D03*
Y36280D03*
X115000Y33280D03*
Y32280D03*
Y35280D03*
Y34280D03*
Y37280D03*
Y36280D03*
X122790Y33250D03*
Y32250D03*
Y35250D03*
Y34250D03*
Y36250D03*
X123790Y33250D03*
Y32250D03*
Y35250D03*
Y34250D03*
Y37250D03*
Y36250D03*
G54D25*
G01X4300Y9850D02*
X3900D01*
X3650Y9600D01*
Y4350D01*
X3915Y4085D01*
X5065D01*
X5950Y3200D01*
Y2250D01*
G01X4800Y11850D02*
X4565Y11615D01*
X3915D01*
X3450Y11150D01*
Y4250D01*
X5850Y1850D01*
X5968D01*
G01X4300Y6350D02*
X3900Y6750D01*
Y8100D01*
G01X4800Y10350D02*
X5050D01*
X5750Y9650D01*
Y4250D01*
X7250Y2750D01*
G01X25500Y12570D02*
X25170Y12240D01*
Y9330D01*
X25380Y9120D01*
Y6850D01*
X25500Y6730D01*
G01X25470Y6300D02*
X25680Y6510D01*
Y6805D01*
X25500Y6985D01*
Y9350D01*
G01X25350Y10950D02*
Y9850D01*
X25700Y9500D01*
Y7450D01*
G01X26571Y6911D02*
X26750Y6731D01*
Y6050D01*
X26470Y5770D01*
Y5325D01*
X26570Y5225D01*
Y4255D01*
X26540Y4225D01*
Y4075D01*
X26645Y3970D01*
X26753D01*
X27400Y3323D01*
Y2000D01*
G01X30250Y13350D02*
X30350Y13250D01*
X30750D01*
X31115Y12885D01*
Y6370D01*
G01X33230Y9270D02*
X33300Y9200D01*
Y6650D01*
X33460Y6490D01*
Y6420D01*
G01X37750Y13350D02*
X37505Y13105D01*
X36995D01*
G01X43350Y4608D02*
X43468Y4490D01*
X43587D01*
X43690Y4387D01*
Y2913D01*
X43137Y2360D01*
X42868D01*
X42750Y2242D01*
G01X43350Y4282D02*
X43468Y4400D01*
X43550D01*
X43600Y4350D01*
Y2950D01*
X43100Y2450D01*
X42868D01*
X42750Y2568D01*
G01X66250Y3736D02*
X66369Y3855D01*
X66481D01*
X66589Y3964D01*
Y5378D01*
X66589Y5461D01*
X66290Y5760D01*
X65872D01*
X65862Y5750D01*
X65850D01*
X65750Y5850D01*
G01X66250Y4073D02*
X66368Y3955D01*
X66439D01*
X66489Y4005D01*
Y5419D01*
X66248Y5660D01*
X65914D01*
X65854Y5600D01*
X65646D01*
X65641Y5605D01*
X65495D01*
X65250Y5850D01*
G01X73500Y15600D02*
X73000D01*
G54D16*
X6500Y33050D03*
Y32550D03*
Y38550D03*
Y38050D03*
X8500Y33050D03*
Y32550D03*
X8000Y33050D03*
Y32550D03*
X7500Y33050D03*
Y32550D03*
X7000Y33050D03*
Y32550D03*
X8500Y38550D03*
Y38050D03*
X8000Y38550D03*
Y38050D03*
X7500Y38550D03*
Y38050D03*
X7000Y38550D03*
Y38050D03*
X11000Y33050D03*
Y32550D03*
X10500Y33050D03*
Y32550D03*
X10000Y33050D03*
Y32550D03*
X9500Y33050D03*
Y32550D03*
X9000Y33050D03*
Y32550D03*
X11000Y38550D03*
Y38050D03*
X10500Y38550D03*
Y38050D03*
X10000Y38550D03*
Y38050D03*
X9500Y38550D03*
Y38050D03*
X9000Y38550D03*
Y38050D03*
X13000Y33050D03*
Y32550D03*
X12500Y33050D03*
Y32550D03*
X12000Y33050D03*
Y32550D03*
X11500Y33050D03*
Y32550D03*
X13000Y38550D03*
Y38050D03*
X12500Y38550D03*
Y38050D03*
X12000Y38550D03*
Y38050D03*
X11500Y38550D03*
Y38050D03*
X15000Y33050D03*
Y32550D03*
X14500Y33050D03*
Y32550D03*
X14000Y33050D03*
Y32550D03*
X13500Y33050D03*
Y32550D03*
X15000Y38550D03*
Y38050D03*
X14500Y38550D03*
Y38050D03*
X14000Y38550D03*
Y38050D03*
X13500Y38550D03*
Y38050D03*
X17500Y33050D03*
Y32550D03*
X17000Y33050D03*
Y32550D03*
X16500Y33050D03*
Y32550D03*
X16000Y33050D03*
Y32550D03*
X15500Y33050D03*
Y32550D03*
X17500Y38550D03*
Y38050D03*
X17000Y38550D03*
Y38050D03*
X16500Y38550D03*
Y38050D03*
X16000Y38550D03*
Y38050D03*
X15500Y38550D03*
Y38050D03*
X18500Y33050D03*
Y32550D03*
X18000Y33050D03*
Y32550D03*
X18500Y38550D03*
Y38050D03*
X18000Y38550D03*
Y38050D03*
X25050Y27580D03*
X26000Y33050D03*
Y32550D03*
X25500Y33050D03*
Y32550D03*
X26000Y38550D03*
Y38050D03*
X25500Y38550D03*
Y38050D03*
X28000Y33050D03*
Y32550D03*
X27500Y33050D03*
Y32550D03*
X27000Y33050D03*
Y32550D03*
X26500Y33050D03*
Y32550D03*
X28000Y38550D03*
Y38050D03*
X27500Y38550D03*
Y38050D03*
X27000Y38550D03*
Y38050D03*
X26500Y38550D03*
Y38050D03*
X30250Y4350D03*
X29750D03*
X30250Y4850D03*
X29750D03*
X30250Y5350D03*
X29750D03*
X30250Y5850D03*
X29750D03*
X30250Y6350D03*
X29750D03*
X30250Y6850D03*
X29750D03*
X30250Y7350D03*
X29750D03*
X30250Y7850D03*
X29750D03*
X30250Y8350D03*
X29750D03*
X30250Y8850D03*
X29750D03*
X30250Y9350D03*
X29750D03*
X30250Y9850D03*
X29750D03*
X30250Y10350D03*
X29750D03*
X30250Y10850D03*
X29750D03*
X30250Y11350D03*
X29750D03*
X30250Y11850D03*
X29750D03*
X30250Y12350D03*
X29750D03*
X30250Y12850D03*
X29750D03*
X30250Y13350D03*
X29750D03*
X30250Y13850D03*
X29750D03*
X30250Y14350D03*
X29750D03*
X30250Y14850D03*
X29750D03*
X30250Y15350D03*
X29750D03*
X30250Y15850D03*
X29750D03*
X30250Y16350D03*
X29750D03*
X30500Y33050D03*
Y32550D03*
X30000Y33050D03*
Y32550D03*
X29500Y33050D03*
Y32550D03*
X29000Y33050D03*
Y32550D03*
X28500Y33050D03*
Y32550D03*
X30500Y38550D03*
Y38050D03*
X30000Y38550D03*
Y38050D03*
X29500Y38550D03*
Y38050D03*
X29000Y38550D03*
Y38050D03*
X28500Y38550D03*
Y38050D03*
X32500Y33050D03*
Y32550D03*
X32000Y33050D03*
Y32550D03*
X31500Y33050D03*
Y32550D03*
X31000Y33050D03*
Y32550D03*
X32500Y38550D03*
Y38050D03*
X32000Y38550D03*
Y38050D03*
X31500Y38550D03*
Y38050D03*
X31000Y38550D03*
Y38050D03*
X34500Y33050D03*
Y32550D03*
X34000Y33050D03*
Y32550D03*
X33500Y33050D03*
Y32550D03*
X33000Y33050D03*
Y32550D03*
X34500Y38550D03*
Y38050D03*
X34000Y38550D03*
Y38050D03*
X33500Y38550D03*
Y38050D03*
X33000Y38550D03*
Y38050D03*
X34980Y27350D03*
X37000Y33050D03*
Y32550D03*
X36500Y33050D03*
Y32550D03*
X36000Y33050D03*
Y32550D03*
X35500Y33050D03*
Y32550D03*
X35000Y33050D03*
Y32550D03*
X37000Y38550D03*
Y38050D03*
X36500Y38550D03*
Y38050D03*
X36000Y38550D03*
Y38050D03*
X35500Y38550D03*
Y38050D03*
X35000Y38550D03*
Y38050D03*
X37750Y4350D03*
X37250D03*
X37750Y4850D03*
X37250D03*
X37750Y5350D03*
X37250D03*
X37750Y5850D03*
X37250D03*
X37750Y6350D03*
X37250D03*
X37750Y6850D03*
X37250D03*
X37750Y7350D03*
X37250D03*
X37750Y7850D03*
X37250D03*
X37750Y8350D03*
X37250D03*
X37750Y8850D03*
X37250D03*
X37750Y9350D03*
X37250D03*
X37750Y9850D03*
X37250D03*
X37750Y10350D03*
X37250D03*
X37750Y10850D03*
X37250D03*
X37750Y11350D03*
X37250D03*
X37750Y11850D03*
X37250D03*
X37750Y12350D03*
X37250D03*
X37750Y12850D03*
X37250D03*
X37750Y13350D03*
X37250D03*
X37750Y13850D03*
X37250D03*
X37750Y14350D03*
X37250D03*
X37750Y14850D03*
X37250D03*
X37750Y15350D03*
X37250D03*
X37750Y15850D03*
X37250D03*
X37750Y16350D03*
X37250D03*
X37500Y33050D03*
Y32550D03*
Y38550D03*
Y38050D03*
X40700Y8800D03*
X42300Y10550D03*
X42850Y27430D03*
X45250Y4350D03*
X44750D03*
X45250Y4850D03*
X44750D03*
X45250Y5350D03*
X44750D03*
X45250Y5850D03*
X44750D03*
X45250Y6350D03*
X44750D03*
X45250Y6850D03*
X44750D03*
X45250Y7350D03*
X44750D03*
X45250Y7850D03*
X44750D03*
X45250Y8350D03*
X44750D03*
X45250Y8850D03*
X44750D03*
X45250Y9350D03*
X44750D03*
X45250Y9850D03*
X44750D03*
X45250Y10350D03*
X44750D03*
X45250Y10850D03*
X44750D03*
X45250Y11350D03*
X44750D03*
X45250Y11850D03*
X44750D03*
X45250Y12350D03*
X44750D03*
X45250Y12850D03*
X44750D03*
X45250Y13350D03*
X44750D03*
X45250Y13850D03*
X44750D03*
X45250Y14350D03*
X44750D03*
X45250Y14850D03*
X44750D03*
X45250Y15350D03*
X44750D03*
X45250Y15850D03*
X44750D03*
X45250Y16350D03*
X44750D03*
X45500Y33050D03*
Y32550D03*
X45000Y33050D03*
Y32550D03*
X44500Y33050D03*
Y32550D03*
X45500Y38550D03*
Y38050D03*
X45000Y38550D03*
Y38050D03*
X44500Y38550D03*
Y38050D03*
X47500Y33050D03*
Y32550D03*
X47000Y33050D03*
Y32550D03*
X46500Y33050D03*
Y32550D03*
X46000Y33050D03*
Y32550D03*
X47500Y38550D03*
Y38050D03*
X47000Y38550D03*
Y38050D03*
X46500Y38550D03*
Y38050D03*
X46000Y38550D03*
Y38050D03*
X49950Y16050D03*
X49450D03*
X49950Y15550D03*
X49450D03*
X49950Y15050D03*
X49450D03*
X49950Y14550D03*
X49450D03*
X49950Y18050D03*
X49450D03*
X49950Y17550D03*
X49450D03*
X49950Y17050D03*
X49450D03*
X49950Y16550D03*
X49450D03*
X49950Y19050D03*
X49450D03*
X49950Y18550D03*
X49450D03*
X49500Y33050D03*
Y32550D03*
X49000Y33050D03*
Y32550D03*
X48500Y33050D03*
Y32550D03*
X48000Y33050D03*
Y32550D03*
X49500Y38550D03*
Y38050D03*
X49000Y38550D03*
Y38050D03*
X48500Y38550D03*
Y38050D03*
X48000Y38550D03*
Y38050D03*
X52000Y33050D03*
Y32550D03*
X51500Y33050D03*
Y32550D03*
X51000Y33050D03*
Y32550D03*
X50500Y33050D03*
Y32550D03*
X50000Y33050D03*
Y32550D03*
X52000Y38550D03*
Y38050D03*
X51500Y38550D03*
Y38050D03*
X51000Y38550D03*
Y38050D03*
X50500Y38550D03*
Y38050D03*
X50000Y38550D03*
Y38050D03*
X54000Y33050D03*
Y32550D03*
X53500Y33050D03*
Y32550D03*
X53000Y33050D03*
Y32550D03*
X52500Y33050D03*
Y32550D03*
X54000Y38550D03*
Y38050D03*
X53500Y38550D03*
Y38050D03*
X53000Y38550D03*
Y38050D03*
X52500Y38550D03*
Y38050D03*
X56000Y33050D03*
Y32550D03*
X55500Y33050D03*
Y32550D03*
X55000Y33050D03*
Y32550D03*
X54500Y33050D03*
Y32550D03*
X56000Y38550D03*
Y38050D03*
X55500Y38550D03*
Y38050D03*
X55000Y38550D03*
Y38050D03*
X54500Y38550D03*
Y38050D03*
X58250Y4350D03*
X57750D03*
X58250Y4850D03*
X57750D03*
X58250Y5350D03*
X57750D03*
X58250Y5850D03*
X57750D03*
X58250Y6350D03*
X57750D03*
X58250Y6850D03*
X57750D03*
X58250Y7350D03*
X57750D03*
X58250Y7850D03*
X57750D03*
X58250Y8350D03*
X57750D03*
X58250Y8850D03*
X57750D03*
X58250Y9350D03*
X57750D03*
X58250Y9850D03*
X57750D03*
X58250Y10350D03*
X57750D03*
X58250Y10850D03*
X57750D03*
X58250Y11350D03*
X57750D03*
X58250Y11850D03*
X57750D03*
X58250Y12350D03*
X57750D03*
X58250Y12850D03*
X57750D03*
X58250Y13350D03*
X57750D03*
X58250Y13850D03*
X57750D03*
X58250Y14350D03*
X57750D03*
X58250Y14850D03*
X57750D03*
X58250Y15350D03*
X57750D03*
X58250Y15850D03*
X57750D03*
X58250Y16350D03*
X57750D03*
X56500Y33050D03*
Y32550D03*
Y38550D03*
Y38050D03*
X65750Y4350D03*
X65250D03*
X65750Y4850D03*
X65250D03*
X65750Y5350D03*
X65250D03*
X65750Y5850D03*
X65250D03*
X65750Y6350D03*
X65250D03*
X65750Y6850D03*
X65250D03*
X65750Y7350D03*
X65250D03*
X65750Y7850D03*
X65250D03*
X65750Y8350D03*
X65250D03*
X65750Y8850D03*
X65250D03*
X65750Y9350D03*
X65250D03*
X65750Y9850D03*
X65250D03*
X65750Y10350D03*
X65250D03*
X65750Y10850D03*
X65250D03*
X65750Y11350D03*
X65250D03*
X65750Y11850D03*
X65250D03*
X65750Y12350D03*
X65250D03*
X65750Y12850D03*
X65250D03*
X65750Y13350D03*
X65250D03*
X65750Y13850D03*
X65250D03*
X65750Y14350D03*
X65250D03*
X65750Y14850D03*
X65250D03*
X65750Y15350D03*
X65250D03*
X65750Y15850D03*
X65250D03*
X65750Y16350D03*
X65250D03*
X73250Y4350D03*
X72750D03*
X73250Y4850D03*
X72750D03*
X73250Y5350D03*
X72750D03*
X73250Y5850D03*
X72750D03*
X73250Y6350D03*
X72750D03*
X73250Y6850D03*
X72750D03*
X73250Y7350D03*
X72750D03*
X73250Y7850D03*
X72750D03*
X73250Y8350D03*
X72750D03*
X73250Y8850D03*
X72750D03*
X73250Y9350D03*
X72750D03*
X73250Y9850D03*
X72750D03*
X73250Y10350D03*
X72750D03*
X73250Y10850D03*
X72750D03*
X73250Y11350D03*
X72750D03*
X73250Y11850D03*
X72750D03*
X73250Y12350D03*
X72750D03*
X73250Y12850D03*
X72750D03*
X73250Y13350D03*
X72750D03*
X73250Y13850D03*
X72750D03*
X73250Y14350D03*
X72750D03*
X73250Y14850D03*
X72750D03*
X73250Y15350D03*
X72750D03*
X73250Y15850D03*
X72750D03*
X73250Y16350D03*
X72750D03*
X105980Y4500D03*
Y5000D03*
X105480Y4500D03*
Y5000D03*
X104980Y4500D03*
Y5000D03*
X105980Y15800D03*
X105480D03*
X104980D03*
X105980Y16300D03*
X105480D03*
X104980D03*
X107980Y4500D03*
Y5000D03*
X107480Y4500D03*
Y5000D03*
X106980Y4500D03*
Y5000D03*
X106480Y4500D03*
Y5000D03*
X107980Y15800D03*
X107480D03*
X106980D03*
X106480D03*
X107980Y16300D03*
X107480D03*
X106980D03*
X106480D03*
X109980Y4500D03*
Y5000D03*
X109480Y4500D03*
Y5000D03*
X108980Y4500D03*
Y5000D03*
X108480Y4500D03*
Y5000D03*
X109980Y15800D03*
X109480D03*
X108980D03*
X108480D03*
X109980Y16300D03*
X109480D03*
X108980D03*
X108480D03*
X112480Y4500D03*
Y5000D03*
X111980Y4500D03*
Y5000D03*
X111480Y4500D03*
Y5000D03*
X110980Y4500D03*
Y5000D03*
X110480Y4500D03*
Y5000D03*
X112480Y15800D03*
X111980D03*
X111480D03*
X110980D03*
X110480D03*
X112480Y16300D03*
X111980D03*
X111480D03*
X110980D03*
X110480D03*
X114480Y4500D03*
Y5000D03*
X113980Y4500D03*
Y5000D03*
X113480Y4500D03*
Y5000D03*
X112980Y4500D03*
Y5000D03*
X114480Y15800D03*
X113980D03*
X113480D03*
X112980D03*
X114480Y16300D03*
X113980D03*
X113480D03*
X112980D03*
X116480Y4500D03*
Y5000D03*
X115980Y4500D03*
Y5000D03*
X115480Y4500D03*
Y5000D03*
X114980Y4500D03*
Y5000D03*
X116480Y15800D03*
X115980D03*
X115480D03*
X114980D03*
X116480Y16300D03*
X115980D03*
X115480D03*
X114980D03*
X118480Y4500D03*
Y5000D03*
X117980Y4500D03*
Y5000D03*
X117480Y4500D03*
Y5000D03*
X116980Y4500D03*
Y5000D03*
X118480Y15800D03*
X117980D03*
X117480D03*
X116980D03*
X118480Y16300D03*
X117980D03*
X117480D03*
X116980D03*
X120980Y4500D03*
Y5000D03*
X120480Y4500D03*
Y5000D03*
X119980Y4500D03*
Y5000D03*
X119480Y4500D03*
Y5000D03*
X118980Y4500D03*
Y5000D03*
X120980Y15800D03*
X120480D03*
X119980D03*
X119480D03*
X118980D03*
X120980Y16300D03*
X120480D03*
X119980D03*
X119480D03*
X118980D03*
X121980Y4500D03*
Y5000D03*
X121480Y4500D03*
Y5000D03*
X121980Y15800D03*
X121480D03*
X121980Y16300D03*
X121480D03*
X129490Y4480D03*
Y4980D03*
X128990Y4480D03*
Y4980D03*
X128490Y4480D03*
Y4980D03*
X129490Y15780D03*
X128990D03*
X128490D03*
X129490Y16280D03*
X128990D03*
X128490D03*
X129490Y25930D03*
Y26430D03*
X128990Y25930D03*
Y26430D03*
X128490Y25930D03*
Y26430D03*
X129490Y37230D03*
Y37730D03*
X128990Y37230D03*
Y37730D03*
X128490Y37230D03*
Y37730D03*
X131490Y4480D03*
Y4980D03*
X130990Y4480D03*
Y4980D03*
X130490Y4480D03*
Y4980D03*
X129990Y4480D03*
Y4980D03*
X131490Y15780D03*
X130990D03*
X130490D03*
X129990D03*
X131490Y16280D03*
X130990D03*
X130490D03*
X129990D03*
X131490Y25930D03*
Y26430D03*
X130990Y25930D03*
Y26430D03*
X130490Y25930D03*
Y26430D03*
X129990Y25930D03*
Y26430D03*
X131490Y37230D03*
Y37730D03*
X130990Y37230D03*
Y37730D03*
X130490Y37230D03*
Y37730D03*
X129990Y37230D03*
Y37730D03*
X133990Y4480D03*
Y4980D03*
X133490Y4480D03*
Y4980D03*
X132990Y4480D03*
Y4980D03*
X132490Y4480D03*
Y4980D03*
X131990Y4480D03*
Y4980D03*
X133990Y15780D03*
X133490D03*
X132990D03*
X132490D03*
X131990D03*
X133990Y16280D03*
X133490D03*
X132990D03*
X132490D03*
X131990D03*
X133990Y25930D03*
Y26430D03*
X133490Y25930D03*
Y26430D03*
X132990Y25930D03*
Y26430D03*
X132490Y25930D03*
Y26430D03*
X131990Y25930D03*
Y26430D03*
X133990Y37230D03*
Y37730D03*
X133490Y37230D03*
Y37730D03*
X132990Y37230D03*
Y37730D03*
X132490Y37230D03*
Y37730D03*
X131990Y37230D03*
Y37730D03*
X135990Y4480D03*
Y4980D03*
X135490Y4480D03*
Y4980D03*
X134990Y4480D03*
Y4980D03*
X134490Y4480D03*
Y4980D03*
X135990Y15780D03*
X135490D03*
X134990D03*
X134490D03*
X135990Y16280D03*
X135490D03*
X134990D03*
X134490D03*
X135990Y25930D03*
Y26430D03*
X135490Y25930D03*
Y26430D03*
X134990Y25930D03*
Y26430D03*
X134490Y25930D03*
Y26430D03*
X135990Y37230D03*
Y37730D03*
X135490Y37230D03*
Y37730D03*
X134990Y37230D03*
Y37730D03*
X134490Y37230D03*
Y37730D03*
X137990Y4480D03*
Y4980D03*
X137490Y4480D03*
Y4980D03*
X136990Y4480D03*
Y4980D03*
X136490Y4480D03*
Y4980D03*
X137990Y15780D03*
X137490D03*
X136990D03*
X136490D03*
X137990Y16280D03*
X137490D03*
X136990D03*
X136490D03*
X137990Y25930D03*
Y26430D03*
X137490Y25930D03*
Y26430D03*
X136990Y25930D03*
Y26430D03*
X136490Y25930D03*
Y26430D03*
X137990Y37230D03*
Y37730D03*
X137490Y37230D03*
Y37730D03*
X136990Y37230D03*
Y37730D03*
X136490Y37230D03*
Y37730D03*
X140490Y4480D03*
Y4980D03*
X139990Y4480D03*
Y4980D03*
X139490Y4480D03*
Y4980D03*
X138990Y4480D03*
Y4980D03*
X138490Y4480D03*
Y4980D03*
X140490Y15780D03*
X139990D03*
X139490D03*
X138990D03*
X138490D03*
X140490Y16280D03*
X139990D03*
X139490D03*
X138990D03*
X138490D03*
X140490Y25930D03*
Y26430D03*
X139990Y25930D03*
Y26430D03*
X139490Y25930D03*
Y26430D03*
X138990Y25930D03*
Y26430D03*
X138490Y25930D03*
Y26430D03*
X140490Y37230D03*
Y37730D03*
X139990Y37230D03*
Y37730D03*
X139490Y37230D03*
Y37730D03*
X138990Y37230D03*
Y37730D03*
X138490Y37230D03*
Y37730D03*
X142490Y4480D03*
Y4980D03*
X141990Y4480D03*
Y4980D03*
X141490Y4480D03*
Y4980D03*
X140990Y4480D03*
Y4980D03*
X142490Y15780D03*
X141990D03*
X141490D03*
X140990D03*
X142490Y16280D03*
X141990D03*
X141490D03*
X140990D03*
X142490Y25930D03*
Y26430D03*
X141990Y25930D03*
Y26430D03*
X141490Y25930D03*
Y26430D03*
X140990Y25930D03*
Y26430D03*
X142490Y37230D03*
Y37730D03*
X141990Y37230D03*
Y37730D03*
X141490Y37230D03*
Y37730D03*
X140990Y37230D03*
Y37730D03*
X144490Y4480D03*
Y4980D03*
X143990Y4480D03*
Y4980D03*
X143490Y4480D03*
Y4980D03*
X142990Y4480D03*
Y4980D03*
X144490Y15780D03*
X143990D03*
X143490D03*
X142990D03*
X144490Y16280D03*
X143990D03*
X143490D03*
X142990D03*
X144490Y25930D03*
Y26430D03*
X143990Y25930D03*
Y26430D03*
X143490Y25930D03*
Y26430D03*
X142990Y25930D03*
Y26430D03*
X144490Y37230D03*
Y37730D03*
X143990Y37230D03*
Y37730D03*
X143490Y37230D03*
Y37730D03*
X142990Y37230D03*
Y37730D03*
X145490Y4480D03*
Y4980D03*
X144990Y4480D03*
Y4980D03*
X145490Y15780D03*
X144990D03*
X145490Y16280D03*
X144990D03*
X145490Y25930D03*
Y26430D03*
X144990Y25930D03*
Y26430D03*
X145490Y37230D03*
Y37730D03*
X144990Y37230D03*
Y37730D03*
G54D26*
G01X4300Y6850D02*
X4550Y6600D01*
X4950D01*
X5200Y6350D01*
Y4300D01*
X6200Y3300D01*
Y2050D01*
X7150Y1100D01*
Y915D01*
G01X3300Y18900D02*
X3400Y18800D01*
Y11450D01*
G01X4300Y16850D02*
X3650Y17500D01*
Y19250D01*
X3400Y19500D01*
Y22900D01*
X3480Y22980D01*
G01X4300Y17350D02*
X4560Y17610D01*
X4960D01*
X5150Y17800D01*
Y23250D01*
X5600Y23700D01*
Y24750D01*
G01X6050Y21600D02*
Y15200D01*
X6450Y14800D01*
Y13950D01*
X6250Y13750D01*
Y13600D01*
X6550Y13300D01*
Y6712D01*
X6445Y6607D01*
Y4905D01*
X7950Y3400D01*
Y2500D01*
X9350Y1100D01*
G01X6200Y13150D02*
Y11500D01*
X5950Y11250D01*
Y6300D01*
X6205Y6045D01*
G01X5350Y19350D02*
Y14750D01*
G01X5700Y13850D02*
X5750Y13900D01*
Y23450D01*
G01X8650Y7400D02*
Y4650D01*
X8850Y4450D01*
G01X7100Y11300D02*
Y6400D01*
G01X8050Y10450D02*
Y6389D01*
X8061Y6378D01*
Y6011D01*
G01X6702Y18902D02*
X6855Y18748D01*
Y6755D01*
X6702Y6602D01*
G01X7608Y6208D02*
Y14158D01*
G01X7100Y14355D02*
Y11300D01*
G01X7135Y11315D02*
X7115D01*
X7100Y11300D01*
G01X8039Y13961D02*
X8050Y13950D01*
Y10450D01*
G01X6550Y27100D02*
Y19550D01*
X7100Y19000D01*
Y14355D01*
G01X7200Y26400D02*
X7100Y26300D01*
Y19600D01*
X7750Y18950D01*
Y16450D01*
X8039Y16161D01*
Y14889D01*
G01X6900Y26750D02*
Y20962D01*
X6935Y20927D01*
Y20773D01*
X6900Y20738D01*
Y19450D01*
X7400Y18950D01*
Y15400D01*
X7608Y15192D01*
Y14158D01*
G01X9300Y23750D02*
Y23400D01*
X9265Y23365D01*
X8873D01*
X8758Y23250D01*
X8400D01*
X8350Y23200D01*
G01X10930Y28330D02*
X8880D01*
X8020Y27470D01*
Y27420D01*
G01X17068Y20000D02*
X16950Y20118D01*
Y20231D01*
X16681Y20500D01*
X14158D01*
X13658Y20000D01*
X10142D01*
X9406Y20735D01*
Y20806D01*
X9450Y20850D01*
G01X16732Y20000D02*
X16850Y20118D01*
Y20189D01*
X16639Y20400D01*
X14200D01*
X13700Y19900D01*
X10100D01*
X9650Y20350D01*
X9300D01*
X9250Y20300D01*
G01X9300Y25220D02*
X9650Y25570D01*
Y27872D01*
X9923Y28145D01*
X11755D01*
X11910Y28300D01*
X12150D01*
G01X13450Y13550D02*
X12158D01*
X11858Y13250D01*
G01X12800Y25350D02*
X12050D01*
X11450Y24750D01*
G01X11000Y27750D02*
X11500D01*
X11630Y27620D01*
Y27550D01*
G01X24200Y6500D02*
X23850D01*
X23650Y6300D01*
Y4050D01*
X23250Y3650D01*
Y2250D01*
X23000Y2000D01*
G01X21843Y18953D02*
Y19293D01*
X22250Y19700D01*
Y20700D01*
G01X22355Y26145D02*
X22650Y25850D01*
Y22500D01*
X22600Y22450D01*
Y22250D01*
G01X25700Y5750D02*
X25450D01*
X25375Y5675D01*
Y4535D01*
X25560Y4350D01*
Y4060D01*
X24350Y2850D01*
Y2550D01*
G01X25950Y6730D02*
X25970Y6710D01*
Y5550D01*
X25805Y5385D01*
Y5013D01*
X25840Y4978D01*
Y4040D01*
X24630Y2830D01*
Y2010D01*
X24350Y1730D01*
Y1400D01*
G01X24050Y7300D02*
X24190D01*
X24600Y6890D01*
Y4930D01*
X24230Y4560D01*
G01X25160Y6320D02*
Y5370D01*
X25190Y5340D01*
G01X26350Y11200D02*
X26400Y11250D01*
Y12154D01*
X25550Y13004D01*
Y14750D01*
X25400Y14900D01*
Y15750D01*
X25550Y15900D01*
Y17400D01*
X25500Y17450D01*
G01X25850Y18650D02*
X25650Y18850D01*
X25150D01*
X24584Y19416D01*
X24134D01*
X24050Y19500D01*
G01X26330Y6710D02*
X26250Y6630D01*
Y5938D01*
X26315Y5873D01*
Y5085D01*
X26350Y5050D01*
G01X26500Y7750D02*
X26526Y7776D01*
X26724D01*
X27070Y7430D01*
Y4770D01*
X26720Y4420D01*
Y4150D01*
G01X27300Y12500D02*
X27425Y12375D01*
Y11475D01*
X27595Y11305D01*
Y10745D01*
X27305Y10455D01*
Y6913D01*
X27413Y6805D01*
X27415D01*
X27605Y6615D01*
G01X26040Y7460D02*
X26135Y7555D01*
Y9165D01*
X26000Y9300D01*
G01X28190Y6660D02*
X28390Y6460D01*
Y6258D01*
X28650Y5998D01*
Y4850D01*
G01X29390Y7400D02*
Y6710D01*
X29750Y6350D01*
G01X28913Y11713D02*
Y11000D01*
X29050Y10863D01*
G01X28200Y13045D02*
X28245D01*
X28950Y13750D01*
Y15150D01*
G01X32550Y6450D02*
X32500D01*
X31800Y7150D01*
Y8600D01*
X31950Y8750D01*
Y9100D01*
G01X30850Y9700D02*
X30950D01*
X31000Y9750D01*
Y11200D01*
X30650Y11550D01*
Y11600D01*
G01X31400Y9650D02*
Y10700D01*
G01X33930Y6930D02*
X34000Y6860D01*
Y5000D01*
X34250Y4750D01*
Y2750D01*
X34450Y2550D01*
Y1150D01*
X34350Y1050D01*
G01X35575Y1075D02*
X35150Y1500D01*
Y1950D01*
X34705Y2395D01*
Y4735D01*
X34365Y5075D01*
Y7115D01*
X34650Y7400D01*
G01X34683Y26333D02*
X33833D01*
X33550Y26050D01*
Y23150D01*
X33900Y22800D01*
Y18250D01*
X34100Y18050D01*
Y18000D01*
G01X36600Y7350D02*
Y6600D01*
X36500Y6500D01*
Y3250D01*
X36700Y3050D01*
Y1000D01*
G01X35870Y7300D02*
X36060Y7110D01*
Y5718D01*
X35985Y5643D01*
Y5315D01*
X35825Y5155D01*
Y2275D01*
X35900Y2200D01*
Y1050D01*
G01X35050Y13700D02*
X34900Y13550D01*
Y13001D01*
X35050Y12851D01*
Y10450D01*
X35700Y9800D01*
Y7392D01*
X35685Y7377D01*
Y6945D01*
X35790Y6840D01*
Y6831D01*
X35791Y6830D01*
G01X34650Y7740D02*
X34885Y7505D01*
Y6973D01*
X34590Y6678D01*
Y5872D01*
X34870Y5592D01*
X35752D01*
X35790Y5630D01*
G01X34750Y12800D02*
X34900Y12650D01*
Y7860D01*
X35110Y7650D01*
Y6910D01*
X34855Y6655D01*
G01X35200Y9850D02*
X35250Y9800D01*
Y8700D01*
X35100Y8550D01*
Y8200D01*
X35310Y7990D01*
Y6310D01*
X34934Y5934D01*
X34804D01*
X34796Y5927D01*
G01X36618Y20100D02*
X36500Y19982D01*
Y15900D01*
X36254Y15654D01*
Y13547D01*
X36450Y13350D01*
X37250D01*
G01X36995Y13105D02*
X36850Y13250D01*
X36408D01*
X36154Y13505D01*
Y15695D01*
X36400Y15942D01*
Y19982D01*
X36282Y20100D01*
G01X40600Y17550D02*
X40450Y17400D01*
Y14965D01*
X40530Y14885D01*
Y14580D01*
X40175Y14225D01*
Y11633D01*
X40254Y11555D01*
Y3154D01*
X39950Y2850D01*
Y300D01*
G01X41031Y20150D02*
X41149Y20032D01*
Y17820D01*
X41150Y17819D01*
Y16153D01*
X41065Y16068D01*
Y15832D01*
X41150Y15747D01*
Y13680D01*
X41280Y13550D01*
Y11368D01*
X41162Y11250D01*
G01X43232Y20100D02*
X43350Y19982D01*
Y14217D01*
X43301Y14168D01*
Y14051D01*
X43050Y13800D01*
Y13717D01*
X43050Y13008D01*
X43400Y12658D01*
Y7800D01*
X42570Y6970D01*
Y5939D01*
X42809Y5700D01*
X43750D01*
X43900Y5550D01*
X44050D01*
G01X43568Y20100D02*
X43450Y19982D01*
Y14175D01*
X43401Y14127D01*
Y14010D01*
X43150Y13758D01*
Y13050D01*
X43500Y12700D01*
Y7758D01*
X42670Y6929D01*
Y5980D01*
X42850Y5800D01*
X43800D01*
X43887Y5887D01*
X44050D01*
G01X42850Y15250D02*
X42900Y15200D01*
X42950D01*
X43150Y15000D01*
Y14460D01*
X42875Y14185D01*
Y13224D01*
X42850Y13199D01*
Y12750D01*
X43050Y12550D01*
Y11450D01*
X43200Y11300D01*
Y8000D01*
X43035Y7835D01*
X42805D01*
X42450Y7480D01*
Y5800D01*
X42700Y5550D01*
X43550D01*
X44050Y5050D01*
Y1950D01*
X44225Y1775D01*
Y1125D01*
G01X41368Y20150D02*
X41249Y20031D01*
Y17861D01*
X41250Y17860D01*
Y16112D01*
X41165Y16027D01*
Y15873D01*
X41250Y15788D01*
Y13722D01*
X41380Y13592D01*
Y11368D01*
X41499Y11250D01*
G01X41700Y18900D02*
Y18550D01*
X41465Y18315D01*
Y17969D01*
X41434Y17938D01*
G01X42000Y18900D02*
X41950Y18850D01*
Y18500D01*
X41650Y18200D01*
Y18100D01*
G01X42150Y26700D02*
X42050D01*
X41600Y26250D01*
Y22800D01*
X41850Y22550D01*
Y20350D01*
G01X43700Y18750D02*
X44005Y18445D01*
Y17265D01*
X44000Y17260D01*
Y15100D01*
X44750Y14350D01*
G01X45900Y19550D02*
Y14850D01*
X45400Y14350D01*
X45250D01*
G01X44600Y16890D02*
X44390Y16680D01*
Y15710D01*
X44750Y15350D01*
G01X45600Y16650D02*
Y15700D01*
X45250Y15350D01*
G01X46900Y13800D02*
Y13000D01*
X46550Y12650D01*
Y7900D01*
X46400Y7750D01*
Y6700D01*
X46950Y6150D01*
Y6010D01*
X47970Y4990D01*
G01X47032Y20100D02*
X47129Y20002D01*
Y19529D01*
X47415Y19244D01*
Y19032D01*
X47450Y18997D01*
Y10950D01*
X47350Y10850D01*
X47269D01*
X47150Y10968D01*
G01Y10632D02*
X47163D01*
X47281Y10750D01*
X47391D01*
X47550Y10909D01*
Y11060D01*
X47550Y19038D01*
X47515Y19073D01*
Y19285D01*
X47229Y19571D01*
Y19961D01*
X47368Y20100D01*
G01X48931Y20150D02*
X49050Y20032D01*
Y13918D01*
X48931Y13800D01*
G01X49268Y20150D02*
X49150Y20032D01*
Y13918D01*
X49268Y13800D01*
G01X57750Y6350D02*
X57300D01*
X57100Y6550D01*
Y13600D01*
G01X57750Y5850D02*
X57050D01*
X56600Y6300D01*
Y13105D01*
G01X59962Y5850D02*
Y5631D01*
X59882Y5552D01*
Y1132D01*
G01X59692Y941D02*
Y6300D01*
G01X60073Y1323D02*
Y5237D01*
G01X65250Y13350D02*
X64450D01*
X62250Y11150D01*
Y2100D01*
G01X62050Y20232D02*
X62169Y20350D01*
X62700D01*
X63050Y20000D01*
Y17037D01*
X62913Y16900D01*
G01X62050Y20568D02*
X62168Y20450D01*
X62742D01*
X63150Y20042D01*
Y17000D01*
X63250Y16900D01*
G01X65250Y11850D02*
X64600D01*
X62950Y10200D01*
Y2250D01*
G01X67700Y3232D02*
X67582Y3350D01*
X67469D01*
X67361Y3459D01*
Y4650D01*
X67311Y4700D01*
X67018D01*
X66900Y4582D01*
G01X67700Y3568D02*
X67582Y3450D01*
X67511D01*
X67461Y3500D01*
Y4692D01*
X67352Y4800D01*
X67018D01*
X66900Y4918D01*
G01X67000Y16828D02*
Y9295D01*
X68700Y7595D01*
G01X73850Y20468D02*
X73968Y20350D01*
X74081D01*
X74400Y20031D01*
Y15550D01*
X74200Y15350D01*
X73250D01*
G01X73850Y20132D02*
X73968Y20250D01*
X74039D01*
X74300Y19989D01*
Y15592D01*
X74158Y15450D01*
X73650D01*
X73500Y15600D01*
G01X73000D02*
X72750Y15350D01*
G01X72500Y19868D02*
X72618Y19750D01*
X72731D01*
X73050Y19431D01*
Y16550D01*
X73250Y16350D01*
G01X72500Y19532D02*
X72619Y19650D01*
X72689D01*
X72950Y19389D01*
Y16550D01*
X72750Y16350D01*
G01X75569Y6750D02*
X75450Y6632D01*
Y4468D01*
X75569Y4350D01*
G01X74210Y7830D02*
X74328Y7712D01*
X74638D01*
X74800Y7550D01*
Y6909D01*
X74650Y6759D01*
Y4550D01*
G01X75232Y6750D02*
X75350Y6632D01*
Y4468D01*
X75232Y4350D01*
G01X74210Y7494D02*
X74329Y7612D01*
X74597D01*
X74700Y7509D01*
Y6950D01*
X74550Y6800D01*
Y4712D01*
X74388Y4550D01*
X74380D01*
G01X81500Y15800D02*
X81550Y15750D01*
Y13650D01*
G01X84500Y15800D02*
Y13300D01*
X84700Y13100D01*
Y9450D01*
G01X86000Y14100D02*
Y15800D01*
G01X87400Y14600D02*
Y12820D01*
X87300Y12720D01*
Y7550D01*
X88000Y6850D01*
Y5000D01*
G01X90500D02*
X90230Y4730D01*
Y1780D01*
G01X89000Y15800D02*
Y13250D01*
G01X91000Y5000D02*
X90750Y4750D01*
Y2260D01*
X90780Y2230D01*
G01X92500Y15800D02*
Y12850D01*
X92975Y12375D01*
G01X91000Y15800D02*
Y14000D01*
G01X92000Y15800D02*
Y14700D01*
G01X93000Y15800D02*
Y12850D01*
X93160Y12690D01*
Y11960D01*
X93000Y11800D01*
Y8200D01*
G01X93500Y12800D02*
Y15800D01*
G01X96000Y14350D02*
Y15800D01*
G01X96500D02*
Y15200D01*
X96600Y15100D01*
G54D17*
X9250Y25950D03*
X10250D03*
X11250D03*
X9240Y27050D03*
X10240D03*
X11240D03*
X57000Y22250D03*
X58000D03*
X57000Y27400D03*
X58000D03*
X59000Y22250D03*
Y27400D03*
X62000Y22250D03*
X63000D03*
X62000Y27400D03*
X63000D03*
X64000Y22250D03*
Y27400D03*
X67000Y22250D03*
Y27400D03*
X68000Y22250D03*
X69000D03*
X68000Y27400D03*
X69000D03*
X71400Y31050D03*
Y39300D03*
X72000Y22250D03*
X73000D03*
X72000Y27400D03*
X73000D03*
X74000Y22250D03*
Y27400D03*
X83750Y31050D03*
Y39300D03*
X84950Y25500D03*
X89800D03*
X94500D03*
X93750Y33850D03*
X93900Y40050D03*
X101750Y31300D03*
Y33300D03*
Y32300D03*
X102800Y22250D03*
X103800D03*
X102800Y27400D03*
X103800D03*
X101900Y37500D03*
Y39500D03*
Y38500D03*
X104800Y22250D03*
Y27400D03*
X104100Y33900D03*
X104000Y40150D03*
X106700Y22250D03*
X107700D03*
X106700Y27400D03*
X107700D03*
X108700Y22250D03*
Y27400D03*
X110550Y22250D03*
X111550D03*
X112550D03*
X110550Y27400D03*
X111550D03*
X112550D03*
X112100Y31350D03*
Y33350D03*
Y32350D03*
X112000Y37600D03*
Y39600D03*
Y38600D03*
X114300Y22300D03*
Y27450D03*
X114000Y37280D03*
X115300Y22300D03*
X116300D03*
X115300Y27450D03*
X116300D03*
X118000Y22300D03*
X119000D03*
X118000Y27450D03*
X119000D03*
X120000Y22300D03*
Y27450D03*
X121850Y22300D03*
X122850D03*
X121850Y27450D03*
X122850D03*
X122790Y37250D03*
X123850Y22300D03*
Y27450D03*
G54D27*
G01X8020Y27420D02*
Y24080D01*
X8350Y23750D01*
X9000D01*
G01X9300D02*
Y25220D01*
G01X11450Y24750D02*
X11400Y24700D01*
Y23750D01*
G01X11630Y27550D02*
Y25580D01*
X11123Y25073D01*
Y23750D01*
G54D18*
X17045Y21825D03*
Y23475D03*
X18695Y21825D03*
Y23475D03*
G54D28*
G01X15450Y16550D02*
Y16283D01*
X15500Y16233D01*
Y14850D01*
X15200Y14550D01*
X13802D01*
X13800Y14552D01*
G01X28950Y17200D02*
Y15514D01*
X28912Y15476D01*
G01X30950Y14750D02*
Y17200D01*
G54D19*
X17870Y26345D03*
M02*
