G04 ================== begin FILE IDENTIFICATION RECORD ==================*
G04 Layout Name:  //MAC/HOME/DESKTOP/SPB_DATA/CAPTURE/CIS_ATCS/allegro/ATCS_Final.brd*
G04 Film Name:    SIG2*
G04 File Format:  Gerber RS274X*
G04 File Origin:  Cadence Allegro 17.2-P019*
G04 Origin Date:  Thu Jun 21 16:22:31 2018*
G04 *
G04 Layer:  ETCH/SIG2*
G04 Layer:  PIN/SIG2*
G04 Layer:  VIA CLASS/SIG2*
G04 *
G04 Offset:    (0.00 0.00)*
G04 Mirror:    No*
G04 Mode:      Positive*
G04 Rotation:  0*
G04 FullContactRelief:  No*
G04 UndefLineWidth:     0.00*
G04 ================== end FILE IDENTIFICATION RECORD ====================*
%FSLAX54Y54*MOIN*%
%IR0*IPPOS*OFA0.00000B0.00000*MIA0B0*SFA1.00000B1.00000*%
%ADD10C,.03*%
%ADD11C,.022*%
%ADD17C,.06*%
%ADD15C,.07*%
%ADD13C,.025*%
%ADD16C,.035*%
%ADD12C,.026*%
%ADD18C,.09*%
%ADD14C,.2*%
%ADD20C,.12*%
%ADD19C,.118*%
%ADD21C,.01*%
%ADD22C,.02*%
%ADD23C,.012*%
%ADD24C,.014*%
%ADD25C,.016*%
%ADD26C,.004*%
%ADD27C,.005*%
%ADD28C,.04004*%
%ADD29C,.05104*%
%ADD33C,.08004*%
%ADD32C,.08104*%
%ADD30C,.03604*%
%ADD38C,.09104*%
%ADD36C,.05604*%
%ADD37C,.04904*%
%ADD34C,.10004*%
%ADD31C,.21004*%
%ADD35C,.12804*%
G75*
%LPD*%
G75*
G36*
G01X100Y100D02*
Y28400D01*
X10712D01*
G02X10752Y28354I0J-40D01*
G03X10754Y28293I179J-25D01*
G02X10714Y28245I-39J-8D01*
G01X7490D01*
X6523Y27278D01*
X6517Y27277D01*
G03X6727Y27067I33J-177D01*
G01X6728Y27073D01*
X7610Y27955D01*
X7803D01*
G02X7831Y27887I0J-40D01*
G01X6873Y26928D01*
X6867Y26927D01*
G03X7077Y26717I33J-177D01*
G01X7078Y26723D01*
X8145Y27790D01*
X10821D01*
Y27769D01*
X10821Y27768D01*
G03X10820Y27764I179J-19D01*
G01X10819Y27745D01*
X8340D01*
X7173Y26578D01*
X7167Y26577D01*
G03X7021Y26382I33J-177D01*
G02X6953Y26349I-40J-4D01*
G01X5757Y27545D01*
X3233D01*
X2530Y26842D01*
Y23497D01*
G02X2458Y23473I-40J0D01*
G03X2252Y23156I-158J-123D01*
G01X2257Y23154D01*
X2275Y23136D01*
X2236Y23097D01*
X2231Y23096D01*
G03Y22604I69J-246D01*
G01X2236Y22603D01*
X2275Y22564D01*
X2257Y22546D01*
X2252Y22544D01*
G03X2494Y22302I48J-194D01*
G01X2496Y22307D01*
X2514Y22325D01*
X2553Y22286D01*
X2554Y22281D01*
G03X2869Y22596I246J69D01*
G01X2864Y22597D01*
X2825Y22636D01*
X2843Y22654D01*
X2848Y22656D01*
G03Y23044I-48J194D01*
G01X2843Y23046D01*
X2825Y23064D01*
X2845Y23084D01*
X2851Y23085D01*
G03X3070Y23350I-51J265D01*
G01Y26618D01*
X3457Y27005D01*
X3833D01*
G02X3851Y26929I0J-40D01*
G03X4829I489J-929D01*
G02X4848Y27005I19J35D01*
G01X5533D01*
X7053Y25485D01*
X8057D01*
X9217Y26645D01*
X9226Y26645D01*
G03X9611Y27214I14J405D01*
G02X9647Y27270I37J16D01*
G01X9833D01*
G02X9869Y27214I0J-40D01*
G03X10611I371J-164D01*
G02X10647Y27270I37J16D01*
G01X10833D01*
G02X10869Y27214I0J-40D01*
G03X11611I371J-164D01*
G02X11647Y27270I37J16D01*
G01X19425D01*
X20240Y26455D01*
X27386D01*
G03X27714I164J75D01*
G01X29162D01*
G02X29196Y26394I0J-40D01*
G03X29504I154J-94D01*
G02X29538Y26455I34J21D01*
G01X29757D01*
G02X29791Y26394I0J-40D01*
G03X30099I154J-94D01*
G02X30133Y26455I34J21D01*
G01X34478D01*
G02X34516Y26400I0J-40D01*
G03X34790Y26188I167J-67D01*
G01X35207D01*
X35375Y26020D01*
G02X35361Y25985I-14J-14D01*
G01X35352D01*
X34967Y25600D01*
X34491D01*
G02X34456Y25660I0J40D01*
G03X34168Y25872I-156J90D01*
G02X34107Y25874I-29J27D01*
G03X33772Y25658I-157J-124D01*
G02X33736Y25600I-36J-18D01*
G01X32162D01*
G02X32123Y25651I0J40D01*
G03X32072Y25832I-173J49D01*
G02X32074Y25893I27J29D01*
G03X31826I-124J157D01*
G02X31828Y25832I-25J-31D01*
G03X31784Y25629I122J-132D01*
G02X31766Y25578I-37J-16D01*
G03X31802Y25208I93J-177D01*
G02X31829Y25157I-11J-38D01*
G03X32173Y25149I171J-57D01*
G02X32212Y25200I38J11D01*
G01X33109D01*
G02X33144Y25140I0J-40D01*
G03X33456I156J-90D01*
G02X33491Y25200I35J20D01*
G01X34030D01*
G02X34070Y25158I0J-40D01*
G03X34430I180J-8D01*
G02X34470Y25200I40J2D01*
G01X35133D01*
X35252Y25319D01*
G02X35320Y25292I28J-28D01*
G03X35508Y25480I180J8D01*
G02X35481Y25548I2J40D01*
G01X35518Y25585D01*
X36330D01*
G02X36370Y25545I0J-40D01*
G03X36730I180J0D01*
G02X36770Y25585I40J0D01*
G01X38710D01*
G02X38733Y25513I0J-40D01*
G03X38967I117J-163D01*
G02X38990Y25585I23J32D01*
G01X39382D01*
X39708Y25258D01*
G03X39800Y25206I142J141D01*
G02X39828Y25155I-10J-39D01*
G03X40173Y25149I172J-55D01*
G02X40212Y25200I38J11D01*
G01X40283D01*
X40983Y25900D01*
X41686D01*
G02X41722Y25842I0J-40D01*
G03X42049Y25616I178J-92D01*
G02X42078Y25618I15J-13D01*
G03X42356Y25840I122J132D01*
G02X42391Y25900I35J20D01*
G01X42967D01*
X43338Y25529D01*
G02X43326Y25464I-28J-28D01*
G03X43564Y25226I74J-164D01*
G02X43629Y25238I37J-16D01*
G01X43767Y25100D01*
X44306D01*
G02X44342Y25041I0J-40D01*
G03X44658I158J-86D01*
G02X44694Y25100I35J19D01*
G01X46183D01*
X46533Y25450D01*
X46565D01*
Y25426D01*
X46563Y25423D01*
G03X46944Y25400I187J-73D01*
G02X46983Y25450I39J10D01*
G01X47267D01*
X47517Y25200D01*
X47688D01*
G02X47727Y25149I0J-40D01*
G03X47959Y25270I173J-49D01*
G02X47935Y25323I13J38D01*
G03X47915Y25514I-185J77D01*
G02X47921Y25566I33J23D01*
G03X47922Y25832I-121J134D01*
G02X47924Y25893I27J29D01*
G03X47988Y26119I-124J157D01*
G02X48009Y26169I38J14D01*
G03X48113Y26342I-76J163D01*
G02X48181Y26372I40J2D01*
G01X48949Y25605D01*
X50199D01*
X50655Y25148D01*
Y17352D01*
X50599Y17295D01*
X50187D01*
G02X50158Y17362I0J40D01*
G03X50082Y17797I-208J188D01*
G02X50078Y17865I19J35D01*
G03Y18235I-129J185D01*
G02X50082Y18303I23J33D01*
G03Y18797I-132J247D01*
G02X50078Y18865I19J35D01*
G03X49822I-129J185D01*
G02X49818Y18797I-23J-33D01*
G03X49731Y18725I132J-247D01*
G02X49669I-31J25D01*
G03X49582Y18797I-219J-175D01*
G02X49579Y18865I19J35D01*
G03X49322I-129J185D01*
G02X49318Y18797I-23J-33D01*
G03Y18303I132J-247D01*
G02X49322Y18235I-19J-35D01*
G03Y17865I129J-185D01*
G02X49318Y17797I-23J-33D01*
G03X49275Y17331I132J-247D01*
G02Y17269I-25J-31D01*
G03Y16831I175J-219D01*
G02Y16769I-25J-31D01*
G03Y16331I175J-219D01*
G02Y16269I-25J-31D01*
G03Y15831I175J-219D01*
G02Y15769I-25J-31D01*
G03X49254Y15750I175J-219D01*
G01X47150D01*
G03Y15350I0J-200D01*
G01X49254D01*
G03X49318Y15303I196J200D01*
G02X49322Y15235I-19J-35D01*
G03X49635Y14922I129J-185D01*
G02X49703Y14918I33J-23D01*
G03X49818Y14803I247J132D01*
G02X49822Y14735I-19J-35D01*
G03X49812Y14372I128J-185D01*
G02X49788Y14300I-24J-32D01*
G01X49612D01*
G02X49588Y14372I0J40D01*
G03X49312I-138J178D01*
G02X49288Y14300I-24J-32D01*
G01X47817D01*
X47708Y14192D01*
G03X47982Y13900I142J-142D01*
G01X48720D01*
G02X48758Y13849I0J-40D01*
G03X49069Y13684I173J-49D01*
G02X49130I31J-26D01*
G03X49442Y13849I138J116D01*
G02X49480Y13900I38J11D01*
G01X50423D01*
X50700Y14177D01*
Y14973D01*
X50423Y15250D01*
X50146D01*
G03X50125Y15269I-196J-200D01*
G02Y15331I25J31D01*
G03Y15769I-175J219D01*
G02Y15831I25J31D01*
G03Y16269I-175J219D01*
G02Y16331I25J31D01*
G03X50158Y16738I-175J219D01*
G02X50187Y16805I30J27D01*
G01X50802D01*
X51145Y17148D01*
Y25352D01*
X50402Y26095D01*
X49152D01*
X48051Y27195D01*
X44692D01*
G02X44663Y27263I0J40D01*
G03X44330Y27329I-146J137D01*
G02X44293Y27275I-37J-14D01*
G01X44125D01*
X44120Y27280D01*
X43680D01*
X43675Y27275D01*
X43149D01*
G02X43112Y27329I0J40D01*
G03X42588I-262J101D01*
G02X42551Y27275I-37J-14D01*
G01X41778D01*
X41549Y27045D01*
X41000D01*
G03X40776Y26701I0J-245D01*
G02X40739Y26645I-37J-16D01*
G01X40610D01*
X40510Y26745D01*
X39590D01*
X39390Y26545D01*
X38117D01*
X38032Y26630D01*
X37758D01*
X37673Y26545D01*
X37522D01*
X37437Y26630D01*
X37163D01*
X37078Y26545D01*
X36610D01*
X36278Y26877D01*
X36277Y26883D01*
G03X35993Y26995I-177J-33D01*
G01X28207D01*
G03X27993I-107J-145D01*
G01X24960D01*
X24234Y27722D01*
G02X24262Y27790I28J28D01*
G01X24779D01*
G02X24812Y27729I0J-40D01*
G03X25288I237J-149D01*
G02X25321Y27790I34J21D01*
G01X25988D01*
G02X26021Y27727I0J-40D01*
G03X26680I330J-227D01*
G02X26712Y27790I33J23D01*
G01X27272D01*
G02X27307Y27730I0J-40D01*
G03X28093I393J-230D01*
G02X28128Y27790I35J20D01*
G01X28555D01*
X28677Y27668D01*
G02X28652Y27600I-28J-28D01*
G03X28813Y27537I15J-200D01*
G02X28842Y27605I29J27D01*
G01X29043D01*
G03X29327Y27717I107J145D01*
G01X29328Y27723D01*
X29465Y27860D01*
X29731D01*
G02X29771Y27816I0J-40D01*
G03X29772Y27774I179J-16D01*
G02X29726Y27728I-40J-6D01*
G03X29878Y27576I-26J-178D01*
G02X29924Y27622I40J6D01*
G03X30130Y27816I26J178D01*
G02X30169Y27860I40J4D01*
G01X37011D01*
G02X37051Y27816I0J-40D01*
G03X37447Y27836I200J-17D01*
G01X37447Y27838D01*
Y27860D01*
X37486D01*
X37492Y27856D01*
G03X37708I108J144D01*
G01X37714Y27860D01*
X37753D01*
Y27838D01*
X37753Y27836D01*
G03X38150Y27816I197J-36D01*
G02X38189Y27860I40J3D01*
G01X44911D01*
G02X44950Y27816I0J-40D01*
G03X45348Y27832I200J-16D01*
G01X45347Y27833D01*
Y27855D01*
X45393D01*
X45398Y27851D01*
G03X45590Y27844I102J149D01*
G02X45650Y27808I20J-35D01*
G03X45742Y27968I200J-8D01*
G02X45680Y28002I-22J34D01*
G03X45680Y28012I-180J-2D01*
G02X45720Y28055I40J3D01*
G01X46093D01*
G03X46324Y28331I107J145D01*
G02X46351Y28400I28J29D01*
G01X49739D01*
G02X49754Y28323I0J-40D01*
G03X50546I396J-973D01*
G02X50561Y28400I15J37D01*
G01X51400D01*
Y100D01*
X50474D01*
G02X50462Y178I0J40D01*
G03X49838I-312J1003D01*
G02X49826Y100I-12J-38D01*
G01X40101D01*
G02X40074Y169I0J40D01*
G03X39826I-124J131D01*
G02X39799Y100I-28J-29D01*
G01X100D01*
G37*
G36*
G01X39711Y25822D02*
X39548Y25985D01*
X39387D01*
G02X39359Y26054I0J40D01*
G01X39440Y26135D01*
X39664D01*
G02X39703Y26087I0J-40D01*
G03X39776Y25893I197J-37D01*
G02X39778Y25832I-25J-31D01*
G03X39768Y25823I122J-133D01*
G02X39711Y25822I-29J27D01*
G37*
G36*
G01X40064Y25600D02*
Y25624D01*
X40065Y25628D01*
G03X40022Y25832I-165J72D01*
G02X40024Y25893I27J29D01*
G03X40077Y26144I-124J157D01*
G01X40070Y26157D01*
X40092Y26179D01*
X40103Y26176D01*
G03X40117Y26173I46J174D01*
G01X40123Y26172D01*
X40140Y26155D01*
X40575D01*
G02X40604Y26087I0J-40D01*
G01X40117Y25600D01*
X40064D01*
G37*
G36*
G01X43933Y25500D02*
X43646Y25787D01*
G02X43675Y25855I28J28D01*
G01X46310D01*
X46643Y26188D01*
X47580D01*
G02X47617Y26131I0J-40D01*
G03X47676Y25893I183J-81D01*
G02X47678Y25832I-25J-31D01*
G03X47625Y25744I122J-132D01*
G02X47558Y25725I-39J10D01*
G01X47433Y25850D01*
X46367D01*
X46017Y25500D01*
X44670D01*
G02X44630Y25541I0J40D01*
G03X44270I-180J4D01*
G02X44230Y25500I-40J-1D01*
G01X43933D01*
G37*
G36*
G01X43710Y26145D02*
X43569Y26287D01*
G02X43597Y26355I28J28D01*
G01X43710D01*
X43927Y26572D01*
X43933Y26573D01*
G03X44080Y26746I-33J177D01*
G02X44120Y26785I40J-1D01*
G01X44218D01*
X44298Y26705D01*
X47849D01*
X47972Y26581D01*
G02X47942Y26513I-28J-28D01*
G03X47826Y26478I-9J-180D01*
G01X46523D01*
X46190Y26145D01*
X45983D01*
G02X45949Y26206I0J40D01*
G03X45641I-154J94D01*
G02X45607Y26145I-34J-21D01*
G01X45388D01*
G02X45354Y26206I0J40D01*
G03X45046I-154J94D01*
G02X45012Y26145I-34J-21D01*
G01X43710D01*
G37*
G36*
G01X49669Y17725D02*
G03X49582Y17797I-219J-175D01*
G02X49579Y17865I19J35D01*
G03Y18235I-129J185D01*
G02X49582Y18303I23J33D01*
G03X49669Y18375I-132J247D01*
G02X49731I31J-25D01*
G03X49818Y18303I219J175D01*
G02X49822Y18235I-19J-35D01*
G03Y17865I129J-185D01*
G02X49818Y17797I-23J-33D01*
G03X49731Y17725I132J-247D01*
G02X49669I-31J25D01*
G37*
G36*
G01X50088Y14372D02*
G03X50078Y14735I-138J178D01*
G02X50082Y14803I23J33D01*
G03X50146Y14850I-132J247D01*
G01X50257D01*
X50300Y14807D01*
Y14343D01*
X50257Y14300D01*
X50112D01*
G02X50088Y14372I0J40D01*
G37*
%LPC*%
G75*
G36*
G01X32904Y27316D02*
G03X32846I-29J-27D01*
G02Y27590I-146J137D01*
G03X32904I29J27D01*
G02Y27316I146J-137D01*
G37*
G36*
G01X24040Y24191D02*
G03X23988Y24183I-22J-33D01*
G02X23950Y24450I-137J116D01*
G03X24003Y24457I22J33D01*
G02X24040Y24191I137J-116D01*
G37*
G36*
G01X1161Y22933D02*
G03Y22867I22J-33D01*
G02X939I-111J-167D01*
G03Y22933I-22J33D01*
G02X1161I111J167D01*
G37*
G36*
G01X24514Y21353D02*
G03X24486I-14J-15D01*
G02Y21647I-136J147D01*
G03X24514I14J15D01*
G02X24519Y21651I135J-148D01*
G03X24517Y21683I-13J15D01*
G02X24773Y21713I110J167D01*
G03X24777Y21655I29J-27D01*
G02X24514Y21353I-127J-155D01*
G37*
G36*
G01X26408Y21236D02*
G03X26472Y21227I35J19D01*
G02X26442Y21014I128J-127D01*
G03X26378Y21023I-35J-19D01*
G02X26408Y21236I-128J127D01*
G37*
G36*
G01X49130Y20034D02*
G03X49069I-31J-26D01*
G02Y20266I-138J116D01*
G03X49130I31J26D01*
G02Y20034I138J-116D01*
G37*
G36*
G01X42516Y20020D02*
G03X42455I-31J-26D01*
G02Y20252I-138J116D01*
G03X42516I31J26D01*
G02Y20020I138J-116D01*
G37*
G36*
G01X47231Y19984D02*
G03X47169I-31J-26D01*
G02Y20216I-138J116D01*
G03X47231I31J26D01*
G02Y19984I138J-116D01*
G37*
G36*
G01X45330Y19934D02*
G03X45269I-31J-26D01*
G02Y20166I-138J116D01*
G03X45330I31J26D01*
G02Y19934I138J-116D01*
G37*
G36*
G01X46280Y19884D02*
G03X46219I-31J-26D01*
G02Y20116I-138J116D01*
G03X46280I31J26D01*
G02Y19884I138J-116D01*
G37*
G36*
G01X48181Y19834D02*
G03X48119I-31J-26D01*
G02Y20066I-138J116D01*
G03X48181I31J26D01*
G02Y19834I138J-116D01*
G37*
G36*
G01X44833Y19840D02*
G03X44833Y19813I15J-13D01*
G02X44567Y19808I-131J-124D01*
G03X44567Y19835I-15J13D01*
G02X44833Y19840I131J124D01*
G37*
G36*
G01X2584Y18214D02*
G03X2516I-34J-21D01*
G02X2164Y18566I-216J136D01*
G03Y18634I-21J34D01*
G02X2516Y18986I136J216D01*
G03X2584I34J21D01*
G02X2664Y19066I216J-136D01*
G03Y19134I-21J34D01*
G02Y19566I136J216D01*
G03Y19634I-21J34D01*
G02Y20066I136J216D01*
G03Y20134I-21J34D01*
G02X2584Y20214I136J216D01*
G03X2516I-34J-21D01*
G02X2164Y20566I-216J136D01*
G03Y20634I-21J34D01*
G02X2516Y20986I136J216D01*
G03X2584I34J21D01*
G02X2664Y21066I216J-136D01*
G03Y21134I-21J34D01*
G02X2936I136J216D01*
G03Y21066I21J-34D01*
G02Y20634I-136J-216D01*
G03Y20566I21J-34D01*
G02Y20134I-136J-216D01*
G03Y20066I21J-34D01*
G02Y19634I-136J-216D01*
G03Y19566I21J-34D01*
G02Y19134I-136J-216D01*
G03Y19066I21J-34D01*
G02Y18634I-136J-216D01*
G03Y18566I21J-34D01*
G02Y18134I-136J-216D01*
G03Y18066I21J-34D01*
G02X2664I-136J-216D01*
G03Y18134I-21J34D01*
G02X2584Y18214I136J216D01*
G37*
G36*
G01X38881Y17534D02*
G03X38820I-31J-26D01*
G02Y17766I-138J116D01*
G03X38881I31J26D01*
G02Y17534I138J-116D01*
G37*
G36*
G01X38931Y16284D02*
G03X38870I-31J-26D01*
G02Y16516I-138J116D01*
G03X38931I31J26D01*
G02Y16284I138J-116D01*
G37*
G36*
G01X42310Y16095D02*
X42327Y16078D01*
X42333Y16077D01*
G02X42147Y15805I-33J-177D01*
G01X41457D01*
G02Y16095I-107J145D01*
G01X42310D01*
G37*
G36*
G01X39292Y15584D02*
G03X39231I-31J-26D01*
G02Y15816I-138J116D01*
G03X39292I31J26D01*
G02Y15584I138J-116D01*
G37*
G36*
G01X41032Y15319D02*
G03Y15291I14J-14D01*
G02X40748I-142J-141D01*
G03Y15319I-14J14D01*
G02X41032I142J141D01*
G37*
G36*
G01X42978Y15124D02*
G03X42981Y15065I28J-28D01*
G02X42719I-131J-152D01*
G03X42722Y15124I-26J30D01*
G02X42978I128J126D01*
G37*
G36*
G01X35312Y12934D02*
G03X35251I-31J-26D01*
G02Y13166I-138J116D01*
G03X35312I31J26D01*
G02Y12934I138J-116D01*
G37*
G36*
G01X48266Y12799D02*
G03Y12738I26J-31D01*
G02X48034I-116J-138D01*
G03Y12799I-26J31D01*
G02X48266I116J138D01*
G37*
G36*
G01X47266Y10831D02*
G03Y10770I26J-31D01*
G02X47034I-116J-138D01*
G03Y10831I-26J31D01*
G02X47266I116J138D01*
G37*
G36*
G01X34410Y9307D02*
G03X34354I-28J-29D01*
G02Y9593I-140J143D01*
G03X34410I28J29D01*
G02Y9307I140J-143D01*
G37*
G36*
G01X42294Y8143D02*
G03X42236I-29J-27D01*
G02Y8417I-146J137D01*
G03X42294I29J27D01*
G02Y8143I146J-137D01*
G37*
G36*
G01X44166Y5749D02*
G03Y5688I26J-31D01*
G02X43934I-116J-138D01*
G03Y5749I-26J31D01*
G02X44166I116J138D01*
G37*
G36*
G01X43471Y4475D02*
G03Y4415I27J-30D01*
G02X43229I-121J-133D01*
G03Y4475I-27J30D01*
G02X43471I121J133D01*
G37*
G36*
G01X49170Y4463D02*
G02Y4117I100J-173D01*
G02Y4463I-100J173D01*
G37*
G36*
G01X42988Y3080D02*
X42500Y3568D01*
X42441Y3509D01*
G02X42059Y3891I-191J191D01*
G01X42309Y4141D01*
G02X42691I191J-191D01*
G01X43212Y3620D01*
X46330D01*
Y3950D01*
G02X46870I270J0D01*
G01Y3350D01*
G02X46600Y3080I-270J0D01*
G01X42988D01*
G37*
G36*
G01X49239Y3068D02*
G03X49241Y3042I16J-12D01*
G02X48941Y3021I-141J-142D01*
G03X48939Y3048I-16J12D01*
G02X49239Y3068I141J142D01*
G37*
G36*
G01X34771Y5569D02*
G02X34613Y5424I19J-179D01*
G03X34569Y5471I-39J7D01*
G02X34578Y5828I-19J179D01*
G03X34623Y5878I6J39D01*
G02X34768Y5749I173J49D01*
G03X34724Y5699I-6J-39D01*
G02X34727Y5616I-174J-49D01*
G03X34771Y5569I39J-7D01*
G37*
G36*
G01X48397Y6152D02*
G02X48347Y6357I-167J68D01*
G03X48411Y6375I26J30D01*
G02X48462Y6165I189J-65D01*
G03X48397Y6152I-28J-29D01*
G37*
G36*
G01X41300Y11134D02*
G02Y11366I-138J116D01*
G03X41361I31J26D01*
G02X41519Y11429I138J-116D01*
G03X41562Y11482I5J40D01*
G02X41905Y11677I188J68D01*
G03X41975Y11693I31J25D01*
G02X42016Y11530I175J-43D01*
G03X41946Y11511I-30J-27D01*
G02X41716Y11353I-196J39D01*
G03X41671Y11302I-7J-39D01*
G02X41361Y11134I-173J-52D01*
G03X41300I-31J-26D01*
G37*
G36*
G01X41611Y17904D02*
G02X41451Y18117I-177J34D01*
G03X41473Y18134I2J20D01*
G02X41825Y18143I177J-33D01*
G03X41880Y18116I39J10D01*
G02X41946Y18130I70J-166D01*
G03X41982Y18185I-1J40D01*
G02X42154Y18070I168J65D01*
G03X42118Y18015I1J-40D01*
G02X41775Y17907I-168J-65D01*
G03X41721Y17934I-39J-10D01*
G02X41633Y17921I-71J166D01*
G03X41611Y17904I-2J-20D01*
G37*
G36*
G01X27314Y21025D02*
G02Y21175I-164J75D01*
G03X27386I36J17D01*
G02Y21025I164J-75D01*
G03X27314I-36J-17D01*
G37*
G36*
G01X10738Y22555D02*
X5540D01*
X5373Y22722D01*
X5367Y22723D01*
G02X5577Y22933I33J177D01*
G01X5578Y22927D01*
X5660Y22845D01*
X8720D01*
G03X8760Y22888I0J40D01*
G02X8816Y23031I180J12D01*
G03X8817Y23059I-14J14D01*
G02X8784Y23249I133J121D01*
G03X8747Y23305I-37J15D01*
G01X8560D01*
G03X8522Y23253I0J-40D01*
G02X8178I-172J-53D01*
G03X8140Y23305I-38J12D01*
G01X5857D01*
G02X5570Y23436I-107J145D01*
G01X5569Y23455D01*
X5088D01*
G03X5049Y23406I0J-40D01*
G02X4551I-249J-56D01*
G03X4512Y23455I-39J9D01*
G01X4483D01*
Y23431D01*
X4485Y23427D01*
G02X4107Y23404I-185J-77D01*
G03X4069Y23455I-38J11D01*
G01X3807D01*
G02X3657Y23775I-107J145D01*
G03X3684Y23829I-10J39D01*
G02X3957Y24045I166J71D01*
G01X4490D01*
G03X4521Y24111I0J40D01*
G02X4979I229J194D01*
G03X5010Y24045I31J-26D01*
G01X8828D01*
X9183Y24400D01*
X11995D01*
X12026Y24432D01*
G03X11998Y24500I-28J28D01*
G02X11854Y24837I2J200D01*
G03X11825Y24905I-29J27D01*
G01X10050D01*
X9989Y24844D01*
X9699D01*
X9637Y24905D01*
X8675D01*
G03X8646Y24837I0J-40D01*
G02X8375Y24544I-146J-137D01*
G02X8104Y24837I-125J156D01*
G03X8075Y24905I-29J27D01*
G01X5745D01*
Y24857D01*
X5749Y24852D01*
G02X5455Y24857I-149J-102D01*
G01Y25060D01*
X5590Y25195D01*
X9643D01*
X9644Y25213D01*
G02X10043I199J-20D01*
G01X10045Y25195D01*
X12612D01*
G03X12646Y25256I0J40D01*
G02X12954I154J94D01*
G03X12988Y25195I34J-21D01*
G01X21440D01*
X22090Y25845D01*
X23010D01*
X23277Y25578D01*
X23283Y25577D01*
G02X23107Y25291I-33J-177D01*
G03X23043I-32J-24D01*
G02X23004Y25253I-143J109D01*
G01X22995Y25247D01*
Y25240D01*
X22283Y24528D01*
G03X22284Y24471I28J-28D01*
G02X22286Y24469I-123J-131D01*
G03X22315Y24469I14J14D01*
G02X22334Y24209I134J-121D01*
G03X22281Y24208I-25J-31D01*
G02X22270Y24198I-122J132D01*
G03X22268Y24136I24J-32D01*
G02X22040Y24142I-118J-136D01*
G03X22041Y24204I-24J32D01*
G02X21990Y24401I118J136D01*
G03X21952Y24455I-38J13D01*
G01X12550D01*
X12445Y24350D01*
X12355D01*
X12115Y24110D01*
X10219D01*
G03X10180Y24066I0J-40D01*
G02X9780I-200J-16D01*
G03X9741Y24110I-40J3D01*
G01X9303D01*
X9128Y23934D01*
G03Y23877I28J-28D01*
G02X9135Y23869I-128J-126D01*
G03X9165I15J13D01*
G02X9480Y23764I135J-119D01*
G01X9481Y23745D01*
X10913D01*
X10945Y23777D01*
X10946Y23783D01*
G02X11248Y23880I177J-33D01*
G03X11275I14J14D01*
G02X11433Y23573I125J-130D01*
G01X11427Y23572D01*
X11226Y23370D01*
G03X11231Y23309I28J-28D01*
G02X11253Y23292I-101J-149D01*
G03X11307I27J29D01*
G02X11559Y23034I123J-132D01*
G03Y23006I14J-14D01*
G02X11303Y22752I-129J-126D01*
G03X11247I-28J-28D01*
G02X10993Y22753I-127J128D01*
G03X10936I-28J-28D01*
G01X10738Y22555D01*
G37*
G36*
G01X43767Y14050D02*
Y14030D01*
X44255D01*
X44457Y13829D01*
G03X44525Y13856I28J28D01*
G02X44621Y14035I225J-6D01*
G03X44618Y14103I-23J33D01*
G02X44575Y14569I132J247D01*
G03Y14631I-25J31D01*
G02Y15069I175J219D01*
G03Y15131I-25J31D01*
G02X44618Y15597I175J219D01*
G03X44621Y15665I-19J35D01*
G02Y16035I129J185D01*
G03X44618Y16103I-23J33D01*
G02X44476Y16289I132J247D01*
G01X44473Y16305D01*
X41160D01*
X40960Y16105D01*
X40640D01*
X40623Y16122D01*
X40617Y16123D01*
G02X40518Y16423I33J177D01*
G03Y16477I-29J27D01*
G02X40471Y16615I132J123D01*
G03X40402Y16647I-40J3D01*
G01X40210Y16455D01*
X40057D01*
G02X40052Y16749I-107J145D01*
G01X40057Y16745D01*
X40090D01*
X40390Y17045D01*
X40562D01*
G03X40596Y17106I0J40D01*
G02X40605Y17308I154J94D01*
G03X40578Y17371I-32J24D01*
G02X40745Y17442I22J179D01*
G03X40772Y17379I32J-24D01*
G02X40904Y17106I-22J-179D01*
G03X40938Y17045I34J-21D01*
G01X41250D01*
X41505Y17300D01*
X42470D01*
X42472Y17318D01*
G02X42783Y17176I179J-19D01*
G03X42783Y17122I29J-27D01*
G02X42829Y17022I-133J-122D01*
G03X42892Y16995I40J5D01*
G02X43107Y16995I108J-145D01*
G01X43540D01*
X43650Y17105D01*
X43970D01*
X44085Y17220D01*
X44935D01*
X45395Y16760D01*
Y16707D01*
X45429D01*
X45434Y16719D01*
G02X45566Y16473I166J-69D01*
G03X45521Y16423I-7J-39D01*
G02X45382Y16103I-270J-73D01*
G03X45379Y16035I19J-35D01*
G02Y15665I-129J-185D01*
G03X45382Y15597I23J-33D01*
G02X45425Y15131I-132J-247D01*
G03Y15069I25J-31D01*
G02Y14631I-175J-219D01*
G03Y14569I25J-31D01*
G02X45382Y14103I-175J-219D01*
G03X45379Y14035I19J-35D01*
G02X45474Y13872I-129J-185D01*
G03X45542Y13847I40J4D01*
G01X45690Y13995D01*
X46910D01*
X46927Y13978D01*
X46933Y13977D01*
G02X46747Y13705I-33J-177D01*
G01X45810D01*
X45608Y13502D01*
G02X45548Y13467I-103J103D01*
G03X45522Y13418I12J-38D01*
G02X45425Y13131I-272J-69D01*
G03Y13069I25J-31D01*
G02X45524Y12789I-175J-219D01*
G03X45562Y12740I39J-9D01*
G01X47512D01*
X47515Y12741D01*
G02X47653Y12703I35J-141D01*
G01X48245Y12110D01*
Y12081D01*
G02X47848Y12029I-145J-431D01*
G03X47854Y12091I-22J33D01*
G01X47485Y12460D01*
X45506D01*
G03X45467Y12409I0J-40D01*
G02X45379Y12165I-217J-59D01*
G03X45382Y12097I23J-33D01*
G02Y11603I-132J-247D01*
G03X45379Y11535I19J-35D01*
G02Y11165I-129J-185D01*
G03X45382Y11097I23J-33D01*
G02X45524Y10793I-132J-247D01*
G03X45564Y10745I39J-8D01*
G01X46507D01*
X46510Y10746D01*
G02X46648Y10708I35J-141D01*
G01X46960Y10395D01*
X48910D01*
X49397Y9908D01*
X49410Y9914D01*
G02X49186Y9690I190J-414D01*
G01X49192Y9703D01*
X48790Y10105D01*
X46840D01*
X46548Y10397D01*
G03X46480Y10365I-28J-28D01*
G02X46416Y10212I-180J-16D01*
G03Y10151I26J-31D01*
G02X46184I-116J-138D01*
G03Y10212I-26J31D01*
G02X46130Y10411I116J138D01*
G03X46093Y10465I-38J14D01*
G01X45561D01*
G03X45522Y10416I0J-40D01*
G02X45382Y10103I-272J-65D01*
G03X45379Y10035I19J-35D01*
G02X45467Y9791I-129J-185D01*
G03X45506Y9740I39J-11D01*
G01X48063D01*
G02X47998Y9442I387J-240D01*
G01X47996Y9460D01*
X47530D01*
G03X47491Y9408I0J-40D01*
G02X47109I-191J-58D01*
G03X47070Y9460I-38J12D01*
G01X45562D01*
G03X45524Y9411I0J-40D01*
G02X45382Y9103I-273J-61D01*
G03X45379Y9035I19J-35D01*
G02Y8665I-129J-185D01*
G03X45382Y8597I23J-33D01*
G02X45425Y8131I-132J-247D01*
G03Y8069I25J-31D01*
G02X45382Y7603I-175J-219D01*
G03X45379Y7535I19J-35D01*
G02Y7165I-129J-185D01*
G03X45382Y7097I23J-33D01*
G02Y6603I-132J-247D01*
G03X45379Y6535I19J-35D01*
G02Y6165I-129J-185D01*
G03X45382Y6097I23J-33D01*
G02Y5603I-132J-247D01*
G03X45379Y5535I19J-35D01*
G02Y5165I-129J-185D01*
G03X45382Y5097I23J-33D01*
G02X45425Y4631I-132J-247D01*
G03Y4569I25J-31D01*
G02X45031Y4175I-175J-219D01*
G03X44969I-31J-25D01*
G02X44575Y4569I-219J175D01*
G03Y4631I-25J31D01*
G02Y5069I175J219D01*
G03Y5131I-25J31D01*
G02Y5569I175J219D01*
G03Y5631I-25J31D01*
G02X44618Y6097I175J219D01*
G03X44621Y6165I-19J35D01*
G02Y6535I129J185D01*
G03X44618Y6603I-23J33D01*
G02Y7097I132J247D01*
G03X44621Y7165I-19J35D01*
G02Y7535I129J185D01*
G03X44618Y7603I-23J33D01*
G02X44575Y8069I132J247D01*
G03Y8131I-25J31D01*
G02X44618Y8597I175J219D01*
G03X44621Y8665I-19J35D01*
G02Y9035I129J185D01*
G03X44618Y9103I-23J33D01*
G02X44476Y9411I132J247D01*
G03X44438Y9460I-39J9D01*
G01X42463D01*
G02X42237Y9740I-113J140D01*
G03X42235Y9804I-25J31D01*
G02X42453Y9810I105J146D01*
G03X42455Y9746I25J-31D01*
G02X42463Y9740I-104J-147D01*
G01X44494D01*
G03X44533Y9791I0J40D01*
G02X44621Y10035I217J59D01*
G03X44618Y10103I-23J33D01*
G02X44478Y10416I132J247D01*
G03X44439Y10465I-39J9D01*
G01X44037D01*
X44034Y10463D01*
G02X44104Y10745I-68J167D01*
G01X44436D01*
G03X44476Y10793I0J40D01*
G02X44618Y11097I274J57D01*
G03X44621Y11165I-19J35D01*
G02Y11535I129J185D01*
G03X44618Y11603I-23J33D01*
G02Y12097I132J247D01*
G03X44621Y12165I-19J35D01*
G02X44533Y12409I129J185D01*
G03X44494Y12460I-39J11D01*
G01X44277D01*
X44137Y12320D01*
X43925D01*
X43785Y12180D01*
X42932D01*
G02Y12470I-107J145D01*
G01X43665D01*
X43821Y12626D01*
X43820Y12636D01*
G02X44159Y12735I180J14D01*
G02X44247Y12741I53J-135D01*
G01X44250Y12740D01*
X44438D01*
G03X44476Y12789I0J40D01*
G02X44575Y13069I273J61D01*
G03Y13131I-25J31D01*
G02X44477Y13414I175J219D01*
G03X44446Y13463I-39J9D01*
G02X44372Y13502I29J142D01*
G01X44135Y13740D01*
X44120D01*
G03X44080Y13700I0J-40D01*
G02X43720Y13686I-180J0D01*
G01X43719Y13705D01*
X42040D01*
X41935Y13810D01*
X41839D01*
G03X41800Y13767I0J-40D01*
G02X41401I-199J-17D01*
G03X41361Y13810I-40J3D01*
G01X41315D01*
X41210Y13705D01*
X38560D01*
X38358Y13502D01*
G02X38220Y13464I-103J103D01*
G01X38217Y13465D01*
X38061D01*
G03X38022Y13416I0J-40D01*
G02X37882Y13103I-272J-65D01*
G03X37878Y13035I19J-35D01*
G02Y12665I-129J-185D01*
G03X37882Y12597I23J-33D01*
G02X37925Y12131I-132J-247D01*
G03Y12069I25J-31D01*
G02X37882Y11603I-175J-219D01*
G03X37878Y11535I19J-35D01*
G02Y11165I-129J-185D01*
G03X37882Y11097I23J-33D01*
G02Y10603I-132J-247D01*
G03X37878Y10535I19J-35D01*
G02X37565Y10221I-129J-185D01*
G03X37497Y10218I-33J-23D01*
G02X37425Y10131I-247J132D01*
G03Y10069I25J-31D01*
G02X37497Y9982I-175J-219D01*
G03X37565Y9978I35J19D01*
G02Y9722I185J-129D01*
G03X37497Y9718I-33J-23D01*
G02X37425Y9631I-247J132D01*
G03Y9569I25J-31D01*
G02X37497Y9482I-175J-219D01*
G03X37565Y9478I35J19D01*
G02Y9222I185J-129D01*
G03X37497Y9218I-33J-23D01*
G02X37425Y9131I-247J132D01*
G03Y9069I25J-31D01*
G02X37497Y8982I-175J-219D01*
G03X37565Y8978I35J19D01*
G02Y8722I185J-129D01*
G03X37497Y8718I-33J-23D01*
G02X37425Y8631I-247J132D01*
G03Y8569I25J-31D01*
G02X37497Y8482I-175J-219D01*
G03X37565Y8478I35J19D01*
G02Y8222I185J-129D01*
G03X37497Y8218I-33J-23D01*
G02X37425Y8131I-247J132D01*
G03Y8069I25J-31D01*
G02X37497Y7982I-175J-219D01*
G03X37565Y7979I35J19D01*
G02Y7722I185J-129D01*
G03X37497Y7718I-33J-23D01*
G02X37425Y7631I-247J132D01*
G03Y7569I25J-31D01*
G02X37497Y7482I-175J-219D01*
G03X37565Y7478I35J19D01*
G02Y7222I185J-129D01*
G03X37497Y7218I-33J-23D01*
G02X37425Y7131I-247J132D01*
G03Y7069I25J-31D01*
G02X37497Y6982I-175J-219D01*
G03X37565Y6979I35J19D01*
G02Y6722I185J-129D01*
G03X37497Y6718I-33J-23D01*
G02X37382Y6603I-247J132D01*
G03X37378Y6535I19J-35D01*
G02Y6165I-128J-185D01*
G03X37382Y6097I23J-33D01*
G02X37469Y6025I-132J-247D01*
G03X37531I31J25D01*
G02X37618Y6097I219J-175D01*
G03X37622Y6165I-19J35D01*
G02X37878I128J185D01*
G03X37882Y6097I23J-33D01*
G02Y5603I-132J-247D01*
G03X37878Y5535I19J-35D01*
G02Y5165I-129J-185D01*
G03X37882Y5097I23J-33D01*
G02Y4603I-132J-247D01*
G03X37878Y4535I19J-35D01*
G02X37622I-129J-185D01*
G03X37618Y4603I-23J33D01*
G02X37531Y4675I132J247D01*
G03X37469I-31J-25D01*
G02X37382Y4603I-219J175D01*
G03X37378Y4535I19J-35D01*
G02X37122I-128J-185D01*
G03X37118Y4603I-23J33D01*
G02Y5097I132J247D01*
G03X37122Y5165I-19J35D01*
G02Y5535I128J185D01*
G03X37118Y5603I-23J33D01*
G02Y6097I132J247D01*
G03X37122Y6165I-19J35D01*
G02Y6535I128J185D01*
G03X37118Y6603I-23J33D01*
G02X37075Y7069I132J247D01*
G03Y7131I-25J31D01*
G02Y7569I175J219D01*
G03Y7631I-25J31D01*
G02Y8069I175J219D01*
G03Y8131I-25J31D01*
G02Y8569I175J219D01*
G03Y8631I-25J31D01*
G02Y9069I175J219D01*
G03Y9131I-25J31D01*
G02Y9569I175J219D01*
G03Y9631I-25J31D01*
G02Y10069I175J219D01*
G03Y10131I-25J31D01*
G02Y10569I175J219D01*
G03Y10631I-25J31D01*
G02X37118Y11097I175J219D01*
G03X37122Y11165I-19J35D01*
G02Y11535I128J185D01*
G03X37118Y11603I-23J33D01*
G02X37075Y12069I132J247D01*
G03Y12131I-25J31D01*
G02X37118Y12597I175J219D01*
G03X37122Y12665I-19J35D01*
G02Y13035I128J185D01*
G03X37118Y13103I-23J33D01*
G02X36978Y13416I132J247D01*
G03X36939Y13465I-39J9D01*
G01X36933D01*
X36930Y13464D01*
G02X36792Y13502I-35J141D01*
G01X36505Y13790D01*
X36189D01*
G03X36149Y13750I0J-40D01*
G02X35831Y13634I-180J0D01*
G03X35770I-31J-26D01*
G02X35451Y13750I-138J116D01*
G03X35411Y13790I-40J0D01*
G01X35264D01*
G03X35226Y13741I0J-40D01*
G02X35083Y13523I-176J-41D01*
G01X35077Y13522D01*
X35060Y13505D01*
X34074D01*
X33969Y13400D01*
X33957D01*
G03X33940Y13369I0J-20D01*
G02X33594Y13343I-166J-112D01*
G03X33558Y13400I-36J17D01*
G01X33267D01*
G03X33231Y13343I0J-40D01*
G02X32869I-181J-86D01*
G03X32833Y13400I-36J17D01*
G01X32064D01*
G03X32028Y13342I0J-40D01*
G02X31672I-178J-92D01*
G03X31636Y13400I-36J18D01*
G01X31414D01*
G03X31378Y13342I0J-40D01*
G02X31004Y13211I-178J-92D01*
G03X30936Y13231I-39J-8D01*
G01X30708Y13002D01*
G02X30689Y12986I-103J102D01*
G01X30700Y12950D01*
X32947D01*
X32957Y12940D01*
X34637D01*
G02X34765Y12620I113J-140D01*
G03X34728Y12575I3J-40D01*
G02X34608Y12379I-178J-25D01*
G03X34592Y12313I13J-38D01*
G01X34626Y12279D01*
X34636Y12280D01*
G02X34548Y11951I14J-180D01*
G01X34543Y11955D01*
X34540D01*
X33970Y12525D01*
X33137D01*
G03X33114Y12452I0J-40D01*
G02X31886I-614J-852D01*
G03X31863Y12525I-23J32D01*
G01X31073D01*
X30513Y11965D01*
X30504D01*
G03X30466Y11914I0J-40D01*
G02X30378Y11665I-216J-64D01*
G03X30382Y11597I23J-33D01*
G02X30408Y11582I-132J-247D01*
G03X30470Y11612I23J33D01*
G02X30795Y11493I180J-12D01*
G01Y11250D01*
G02X30724Y11125I-145J0D01*
G01X30722Y11124D01*
X30563Y10965D01*
X30561D01*
G03X30522Y10916I0J-40D01*
G02X30524Y10793I-272J-66D01*
G03X30564Y10745I39J-8D01*
G01X30630D01*
X30730Y10845D01*
X31293D01*
G02Y10555I107J-145D01*
G01X30850D01*
X30798Y10502D01*
G02X30660Y10464I-103J103D01*
G01X30657Y10465D01*
X30561D01*
G03X30522Y10416I0J-40D01*
G02X30524Y10293I-272J-66D01*
G03X30564Y10245I39J-8D01*
G01X31625D01*
X31630Y10259D01*
G02X31915Y10061I170J-59D01*
G03X31940Y9990I25J-31D01*
G01X35087D01*
G02Y9710I113J-140D01*
G01X31619D01*
G03X31580Y9666I0J-40D01*
G02X31221I-179J-16D01*
G03X31181Y9710I-40J4D01*
G01X31031D01*
X31030Y9691D01*
G02X30690Y9618I-180J9D01*
G03X30626Y9628I-36J-18D01*
G01X30491Y9493D01*
X30498Y9480D01*
G02X30524Y9289I-248J-130D01*
G03X30562Y9240I39J-9D01*
G01X31837D01*
G02Y8960I113J-140D01*
G01X31722D01*
G03X31683Y8909I0J-40D01*
G02X31678Y8795I-173J-49D01*
G03X31715Y8740I37J-15D01*
G01X31908D01*
X32069Y8579D01*
X32076Y8578D01*
G02X32204Y8306I-26J-178D01*
G03X32238Y8245I34J-21D01*
G01X32867D01*
G03X32892Y8316I0J40D01*
G02X33148I128J154D01*
G03X33173Y8245I26J-31D01*
G01X34443D01*
G02X34665Y7961I107J-145D01*
G01X34664Y7961D01*
X34649Y7946D01*
X34677Y7918D01*
X34683Y7917D01*
G02X34764Y7601I-33J-177D01*
G03Y7539I25J-31D01*
G02X34777Y7272I-115J-139D01*
G03X34786Y7208I28J-28D01*
G02X34539Y6970I-86J-158D01*
G01X34150D01*
G03X34110Y6930I0J-40D01*
G02X33750I-180J0D01*
G03X33710Y6970I-40J0D01*
G01X33473D01*
X33433Y6930D01*
X33167D01*
X33137Y6960D01*
X30506D01*
G03X30467Y6909I0J-40D01*
G02X30378Y6665I-217J-59D01*
G03X30382Y6597I23J-33D01*
G02X30524Y6293I-132J-247D01*
G03X30564Y6245I39J-8D01*
G01X30600D01*
X30650Y6295D01*
X30898D01*
G03X30937Y6342I0J40D01*
G02X31293I178J29D01*
G03X31332Y6295I39J-6D01*
G01X32060D01*
X32327Y6028D01*
X32333Y6027D01*
G02X32454Y5756I-33J-177D01*
G03X32488Y5695I34J-21D01*
G01X32940D01*
X33290Y6045D01*
X33643D01*
G02Y5755I107J-145D01*
G01X33410D01*
X33060Y5405D01*
X32420D01*
G03X32380Y5366I0J-40D01*
G02X32214Y5193I-180J6D01*
G03X32181Y5136I3J-40D01*
G02X32111Y4883I-181J-86D01*
G03Y4817I22J-33D01*
G02X31889I-111J-167D01*
G03Y4883I-22J33D01*
G02X31997Y5250I111J167D01*
G03X32033Y5305I-1J40D01*
G02X32020Y5366I167J68D01*
G03X31980Y5405I-40J-1D01*
G01X30810D01*
X30760Y5455D01*
X30730D01*
G03X30702Y5387I0J-40D01*
G01X30800Y5288D01*
Y4632D01*
X30633Y4465D01*
X30561D01*
G03X30522Y4416I0J-40D01*
G02X30386Y4105I-272J-66D01*
G03X30406Y4030I19J-35D01*
G01X32812D01*
G03X32845Y4092I0J40D01*
G02X33182I168J108D01*
G03X33216Y4030I34J-22D01*
G01X35244D01*
G03X35268Y4102I0J40D01*
G02X35505I119J161D01*
G03X35529Y4030I24J-32D01*
G01X36664D01*
X36716Y3978D01*
G03X36773I28J28D01*
G02X37027I127J-127D01*
G03X37084I28J28D01*
G01X37136Y4030D01*
X37818D01*
X39258Y2590D01*
X42571D01*
X42574Y2606D01*
G02X42871Y2435I176J-38D01*
G03Y2375I27J-30D01*
G02X42676Y2078I-121J-133D01*
G03X42622Y2053I-16J-37D01*
G02X42571Y1975I-172J54D01*
G03Y1915I27J-30D01*
G02X42596Y1677I-121J-133D01*
G03X42612Y1645I16J-12D01*
G01X42640D01*
X43090Y2095D01*
X46190D01*
X46340Y2245D01*
X48930D01*
X49290Y2605D01*
X50070D01*
X50545Y3080D01*
Y3133D01*
X50515D01*
X50509Y3126D01*
G02X50480Y3382I-139J114D01*
G03X50545Y3414I24J32D01*
G01Y3516D01*
G03X50480Y3548I-40J0D01*
G02Y3833I-110J142D01*
G03X50545Y3864I24J32D01*
G01Y4610D01*
X50343Y4812D01*
X50337Y4813D01*
G02X50547Y5023I33J177D01*
G01X50548Y5017D01*
X50835Y4730D01*
Y2960D01*
X50190Y2315D01*
X49410D01*
X49050Y1955D01*
X46460D01*
X46425Y1919D01*
G03X46448Y1851I28J-28D01*
G02X46081Y1735I-59J-451D01*
G03X46054Y1805I-27J29D01*
G01X45346D01*
G03X45319Y1735I0J-40D01*
G02X44703I-308J-335D01*
G03X44676Y1805I-27J29D01*
G01X43968D01*
G03X43941Y1735I0J-40D01*
G02X44082Y1326I-308J-335D01*
G03X44141Y1284I39J-7D01*
G02X44258Y948I85J-159D01*
G01X44252Y947D01*
X44060Y755D01*
X37460D01*
X37010Y305D01*
X7007D01*
G02X6722Y476I-107J145D01*
G03X6676Y522I-40J6D01*
G02X6757Y845I-26J178D01*
G01X6932D01*
G03X6971Y891I0J40D01*
G02X7257Y1060I179J24D01*
G01X9130D01*
G03X9170Y1100I0J40D01*
G02X9235Y1239I180J0D01*
G03X9210Y1310I-25J31D01*
G01X6413D01*
G02Y1590I-113J140D01*
G01X13487D01*
X13517Y1620D01*
X18505D01*
G03X18537Y1683I0J40D01*
G02X18507Y1854I163J117D01*
G03X18469Y1905I-38J11D01*
G01X12720D01*
G03X12680Y1862I0J-40D01*
G02X12320I-180J-12D01*
G03X12280Y1905I-40J3D01*
G01X11810D01*
X11610Y1705D01*
X6074D01*
G02X5885Y2010I-107J145D01*
G03X5882Y2083I-18J36D01*
G02X6057Y2395I68J167D01*
G01X6653D01*
G03X6681Y2463I0J40D01*
G01X6573Y2572D01*
X6567Y2573D01*
G02X6777Y2783I33J177D01*
G01X6778Y2777D01*
X6960Y2595D01*
X7062D01*
G03X7096Y2656I0J40D01*
G02X7357Y2895I154J94D01*
G01X10010D01*
G03X10038Y2963I0J40D01*
G01X9882Y3120D01*
X3836D01*
G03X3802Y3058I0J-40D01*
G02X3298I-252J-163D01*
G03X3264Y3120I-34J22D01*
G01X3245D01*
X3085Y2960D01*
X1442D01*
X970Y3432D01*
Y10045D01*
X1710Y10785D01*
X2006D01*
G03X2046Y10828I0J40D01*
G02X2516Y10986I254J21D01*
G03X2584I34J21D01*
G02X2936Y10634I216J-136D01*
G03Y10566I21J-34D01*
G02X3053Y10314I-136J-216D01*
G01X3051Y10304D01*
X3100Y10255D01*
X4066D01*
G03X4105Y10304I0J40D01*
G02X4109Y10408I195J46D01*
G03X4070Y10460I-38J12D01*
G01X4058D01*
X4016Y10418D01*
X3990D01*
X3985Y10414D01*
G02X3921Y10732I-108J144D01*
G01X3932Y10730D01*
X3942Y10740D01*
X4013D01*
G03X4052Y10790I0J40D01*
G02X4164Y11066I248J60D01*
G03Y11134I-21J34D01*
G02X4451Y11556I136J216D01*
G01X4465Y11546D01*
X4604Y11685D01*
X4594Y11699D01*
G02X4556Y11923I206J151D01*
G03X4517Y11975I-38J11D01*
G01X4494D01*
G03X4476Y11945I0J-20D01*
G02X4113Y11921I-176J-95D01*
G03X4075Y11975I-37J14D01*
G01X3083D01*
G03X3044Y11923I0J-40D01*
G02X2556I-244J-73D01*
G03X2517Y11975I-38J11D01*
G01X2494D01*
G03X2476Y11945I0J-20D01*
G02X2357Y12042I-176J-95D01*
G01X2368Y12039D01*
X2391Y12061D01*
X2352Y12100D01*
X2342Y12098D01*
G02X2164Y12566I-42J252D01*
G03Y12634I-21J34D01*
G02X2090Y12705I136J216D01*
G01X1540D01*
X1405Y12840D01*
Y14940D01*
X1710Y15245D01*
X2069D01*
G03X2107Y15296I0J40D01*
G02X2493I193J54D01*
G03X2531Y15245I38J-11D01*
G01X2558D01*
Y15268D01*
X2557Y15271D01*
G02X3049Y15294I243J79D01*
G03X3088Y15245I39J-9D01*
G01X4012D01*
G03X4051Y15294I0J40D01*
G02X4164Y15566I249J56D01*
G03Y15634I-21J34D01*
G02X4516Y15986I136J216D01*
G03X4584I34J21D01*
G02X4664Y16066I216J-136D01*
G03Y16134I-21J34D01*
G02X4551Y16406I136J216D01*
G03X4512Y16455I-39J9D01*
G01X4483D01*
Y16431D01*
X4485Y16427D01*
G02X4107Y16404I-185J-77D01*
G03X4069Y16455I-38J11D01*
G01X3088D01*
G03X3049Y16406I0J-40D01*
G02X2584Y16214I-249J-56D01*
G03X2516I-34J-21D01*
G02X2051Y16406I-216J136D01*
G03X2012Y16455I-39J9D01*
G01X1657D01*
G02Y16745I-107J145D01*
G01X2012D01*
G03X2051Y16794I0J40D01*
G02X2516Y16986I249J56D01*
G03X2584I34J21D01*
G02X3049Y16794I216J-136D01*
G03X3088Y16745I39J-9D01*
G01X4012D01*
G03X4051Y16794I0J40D01*
G02X4164Y17066I249J56D01*
G03Y17134I-21J34D01*
G02X4516Y17486I136J216D01*
G03X4584I34J21D01*
G02X4664Y17566I216J-136D01*
G03Y17634I-21J34D01*
G02X5010Y17995I136J216D01*
G01X5090D01*
X5340Y18245D01*
X10560D01*
X10952Y17853D01*
G03X11020Y17885I28J28D01*
G02X11354Y17806I180J15D01*
G03X11388Y17745I34J-21D01*
G01X11490D01*
X11640Y17895D01*
X17598D01*
X17783Y18080D01*
X18057D01*
X18242Y17895D01*
X31140D01*
G03X31178Y17947I0J40D01*
G02X31170Y18012I172J53D01*
G03X31130Y18055I-40J3D01*
G01X29140D01*
X28749Y18446D01*
X26451D01*
X26260Y18255D01*
X25140D01*
X24990Y18405D01*
G03X24922Y18382I-28J-28D01*
G02X24564Y18406I-179J25D01*
G03X24524Y18446I-40J0D01*
G01X23483D01*
X23462Y18425D01*
X12220D01*
X12040Y18605D01*
X12011D01*
Y18580D01*
X12013Y18576D01*
G02X11672Y18476I-163J-76D01*
G03X11604Y18498I-40J-5D01*
G01X11550Y18445D01*
X5034D01*
G03X4995Y18396I0J-40D01*
G02X4605I-195J-46D01*
G03X4566Y18445I-39J9D01*
G01X4545D01*
Y18422D01*
X4546Y18419D01*
G02X4164Y18566I-246J-69D01*
G03Y18634I-21J34D01*
G02X4049Y18897I136J216D01*
G03X4010Y18945I-39J7D01*
G01X3550D01*
X3478Y18873D01*
X3477Y18867D01*
G02X3267Y19077I-177J33D01*
G01X3273Y19078D01*
X3430Y19235D01*
X4072D01*
G03X4110Y19288I0J40D01*
G02X4490I190J62D01*
G03X4528Y19235I38J-12D01*
G01X4562D01*
Y19259D01*
X4560Y19262D01*
G02X4589Y19493I240J88D01*
G01X4598Y19507D01*
X4457Y19648D01*
X4443Y19639D01*
G02X4164Y20066I-143J211D01*
G03Y20134I-21J34D01*
G02X4516Y20486I136J216D01*
G03X4584I34J21D01*
G02X4589Y20493I216J-135D01*
G01X4598Y20507D01*
X4418Y20687D01*
X4404Y20679D01*
G02X4348Y21044I-104J171D01*
G01X4359Y21042D01*
X4381Y21064D01*
X4346Y21099D01*
X4336Y21097D01*
G02X4164Y21566I-36J253D01*
G03Y21634I-21J34D01*
G02X4516Y21986I136J216D01*
G03X4584I34J21D01*
G02X4664Y22066I216J-136D01*
G03Y22134I-21J34D01*
G02X4936I136J216D01*
G03Y22066I21J-34D01*
G02X5010Y21995I-136J-216D01*
G01X7669D01*
G03X7707Y22046I0J40D01*
G02X8100Y22100I193J54D01*
G02X8276Y21995I0J-200D01*
G01X12255D01*
X12259Y22009D01*
G02X12450Y22150I191J-59D01*
G02X12826Y22054I200J0D01*
G03X12861Y21995I35J-19D01*
G01X13780D01*
X14440Y22655D01*
X19560D01*
X20115Y22100D01*
X20945D01*
X21240Y22395D01*
X21271D01*
Y22426D01*
X21262Y22432D01*
G02X21516Y22463I109J168D01*
G03X21546Y22395I29J-27D01*
G01X22493D01*
G02X22772Y22304I107J-145D01*
G03X22836Y22285I38J12D01*
G02X22780Y22094I116J-138D01*
G03X22716Y22112I-38J-12D01*
G02X22493Y22105I-116J137D01*
G01X21360D01*
X21084Y21829D01*
X21089Y21817D01*
G02X20700Y21766I-189J-67D01*
G03X20661Y21810I-40J3D01*
G01X19995D01*
X19440Y22365D01*
X19018D01*
G03X18996Y22291I0J-40D01*
G02X18969Y21342I-301J-466D01*
G03X18989Y21267I20J-35D01*
G01X21507D01*
G03X21531Y21339I0J40D01*
G02X21523Y21655I119J161D01*
G03X21527Y21713I-25J31D01*
G02X21783Y21683I146J137D01*
G03X21781Y21651I11J-17D01*
G02X21786Y21647I-130J-152D01*
G03X21814I14J15D01*
G02X22070Y21339I136J-147D01*
G03X22093Y21267I24J-32D01*
G01X22968D01*
X23028Y21207D01*
G02X23130Y21050I-78J-162D01*
G03X23150Y21030I20J1D01*
G02X23314Y20924I0J-180D01*
G03X23370Y20906I36J17D01*
G02X23545Y20909I90J-156D01*
G03X23603Y20937I19J35D01*
G02X24000Y20892I197J-37D01*
G03X24042Y20850I40J-2D01*
G02X23850Y20658I8J-200D01*
G03X23808Y20700I-40J2D01*
G02X23694Y20730I-8J200D01*
G03X23635Y20706I-21J-34D01*
G02X23296Y20676I-175J44D01*
G03X23240Y20694I-36J-17D01*
G02X23136Y20670I-90J156D01*
G01X23126Y20671D01*
X22864Y20408D01*
G03X22892Y20340I28J-28D01*
G01X23481D01*
G03X23521Y20385I0J40D01*
G02X23879I179J21D01*
G03X23919Y20340I40J-5D01*
G01X24335D01*
X24542Y20548D01*
G03X24528Y20613I-28J28D01*
G02X24800Y20788I72J187D01*
G03X24840Y20745I40J-2D01*
G01X26678D01*
X26713Y20780D01*
X26987D01*
X27022Y20745D01*
X32604D01*
G03X32631Y20815I0J40D01*
G02X32870I119J135D01*
G03X32896Y20745I27J-30D01*
G01X33554D01*
G03X33581Y20815I0J40D01*
G02X33820I119J135D01*
G03X33846Y20745I27J-30D01*
G01X41660D01*
X41877Y20528D01*
X41883Y20527D01*
G02X41936Y20192I-33J-177D01*
G03X41927Y20128I19J-35D01*
G01X42160Y19895D01*
X43086D01*
G03X43112Y19965I0J40D01*
G02X43369Y20216I120J135D01*
G03X43430I31J26D01*
G02X43688Y19965I138J-116D01*
G03X43714Y19895I27J-30D01*
G01X43760D01*
X44210Y19445D01*
X45240D01*
X45490Y19695D01*
X45793D01*
G02Y19405I107J-145D01*
G01X45610D01*
X45360Y19155D01*
X44090D01*
X43640Y19605D01*
X43147D01*
G03X43119Y19537I0J-40D01*
G01X43727Y18928D01*
X43733Y18927D01*
G02X43523Y18717I-33J-177D01*
G01X43522Y18723D01*
X42890Y19355D01*
X41847D01*
G03X41819Y19287I0J-40D01*
G01X42027Y19078D01*
X42033Y19077D01*
G02X41877Y18768I-33J-177D01*
G03X41823I-27J-29D01*
G02X41523Y18867I-123J132D01*
G01X41522Y18873D01*
X41315Y19080D01*
X26553D01*
X26378Y19255D01*
X25260D01*
X24866Y18861D01*
X23884D01*
X23590Y19155D01*
X22938D01*
G03X22904Y19094I0J-40D01*
G02X22596I-154J-94D01*
G03X22562Y19155I-34J21D01*
G01X22420D01*
G03X22380Y19112I0J-40D01*
G02X22087Y18960I-180J-12D01*
G03X22022Y18933I-25J-31D01*
G02X21669Y18906I-179J20D01*
G03X21616Y18932I-39J-10D01*
G02X21443Y18955I-66J168D01*
G01X20520D01*
G03X20480Y18912I0J-40D01*
G02X20436Y18782I-180J-12D01*
G03X20466Y18715I30J-26D01*
G01X23090D01*
G03X23124Y18777I0J40D01*
G02X23436Y18794I151J98D01*
G03X23472Y18736I36J-18D01*
G01X25069D01*
X25260Y18545D01*
X25640D01*
G03X25678Y18597I0J40D01*
G02X26022I172J53D01*
G03X26060Y18545I38J-12D01*
G01X26140D01*
X26331Y18736D01*
X27242D01*
G03X27280Y18790I0J40D01*
G02X27620I170J60D01*
G03X27658Y18736I38J-13D01*
G01X28869D01*
X29260Y18345D01*
X29924D01*
G03X29961Y18402I0J40D01*
G02X30290I164J73D01*
G03X30326Y18345I37J-16D01*
G01X31788D01*
X31793Y18359D01*
G02X32101Y18416I170J-59D01*
G03X32162I31J26D01*
G02X32480Y18300I138J-116D01*
G03X32520Y18260I40J0D01*
G01X32655D01*
X32790Y18395D01*
X34060D01*
X34245Y18210D01*
Y18107D01*
G02X34085Y17820I-145J-107D01*
G03X34053Y17752I-3J-40D01*
G01X34105Y17700D01*
X34905D01*
X34927Y17678D01*
X34933Y17677D01*
G02X34744Y17410I-33J-177D01*
G01X34697D01*
Y17388D01*
X34697Y17386D01*
G02X34637Y17204I-197J-36D01*
G03X34636Y17147I27J-29D01*
G02X34356Y17153I-143J-140D01*
G03X34357Y17210I-27J29D01*
G02X34300Y17366I143J140D01*
G03X34261Y17410I-40J3D01*
G01X33985D01*
X33790Y17605D01*
X33520D01*
G03X33480Y17562I0J-40D01*
G02X33120I-180J-12D01*
G03X33080Y17605I-40J3D01*
G01X31396D01*
G03X31369Y17535I0J-40D01*
G02X31430Y17402I-120J-135D01*
G03X31492Y17368I40J0D01*
G02X31658Y17008I108J-168D01*
G03X31641Y16942I12J-38D01*
G02X31539Y16604I-141J-142D01*
G03X31519Y16536I8J-39D01*
G01X31525Y16530D01*
X36100D01*
G02Y16170I0J-180D01*
G01X35768D01*
G03X35728Y16124I0J-40D01*
G02X35550Y15920I-178J-24D01*
G01X33941D01*
G03X33913Y15851I0J-40D01*
G02X33636I-138J-145D01*
G03X33609Y15920I-28J29D01*
G01X33459D01*
G03X33433Y15850I0J-40D01*
G02X33301Y15500I-133J-150D01*
G03X33266Y15443I0J-40D01*
G02X33210Y15220I-163J-78D01*
G03X33204Y15193I12J-16D01*
G02X33192Y14990I-154J-93D01*
G03X33224Y14925I32J-24D01*
G01X33680D01*
X33960Y14645D01*
X33974Y14656D01*
G02X34258Y14623I125J-156D01*
G02X34224Y14342I124J-157D01*
G02X33951Y14366I-124J157D01*
G03X33922Y14368I-15J-13D01*
G02X33628Y14552I-122J132D01*
G01X33631Y14564D01*
X33560Y14635D01*
X32540D01*
X31903Y13997D01*
G02X31764Y13959I-103J103D01*
G01X31762Y13960D01*
X30506D01*
G03X30467Y13909I0J-40D01*
G02X30468Y13795I-217J-59D01*
G03X30507Y13745I39J-10D01*
G01X30600D01*
X30665Y13810D01*
X32836D01*
G03X32874Y13859I0J40D01*
G02X33226I176J41D01*
G03X33264Y13810I39J-9D01*
G01X33655D01*
X33925Y14080D01*
X36625D01*
X36902Y13803D01*
G03X36970Y13834I28J28D01*
G02X37118Y14097I280J16D01*
G03X37122Y14165I-19J35D01*
G02Y14535I128J185D01*
G03X37118Y14603I-23J33D01*
G02X37001Y14721I132J247D01*
G03X36948Y14738I-36J-18D01*
G02X36731Y14784I-80J162D01*
G03X36670I-31J-26D01*
G02Y15016I-138J116D01*
G03X36731I31J26D01*
G02X36987Y15036I138J-116D01*
G03X37043Y15039I26J30D01*
G02X37075Y15069I207J-188D01*
G03Y15131I-25J31D01*
G02X37118Y15597I175J219D01*
G03X37122Y15665I-19J35D01*
G02Y16035I128J185D01*
G03X37118Y16103I-23J33D01*
G02X37469Y16525I132J247D01*
G03X37531I31J25D01*
G02X37882Y16103I219J-175D01*
G03X37878Y16035I19J-35D01*
G02Y15665I-129J-185D01*
G03X37882Y15597I23J-33D01*
G02X37925Y15131I-132J-247D01*
G03Y15069I25J-31D01*
G02X37947Y15049I-175J-219D01*
G03X38013Y15063I28J28D01*
G02X38320Y15116I169J-63D01*
G03X38381I31J26D01*
G02Y14884I138J-116D01*
G03X38320I-31J-26D01*
G02X38088Y14846I-138J116D01*
G03X38028Y14816I-21J-34D01*
G02X37882Y14603I-278J34D01*
G03X37878Y14535I19J-35D01*
G02Y14165I-129J-185D01*
G03X37882Y14097I23J-33D01*
G02X38024Y13793I-132J-247D01*
G03X38064Y13745I39J-8D01*
G01X38190D01*
X38440Y13995D01*
X41090D01*
X41195Y14100D01*
X42055D01*
X42160Y13995D01*
X43367D01*
G03X43407Y14038I0J40D01*
G02X43767Y14050I180J12D01*
G37*
G54D28*
X2300Y11350D03*
Y15850D03*
Y17350D03*
Y17850D03*
Y19350D03*
Y19850D03*
Y21350D03*
X2800Y11350D03*
Y15850D03*
X4300Y17850D03*
X2800Y17350D03*
X4300Y22350D03*
X2800Y21850D03*
X4800Y22850D03*
X13800Y23250D03*
X16250D03*
X21400Y23800D03*
X20900Y23550D03*
X23672Y22072D03*
X30928Y24561D03*
X30900Y25350D03*
X30833Y27450D03*
X34000Y4650D03*
X34500D03*
X33300Y24600D03*
X34300Y27450D03*
X35386Y5100D03*
X35380Y8430D03*
X36617Y27400D03*
X38878Y24561D03*
X38783Y27450D03*
X40700Y3600D03*
X39840Y6650D03*
X39440Y5950D03*
X40036Y8936D03*
X39564Y10350D03*
X40890Y11680D03*
X40740Y13350D03*
X41450Y3900D03*
X41440Y6650D03*
Y6150D03*
Y5600D03*
X42950Y6500D03*
X42890Y7630D03*
X41600Y10600D03*
X42450Y13400D03*
X42875Y15925D03*
X42750Y14350D03*
X41250Y24600D03*
X43710Y9000D03*
X43800Y17350D03*
X47010Y6520D03*
X47610Y7990D03*
X46550Y17900D03*
X46778Y24561D03*
X47650Y23400D03*
X46683Y27450D03*
X49700Y6300D03*
X48170Y7640D03*
X49150Y24600D03*
X48200Y23400D03*
X49150Y25050D03*
X49194Y26400D03*
X50170Y7640D03*
X50820Y7740D03*
X50050Y22550D03*
Y23050D03*
G54D29*
X2300Y21850D03*
X4300Y22850D03*
G54D33*
X12450Y22950D03*
G54D32*
X9250Y25950D03*
X10250D03*
X11250D03*
G54D30*
X1050Y22250D03*
X3400Y11450D03*
X3480Y22980D03*
X23890Y23100D03*
X22410D03*
X22850Y23650D03*
X23450D03*
X22355Y26145D03*
X23600Y25950D03*
X24050Y23900D03*
X27800Y22450D03*
X27300D03*
X26850D03*
X26350D03*
X27800Y23550D03*
X27600Y24657D03*
X27586Y25764D03*
X27550Y25300D03*
X28500Y21100D03*
X29450D03*
X29200Y22450D03*
X28250D03*
X30150D03*
X28750D03*
X29700D03*
X28650Y24550D03*
Y24955D03*
X28600Y25545D03*
X29750Y25100D03*
X31510Y6700D03*
X30400Y21100D03*
X31350D03*
X32300D03*
X30650Y22450D03*
X31600D03*
X32050D03*
X31100D03*
X32000Y24500D03*
X33000Y5050D03*
X32550Y6450D03*
X33460Y6420D03*
X33750Y8700D03*
X33230Y9270D03*
X34520Y8650D03*
X34500Y11150D03*
X33250Y21100D03*
X34550D03*
X33000Y22450D03*
X33500D03*
X34300D03*
X32550D03*
X34250Y24650D03*
X36600Y7350D03*
X35791Y6830D03*
X35790Y5630D03*
X34855Y6655D03*
X35870Y7300D03*
X36250Y8300D03*
X36450Y21100D03*
X35500D03*
X36200Y22450D03*
X35750D03*
X36700D03*
X35250D03*
X34800D03*
X36600Y24550D03*
X35550Y24657D03*
X36600Y24955D03*
X37400Y21100D03*
X38350D03*
X37150Y22450D03*
X38100D03*
X38600D03*
X37650D03*
X37600Y27450D03*
X39600Y3050D03*
X39250Y3350D03*
X39050Y5400D03*
X40360Y11710D03*
X40540Y10130D03*
X40904Y10466D03*
X40345Y14808D03*
X39900Y15750D03*
X40000Y17600D03*
X39750Y18500D03*
X39300Y21100D03*
X40250D03*
X40950Y22450D03*
X39550D03*
X40000D03*
X39050D03*
X40500D03*
X39950Y24600D03*
X41440Y4800D03*
X42753Y11647D03*
X42725Y17725D03*
X42450Y21100D03*
X41200D03*
X42700Y22450D03*
X42200D03*
X43150D03*
X41450D03*
X42150Y24650D03*
Y25150D03*
X41250Y25050D03*
X43636Y15300D03*
X44000Y14400D03*
X45300Y21100D03*
X44350D03*
X43400D03*
X43650Y22450D03*
X44100D03*
X45050D03*
X44600D03*
X44500Y24550D03*
X43450Y24657D03*
X46750Y11850D03*
X46900Y18800D03*
X47200Y21100D03*
X46250D03*
X47450Y22450D03*
X46950D03*
X46000D03*
X46500D03*
X45550D03*
X45500Y27450D03*
X47970Y3690D03*
Y3240D03*
Y4990D03*
X48626Y8284D03*
X49714D03*
X47700Y19150D03*
X49100Y21100D03*
X48150D03*
X47900Y22450D03*
X49350D03*
X48400D03*
X48850D03*
X47850Y24600D03*
X50440Y5760D03*
G54D38*
X47767Y1400D03*
X50800Y9500D03*
G54D36*
X34980Y27350D03*
X42300Y10550D03*
G54D37*
X40700Y8800D03*
G54D34*
X17045Y23475D03*
X18695D03*
G54D31*
X4340Y1200D03*
X25836Y24448D03*
X50150Y11600D03*
G54D35*
X17870Y26345D03*
%LPD*%
G75*
G36*
G01X1570Y4705D02*
G02X1515Y4668I-40J0D01*
G03X1393Y4671I-65J-168D01*
G02X1340Y4709I-13J38D01*
G01Y9892D01*
X1863Y10415D01*
X2006D01*
G02X2046Y10372I0J-40D01*
G03X2516Y10214I254J-21D01*
G02X2584I34J-21D01*
G03X2836Y10097I216J136D01*
G01X2846Y10099D01*
X2881Y10064D01*
X2859Y10042D01*
X2848Y10044D01*
G03X2990Y9912I-48J-194D01*
G02X3028Y9965I38J12D01*
G01X4014D01*
G02X4053Y9915I0J-40D01*
G03X4105Y9686I247J-65D01*
G01X3910Y9490D01*
X3013D01*
G03X2664Y9134I-213J-140D01*
G02Y9066I-21J-34D01*
G03X2584Y8986I136J-216D01*
G02X2516I-34J21D01*
G03X2046Y8828I-216J-136D01*
G02X2006Y8785I-40J-3D01*
G01X1855D01*
X1570Y8500D01*
Y4705D01*
G37*
G36*
G01X10816Y3510D02*
X10636Y3690D01*
X5070D01*
G02X5033Y3746I0J40D01*
G03X4936Y4066I-233J104D01*
G02Y4134I21J34D01*
G03X4584Y4486I-136J216D01*
G02X4516I-34J21D01*
G03X4436Y4566I-216J-136D01*
G02Y4634I21J34D01*
G03X4164I-136J216D01*
G02Y4566I-21J-34D01*
G03X4516Y4214I136J-216D01*
G02X4584I34J-21D01*
G03X4664Y4134I216J136D01*
G02Y4066I-21J-34D01*
G03X4567Y3746I136J-216D01*
G02X4530Y3690I-37J-16D01*
G01X4508D01*
G02X4474Y3750I0J40D01*
G03X4126I-174J100D01*
G02X4092Y3690I-35J-20D01*
G01X3070D01*
G02X3033Y3746I0J40D01*
G03X2651Y3643I-233J104D01*
G02X2656Y3582I-23J-32D01*
G01X2604Y3530D01*
X1968D01*
X1940Y3558D01*
Y8347D01*
X2008Y8415D01*
X2048D01*
Y8393D01*
X2048Y8392D01*
G03X2436Y8566I252J-42D01*
G02Y8634I21J34D01*
G03X2516Y8714I-136J216D01*
G02X2584I34J-21D01*
G03X3013Y8710I216J136D01*
G01X3910D01*
X4105Y8514D01*
G03X4057Y8271I195J-165D01*
G01X4058Y8268D01*
Y8245D01*
X4007D01*
X4002Y8249D01*
G03X3729Y8043I-102J-149D01*
G02X3691Y7990I-38J-13D01*
G01X3013D01*
G03X2664Y7634I-213J-140D01*
G02Y7566I-21J-34D01*
G03X3013Y7210I136J-216D01*
G01X3910D01*
X4105Y7014D01*
G03X4164Y6634I195J-164D01*
G02Y6566I-21J-34D01*
G03X4436I136J-216D01*
G02Y6634I21J34D01*
G03X4516Y6714I-136J216D01*
G02X4584I34J-21D01*
G03X5010Y6705I216J136D01*
G01X5410D01*
X5465Y6760D01*
X5989D01*
G02X6028Y6712I0J-40D01*
G03X6422I197J-37D01*
G02X6461Y6760I39J7D01*
G01X6516D01*
G02X6550Y6698I0J-40D01*
G03X6564Y6486I152J-97D01*
G02X6552Y6425I-31J-26D01*
G03X6450Y6234I97J-175D01*
G02X6410Y6190I-40J-3D01*
G01X6312D01*
G03Y5900I-107J-145D01*
G01X7067D01*
X7363Y6196D01*
G02X7431Y6175I28J-28D01*
G03X7785Y6242I177J33D01*
G02X7824Y6290I39J8D01*
G01X11680D01*
G02X11720Y6250I0J-40D01*
G03X12080I180J0D01*
G02X12120Y6290I40J0D01*
G01X12580D01*
G02X12620Y6250I0J-40D01*
G03X12927Y6122I180J0D01*
G02X12984I28J-28D01*
G01X13137Y5970D01*
X13887D01*
X14172Y6255D01*
X15004D01*
G02X15030Y6185I0J-40D01*
G03X15270I120J-135D01*
G02X15296Y6255I27J30D01*
G01X16211D01*
G02X16250Y6207I0J-40D01*
G03X16250Y6205I176J-37D01*
G02X16200Y6173I-39J7D01*
G03X16327Y5968I-49J-173D01*
G02X16378Y6000I39J-7D01*
G03X16606Y6148I49J173D01*
G02X16674Y6171I40J-5D01*
G01X16740Y6105D01*
X17710D01*
X17910Y6305D01*
X18380D01*
G02X18420Y6262I0J-40D01*
G03X18780I180J-12D01*
G02X18820Y6305I40J3D01*
G01X19440D01*
X19575Y6170D01*
X22945D01*
X23256Y5858D01*
G02X23228Y5790I-28J-28D01*
G01X22857D01*
X22708Y5642D01*
G03X22992Y5359I142J-141D01*
G01X23023Y5390D01*
X24970D01*
G02X25010Y5348I0J-40D01*
G03X25010Y5340I180J-8D01*
G02X24967Y5300I-40J0D01*
G03X25134Y5022I-17J-200D01*
G02X25200Y5035I37J-15D01*
G01X25260Y4975D01*
X25638D01*
X25853Y4760D01*
X25870D01*
G02X25908Y4708I0J-40D01*
G03X25924Y4554I192J-58D01*
G02X25889Y4495I-35J-19D01*
G01X25811D01*
G02X25776Y4554I0J40D01*
G03X25424I-176J96D01*
G02X25389Y4495I-35J-19D01*
G01X25125D01*
X25045Y4575D01*
X24755D01*
X24675Y4495D01*
X24500D01*
X24408Y4587D01*
X24407Y4593D01*
G03X24197Y4383I-177J-33D01*
G01X24203Y4382D01*
X24380Y4205D01*
X24700D01*
X24703Y4189D01*
G03X24747Y4096I197J36D01*
G02X24716Y4030I-31J-26D01*
G01X24418D01*
X23218Y5230D01*
X18955D01*
X17235Y3510D01*
X16985D01*
G02X16946Y3558I0J40D01*
G03X16604Y3737I-196J42D01*
G02X16546I-29J27D01*
G03X16204Y3558I-146J-137D01*
G02X16165Y3510I-39J-8D01*
G01X10816D01*
G37*
G36*
G01X3090Y12255D02*
G02X3051Y12303I0J40D01*
G03X2584Y12486I-251J47D01*
G02X2516I-34J21D01*
G03X2436Y12566I-216J-136D01*
G02Y12634I21J34D01*
G03X2090Y12995I-136J216D01*
G01X1695D01*
Y14820D01*
X1830Y14955D01*
X2012D01*
G02X2051Y14906I0J-40D01*
G03X2164Y14634I249J-56D01*
G02Y14566I-21J-34D01*
G03X2336Y14097I136J-216D01*
G01X2346Y14099D01*
X2381Y14064D01*
X2359Y14042D01*
X2348Y14044D01*
G03X2481Y13936I-48J-194D01*
G02X2499Y13965I18J9D01*
G01X2514D01*
G02X2553Y13915I0J-40D01*
G03X2664Y13634I247J-65D01*
G02Y13566I-21J-34D01*
G03X2936I136J-216D01*
G02Y13634I21J34D01*
G03X3047Y13915I-136J216D01*
G02X3086Y13965I39J10D01*
G01X4014D01*
G02X4053Y13915I0J-40D01*
G03X4336Y13597I247J-65D01*
G01X4346Y13599D01*
X4381Y13564D01*
X4359Y13542D01*
X4348Y13544D01*
G03X4485Y13427I-48J-194D01*
G01X4483Y13431D01*
Y13455D01*
X4512D01*
G02X4551Y13406I0J-40D01*
G03X4594Y13199I249J-56D01*
G01X4604Y13185D01*
X4465Y13045D01*
X4451Y13056D01*
G03X4164Y12634I-151J-206D01*
G02Y12566I-21J-34D01*
G03X4049Y12303I136J-216D01*
G02X4010Y12255I-39J-7D01*
G01X3090D01*
G37*
G36*
G01X4487Y8755D02*
Y8779D01*
X4488Y8782D01*
G03X4248Y9043I-188J68D01*
G02X4198Y9075I-10J39D01*
G03X4196Y9082I-39J-7D01*
G02X4221Y9107I19J7D01*
G03X4551Y9397I79J243D01*
G02X4590Y9445I39J7D01*
G01X4613D01*
Y9421D01*
X4612Y9418D01*
G03X4970Y9245I188J-68D01*
G02X5032Y9252I34J-21D01*
G01X5116Y9168D01*
G02X5087Y9100I-28J-28D01*
G01X4867D01*
X4864Y9097D01*
X4853Y9100D01*
G03X4549Y8803I-53J-250D01*
G02X4510Y8755I-39J-7D01*
G01X4487D01*
G37*
G36*
G01X11443Y11710D02*
X11333Y11820D01*
X11067D01*
X10972Y11725D01*
X5083D01*
G02X5044Y11777I0J40D01*
G03X4995Y12015I-244J73D01*
G01X5190Y12210D01*
X5665D01*
G02X5699Y12148I0J-40D01*
G03X6001I151J-98D01*
G02X6035Y12210I34J22D01*
G01X12760D01*
G02X12785Y12139I0J-40D01*
G03X12721Y12022I115J-139D01*
G02X12658Y11995I-40J5D01*
G03X12389Y11768I-108J-145D01*
G02X12354Y11710I-36J-18D01*
G01X12046D01*
G02X12011Y11768I0J40D01*
G03X11689I-161J82D01*
G02X11654Y11710I-36J-18D01*
G01X11443D01*
G37*
G36*
G01X15264Y15104D02*
G02X15224Y15144I0J40D01*
G03X15207Y15220I-180J0D01*
G02X15253Y15276I36J17D01*
G03X15137Y15373I47J174D01*
G02X15090Y15318I-36J-17D01*
G03X14916Y15271I-47J-174D01*
G02X14860I-28J28D01*
G01X14556Y15575D01*
X11518D01*
G02X11478Y15621I0J40D01*
G03X11137Y15724I-178J27D01*
G02X11064Y15725I-36J17D01*
G03X10722Y15622I-164J-75D01*
G02X10683Y15575I-39J-6D01*
G01X10530D01*
X10200Y15245D01*
X5031D01*
G02X4993Y15296I0J40D01*
G03X4607I-193J54D01*
G02X4569Y15245I-38J-11D01*
G01X4542D01*
Y15268D01*
X4543Y15271D01*
G03X4436Y15566I-243J79D01*
G02Y15634I21J34D01*
G03X4516Y15714I-136J216D01*
G02X4584I34J-21D01*
G03X4936Y16066I216J136D01*
G02Y16134I21J34D01*
G03X5049Y16406I-136J216D01*
G02X5088Y16455I39J9D01*
G01X5760D01*
X6560Y17255D01*
X8280D01*
G02X8301Y17181I0J-40D01*
G03X8799I249J-381D01*
G02X8820Y17255I22J34D01*
G01X10290D01*
X10410Y17135D01*
X12380D01*
X12485Y17240D01*
X12680D01*
G02X12720Y17200I0J-40D01*
G03X12956Y17029I180J0D01*
G01X12959Y17030D01*
X15130D01*
G02X15161Y16964I0J-40D01*
G03X15257Y16675I139J-115D01*
G02X15284Y16620I-10J-39D01*
G03X15621Y16493I166J-71D01*
G02X15685Y16512I38J-13D01*
G03X15629Y16707I115J138D01*
G02X15565Y16688I-38J13D01*
G03X15493Y16725I-115J-138D01*
G02X15466Y16780I10J39D01*
G03X15439Y16964I-166J71D01*
G02X15470Y17030I31J25D01*
G01X18233D01*
X18493Y16770D01*
X22541D01*
X22617Y16847D01*
G02X22683Y16833I28J-28D01*
G03X22723Y16773I167J67D01*
G01X22995Y16500D01*
X24295D01*
X24498Y16704D01*
X24524D01*
G02X24564Y16660I0J-40D01*
G03X24923I179J-16D01*
G02X24963Y16704I40J4D01*
G01X25818D01*
X26173Y16348D01*
G02X26144Y16280I-28J-28D01*
G01X24125D01*
X23930Y16085D01*
X23801D01*
G02X23768Y16148I0J40D01*
G03X23472I-148J102D01*
G02X23439Y16085I-33J-23D01*
G01X23420D01*
X23175Y16330D01*
X17250D01*
G03X17078Y16097I0J-180D01*
G02X17040Y16045I-38J-12D01*
G01X15510D01*
G02X15472Y16097I0J40D01*
G03X15129Y16208I-172J53D01*
G02X15063Y16192I-38J13D01*
G01X14960Y16295D01*
X12078D01*
G02X12038Y16338I0J40D01*
G03X11995Y16467I-180J12D01*
G02Y16493I15J13D01*
G03X11721I-137J117D01*
G02Y16467I-15J-13D01*
G03X11678Y16338I137J-117D01*
G02X11638Y16295I-40J-3D01*
G01X10640D01*
X10340Y15995D01*
X8357D01*
G03Y15705I-107J-145D01*
G01X8830D01*
G02X8870Y15662I0J-40D01*
G03X9230I180J-12D01*
G02X9270Y15705I40J3D01*
G01X10460D01*
X10760Y16005D01*
X14840D01*
X15090Y15755D01*
X17090D01*
X17376Y15468D01*
G02X17348Y15400I-28J-28D01*
G01X16655D01*
X16359Y15104D01*
X15264D01*
G37*
G36*
G01X5010Y17495D02*
G03X4936Y17566I-210J-145D01*
G02Y17634I21J34D01*
G03X5010Y17705I-136J216D01*
G01X5210D01*
X5460Y17955D01*
X8095D01*
G02X8132Y17900I0J-40D01*
G03X8120Y17835I168J-65D01*
G02X8080Y17795I-40J0D01*
G01X5990D01*
X5690Y17495D01*
X5010D01*
G37*
G36*
G01X9079Y20358D02*
G02X9013Y20342I-38J13D01*
G01X8860Y20495D01*
X8811D01*
G02X8776Y20554I0J40D01*
G03X8424I-176J96D01*
G02X8389Y20495I-35J-19D01*
G01X8211D01*
G02X8176Y20554I0J40D01*
G03X7824I-176J96D01*
G02X7789Y20495I-35J-19D01*
G01X5510D01*
X5369Y20637D01*
G02X5397Y20705I28J28D01*
G01X6643D01*
G03Y20995I107J145D01*
G01X5010D01*
G03X4753Y21101I-210J-145D01*
G02X4705Y21140I-7J39D01*
G01Y21163D01*
X4729D01*
X4732Y21162D01*
G03X4993Y21404I68J188D01*
G02X5031Y21455I38J11D01*
G01X5943D01*
G03X6222Y21653I107J145D01*
G02X6260Y21705I38J12D01*
G01X7800D01*
X7955Y21550D01*
X8245D01*
X8400Y21705D01*
X12200D01*
X12305Y21600D01*
X12521D01*
G02X12551Y21533I0J-40D01*
G03X12515Y21323I149J-133D01*
G02X12478Y21267I-37J-15D01*
G01X11923D01*
X11670Y21520D01*
X10280D01*
X9677Y20917D01*
G02X9612Y20928I-28J28D01*
G03X9270Y20848I-162J-78D01*
G02X9207Y20815I-40J0D01*
G03X9043Y20456I-113J-165D01*
G01X9048Y20455D01*
X9073Y20430D01*
X9083D01*
G02X9099Y20399I0J-20D01*
G03X9079Y20358I151J-99D01*
G37*
G36*
G01X8161Y14710D02*
X8138Y14734D01*
X8152Y14749D01*
X8153Y14750D01*
G03X8218Y14910I-114J140D01*
G02X8258Y14955I40J5D01*
G01X10320D01*
X10650Y15285D01*
X10763D01*
G02X10798Y15226I0J-40D01*
G03X11117I159J-84D01*
G02X11153Y15285I35J19D01*
G01X11734D01*
G02X11764Y15218I0J-40D01*
G03X11862Y14924I136J-118D01*
G02X11881Y14857I-9J-39D01*
G01X11735Y14710D01*
X11272D01*
G02X11232Y14750I0J40D01*
G03X10871I-180J-1D01*
G02X10831Y14710I-40J0D01*
G01X8161D01*
G37*
G36*
G01X8480Y17835D02*
G03X8468Y17900I-180J0D01*
G02X8505Y17955I37J15D01*
G01X9795D01*
G02X9832Y17900I0J-40D01*
G03X9820Y17835I168J-65D01*
G02X9780Y17795I-40J0D01*
G01X8520D01*
G02X8480Y17835I0J40D01*
G37*
G36*
G01X10760Y17545D02*
X10510Y17795D01*
X10220D01*
G02X10180Y17835I0J40D01*
G03X10168Y17900I-180J0D01*
G02X10205Y17955I37J15D01*
G01X10440D01*
X10815Y17579D01*
G02X10801Y17545I-14J-14D01*
G01X10760D01*
G37*
G36*
G01X9430Y22888D02*
G03X9379Y23026I-180J12D01*
G02Y23054I14J14D01*
G03X9416Y23249I-129J126D01*
G02X9453Y23305I37J15D01*
G01X9460D01*
X9610Y23455D01*
X10803D01*
G02X10831Y23387I0J-40D01*
G01X10800Y23355D01*
Y23027D01*
X10618Y22845D01*
X9470D01*
G02X9430Y22888I0J40D01*
G37*
G36*
G01X11354Y9856D02*
G03X11182Y10129I-154J94D01*
G02X11139Y10180I-4J40D01*
G03X11051Y10589I-439J120D01*
G02X11082Y10655I31J25D01*
G01X11640D01*
G02X11678Y10603I0J-40D01*
G03X12022I172J-53D01*
G02X12060Y10655I38J12D01*
G01X13672D01*
G02X13701Y10587I0J-40D01*
G03X13655Y10392I146J-137D01*
G02X13617Y10340I-38J-12D01*
G01X12285D01*
X11740Y9795D01*
X11388D01*
G02X11354Y9856I0J40D01*
G37*
G36*
G01X14715Y13840D02*
X14560Y13995D01*
X12946D01*
G02X12920Y14065I0J40D01*
G03X12973Y14249I-120J135D01*
G02X13012Y14300I38J11D01*
G01X13185D01*
X13477Y14591D01*
X13580D01*
G02X13620Y14552I0J-40D01*
G03X13652Y14449I180J0D01*
G02X13642Y14395I-33J-23D01*
G03X13898Y14352I108J-145D01*
G02X13908Y14407I33J23D01*
G03X13980Y14552I-107J145D01*
G02X14020Y14591I40J0D01*
G01X14433D01*
X14925Y14100D01*
X14938D01*
G02X14977Y14049I0J-40D01*
G03X14999Y13902I173J-49D01*
G02X14965Y13840I-34J-22D01*
G01X14715D01*
G37*
G36*
G01X12865Y20340D02*
X12719Y20486D01*
G02X12747Y20555I28J28D01*
G01X19340D01*
G02X19378Y20503I0J-40D01*
G03X19379Y20393I172J-53D01*
G02X19341Y20340I-38J-13D01*
G01X12865D01*
G37*
G36*
G01X13272Y21267D02*
G02X13235Y21323I0J40D01*
G03X12904Y21537I-185J77D01*
G02X12846I-29J27D01*
G03X12693Y21600I-146J-137D01*
G02X12664Y21668I-1J40D01*
G01X12700Y21705D01*
X13900D01*
X14560Y22365D01*
X16722D01*
G02X16744Y22291I0J-40D01*
G03X16771Y21342I301J-466D01*
G02X16751Y21267I-20J-35D01*
G01X13272D01*
G37*
G36*
G01X15045Y14390D02*
X14894Y14542D01*
G02X14922Y14610I28J28D01*
G01X16561D01*
G02X16600Y14567I0J-40D01*
G03X16627Y14450I200J-17D01*
G02X16592Y14390I-35J-20D01*
G01X15045D01*
G37*
G36*
G01X14310Y19245D02*
X14210Y19345D01*
X13834D01*
G02X13795Y19394I0J40D01*
G03X13735Y19585I-195J44D01*
G02X13762Y19655I27J29D01*
G01X21793D01*
G03X21820Y19639I106J145D01*
G01X21822Y19637D01*
X21946Y19513D01*
G02X21918Y19445I-28J-28D01*
G01X21690D01*
X21523Y19278D01*
X21517Y19277D01*
G03X21443Y19245I33J-177D01*
G01X20895D01*
G02X20863Y19310I0J40D01*
G03X20582I-141J113D01*
G02X20551Y19245I-31J-25D01*
G01X14310D01*
G37*
G36*
G01X17139Y7335D02*
G03X17180Y7450I-139J114D01*
G02X17220Y7490I40J0D01*
G01X17582D01*
G02X17618Y7433I0J-40D01*
G03X17603Y7317I182J-83D01*
G02X17563Y7270I-39J-7D01*
G01X17170D01*
G02X17139Y7335I0J40D01*
G37*
G36*
G01X17388Y9910D02*
X17308Y9990D01*
X17159D01*
G02X17121Y10043I0J40D01*
G03X17122Y10153I-171J57D01*
G02X17160Y10205I38J12D01*
G01X17525D01*
G02X17554Y10137I0J-40D01*
G03X17504Y9958I146J-137D01*
G02X17465Y9910I-39J-8D01*
G01X17388D01*
G37*
G36*
G01X15434Y11710D02*
G02X15395Y11759I0J40D01*
G03X15326Y11959I-195J44D01*
G02X15351Y12030I25J31D01*
G01X16178D01*
X16358Y12210D01*
X17965D01*
G02X18002Y12155I0J-40D01*
G03X18338I168J-65D01*
G02X18375Y12210I37J15D01*
G01X22003D01*
G02X22033Y12144I0J-40D01*
G03X22200Y11780I167J-144D01*
G01X24809D01*
X24844Y11744D01*
G02X24830Y11710I-14J-14D01*
G01X16685D01*
G02X16646Y11758I0J40D01*
G03X16254I-196J42D01*
G02X16215Y11710I-39J-8D01*
G01X15434D01*
G37*
G36*
G01X15301Y13902D02*
G03X15323Y14049I-151J98D01*
G02X15362Y14100I38J11D01*
G01X16586D01*
G02X16622Y14042I0J-40D01*
G03X16608Y13892I178J-92D01*
G02X16570Y13840I-38J-12D01*
G01X15335D01*
G02X15301Y13902I0J40D01*
G37*
G36*
G01X16974Y14450D02*
G03X17000Y14567I-174J100D01*
G02X17039Y14610I40J3D01*
G01X18385D01*
X18536Y14458D01*
G02X18508Y14390I-28J-28D01*
G01X17008D01*
G02X16974Y14450I0J40D01*
G37*
G36*
G01X16992Y13892D02*
G03X16978Y14042I-192J58D01*
G02X17014Y14100I36J18D01*
G01X20068D01*
G02X20107Y14049I0J-40D01*
G03X20129Y13902I173J-49D01*
G02X20095Y13840I-34J-22D01*
G01X17030D01*
G02X16992Y13892I0J40D01*
G37*
G36*
G01X19958Y2940D02*
X19607Y3292D01*
X17636D01*
G02X17608Y3360I0J40D01*
G01X19108Y4860D01*
X23065D01*
X24265Y3660D01*
X33267D01*
G02X33295Y3592I0J-40D01*
G01X33284Y3580D01*
X24405D01*
X23765Y2940D01*
X23640D01*
G02X23615Y3011I0J40D01*
G03X23385I-115J139D01*
G02X23360Y2940I-25J-31D01*
G01X20370D01*
G02X20345Y3011I0J40D01*
G03X20305Y3314I-115J139D01*
G02Y3386I17J36D01*
G03X20155I-75J164D01*
G02Y3314I-17J-36D01*
G03X20115Y3011I75J-164D01*
G02X20090Y2940I-25J-31D01*
G01X19958D01*
G37*
G36*
G01X18338Y7270D02*
X18278Y7330D01*
X18000D01*
Y7350D01*
G03X17982Y7433I-200J0D01*
G02X18018Y7490I36J17D01*
G01X23758D01*
X23859Y7591D01*
X23866Y7592D01*
G03X23804Y7946I-26J178D01*
G01X23793Y7944D01*
X23771Y7966D01*
X23810Y8005D01*
X24510D01*
X24760Y8255D01*
X24970D01*
G02X25010Y8214I0J-40D01*
G03X25058Y8088I180J-4D01*
G02X25059Y8062I-15J-14D01*
G03X25028Y7897I141J-112D01*
G02X24990Y7845I-38J-12D01*
G01X24357D01*
G03Y7555I-107J-145D01*
G01X24983D01*
G02X25020Y7501I0J-40D01*
G03X25013Y7407I170J-61D01*
G02X24973Y7360I-39J-7D01*
G01X24362D01*
X24272Y7270D01*
X24230D01*
Y7291D01*
G03X23870Y7308I-180J9D01*
G02X23830Y7270I-40J2D01*
G01X18338D01*
G37*
G36*
G01X23430Y6095D02*
X23065Y6460D01*
X19695D01*
X19560Y6595D01*
X18310D01*
G02X18296Y6629I0J20D01*
G01X18310Y6644D01*
X24006D01*
G02X24041Y6585I0J-40D01*
G03X24336Y6618I159J-85D01*
G02Y6671I30J26D01*
G03X24375Y6831I-136J118D01*
G02X24414Y6880I39J9D01*
G01X24628D01*
X24718Y6970D01*
X25676D01*
X25807Y6839D01*
G03X25771Y6714I143J-109D01*
G02X25731Y6670I-40J-4D01*
G01X25719D01*
G02X25679Y6714I0J40D01*
G03X25373Y6858I-179J16D01*
G02X25316I-28J28D01*
G01X25298Y6875D01*
X25257D01*
X25252Y6879D01*
G03X25194Y6555I-102J-149D01*
G01X25205Y6558D01*
X25254Y6509D01*
X25231Y6486D01*
X25219Y6490D01*
G03X24988Y6267I-59J-170D01*
G02X24950Y6215I-38J-12D01*
G01X24250D01*
X24213Y6178D01*
X24207Y6177D01*
G03X24142Y6151I33J-177D01*
G02X24080Y6184I-22J34D01*
G03X23724Y6143I-180J-4D01*
G02X23684Y6095I-39J-8D01*
G01X23430D01*
G37*
G36*
G01X17968Y9967D02*
G02X17900Y9996I-28J28D01*
G03X17846Y10137I-200J4D01*
G02X17875Y10205I29J27D01*
G01X25440D01*
X25571Y10074D01*
G02X25543Y10005I-28J-28D01*
G01X18007D01*
X17968Y9967D01*
G37*
G36*
G01X21115Y8390D02*
X20974Y8532D01*
G02X21002Y8600I28J28D01*
G01X21936D01*
G02X21972Y8542I0J-40D01*
G03X21950Y8434I178J-92D01*
G02X21911Y8390I-40J-3D01*
G01X21115D01*
G37*
G36*
G01X20826Y8990D02*
X20767Y9050D01*
X20450D01*
G02X20410Y9092I0J40D01*
G03X20339Y9243I-180J8D01*
G02Y9307I24J32D01*
G03X20410Y9450I-109J143D01*
G02X20450Y9490I40J0D01*
G01X20462D01*
X20742Y9210D01*
X21911D01*
G02X21950Y9166I0J-40D01*
G03X21968Y9067I200J-17D01*
G02X21932Y9010I-36J-17D01*
G01X21918D01*
X21898Y8990D01*
X20826D01*
G37*
G36*
G01X20451Y14443D02*
G03X20460Y14512I-171J57D01*
G02X20500Y14555I40J3D01*
G01X21969D01*
G02X22007Y14504I0J-40D01*
G03X22000Y14434I193J-54D01*
G02X21961Y14390I-40J-3D01*
G01X20489D01*
G02X20451Y14443I0J40D01*
G37*
G36*
G01X22439Y15090D02*
G02X22400Y15134I0J40D01*
G03X22024Y15245I-200J16D01*
G01X20482D01*
X20464Y15228D01*
G02X20407I-28J28D01*
G03X20378Y15251I-127J-128D01*
G02Y15319I22J34D01*
G03X20443Y15548I-98J151D01*
G02X20479Y15605I36J17D01*
G01X25220D01*
X25365Y15749D01*
X25518D01*
G02X25546Y15681I0J-40D01*
G01X25360Y15495D01*
X23340D01*
X22935Y15090D01*
X22439D01*
G37*
G36*
G01X19721Y20393D02*
G03X19722Y20503I-171J57D01*
G02X19760Y20555I38J12D01*
G01X21712D01*
G02X21746Y20494I0J-40D01*
G03X21720Y20384I154J-94D01*
G02X21681Y20340I-40J-4D01*
G01X19759D01*
G02X19721Y20393I0J40D01*
G37*
G36*
G01X36647Y595D02*
G02X36619Y663I0J40D01*
G01X36845Y890D01*
Y893D01*
X36849Y898D01*
G03X36520Y986I-149J102D01*
G01X36521Y976D01*
X36498Y953D01*
G02X36430Y985I-28J28D01*
G03X36122Y1127I-180J15D01*
G02X36058Y1136I-28J28D01*
G03X35776Y1181I-158J-86D01*
G02X35717Y1186I-27J29D01*
G03X35519Y1246I-142J-111D01*
G01X35516Y1245D01*
X34640D01*
X34552Y1157D01*
G02X34492Y1161I-28J28D01*
G03X34172Y1077I-142J-111D01*
G01X34169Y1060D01*
X26905D01*
G02X26877Y1128I0J40D01*
G01X27540Y1792D01*
Y1887D01*
G03X27243Y1912I-140J113D01*
G01X27250Y1898D01*
X26592Y1240D01*
X26476D01*
X26300Y1064D01*
X25372D01*
X25196Y1240D01*
X24535D01*
G02X24501Y1302I0J40D01*
G03X24243Y1545I-151J98D01*
G01X23998D01*
X23798Y1745D01*
X23149D01*
G02X23135Y1779I0J20D01*
G01X23145Y1790D01*
Y1893D01*
G03X23154Y2094I-145J107D01*
G02X23188Y2155I34J21D01*
G01X23840D01*
X23972Y2023D01*
X23973Y2017D01*
G03X24183Y2227I177J33D01*
G01X24177Y2228D01*
X24069Y2337D01*
G02X24097Y2405I28J28D01*
G01X24243D01*
G03Y2695I107J145D01*
G01X24140D01*
G02X24112Y2763I0J40D01*
G01X24558Y3210D01*
X25371D01*
G02X25388Y3134I0J-40D01*
G03X26284I448J-950D01*
G02X26301Y3210I17J36D01*
G01X32565D01*
G02X32599Y3148I0J-40D01*
G03X32901I151J-98D01*
G02X32935Y3210I34J22D01*
G01X33357D01*
X33362Y3196D01*
G03X33706I172J54D01*
G01X33710Y3210D01*
X37292D01*
X38592Y1910D01*
X40692D01*
X40770Y1832D01*
G02X40771Y1776I-28J-28D01*
G03X41007Y1505I129J-125D01*
G01X42090D01*
X42240Y1355D01*
X42760D01*
X43210Y1805D01*
X43298D01*
G02X43325Y1735I0J-40D01*
G03X43282Y1111I308J-335D01*
G02X43251Y1045I-31J-25D01*
G01X41875D01*
G02X41846Y1113I0J40D01*
G03X41554I-146J137D01*
G02X41525Y1045I-29J-27D01*
G01X37340D01*
X36890Y595D01*
X36647D01*
G37*
G36*
G01X22402Y8990D02*
X22382Y9010D01*
X22368D01*
G02X22332Y9067I0J40D01*
G03X22350Y9166I-182J83D01*
G02X22389Y9210I40J3D01*
G01X25387D01*
G03X25678Y9326I113J140D01*
G02X25746Y9348I40J-5D01*
G01X25822Y9273D01*
X25823Y9267D01*
G03X26033Y9477I177J33D01*
G01X26027Y9478D01*
X25849Y9657D01*
G02X25877Y9725I28J28D01*
G01X29077D01*
X29347Y9455D01*
X29436D01*
G02X29476Y9407I0J-40D01*
G03X29477Y9289I274J-57D01*
G02X29438Y9240I-39J-9D01*
G01X29092D01*
X28917Y9065D01*
X23899D01*
X23824Y8990D01*
X22402D01*
G37*
G36*
G01X22350Y8434D02*
G03X22328Y8542I-200J17D01*
G02X22364Y8600I36J18D01*
G01X23648D01*
G02X23676Y8532I0J-40D01*
G01X23535Y8390D01*
X22389D01*
G02X22350Y8434I0J40D01*
G37*
G36*
G01X26833Y11401D02*
G02X26767Y11388I-37J15D01*
G01X26625Y11530D01*
X26107D01*
X26089Y11512D01*
X26083Y11511D01*
G03X25946Y11393I33J-177D01*
G01X25944Y11389D01*
X25927Y11371D01*
X25898Y11400D01*
X25728D01*
G02X25696Y11464I0J40D01*
G03X25730Y11586I-146J106D01*
G02X25769Y11630I40J4D01*
G01X25850D01*
G03X26070Y11864I0J220D01*
G02X26119Y11905I40J2D01*
G03X25963Y12100I45J195D01*
G02X25912Y12061I-40J0D01*
G03X25850Y12070I-62J-211D01*
G01X25817D01*
G02X25777Y12117I0J40D01*
G03X25423I-177J33D01*
G02X25383Y12070I-39J-7D01*
G01X25141D01*
X24991Y12220D01*
X23701D01*
G02X23664Y12277I0J40D01*
G03X23677Y12383I-165J74D01*
G02X23717Y12430I39J7D01*
G01X25387D01*
G03X25680Y12570I113J140D01*
G02X25720Y12610I40J0D01*
G01X26985D01*
X27122Y12473D01*
X27123Y12467D01*
G03X27477Y12466I177J33D01*
G02X27547Y12485I39J-7D01*
G03X27819Y12775I153J129D01*
G02X27811Y12832I24J32D01*
G03X27820Y12843I-142J111D01*
G01X27821Y12845D01*
X27836Y12861D01*
X28087Y12610D01*
X29192D01*
X29342Y12460D01*
X29438D01*
G02X29477Y12411I0J-40D01*
G03X29618Y12103I273J-61D01*
G02X29622Y12035I-19J-35D01*
G03X29528Y11890I129J-185D01*
G02X29461Y11869I-39J7D01*
G01X29258Y12072D01*
G03X29132Y12145I-126J-72D01*
G01X27153D01*
G03X26907Y12204I-153J-95D01*
G02X26851Y12220I-21J34D01*
G03X26792Y11962I-176J-95D01*
G02X26849Y11952I23J-32D01*
G03X26967Y11873I151J98D01*
G01X26973Y11872D01*
X26990Y11855D01*
X27012D01*
Y11828D01*
X27007Y11823D01*
G03X27257Y11567I143J-110D01*
G01X27377D01*
X27397Y11547D01*
G02X27369Y11479I-28J-28D01*
G01X27107D01*
G03X26833Y11401I-107J-145D01*
G37*
G36*
G01X23656Y15090D02*
G03X23619Y15135I-156J-90D01*
G02X23646Y15205I27J30D01*
G01X25481D01*
X25638Y15363D01*
G02X25697Y15360I28J-28D01*
G03X25708Y15349I153J129D01*
G02Y15320I-14J-14D01*
G03X25654Y15138I142J-141D01*
G02X25615Y15090I-39J-8D01*
G01X23656D01*
G37*
G36*
G01X22400Y14434D02*
G03X22393Y14504I-200J17D01*
G02X22431Y14555I38J11D01*
G01X23840D01*
X23945Y14450D01*
X23885Y14390D01*
X22439D01*
G02X22400Y14434I0J40D01*
G37*
G36*
G01X25434Y8000D02*
G02X25369Y8014I-28J28D01*
G03X25332Y8072I-169J-64D01*
G02X25331Y8098I15J14D01*
G03X25370Y8214I-141J112D01*
G02X25410Y8255I40J1D01*
G01X25843D01*
G03X25871Y8238I107J145D01*
G01X25862Y8200D01*
X25635D01*
X25434Y8000D01*
G37*
G36*
G01X26735Y19520D02*
X26560Y19695D01*
X25260D01*
X24860Y20095D01*
X24597D01*
G02X24569Y20163I0J40D01*
G01X24860Y20455D01*
X26669D01*
X26670Y20436D01*
G03X26705Y20343I180J14D01*
G01Y20190D01*
X26940Y19955D01*
X28940D01*
X29306Y19588D01*
G02X29278Y19520I-28J-28D01*
G01X28288D01*
G02X28250Y19572I0J40D01*
G03X27904I-173J51D01*
G02X27866Y19520I-38J-11D01*
G01X27738D01*
G02X27700Y19572I0J40D01*
G03X27354I-173J51D01*
G02X27316Y19520I-38J-11D01*
G01X26735D01*
G37*
G36*
G01X27031Y13850D02*
G02X26992Y13901I0J40D01*
G03X26947Y14093I-192J55D01*
G02X26976Y14160I29J27D01*
G01X27830D01*
G02X27858Y14092I0J-40D01*
G03X27806Y13900I142J-142D01*
G02X27767Y13850I-39J-10D01*
G01X27031D01*
G37*
G36*
G01X27275Y14980D02*
X26995Y15260D01*
Y15410D01*
X26842Y15563D01*
G02X26858Y15629I28J28D01*
G03X26968Y15865I-58J171D01*
G02X27005Y15920I37J15D01*
G01X28441D01*
G02X28467Y15850I0J-40D01*
G03X28660Y15509I133J-150D01*
G02X28712Y15472I12J-38D01*
G03X28796Y15313I200J5D01*
G02X28805Y15257I-23J-33D01*
G03X28782Y15217I145J-107D01*
G02X28721Y15199I-37J15D01*
G03X28401Y15023I-121J-159D01*
G02X28361Y14980I-40J-3D01*
G01X27275D01*
G37*
G36*
G01X26090Y15529D02*
G03X26261Y15652I0J180D01*
G02X26327Y15667I38J-13D01*
G01X26705Y15290D01*
Y15140D01*
X26724Y15121D01*
X26708Y15105D01*
X26706Y15104D01*
G03X26629Y14893I94J-154D01*
G02X26591Y14840I-38J-13D01*
G01X26557D01*
Y14864D01*
X26559Y14867D01*
G03X26468Y15092I-169J63D01*
G01X26465Y15094D01*
X26439Y15120D01*
X26089D01*
G02X26049Y15163I0J40D01*
G03X25992Y15320I-200J17D01*
G02Y15349I14J14D01*
G03X26050Y15489I-142J141D01*
G02X26090Y15529I40J0D01*
G37*
G36*
G01X29505Y14740D02*
X29405Y14840D01*
X28992D01*
G02X28964Y14908I0J40D01*
G01X29095Y15040D01*
Y15043D01*
X29099Y15048D01*
G03X29067Y15287I-149J102D01*
G02X29062Y15344I26J31D01*
G03X28852Y15667I-151J132D01*
G02X28800Y15705I-12J38D01*
G03X28733Y15850I-200J-5D01*
G02X28759Y15920I27J30D01*
G01X28775D01*
X29375Y16520D01*
X29519D01*
G02X29554Y16460I0J-40D01*
G03X29935Y16222I196J-110D01*
G02X30003Y16218I33J-23D01*
G03X30075Y16131I247J132D01*
G02Y16069I-25J-31D01*
G03X30003Y15982I175J-219D01*
G02X29935Y15978I-35J19D01*
G03Y15722I-185J-129D01*
G02X30003Y15718I33J-23D01*
G03X30075Y15631I247J132D01*
G02Y15569I-25J-31D01*
G03X30003Y15482I175J-219D01*
G02X29935Y15478I-35J19D01*
G03Y15222I-185J-128D01*
G02X30003Y15218I33J-23D01*
G03X30075Y15131I247J132D01*
G02Y15069I-25J-31D01*
G03X30003Y14982I175J-219D01*
G02X29935Y14978I-35J19D01*
G03X29540Y14768I-185J-128D01*
G01X29542Y14764D01*
Y14740D01*
X29505D01*
G37*
G36*
G01X28233Y13850D02*
G02X28194Y13900I0J40D01*
G03X28101Y14123I-194J50D01*
G01X28092Y14128D01*
Y14160D01*
X28145D01*
X28307Y13997D01*
G03X28445Y13959I103J103D01*
G01X28448Y13960D01*
X29438D01*
G02X29477Y13911I0J-40D01*
G03X29470Y13869I273J-61D01*
G01X29469Y13850D01*
X28233D01*
G37*
G36*
G01X29660Y19645D02*
X29169Y20137D01*
G02X29197Y20205I28J28D01*
G01X30086D01*
G02X30112Y20135I0J-40D01*
G03X30351I120J-135D01*
G02X30378Y20205I27J30D01*
G01X34171D01*
G02X34209Y20153I0J-40D01*
G03X34520Y19984I172J-53D01*
G02X34581I31J-26D01*
G03X34891Y20153I138J116D01*
G02X34929Y20205I38J12D01*
G01X35121D01*
G02X35159Y20153I0J-40D01*
G03X35470Y19984I172J-53D01*
G02X35531I31J-26D01*
G03X35841Y20153I138J116D01*
G02X35879Y20205I38J12D01*
G01X36071D01*
G02X36109Y20153I0J-40D01*
G03X36420Y19984I172J-53D01*
G02X36481I31J-26D01*
G03X36791Y20153I138J116D01*
G02X36829Y20205I38J12D01*
G01X37005D01*
G02X37040Y20144I0J-40D01*
G03X37331Y19934I154J-94D01*
G02X37392I31J-26D01*
G03X37684Y20144I138J116D01*
G02X37718Y20205I34J21D01*
G01X37994D01*
G02X38028Y20144I0J-40D01*
G03X38320Y19934I154J-94D01*
G02X38381I31J-26D01*
G03X38672Y20144I138J116D01*
G02X38706Y20205I34J21D01*
G01X38883D01*
G02X38921Y20153I0J-40D01*
G03X39231Y19984I172J-53D01*
G02X39292I31J-26D01*
G03X39602Y20153I138J116D01*
G02X39641Y20205I38J12D01*
G01X40812D01*
G02X40852Y20162I0J-40D01*
G03X41169Y20034I180J-12D01*
G02X41230I31J-26D01*
G03X41521Y20054I138J116D01*
G02X41583Y20061I34J-21D01*
G01X41931Y19713D01*
G02X41903Y19645I-28J-28D01*
G01X29660D01*
G37*
G36*
G01X30562Y7240D02*
G02X30524Y7289I0J40D01*
G03X30425Y7569I-273J61D01*
G02Y7631I25J31D01*
G03X30524Y7911I-175J219D01*
G02X30562Y7960I39J9D01*
G01X30788D01*
X30823Y7995D01*
X31200D01*
X31240Y7955D01*
X32250D01*
G02X32287Y7900I0J-40D01*
G03X32377Y7672I168J-65D01*
G02X32378Y7601I-17J-36D01*
G03X32336Y7309I82J-161D01*
G02X32309Y7240I-28J-29D01*
G01X30562D01*
G37*
G36*
G01Y14240D02*
G02X30524Y14289I0J40D01*
G03X30522Y14416I-273J61D01*
G02X30548Y14463I39J9D01*
G03X30602Y14497I-48J137D01*
G01X30734Y14629D01*
G02X30793Y14625I28J-28D01*
G03X31018Y14562I157J125D01*
G02X31071Y14520I14J-38D01*
G03X31198Y14673I179J-20D01*
G02X31148Y14718I-12J38D01*
G03X31143Y14804I-198J33D01*
G02X31181Y14855I38J11D01*
G01X32253D01*
G02X32281Y14787I0J-40D01*
G01X31735Y14240D01*
X30562D01*
G37*
G36*
G01X30590Y14895D02*
G02X30523Y14914I-28J28D01*
G03X30425Y15069I-273J-64D01*
G02Y15131I25J31D01*
G03Y15569I-175J219D01*
G02Y15631I25J31D01*
G03Y16069I-175J219D01*
G02Y16131I25J31D01*
G03X30506Y16464I-175J219D01*
G02X30543Y16520I37J16D01*
G01X30578D01*
X31095Y16003D01*
G02X31091Y15943I-28J-28D01*
G03X31368Y15865I109J-143D01*
G02X31405Y15920I37J15D01*
G01X31748D01*
G02X31782Y15858I0J-40D01*
G03X32118I168J-108D01*
G02X32152Y15920I34J22D01*
G01X33141D01*
G02X33167Y15850I0J-40D01*
G03X33124Y15604I133J-150D01*
G02X33092Y15545I-35J-19D01*
G03X32996Y15510I11J-180D01*
G01X32755D01*
X32390Y15145D01*
X30840D01*
X30590Y14895D01*
G37*
G36*
G01X33284Y7210D02*
X33254Y7240D01*
X32611D01*
G02X32584Y7309I0J40D01*
G03X32538Y7603I-124J131D01*
G02X32537Y7674I17J36D01*
G03X32562Y7690I-81J161D01*
G01X34476D01*
X34481Y7677D01*
G03X34536Y7601I169J63D01*
G02Y7539I-25J-31D01*
G03X34494Y7310I114J-139D01*
G02X34459Y7250I-35J-20D01*
G01X33970D01*
G02X33930Y7292I0J40D01*
G03X33570I-180J8D01*
G02X33530Y7250I-40J-2D01*
G01X33356D01*
X33316Y7210D01*
X33284D01*
G37*
G36*
G01X37469Y5025D02*
G03X37382Y5097I-219J-175D01*
G02X37378Y5165I19J35D01*
G03Y5535I-128J185D01*
G02X37382Y5603I23J33D01*
G03X37469Y5675I-132J247D01*
G02X37531I31J-25D01*
G03X37618Y5603I219J175D01*
G02X37622Y5535I-19J-35D01*
G03Y5165I128J-185D01*
G02X37618Y5097I-23J-33D01*
G03X37531Y5025I132J-247D01*
G02X37469I-31J25D01*
G37*
G36*
G01Y11025D02*
G03X37382Y11097I-219J-175D01*
G02X37378Y11165I19J35D01*
G03Y11535I-128J185D01*
G02X37382Y11603I23J33D01*
G03X37469Y11675I-132J247D01*
G02X37531I31J-25D01*
G03X37618Y11603I219J175D01*
G02X37622Y11535I-19J-35D01*
G03Y11165I128J-185D01*
G02X37618Y11097I-23J-33D01*
G03X37531Y11025I132J-247D01*
G02X37469I-31J25D01*
G37*
G36*
G01Y12525D02*
G03X37382Y12597I-219J-175D01*
G02X37378Y12665I19J35D01*
G03Y13035I-128J185D01*
G02X37382Y13103I23J33D01*
G03X37469Y13175I-132J247D01*
G02X37531I31J-25D01*
G03X37618Y13103I219J175D01*
G02X37622Y13035I-19J-35D01*
G03Y12665I128J-185D01*
G02X37618Y12597I-23J-33D01*
G03X37531Y12525I132J-247D01*
G02X37469I-31J25D01*
G37*
G36*
G01Y15525D02*
G03X37382Y15597I-219J-175D01*
G02X37378Y15665I19J35D01*
G03Y16035I-128J185D01*
G02X37382Y16103I23J33D01*
G03X37469Y16175I-132J247D01*
G02X37531I31J-25D01*
G03X37618Y16103I219J175D01*
G02X37622Y16035I-19J-35D01*
G03Y15665I128J-185D01*
G02X37618Y15597I-23J-33D01*
G03X37531Y15525I132J-247D01*
G02X37469I-31J25D01*
G37*
G36*
G01Y14025D02*
G03X37382Y14097I-219J-175D01*
G02X37378Y14165I19J35D01*
G03Y14535I-128J185D01*
G02X37382Y14603I23J33D01*
G03X37469Y14675I-132J247D01*
G02X37531I31J-25D01*
G03X37618Y14603I219J175D01*
G02X37622Y14535I-19J-35D01*
G03Y14165I128J-185D01*
G02X37618Y14097I-23J-33D01*
G03X37531Y14025I132J-247D01*
G02X37469I-31J25D01*
G37*
G36*
G01X44969Y7025D02*
G03X44882Y7097I-219J-175D01*
G02X44879Y7165I19J35D01*
G03Y7535I-129J185D01*
G02X44882Y7603I23J33D01*
G03X44969Y7675I-132J247D01*
G02X45031I31J-25D01*
G03X45118Y7603I219J175D01*
G02X45122Y7535I-19J-35D01*
G03Y7165I129J-185D01*
G02X45118Y7097I-23J-33D01*
G03X45031Y7025I132J-247D01*
G02X44969I-31J25D01*
G37*
G36*
G01Y6025D02*
G03X44882Y6097I-219J-175D01*
G02X44879Y6165I19J35D01*
G03Y6535I-129J185D01*
G02X44882Y6603I23J33D01*
G03X44969Y6675I-132J247D01*
G02X45031I31J-25D01*
G03X45118Y6603I219J175D01*
G02X45122Y6535I-19J-35D01*
G03Y6165I129J-185D01*
G02X45118Y6097I-23J-33D01*
G03X45031Y6025I132J-247D01*
G02X44969I-31J25D01*
G37*
G36*
G01Y8525D02*
G03X44882Y8597I-219J-175D01*
G02X44879Y8665I19J35D01*
G03Y9035I-129J185D01*
G02X44882Y9103I23J33D01*
G03X44969Y9175I-132J247D01*
G02X45031I31J-25D01*
G03X45118Y9103I219J175D01*
G02X45122Y9035I-19J-35D01*
G03Y8665I129J-185D01*
G02X45118Y8597I-23J-33D01*
G03X45031Y8525I132J-247D01*
G02X44969I-31J25D01*
G37*
G36*
G01Y11025D02*
G03X44882Y11097I-219J-175D01*
G02X44879Y11165I19J35D01*
G03Y11535I-129J185D01*
G02X44882Y11603I23J33D01*
G03X44969Y11675I-132J247D01*
G02X45031I31J-25D01*
G03X45118Y11603I219J175D01*
G02X45122Y11535I-19J-35D01*
G03Y11165I129J-185D01*
G02X45118Y11097I-23J-33D01*
G03X45031Y11025I132J-247D01*
G02X44969I-31J25D01*
G37*
G36*
G01Y15525D02*
G03X44882Y15597I-219J-175D01*
G02X44879Y15665I19J35D01*
G03Y16035I-129J185D01*
G02X44882Y16103I23J33D01*
G03X44969Y16175I-132J247D01*
G02X45031I31J-25D01*
G03X45118Y16103I219J175D01*
G02X45122Y16035I-19J-35D01*
G03Y15665I129J-185D01*
G02X45118Y15597I-23J-33D01*
G03X45031Y15525I132J-247D01*
G02X44969I-31J25D01*
G37*
%LPC*%
G75*
G36*
G01X2436Y6634D02*
G03Y6566I21J-34D01*
G02X2164I-136J-216D01*
G03Y6634I-21J34D01*
G02X2436I136J216D01*
G37*
G36*
G01X4936Y5634D02*
G03Y5566I21J-34D01*
G02X4664I-136J-216D01*
G03Y5634I-21J34D01*
G02X4936I136J216D01*
G37*
G36*
G01X2936D02*
G03Y5566I21J-34D01*
G02X2664I-136J-216D01*
G03Y5634I-21J34D01*
G02X2936I136J216D01*
G37*
G36*
G01X11831Y5478D02*
X12048Y5695D01*
X13443D01*
G02X13574Y5729I107J-145D01*
G03X13596Y5746I3J20D01*
G02X13751Y5546I179J-21D01*
G03X13729Y5529I-3J-20D01*
G02X13443Y5405I-179J21D01*
G01X12638D01*
G03X12604Y5344I0J-40D01*
G02X12296I-154J-94D01*
G03X12262Y5405I-34J21D01*
G01X12168D01*
X12036Y5273D01*
X12035Y5267D01*
G02X11825Y5477I-177J33D01*
G01X11831Y5478D01*
G37*
G36*
G01X2436Y4634D02*
G03Y4566I21J-34D01*
G02X2164I-136J-216D01*
G03Y4634I-21J34D01*
G02X2436I136J216D01*
G37*
G36*
G01X7604Y21263D02*
G03X7546I-29J-27D01*
G02Y21537I-146J137D01*
G03X7604I29J27D01*
G02Y21263I146J-137D01*
G37*
G36*
G01X33775Y1120D02*
X31375D01*
X30973Y1523D01*
G02X31227Y1777I127J127D01*
G01X31525Y1480D01*
X31774D01*
G03X31811Y1533I0J40D01*
G02X32189I189J67D01*
G03X32227Y1480I38J-13D01*
G01X33625D01*
X33875Y1730D01*
X36825D01*
X36998Y1902D01*
G03X36966Y1970I-28J28D01*
G02X37097Y2254I-16J180D01*
G03X37170Y2277I33J23D01*
G01Y2313D01*
X37168Y2316D01*
G02X37530Y2313I182J83D01*
G01Y1925D01*
X36975Y1370D01*
X34025D01*
X33775Y1120D01*
G37*
G36*
G01X40281Y19834D02*
G03X40219I-31J-26D01*
G02Y20066I-138J116D01*
G03X40281I31J26D01*
G02Y19834I138J-116D01*
G37*
G36*
G01X31381D02*
G03X31319I-31J-26D01*
G02Y20066I-138J116D01*
G03X31381I31J26D01*
G02Y19834I138J-116D01*
G37*
G54D28*
X2300Y9350D03*
Y9850D03*
Y3850D03*
Y5350D03*
Y5850D03*
Y7350D03*
Y7850D03*
X4300Y5350D03*
X2800Y4350D03*
Y4850D03*
X4300Y5850D03*
X2800Y6350D03*
Y6850D03*
Y8350D03*
X4800Y4850D03*
Y6350D03*
X16750Y4100D03*
X17650Y4900D03*
X2300Y13350D03*
X2800Y12850D03*
X22150Y3500D03*
Y4200D03*
G54D30*
X8061Y6011D03*
X10600Y4106D03*
X11850Y3900D03*
X11200Y5400D03*
X15150Y5550D03*
X15350Y5100D03*
X16850Y5550D03*
X7608Y15892D03*
X9450Y16400D03*
X19050Y3850D03*
X19550Y3848D03*
X20230Y4150D03*
X20250Y4600D03*
X23150Y4050D03*
X23750Y3650D03*
X27900Y1650D03*
X28344Y1306D03*
X36500Y2500D03*
X27570Y9350D03*
X32050Y19950D03*
X33000D03*
X30810Y7660D03*
G54D38*
X8850Y4450D03*
X33700Y2200D03*
%LPD*%
G75*
G54D10*
G01X2800Y23350D02*
Y26730D01*
X3345Y27275D01*
X5645D01*
X7165Y25755D01*
X7945D01*
X9240Y27050D01*
G01X46600Y3350D02*
X43100D01*
X42500Y3950D01*
G01X42250Y3700D02*
X42500Y3950D01*
G01X46600D02*
Y3350D01*
X2300Y3850D03*
Y4350D03*
Y4850D03*
Y5350D03*
Y5850D03*
Y6350D03*
Y6850D03*
Y7350D03*
Y7850D03*
Y8350D03*
Y8850D03*
Y9350D03*
Y9850D03*
Y10350D03*
Y10850D03*
Y11350D03*
Y11850D03*
Y12350D03*
Y12850D03*
Y13350D03*
Y13850D03*
Y14350D03*
Y14850D03*
Y15350D03*
Y15850D03*
Y16350D03*
Y16850D03*
Y17350D03*
Y17850D03*
Y18350D03*
Y18850D03*
Y19350D03*
Y19850D03*
Y20350D03*
Y20850D03*
Y21350D03*
Y21850D03*
Y22350D03*
Y22850D03*
Y23350D03*
X4300Y3850D03*
Y4350D03*
Y4850D03*
Y5350D03*
X2800Y3850D03*
Y4350D03*
Y4850D03*
Y5350D03*
X4300Y5850D03*
Y6350D03*
Y6850D03*
Y7350D03*
X2800Y5850D03*
Y6350D03*
Y6850D03*
Y7350D03*
X4300Y7850D03*
Y8350D03*
Y8850D03*
Y9350D03*
X2800Y7850D03*
Y8350D03*
Y8850D03*
Y9350D03*
X4300Y9850D03*
Y10350D03*
Y10850D03*
Y11350D03*
Y11850D03*
X2800Y9850D03*
Y10350D03*
Y10850D03*
Y11350D03*
Y11850D03*
X4300Y12350D03*
Y12850D03*
Y13350D03*
Y13850D03*
X2800Y12350D03*
Y12850D03*
Y13350D03*
Y13850D03*
X4300Y14350D03*
Y14850D03*
Y15350D03*
Y15850D03*
X2800Y14350D03*
Y14850D03*
Y15350D03*
Y15850D03*
X4300Y16350D03*
Y16850D03*
Y17350D03*
Y17850D03*
X2800Y16350D03*
Y16850D03*
Y17350D03*
Y17850D03*
X4300Y18350D03*
Y18850D03*
Y19350D03*
Y19850D03*
Y20350D03*
X2800Y18350D03*
Y18850D03*
Y19350D03*
Y19850D03*
Y20350D03*
X4300Y20850D03*
Y21350D03*
Y21850D03*
Y22350D03*
X2800Y20850D03*
Y21350D03*
Y21850D03*
Y22350D03*
X4300Y22850D03*
Y23350D03*
X2800Y22850D03*
Y23350D03*
X4800Y3850D03*
Y4350D03*
Y4850D03*
Y5350D03*
Y5850D03*
Y6350D03*
Y6850D03*
Y7350D03*
Y7850D03*
Y8350D03*
Y8850D03*
Y9350D03*
Y9850D03*
Y10350D03*
Y10850D03*
Y11350D03*
Y11850D03*
Y12350D03*
Y12850D03*
Y13350D03*
Y13850D03*
Y14350D03*
Y14850D03*
Y15350D03*
Y15850D03*
Y16350D03*
Y16850D03*
Y17350D03*
Y17850D03*
Y18350D03*
Y18850D03*
Y19350D03*
Y19850D03*
Y20350D03*
Y20850D03*
Y21350D03*
Y21850D03*
Y22350D03*
Y22850D03*
Y23350D03*
X82000Y4500D03*
Y5000D03*
X81500Y4500D03*
Y5000D03*
X82000Y15800D03*
X81500D03*
X82000Y16300D03*
X81500D03*
X84000Y4500D03*
Y5000D03*
X83500Y4500D03*
Y5000D03*
X83000Y4500D03*
Y5000D03*
X82500Y4500D03*
Y5000D03*
X84000Y15800D03*
X83500D03*
X83000D03*
X82500D03*
X84000Y16300D03*
X83500D03*
X83000D03*
X82500D03*
X86500Y4500D03*
Y5000D03*
X86000Y4500D03*
Y5000D03*
X85500Y4500D03*
Y5000D03*
X85000Y4500D03*
Y5000D03*
X84500Y4500D03*
Y5000D03*
X86500Y15800D03*
X86000D03*
X85500D03*
X85000D03*
X84500D03*
X86500Y16300D03*
X86000D03*
X85500D03*
X85000D03*
X84500D03*
X88500Y4500D03*
Y5000D03*
X88000Y4500D03*
Y5000D03*
X87500Y4500D03*
Y5000D03*
X87000Y4500D03*
Y5000D03*
X88500Y15800D03*
X88000D03*
X87500D03*
X87000D03*
X88500Y16300D03*
X88000D03*
X87500D03*
X87000D03*
X90500Y4500D03*
Y5000D03*
X90000Y4500D03*
Y5000D03*
X89500Y4500D03*
Y5000D03*
X89000Y4500D03*
Y5000D03*
X90500Y15800D03*
X90000D03*
X89500D03*
X89000D03*
X90500Y16300D03*
X90000D03*
X89500D03*
X89000D03*
X92500Y4500D03*
Y5000D03*
X92000Y4500D03*
Y5000D03*
X91500Y4500D03*
Y5000D03*
X91000Y4500D03*
Y5000D03*
X92500Y15800D03*
X92000D03*
X91500D03*
X91000D03*
X92500Y16300D03*
X92000D03*
X91500D03*
X91000D03*
X95000Y4500D03*
Y5000D03*
X94500Y4500D03*
Y5000D03*
X94000Y4500D03*
Y5000D03*
X93500Y4500D03*
Y5000D03*
X93000Y4500D03*
Y5000D03*
X95000Y15800D03*
X94500D03*
X94000D03*
X93500D03*
X93000D03*
X95000Y16300D03*
X94500D03*
X94000D03*
X93500D03*
X93000D03*
X97000Y4500D03*
Y5000D03*
X96500Y4500D03*
Y5000D03*
X96000Y4500D03*
Y5000D03*
X95500Y4500D03*
Y5000D03*
X97000Y15800D03*
X96500D03*
X96000D03*
X95500D03*
X97000Y16300D03*
X96500D03*
X96000D03*
X95500D03*
X98500Y4500D03*
Y5000D03*
X98000Y4500D03*
Y5000D03*
X97500Y4500D03*
Y5000D03*
X98500Y15800D03*
X98000D03*
X97500D03*
X98500Y16300D03*
X98000D03*
X97500D03*
X100500Y32890D03*
Y32390D03*
Y31840D03*
X100650Y38040D03*
Y38590D03*
Y39090D03*
X110850Y31890D03*
Y32440D03*
Y32940D03*
X110750Y38140D03*
Y38690D03*
Y39190D03*
G54D20*
X75570Y27010D03*
X77090D03*
X110480Y12900D03*
X116480Y7900D03*
X133990Y12880D03*
Y34330D03*
X139990Y7880D03*
Y29330D03*
G54D11*
X1450Y4500D03*
X1550Y16600D03*
X1050Y22250D03*
X3900Y8100D03*
X3877Y10558D03*
X3400Y11450D03*
X3300Y18900D03*
X3850Y23900D03*
X3480Y22980D03*
X3700Y23600D03*
X6650Y700D03*
X5950Y2250D03*
X6600Y2750D03*
X5968Y1850D03*
X6300Y1450D03*
X6205Y6045D03*
X5250Y9600D03*
X5222Y13428D03*
X5700Y13850D03*
X5850Y12050D03*
X6200Y13150D03*
X5350Y14750D03*
Y19350D03*
X6050Y21600D03*
X5400Y22900D03*
X5750Y23450D03*
X5600Y24750D03*
X6550Y27100D03*
X7150Y915D03*
X6900Y450D03*
X7250Y2750D03*
X7100Y6400D03*
X8061Y6011D03*
X6702Y6602D03*
X7608Y6208D03*
X8650Y7400D03*
X7135Y11315D03*
X8050Y10450D03*
X7100Y14355D03*
X8039Y14889D03*
Y13961D03*
X7608Y14158D03*
Y15892D03*
X8250Y15850D03*
X8300Y17835D03*
X6702Y18902D03*
X8258Y20100D03*
X6750Y20850D03*
X8350Y23200D03*
X7200Y26400D03*
X6900Y26750D03*
X7600Y26200D03*
X9350Y1100D03*
X10600Y4106D03*
X10650Y6650D03*
X10958Y7192D03*
X9050Y7700D03*
X9450Y8450D03*
X10900Y7700D03*
X10958Y15142D03*
X9050Y15650D03*
X10900D03*
X9450Y16400D03*
X10000Y17835D03*
X9250Y20300D03*
X9450Y20850D03*
X9772Y22958D03*
X10072D03*
X10372D03*
X10672D03*
X9772Y23258D03*
X10072D03*
X10372D03*
X10672D03*
X8950Y23180D03*
X9250D03*
X8940Y22900D03*
X9250D03*
X9300Y23750D03*
X9000D03*
X10930Y28330D03*
X12500Y1850D03*
X11850Y3900D03*
X12450Y5250D03*
X11858Y5300D03*
X11200Y5400D03*
X11900Y7150D03*
Y6250D03*
X12350Y6700D03*
X12800Y7150D03*
Y6250D03*
X11858Y8400D03*
Y8660D03*
X11300Y7698D03*
X11850Y10550D03*
X11200Y11500D03*
Y9950D03*
X12400D03*
X13050D03*
X11250Y13260D03*
X11858Y13250D03*
X11850Y11850D03*
X12550D03*
X12900Y13250D03*
Y12000D03*
X11052Y14748D03*
X11900Y14200D03*
X12350Y14650D03*
X12800Y14200D03*
X11900Y15100D03*
X11300Y15648D03*
X12800Y15100D03*
X11200Y17900D03*
X11858Y16610D03*
Y16350D03*
X12900Y17200D03*
X12250Y19400D03*
X11850Y18500D03*
X11430Y22880D03*
X11120D03*
X11430Y23160D03*
X11130D03*
X11400Y23750D03*
X11123D03*
X12800Y25350D03*
X12150Y28300D03*
X11000Y27750D03*
X13650Y1300D03*
X13550Y5550D03*
X15150Y6050D03*
X15044Y7194D03*
X15150Y5550D03*
X13750Y6300D03*
Y7050D03*
X13800Y6602D03*
X13775Y5725D03*
X13450Y13550D03*
X15150Y13500D03*
X13847Y13547D03*
X15044Y15144D03*
X15150Y14000D03*
X13750Y14250D03*
Y15000D03*
X13800Y14552D03*
X15350Y5100D03*
X16700Y7300D03*
X16427Y6173D03*
X16150Y6000D03*
X16850Y5550D03*
Y6650D03*
X16700Y7800D03*
X15750Y8100D03*
X15700Y8400D03*
X17000Y7450D03*
X16950Y10100D03*
X15370Y10380D03*
X15700Y12350D03*
X15300Y15450D03*
X17250Y16150D03*
X15300Y16850D03*
Y16150D03*
X15450Y16550D03*
X15800Y16650D03*
X17068Y20000D03*
X16732D03*
X19050Y3850D03*
X19550Y3848D03*
X17555Y6470D03*
X18600Y6250D03*
X18100Y6900D03*
X19381Y8798D03*
X19050Y8800D03*
X17650Y10880D03*
X18540Y13400D03*
X18150Y13130D03*
X18170Y12090D03*
X19100Y14800D03*
X18540Y17430D03*
X17920Y17750D03*
X19550Y20450D03*
X20230Y4150D03*
X20250Y4600D03*
X20230Y3550D03*
Y3150D03*
Y9100D03*
Y9450D03*
Y8500D03*
X20200Y8150D03*
X19700Y8800D03*
X19650Y14798D03*
X20280Y14000D03*
Y14500D03*
Y15100D03*
Y15470D03*
X20723Y19423D03*
X21550Y19100D03*
X20300Y18900D03*
X22150Y1100D03*
X23000Y2000D03*
X23150Y4050D03*
X23500Y3150D03*
X23750Y3650D03*
X22850Y5500D03*
X23900Y6180D03*
X23840Y7770D03*
X22777Y11018D03*
X23500Y12350D03*
X22200Y12000D03*
X22600D03*
X23500Y15000D03*
X23620Y16250D03*
X22850Y16900D03*
X22150Y17420D03*
X23270Y17210D03*
X22850Y19900D03*
X22750Y19000D03*
X22200Y19100D03*
X23791Y19585D03*
X21843Y18953D03*
X21900Y19800D03*
X23275Y18875D03*
X23460Y20750D03*
X23150Y20850D03*
X21900Y20400D03*
X22600Y22250D03*
X23700Y20406D03*
X22950Y21045D03*
X22700Y20850D03*
X22250Y20700D03*
X22952Y22148D03*
X22150Y24000D03*
X22159Y24341D03*
X22448Y24348D03*
X23890Y23100D03*
X22410D03*
X23850Y24300D03*
X22850Y23650D03*
X23450D03*
X22355Y26145D03*
X23600Y25950D03*
X22900Y25400D03*
X23250D03*
X24350Y2550D03*
X24150Y2050D03*
X24350Y1400D03*
X24230Y4560D03*
X25990Y5090D03*
X25150Y6730D03*
X24240Y6000D03*
X24050Y7300D03*
X24200Y6789D03*
X25160Y6320D03*
X25190Y5340D03*
X24200Y6500D03*
X25700Y5750D03*
X25780Y6300D03*
X25950Y6730D03*
X25500D03*
X25470Y6300D03*
X25190Y8210D03*
X25200Y7950D03*
X24300Y8350D03*
X26000Y9300D03*
X26040Y7460D03*
X25700Y7450D03*
X25950Y8400D03*
X25190Y7440D03*
X24250Y7700D03*
X25500Y9350D03*
X26000Y10500D03*
X25350Y10950D03*
X25550Y11570D03*
X25600Y12150D03*
X25500Y12570D03*
Y17450D03*
X24744Y16644D03*
X25850Y18650D03*
X24050Y19500D03*
X24744Y18406D03*
X24050Y23900D03*
X24141Y24341D03*
X27900Y1650D03*
X27400Y2000D03*
X26350Y5050D03*
X26800Y5100D03*
X26720Y4150D03*
X26330Y6710D03*
X28190Y6660D03*
X27490Y6990D03*
X26575Y7425D03*
X27550Y7260D03*
X26650Y5600D03*
X27605Y6615D03*
X26571Y6911D03*
X26500Y6100D03*
X26960Y8500D03*
X27550Y8440D03*
X27526Y8031D03*
X27570Y9350D03*
X26500Y7750D03*
X26350Y8430D03*
X26116Y11334D03*
X27300Y11000D03*
X27150Y11713D03*
X27000Y11334D03*
X26350Y11200D03*
X26372Y13428D03*
X27669Y12943D03*
X27000Y12050D03*
X27250Y13250D03*
X27300Y12500D03*
X28200Y13045D03*
X26800Y14950D03*
Y15800D03*
X26090Y15710D03*
X26390Y14930D03*
X28077Y19623D03*
X27527D03*
X27800Y20350D03*
X27450Y18850D03*
X27550Y21100D03*
X26600D03*
X27800Y22450D03*
X27300D03*
X26850D03*
X26350D03*
X26850Y20450D03*
X26250Y21150D03*
X27150Y21100D03*
X27800Y23550D03*
X27600Y24657D03*
X27550Y26530D03*
X27586Y25764D03*
X27550Y25300D03*
X28100Y26850D03*
X28344Y1306D03*
X28650Y4850D03*
X28344Y5694D03*
X28900Y5350D03*
X28750Y6160D03*
X29140Y5560D03*
X29050Y6920D03*
X29150Y6150D03*
X29390Y7400D03*
X29270Y8780D03*
X28250Y7780D03*
X28913Y11713D03*
X29050Y10863D03*
X28850Y10350D03*
X28486Y13000D03*
X28436Y11750D03*
X28950Y15150D03*
Y17200D03*
X30232Y20000D03*
X30125Y18475D03*
X28500Y21100D03*
X29450D03*
X29200Y22450D03*
X28250D03*
X30150D03*
X28750D03*
X29700D03*
X28650Y24550D03*
X29350Y26300D03*
X29945D03*
X28650Y24955D03*
X28600Y25545D03*
X29750Y25100D03*
X29150Y27750D03*
X29950Y27800D03*
X29700Y27550D03*
X31100Y1650D03*
X32200Y5373D03*
X32300Y5850D03*
X31510Y6700D03*
X31115Y6370D03*
X30810Y7660D03*
X32460Y7440D03*
X32050Y8400D03*
X31950Y9100D03*
X31510Y8860D03*
X32455Y7835D03*
X30650Y11600D03*
X30850Y9700D03*
X31800Y10200D03*
X31400Y9650D03*
Y10700D03*
X31250Y14500D03*
X31200Y15800D03*
X31350Y18000D03*
X31250Y17400D03*
X30950Y17200D03*
X32050Y19950D03*
X31182D03*
X31963Y18300D03*
X31518Y19950D03*
X32300Y18300D03*
X30400Y21100D03*
X31350D03*
X32300D03*
X30650Y22450D03*
X31600D03*
X32050D03*
X31100D03*
X32000Y24500D03*
X31950Y25700D03*
X32000Y25100D03*
X31859Y25400D03*
X30400Y28200D03*
X32750Y3050D03*
X34350Y1050D03*
X33000Y5050D03*
X33534Y3250D03*
X34650Y7400D03*
X32550Y6450D03*
X34550Y5650D03*
X33750Y7300D03*
X33460Y6420D03*
X34700Y7050D03*
X33750Y5900D03*
X33930Y6930D03*
X33750Y8700D03*
X33230Y9270D03*
X34520Y8650D03*
X34650Y7740D03*
X34550Y8100D03*
X34500Y11150D03*
X33050Y13900D03*
X34650Y12100D03*
X34550Y12550D03*
X33050Y15100D03*
X33800Y14500D03*
X33103Y15365D03*
X33300Y17550D03*
X33750Y18000D03*
X34100D03*
X33000Y19950D03*
X34382Y20100D03*
X33250Y21100D03*
X34550D03*
X33000Y22450D03*
X33500D03*
X34300D03*
X32550D03*
X32750Y20950D03*
X33700D03*
X34250Y24650D03*
X33300Y25050D03*
X34300Y25750D03*
X34250Y25150D03*
X34683Y26333D03*
X36500Y2500D03*
X35575Y1075D03*
X36250Y1000D03*
X36700D03*
X35900Y1050D03*
X34790Y5390D03*
X36600Y7350D03*
X35791Y6830D03*
X35790Y5630D03*
X34855Y6655D03*
X34796Y5927D03*
X35870Y7300D03*
X36250Y8300D03*
X35200Y9850D03*
X35632Y13750D03*
X35450Y13050D03*
X35968Y13750D03*
X35113Y13050D03*
X35050Y13700D03*
X34750Y12800D03*
X36532Y14900D03*
X35550Y16100D03*
X36100Y16350D03*
X34900Y17500D03*
X36618Y20100D03*
X36282D03*
X35332D03*
X34718D03*
X35668D03*
X36450Y21100D03*
X35500D03*
X36200Y22450D03*
X35750D03*
X36700D03*
X35250D03*
X34800D03*
X36600Y24550D03*
X35550Y24657D03*
X36600Y24955D03*
X36550Y25545D03*
X35300Y26600D03*
X35500Y25300D03*
X36100Y26850D03*
X36950Y2150D03*
X36900Y3850D03*
X38518Y15000D03*
X36868Y14900D03*
X38182Y15000D03*
X38732Y16400D03*
X38682Y17650D03*
X37193Y20050D03*
X38518D03*
X37530D03*
X38182D03*
X37400Y21100D03*
X38350D03*
X37150Y22450D03*
X38100D03*
X38600D03*
X37650D03*
X37300Y26300D03*
X37895D03*
X38450Y28200D03*
X37600Y28000D03*
Y27450D03*
X39950Y300D03*
X39600Y3050D03*
X40900Y1650D03*
X39250Y3350D03*
X39050Y5400D03*
X40360Y11710D03*
X40540Y10130D03*
X40904Y10466D03*
X41162Y11250D03*
X40345Y14808D03*
X39430Y15700D03*
X39093D03*
X39900Y15750D03*
X40750Y17200D03*
X40000Y17600D03*
X39068Y16400D03*
X39018Y17650D03*
X40650Y16300D03*
X39950Y16600D03*
X40650D03*
X40600Y17550D03*
X40418Y19950D03*
X40082D03*
X39430Y20100D03*
X39093D03*
X41031Y20150D03*
X39750Y18500D03*
X39300Y21100D03*
X40250D03*
X40950Y22450D03*
X39550D03*
X40000D03*
X39050D03*
X40500D03*
X39950Y24600D03*
X39900Y25700D03*
X40150Y26350D03*
X40000Y25100D03*
X39850Y25400D03*
X42750Y2242D03*
Y2568D03*
X42450Y1782D03*
Y2108D03*
X41440Y4800D03*
X42753Y11647D03*
X41499Y11250D03*
X42350Y9600D03*
X42340Y9950D03*
X42150Y11650D03*
X42825Y12325D03*
X41350Y15950D03*
X42300Y15900D03*
X42850Y15250D03*
X42651Y17298D03*
X42725Y17725D03*
X41950Y17950D03*
X41434Y17938D03*
X41650Y18100D03*
X42650Y17000D03*
X43000Y16850D03*
X41850Y20350D03*
X43232Y20100D03*
X42317Y20136D03*
X42654D03*
X41700Y18900D03*
X42000D03*
X41368Y20150D03*
X42150Y18250D03*
X42450Y21100D03*
X41200D03*
X42700Y22450D03*
X42200D03*
X43150D03*
X41450D03*
X42150Y24650D03*
Y26700D03*
X42200Y25750D03*
X42150Y25150D03*
X41250Y25050D03*
X44225Y1125D03*
X43350Y4608D03*
Y4282D03*
X44050Y5550D03*
Y5887D03*
X43965Y10630D03*
X43900Y13700D03*
X44000Y12650D03*
X43636Y15300D03*
X43586Y14050D03*
X44000Y14400D03*
X44600Y16890D03*
X43700Y18750D03*
X44703Y19689D03*
X45131Y20050D03*
X45468D03*
X44697Y19959D03*
X43568Y20100D03*
X45300Y21100D03*
X44350D03*
X43400D03*
X43650Y22450D03*
X44100D03*
X45050D03*
X44600D03*
X44500Y24550D03*
X43450Y24657D03*
X43900Y26750D03*
X45200Y26300D03*
X44500Y24955D03*
X44450Y25545D03*
X43400Y25300D03*
X46300Y10350D03*
X47150Y10968D03*
X46300Y10013D03*
X47150Y10632D03*
X46750Y11850D03*
X46900Y13800D03*
X47150Y15550D03*
X45600Y16650D03*
X46081Y20000D03*
X47032Y20100D03*
X45900Y19550D03*
X46418Y20000D03*
X47368Y20100D03*
X46900Y18800D03*
X47200Y21100D03*
X46250D03*
X47450Y22450D03*
X46950D03*
X46000D03*
X46500D03*
X45550D03*
X45795Y26300D03*
X46200Y28200D03*
X45500Y28000D03*
Y27450D03*
X47970Y3690D03*
Y3240D03*
X49348Y5148D03*
X49048D03*
X48748D03*
X49648D03*
X47970Y4990D03*
X49048Y5448D03*
X48748D03*
X49648D03*
X49348D03*
X48230Y6220D03*
X48626Y8284D03*
X49714D03*
X48150Y12937D03*
X48931Y13800D03*
X48150Y12600D03*
X49268Y13800D03*
X47850Y14050D03*
X47982Y19950D03*
X48931Y20150D03*
X48318Y19950D03*
X49268Y20150D03*
X47700Y19150D03*
X49100Y21100D03*
X48150D03*
X47900Y22450D03*
X49350D03*
X48400D03*
X48850D03*
X47850Y24600D03*
X47800Y25700D03*
X47933Y26333D03*
X47900Y25100D03*
X47750Y25400D03*
X50370Y3690D03*
Y3240D03*
Y4990D03*
X50440Y5760D03*
X55405Y9805D03*
X54850Y11000D03*
X55405Y12105D03*
X56193Y17257D03*
X56002Y17448D03*
X56845Y1635D03*
X56595Y1385D03*
X57100Y13600D03*
X56600Y13105D03*
X56575Y16875D03*
X56384Y17066D03*
X57100Y17750D03*
X56800Y19650D03*
X56600Y20800D03*
X59692Y941D03*
X59882Y1132D03*
X60073Y1323D03*
Y5237D03*
X59962Y5850D03*
X59692Y6300D03*
X59100Y8800D03*
X59050Y8050D03*
X59150Y9336D03*
X60500Y15350D03*
X60350Y15850D03*
X59650Y17150D03*
X60350Y17950D03*
X59900Y19250D03*
X62250Y2100D03*
X62200Y14400D03*
X61050Y14850D03*
X61550Y16350D03*
X60750Y17650D03*
X61250Y17400D03*
X62200Y19150D03*
X61000Y18250D03*
X62050Y20232D03*
Y20568D03*
X62950Y2250D03*
X64500Y3000D03*
X63650Y2400D03*
X62913Y16900D03*
X63250D03*
X66900Y4582D03*
X66250Y3736D03*
X66900Y4918D03*
X66250Y4073D03*
X67000Y16828D03*
X65750Y18250D03*
X67418Y1700D03*
X67082D03*
X67700Y3232D03*
Y3568D03*
X69150Y5350D03*
X68700Y7595D03*
Y18500D03*
X68800Y30400D03*
X70950Y19150D03*
X69650Y30400D03*
X71320Y36900D03*
X70780D03*
X70050Y36400D03*
X70702Y35558D03*
X71052Y35908D03*
X70702D03*
X71052Y35558D03*
X72250Y18300D03*
X72500Y19868D03*
Y19532D03*
X72050Y36350D03*
X71402Y35908D03*
Y35558D03*
X75569Y4350D03*
X74650Y4550D03*
X75232Y4350D03*
X74380Y4550D03*
X75569Y6750D03*
X75232D03*
X74210Y7830D03*
Y7494D03*
X74478Y10500D03*
X75478D03*
X74850D03*
X73850Y20132D03*
Y20468D03*
X74150Y21218D03*
Y20882D03*
X75050Y36150D03*
X75350D03*
X75650D03*
X74550Y36970D03*
Y36700D03*
X74610Y35600D03*
X75988Y5963D03*
X75978Y10500D03*
X77540Y12300D03*
Y13500D03*
X76265Y15035D03*
X76074Y15226D03*
X76400Y18750D03*
X76100Y18941D03*
X77700Y36150D03*
X77400D03*
X76900Y36700D03*
Y36970D03*
X76960Y35600D03*
X76341Y36841D03*
X76250Y36400D03*
X78100Y4950D03*
X79800Y16650D03*
X78950Y30250D03*
X78000D03*
Y36150D03*
X78600Y36400D03*
X78691Y36841D03*
X81550Y13650D03*
X80750Y12850D03*
X81780Y17873D03*
X81700Y22250D03*
X81150Y30400D03*
X82000D03*
X84300Y3900D03*
X84000Y6000D03*
X84050Y11350D03*
X82212Y17682D03*
X83752Y35558D03*
X83402D03*
X83052D03*
X83402Y35908D03*
X83052D03*
X83752D03*
X83670Y36900D03*
X82400Y36400D03*
X83130Y36900D03*
X86000Y7350D03*
X86354D03*
X84700Y9450D03*
X86175Y11475D03*
X85425Y10725D03*
X85675Y10975D03*
X85925Y11225D03*
X86000Y14100D03*
X84650Y20950D03*
X85400Y21550D03*
X84400Y36350D03*
X87060Y7350D03*
X86707D03*
X86750Y11700D03*
X87400Y14600D03*
X86900Y36970D03*
Y36700D03*
X86960Y35600D03*
X88600Y36400D03*
X88000Y36150D03*
X87700D03*
X87400D03*
X90230Y1780D03*
X89950Y6404D03*
X89400Y6850D03*
X89000Y13250D03*
X89600Y17670D03*
X89330Y18540D03*
X90350Y30250D03*
X89250Y36970D03*
Y36700D03*
X89310Y35600D03*
X88691Y36841D03*
X90350Y36150D03*
X89750D03*
X90050D03*
X92600Y2500D03*
X90780Y2230D03*
X91850Y1780D03*
X92800Y6650D03*
X92500Y6050D03*
X91000Y14000D03*
X92000Y14700D03*
X91050Y18540D03*
X91300Y30250D03*
X91041Y36841D03*
X90950Y36400D03*
X93700Y2700D03*
X94000Y6800D03*
X94450Y8000D03*
X93000Y8200D03*
X92975Y12375D03*
X93500Y12800D03*
X95518Y7500D03*
X95182D03*
X96000Y14350D03*
X96600Y15100D03*
X98500Y8450D03*
X97900Y7800D03*
X98837Y8450D03*
X98500Y32000D03*
X97400Y32420D03*
X97700D03*
X98000D03*
X98650Y38200D03*
X98150Y38620D03*
X97550D03*
X97850D03*
X101040Y4550D03*
X99650Y7800D03*
X101000Y16300D03*
X101400Y18000D03*
X99900Y22350D03*
X101000Y21800D03*
X103700Y24000D03*
X105100Y23950D03*
X107600Y24000D03*
X109450Y8350D03*
X109705Y14475D03*
X109000Y23950D03*
X111730Y8050D03*
X112330Y9300D03*
Y11500D03*
X112045Y9615D03*
Y11085D03*
X113500Y10400D03*
X113860Y11690D03*
X112750Y10800D03*
X114200D03*
X112750Y10000D03*
X114200Y9950D03*
X113260Y11740D03*
X113740Y29700D03*
Y30650D03*
X116250Y9200D03*
X114530Y9300D03*
X115100Y10650D03*
X114915Y9965D03*
Y11045D03*
X114570Y11500D03*
X116290Y34580D03*
X116325Y36565D03*
X115900Y41530D03*
X116285Y40165D03*
X116850Y9200D03*
X116780Y34556D03*
X117680Y36560D03*
X117623Y37110D03*
X117880Y38110D03*
X118180D03*
X117630D03*
X117880Y38710D03*
X118130D03*
X117630D03*
X117600Y39660D03*
X117680Y40210D03*
X117203Y41427D03*
X119100Y12000D03*
X119600Y11850D03*
X119640Y30650D03*
Y30950D03*
X119890Y30050D03*
X120331Y29959D03*
X119640Y31250D03*
Y33000D03*
Y33300D03*
X119890Y32400D03*
X120331Y32309D03*
X120460Y31750D03*
X120190D03*
X119090Y31690D03*
X119640Y33600D03*
X120460Y34100D03*
X120190D03*
X119090Y34040D03*
X119771Y37360D03*
X119790Y35930D03*
X119300Y35980D03*
X120680Y38710D03*
Y38110D03*
X119750Y39530D03*
X119595Y38045D03*
X118865D03*
X119595Y38775D03*
X118865D03*
Y38410D03*
X119750Y40880D03*
X119180Y40860D03*
X132960Y8330D03*
X133215Y14455D03*
X132960Y29780D03*
X133215Y35905D03*
X135240Y8030D03*
X135840Y9280D03*
X135555Y9595D03*
Y11065D03*
X135840Y11480D03*
X135240Y29480D03*
X135555Y31045D03*
X135840Y30730D03*
X135555Y32515D03*
X135840Y32930D03*
X138040Y9280D03*
X137370Y11670D03*
X137710Y9930D03*
X136260Y9980D03*
X137710Y10780D03*
X136260D03*
X137010Y10380D03*
X138080Y11480D03*
X136770Y11720D03*
X138040Y30730D03*
X137370Y33120D03*
X137710Y31380D03*
X136260Y31430D03*
X137710Y32230D03*
X136260D03*
X137010Y31830D03*
X138080Y32930D03*
X136770Y33170D03*
X139760Y9180D03*
X140360D03*
X138425Y9945D03*
X138610Y10630D03*
X138425Y11025D03*
X139760Y30630D03*
X140360D03*
X138425Y31395D03*
X138610Y32080D03*
X138425Y32475D03*
X143110Y11830D03*
X142610Y11980D03*
X143110Y33280D03*
X142610Y33430D03*
G54D21*
G01X22950Y21045D02*
X22898Y21097D01*
X11853D01*
X11600Y21350D01*
X10350D01*
X9600Y20600D01*
X9144D01*
X9094Y20650D01*
G01X12900Y17200D02*
X18303D01*
X18563Y16940D01*
X22470D01*
X22730Y17200D01*
X22890D01*
X23090Y17000D01*
X23670D01*
X23790Y17120D01*
X28870D01*
X28950Y17200D01*
G01D02*
X30950D01*
G01X85400Y21550D02*
Y21500D01*
X85300Y21400D01*
X79350D01*
X78450Y20500D01*
X74150D01*
X73850Y20800D01*
X56600D01*
G01X79800Y16650D02*
X79750Y16700D01*
X67950D01*
X67750Y16500D01*
X66400D01*
X66100Y16800D01*
X64650D01*
X64200Y16350D01*
X61550D01*
G01X97900Y7800D02*
X97750Y7650D01*
Y3800D01*
X97550Y3600D01*
X80200D01*
X78400Y1800D01*
X68150D01*
X67950Y2000D01*
X63950D01*
X63650Y2300D01*
Y2400D01*
G01X86500Y15800D02*
X86250Y16050D01*
Y16500D01*
X86100Y16650D01*
X79800D01*
G54D12*
X1050Y22700D03*
Y23100D03*
X6225Y6675D03*
X6650Y6250D03*
X6650Y13860D03*
X6200Y14300D03*
X7900Y22100D03*
X8100Y21900D03*
X7400Y21400D03*
X7750D03*
X8600Y20650D03*
X8000D03*
X8250Y24700D03*
X8500D03*
X10609Y20259D03*
X9094Y20650D03*
X9980Y24050D03*
X9844Y25194D03*
X12938Y19438D03*
X12900Y18850D03*
X11550Y20350D03*
X11950D03*
X13050Y21400D03*
X12700D03*
X12650Y22150D03*
X12450Y21950D03*
X12300Y24700D03*
X12000D03*
X13847Y10450D03*
X15200Y11803D03*
X14850D03*
X13600Y19438D03*
X13500Y18850D03*
X13800Y23250D03*
X16400Y3600D03*
X16750D03*
Y4100D03*
Y9050D03*
X16400Y8550D03*
X16750D03*
X16450Y11800D03*
X16800Y13950D03*
Y14550D03*
Y15050D03*
X16250Y23250D03*
X18700Y1800D03*
X17650Y4900D03*
X17800Y7350D03*
X17700Y10000D03*
X17800Y13100D03*
X17700Y15850D03*
X21673Y21850D03*
X21650Y21500D03*
X20900Y21750D03*
X21371Y22600D03*
X21400Y23800D03*
X20900Y23550D03*
X22150Y3500D03*
Y4200D03*
Y8450D03*
Y9150D03*
X23050Y10800D03*
X23600D03*
X22200Y14450D03*
Y15150D03*
X23672Y22072D03*
X21950Y21500D03*
X23800Y20900D03*
X24950Y5100D03*
X24900Y4225D03*
X25600Y4650D03*
X26100D03*
X24112Y10788D03*
X24350Y13168D03*
X25850Y11850D03*
X25400D03*
X24400Y14650D03*
Y14100D03*
X25850Y15180D03*
Y15490D03*
X24400Y19211D03*
Y19700D03*
X24600Y20800D03*
X24627Y21850D03*
X24650Y21500D03*
X24350D03*
X24050Y20650D03*
X27100Y4300D03*
X26636Y10400D03*
X26300D03*
X27700Y12614D03*
X26675Y12125D03*
X26164Y12100D03*
X26800Y13956D03*
X26350D03*
X28000Y13950D03*
X26350Y16794D03*
X26800D03*
X28000Y16800D03*
X28600Y15700D03*
Y15040D03*
X28912Y15476D03*
X28667Y27400D03*
X32000Y1600D03*
Y4650D03*
Y5050D03*
X31850Y13250D03*
X31200D03*
X31950Y15750D03*
X30950Y14750D03*
X31500Y16800D03*
X31600Y17200D03*
X30928Y24561D03*
X31950Y26050D03*
X30900Y25350D03*
X30833Y27450D03*
X34000Y4650D03*
X34500D03*
X33014Y4200D03*
X34214Y9450D03*
X34550D03*
X33020Y8470D03*
X33050Y13256D03*
X33775D03*
Y15706D03*
X33300Y15700D03*
X34100Y14500D03*
X34382Y14465D03*
X34493Y17007D03*
X34500Y17350D03*
X33300Y24600D03*
X33950Y25750D03*
X33050Y27453D03*
X32700D03*
X34300Y27450D03*
X35386Y5100D03*
Y4264D03*
X35380Y8430D03*
X36617Y27400D03*
X37350Y2400D03*
X38878Y24561D03*
X38850Y25350D03*
X37250Y27800D03*
X37950D03*
X38783Y27450D03*
X40700Y3600D03*
X39840Y6650D03*
X39440Y5950D03*
X40036Y8936D03*
X39564Y10350D03*
X40890Y11680D03*
X40740Y13350D03*
X40890Y15460D03*
Y15150D03*
X39900Y26050D03*
X41000Y26800D03*
X41700Y1250D03*
X42500Y3950D03*
X42250Y3700D03*
X41450Y3900D03*
X41440Y6650D03*
Y6150D03*
Y5600D03*
X42950Y6500D03*
X42090Y8280D03*
X42440D03*
X42890Y7630D03*
X41600Y10600D03*
X41750Y11550D03*
X41600Y13750D03*
X42450Y13400D03*
X42850Y14914D03*
X42875Y15925D03*
X42750Y14350D03*
X41650Y16950D03*
X41250Y24600D03*
X41900Y25750D03*
X41600Y26800D03*
X43710Y9000D03*
X43800Y17350D03*
X45150Y27800D03*
X44517Y27400D03*
X46600Y3350D03*
Y3950D03*
X47010Y6520D03*
X47610Y7990D03*
X47300Y9350D03*
X46550Y17900D03*
X46778Y24561D03*
X47650Y23400D03*
X46750Y25350D03*
X45850Y27800D03*
X46683Y27450D03*
X49100Y2900D03*
X49080Y3190D03*
X49070Y4290D03*
X49270D03*
X48600Y6310D03*
X49700Y6300D03*
X48170Y7640D03*
X49150Y24600D03*
X48200Y23400D03*
X49150Y25050D03*
X49194Y26400D03*
X47800Y26050D03*
X50170Y7640D03*
X50820Y7740D03*
X50050Y22550D03*
Y23050D03*
X58075Y24125D03*
X58100Y23150D03*
X58050Y25750D03*
X58450Y26150D03*
X64400Y400D03*
X64750Y2400D03*
X64150Y16900D03*
X63100Y23150D03*
X63075Y24125D03*
X63050Y25750D03*
X63450Y26150D03*
X68100Y23150D03*
X68075Y24125D03*
X68050Y25750D03*
X68450Y26150D03*
X69106Y34594D03*
X68600Y34050D03*
X69050Y37350D03*
X69600Y1425D03*
X70800Y3200D03*
X71150Y4850D03*
X69600Y10850D03*
X70550Y28150D03*
X71400Y34050D03*
X70800D03*
X70400D03*
X69300Y37350D03*
X70644Y38094D03*
X71550Y3650D03*
X71650Y18000D03*
Y21400D03*
X73100Y23150D03*
X73075Y24125D03*
X73050Y25750D03*
X73450Y26150D03*
X73500Y34050D03*
X73044Y34544D03*
X73100Y37350D03*
X72800D03*
X71456Y38094D03*
X74950Y4050D03*
X75400Y14500D03*
Y17940D03*
X75494Y34550D03*
X74150Y34000D03*
X73850D03*
X73873Y34350D03*
X77540Y660D03*
X77800Y3000D03*
X75900Y1425D03*
X76676Y3274D03*
X77200Y3850D03*
X76750Y6700D03*
X77200Y9100D03*
X77800Y9700D03*
X77844Y34600D03*
Y33406D03*
X76500Y34000D03*
X76200D03*
X76223Y34350D03*
X78000Y2100D03*
X78850Y4900D03*
X79300Y10200D03*
X78500Y13900D03*
X78350Y14950D03*
X79300Y16350D03*
X78250Y18300D03*
X80800Y7374D03*
X81456Y34594D03*
X80950Y34050D03*
X81400Y37350D03*
X81650D03*
X83350Y9700D03*
X83750Y10200D03*
X82245Y12845D03*
X82750Y34050D03*
X83150D03*
X83750D03*
X83806Y38094D03*
X82994D03*
X84600Y8700D03*
X84450Y12250D03*
X85394Y34544D03*
X85850Y34050D03*
X86500Y34000D03*
X86200D03*
X86223Y34350D03*
X85450Y37350D03*
X85150D03*
X88550Y34000D03*
X88573Y34350D03*
X87844Y34550D03*
X88850Y34000D03*
X90194Y34600D03*
Y33406D03*
X94023Y8977D03*
X94750Y9350D03*
X94450Y13900D03*
Y14600D03*
X96300Y9350D03*
X98400Y31550D03*
X98550Y37750D03*
X102250Y23400D03*
X103800Y24497D03*
X106580Y6950D03*
X106686Y8110D03*
X106376D03*
X107000Y8150D03*
X107080Y9330D03*
X107700Y24497D03*
X106150Y23400D03*
X107820Y32560D03*
Y32250D03*
X107720Y38500D03*
Y38810D03*
X109460Y7600D03*
X109780D03*
X109050Y8944D03*
X109344D03*
X108950Y31480D03*
X109350Y31550D03*
X109250Y37800D03*
X108850Y37730D03*
X111650Y23150D03*
X111625Y24125D03*
X112000Y26150D03*
X111600Y25750D03*
X115400Y23200D03*
X115375Y24175D03*
X115750Y26200D03*
X115350Y25800D03*
X116336Y37016D03*
Y38660D03*
Y38260D03*
Y39804D03*
X116896Y30806D03*
X118090D03*
X118040Y33156D03*
X117840Y32427D03*
X117490Y32450D03*
Y32150D03*
X119824Y12150D03*
X119930Y13450D03*
X119930Y13800D03*
X119100Y23200D03*
X119075Y24175D03*
X119450Y26200D03*
X119050Y25800D03*
X122950Y23200D03*
X122925Y24175D03*
X122900Y25800D03*
X123300Y26200D03*
X130090Y6930D03*
X130196Y8090D03*
X129886D03*
X130510Y8130D03*
X130590Y9310D03*
X130090Y28380D03*
X130196Y29540D03*
X129886D03*
X130510Y29580D03*
X130590Y30760D03*
X132560Y8924D03*
X132854D03*
X132970Y7580D03*
X133290D03*
X132970Y29030D03*
X133290D03*
X132560Y30374D03*
X132854D03*
X143440Y13430D03*
X143440Y13780D03*
X143334Y12130D03*
X143440Y34880D03*
X143440Y35230D03*
X143334Y33580D03*
G54D22*
G01X2800Y22350D02*
X2300Y22850D01*
G01D02*
X2800Y23350D01*
G01X22600Y12000D02*
X22200D01*
G01X22600D02*
X24900D01*
X25050Y11850D01*
X25400D01*
G01X24350Y13168D02*
X26800D01*
X27142Y13510D01*
X28290D01*
X28486Y13314D01*
Y13000D01*
G01X25400Y11850D02*
X25850D01*
G01X98400Y31550D02*
Y31900D01*
X98500Y32000D01*
G01X98550Y37750D02*
Y38100D01*
X98650Y38200D01*
G54D13*
G01X41000Y26800D02*
X41600D01*
G01D02*
X41650D01*
X41880Y27030D01*
X43777D01*
X43782Y27035D01*
X44018D01*
X44023Y27030D01*
X44320D01*
X44400Y26950D01*
X47950D01*
X49050Y25850D01*
X50300D01*
X50900Y25250D01*
Y17250D01*
X50700Y17050D01*
X49950D01*
G01D02*
X49450D01*
X2124Y28900D03*
X1624D03*
X1124D03*
X624D03*
X3550Y2895D03*
X4124Y28900D03*
X3624D03*
X3124D03*
X2624D03*
X4750Y24305D03*
X6624Y28900D03*
X6124D03*
X5624D03*
X5124D03*
X4624D03*
X8624D03*
X8124D03*
X7624D03*
X7124D03*
X10624D03*
X10124D03*
X9624D03*
X9124D03*
X12624D03*
X12124D03*
X11624D03*
X11124D03*
X15124D03*
X14624D03*
X14124D03*
X13624D03*
X13124D03*
X17124D03*
X16624D03*
X16124D03*
X15624D03*
X19124D03*
X18624D03*
X18124D03*
X17624D03*
X21624D03*
X21124D03*
X20624D03*
X20124D03*
X19624D03*
X23624D03*
X23124D03*
X22624D03*
X22124D03*
X25624D03*
X25124D03*
X24624D03*
X24124D03*
X28124D03*
X27624D03*
X27124D03*
X26624D03*
X26124D03*
X30124D03*
X29624D03*
X29124D03*
X28624D03*
X32124D03*
X31624D03*
X31124D03*
X30624D03*
X34624D03*
X34124D03*
X33624D03*
X33124D03*
X32624D03*
X36624D03*
X36124D03*
X35624D03*
X35124D03*
X38624D03*
X38124D03*
X37624D03*
X37124D03*
X41124D03*
X40624D03*
X40124D03*
X39624D03*
X39124D03*
X43124D03*
X42624D03*
X42124D03*
X41624D03*
X45124D03*
X44624D03*
X44124D03*
X43624D03*
X47124D03*
X46624D03*
X46124D03*
X45624D03*
X49624D03*
X49124D03*
X48624D03*
X48124D03*
X47624D03*
X51624D03*
X51124D03*
X50624D03*
X50124D03*
X52135Y794D03*
Y294D03*
Y2794D03*
Y2294D03*
Y1794D03*
Y1294D03*
Y4794D03*
Y4294D03*
Y3794D03*
Y3294D03*
Y7294D03*
Y6794D03*
Y6294D03*
Y5794D03*
Y5294D03*
Y9294D03*
Y8794D03*
Y8294D03*
Y7794D03*
Y11294D03*
Y10794D03*
Y10294D03*
Y9794D03*
Y13794D03*
Y13294D03*
Y12794D03*
Y12294D03*
Y11794D03*
Y15794D03*
Y15294D03*
Y14794D03*
Y14294D03*
Y17794D03*
Y17294D03*
Y16794D03*
Y16294D03*
Y20294D03*
Y19794D03*
Y19294D03*
Y18794D03*
Y18294D03*
Y22294D03*
Y21794D03*
Y21294D03*
Y20794D03*
Y24294D03*
Y23794D03*
Y23294D03*
Y22794D03*
Y26794D03*
Y26294D03*
Y25794D03*
Y25294D03*
Y24794D03*
Y28294D03*
Y27794D03*
Y27294D03*
X53624Y28900D03*
X53124D03*
X52624D03*
X52124D03*
X56124D03*
X55624D03*
X55124D03*
X54624D03*
X54124D03*
X58124D03*
X57624D03*
X57124D03*
X56624D03*
X60124D03*
X59624D03*
X59124D03*
X58624D03*
X62624D03*
X62124D03*
X61624D03*
X61124D03*
X60624D03*
X64624D03*
X64124D03*
X63624D03*
X63124D03*
X66624D03*
X66124D03*
X65624D03*
X65124D03*
X69124D03*
X68624D03*
X68124D03*
X67624D03*
X67124D03*
X67495Y30474D03*
Y29474D03*
Y29974D03*
Y30974D03*
Y32474D03*
Y31474D03*
Y31974D03*
Y32974D03*
Y34474D03*
Y33474D03*
Y33974D03*
Y34974D03*
Y35974D03*
Y36474D03*
Y36974D03*
Y37474D03*
Y35474D03*
Y38974D03*
Y37974D03*
Y38474D03*
Y39474D03*
Y40974D03*
Y39974D03*
Y40474D03*
Y41474D03*
X71124Y28900D03*
X70624D03*
X70124D03*
X69624D03*
X73124D03*
X72624D03*
X72124D03*
X71624D03*
X75624D03*
X75124D03*
X74624D03*
X74124D03*
X73624D03*
X77624D03*
X77124D03*
X76624D03*
X76124D03*
X79624D03*
X79124D03*
X78624D03*
X78124D03*
X81624D03*
X81124D03*
X80624D03*
X80124D03*
X80155Y30544D03*
Y29544D03*
Y30044D03*
Y31044D03*
Y32544D03*
Y31544D03*
Y32044D03*
Y33044D03*
Y34544D03*
Y33544D03*
Y34044D03*
Y35044D03*
Y36044D03*
Y36544D03*
Y37044D03*
Y37544D03*
Y35544D03*
Y39044D03*
Y38044D03*
Y38544D03*
Y39544D03*
Y41044D03*
Y40044D03*
Y40544D03*
Y41544D03*
X84124Y28900D03*
X83624D03*
X83124D03*
X82624D03*
X82124D03*
X86124D03*
X85624D03*
X85124D03*
X84624D03*
X88124D03*
X87624D03*
X87124D03*
X86624D03*
X90624D03*
X90124D03*
X89624D03*
X89124D03*
X88624D03*
X92624D03*
X92124D03*
X91624D03*
X91124D03*
X92475Y30544D03*
Y29544D03*
Y30044D03*
Y31044D03*
Y32544D03*
Y31544D03*
Y32044D03*
Y33044D03*
Y34544D03*
Y33544D03*
Y34044D03*
Y35044D03*
Y36044D03*
Y36544D03*
Y37044D03*
Y37544D03*
Y35544D03*
Y39044D03*
Y38044D03*
Y38544D03*
Y39544D03*
Y41044D03*
Y40044D03*
Y40544D03*
Y41544D03*
X94624Y28900D03*
X94124D03*
X93624D03*
X93124D03*
X94694Y35640D03*
X94194D03*
X93694D03*
X93194D03*
X97124Y28900D03*
X96624D03*
X96124D03*
X95624D03*
X95124D03*
X97194Y35640D03*
X96694D03*
X96194D03*
X95694D03*
X95194D03*
X99124Y28900D03*
X98624D03*
X98124D03*
X97624D03*
X98694Y35640D03*
X98194D03*
X97694D03*
X99194D03*
X101124Y28900D03*
X100624D03*
X100124D03*
X99624D03*
X101194Y35640D03*
X100694D03*
X100194D03*
X99694D03*
X101885Y294D03*
Y794D03*
Y1294D03*
Y1794D03*
Y2294D03*
Y2794D03*
Y3294D03*
Y3794D03*
Y4294D03*
Y4794D03*
Y5794D03*
Y6294D03*
Y6794D03*
Y7294D03*
Y5294D03*
Y7794D03*
Y8294D03*
Y8794D03*
Y9294D03*
Y9794D03*
Y10294D03*
Y10794D03*
Y11294D03*
Y11794D03*
Y12294D03*
Y12794D03*
Y13294D03*
Y13794D03*
Y14294D03*
Y14794D03*
Y15294D03*
Y15794D03*
Y16294D03*
Y16794D03*
Y17294D03*
Y17794D03*
Y18294D03*
Y18794D03*
Y19294D03*
Y19794D03*
Y20294D03*
X103004Y21170D03*
X102504D03*
X103504D03*
X101885Y20794D03*
Y21294D03*
Y21794D03*
Y22294D03*
Y22794D03*
Y23294D03*
Y23794D03*
Y24294D03*
Y24794D03*
Y25294D03*
Y25794D03*
Y26294D03*
Y26794D03*
Y27294D03*
Y27794D03*
Y28294D03*
X103624Y28900D03*
X103124D03*
X102624D03*
X102124D03*
X101624D03*
X102945Y30444D03*
Y29444D03*
Y29944D03*
Y30944D03*
Y32444D03*
Y31444D03*
Y31944D03*
Y32944D03*
Y34444D03*
Y33444D03*
Y33944D03*
Y34944D03*
X102194Y35640D03*
X101694D03*
X102945Y35944D03*
Y36444D03*
Y36944D03*
Y37444D03*
Y35444D03*
Y38944D03*
Y37944D03*
Y38444D03*
Y39444D03*
Y40944D03*
Y39944D03*
Y40444D03*
Y41444D03*
X105705Y21804D03*
Y22304D03*
X105504Y21170D03*
X105004D03*
X104504D03*
X104004D03*
X105705Y22804D03*
Y23304D03*
Y23804D03*
Y24304D03*
Y24804D03*
Y25304D03*
Y25804D03*
Y26304D03*
Y26804D03*
Y27304D03*
Y27804D03*
Y28304D03*
X105624Y28900D03*
X105124D03*
X104624D03*
X104124D03*
X105694Y35640D03*
X105194D03*
X104694D03*
X104194D03*
X103694D03*
X107504Y21170D03*
X107004D03*
X106504D03*
X106004D03*
X107624Y28900D03*
X107124D03*
X106624D03*
X106124D03*
X107194Y35640D03*
X106694D03*
X106194D03*
X107694D03*
X109504Y21170D03*
X109004D03*
X108504D03*
X108004D03*
X110004D03*
X110124Y28900D03*
X109624D03*
X109124D03*
X108624D03*
X108124D03*
X109694Y35640D03*
X109194D03*
X108694D03*
X108194D03*
X112004Y21170D03*
X111504D03*
X111004D03*
X110504D03*
X112124Y28900D03*
X111624D03*
X111124D03*
X110624D03*
X112194Y35640D03*
X111694D03*
X111194D03*
X110694D03*
X110194D03*
X113455Y21824D03*
Y22324D03*
X114004Y21170D03*
X113504D03*
X113004D03*
X112504D03*
X113455Y22824D03*
Y23324D03*
Y23824D03*
Y24324D03*
Y24824D03*
Y25324D03*
Y25824D03*
Y26324D03*
Y27324D03*
Y27824D03*
Y28324D03*
Y26824D03*
X114124Y28900D03*
X113624D03*
X113124D03*
X112624D03*
X112845Y30944D03*
Y29944D03*
Y29444D03*
Y30444D03*
Y32944D03*
Y31944D03*
Y31444D03*
Y32444D03*
Y34944D03*
Y33944D03*
Y33444D03*
Y34444D03*
Y37444D03*
Y36944D03*
Y36444D03*
Y35944D03*
Y35444D03*
Y39444D03*
Y38444D03*
Y37944D03*
Y38944D03*
Y41444D03*
Y40444D03*
Y39944D03*
Y40944D03*
X116504Y21170D03*
X116004D03*
X115504D03*
X115004D03*
X114504D03*
X116124Y28900D03*
X115624D03*
X115124D03*
X114624D03*
X117205Y21814D03*
Y22314D03*
X118004Y21170D03*
X117504D03*
X117004D03*
X118504D03*
X117205Y22814D03*
Y23314D03*
Y23814D03*
Y24314D03*
Y24814D03*
Y25314D03*
Y25814D03*
Y26314D03*
Y27314D03*
Y27814D03*
Y28314D03*
Y26814D03*
X118624Y28900D03*
X118124D03*
X117624D03*
X117124D03*
X116624D03*
X120504Y21170D03*
X120004D03*
X119504D03*
X119004D03*
X120624Y28900D03*
X120124D03*
X119624D03*
X119124D03*
X120955Y21824D03*
Y22324D03*
X123004Y21170D03*
X122504D03*
X122004D03*
X121504D03*
X121004D03*
X120955Y22824D03*
Y23324D03*
Y23824D03*
Y24324D03*
Y24824D03*
Y25324D03*
Y25824D03*
Y26324D03*
Y27324D03*
Y27824D03*
Y28324D03*
Y26824D03*
X122624Y28900D03*
X122124D03*
X121624D03*
X121124D03*
X125095Y644D03*
Y1144D03*
Y2644D03*
Y2144D03*
Y1644D03*
Y3144D03*
Y5144D03*
Y4644D03*
Y4144D03*
Y3644D03*
Y5644D03*
Y7144D03*
Y6644D03*
Y6144D03*
Y7644D03*
Y9144D03*
Y8644D03*
Y8144D03*
Y9644D03*
Y11644D03*
Y11144D03*
Y10644D03*
Y10144D03*
Y12144D03*
Y13644D03*
Y13144D03*
Y12644D03*
X125125Y14784D03*
Y14284D03*
Y15784D03*
Y15284D03*
Y16784D03*
Y16284D03*
Y17784D03*
Y17284D03*
Y18784D03*
Y18284D03*
Y20284D03*
Y19784D03*
Y19284D03*
X124504Y21170D03*
X124004D03*
X123504D03*
X125124D03*
X125125Y22284D03*
Y21784D03*
Y23284D03*
Y22784D03*
Y24284D03*
Y23784D03*
Y25284D03*
Y24784D03*
Y26784D03*
Y26284D03*
Y25784D03*
X124624Y28900D03*
X124124D03*
X123624D03*
X123124D03*
X125125Y27784D03*
Y27284D03*
Y28784D03*
Y28284D03*
Y29784D03*
Y29284D03*
Y30784D03*
Y30284D03*
Y31784D03*
Y31284D03*
Y32784D03*
Y32284D03*
Y34284D03*
Y33784D03*
Y33284D03*
Y35284D03*
Y34784D03*
Y36284D03*
Y35784D03*
Y37284D03*
Y36784D03*
Y38284D03*
Y37784D03*
Y39284D03*
Y38784D03*
Y40784D03*
Y40284D03*
Y39784D03*
Y41784D03*
Y41284D03*
Y42284D03*
X127124Y21170D03*
X126624D03*
X126124D03*
X125624D03*
X127624D03*
X129124D03*
X128624D03*
X128124D03*
X129624D03*
X131624D03*
X131124D03*
X130624D03*
X130124D03*
X133624D03*
X133124D03*
X132624D03*
X132124D03*
X134124D03*
X135624D03*
X135124D03*
X134624D03*
X136124D03*
X138124D03*
X137624D03*
X137124D03*
X136624D03*
X140124D03*
X139624D03*
X139124D03*
X138624D03*
X142124D03*
X141624D03*
X141124D03*
X140624D03*
X142624D03*
X144624D03*
X144124D03*
X143624D03*
X143124D03*
X146624D03*
X146124D03*
X145624D03*
X145124D03*
X147624D03*
X147124D03*
G54D23*
G01X17250Y16150D02*
X23100D01*
X23345Y15905D01*
X24005D01*
X24200Y16100D01*
X28700D01*
X29300Y16700D01*
X30653D01*
X31253Y16100D01*
X35550D01*
G01X36100Y16350D02*
X31450D01*
X30860Y16940D01*
X28740D01*
X28300Y16500D01*
X26276D01*
X25892Y16884D01*
X24424D01*
X24220Y16680D01*
X23070D01*
X22850Y16900D01*
G01X31100Y1650D02*
X31450Y1300D01*
X33700D01*
X33950Y1550D01*
X36900D01*
X37350Y2000D01*
Y2400D01*
G01X56000Y38050D02*
X57641Y36409D01*
X61740D01*
G01X84650Y20950D02*
X80550D01*
X79350Y19750D01*
X73300D01*
X72850Y20200D01*
X71350D01*
X70800Y19650D01*
X56800D01*
G01X75400Y17940D02*
X75360Y17900D01*
X71750D01*
X71650Y18000D01*
G01X78500Y13900D02*
X81950D01*
X82200Y13650D01*
X94200D01*
X94450Y13900D01*
G54D14*
X2000Y30500D03*
Y40500D03*
X4340Y1200D03*
Y26000D03*
X25836Y2184D03*
Y24448D03*
X32500Y11600D03*
X50150Y1181D03*
Y11600D03*
Y27350D03*
X54250Y1181D03*
Y19619D03*
X60500Y11600D03*
X65000Y30500D03*
Y40500D03*
X81500Y1181D03*
Y19619D03*
X98500Y1181D03*
Y19619D03*
X104980Y1181D03*
Y19619D03*
X121980Y1181D03*
Y19619D03*
X128490Y1161D03*
Y19599D03*
Y22611D03*
Y41049D03*
X145490Y1161D03*
Y19599D03*
Y22611D03*
Y41049D03*
G54D24*
G01X2124Y5174D02*
X2300Y5350D01*
G01X2124Y3674D02*
X2300Y3850D01*
G01X2124Y4026D02*
X2300Y3850D01*
G01X2124Y7174D02*
X2300Y7350D01*
G01X2124Y5674D02*
X2300Y5850D01*
G01X2124Y6026D02*
X2300Y5850D01*
G01X2124Y5526D02*
X2300Y5350D01*
G01X2124Y9174D02*
X2300Y9350D01*
G01X2124Y9526D02*
X2300Y9350D01*
G01X2124Y7674D02*
X2300Y7850D01*
G01X2124Y8026D02*
X2300Y7850D01*
G01X2124Y7526D02*
X2300Y7350D01*
G01X2124Y11674D02*
X2300Y11850D01*
G01X2124Y11174D02*
X2300Y11350D01*
G01X2124Y11526D02*
X2300Y11350D01*
G01X2124Y9674D02*
X2300Y9850D01*
G01X2124Y10026D02*
X2300Y9850D01*
G01X2124Y13674D02*
X2300Y13850D01*
G01X2124Y13174D02*
X2300Y13350D01*
G01X2124Y13526D02*
X2300Y13350D01*
G01X2124Y12026D02*
X2300Y11850D01*
G01X2124Y15674D02*
X2300Y15850D01*
G01X2124Y16026D02*
X2300Y15850D01*
G01X2124Y15526D02*
X2300Y15350D01*
G01X2124Y14026D02*
X2300Y13850D01*
G01X2124Y17674D02*
X2300Y17850D01*
G01X2124Y18026D02*
X2300Y17850D01*
G01X2124Y17174D02*
X2300Y17350D01*
G01X2124Y17526D02*
X2300Y17350D01*
G01X2124Y19674D02*
X2300Y19850D01*
G01X2124Y20026D02*
X2300Y19850D01*
G01X2124Y19174D02*
X2300Y19350D01*
G01X2124Y19526D02*
X2300Y19350D01*
G01X2124Y22174D02*
X2300Y22350D01*
G01X2124Y22526D02*
X2300Y22350D01*
G01X2124Y21174D02*
X2300Y21350D01*
G01X2124Y21526D02*
X2300Y21350D01*
G01X2124Y23174D02*
X2300Y23350D01*
G01X2124Y23526D02*
X2300Y23350D01*
G01X3563Y423D02*
X4340Y1200D01*
G01D02*
X5117Y1977D01*
G01X3563D02*
X4340Y1200D01*
G01D02*
X5117Y423D01*
G01X2624Y4674D02*
X2800Y4850D01*
G01D02*
X2976Y5026D01*
G01X2624D02*
X2800Y4850D01*
G01D02*
X2976Y4674D01*
G01X2624Y4174D02*
X2800Y4350D01*
G01D02*
X2976Y4526D01*
G01X2624D02*
X2800Y4350D01*
G01D02*
X2976Y4174D01*
G01X4124Y5174D02*
X4300Y5350D01*
G01Y3850D02*
X4476Y4026D01*
G01X4124D02*
X4300Y3850D01*
G01X2300Y5350D02*
X2476Y5174D01*
G01X2300Y3850D02*
X2476Y4026D01*
G01X2300Y3850D02*
X2476Y3674D01*
G01X2624Y6674D02*
X2800Y6850D01*
G01D02*
X2976Y7026D01*
G01X2624D02*
X2800Y6850D01*
G01D02*
X2976Y6674D01*
G01X2624Y6174D02*
X2800Y6350D01*
G01D02*
X2976Y6526D01*
G01X2624D02*
X2800Y6350D01*
G01D02*
X2976Y6174D01*
G01X4124Y5674D02*
X4300Y5850D01*
G01D02*
X4476Y6026D01*
G01X4124D02*
X4300Y5850D01*
G01D02*
X4476Y5674D01*
G01X4300Y5350D02*
X4476Y5526D01*
G01X4124D02*
X4300Y5350D01*
G01D02*
X4476Y5174D01*
G01X2300Y7350D02*
X2476Y7526D01*
G01X2300Y7350D02*
X2476Y7174D01*
G01X2300Y5850D02*
X2476Y6026D01*
G01X2300Y5850D02*
X2476Y5674D01*
G01X2300Y5350D02*
X2476Y5526D01*
G01X2624Y8174D02*
X2800Y8350D01*
G01D02*
X2976Y8526D01*
G01X2624D02*
X2800Y8350D01*
G01D02*
X2976Y8174D01*
G01X2300Y9350D02*
X2476Y9526D01*
G01X2300Y9350D02*
X2476Y9174D01*
G01X2300Y7850D02*
X2476Y8026D01*
G01X2300Y7850D02*
X2476Y7674D01*
G01X2624Y9674D02*
X2800Y9850D01*
G01X2624Y11174D02*
X2800Y11350D01*
G01D02*
X2976Y11526D01*
G01X2624D02*
X2800Y11350D01*
G01D02*
X2976Y11174D01*
G01X2624Y10026D02*
X2800Y9850D01*
G01D02*
X2976Y9674D01*
G01X4124Y11674D02*
X4300Y11850D01*
G01X2300D02*
X2476Y11674D01*
G01X2300Y11350D02*
X2476Y11526D01*
G01X2300Y11350D02*
X2476Y11174D01*
G01X2300Y9850D02*
X2476Y10026D01*
G01X2300Y9850D02*
X2476Y9674D01*
G01X2624Y12674D02*
X2800Y12850D01*
G01D02*
X2976Y13026D01*
G01X2624D02*
X2800Y12850D01*
G01D02*
X2976Y12674D01*
G01X4124Y13174D02*
X4300Y13350D01*
G01X4124Y13526D02*
X4300Y13350D01*
G01D02*
X4476Y13174D01*
G01X4300Y11850D02*
X4476Y11674D01*
G01X2300Y13850D02*
X2476Y13674D01*
G01X2300Y13350D02*
X2476Y13526D01*
G01X2300Y13350D02*
X2476Y13174D01*
G01X2624Y15674D02*
X2800Y15850D01*
G01D02*
X2976Y16026D01*
G01X2624D02*
X2800Y15850D01*
G01D02*
X2976Y15674D01*
G01X2300Y15850D02*
X2476Y16026D01*
G01X2300Y15850D02*
X2476Y15674D01*
G01X2300Y15350D02*
X2476Y15526D01*
G01X2624Y17174D02*
X2800Y17350D01*
G01D02*
X2976Y17526D01*
G01X2624D02*
X2800Y17350D01*
G01D02*
X2976Y17174D01*
G01X4124Y17674D02*
X4300Y17850D01*
G01D02*
X4476Y18026D01*
G01X4124D02*
X4300Y17850D01*
G01D02*
X4476Y17674D01*
G01X4124Y16174D02*
X4300Y16350D01*
G01D02*
X4476Y16174D01*
G01X2300Y17850D02*
X2476Y18026D01*
G01X2300Y17850D02*
X2476Y17674D01*
G01X2300Y17350D02*
X2476Y17526D01*
G01X2300Y17350D02*
X2476Y17174D01*
G01X4300Y19350D02*
X4476Y19526D01*
G01X4124D02*
X4300Y19350D01*
G01X2300Y19850D02*
X2476Y20026D01*
G01X2300Y19850D02*
X2476Y19674D01*
G01X2300Y19350D02*
X2476Y19526D01*
G01X2300Y19350D02*
X2476Y19174D01*
G01X2624Y21674D02*
X2800Y21850D01*
G01D02*
X2976Y22026D01*
G01X2624D02*
X2800Y21850D01*
G01D02*
X2976Y21674D01*
G01X4124Y22174D02*
X4300Y22350D01*
G01D02*
X4476Y22526D01*
G01X4124D02*
X4300Y22350D01*
G01D02*
X4476Y22174D01*
G01X4124Y20674D02*
X4300Y20850D01*
G01X4124Y21026D02*
X4300Y20850D01*
G01X2300Y22350D02*
X2476Y22174D01*
G01X2300Y21350D02*
X2476Y21526D01*
G01X2300Y21350D02*
X2476Y21174D01*
G01X2800Y22850D02*
X2976Y23026D01*
G01X2800Y22850D02*
X2976Y22674D01*
G01X4124Y23174D02*
X4300Y23350D01*
G01D02*
X4476Y23174D01*
G01X2300Y23350D02*
X2476Y23526D01*
G01X3563Y25223D02*
X4340Y26000D01*
G01D02*
X5117Y26777D01*
G01X3563D02*
X4340Y26000D01*
G01D02*
X5117Y25223D01*
G01X4624Y4674D02*
X4800Y4850D01*
G01D02*
X4976Y5026D01*
G01X4624D02*
X4800Y4850D01*
G01D02*
X4976Y4674D01*
G01X4624Y6174D02*
X4800Y6350D01*
G01D02*
X4976Y6526D01*
G01X4624D02*
X4800Y6350D01*
G01D02*
X4976Y6174D01*
G01X4624Y9174D02*
X4800Y9350D01*
G01D02*
X4976Y9174D01*
G01X4800Y15350D02*
X4976Y15526D01*
G01X4624D02*
X4800Y15350D01*
G01X4624Y18174D02*
X4800Y18350D01*
G01D02*
X4976Y18174D01*
G01X4624Y22674D02*
X4800Y22850D01*
G01D02*
X4976Y23026D01*
G01X4624D02*
X4800Y22850D01*
G01D02*
X4976Y22674D01*
G01X8100Y17835D02*
X8300D01*
G01D02*
X8500D01*
G01X7750Y21180D02*
Y21400D01*
G01D02*
Y21620D01*
G01Y21400D02*
X7970D01*
G01X7400Y21180D02*
Y21400D01*
G01D02*
Y21620D01*
G01X7180Y21400D02*
X7400D01*
G01X7900Y22100D02*
Y22320D01*
G01X7680Y22100D02*
X7900D01*
G01D02*
X8120D01*
G01X8500Y24480D02*
Y24700D01*
G01X8250Y24480D02*
Y24700D01*
G01X8500D02*
X8720D01*
G01X8030D02*
X8250D01*
G01X10600Y3906D02*
Y4106D01*
G01D02*
Y4306D01*
G01X10400Y4106D02*
X10600D01*
G01D02*
X10800D01*
G01X9050Y15450D02*
Y15650D01*
G01X8850D02*
X9050D01*
G01D02*
X9250D01*
G01X10758Y15142D02*
X10958D01*
G01X9800Y17835D02*
X10000D01*
G01D02*
X10200D01*
G01X9450Y16200D02*
Y16400D01*
G01D02*
Y16600D01*
G01X9250Y16400D02*
X9450D01*
G01D02*
X9650D01*
G01X11850Y3700D02*
Y3900D01*
G01D02*
Y4100D01*
G01X11650Y3900D02*
X11850D01*
G01D02*
X12050D01*
G01X11200Y9950D02*
Y10150D01*
G01Y9950D02*
X11400D01*
G01X11850Y10350D02*
Y10550D01*
G01X11650D02*
X11850D01*
G01D02*
X12050D01*
G01X11850Y11850D02*
Y12050D01*
G01X11650Y11850D02*
X11850D01*
G01D02*
X12050D01*
G01X10958Y15142D02*
X11158D01*
G01X11200Y17900D02*
Y18100D01*
G01X11000Y17900D02*
X11200D01*
G01D02*
X11400D01*
G01X11850Y18300D02*
Y18500D01*
G01X11650D02*
X11850D01*
G01D02*
X12050D01*
G01X12480Y21400D02*
X12700D01*
G01X12650Y22150D02*
Y22370D01*
G01X12430Y22150D02*
X12650D01*
G01D02*
X12870D01*
G01X12700Y21400D02*
Y21620D01*
G01X11430Y23160D02*
Y23360D01*
G01Y23160D02*
X11630D01*
G01X11430Y22680D02*
Y22880D01*
G01D02*
X11630D01*
G01X12000Y24480D02*
Y24700D01*
G01X12133Y22633D02*
X12450Y22950D01*
G01D02*
X12767Y23267D01*
G01X12133D02*
X12450Y22950D01*
G01D02*
X12767Y22633D01*
G01X11780Y24700D02*
X12000D01*
G01X15150Y5350D02*
Y5550D01*
G01D02*
Y5750D01*
G01X14950Y5550D02*
X15150D01*
G01D02*
X15350D01*
G01X15150Y5850D02*
Y6050D01*
G01X14950D02*
X15150D01*
G01D02*
X15350D01*
G01X13750Y14050D02*
Y14250D01*
G01X15100Y15450D02*
X15300D01*
G01X13550Y14250D02*
X13750D01*
G01D02*
X13950D01*
G01X14950Y14000D02*
X15150D01*
G01D02*
X15350D01*
G01X15044Y15144D02*
Y15344D01*
G01Y15144D02*
X15244D01*
G01X15100Y16850D02*
X15300D01*
G01X13050Y21400D02*
Y21620D01*
G01Y21400D02*
X13270D01*
G01X16750Y3880D02*
Y4100D01*
G01D02*
Y4320D01*
G01X16530Y4100D02*
X16750D01*
G01D02*
X16970D01*
G01X16750Y3600D02*
Y3820D01*
G01Y3600D02*
X16970D01*
G01X16400D02*
Y3820D01*
G01X16180Y3600D02*
X16400D01*
G01X16427Y5973D02*
Y6173D01*
G01D02*
X16627D01*
G01X16450Y11800D02*
Y12020D01*
G01X16230Y11800D02*
X16450D01*
G01D02*
X16670D01*
G01X16580Y13950D02*
X16800D01*
G01X16580Y14550D02*
X16800D01*
G01X15300Y15250D02*
Y15450D01*
G01D02*
Y15650D01*
G01Y15450D02*
X15500D01*
G01X16800Y14550D02*
X17020D01*
G01X16800Y13950D02*
X17020D01*
G01X15300Y16150D02*
Y16350D01*
G01Y16150D02*
X15500D01*
G01X15300Y16850D02*
X15500D01*
G01X16657Y23087D02*
X17045Y23475D01*
G01D02*
X17433Y23863D01*
G01X16657D02*
X17045Y23475D01*
G01D02*
X17433Y23087D01*
G01X17650Y4680D02*
Y4900D01*
G01D02*
Y5120D01*
G01X17430Y4900D02*
X17650D01*
G01D02*
X17870D01*
G01X17580Y7350D02*
X17800D01*
G01D02*
X18020D01*
G01X17480Y10000D02*
X17700D01*
G01D02*
X17920D01*
G01X19350Y20450D02*
X19550D01*
G01X18307Y23087D02*
X18695Y23475D01*
G01D02*
X19083Y23863D01*
G01X18307D02*
X18695Y23475D01*
G01D02*
X19083Y23087D01*
G01X20723Y19423D02*
Y19623D01*
G01X20523Y19423D02*
X20723D01*
G01D02*
X20923D01*
G01X21673Y21850D02*
Y22070D01*
G01X21453Y21850D02*
X21673D01*
G01D02*
X21893D01*
G01X19550Y20450D02*
X19750D01*
G01X22150Y3980D02*
Y4200D01*
G01D02*
Y4420D01*
G01X21930Y4200D02*
X22150D01*
G01D02*
X22370D01*
G01X22150Y3280D02*
Y3500D01*
G01D02*
Y3720D01*
G01X21930Y3500D02*
X22150D01*
G01D02*
X22370D01*
G01X23700Y6180D02*
X23900D01*
G01X21930Y8450D02*
X22150D01*
G01X21930Y9150D02*
X22150D01*
G01D02*
X22370D01*
G01X22150Y8450D02*
X22370D01*
G01X21980Y14450D02*
X22200D01*
G01Y15150D02*
Y15370D01*
G01Y15150D02*
X22420D01*
G01X22200Y14450D02*
X22420D01*
G01X22200Y18900D02*
Y19100D01*
G01D02*
X22400D01*
G01X23700Y20406D02*
Y20606D01*
G01X23500Y20406D02*
X23700D01*
G01D02*
X23900D01*
G01X21950Y21500D02*
Y21720D01*
G01Y21500D02*
X22170D01*
G01X23650Y24300D02*
X23850D01*
G01X22410Y22900D02*
Y23100D01*
G01D02*
Y23300D01*
G01X22210Y23100D02*
X22410D01*
G01D02*
X22610D01*
G01X23690D02*
X23890D01*
G01X22448Y24148D02*
Y24348D01*
G01D02*
Y24549D01*
G01Y24348D02*
X22649D01*
G01X22150Y23800D02*
Y24000D01*
G01X21950D02*
X22150D01*
G01D02*
X22350D01*
G01X25059Y1407D02*
X25836Y2184D01*
G01D02*
X26613Y2961D01*
G01X25059D02*
X25836Y2184D01*
G01D02*
X26613Y1407D01*
G01X25600Y4650D02*
Y4870D01*
G01X25380Y4650D02*
X25600D01*
G01D02*
X25820D01*
G01X23900Y6180D02*
Y6380D01*
G01X24990Y8210D02*
X25190D01*
G01D02*
X25390D01*
G01X25943Y12100D02*
X26164D01*
G01X25600Y12150D02*
Y12350D01*
G01X25400Y12150D02*
X25600D01*
G01D02*
X25800D01*
G01X25630Y15180D02*
X25850D01*
G01D02*
X26070D01*
G01X24350Y21280D02*
Y21500D01*
G01D02*
Y21720D01*
G01X24130Y21500D02*
X24350D01*
G01X24650Y21280D02*
Y21500D01*
G01D02*
X24870D01*
G01X24627Y21850D02*
Y22070D01*
G01X24407Y21850D02*
X24627D01*
G01D02*
X24847D01*
G01X24141Y24140D02*
Y24341D01*
G01D02*
Y24541D01*
G01Y24341D02*
X24341D01*
G01X24050Y23700D02*
Y23900D01*
G01D02*
Y24100D01*
G01X23850Y23900D02*
X24050D01*
G01D02*
X24250D01*
G01X25059Y23671D02*
X25836Y24448D01*
G01D02*
X26613Y25225D01*
G01X25059D02*
X25836Y24448D01*
G01D02*
X26613Y23671D01*
G01X23850Y24100D02*
Y24300D01*
G01D02*
Y24500D01*
G01X23890Y22900D02*
Y23100D01*
G01D02*
Y23300D01*
G01Y23100D02*
X24090D01*
G01X26164Y11880D02*
Y12100D01*
G01D02*
Y12320D01*
G01Y12100D02*
X26384D01*
G01X27780Y13950D02*
X28000D01*
G01D02*
X28220D01*
G01X27527Y19623D02*
Y19823D01*
G01X27327Y19623D02*
X27527D01*
G01D02*
X27727D01*
G01X28077D02*
Y19823D01*
G01X27877Y19623D02*
X28077D01*
G01D02*
X28277D01*
G01X26600Y20900D02*
Y21100D01*
G01D02*
Y21300D01*
G01Y21100D02*
X26800D01*
G01X27550Y20900D02*
Y21100D01*
G01D02*
Y21300D01*
G01Y21100D02*
X27750D01*
G01X27800Y23350D02*
Y23550D01*
G01D02*
Y23750D01*
G01X27600Y23550D02*
X27800D01*
G01D02*
X28000D01*
G01X26033Y27183D02*
X26350Y27500D01*
G01D02*
X26667Y27183D01*
G01X28600Y15040D02*
Y15260D01*
G01X28380Y15040D02*
X28600D01*
G01Y15480D02*
Y15700D01*
G01X28380D02*
X28600D01*
G01X29557Y15657D02*
X29750Y15850D01*
G01D02*
X29943Y16043D01*
G01X29557D02*
X29750Y15850D01*
G01D02*
X29943Y15657D01*
G01X29557Y15157D02*
X29750Y15350D01*
G01D02*
X29943Y15543D01*
G01X29557D02*
X29750Y15350D01*
G01D02*
X29943Y15157D01*
G01X29750Y14850D02*
X29943Y15043D01*
G01X29557D02*
X29750Y14850D01*
G01X29557Y16157D02*
X29750Y16350D01*
G01D02*
X29943Y16157D01*
G01X30200Y21100D02*
X30400D01*
G01X29450Y20900D02*
Y21100D01*
G01D02*
Y21300D01*
G01X29250Y21100D02*
X29450D01*
G01D02*
X29650D01*
G01X28500Y20900D02*
Y21100D01*
G01D02*
Y21300D01*
G01X28300Y21100D02*
X28500D01*
G01D02*
X28700D01*
G01X28650Y24350D02*
Y24550D01*
G01D02*
Y24750D01*
G01X28450Y24550D02*
X28650D01*
G01D02*
X28850D01*
G01X28600Y25345D02*
Y25545D01*
G01D02*
Y25746D01*
G01X28400Y25545D02*
X28600D01*
G01D02*
X28800D01*
G01X28650Y24754D02*
Y24955D01*
G01D02*
Y25155D01*
G01X28450Y24955D02*
X28650D01*
G01D02*
X28850D01*
G01X29945Y26100D02*
Y26300D01*
G01X29745D02*
X29945D01*
G01D02*
X30145D01*
G01X29350Y26100D02*
Y26300D01*
G01X29150D02*
X29350D01*
G01D02*
X29550D01*
G01X28667Y27180D02*
Y27400D01*
G01D02*
Y27620D01*
G01X28447Y27400D02*
X28667D01*
G01D02*
X28888D01*
G01X32260Y7440D02*
X32460D01*
G01X31723Y10823D02*
X32500Y11600D01*
G01X31200Y13030D02*
Y13250D01*
G01D02*
X31420D01*
G01X31850Y13030D02*
Y13250D01*
G01X31630D02*
X31850D01*
G01D02*
X32070D01*
G01X31723Y12377D02*
X32500Y11600D01*
G01X31250Y14300D02*
Y14500D01*
G01X31200Y15600D02*
Y15800D01*
G01X31000D02*
X31200D01*
G01D02*
X31400D01*
G01X31950Y15530D02*
Y15750D01*
G01X31730D02*
X31950D01*
G01D02*
X32170D01*
G01X31250Y14500D02*
Y14700D01*
G01X31050Y14500D02*
X31250D01*
G01D02*
X31450D01*
G01X32050Y19750D02*
Y19950D01*
G01D02*
Y20150D01*
G01X31850Y19950D02*
X32050D01*
G01D02*
X32250D01*
G01X32300Y20900D02*
Y21100D01*
G01D02*
Y21300D01*
G01X32100Y21100D02*
X32300D01*
G01D02*
X32500D01*
G01X31350Y20900D02*
Y21100D01*
G01D02*
Y21300D01*
G01X31150Y21100D02*
X31350D01*
G01D02*
X31550D01*
G01X30400Y20900D02*
Y21100D01*
G01D02*
Y21300D01*
G01Y21100D02*
X30600D01*
G01X30928Y24341D02*
Y24561D01*
G01D02*
Y24781D01*
G01X30708Y24561D02*
X30928D01*
G01D02*
X31148D01*
G01X30900Y25130D02*
Y25350D01*
G01D02*
Y25570D01*
G01X30680Y25350D02*
X30900D01*
G01D02*
X31120D01*
G01X31950Y26050D02*
Y26270D01*
G01X31730Y26050D02*
X31950D01*
G01D02*
X32170D01*
G01X30833Y27230D02*
Y27450D01*
G01D02*
Y27670D01*
G01X30613Y27450D02*
X30833D01*
G01D02*
X31053D01*
G01X34500Y4430D02*
Y4650D01*
G01D02*
Y4870D01*
G01X34280Y4650D02*
X34500D01*
G01D02*
X34720D01*
G01X34000Y4430D02*
Y4650D01*
G01D02*
Y4870D01*
G01X33780Y4650D02*
X34000D01*
G01D02*
X34220D01*
G01X33020Y8470D02*
Y8690D01*
G01X32800Y8470D02*
X33020D01*
G01D02*
X33240D01*
G01X34550Y9230D02*
Y9450D01*
G01D02*
Y9670D01*
G01Y9450D02*
X34770D01*
G01X32460Y7440D02*
X32660D01*
G01X32500Y11600D02*
X33277Y12377D01*
G01X32500Y11600D02*
X33277Y10823D01*
G01X34382Y14245D02*
Y14465D01*
G01D02*
Y14685D01*
G01Y14465D02*
X34602D01*
G01X34100Y14280D02*
Y14500D01*
G01D02*
Y14720D01*
G01X33050Y13900D02*
Y14100D01*
G01X32850Y13900D02*
X33050D01*
G01D02*
X33250D01*
G01X33300Y17350D02*
Y17550D01*
G01X33100D02*
X33300D01*
G01D02*
X33500D01*
G01X34280Y17350D02*
X34500D01*
G01D02*
X34720D01*
G01X34493Y16787D02*
Y17007D01*
G01X34273D02*
X34493D01*
G01D02*
X34713D01*
G01X33000Y19750D02*
Y19950D01*
G01D02*
Y20150D01*
G01X32800Y19950D02*
X33000D01*
G01D02*
X33200D01*
G01X34550Y20900D02*
Y21100D01*
G01D02*
Y21300D01*
G01X34350Y21100D02*
X34550D01*
G01D02*
X34750D01*
G01X33250Y20900D02*
Y21100D01*
G01D02*
Y21300D01*
G01X33050Y21100D02*
X33250D01*
G01D02*
X33450D01*
G01X34250Y24450D02*
Y24650D01*
G01X33300Y24380D02*
Y24600D01*
G01X34250Y24950D02*
Y25150D01*
G01X34050D02*
X34250D01*
G01D02*
X34450D01*
G01X34300Y25750D02*
Y25950D01*
G01Y25750D02*
X34500D01*
G01X33950D02*
Y25970D01*
G01X33730Y25750D02*
X33950D01*
G01X33300Y24850D02*
Y25050D01*
G01X33100D02*
X33300D01*
G01D02*
X33500D01*
G01X34250Y24650D02*
Y24850D01*
G01X34050Y24650D02*
X34250D01*
G01D02*
X34450D01*
G01X33300Y24600D02*
Y24820D01*
G01X33080Y24600D02*
X33300D01*
G01D02*
X33520D01*
G01X34300Y27230D02*
Y27450D01*
G01D02*
Y27670D01*
G01X34080Y27450D02*
X34300D01*
G01D02*
X34520D01*
G01X32700Y27233D02*
Y27453D01*
G01D02*
Y27673D01*
G01X32480Y27453D02*
X32700D01*
G01X33050Y27233D02*
Y27453D01*
G01D02*
Y27673D01*
G01Y27453D02*
X33270D01*
G01X35380Y8210D02*
Y8430D01*
G01D02*
Y8650D01*
G01X35160Y8430D02*
X35380D01*
G01D02*
X35600D01*
G01X35500Y20900D02*
Y21100D01*
G01D02*
Y21300D01*
G01X35300Y21100D02*
X35500D01*
G01D02*
X35700D01*
G01X36450Y20900D02*
Y21100D01*
G01D02*
Y21300D01*
G01X36250Y21100D02*
X36450D01*
G01D02*
X36650D01*
G01X36600Y24350D02*
Y24550D01*
G01D02*
Y24750D01*
G01X36400Y24550D02*
X36600D01*
G01D02*
X36800D01*
G01X36550Y25345D02*
Y25545D01*
G01X36350D02*
X36550D01*
G01D02*
X36750D01*
G01X36600Y24754D02*
Y24955D01*
G01D02*
Y25155D01*
G01X36400Y24955D02*
X36600D01*
G01D02*
X36800D01*
G01X36617Y27180D02*
Y27400D01*
G01D02*
Y27620D01*
G01X36397Y27400D02*
X36617D01*
G01D02*
X36838D01*
G01X37057Y5157D02*
X37250Y5350D01*
G01D02*
X37443Y5157D01*
G01X37557D02*
X37750Y5350D01*
G01D02*
X37943Y5157D01*
G01X37057Y4157D02*
X37250Y4350D01*
G01D02*
X37443Y4543D01*
G01X37057D02*
X37250Y4350D01*
G01D02*
X37443Y4157D01*
G01X37557D02*
X37750Y4350D01*
G01D02*
X37943Y4543D01*
G01X37557D02*
X37750Y4350D01*
G01D02*
X37943Y4157D01*
G01X37557Y7157D02*
X37750Y7350D01*
G01D02*
X37943Y7543D01*
G01X37557D02*
X37750Y7350D01*
G01D02*
X37943Y7157D01*
G01X37557Y6657D02*
X37750Y6850D01*
G01D02*
X37943Y7043D01*
G01X37557D02*
X37750Y6850D01*
G01D02*
X37943Y6657D01*
G01X37057Y6157D02*
X37250Y6350D01*
G01D02*
X37443Y6543D01*
G01X37057D02*
X37250Y6350D01*
G01D02*
X37443Y6157D01*
G01X37557D02*
X37750Y6350D01*
G01D02*
X37943Y6543D01*
G01X37557D02*
X37750Y6350D01*
G01D02*
X37943Y6157D01*
G01X37250Y5350D02*
X37443Y5543D01*
G01X37057D02*
X37250Y5350D01*
G01X37750D02*
X37943Y5543D01*
G01X37557D02*
X37750Y5350D01*
G01X37557Y9157D02*
X37750Y9350D01*
G01D02*
X37943Y9543D01*
G01X37557D02*
X37750Y9350D01*
G01D02*
X37943Y9157D01*
G01X37557Y8657D02*
X37750Y8850D01*
G01D02*
X37943Y9043D01*
G01X37557D02*
X37750Y8850D01*
G01D02*
X37943Y8657D01*
G01X37557Y8157D02*
X37750Y8350D01*
G01D02*
X37943Y8543D01*
G01X37557D02*
X37750Y8350D01*
G01D02*
X37943Y8157D01*
G01X37557Y7657D02*
X37750Y7850D01*
G01D02*
X37943Y8043D01*
G01X37557D02*
X37750Y7850D01*
G01D02*
X37943Y7657D01*
G01X37057Y11157D02*
X37250Y11350D01*
G01D02*
X37443Y11543D01*
G01X37057D02*
X37250Y11350D01*
G01D02*
X37443Y11157D01*
G01X37557D02*
X37750Y11350D01*
G01D02*
X37943Y11543D01*
G01X37557D02*
X37750Y11350D01*
G01D02*
X37943Y11157D01*
G01X37557Y10157D02*
X37750Y10350D01*
G01D02*
X37943Y10543D01*
G01X37750Y10350D02*
X37943Y10157D01*
G01X37557Y9657D02*
X37750Y9850D01*
G01D02*
X37943Y10043D01*
G01X37557D02*
X37750Y9850D01*
G01D02*
X37943Y9657D01*
G01X37057Y12657D02*
X37250Y12850D01*
G01D02*
X37443Y13043D01*
G01X37057D02*
X37250Y12850D01*
G01D02*
X37443Y12657D01*
G01X37557D02*
X37750Y12850D01*
G01D02*
X37943Y13043D01*
G01X37557D02*
X37750Y12850D01*
G01D02*
X37943Y12657D01*
G01X37057Y15657D02*
X37250Y15850D01*
G01D02*
X37443Y16043D01*
G01X37057D02*
X37250Y15850D01*
G01D02*
X37443Y15657D01*
G01X37557D02*
X37750Y15850D01*
G01D02*
X37943Y16043D01*
G01X37557D02*
X37750Y15850D01*
G01D02*
X37943Y15657D01*
G01X37057Y14157D02*
X37250Y14350D01*
G01D02*
X37443Y14543D01*
G01X37057D02*
X37250Y14350D01*
G01D02*
X37443Y14157D01*
G01X37557D02*
X37750Y14350D01*
G01D02*
X37943Y14543D01*
G01X37557D02*
X37750Y14350D01*
G01D02*
X37943Y14157D01*
G01X38350Y20900D02*
Y21100D01*
G01D02*
Y21300D01*
G01X38150Y21100D02*
X38350D01*
G01D02*
X38550D01*
G01X37400Y20900D02*
Y21100D01*
G01D02*
Y21300D01*
G01X37200Y21100D02*
X37400D01*
G01D02*
X37600D01*
G01X38878Y24341D02*
Y24561D01*
G01D02*
Y24781D01*
G01X38658Y24561D02*
X38878D01*
G01D02*
X39098D01*
G01X38850Y25130D02*
Y25350D01*
G01X38630D02*
X38850D01*
G01D02*
X39070D01*
G01X38783Y27230D02*
Y27450D01*
G01D02*
Y27670D01*
G01X38562Y27450D02*
X38783D01*
G01D02*
X39003D01*
G01X40700Y3380D02*
Y3600D01*
G01D02*
Y3820D01*
G01X40480Y3600D02*
X40700D01*
G01D02*
X40920D01*
G01X39440Y5730D02*
Y5950D01*
G01D02*
Y6170D01*
G01X39220Y5950D02*
X39440D01*
G01D02*
X39660D01*
G01X39840Y6430D02*
Y6650D01*
G01D02*
Y6870D01*
G01X39620Y6650D02*
X39840D01*
G01D02*
X40060D01*
G01X40036Y8716D02*
Y8936D01*
G01D02*
Y9157D01*
G01X39816Y8936D02*
X40036D01*
G01D02*
X40257D01*
G01X40890Y11460D02*
Y11680D01*
G01X40904Y10266D02*
Y10466D01*
G01D02*
Y10667D01*
G01X40703Y10466D02*
X40904D01*
G01D02*
X41104D01*
G01X40540Y9930D02*
Y10130D01*
G01D02*
Y10330D01*
G01X40340Y10130D02*
X40540D01*
G01D02*
X40740D01*
G01X40890Y11680D02*
Y11900D01*
G01X40670Y11680D02*
X40890D01*
G01D02*
X41110D01*
G01X40890Y14930D02*
Y15150D01*
G01X40670D02*
X40890D01*
G01D02*
X41110D01*
G01X40890Y15460D02*
Y15680D01*
G01X40670Y15460D02*
X40890D01*
G01D02*
X41110D01*
G01X40000Y17400D02*
Y17600D01*
G01D02*
Y17800D01*
G01X39800Y17600D02*
X40000D01*
G01D02*
X40200D01*
G01X41000Y21100D02*
X41200D01*
G01X40250Y20900D02*
Y21100D01*
G01D02*
Y21300D01*
G01X40050Y21100D02*
X40250D01*
G01D02*
X40450D01*
G01X39300Y20900D02*
Y21100D01*
G01D02*
Y21300D01*
G01X39100Y21100D02*
X39300D01*
G01D02*
X39500D01*
G01X39680Y26050D02*
X39900D01*
G01X41050Y25050D02*
X41250D01*
G01X41030Y24600D02*
X41250D01*
G01X39900Y26050D02*
X40120D01*
G01X41450Y3680D02*
Y3900D01*
G01D02*
Y4120D01*
G01X41230Y3900D02*
X41450D01*
G01D02*
X41670D01*
G01X41440Y4600D02*
Y4800D01*
G01D02*
Y5000D01*
G01X41240Y4800D02*
X41440D01*
G01D02*
X41640D01*
G01X42950Y6280D02*
Y6500D01*
G01D02*
Y6720D01*
G01X42730Y6500D02*
X42950D01*
G01D02*
X43170D01*
G01X42890Y7410D02*
Y7630D01*
G01D02*
Y7850D01*
G01X42670Y7630D02*
X42890D01*
G01D02*
X43110D01*
G01X42440Y8060D02*
Y8280D01*
G01D02*
Y8500D01*
G01Y8280D02*
X42660D01*
G01X42090Y8060D02*
Y8280D01*
G01D02*
Y8500D01*
G01X41870Y8280D02*
X42090D01*
G01X41750Y11330D02*
Y11550D01*
G01D02*
Y11770D01*
G01X41530Y11550D02*
X41750D01*
G01X42875Y15705D02*
Y15925D01*
G01D02*
Y16145D01*
G01X42655Y15925D02*
X42875D01*
G01D02*
X43095D01*
G01X41950Y17750D02*
Y17950D01*
G01D02*
X42150D01*
G01X42725Y17525D02*
Y17725D01*
G01D02*
Y17925D01*
G01X42525Y17725D02*
X42725D01*
G01D02*
X42925D01*
G01X43200Y21100D02*
X43400D01*
G01X41200Y20900D02*
Y21100D01*
G01D02*
Y21300D01*
G01Y21100D02*
X41400D01*
G01X42450Y20900D02*
Y21100D01*
G01D02*
Y21300D01*
G01X42250Y21100D02*
X42450D01*
G01D02*
X42650D01*
G01X41250Y24380D02*
Y24600D01*
G01X42150Y24450D02*
Y24650D01*
G01X41900Y25530D02*
Y25750D01*
G01X41680D02*
X41900D01*
G01X41250Y24850D02*
Y25050D01*
G01D02*
Y25250D01*
G01Y25050D02*
X41450D01*
G01X42150Y24950D02*
Y25150D01*
G01D02*
Y25350D01*
G01X41950Y25150D02*
X42150D01*
G01D02*
X42350D01*
G01X42200Y25550D02*
Y25750D01*
G01D02*
X42400D01*
G01X41250Y24600D02*
Y24820D01*
G01Y24600D02*
X41470D01*
G01X42150Y24650D02*
Y24850D01*
G01X41950Y24650D02*
X42150D01*
G01D02*
X42350D01*
G01X44557Y7157D02*
X44750Y7350D01*
G01D02*
X44943Y7543D01*
G01X44557D02*
X44750Y7350D01*
G01D02*
X44943Y7157D01*
G01X45057D02*
X45250Y7350D01*
G01D02*
X45443Y7543D01*
G01X45057D02*
X45250Y7350D01*
G01D02*
X45443Y7157D01*
G01X44557Y6157D02*
X44750Y6350D01*
G01D02*
X44943Y6543D01*
G01X44557D02*
X44750Y6350D01*
G01D02*
X44943Y6157D01*
G01X45057D02*
X45250Y6350D01*
G01D02*
X45443Y6543D01*
G01X45057D02*
X45250Y6350D01*
G01D02*
X45443Y6157D01*
G01X45250Y5350D02*
X45443Y5543D01*
G01X45250Y5350D02*
X45443Y5157D01*
G01X44557Y8657D02*
X44750Y8850D01*
G01D02*
X44943Y9043D01*
G01X44557D02*
X44750Y8850D01*
G01D02*
X44943Y8657D01*
G01X45057D02*
X45250Y8850D01*
G01D02*
X45443Y9043D01*
G01X45057D02*
X45250Y8850D01*
G01D02*
X45443Y8657D01*
G01X44557Y11157D02*
X44750Y11350D01*
G01D02*
X44943Y11543D01*
G01X44557D02*
X44750Y11350D01*
G01D02*
X44943Y11157D01*
G01X45057D02*
X45250Y11350D01*
G01D02*
X45443Y11543D01*
G01X45057D02*
X45250Y11350D01*
G01D02*
X45443Y11157D01*
G01X43586Y14050D02*
Y14250D01*
G01X43386Y14050D02*
X43586D01*
G01D02*
X43787D01*
G01X44557Y15657D02*
X44750Y15850D01*
G01D02*
X44943Y16043D01*
G01X44557D02*
X44750Y15850D01*
G01D02*
X44943Y15657D01*
G01X45057D02*
X45250Y15850D01*
G01D02*
X45443Y16043D01*
G01X45057D02*
X45250Y15850D01*
G01D02*
X45443Y15657D01*
G01X43400Y20900D02*
Y21100D01*
G01D02*
Y21300D01*
G01Y21100D02*
X43600D01*
G01X44350Y20900D02*
Y21100D01*
G01D02*
Y21300D01*
G01X44150Y21100D02*
X44350D01*
G01D02*
X44550D01*
G01X45300Y20900D02*
Y21100D01*
G01D02*
Y21300D01*
G01X45100Y21100D02*
X45300D01*
G01D02*
X45500D01*
G01X44500Y24350D02*
Y24550D01*
G01D02*
Y24750D01*
G01X44300Y24550D02*
X44500D01*
G01D02*
X44700D01*
G01X44450Y25545D02*
Y25746D01*
G01X44250Y25545D02*
X44450D01*
G01D02*
X44650D01*
G01X44500Y24754D02*
Y24955D01*
G01X44300D02*
X44500D01*
G01D02*
X44700D01*
G01X45200Y26300D02*
Y26500D01*
G01X45000Y26300D02*
X45200D01*
G01D02*
X45400D01*
G01X44517Y27400D02*
Y27620D01*
G01X44297Y27400D02*
X44517D01*
G01D02*
X44738D01*
G01X47390Y7990D02*
X47610D01*
G01X46250Y20900D02*
Y21100D01*
G01D02*
Y21300D01*
G01X46050Y21100D02*
X46250D01*
G01D02*
X46450D01*
G01X47200Y20900D02*
Y21100D01*
G01D02*
Y21300D01*
G01X47000Y21100D02*
X47200D01*
G01D02*
X47400D01*
G01X46778Y24341D02*
Y24561D01*
G01D02*
Y24781D01*
G01X46558Y24561D02*
X46778D01*
G01D02*
X46998D01*
G01X46750Y25130D02*
Y25350D01*
G01X46530D02*
X46750D01*
G01D02*
X46970D01*
G01X45795Y26300D02*
Y26500D01*
G01X45595Y26300D02*
X45795D01*
G01D02*
X45995D01*
G01X46683Y27230D02*
Y27450D01*
G01D02*
Y27670D01*
G01X46462Y27450D02*
X46683D01*
G01D02*
X46903D01*
G01X49373Y404D02*
X50150Y1181D01*
G01X49373Y1958D02*
X50150Y1181D01*
G01X47970Y3040D02*
Y3240D01*
G01D02*
Y3440D01*
G01X47770Y3240D02*
X47970D01*
G01D02*
X48170D01*
G01X47970Y3490D02*
Y3690D01*
G01D02*
Y3890D01*
G01X47770Y3690D02*
X47970D01*
G01D02*
X48170D01*
G01X49514Y8284D02*
X49714D01*
G01X48626Y8084D02*
Y8284D01*
G01D02*
Y8484D01*
G01X48426Y8284D02*
X48626D01*
G01D02*
X48826D01*
G01X48170Y7420D02*
Y7640D01*
G01D02*
Y7860D01*
G01X47950Y7640D02*
X48170D01*
G01D02*
X48390D01*
G01X47610Y7770D02*
Y7990D01*
G01D02*
Y8210D01*
G01Y7990D02*
X47830D01*
G01X49373Y10823D02*
X50150Y11600D01*
G01X49373Y12377D02*
X50150Y11600D01*
G01X49257Y14357D02*
X49450Y14550D01*
G01D02*
X49643Y14743D01*
G01X49257D02*
X49450Y14550D01*
G01D02*
X49643Y14357D01*
G01X49257Y14857D02*
X49450Y15050D01*
G01X49257Y15243D02*
X49450Y15050D01*
G01D02*
X49643Y14857D01*
G01X49257Y17857D02*
X49450Y18050D01*
G01D02*
X49643Y18243D01*
G01X49257D02*
X49450Y18050D01*
G01D02*
X49643Y17857D01*
G01X49257Y18857D02*
X49450Y19050D01*
G01D02*
X49643Y19243D01*
G01X49257D02*
X49450Y19050D01*
G01D02*
X49643Y18857D01*
G01X48150Y20900D02*
Y21100D01*
G01D02*
Y21300D01*
G01X47950Y21100D02*
X48150D01*
G01D02*
X48350D01*
G01X49100Y20900D02*
Y21100D01*
G01D02*
Y21300D01*
G01X48900Y21100D02*
X49100D01*
G01D02*
X49300D01*
G01X49150Y24380D02*
Y24600D01*
G01X47580Y26050D02*
X47800D01*
G01D02*
X48020D01*
G01X49194Y26180D02*
Y26400D01*
G01D02*
Y26620D01*
G01X48974Y26400D02*
X49194D01*
G01D02*
X49414D01*
G01X49150Y24830D02*
Y25050D01*
G01D02*
Y25270D01*
G01X48930Y25050D02*
X49150D01*
G01D02*
X49370D01*
G01X49373Y26573D02*
X50150Y27350D01*
G01X49150Y24600D02*
Y24820D01*
G01X48930Y24600D02*
X49150D01*
G01D02*
X49370D01*
G01X49373Y28127D02*
X50150Y27350D01*
G01Y1181D02*
X50927Y404D01*
G01X50150Y1181D02*
X50927Y1958D01*
G01X50370Y3040D02*
Y3240D01*
G01D02*
Y3440D01*
G01X50170Y3240D02*
X50370D01*
G01Y3490D02*
Y3690D01*
G01D02*
Y3890D01*
G01X50170Y3690D02*
X50370D01*
G01X50820Y7520D02*
Y7740D01*
G01D02*
Y7960D01*
G01X50600Y7740D02*
X50820D01*
G01D02*
X51040D01*
G01X50170Y7420D02*
Y7640D01*
G01D02*
Y7860D01*
G01X49950Y7640D02*
X50170D01*
G01D02*
X50390D01*
G01X49714Y8084D02*
Y8284D01*
G01D02*
Y8484D01*
G01Y8284D02*
X49914D01*
G01X50150Y11600D02*
X50927Y12377D01*
G01X50150Y11600D02*
X50927Y10823D01*
G01X49757Y14357D02*
X49950Y14550D01*
G01D02*
X50143Y14743D01*
G01X49757D02*
X49950Y14550D01*
G01D02*
X50143Y14357D01*
G01X49757Y17857D02*
X49950Y18050D01*
G01D02*
X50143Y18243D01*
G01X49757D02*
X49950Y18050D01*
G01D02*
X50143Y17857D01*
G01X49757Y18857D02*
X49950Y19050D01*
G01D02*
X50143Y19243D01*
G01X49757D02*
X49950Y19050D01*
G01D02*
X50143Y18857D01*
G01X50150Y27350D02*
X50927Y26573D01*
G01X50150Y27350D02*
X50927Y28127D01*
G54D15*
X2300Y35110D03*
Y36300D03*
X8850Y4450D03*
X8550Y16800D03*
X10700Y10300D03*
X12450Y22950D03*
X26350Y27500D03*
X27700D03*
X33700Y2200D03*
X43633Y1400D03*
X45011D03*
X47767D03*
X46389D03*
X49600Y9500D03*
X48450D03*
X48100Y11650D03*
X50800Y9500D03*
X61740Y35031D03*
Y33653D03*
Y37787D03*
Y36409D03*
X71400Y32050D03*
Y40300D03*
X72400Y31050D03*
X73400D03*
X72400Y32050D03*
X73400D03*
X72400Y39300D03*
X73400D03*
X72400Y40300D03*
X73400D03*
X75700Y24800D03*
X74400Y31050D03*
X75400D03*
X74400Y32050D03*
X75400D03*
X74400Y39300D03*
X75400D03*
X74400Y40300D03*
X75400D03*
X76980Y24830D03*
X76400Y31050D03*
Y32050D03*
Y39300D03*
Y40300D03*
X78783Y26950D03*
X80161D03*
X81539D03*
X82917D03*
X83750Y32050D03*
Y40300D03*
X84950Y26500D03*
X85950Y25500D03*
Y26500D03*
X84750Y31050D03*
X85750D03*
X86750D03*
X84750Y32050D03*
X85750D03*
X86750D03*
X84750Y39300D03*
X85750D03*
X86750D03*
X84750Y40300D03*
X85750D03*
X86750D03*
X86950Y25500D03*
Y26500D03*
X87950Y25500D03*
Y26500D03*
X87750Y31050D03*
X88750D03*
X87750Y32050D03*
X88750D03*
X87750Y39300D03*
X88750D03*
X87750Y40300D03*
X88750D03*
X89800Y26500D03*
X90800Y25500D03*
Y26500D03*
X91800Y25500D03*
Y26500D03*
X92800Y25500D03*
Y26500D03*
X94500D03*
X93750Y30850D03*
X94750D03*
X93750Y32850D03*
X94750D03*
X93750Y31850D03*
X94750D03*
Y33850D03*
X93900Y37050D03*
X94900D03*
Y40050D03*
X93900Y39050D03*
X94900D03*
X93900Y38050D03*
X94900D03*
X95500Y25500D03*
Y26500D03*
X96500Y25500D03*
Y26500D03*
X98461Y25900D03*
X99839D03*
X104000Y37150D03*
Y39150D03*
Y38150D03*
X104100Y30900D03*
X105100D03*
X104100Y32900D03*
X105100D03*
X104100Y31900D03*
X105100D03*
Y33900D03*
X105000Y37150D03*
Y39150D03*
Y38150D03*
Y40150D03*
X114000Y33280D03*
Y32280D03*
Y35280D03*
Y34280D03*
Y36280D03*
X115000Y33280D03*
Y32280D03*
Y35280D03*
Y34280D03*
Y37280D03*
Y36280D03*
X122790Y33250D03*
Y32250D03*
Y35250D03*
Y34250D03*
Y36250D03*
X123790Y33250D03*
Y32250D03*
Y35250D03*
Y34250D03*
Y37250D03*
Y36250D03*
G54D25*
G01X28344Y5694D02*
X27776D01*
X27630Y5840D01*
X26550D01*
X26201Y5490D01*
X25430D01*
X25330Y5590D01*
X22940D01*
X22850Y5500D01*
G01X39850Y25400D02*
X39465Y25785D01*
X35435D01*
X35050Y25400D01*
X31859D01*
G01X47750D02*
X47600D01*
X47350Y25650D01*
X46450D01*
X46100Y25300D01*
X43850D01*
X43050Y26100D01*
X40900D01*
X40200Y25400D01*
X39850D01*
G01X49450Y15550D02*
X47150D01*
G01X47850Y14050D02*
X47900Y14100D01*
X50340D01*
X50500Y14260D01*
Y14890D01*
X50340Y15050D01*
X49950D01*
G01X64500Y3000D02*
X67592D01*
X67600Y2991D01*
X67800D01*
X67808Y3000D01*
X70632D01*
X70692Y2940D01*
X70908D01*
X70968Y3000D01*
X77800D01*
G01X80161Y26950D02*
X80150Y26961D01*
Y27750D01*
X79750Y28150D01*
X70550D01*
G01X82917Y26950D02*
X83250Y26617D01*
Y22750D01*
X82350Y21850D01*
X74850D01*
X74700Y21700D01*
X73800D01*
X73500Y21400D01*
X71650D01*
G01X75988Y5963D02*
X76025Y6000D01*
X78629D01*
G01X84000D02*
X78629D01*
G01X79300Y10200D02*
X83750D01*
G01X91800Y25500D02*
X91950Y25350D01*
Y24850D01*
X92450Y24350D01*
X95650D01*
X96500Y25200D01*
Y25500D01*
G01X95500D02*
X94850Y24850D01*
X93450D01*
X92800Y25500D01*
G01X101000Y21800D02*
X97300Y25500D01*
X96500D01*
G54D16*
X6500Y33050D03*
Y32550D03*
Y38550D03*
Y38050D03*
X8500Y33050D03*
Y32550D03*
X8000Y33050D03*
Y32550D03*
X7500Y33050D03*
Y32550D03*
X7000Y33050D03*
Y32550D03*
X8500Y38550D03*
Y38050D03*
X8000Y38550D03*
Y38050D03*
X7500Y38550D03*
Y38050D03*
X7000Y38550D03*
Y38050D03*
X11000Y33050D03*
Y32550D03*
X10500Y33050D03*
Y32550D03*
X10000Y33050D03*
Y32550D03*
X9500Y33050D03*
Y32550D03*
X9000Y33050D03*
Y32550D03*
X11000Y38550D03*
Y38050D03*
X10500Y38550D03*
Y38050D03*
X10000Y38550D03*
Y38050D03*
X9500Y38550D03*
Y38050D03*
X9000Y38550D03*
Y38050D03*
X13000Y33050D03*
Y32550D03*
X12500Y33050D03*
Y32550D03*
X12000Y33050D03*
Y32550D03*
X11500Y33050D03*
Y32550D03*
X13000Y38550D03*
Y38050D03*
X12500Y38550D03*
Y38050D03*
X12000Y38550D03*
Y38050D03*
X11500Y38550D03*
Y38050D03*
X15000Y33050D03*
Y32550D03*
X14500Y33050D03*
Y32550D03*
X14000Y33050D03*
Y32550D03*
X13500Y33050D03*
Y32550D03*
X15000Y38550D03*
Y38050D03*
X14500Y38550D03*
Y38050D03*
X14000Y38550D03*
Y38050D03*
X13500Y38550D03*
Y38050D03*
X17500Y33050D03*
Y32550D03*
X17000Y33050D03*
Y32550D03*
X16500Y33050D03*
Y32550D03*
X16000Y33050D03*
Y32550D03*
X15500Y33050D03*
Y32550D03*
X17500Y38550D03*
Y38050D03*
X17000Y38550D03*
Y38050D03*
X16500Y38550D03*
Y38050D03*
X16000Y38550D03*
Y38050D03*
X15500Y38550D03*
Y38050D03*
X18500Y33050D03*
Y32550D03*
X18000Y33050D03*
Y32550D03*
X18500Y38550D03*
Y38050D03*
X18000Y38550D03*
Y38050D03*
X25050Y27580D03*
X26000Y33050D03*
Y32550D03*
X25500Y33050D03*
Y32550D03*
X26000Y38550D03*
Y38050D03*
X25500Y38550D03*
Y38050D03*
X28000Y33050D03*
Y32550D03*
X27500Y33050D03*
Y32550D03*
X27000Y33050D03*
Y32550D03*
X26500Y33050D03*
Y32550D03*
X28000Y38550D03*
Y38050D03*
X27500Y38550D03*
Y38050D03*
X27000Y38550D03*
Y38050D03*
X26500Y38550D03*
Y38050D03*
X30250Y4350D03*
X29750D03*
X30250Y4850D03*
X29750D03*
X30250Y5350D03*
X29750D03*
X30250Y5850D03*
X29750D03*
X30250Y6350D03*
X29750D03*
X30250Y6850D03*
X29750D03*
X30250Y7350D03*
X29750D03*
X30250Y7850D03*
X29750D03*
X30250Y8350D03*
X29750D03*
X30250Y8850D03*
X29750D03*
X30250Y9350D03*
X29750D03*
X30250Y9850D03*
X29750D03*
X30250Y10350D03*
X29750D03*
X30250Y10850D03*
X29750D03*
X30250Y11350D03*
X29750D03*
X30250Y11850D03*
X29750D03*
X30250Y12350D03*
X29750D03*
X30250Y12850D03*
X29750D03*
X30250Y13350D03*
X29750D03*
X30250Y13850D03*
X29750D03*
X30250Y14350D03*
X29750D03*
X30250Y14850D03*
X29750D03*
X30250Y15350D03*
X29750D03*
X30250Y15850D03*
X29750D03*
X30250Y16350D03*
X29750D03*
X30500Y33050D03*
Y32550D03*
X30000Y33050D03*
Y32550D03*
X29500Y33050D03*
Y32550D03*
X29000Y33050D03*
Y32550D03*
X28500Y33050D03*
Y32550D03*
X30500Y38550D03*
Y38050D03*
X30000Y38550D03*
Y38050D03*
X29500Y38550D03*
Y38050D03*
X29000Y38550D03*
Y38050D03*
X28500Y38550D03*
Y38050D03*
X32500Y33050D03*
Y32550D03*
X32000Y33050D03*
Y32550D03*
X31500Y33050D03*
Y32550D03*
X31000Y33050D03*
Y32550D03*
X32500Y38550D03*
Y38050D03*
X32000Y38550D03*
Y38050D03*
X31500Y38550D03*
Y38050D03*
X31000Y38550D03*
Y38050D03*
X34500Y33050D03*
Y32550D03*
X34000Y33050D03*
Y32550D03*
X33500Y33050D03*
Y32550D03*
X33000Y33050D03*
Y32550D03*
X34500Y38550D03*
Y38050D03*
X34000Y38550D03*
Y38050D03*
X33500Y38550D03*
Y38050D03*
X33000Y38550D03*
Y38050D03*
X34980Y27350D03*
X37000Y33050D03*
Y32550D03*
X36500Y33050D03*
Y32550D03*
X36000Y33050D03*
Y32550D03*
X35500Y33050D03*
Y32550D03*
X35000Y33050D03*
Y32550D03*
X37000Y38550D03*
Y38050D03*
X36500Y38550D03*
Y38050D03*
X36000Y38550D03*
Y38050D03*
X35500Y38550D03*
Y38050D03*
X35000Y38550D03*
Y38050D03*
X37750Y4350D03*
X37250D03*
X37750Y4850D03*
X37250D03*
X37750Y5350D03*
X37250D03*
X37750Y5850D03*
X37250D03*
X37750Y6350D03*
X37250D03*
X37750Y6850D03*
X37250D03*
X37750Y7350D03*
X37250D03*
X37750Y7850D03*
X37250D03*
X37750Y8350D03*
X37250D03*
X37750Y8850D03*
X37250D03*
X37750Y9350D03*
X37250D03*
X37750Y9850D03*
X37250D03*
X37750Y10350D03*
X37250D03*
X37750Y10850D03*
X37250D03*
X37750Y11350D03*
X37250D03*
X37750Y11850D03*
X37250D03*
X37750Y12350D03*
X37250D03*
X37750Y12850D03*
X37250D03*
X37750Y13350D03*
X37250D03*
X37750Y13850D03*
X37250D03*
X37750Y14350D03*
X37250D03*
X37750Y14850D03*
X37250D03*
X37750Y15350D03*
X37250D03*
X37750Y15850D03*
X37250D03*
X37750Y16350D03*
X37250D03*
X37500Y33050D03*
Y32550D03*
Y38550D03*
Y38050D03*
X40700Y8800D03*
X42300Y10550D03*
X42850Y27430D03*
X45250Y4350D03*
X44750D03*
X45250Y4850D03*
X44750D03*
X45250Y5350D03*
X44750D03*
X45250Y5850D03*
X44750D03*
X45250Y6350D03*
X44750D03*
X45250Y6850D03*
X44750D03*
X45250Y7350D03*
X44750D03*
X45250Y7850D03*
X44750D03*
X45250Y8350D03*
X44750D03*
X45250Y8850D03*
X44750D03*
X45250Y9350D03*
X44750D03*
X45250Y9850D03*
X44750D03*
X45250Y10350D03*
X44750D03*
X45250Y10850D03*
X44750D03*
X45250Y11350D03*
X44750D03*
X45250Y11850D03*
X44750D03*
X45250Y12350D03*
X44750D03*
X45250Y12850D03*
X44750D03*
X45250Y13350D03*
X44750D03*
X45250Y13850D03*
X44750D03*
X45250Y14350D03*
X44750D03*
X45250Y14850D03*
X44750D03*
X45250Y15350D03*
X44750D03*
X45250Y15850D03*
X44750D03*
X45250Y16350D03*
X44750D03*
X45500Y33050D03*
Y32550D03*
X45000Y33050D03*
Y32550D03*
X44500Y33050D03*
Y32550D03*
X45500Y38550D03*
Y38050D03*
X45000Y38550D03*
Y38050D03*
X44500Y38550D03*
Y38050D03*
X47500Y33050D03*
Y32550D03*
X47000Y33050D03*
Y32550D03*
X46500Y33050D03*
Y32550D03*
X46000Y33050D03*
Y32550D03*
X47500Y38550D03*
Y38050D03*
X47000Y38550D03*
Y38050D03*
X46500Y38550D03*
Y38050D03*
X46000Y38550D03*
Y38050D03*
X49950Y16050D03*
X49450D03*
X49950Y15550D03*
X49450D03*
X49950Y15050D03*
X49450D03*
X49950Y14550D03*
X49450D03*
X49950Y18050D03*
X49450D03*
X49950Y17550D03*
X49450D03*
X49950Y17050D03*
X49450D03*
X49950Y16550D03*
X49450D03*
X49950Y19050D03*
X49450D03*
X49950Y18550D03*
X49450D03*
X49500Y33050D03*
Y32550D03*
X49000Y33050D03*
Y32550D03*
X48500Y33050D03*
Y32550D03*
X48000Y33050D03*
Y32550D03*
X49500Y38550D03*
Y38050D03*
X49000Y38550D03*
Y38050D03*
X48500Y38550D03*
Y38050D03*
X48000Y38550D03*
Y38050D03*
X52000Y33050D03*
Y32550D03*
X51500Y33050D03*
Y32550D03*
X51000Y33050D03*
Y32550D03*
X50500Y33050D03*
Y32550D03*
X50000Y33050D03*
Y32550D03*
X52000Y38550D03*
Y38050D03*
X51500Y38550D03*
Y38050D03*
X51000Y38550D03*
Y38050D03*
X50500Y38550D03*
Y38050D03*
X50000Y38550D03*
Y38050D03*
X54000Y33050D03*
Y32550D03*
X53500Y33050D03*
Y32550D03*
X53000Y33050D03*
Y32550D03*
X52500Y33050D03*
Y32550D03*
X54000Y38550D03*
Y38050D03*
X53500Y38550D03*
Y38050D03*
X53000Y38550D03*
Y38050D03*
X52500Y38550D03*
Y38050D03*
X56000Y33050D03*
Y32550D03*
X55500Y33050D03*
Y32550D03*
X55000Y33050D03*
Y32550D03*
X54500Y33050D03*
Y32550D03*
X56000Y38550D03*
Y38050D03*
X55500Y38550D03*
Y38050D03*
X55000Y38550D03*
Y38050D03*
X54500Y38550D03*
Y38050D03*
X58250Y4350D03*
X57750D03*
X58250Y4850D03*
X57750D03*
X58250Y5350D03*
X57750D03*
X58250Y5850D03*
X57750D03*
X58250Y6350D03*
X57750D03*
X58250Y6850D03*
X57750D03*
X58250Y7350D03*
X57750D03*
X58250Y7850D03*
X57750D03*
X58250Y8350D03*
X57750D03*
X58250Y8850D03*
X57750D03*
X58250Y9350D03*
X57750D03*
X58250Y9850D03*
X57750D03*
X58250Y10350D03*
X57750D03*
X58250Y10850D03*
X57750D03*
X58250Y11350D03*
X57750D03*
X58250Y11850D03*
X57750D03*
X58250Y12350D03*
X57750D03*
X58250Y12850D03*
X57750D03*
X58250Y13350D03*
X57750D03*
X58250Y13850D03*
X57750D03*
X58250Y14350D03*
X57750D03*
X58250Y14850D03*
X57750D03*
X58250Y15350D03*
X57750D03*
X58250Y15850D03*
X57750D03*
X58250Y16350D03*
X57750D03*
X56500Y33050D03*
Y32550D03*
Y38550D03*
Y38050D03*
X65750Y4350D03*
X65250D03*
X65750Y4850D03*
X65250D03*
X65750Y5350D03*
X65250D03*
X65750Y5850D03*
X65250D03*
X65750Y6350D03*
X65250D03*
X65750Y6850D03*
X65250D03*
X65750Y7350D03*
X65250D03*
X65750Y7850D03*
X65250D03*
X65750Y8350D03*
X65250D03*
X65750Y8850D03*
X65250D03*
X65750Y9350D03*
X65250D03*
X65750Y9850D03*
X65250D03*
X65750Y10350D03*
X65250D03*
X65750Y10850D03*
X65250D03*
X65750Y11350D03*
X65250D03*
X65750Y11850D03*
X65250D03*
X65750Y12350D03*
X65250D03*
X65750Y12850D03*
X65250D03*
X65750Y13350D03*
X65250D03*
X65750Y13850D03*
X65250D03*
X65750Y14350D03*
X65250D03*
X65750Y14850D03*
X65250D03*
X65750Y15350D03*
X65250D03*
X65750Y15850D03*
X65250D03*
X65750Y16350D03*
X65250D03*
X73250Y4350D03*
X72750D03*
X73250Y4850D03*
X72750D03*
X73250Y5350D03*
X72750D03*
X73250Y5850D03*
X72750D03*
X73250Y6350D03*
X72750D03*
X73250Y6850D03*
X72750D03*
X73250Y7350D03*
X72750D03*
X73250Y7850D03*
X72750D03*
X73250Y8350D03*
X72750D03*
X73250Y8850D03*
X72750D03*
X73250Y9350D03*
X72750D03*
X73250Y9850D03*
X72750D03*
X73250Y10350D03*
X72750D03*
X73250Y10850D03*
X72750D03*
X73250Y11350D03*
X72750D03*
X73250Y11850D03*
X72750D03*
X73250Y12350D03*
X72750D03*
X73250Y12850D03*
X72750D03*
X73250Y13350D03*
X72750D03*
X73250Y13850D03*
X72750D03*
X73250Y14350D03*
X72750D03*
X73250Y14850D03*
X72750D03*
X73250Y15350D03*
X72750D03*
X73250Y15850D03*
X72750D03*
X73250Y16350D03*
X72750D03*
X105980Y4500D03*
Y5000D03*
X105480Y4500D03*
Y5000D03*
X104980Y4500D03*
Y5000D03*
X105980Y15800D03*
X105480D03*
X104980D03*
X105980Y16300D03*
X105480D03*
X104980D03*
X107980Y4500D03*
Y5000D03*
X107480Y4500D03*
Y5000D03*
X106980Y4500D03*
Y5000D03*
X106480Y4500D03*
Y5000D03*
X107980Y15800D03*
X107480D03*
X106980D03*
X106480D03*
X107980Y16300D03*
X107480D03*
X106980D03*
X106480D03*
X109980Y4500D03*
Y5000D03*
X109480Y4500D03*
Y5000D03*
X108980Y4500D03*
Y5000D03*
X108480Y4500D03*
Y5000D03*
X109980Y15800D03*
X109480D03*
X108980D03*
X108480D03*
X109980Y16300D03*
X109480D03*
X108980D03*
X108480D03*
X112480Y4500D03*
Y5000D03*
X111980Y4500D03*
Y5000D03*
X111480Y4500D03*
Y5000D03*
X110980Y4500D03*
Y5000D03*
X110480Y4500D03*
Y5000D03*
X112480Y15800D03*
X111980D03*
X111480D03*
X110980D03*
X110480D03*
X112480Y16300D03*
X111980D03*
X111480D03*
X110980D03*
X110480D03*
X114480Y4500D03*
Y5000D03*
X113980Y4500D03*
Y5000D03*
X113480Y4500D03*
Y5000D03*
X112980Y4500D03*
Y5000D03*
X114480Y15800D03*
X113980D03*
X113480D03*
X112980D03*
X114480Y16300D03*
X113980D03*
X113480D03*
X112980D03*
X116480Y4500D03*
Y5000D03*
X115980Y4500D03*
Y5000D03*
X115480Y4500D03*
Y5000D03*
X114980Y4500D03*
Y5000D03*
X116480Y15800D03*
X115980D03*
X115480D03*
X114980D03*
X116480Y16300D03*
X115980D03*
X115480D03*
X114980D03*
X118480Y4500D03*
Y5000D03*
X117980Y4500D03*
Y5000D03*
X117480Y4500D03*
Y5000D03*
X116980Y4500D03*
Y5000D03*
X118480Y15800D03*
X117980D03*
X117480D03*
X116980D03*
X118480Y16300D03*
X117980D03*
X117480D03*
X116980D03*
X120980Y4500D03*
Y5000D03*
X120480Y4500D03*
Y5000D03*
X119980Y4500D03*
Y5000D03*
X119480Y4500D03*
Y5000D03*
X118980Y4500D03*
Y5000D03*
X120980Y15800D03*
X120480D03*
X119980D03*
X119480D03*
X118980D03*
X120980Y16300D03*
X120480D03*
X119980D03*
X119480D03*
X118980D03*
X121980Y4500D03*
Y5000D03*
X121480Y4500D03*
Y5000D03*
X121980Y15800D03*
X121480D03*
X121980Y16300D03*
X121480D03*
X129490Y4480D03*
Y4980D03*
X128990Y4480D03*
Y4980D03*
X128490Y4480D03*
Y4980D03*
X129490Y15780D03*
X128990D03*
X128490D03*
X129490Y16280D03*
X128990D03*
X128490D03*
X129490Y25930D03*
Y26430D03*
X128990Y25930D03*
Y26430D03*
X128490Y25930D03*
Y26430D03*
X129490Y37230D03*
Y37730D03*
X128990Y37230D03*
Y37730D03*
X128490Y37230D03*
Y37730D03*
X131490Y4480D03*
Y4980D03*
X130990Y4480D03*
Y4980D03*
X130490Y4480D03*
Y4980D03*
X129990Y4480D03*
Y4980D03*
X131490Y15780D03*
X130990D03*
X130490D03*
X129990D03*
X131490Y16280D03*
X130990D03*
X130490D03*
X129990D03*
X131490Y25930D03*
Y26430D03*
X130990Y25930D03*
Y26430D03*
X130490Y25930D03*
Y26430D03*
X129990Y25930D03*
Y26430D03*
X131490Y37230D03*
Y37730D03*
X130990Y37230D03*
Y37730D03*
X130490Y37230D03*
Y37730D03*
X129990Y37230D03*
Y37730D03*
X133990Y4480D03*
Y4980D03*
X133490Y4480D03*
Y4980D03*
X132990Y4480D03*
Y4980D03*
X132490Y4480D03*
Y4980D03*
X131990Y4480D03*
Y4980D03*
X133990Y15780D03*
X133490D03*
X132990D03*
X132490D03*
X131990D03*
X133990Y16280D03*
X133490D03*
X132990D03*
X132490D03*
X131990D03*
X133990Y25930D03*
Y26430D03*
X133490Y25930D03*
Y26430D03*
X132990Y25930D03*
Y26430D03*
X132490Y25930D03*
Y26430D03*
X131990Y25930D03*
Y26430D03*
X133990Y37230D03*
Y37730D03*
X133490Y37230D03*
Y37730D03*
X132990Y37230D03*
Y37730D03*
X132490Y37230D03*
Y37730D03*
X131990Y37230D03*
Y37730D03*
X135990Y4480D03*
Y4980D03*
X135490Y4480D03*
Y4980D03*
X134990Y4480D03*
Y4980D03*
X134490Y4480D03*
Y4980D03*
X135990Y15780D03*
X135490D03*
X134990D03*
X134490D03*
X135990Y16280D03*
X135490D03*
X134990D03*
X134490D03*
X135990Y25930D03*
Y26430D03*
X135490Y25930D03*
Y26430D03*
X134990Y25930D03*
Y26430D03*
X134490Y25930D03*
Y26430D03*
X135990Y37230D03*
Y37730D03*
X135490Y37230D03*
Y37730D03*
X134990Y37230D03*
Y37730D03*
X134490Y37230D03*
Y37730D03*
X137990Y4480D03*
Y4980D03*
X137490Y4480D03*
Y4980D03*
X136990Y4480D03*
Y4980D03*
X136490Y4480D03*
Y4980D03*
X137990Y15780D03*
X137490D03*
X136990D03*
X136490D03*
X137990Y16280D03*
X137490D03*
X136990D03*
X136490D03*
X137990Y25930D03*
Y26430D03*
X137490Y25930D03*
Y26430D03*
X136990Y25930D03*
Y26430D03*
X136490Y25930D03*
Y26430D03*
X137990Y37230D03*
Y37730D03*
X137490Y37230D03*
Y37730D03*
X136990Y37230D03*
Y37730D03*
X136490Y37230D03*
Y37730D03*
X140490Y4480D03*
Y4980D03*
X139990Y4480D03*
Y4980D03*
X139490Y4480D03*
Y4980D03*
X138990Y4480D03*
Y4980D03*
X138490Y4480D03*
Y4980D03*
X140490Y15780D03*
X139990D03*
X139490D03*
X138990D03*
X138490D03*
X140490Y16280D03*
X139990D03*
X139490D03*
X138990D03*
X138490D03*
X140490Y25930D03*
Y26430D03*
X139990Y25930D03*
Y26430D03*
X139490Y25930D03*
Y26430D03*
X138990Y25930D03*
Y26430D03*
X138490Y25930D03*
Y26430D03*
X140490Y37230D03*
Y37730D03*
X139990Y37230D03*
Y37730D03*
X139490Y37230D03*
Y37730D03*
X138990Y37230D03*
Y37730D03*
X138490Y37230D03*
Y37730D03*
X142490Y4480D03*
Y4980D03*
X141990Y4480D03*
Y4980D03*
X141490Y4480D03*
Y4980D03*
X140990Y4480D03*
Y4980D03*
X142490Y15780D03*
X141990D03*
X141490D03*
X140990D03*
X142490Y16280D03*
X141990D03*
X141490D03*
X140990D03*
X142490Y25930D03*
Y26430D03*
X141990Y25930D03*
Y26430D03*
X141490Y25930D03*
Y26430D03*
X140990Y25930D03*
Y26430D03*
X142490Y37230D03*
Y37730D03*
X141990Y37230D03*
Y37730D03*
X141490Y37230D03*
Y37730D03*
X140990Y37230D03*
Y37730D03*
X144490Y4480D03*
Y4980D03*
X143990Y4480D03*
Y4980D03*
X143490Y4480D03*
Y4980D03*
X142990Y4480D03*
Y4980D03*
X144490Y15780D03*
X143990D03*
X143490D03*
X142990D03*
X144490Y16280D03*
X143990D03*
X143490D03*
X142990D03*
X144490Y25930D03*
Y26430D03*
X143990Y25930D03*
Y26430D03*
X143490Y25930D03*
Y26430D03*
X142990Y25930D03*
Y26430D03*
X144490Y37230D03*
Y37730D03*
X143990Y37230D03*
Y37730D03*
X143490Y37230D03*
Y37730D03*
X142990Y37230D03*
Y37730D03*
X145490Y4480D03*
Y4980D03*
X144990Y4480D03*
Y4980D03*
X145490Y15780D03*
X144990D03*
X145490Y16280D03*
X144990D03*
X145490Y25930D03*
Y26430D03*
X144990Y25930D03*
Y26430D03*
X145490Y37230D03*
Y37730D03*
X144990Y37230D03*
Y37730D03*
G54D26*
G01X2300Y8850D02*
X2095Y8645D01*
X1913D01*
X1710Y8442D01*
Y3463D01*
X1873Y3300D01*
X2700D01*
X2860Y3460D01*
X10540D01*
X10720Y3280D01*
X17330D01*
X19050Y5000D01*
X23123D01*
X24323Y3800D01*
X36568D01*
X36788Y3580D01*
X37012D01*
X37232Y3800D01*
X37723D01*
X39163Y2360D01*
X42632D01*
X42750Y2242D01*
G01X2300Y8350D02*
X2095Y8555D01*
X1950D01*
X1800Y8405D01*
Y3500D01*
X1910Y3390D01*
X2663D01*
X2823Y3550D01*
X10577D01*
X10757Y3370D01*
X17293D01*
X19013Y5090D01*
X23160D01*
X24360Y3890D01*
X36605D01*
X36825Y3670D01*
X36975D01*
X37195Y3890D01*
X37760D01*
X39200Y2450D01*
X42632D01*
X42750Y2568D01*
G01X2300Y10850D02*
X2095Y10645D01*
X1768D01*
X1110Y9987D01*
Y3490D01*
X1500Y3100D01*
X3027D01*
X3187Y3260D01*
X9940D01*
X10139Y3061D01*
X19512D01*
X19863Y2710D01*
X23860D01*
X24500Y3350D01*
X33379D01*
X33459Y3430D01*
X33608D01*
X33688Y3350D01*
X37350D01*
X38650Y2050D01*
X40750D01*
X40900Y1900D01*
X42332D01*
X42450Y1782D01*
G01X2300Y10350D02*
X2095Y10555D01*
X1805D01*
X1200Y9950D01*
Y3527D01*
X1537Y3190D01*
X2990D01*
X3150Y3350D01*
X9977D01*
X10176Y3151D01*
X19549D01*
X19900Y2800D01*
X23823D01*
X24463Y3440D01*
X33342D01*
X33422Y3520D01*
X33646D01*
X33726Y3440D01*
X37388D01*
X38688Y2140D01*
X40787D01*
X40937Y1990D01*
X42332D01*
X42450Y2108D01*
G01X2800Y7350D02*
X3968D01*
X4203Y7115D01*
X5035D01*
X5130Y7020D01*
X10720D01*
X10838Y6902D01*
X11078D01*
X11196Y7020D01*
X11620D01*
X11780Y6860D01*
X12020D01*
X12180Y7020D01*
X12520D01*
X12680Y6860D01*
X12920D01*
X13080Y7020D01*
X13465D01*
X13675Y7230D01*
X13825D01*
X14035Y7020D01*
X14807D01*
X14923Y6904D01*
X15164D01*
X15280Y7020D01*
X16570D01*
X16580Y7010D01*
X16820D01*
X16830Y7020D01*
X17965D01*
X18025Y7080D01*
X18175D01*
X18235Y7020D01*
X23920D01*
X23930Y7010D01*
X24170D01*
X24180Y7020D01*
X24570D01*
X24660Y7110D01*
X25734D01*
X25904Y6940D01*
X26345D01*
X26496Y7091D01*
X26771D01*
X27120Y7440D01*
X28010D01*
X28080Y7370D01*
X28420D01*
X28490Y7440D01*
X28710D01*
X29050Y7100D01*
Y6920D01*
G01X32050Y8400D02*
X31850Y8600D01*
X28950D01*
X28810Y8740D01*
X27803D01*
X27728Y8815D01*
X24002D01*
X23927Y8740D01*
X22298D01*
X22278Y8760D01*
X22022D01*
X22002Y8740D01*
X20723D01*
X20663Y8800D01*
X19937D01*
X19880Y8743D01*
Y8725D01*
X19775Y8620D01*
X19757D01*
X19756Y8618D01*
X18977D01*
X18855Y8740D01*
X17060D01*
X17000Y8800D01*
X16150D01*
X16090Y8740D01*
X12188D01*
X12078Y8850D01*
X11638D01*
X11488Y8700D01*
X5250D01*
X5165Y8615D01*
X4203D01*
X3968Y8850D01*
X2800D01*
G01Y7850D02*
X3968D01*
X4203Y7615D01*
X8880D01*
X8975Y7520D01*
X9125D01*
X9235Y7630D01*
X10715D01*
X10827Y7518D01*
X11375D01*
X11486Y7630D01*
X16615D01*
X16625Y7620D01*
X16775D01*
X16785Y7630D01*
X23700D01*
X23840Y7770D01*
G01X2800Y9350D02*
X3968D01*
X4203Y9585D01*
X4897D01*
X5332Y9150D01*
X15750D01*
X16070Y9470D01*
X17080D01*
X17175Y9375D01*
X19725D01*
X19980Y9630D01*
X20520D01*
X20800Y9350D01*
X25500D01*
G01X4300Y10850D02*
X4315D01*
X4580Y11115D01*
X5023D01*
X5068Y11070D01*
X17430D01*
X17620Y11260D01*
X22454D01*
X22554Y11360D01*
X23096D01*
X23196Y11260D01*
X25840D01*
X26100Y11000D01*
X27300D01*
G01X25350Y10950D02*
X25150Y11150D01*
X23150D01*
X23050Y11250D01*
X22600D01*
X22500Y11150D01*
X17665D01*
X17415Y10900D01*
X15274D01*
X15259Y10915D01*
X7915D01*
X7600Y10600D01*
X4000D01*
X3958Y10558D01*
X3877D01*
G01X4300Y11350D02*
X4468D01*
X4703Y11585D01*
X11030D01*
X11125Y11680D01*
X11275D01*
X11385Y11570D01*
X25550D01*
G01X2300Y12350D02*
X2535Y12115D01*
X4897D01*
X5132Y12350D01*
X13200D01*
X13380Y12170D01*
X16120D01*
X16300Y12350D01*
X23500D01*
G01X4300D02*
X4468D01*
X4703Y12585D01*
X4897D01*
X4912Y12570D01*
X25500D01*
G01X4300Y12850D02*
X4468D01*
X4703Y13085D01*
X5128D01*
X5253Y12960D01*
X11422D01*
X11533Y13070D01*
X16830D01*
X17000Y12900D01*
X18450D01*
X18620Y13070D01*
X23400D01*
X23600Y12870D01*
X27170D01*
X27450Y13150D01*
X27745D01*
X28145Y12750D01*
X29250D01*
X29400Y12600D01*
X30550D01*
X30760Y12810D01*
X32889D01*
X32899Y12800D01*
X34750D01*
G01X31800Y14100D02*
X28410D01*
G01X29440Y14600D02*
X30500D01*
G01X45505Y13605D02*
X44475D01*
G01X38255D02*
X36895D01*
G01X30665D02*
X29495D01*
G01X6300Y1450D02*
X13545D01*
X13575Y1480D01*
X23696D01*
X24076Y1100D01*
X25138D01*
X25314Y924D01*
X26358D01*
X26534Y1100D01*
X26650D01*
X27400Y1850D01*
Y2000D01*
G01X4800Y7350D02*
X4811Y7339D01*
X4966D01*
X5176Y7130D01*
X10765D01*
X10883Y7012D01*
X11032D01*
X11150Y7130D01*
X11665D01*
X11825Y6970D01*
X11975D01*
X12135Y7130D01*
X12565D01*
X12725Y6970D01*
X12875D01*
X13035Y7130D01*
X13420D01*
X13630Y7340D01*
X13870D01*
X14080Y7130D01*
X14853D01*
X14969Y7014D01*
X15118D01*
X15235Y7130D01*
X16615D01*
X16625Y7120D01*
X16775D01*
X16785Y7130D01*
X17920D01*
X17980Y7190D01*
X18220D01*
X18280Y7130D01*
X23965D01*
X23975Y7120D01*
X24125D01*
X24135Y7130D01*
X24330D01*
X24420Y7220D01*
X25780D01*
X25950Y7050D01*
X26300D01*
X26450Y7201D01*
X26725D01*
X27074Y7550D01*
X28056D01*
X28126Y7480D01*
X28374D01*
X28444Y7550D01*
X28756D01*
X28896Y7410D01*
X29090D01*
X29400Y7100D01*
X33195D01*
X33225Y7070D01*
X33375D01*
X33415Y7110D01*
X34640D01*
X34700Y7050D01*
G01X31950Y9100D02*
X29150D01*
X28975Y8925D01*
X23957D01*
X23882Y8850D01*
X22344D01*
X22324Y8870D01*
X21976D01*
X21956Y8850D01*
X20768D01*
X20708Y8910D01*
X19845D01*
X19775Y8980D01*
X18975D01*
X18845Y8850D01*
X17388D01*
X16988Y9250D01*
X16200D01*
X15800Y8850D01*
X12350D01*
X12160Y9040D01*
X11540D01*
X11350Y8850D01*
X5577D01*
X5467Y8960D01*
X4925D01*
X4815Y8850D01*
X4800D01*
G01X31265Y8135D02*
X30765D01*
X30730Y8100D01*
X29460D01*
G01X35200Y9850D02*
X30955D01*
X30925Y9880D01*
X30680D01*
X30395Y9595D01*
X29405D01*
X29135Y9865D01*
X18065D01*
X17970Y9770D01*
X17330D01*
X17250Y9850D01*
X13750D01*
X13600Y9700D01*
X12350D01*
X12150Y9500D01*
X9850D01*
X9500Y9850D01*
X4800D01*
G01X26390Y14930D02*
Y14971D01*
X26381Y14980D01*
X25930D01*
X25900Y14950D01*
X23550D01*
X23500Y15000D01*
G01X30260Y5360D02*
X30530D01*
X30660Y5230D01*
Y4690D01*
X30575Y4605D01*
X29355D01*
G01X30000Y7600D02*
X29340D01*
G01X28000Y5100D02*
X30000D01*
G01X30825Y5595D02*
X29445D01*
G01X29215Y11105D02*
X30505D01*
X30650Y11250D01*
G01X30000Y11600D02*
X29532D01*
X29132Y12000D01*
G01X29425Y6105D02*
X30665D01*
G01X29750Y10350D02*
X30005Y10605D01*
X30695D01*
G01X34035Y12665D02*
X31015D01*
X30455Y12105D01*
X29995D01*
X29750Y12350D01*
G01X30605Y13105D02*
X29995D01*
G01X42350Y9600D02*
X48350D01*
G01X47550Y12600D02*
X44212D01*
G01X43990Y10605D02*
X46545D01*
G01X67900Y4600D02*
X73740D01*
G01X77145Y5095D02*
X66985D01*
G01X66977Y5104D02*
X60454D01*
G01X59450Y5100D02*
X58000D01*
X57750Y4850D01*
G01Y7350D02*
X58005Y7095D01*
X58755D01*
G01X59255Y6595D02*
X74255D01*
G01X59286Y5600D02*
X77300D01*
G01X57995Y9595D02*
X66165D01*
G01X72275D02*
X73765D01*
G01X64775Y8595D02*
X73855D01*
G01X58000Y13600D02*
X73950D01*
G01X73800Y13100D02*
X58500D01*
G01X57750Y12350D02*
X58005Y12095D01*
X58695D01*
G01X62500Y11600D02*
X73650D01*
G01X62500Y14100D02*
X73700D01*
G01X65250Y4850D02*
X65495Y4605D01*
X65955D01*
G01X66096Y8350D02*
X65852Y8105D01*
X65495D01*
G01X68700Y7595D02*
X65505D01*
G01X72295Y12105D02*
X73755D01*
G01X71155Y14595D02*
X74535D01*
G01X121480Y16300D02*
X121235Y16055D01*
Y15115D01*
X120870Y14750D01*
X115280D01*
X113260Y12730D01*
Y11740D01*
G01X121980Y4500D02*
X122320Y4840D01*
Y8160D01*
X119435Y11045D01*
X114915D01*
G01X121980Y16300D02*
X122090D01*
X122380Y16010D01*
Y14530D01*
X120940Y13090D01*
Y12060D01*
X120410Y11530D01*
X114600D01*
X114570Y11500D01*
G01X145490Y16280D02*
X145600D01*
X145890Y15990D01*
Y14510D01*
X144450Y13070D01*
Y12040D01*
X143920Y11510D01*
X138110D01*
X138080Y11480D01*
G01X144990Y16280D02*
X144745Y16035D01*
Y15095D01*
X144380Y14730D01*
X138790D01*
X136770Y12710D01*
Y11720D01*
G01X145490Y37730D02*
X145600D01*
X145890Y37440D01*
Y35960D01*
X144450Y34520D01*
Y33490D01*
X143920Y32960D01*
X138110D01*
X138080Y32930D01*
G01X144990Y37730D02*
X144745Y37485D01*
Y36545D01*
X144380Y36180D01*
X138790D01*
X136770Y34160D01*
Y33170D01*
G01X145490Y4480D02*
X145830Y4820D01*
Y8140D01*
X142945Y11025D01*
X138425D01*
G01X145490Y25930D02*
X145830Y26270D01*
Y29590D01*
X142945Y32475D01*
X138425D01*
G54D17*
X9250Y25950D03*
X10250D03*
X11250D03*
X9240Y27050D03*
X10240D03*
X11240D03*
X57000Y22250D03*
X58000D03*
X57000Y27400D03*
X58000D03*
X59000Y22250D03*
Y27400D03*
X62000Y22250D03*
X63000D03*
X62000Y27400D03*
X63000D03*
X64000Y22250D03*
Y27400D03*
X67000Y22250D03*
Y27400D03*
X68000Y22250D03*
X69000D03*
X68000Y27400D03*
X69000D03*
X71400Y31050D03*
Y39300D03*
X72000Y22250D03*
X73000D03*
X72000Y27400D03*
X73000D03*
X74000Y22250D03*
Y27400D03*
X83750Y31050D03*
Y39300D03*
X84950Y25500D03*
X89800D03*
X94500D03*
X93750Y33850D03*
X93900Y40050D03*
X101750Y31300D03*
Y33300D03*
Y32300D03*
X102800Y22250D03*
X103800D03*
X102800Y27400D03*
X103800D03*
X101900Y37500D03*
Y39500D03*
Y38500D03*
X104800Y22250D03*
Y27400D03*
X104100Y33900D03*
X104000Y40150D03*
X106700Y22250D03*
X107700D03*
X106700Y27400D03*
X107700D03*
X108700Y22250D03*
Y27400D03*
X110550Y22250D03*
X111550D03*
X112550D03*
X110550Y27400D03*
X111550D03*
X112550D03*
X112100Y31350D03*
Y33350D03*
Y32350D03*
X112000Y37600D03*
Y39600D03*
Y38600D03*
X114300Y22300D03*
Y27450D03*
X114000Y37280D03*
X115300Y22300D03*
X116300D03*
X115300Y27450D03*
X116300D03*
X118000Y22300D03*
X119000D03*
X118000Y27450D03*
X119000D03*
X120000Y22300D03*
Y27450D03*
X121850Y22300D03*
X122850D03*
X121850Y27450D03*
X122850D03*
X122790Y37250D03*
X123850Y22300D03*
Y27450D03*
G54D27*
G01X2300Y12850D02*
X1600D01*
X1550Y12900D01*
Y14880D01*
X1770Y15100D01*
X10260D01*
X10590Y15430D01*
X14496D01*
X14967Y14959D01*
X16419D01*
X16715Y15255D01*
X19863D01*
X20203Y14915D01*
X20357D01*
X20542Y15100D01*
X21960D01*
X22115Y14945D01*
X22995D01*
X23400Y15350D01*
X25420D01*
X25780Y15710D01*
X26090D01*
G01X31250Y17400D02*
X26200D01*
X26065Y17265D01*
X25105D01*
X24975Y17395D01*
X22575D01*
X22415Y17235D01*
X21655D01*
X21545Y17345D01*
X18717D01*
X18617Y17245D01*
X18463D01*
X18363Y17345D01*
X13275D01*
X13235Y17385D01*
X12425D01*
X12320Y17280D01*
X10470D01*
X10350Y17400D01*
X6500D01*
X5700Y16600D01*
X1550D01*
G01X25950Y8400D02*
X24700D01*
X24450Y8150D01*
X23750D01*
X23500Y7900D01*
X16862D01*
X16777Y7985D01*
X16623D01*
X16538Y7900D01*
X5090D01*
X4890Y8100D01*
X3900D01*
G01X2800Y10350D02*
X3040Y10110D01*
X9640D01*
X10100Y9650D01*
X11800D01*
X12345Y10195D01*
X15447D01*
X15602Y10350D01*
X25500D01*
X25750Y10100D01*
X31700D01*
X31800Y10200D01*
G01X33800Y14500D02*
X33815Y14515D01*
Y14585D01*
X33620Y14780D01*
X32480D01*
X31800Y14100D01*
G01X28410D02*
X28205Y14305D01*
X24005D01*
X23945Y14245D01*
X14985D01*
X14494Y14737D01*
X13416D01*
X13125Y14445D01*
X11180D01*
X11178Y14443D01*
X10925D01*
X10924Y14445D01*
X8052D01*
X7886Y14610D01*
X6060D01*
X5560Y14110D01*
X2540D01*
X2300Y14350D01*
G01Y14850D02*
X2550Y14600D01*
X5238D01*
X5273Y14565D01*
X5515D01*
X5700Y14750D01*
X7916D01*
X8101Y14565D01*
X10973D01*
X10975Y14563D01*
X11128D01*
X11130Y14565D01*
X11795D01*
X12100Y14870D01*
X13220D01*
X13535Y15185D01*
X14315D01*
X14745Y14755D01*
X18445D01*
X18650Y14550D01*
X20050D01*
X20200Y14700D01*
X23900D01*
X24155Y14445D01*
X24745D01*
X24995Y14695D01*
X29345D01*
X29440Y14600D01*
G01X30500D02*
X30900Y15000D01*
X32450D01*
X32815Y15365D01*
X33103D01*
G01X46900Y13800D02*
X46850Y13850D01*
X45750D01*
X45505Y13605D01*
G01X44475D02*
X44195Y13885D01*
X43823D01*
X43788Y13850D01*
X42100D01*
X41995Y13955D01*
X41255D01*
X41150Y13850D01*
X38500D01*
X38255Y13605D01*
G01X36895D02*
X36565Y13935D01*
X33985D01*
X33715Y13665D01*
X30725D01*
X30665Y13605D01*
G01X29495D02*
X29395Y13705D01*
X27061D01*
X27051Y13695D01*
X14655D01*
X14500Y13850D01*
X10150D01*
X9900Y13600D01*
X5312D01*
X5299Y13613D01*
X5145D01*
X5132Y13600D01*
X4550D01*
X4300Y13850D01*
G01Y19850D02*
X4460D01*
X4700Y19610D01*
X5490D01*
X6000Y19100D01*
X12350D01*
X12450Y19200D01*
X14150D01*
X14250Y19100D01*
X21550D01*
G01X4300Y18850D02*
Y18830D01*
X4540Y18590D01*
X11490D01*
X11650Y18750D01*
X12100D01*
X12280Y18570D01*
X23402D01*
X23423Y18591D01*
X25009D01*
X25200Y18400D01*
X26200D01*
X26391Y18591D01*
X28809D01*
X29200Y18200D01*
X31750D01*
X31835Y18115D01*
X32715D01*
X32850Y18250D01*
X34000D01*
X34100Y18150D01*
Y18000D01*
G01X3300Y18900D02*
X3490Y19090D01*
X5510D01*
X5883Y18717D01*
X7417D01*
X7600Y18900D01*
X12550D01*
X12705Y19055D01*
X13845D01*
X14000Y18900D01*
X20300D01*
G01X4300Y21350D02*
X4560Y21090D01*
Y20750D01*
X4720Y20590D01*
X5210D01*
X5450Y20350D01*
X8800D01*
X9050Y20100D01*
X9600D01*
X10400Y20900D01*
X12450D01*
X12650Y20700D01*
X22250D01*
G01X4300Y20350D02*
X4560Y20090D01*
X5360D01*
X5850Y19600D01*
X12350D01*
X12550Y19800D01*
X21900D01*
G01X4300Y21850D02*
X4550Y21600D01*
X6050D01*
G01X22900Y25400D02*
X22850Y25350D01*
Y25300D01*
X22150Y24600D01*
X12490D01*
X12385Y24495D01*
X12295D01*
X12055Y24255D01*
X9243D01*
X8888Y23900D01*
X3850D01*
G01X9000Y23750D02*
X8600D01*
X8450Y23600D01*
X5862D01*
X5827Y23635D01*
X5673D01*
X5638Y23600D01*
X3700D01*
G01X23000Y2000D02*
Y1850D01*
X22950Y1800D01*
X19650D01*
X19200Y2250D01*
X5950D01*
G01X24350Y1400D02*
X23938D01*
X23738Y1600D01*
X19350D01*
X18900Y2050D01*
X11750D01*
X11550Y1850D01*
X5968D01*
G01X4800Y6850D02*
X5350D01*
X5405Y6905D01*
X10672D01*
X10790Y6787D01*
X11126D01*
X11244Y6905D01*
X11572D01*
X11732Y6745D01*
X12068D01*
X12228Y6905D01*
X12472D01*
X12632Y6745D01*
X12968D01*
X13128Y6905D01*
X13478D01*
X13594Y6789D01*
X16727D01*
X16773Y6835D01*
X16927D01*
X16973Y6789D01*
X17950D01*
X18023Y6715D01*
X18177D01*
X18250Y6789D01*
X24200D01*
G01X26500Y6100D02*
X26350Y5950D01*
X25550D01*
X25415Y5815D01*
X23925D01*
X23790Y5950D01*
X23370D01*
X23005Y6315D01*
X19635D01*
X19500Y6450D01*
X17850D01*
X17650Y6250D01*
X16800D01*
X16650Y6400D01*
X14112D01*
X13827Y6115D01*
X13197D01*
X12877Y6435D01*
X7397D01*
X7007Y6045D01*
X6205D01*
G01X34550Y8100D02*
X31300D01*
X31265Y8135D01*
G01X29460Y8100D02*
X29110Y8450D01*
X27930D01*
X27680Y8700D01*
X24050D01*
X23595Y8245D01*
X21055D01*
X20615Y8685D01*
X20002D01*
X19822Y8505D01*
X19805D01*
X19645Y8345D01*
X16315D01*
X16075Y8585D01*
X15435D01*
X15065Y8215D01*
X11781D01*
X11646Y8350D01*
X9612D01*
X9527Y8265D01*
X9373D01*
X9288Y8350D01*
X4800D01*
G01X5250Y9600D02*
X9375D01*
X9625Y9350D01*
X12350D01*
X12585Y9585D01*
X13648D01*
X13663Y9600D01*
X19650D01*
X19800Y9750D01*
X25550D01*
X26000Y9300D01*
G01X26372Y13428D02*
X19158D01*
X18945Y13215D01*
X18365D01*
X18152Y13428D01*
X15678D01*
X15565Y13315D01*
X13097D01*
X12977Y13435D01*
X11735D01*
X11375Y13075D01*
X10525D01*
X10172Y13428D01*
X5222D01*
G01X4800Y12850D02*
X5050D01*
X5150Y12750D01*
X25418D01*
X25423Y12755D01*
X27045D01*
X27300Y12500D01*
G01X4800Y17350D02*
X5750D01*
X6050Y17650D01*
X10450D01*
X10700Y17400D01*
X12270D01*
X12375Y17505D01*
X18353D01*
X18463Y17615D01*
X18617D01*
X18727Y17505D01*
X21595D01*
X21695Y17605D01*
X22605D01*
X22630Y17580D01*
X25370D01*
X25500Y17450D01*
G01X4800Y17850D02*
X5150D01*
X5400Y18100D01*
X10500D01*
X11000Y17600D01*
X11550D01*
X11700Y17750D01*
X17658D01*
X17843Y17935D01*
X17997D01*
X18182Y17750D01*
X33850D01*
X34045Y17555D01*
X34845D01*
X34900Y17500D01*
G01X4800Y20350D02*
X5000D01*
X5140Y20210D01*
X5410D01*
X5425Y20195D01*
X6655D01*
X6985Y19865D01*
X9615D01*
X10450Y20700D01*
X12300D01*
X12805Y20195D01*
X24395D01*
X24800Y20600D01*
X26738D01*
X26773Y20635D01*
X26927D01*
X26962Y20600D01*
X41600D01*
X41850Y20350D01*
G01X4800Y21850D02*
X7860D01*
X8015Y21695D01*
X8185D01*
X8340Y21850D01*
X12260D01*
X12365Y21745D01*
X12535D01*
X12640Y21850D01*
X13840D01*
X14500Y22510D01*
X19500D01*
X20055Y21955D01*
X21005D01*
X21300Y22250D01*
X22600D01*
G01X6750Y20850D02*
X4800D01*
G01X11400Y23750D02*
X10945Y23295D01*
Y22967D01*
X10678Y22700D01*
X5600D01*
X5400Y22900D01*
G01X11123Y23750D02*
X10973Y23600D01*
X9550D01*
X9400Y23450D01*
X5750D01*
G01X5600Y24750D02*
Y25000D01*
X5650Y25050D01*
X9697D01*
X9759Y24989D01*
X9929D01*
X9990Y25050D01*
X21500D01*
X22150Y25700D01*
X22950D01*
X23250Y25400D01*
G01X36700Y1000D02*
Y950D01*
X36450Y700D01*
X26467D01*
X26456Y689D01*
X25216D01*
X25205Y700D01*
X6650D01*
G01X44225Y1125D02*
X44000Y900D01*
X37400D01*
X36950Y450D01*
X6900D01*
G01X35575Y1075D02*
X35550Y1100D01*
X34700D01*
X34515Y915D01*
X34477D01*
X34427Y865D01*
X34273D01*
X34223Y915D01*
X26512D01*
X26406Y809D01*
X25266D01*
X25160Y915D01*
X7150D01*
G01X7250Y2750D02*
X19500D01*
X19700Y2550D01*
X24350D01*
G01X24150Y2050D02*
X23900Y2300D01*
X19700D01*
X19550Y2450D01*
X6900D01*
X6600Y2750D01*
G01X8050Y10450D02*
X8400Y10800D01*
X15212D01*
X15512Y10500D01*
X26000D01*
G01X28950Y15150D02*
Y15100D01*
X28685Y14835D01*
X27215D01*
X26850Y15200D01*
Y15350D01*
X26305Y15895D01*
X25305D01*
X25160Y15750D01*
X20250D01*
X20050Y15550D01*
X17500D01*
X17150Y15900D01*
X15150D01*
X14900Y16150D01*
X10700D01*
X10400Y15850D01*
X8250D01*
G01X7200Y26400D02*
X8400Y27600D01*
X10888D01*
X10923Y27565D01*
X11077D01*
X11112Y27600D01*
X12350D01*
X12500Y27750D01*
X24000D01*
X24900Y26850D01*
X28100D01*
G01X35300Y26600D02*
X27742D01*
X27627Y26715D01*
X27473D01*
X27358Y26600D01*
X20300D01*
X19485Y27415D01*
X8815D01*
X7600Y26200D01*
G01X6550Y27100D02*
X7550Y28100D01*
X10850D01*
X10895Y28055D01*
X29105D01*
X29250Y28200D01*
X30400D01*
G01X6900Y26750D02*
X8085Y27935D01*
X28615D01*
X28800Y27750D01*
X29150D01*
G01X13550Y5550D02*
X12108D01*
X11858Y5300D01*
G01X21550Y19100D02*
X21750Y19300D01*
X23650D01*
X23944Y19006D01*
X24806D01*
X25200Y19400D01*
X26438D01*
X26613Y19225D01*
X41375D01*
X41700Y18900D01*
G01X42000D02*
X41525Y19375D01*
X26675D01*
X26500Y19550D01*
X25200D01*
X24800Y19950D01*
X23600D01*
X23200Y19550D01*
X22115D01*
X21900Y19765D01*
Y19800D01*
G01Y20400D02*
X21950Y20450D01*
X22700D01*
X23100Y20850D01*
X23150D01*
G01X24230Y4560D02*
X24440Y4350D01*
X24735D01*
X24815Y4430D01*
X24985D01*
X25065Y4350D01*
X26860D01*
X27015Y4505D01*
X27185D01*
X27340Y4350D01*
X29750D01*
G01X30250Y5350D02*
X30260Y5360D01*
G01X29355Y4605D02*
X29300Y4660D01*
X26380D01*
X26135Y4905D01*
X25913D01*
X25698Y5120D01*
X25320D01*
X25180Y5260D01*
Y5330D01*
X25190Y5340D01*
G01X28190Y6660D02*
X28045Y6805D01*
X27423D01*
X27298Y6680D01*
X26562D01*
X26407Y6525D01*
X25443D01*
X25238Y6730D01*
X25150D01*
G01X28750Y6160D02*
X28510Y6400D01*
X26380D01*
X26050Y6070D01*
X24310D01*
X24240Y6000D01*
G01X30250Y7850D02*
X30000Y7600D01*
G01X29340D02*
X29270Y7670D01*
X28402D01*
X28327Y7595D01*
X28173D01*
X28098Y7670D01*
X27220D01*
X26955Y7935D01*
X25885D01*
X25390Y7440D01*
X25190D01*
G01X29750Y7850D02*
X28442D01*
X28327Y7965D01*
X28173D01*
X28058Y7850D01*
X27606D01*
X27602Y7846D01*
X27314D01*
X27105Y8055D01*
X25695D01*
X25340Y7700D01*
X24250D01*
G01X26350Y5050D02*
X26485Y4915D01*
X27815D01*
X28000Y5100D01*
G01X30000D02*
X30250Y4850D01*
G01X29140Y5560D02*
X28720D01*
X28575Y5415D01*
X26453D01*
X26128Y5090D01*
X25990D01*
G01X33750Y5900D02*
X33350D01*
X33000Y5550D01*
X32284D01*
X32277Y5558D01*
X32123D01*
X32116Y5550D01*
X30870D01*
X30825Y5595D01*
G01X29445D02*
X29100Y5940D01*
X27898D01*
X27568Y6270D01*
X26670D01*
X26500Y6100D01*
G01X26116Y11334D02*
X26167Y11385D01*
X26565D01*
X26801Y11149D01*
X27187D01*
X27223Y11185D01*
X27377D01*
X27413Y11149D01*
X29171D01*
X29215Y11105D01*
G01X30650Y11250D02*
Y11600D01*
G01X28913Y11713D02*
X28750Y11550D01*
X27600D01*
X27437Y11713D01*
X27150D01*
G01X29750Y11350D02*
X29734Y11334D01*
X27000D01*
G01X30250Y11350D02*
X30000Y11600D01*
G01X29132Y12000D02*
X27050D01*
X27000Y12050D01*
G01X43700Y18750D02*
X42950Y19500D01*
X29600D01*
X29000Y20100D01*
X27000D01*
X26850Y20250D01*
Y20450D01*
G01X27800Y20350D02*
X41500D01*
X42100Y19750D01*
X43700D01*
X44150Y19300D01*
X45300D01*
X45550Y19550D01*
X45900D01*
G01X29150Y6150D02*
X29380D01*
X29425Y6105D01*
G01X30665D02*
X30710Y6150D01*
X32000D01*
X32300Y5850D01*
G01X30695Y10605D02*
X30790Y10700D01*
X31400D01*
G01X34650Y12100D02*
X34600D01*
X34035Y12665D01*
G01X35050Y13700D02*
X35000Y13650D01*
X34014D01*
X33909Y13545D01*
X31045D01*
X30605Y13105D01*
G01X29995D02*
X29750Y13350D01*
G01X36100Y26850D02*
X28100D01*
G01X37600Y28000D02*
X37595Y28005D01*
X29405D01*
X29150Y27750D01*
G01X33750Y18000D02*
X33700Y17950D01*
X31400D01*
X31350Y18000D01*
G01X38450Y28200D02*
X30400D01*
G01X32455Y7835D02*
X34555D01*
X34650Y7740D01*
G01X36100Y26850D02*
X36550Y26400D01*
X37138D01*
X37223Y26485D01*
X37377D01*
X37462Y26400D01*
X37733D01*
X37818Y26485D01*
X37972D01*
X38057Y26400D01*
X39450D01*
X39650Y26600D01*
X40450D01*
X40550Y26500D01*
X43650D01*
X43900Y26750D01*
G01X40150Y26350D02*
X40058D01*
X39988Y26280D01*
X39380D01*
X39150Y26050D01*
X35550D01*
X35267Y26333D01*
X34683D01*
G01X46200Y28200D02*
X38450D01*
G01X45500Y28000D02*
X45240D01*
X45235Y28005D01*
X37605D01*
X37600Y28000D01*
G01X40900Y1650D02*
X42150D01*
X42300Y1500D01*
X42700D01*
X43150Y1950D01*
X46250D01*
X46400Y2100D01*
X48990D01*
X49350Y2460D01*
X50130D01*
X50690Y3020D01*
Y4670D01*
X50370Y4990D01*
G01X44750Y16350D02*
X44650Y16450D01*
X41100D01*
X40900Y16250D01*
X40700D01*
X40650Y16300D01*
G01X39950Y16600D02*
X40150D01*
X40450Y16900D01*
X41310D01*
X41565Y17155D01*
X42495D01*
X42650Y17000D01*
G01X44600Y16890D02*
X44210D01*
X43970Y16650D01*
X42938D01*
X42788Y16800D01*
X42050D01*
X41900Y16650D01*
X40700D01*
X40650Y16600D01*
G01X40150Y26350D02*
X40200Y26300D01*
X43350D01*
X43650Y26000D01*
X46250D01*
X46583Y26333D01*
X47933D01*
G01X48350Y9600D02*
X48450Y9500D01*
G01X48100Y11650D02*
Y12050D01*
X47550Y12600D01*
G01X44212D02*
X44077Y12465D01*
X43865D01*
X43725Y12325D01*
X42825D01*
G01X41350Y15950D02*
X42250D01*
X42300Y15900D01*
G01X45250Y16350D02*
Y16700D01*
X44875Y17075D01*
X44145D01*
X44030Y16960D01*
X43710D01*
X43600Y16850D01*
X43000D01*
G01X43965Y10630D02*
X43990Y10605D01*
G01X46545D02*
X46900Y10250D01*
X48850D01*
X49600Y9500D01*
G01X58250Y4850D02*
X58400Y4700D01*
X59050D01*
X59750Y4000D01*
X65880D01*
X66277Y4397D01*
X67697D01*
X67900Y4600D01*
G01X73740D02*
X73990Y4850D01*
X77300D01*
X77800Y5350D01*
X85650D01*
X86000Y5000D01*
G01X86500D02*
Y5100D01*
X86000Y5600D01*
X77650D01*
X77145Y5095D01*
G01X66985D02*
X66977Y5104D01*
G01X60454D02*
X60300Y4950D01*
X59600D01*
X59450Y5100D01*
G01X58755Y7095D02*
X59255Y6595D01*
G01X74255D02*
X74500Y6350D01*
X77290D01*
X77590Y6650D01*
X92800D01*
G01X58250Y5350D02*
X58293Y5307D01*
X58993D01*
X59286Y5600D01*
G01X77300D02*
X77500Y5800D01*
X86200D01*
X87000Y5000D01*
G01X57750Y9350D02*
X57995Y9595D01*
G01X66165D02*
X66310Y9450D01*
X72130D01*
X72275Y9595D01*
G01X73765D02*
X73910Y9450D01*
X84700D01*
G01X58250Y8850D02*
X58550Y8550D01*
X64730D01*
X64775Y8595D01*
G01X73855D02*
X74050Y8400D01*
X79830D01*
X80130Y8100D01*
X92900D01*
X93000Y8200D01*
G01X57750Y13350D02*
X58000Y13600D01*
G01X73950D02*
X74250Y13900D01*
X76290D01*
X76540Y14150D01*
X85950D01*
X86000Y14100D01*
G01X81550Y13650D02*
X81515Y13685D01*
X74385D01*
X73800Y13100D01*
G01X58500D02*
X58250Y13350D01*
G01X58695Y12095D02*
X59400Y12800D01*
X61300D01*
X62500Y11600D01*
G01X73650D02*
X74155Y12105D01*
X83995D01*
X84170Y11930D01*
X86520D01*
X86750Y11700D01*
G01X87500Y15800D02*
X87715Y16015D01*
Y16749D01*
X87350Y17114D01*
X59686D01*
X59650Y17150D01*
G01X60350Y17950D02*
X65950D01*
X66100Y18100D01*
X70240D01*
X70690Y18550D01*
X73130D01*
X73360Y18320D01*
X77530D01*
X77800Y18050D01*
X78750D01*
X78875Y18175D01*
X95275D01*
X96785Y16665D01*
Y16015D01*
X97000Y15800D01*
G01X59900Y19250D02*
X59950Y19300D01*
X60750D01*
X61109Y18941D01*
X76100D01*
G01X62250Y2100D02*
X62300Y2050D01*
Y1050D01*
X62650Y700D01*
X74950D01*
X75200Y450D01*
X78650D01*
X80700Y2500D01*
X92600D01*
G01X62200Y14400D02*
X62500Y14100D01*
G01X73700D02*
X73775Y14175D01*
X76195D01*
X76370Y14350D01*
X96000D01*
G01X60750Y17650D02*
X81880D01*
X82097Y17867D01*
X82573D01*
X82790Y17650D01*
X88200D01*
X88715Y17135D01*
Y16015D01*
X88500Y15800D01*
G01X88000D02*
X88215Y16015D01*
Y17085D01*
X87900Y17400D01*
X61250D01*
G01X62950Y2250D02*
Y1100D01*
X63095Y955D01*
X78805D01*
X80550Y2700D01*
X93700D01*
G01X65955Y4605D02*
X66050Y4700D01*
X66782D01*
X66900Y4582D01*
G01X74650Y4550D02*
Y4450D01*
X74550Y4350D01*
Y4009D01*
X74396Y3855D01*
X66369D01*
X66250Y3736D01*
G01X65750Y4850D02*
X65800Y4800D01*
X66782D01*
X66900Y4918D01*
G01X74380Y4550D02*
Y4470D01*
X74450Y4400D01*
Y4051D01*
X74354Y3955D01*
X66368D01*
X66250Y4073D01*
G01X94450Y8000D02*
X93750D01*
X93600Y7850D01*
X79580D01*
X79330Y8100D01*
X69200D01*
X68950Y8350D01*
X66096D01*
G01X65495Y8105D02*
X65250Y8350D01*
G01X65505Y7595D02*
X65250Y7850D01*
G01Y12350D02*
X65495Y12105D01*
X65641D01*
X65646Y12100D01*
X65854D01*
X65859Y12105D01*
X66055D01*
X66400Y12450D01*
X71950D01*
X72295Y12105D01*
G01X73755D02*
X74150Y12500D01*
X87000D01*
X87150Y12650D01*
X92700D01*
X92975Y12375D01*
G01X65250Y14850D02*
X65495Y14605D01*
X65641D01*
X65646Y14600D01*
X65854D01*
X65859Y14605D01*
X66145D01*
X66390Y14850D01*
X70900D01*
X71155Y14595D01*
G01X74535D02*
X74690Y14750D01*
X75770D01*
X75830Y14690D01*
X87310D01*
X87400Y14600D01*
G01X76400Y18750D02*
X66250D01*
X65750Y18250D01*
G01X67418Y1700D02*
X67300Y1582D01*
Y1300D01*
X67380Y1220D01*
X78378D01*
X80309Y3150D01*
X98350D01*
X99250Y4050D01*
Y6759D01*
X98650Y7358D01*
Y8375D01*
X98575Y8450D01*
X98500D01*
G01X67082Y1700D02*
X67200Y1582D01*
Y1258D01*
X67339Y1120D01*
X78420D01*
X80350Y3050D01*
X98391D01*
X99350Y4009D01*
Y6800D01*
X98750Y7400D01*
Y8363D01*
X98837Y8450D01*
G01X67700Y3232D02*
X67818Y3350D01*
X70660D01*
X70715Y3405D01*
X70885D01*
X70940Y3350D01*
X71418D01*
X71424Y3345D01*
X71676D01*
X71682Y3350D01*
X75100D01*
X75450Y3700D01*
Y4232D01*
X75569Y4350D01*
G01X67700Y3568D02*
X67818Y3450D01*
X70618D01*
X70674Y3505D01*
X70926D01*
X70982Y3450D01*
X71460D01*
X71465Y3445D01*
X71635D01*
X71640Y3450D01*
X75058D01*
X75350Y3742D01*
Y4232D01*
X75232Y4350D01*
G01X87000Y15800D02*
X87215Y16015D01*
Y16735D01*
X87122Y16828D01*
X85283D01*
X85277Y16835D01*
X79820D01*
X79810Y16845D01*
X67073D01*
X67057Y16828D01*
X67000D01*
G01X95518Y7500D02*
X95400Y7382D01*
Y7158D01*
X95291Y7050D01*
X75500D01*
X75450Y7000D01*
Y6868D01*
X75569Y6750D01*
G01X95182Y7500D02*
X95300Y7382D01*
Y7200D01*
X95250Y7150D01*
X75459D01*
X75350Y7041D01*
Y6869D01*
X75232Y6750D01*
G01X97500Y5000D02*
X97300Y5200D01*
Y7492D01*
X96892Y7900D01*
X94759D01*
X94558Y7700D01*
X74340D01*
X74210Y7830D01*
G01X97000Y5000D02*
X97200Y5200D01*
Y7450D01*
X96850Y7800D01*
X94800D01*
X94600Y7600D01*
X74317D01*
X74210Y7494D01*
G01X86175Y11475D02*
X85840Y11810D01*
X75789D01*
X74478Y10500D01*
G01X85675Y10975D02*
X85546Y11104D01*
X76082D01*
X75478Y10500D01*
G01X74850D02*
X74978D01*
X75935Y11457D01*
X83895D01*
X83973Y11535D01*
X84127D01*
X84205Y11457D01*
X85693D01*
X85925Y11225D01*
G01X85425Y10725D02*
X85400Y10750D01*
X76228D01*
X75978Y10500D01*
G01X96600Y15100D02*
X96495Y15205D01*
X76434D01*
X76265Y15035D01*
G01X76074Y15226D02*
X76297Y15450D01*
X97150D01*
X97500Y15800D01*
G01X80750Y12850D02*
X81700D01*
X81930Y12620D01*
X82770D01*
X82950Y12800D01*
X93500D01*
G54D18*
X17045Y21825D03*
Y23475D03*
X18695Y21825D03*
Y23475D03*
G54D19*
X17870Y26345D03*
M02*
