G04 ================== begin FILE IDENTIFICATION RECORD ==================*
G04 Layout Name:  //MAC/HOME/DESKTOP/SPB_DATA/CAPTURE/CIS_ATCS/allegro/ATCS_Final.brd*
G04 Film Name:    SOLDERMASK_TOP*
G04 File Format:  Gerber RS274X*
G04 File Origin:  Cadence Allegro 17.2-P019*
G04 Origin Date:  Thu Jun 21 16:22:32 2018*
G04 *
G04 Layer:  VIA CLASS/SOLDERMASK_TOP*
G04 Layer:  PIN/SOLDERMASK_TOP*
G04 Layer:  PACKAGE GEOMETRY/SOLDERMASK_TOP*
G04 Layer:  DRC ERROR CLASS/SOLDERMASK_TOP*
G04 Layer:  BOARD GEOMETRY/SOLDERMASK_TOP*
G04 *
G04 Offset:    (0.00 0.00)*
G04 Mirror:    No*
G04 Mode:      Positive*
G04 Rotation:  0*
G04 FullContactRelief:  No*
G04 UndefLineWidth:     0.00*
G04 ================== end FILE IDENTIFICATION RECORD ====================*
%FSLAX54Y54*MOIN*%
%IR0*IPPOS*OFA0.00000B0.00000*MIA0B0*SFA1.00000B1.00000*%
%ADD32R,.06X.1*%
%ADD59R,.005X.02*%
%ADD60R,.02X.005*%
%ADD52R,.05X.118*%
%ADD26R,.13X.067*%
%ADD11C,.03*%
%ADD12C,.022*%
%ADD65R,.009X.032*%
%ADD62R,.032X.009*%
%ADD16C,.07*%
%ADD14C,.026*%
%ADD10C,.08*%
%ADD17C,.037*%
%ADD51R,.07X.07*%
%ADD50C,.095*%
%ADD27R,.09X.09*%
%ADD46R,.069X.069*%
%ADD58R,.014X.04*%
%ADD56R,.04X.014*%
%ADD39R,.05X.014*%
%ADD35C,.11*%
%ADD23R,.01X.028*%
%ADD64R,.028X.01*%
%ADD54R,.225X.16*%
%ADD45R,.016X.04*%
%ADD57R,.004X.004*%
%ADD61R,.04X.018*%
%ADD55R,.004X.004*%
%ADD53R,.017X.042*%
%ADD41R,.028X.04*%
%ADD40R,.015X.026*%
%ADD22R,.027X.025*%
%ADD15C,.25*%
%ADD21R,.025X.027*%
%ADD37R,.094X.07*%
%ADD63R,.07X.094*%
%ADD66R,.106X.106*%
%ADD24R,.05512X.04331*%
%ADD49R,.04252X.04134*%
%ADD47R,.01181X.03543*%
%ADD34R,.04134X.04252*%
%ADD48R,.02362X.0374*%
%ADD44R,.03543X.01181*%
%ADD13R,.02362X.02165*%
%ADD25R,.02165X.02362*%
%ADD19R,.0374X.0374*%
%ADD38R,.03543X.0374*%
%ADD36R,.0374X.0374*%
%ADD29R,.0375X.0158*%
%ADD30R,.0158X.0375*%
%ADD18R,.0374X.03543*%
%ADD43R,.01181X.05906*%
%ADD42R,.05906X.01181*%
%ADD31R,.14183X.14183*%
%ADD28R,.05906X.05118*%
%ADD20R,.05118X.05906*%
%ADD33R,.04921X.0689*%
G75*
%LPD*%
G75*
G36*
G01X114260Y11560D02*
Y11450D01*
X113320D01*
Y11560D01*
X113730D01*
Y11830D01*
X113990D01*
Y11560D01*
X114260D01*
G37*
G36*
G01X114860Y9930D02*
Y10750D01*
X115190D01*
Y10540D01*
X114970D01*
Y9930D01*
X114860D01*
G37*
G36*
G01X111990Y9580D02*
Y11120D01*
X112100D01*
Y9580D01*
X111990D01*
G37*
G36*
G01X112280Y9250D02*
Y9360D01*
X114570D01*
Y9250D01*
X112280D01*
G37*
G36*
G01X112270Y11450D02*
Y11560D01*
X113200D01*
Y11450D01*
X112270D01*
G37*
G54D10*
X1530Y1530D03*
X48480Y27360D03*
G54D20*
X8306Y21400D03*
X9606Y7700D03*
X10394D03*
X9606Y15650D03*
X10394D03*
X9094Y21400D03*
X9056Y24700D03*
X9844D03*
X10656D03*
X12244Y21400D03*
X11456D03*
X11444Y24700D03*
X17356Y4100D03*
Y9050D03*
X17406Y15050D03*
X18144Y4100D03*
Y9050D03*
X18194Y15050D03*
X21494Y3550D03*
X20706D03*
X21494Y8500D03*
X20706D03*
X21544Y14500D03*
X20756D03*
X22506Y21500D03*
X23294D03*
X40096Y5950D03*
X40884D03*
X48476Y3690D03*
X49264D03*
X48626Y7640D03*
X49414D03*
X69106Y34050D03*
X69894D03*
X69856Y37350D03*
X70644D03*
X71456D03*
X73044Y34050D03*
X72256D03*
X72244Y37350D03*
X74706Y34000D03*
X75494D03*
X77056D03*
X77844D03*
X81456Y34050D03*
X82244D03*
X82206Y37350D03*
X83806D03*
X82994D03*
X85394Y34050D03*
X84606D03*
X84594Y37350D03*
X87056Y34000D03*
X87844D03*
X89406D03*
X90194D03*
X99056Y32100D03*
X99206Y38300D03*
X99844Y32100D03*
X99994Y38300D03*
X106974Y8680D03*
X106186D03*
X106686Y7600D03*
X107474D03*
X110194Y32100D03*
X109406D03*
X110094Y38350D03*
X109306D03*
X119824Y12800D03*
X119036D03*
X130484Y8660D03*
X129696D03*
X130196Y7580D03*
X130984D03*
X130196Y29030D03*
X130984D03*
X130484Y30110D03*
X129696D03*
X142546Y12780D03*
Y34230D03*
X143334Y12780D03*
Y34230D03*
G54D11*
X2300Y3850D03*
Y4350D03*
Y4850D03*
Y5350D03*
Y5850D03*
Y6350D03*
Y6850D03*
Y7350D03*
Y7850D03*
Y8350D03*
Y8850D03*
Y9350D03*
Y9850D03*
Y10350D03*
Y10850D03*
Y11350D03*
Y11850D03*
Y12350D03*
Y12850D03*
Y13350D03*
Y13850D03*
Y14350D03*
Y14850D03*
Y15350D03*
Y15850D03*
Y16350D03*
Y16850D03*
Y17350D03*
Y17850D03*
Y18350D03*
Y18850D03*
Y19350D03*
Y19850D03*
Y20350D03*
Y20850D03*
Y21350D03*
Y21850D03*
Y22350D03*
Y22850D03*
Y23350D03*
X4300Y3850D03*
Y4350D03*
Y4850D03*
Y5350D03*
X2800Y3850D03*
Y4350D03*
Y4850D03*
Y5350D03*
X4300Y5850D03*
Y6350D03*
Y6850D03*
Y7350D03*
X2800Y5850D03*
Y6350D03*
Y6850D03*
Y7350D03*
X4300Y7850D03*
Y8350D03*
Y8850D03*
Y9350D03*
X2800Y7850D03*
Y8350D03*
Y8850D03*
Y9350D03*
X4300Y9850D03*
Y10350D03*
Y10850D03*
Y11350D03*
Y11850D03*
X2800Y9850D03*
Y10350D03*
Y10850D03*
Y11350D03*
Y11850D03*
X4300Y12350D03*
Y12850D03*
Y13350D03*
Y13850D03*
X2800Y12350D03*
Y12850D03*
Y13350D03*
Y13850D03*
X4300Y14350D03*
Y14850D03*
Y15350D03*
Y15850D03*
X2800Y14350D03*
Y14850D03*
Y15350D03*
Y15850D03*
X4300Y16350D03*
Y16850D03*
Y17350D03*
Y17850D03*
X2800Y16350D03*
Y16850D03*
Y17350D03*
Y17850D03*
X4300Y18350D03*
Y18850D03*
Y19350D03*
Y19850D03*
Y20350D03*
X2800Y18350D03*
Y18850D03*
Y19350D03*
Y19850D03*
Y20350D03*
X4300Y20850D03*
Y21350D03*
Y21850D03*
Y22350D03*
X2800Y20850D03*
Y21350D03*
Y21850D03*
Y22350D03*
X4300Y22850D03*
Y23350D03*
X2800Y22850D03*
Y23350D03*
X4800Y3850D03*
Y4350D03*
Y4850D03*
Y5350D03*
Y5850D03*
Y6350D03*
Y6850D03*
Y7350D03*
Y7850D03*
Y8350D03*
Y8850D03*
Y9350D03*
Y9850D03*
Y10350D03*
Y10850D03*
Y11350D03*
Y11850D03*
Y12350D03*
Y12850D03*
Y13350D03*
Y13850D03*
Y14350D03*
Y14850D03*
Y15350D03*
Y15850D03*
Y16350D03*
Y16850D03*
Y17350D03*
Y17850D03*
Y18350D03*
Y18850D03*
Y19350D03*
Y19850D03*
Y20350D03*
Y20850D03*
Y21350D03*
Y21850D03*
Y22350D03*
Y22850D03*
Y23350D03*
X82000Y4500D03*
Y5000D03*
X81500Y4500D03*
Y5000D03*
X82000Y15800D03*
X81500D03*
X82000Y16300D03*
X81500D03*
X84000Y4500D03*
Y5000D03*
X83500Y4500D03*
Y5000D03*
X83000Y4500D03*
Y5000D03*
X82500Y4500D03*
Y5000D03*
X84000Y15800D03*
X83500D03*
X83000D03*
X82500D03*
X84000Y16300D03*
X83500D03*
X83000D03*
X82500D03*
X86500Y4500D03*
Y5000D03*
X86000Y4500D03*
Y5000D03*
X85500Y4500D03*
Y5000D03*
X85000Y4500D03*
Y5000D03*
X84500Y4500D03*
Y5000D03*
X86500Y15800D03*
X86000D03*
X85500D03*
X85000D03*
X84500D03*
X86500Y16300D03*
X86000D03*
X85500D03*
X85000D03*
X84500D03*
X88500Y4500D03*
Y5000D03*
X88000Y4500D03*
Y5000D03*
X87500Y4500D03*
Y5000D03*
X87000Y4500D03*
Y5000D03*
X88500Y15800D03*
X88000D03*
X87500D03*
X87000D03*
X88500Y16300D03*
X88000D03*
X87500D03*
X87000D03*
X90500Y4500D03*
Y5000D03*
X90000Y4500D03*
Y5000D03*
X89500Y4500D03*
Y5000D03*
X89000Y4500D03*
Y5000D03*
X90500Y15800D03*
X90000D03*
X89500D03*
X89000D03*
X90500Y16300D03*
X90000D03*
X89500D03*
X89000D03*
X92500Y4500D03*
Y5000D03*
X92000Y4500D03*
Y5000D03*
X91500Y4500D03*
Y5000D03*
X91000Y4500D03*
Y5000D03*
X92500Y15800D03*
X92000D03*
X91500D03*
X91000D03*
X92500Y16300D03*
X92000D03*
X91500D03*
X91000D03*
X95000Y4500D03*
Y5000D03*
X94500Y4500D03*
Y5000D03*
X94000Y4500D03*
Y5000D03*
X93500Y4500D03*
Y5000D03*
X93000Y4500D03*
Y5000D03*
X95000Y15800D03*
X94500D03*
X94000D03*
X93500D03*
X93000D03*
X95000Y16300D03*
X94500D03*
X94000D03*
X93500D03*
X93000D03*
X97000Y4500D03*
Y5000D03*
X96500Y4500D03*
Y5000D03*
X96000Y4500D03*
Y5000D03*
X95500Y4500D03*
Y5000D03*
X97000Y15800D03*
X96500D03*
X96000D03*
X95500D03*
X97000Y16300D03*
X96500D03*
X96000D03*
X95500D03*
X98500Y4500D03*
Y5000D03*
X98000Y4500D03*
Y5000D03*
X97500Y4500D03*
Y5000D03*
X98500Y15800D03*
X98000D03*
X97500D03*
X98500Y16300D03*
X98000D03*
X97500D03*
X100500Y32890D03*
Y32390D03*
Y31840D03*
X100650Y38040D03*
Y38590D03*
Y39090D03*
X110850Y31890D03*
Y32440D03*
Y32940D03*
X110750Y38140D03*
Y38690D03*
Y39190D03*
G54D30*
X11661Y5726D03*
X11858D03*
X12055D03*
X12252D03*
X12448D03*
X12645D03*
X12842D03*
X13039D03*
Y7674D03*
X12842D03*
X12645D03*
X12448D03*
X12252D03*
X12055D03*
X11858D03*
X11661D03*
Y13676D03*
X11858D03*
X12055D03*
X12252D03*
X12448D03*
X12645D03*
X12842D03*
X13039D03*
Y15624D03*
X12842D03*
X12645D03*
X12448D03*
X12252D03*
X12055D03*
X11858D03*
X11661D03*
G54D21*
X9914Y8450D03*
X10386D03*
X9914Y16400D03*
X10386D03*
X14736Y6600D03*
X14264D03*
X14736Y6050D03*
X14264D03*
X14736Y5550D03*
X14264D03*
X14736Y13500D03*
X14264D03*
X14736Y14550D03*
X14264D03*
X14736Y14000D03*
X14264D03*
X19234Y2440D03*
X19434Y5140D03*
X19234Y7390D03*
X19434Y10090D03*
X19284Y13390D03*
X19484Y16090D03*
X19706Y2440D03*
X19906Y5140D03*
X19706Y7390D03*
X19906Y10090D03*
X19756Y13390D03*
X19956Y16090D03*
X22214Y18600D03*
X22686D03*
X25136Y4650D03*
X24664D03*
X26614D03*
X27086D03*
X27964Y11350D03*
X26164Y12500D03*
X26636D03*
X27964Y12100D03*
X27764Y15700D03*
X27586Y16800D03*
X27114D03*
X27314Y22150D03*
X27786D03*
X26364D03*
X26836D03*
X28436Y11350D03*
Y12100D03*
X28236Y15700D03*
X29214Y22150D03*
X29686D03*
X28264D03*
X28736D03*
X30164D03*
X32264Y13250D03*
X31614Y14350D03*
X32086D03*
X31864Y16800D03*
X32336D03*
X32064Y22150D03*
X31114D03*
X31586D03*
X30636D03*
X32414Y24600D03*
Y25050D03*
Y25500D03*
X33486Y4650D03*
X33014D03*
X34214Y9050D03*
X32736Y13250D03*
X32514Y15700D03*
X32986D03*
X32536Y22150D03*
X33014D03*
X33486D03*
X34314D03*
X32886Y24600D03*
X34664Y24650D03*
X32886Y25050D03*
X34664Y25150D03*
X32886Y25500D03*
X34664Y25750D03*
X34964Y4650D03*
X35436D03*
X34686Y9050D03*
X35264Y22150D03*
X35736D03*
X34786D03*
X36214D03*
X36686D03*
X35136Y24650D03*
Y25150D03*
Y25750D03*
X37164Y22150D03*
X37636D03*
X38114D03*
X38586D03*
X40404Y6650D03*
X40876D03*
X40036Y9400D03*
X39564D03*
X40386Y17200D03*
X39914D03*
X40014Y22150D03*
X40486D03*
X39064D03*
X39536D03*
X40964D03*
X40836Y24600D03*
X40364D03*
X40836Y25050D03*
X40364D03*
X40836Y25500D03*
X40364D03*
X42476Y6650D03*
X42004D03*
X43114Y13650D03*
Y14400D03*
X43164Y22150D03*
X42214D03*
X42686D03*
X41436D03*
X42564Y24650D03*
X43036D03*
X42564Y25750D03*
X43036D03*
X42564Y25150D03*
X43036D03*
X43586Y13650D03*
Y14400D03*
X43636Y22150D03*
X44114D03*
X44586D03*
X45064D03*
X46014D03*
X46486D03*
X46964D03*
X47436D03*
X45536D03*
X48864D03*
X49336D03*
X47914D03*
X48386D03*
X48736Y24600D03*
X48264D03*
X48736Y25500D03*
X48264D03*
X48736Y25050D03*
X48264D03*
X96486Y7100D03*
X96014D03*
X98056Y30990D03*
X97584D03*
X98256Y33690D03*
X97784D03*
X98206Y37190D03*
X97734D03*
X98406Y39890D03*
X97934D03*
X106994Y6950D03*
X107466D03*
X106666Y9330D03*
X106194D03*
X107914Y37100D03*
X109036Y7600D03*
X108564D03*
X108486Y30850D03*
X108014D03*
X108886Y33800D03*
X108414D03*
X108386Y37100D03*
X108786Y40050D03*
X108314D03*
X118654Y32050D03*
Y34400D03*
X119516Y13450D03*
X119044D03*
X119126Y32050D03*
Y34400D03*
X130504Y6930D03*
X130976D03*
X130176Y9310D03*
X129704D03*
X130504Y28380D03*
X130976D03*
X130176Y30760D03*
X129704D03*
X132546Y7580D03*
X132074D03*
X132546Y29030D03*
X132074D03*
X143026Y13430D03*
X142554D03*
X143026Y34880D03*
X142554D03*
G54D12*
X1450Y4500D03*
X1550Y16600D03*
X1050Y22250D03*
X3900Y8100D03*
X3877Y10558D03*
X3400Y11450D03*
X3300Y18900D03*
X3850Y23900D03*
X3480Y22980D03*
X3700Y23600D03*
X6650Y700D03*
X5950Y2250D03*
X6600Y2750D03*
X5968Y1850D03*
X6300Y1450D03*
X6205Y6045D03*
X5250Y9600D03*
X5222Y13428D03*
X5700Y13850D03*
X5850Y12050D03*
X6200Y13150D03*
X5350Y14750D03*
Y19350D03*
X6050Y21600D03*
X5400Y22900D03*
X5750Y23450D03*
X5600Y24750D03*
X6550Y27100D03*
X7150Y915D03*
X6900Y450D03*
X7250Y2750D03*
X7100Y6400D03*
X8061Y6011D03*
X6702Y6602D03*
X7608Y6208D03*
X8650Y7400D03*
X7135Y11315D03*
X8050Y10450D03*
X7100Y14355D03*
X8039Y14889D03*
Y13961D03*
X7608Y14158D03*
Y15892D03*
X8250Y15850D03*
X8300Y17835D03*
X6702Y18902D03*
X8258Y20100D03*
X6750Y20850D03*
X8350Y23200D03*
X7200Y26400D03*
X6900Y26750D03*
X7600Y26200D03*
X9350Y1100D03*
X10600Y4106D03*
X10650Y6650D03*
X10958Y7192D03*
X9050Y7700D03*
X9450Y8450D03*
X10900Y7700D03*
X10958Y15142D03*
X9050Y15650D03*
X10900D03*
X9450Y16400D03*
X10000Y17835D03*
X9250Y20300D03*
X9450Y20850D03*
X9772Y22958D03*
X10072D03*
X10372D03*
X10672D03*
X9772Y23258D03*
X10072D03*
X10372D03*
X10672D03*
X8950Y23180D03*
X9250D03*
X8940Y22900D03*
X9250D03*
X9300Y23750D03*
X9000D03*
X10930Y28330D03*
X12500Y1850D03*
X11850Y3900D03*
X12450Y5250D03*
X11858Y5300D03*
X11200Y5400D03*
X11900Y7150D03*
Y6250D03*
X12350Y6700D03*
X12800Y7150D03*
Y6250D03*
X11858Y8400D03*
Y8660D03*
X11300Y7698D03*
X11850Y10550D03*
X11200Y11500D03*
Y9950D03*
X12400D03*
X13050D03*
X11250Y13260D03*
X11858Y13250D03*
X11850Y11850D03*
X12550D03*
X12900Y13250D03*
Y12000D03*
X11052Y14748D03*
X11900Y14200D03*
X12350Y14650D03*
X12800Y14200D03*
X11900Y15100D03*
X11300Y15648D03*
X12800Y15100D03*
X11200Y17900D03*
X11858Y16610D03*
Y16350D03*
X12900Y17200D03*
X12250Y19400D03*
X11850Y18500D03*
X11430Y22880D03*
X11120D03*
X11430Y23160D03*
X11130D03*
X11400Y23750D03*
X11123D03*
X12800Y25350D03*
X12150Y28300D03*
X11000Y27750D03*
X13650Y1300D03*
X13550Y5550D03*
X15150Y6050D03*
X15044Y7194D03*
X15150Y5550D03*
X13750Y6300D03*
Y7050D03*
X13800Y6602D03*
X13775Y5725D03*
X13450Y13550D03*
X15150Y13500D03*
X13847Y13547D03*
X15044Y15144D03*
X15150Y14000D03*
X13750Y14250D03*
Y15000D03*
X13800Y14552D03*
X15350Y5100D03*
X16700Y7300D03*
X16427Y6173D03*
X16150Y6000D03*
X16850Y5550D03*
Y6650D03*
X16700Y7800D03*
X15750Y8100D03*
X15700Y8400D03*
X17000Y7450D03*
X16950Y10100D03*
X15370Y10380D03*
X15700Y12350D03*
X15300Y15450D03*
X17250Y16150D03*
X15300Y16850D03*
Y16150D03*
X15450Y16550D03*
X15800Y16650D03*
X17068Y20000D03*
X16732D03*
X19050Y3850D03*
X19550Y3848D03*
X17555Y6470D03*
X18600Y6250D03*
X18100Y6900D03*
X19381Y8798D03*
X19050Y8800D03*
X17650Y10880D03*
X18540Y13400D03*
X18150Y13130D03*
X18170Y12090D03*
X19100Y14800D03*
X18540Y17430D03*
X17920Y17750D03*
X19550Y20450D03*
X20230Y4150D03*
X20250Y4600D03*
X20230Y3550D03*
Y3150D03*
Y9100D03*
Y9450D03*
Y8500D03*
X20200Y8150D03*
X19700Y8800D03*
X19650Y14798D03*
X20280Y14000D03*
Y14500D03*
Y15100D03*
Y15470D03*
X20723Y19423D03*
X21550Y19100D03*
X20300Y18900D03*
X22150Y1100D03*
X23000Y2000D03*
X23150Y4050D03*
X23500Y3150D03*
X23750Y3650D03*
X22850Y5500D03*
X23900Y6180D03*
X23840Y7770D03*
X22777Y11018D03*
X23500Y12350D03*
X22200Y12000D03*
X22600D03*
X23500Y15000D03*
X23620Y16250D03*
X22850Y16900D03*
X22150Y17420D03*
X23270Y17210D03*
X22850Y19900D03*
X22750Y19000D03*
X22200Y19100D03*
X23791Y19585D03*
X21843Y18953D03*
X21900Y19800D03*
X23275Y18875D03*
X23460Y20750D03*
X23150Y20850D03*
X21900Y20400D03*
X22600Y22250D03*
X23700Y20406D03*
X22950Y21045D03*
X22700Y20850D03*
X22250Y20700D03*
X22952Y22148D03*
X22150Y24000D03*
X22159Y24341D03*
X22448Y24348D03*
X23890Y23100D03*
X22410D03*
X23850Y24300D03*
X22850Y23650D03*
X23450D03*
X22355Y26145D03*
X23600Y25950D03*
X22900Y25400D03*
X23250D03*
X24350Y2550D03*
X24150Y2050D03*
X24350Y1400D03*
X24230Y4560D03*
X25990Y5090D03*
X25150Y6730D03*
X24240Y6000D03*
X24050Y7300D03*
X24200Y6789D03*
X25160Y6320D03*
X25190Y5340D03*
X24200Y6500D03*
X25700Y5750D03*
X25780Y6300D03*
X25950Y6730D03*
X25500D03*
X25470Y6300D03*
X25190Y8210D03*
X25200Y7950D03*
X24300Y8350D03*
X26000Y9300D03*
X26040Y7460D03*
X25700Y7450D03*
X25950Y8400D03*
X25190Y7440D03*
X24250Y7700D03*
X25500Y9350D03*
X26000Y10500D03*
X25350Y10950D03*
X25550Y11570D03*
X25600Y12150D03*
X25500Y12570D03*
Y17450D03*
X24744Y16644D03*
X25850Y18650D03*
X24050Y19500D03*
X24744Y18406D03*
X24050Y23900D03*
X24141Y24341D03*
X27900Y1650D03*
X27400Y2000D03*
X26350Y5050D03*
X26800Y5100D03*
X26720Y4150D03*
X26330Y6710D03*
X28190Y6660D03*
X27490Y6990D03*
X26575Y7425D03*
X27550Y7260D03*
X26650Y5600D03*
X27605Y6615D03*
X26571Y6911D03*
X26500Y6100D03*
X26960Y8500D03*
X27550Y8440D03*
X27526Y8031D03*
X27570Y9350D03*
X26500Y7750D03*
X26350Y8430D03*
X26116Y11334D03*
X27300Y11000D03*
X27150Y11713D03*
X27000Y11334D03*
X26350Y11200D03*
X26372Y13428D03*
X27669Y12943D03*
X27000Y12050D03*
X27250Y13250D03*
X27300Y12500D03*
X28200Y13045D03*
X26800Y14950D03*
Y15800D03*
X26090Y15710D03*
X26390Y14930D03*
X28077Y19623D03*
X27527D03*
X27800Y20350D03*
X27450Y18850D03*
X27550Y21100D03*
X26600D03*
X27800Y22450D03*
X27300D03*
X26850D03*
X26350D03*
X26850Y20450D03*
X26250Y21150D03*
X27150Y21100D03*
X27800Y23550D03*
X27600Y24657D03*
X27550Y26530D03*
X27586Y25764D03*
X27550Y25300D03*
X28100Y26850D03*
X28344Y1306D03*
X28650Y4850D03*
X28344Y5694D03*
X28900Y5350D03*
X28750Y6160D03*
X29140Y5560D03*
X29050Y6920D03*
X29150Y6150D03*
X29390Y7400D03*
X29270Y8780D03*
X28250Y7780D03*
X28913Y11713D03*
X29050Y10863D03*
X28850Y10350D03*
X28486Y13000D03*
X28436Y11750D03*
X28950Y15150D03*
Y17200D03*
X30232Y20000D03*
X30125Y18475D03*
X28500Y21100D03*
X29450D03*
X29200Y22450D03*
X28250D03*
X30150D03*
X28750D03*
X29700D03*
X28650Y24550D03*
X29350Y26300D03*
X29945D03*
X28650Y24955D03*
X28600Y25545D03*
X29750Y25100D03*
X29150Y27750D03*
X29950Y27800D03*
X29700Y27550D03*
X31100Y1650D03*
X32200Y5373D03*
X32300Y5850D03*
X31510Y6700D03*
X31115Y6370D03*
X30810Y7660D03*
X32460Y7440D03*
X32050Y8400D03*
X31950Y9100D03*
X31510Y8860D03*
X32455Y7835D03*
X30650Y11600D03*
X30850Y9700D03*
X31800Y10200D03*
X31400Y9650D03*
Y10700D03*
X31250Y14500D03*
X31200Y15800D03*
X31350Y18000D03*
X31250Y17400D03*
X30950Y17200D03*
X32050Y19950D03*
X31182D03*
X31963Y18300D03*
X31518Y19950D03*
X32300Y18300D03*
X30400Y21100D03*
X31350D03*
X32300D03*
X30650Y22450D03*
X31600D03*
X32050D03*
X31100D03*
X32000Y24500D03*
X31950Y25700D03*
X32000Y25100D03*
X31859Y25400D03*
X30400Y28200D03*
X32750Y3050D03*
X34350Y1050D03*
X33000Y5050D03*
X33534Y3250D03*
X34650Y7400D03*
X32550Y6450D03*
X34550Y5650D03*
X33750Y7300D03*
X33460Y6420D03*
X34700Y7050D03*
X33750Y5900D03*
X33930Y6930D03*
X33750Y8700D03*
X33230Y9270D03*
X34520Y8650D03*
X34650Y7740D03*
X34550Y8100D03*
X34500Y11150D03*
X33050Y13900D03*
X34650Y12100D03*
X34550Y12550D03*
X33050Y15100D03*
X33800Y14500D03*
X33103Y15365D03*
X33300Y17550D03*
X33750Y18000D03*
X34100D03*
X33000Y19950D03*
X34382Y20100D03*
X33250Y21100D03*
X34550D03*
X33000Y22450D03*
X33500D03*
X34300D03*
X32550D03*
X32750Y20950D03*
X33700D03*
X34250Y24650D03*
X33300Y25050D03*
X34300Y25750D03*
X34250Y25150D03*
X34683Y26333D03*
X36500Y2500D03*
X35575Y1075D03*
X36250Y1000D03*
X36700D03*
X35900Y1050D03*
X34790Y5390D03*
X36600Y7350D03*
X35791Y6830D03*
X35790Y5630D03*
X34855Y6655D03*
X34796Y5927D03*
X35870Y7300D03*
X36250Y8300D03*
X35200Y9850D03*
X35632Y13750D03*
X35450Y13050D03*
X35968Y13750D03*
X35113Y13050D03*
X35050Y13700D03*
X34750Y12800D03*
X36532Y14900D03*
X35550Y16100D03*
X36100Y16350D03*
X34900Y17500D03*
X36618Y20100D03*
X36282D03*
X35332D03*
X34718D03*
X35668D03*
X36450Y21100D03*
X35500D03*
X36200Y22450D03*
X35750D03*
X36700D03*
X35250D03*
X34800D03*
X36600Y24550D03*
X35550Y24657D03*
X36600Y24955D03*
X36550Y25545D03*
X35300Y26600D03*
X35500Y25300D03*
X36100Y26850D03*
X36950Y2150D03*
X36900Y3850D03*
X38518Y15000D03*
X36868Y14900D03*
X38182Y15000D03*
X38732Y16400D03*
X38682Y17650D03*
X37193Y20050D03*
X38518D03*
X37530D03*
X38182D03*
X37400Y21100D03*
X38350D03*
X37150Y22450D03*
X38100D03*
X38600D03*
X37650D03*
X37300Y26300D03*
X37895D03*
X38450Y28200D03*
X37600Y28000D03*
Y27450D03*
X39950Y300D03*
X39600Y3050D03*
X40900Y1650D03*
X39250Y3350D03*
X39050Y5400D03*
X40360Y11710D03*
X40540Y10130D03*
X40904Y10466D03*
X41162Y11250D03*
X40345Y14808D03*
X39430Y15700D03*
X39093D03*
X39900Y15750D03*
X40750Y17200D03*
X40000Y17600D03*
X39068Y16400D03*
X39018Y17650D03*
X40650Y16300D03*
X39950Y16600D03*
X40650D03*
X40600Y17550D03*
X40418Y19950D03*
X40082D03*
X39430Y20100D03*
X39093D03*
X41031Y20150D03*
X39750Y18500D03*
X39300Y21100D03*
X40250D03*
X40950Y22450D03*
X39550D03*
X40000D03*
X39050D03*
X40500D03*
X39950Y24600D03*
X39900Y25700D03*
X40150Y26350D03*
X40000Y25100D03*
X39850Y25400D03*
X42750Y2242D03*
Y2568D03*
X42450Y1782D03*
Y2108D03*
X41440Y4800D03*
X42753Y11647D03*
X41499Y11250D03*
X42350Y9600D03*
X42340Y9950D03*
X42150Y11650D03*
X42825Y12325D03*
X41350Y15950D03*
X42300Y15900D03*
X42850Y15250D03*
X42651Y17298D03*
X42725Y17725D03*
X41950Y17950D03*
X41434Y17938D03*
X41650Y18100D03*
X42650Y17000D03*
X43000Y16850D03*
X41850Y20350D03*
X43232Y20100D03*
X42317Y20136D03*
X42654D03*
X41700Y18900D03*
X42000D03*
X41368Y20150D03*
X42150Y18250D03*
X42450Y21100D03*
X41200D03*
X42700Y22450D03*
X42200D03*
X43150D03*
X41450D03*
X42150Y24650D03*
Y26700D03*
X42200Y25750D03*
X42150Y25150D03*
X41250Y25050D03*
X44225Y1125D03*
X43350Y4608D03*
Y4282D03*
X44050Y5550D03*
Y5887D03*
X43965Y10630D03*
X43900Y13700D03*
X44000Y12650D03*
X43636Y15300D03*
X43586Y14050D03*
X44000Y14400D03*
X44600Y16890D03*
X43700Y18750D03*
X44703Y19689D03*
X45131Y20050D03*
X45468D03*
X44697Y19959D03*
X43568Y20100D03*
X45300Y21100D03*
X44350D03*
X43400D03*
X43650Y22450D03*
X44100D03*
X45050D03*
X44600D03*
X44500Y24550D03*
X43450Y24657D03*
X43900Y26750D03*
X45200Y26300D03*
X44500Y24955D03*
X44450Y25545D03*
X43400Y25300D03*
X46300Y10350D03*
X47150Y10968D03*
X46300Y10013D03*
X47150Y10632D03*
X46750Y11850D03*
X46900Y13800D03*
X47150Y15550D03*
X45600Y16650D03*
X46081Y20000D03*
X47032Y20100D03*
X45900Y19550D03*
X46418Y20000D03*
X47368Y20100D03*
X46900Y18800D03*
X47200Y21100D03*
X46250D03*
X47450Y22450D03*
X46950D03*
X46000D03*
X46500D03*
X45550D03*
X45795Y26300D03*
X46200Y28200D03*
X45500Y28000D03*
Y27450D03*
X47970Y3690D03*
Y3240D03*
X49348Y5148D03*
X49048D03*
X48748D03*
X49648D03*
X47970Y4990D03*
X49048Y5448D03*
X48748D03*
X49648D03*
X49348D03*
X48230Y6220D03*
X48626Y8284D03*
X49714D03*
X48150Y12937D03*
X48931Y13800D03*
X48150Y12600D03*
X49268Y13800D03*
X47850Y14050D03*
X47982Y19950D03*
X48931Y20150D03*
X48318Y19950D03*
X49268Y20150D03*
X47700Y19150D03*
X49100Y21100D03*
X48150D03*
X47900Y22450D03*
X49350D03*
X48400D03*
X48850D03*
X47850Y24600D03*
X47800Y25700D03*
X47933Y26333D03*
X47900Y25100D03*
X47750Y25400D03*
X50370Y3690D03*
Y3240D03*
Y4990D03*
X50440Y5760D03*
X55405Y9805D03*
X54850Y11000D03*
X55405Y12105D03*
X56193Y17257D03*
X56002Y17448D03*
X56845Y1635D03*
X56595Y1385D03*
X57100Y13600D03*
X56600Y13105D03*
X56575Y16875D03*
X56384Y17066D03*
X57100Y17750D03*
X56800Y19650D03*
X56600Y20800D03*
X59692Y941D03*
X59882Y1132D03*
X60073Y1323D03*
Y5237D03*
X59962Y5850D03*
X59692Y6300D03*
X59100Y8800D03*
X59050Y8050D03*
X59150Y9336D03*
X60500Y15350D03*
X60350Y15850D03*
X59650Y17150D03*
X60350Y17950D03*
X59900Y19250D03*
X62250Y2100D03*
X62200Y14400D03*
X61050Y14850D03*
X61550Y16350D03*
X60750Y17650D03*
X61250Y17400D03*
X62200Y19150D03*
X61000Y18250D03*
X62050Y20232D03*
Y20568D03*
X62950Y2250D03*
X64500Y3000D03*
X63650Y2400D03*
X62913Y16900D03*
X63250D03*
X66900Y4582D03*
X66250Y3736D03*
X66900Y4918D03*
X66250Y4073D03*
X67000Y16828D03*
X65750Y18250D03*
X67418Y1700D03*
X67082D03*
X67700Y3232D03*
Y3568D03*
X69150Y5350D03*
X68700Y7595D03*
Y18500D03*
X68800Y30400D03*
X70950Y19150D03*
X69650Y30400D03*
X71320Y36900D03*
X70780D03*
X70050Y36400D03*
X70702Y35558D03*
X71052Y35908D03*
X70702D03*
X71052Y35558D03*
X72250Y18300D03*
X72500Y19868D03*
Y19532D03*
X72050Y36350D03*
X71402Y35908D03*
Y35558D03*
X75569Y4350D03*
X74650Y4550D03*
X75232Y4350D03*
X74380Y4550D03*
X75569Y6750D03*
X75232D03*
X74210Y7830D03*
Y7494D03*
X74478Y10500D03*
X75478D03*
X74850D03*
X73850Y20132D03*
Y20468D03*
X74150Y21218D03*
Y20882D03*
X75050Y36150D03*
X75350D03*
X75650D03*
X74550Y36970D03*
Y36700D03*
X74610Y35600D03*
X75988Y5963D03*
X75978Y10500D03*
X77540Y12300D03*
Y13500D03*
X76265Y15035D03*
X76074Y15226D03*
X76400Y18750D03*
X76100Y18941D03*
X77700Y36150D03*
X77400D03*
X76900Y36700D03*
Y36970D03*
X76960Y35600D03*
X76341Y36841D03*
X76250Y36400D03*
X78100Y4950D03*
X79800Y16650D03*
X78950Y30250D03*
X78000D03*
Y36150D03*
X78600Y36400D03*
X78691Y36841D03*
X81550Y13650D03*
X80750Y12850D03*
X81780Y17873D03*
X81700Y22250D03*
X81150Y30400D03*
X82000D03*
X84300Y3900D03*
X84000Y6000D03*
X84050Y11350D03*
X82212Y17682D03*
X83752Y35558D03*
X83402D03*
X83052D03*
X83402Y35908D03*
X83052D03*
X83752D03*
X83670Y36900D03*
X82400Y36400D03*
X83130Y36900D03*
X86000Y7350D03*
X86354D03*
X84700Y9450D03*
X86175Y11475D03*
X85425Y10725D03*
X85675Y10975D03*
X85925Y11225D03*
X86000Y14100D03*
X84650Y20950D03*
X85400Y21550D03*
X84400Y36350D03*
X87060Y7350D03*
X86707D03*
X86750Y11700D03*
X87400Y14600D03*
X86900Y36970D03*
Y36700D03*
X86960Y35600D03*
X88600Y36400D03*
X88000Y36150D03*
X87700D03*
X87400D03*
X90230Y1780D03*
X89950Y6404D03*
X89400Y6850D03*
X89000Y13250D03*
X89600Y17670D03*
X89330Y18540D03*
X90350Y30250D03*
X89250Y36970D03*
Y36700D03*
X89310Y35600D03*
X88691Y36841D03*
X90350Y36150D03*
X89750D03*
X90050D03*
X92600Y2500D03*
X90780Y2230D03*
X91850Y1780D03*
X92800Y6650D03*
X92500Y6050D03*
X91000Y14000D03*
X92000Y14700D03*
X91050Y18540D03*
X91300Y30250D03*
X91041Y36841D03*
X90950Y36400D03*
X93700Y2700D03*
X94000Y6800D03*
X94450Y8000D03*
X93000Y8200D03*
X92975Y12375D03*
X93500Y12800D03*
X95518Y7500D03*
X95182D03*
X96000Y14350D03*
X96600Y15100D03*
X98500Y8450D03*
X97900Y7800D03*
X98837Y8450D03*
X98500Y32000D03*
X97400Y32420D03*
X97700D03*
X98000D03*
X98650Y38200D03*
X98150Y38620D03*
X97550D03*
X97850D03*
X101040Y4550D03*
X99650Y7800D03*
X101000Y16300D03*
X101400Y18000D03*
X99900Y22350D03*
X101000Y21800D03*
X103700Y24000D03*
X105100Y23950D03*
X107600Y24000D03*
X109450Y8350D03*
X109705Y14475D03*
X109000Y23950D03*
X111730Y8050D03*
X112330Y9300D03*
Y11500D03*
X112045Y9615D03*
Y11085D03*
X113500Y10400D03*
X113860Y11690D03*
X112750Y10800D03*
X114200D03*
X112750Y10000D03*
X114200Y9950D03*
X113260Y11740D03*
X113740Y29700D03*
Y30650D03*
X116250Y9200D03*
X114530Y9300D03*
X115100Y10650D03*
X114915Y9965D03*
Y11045D03*
X114570Y11500D03*
X116290Y34580D03*
X116325Y36565D03*
X115900Y41530D03*
X116285Y40165D03*
X116850Y9200D03*
X116780Y34556D03*
X117680Y36560D03*
X117623Y37110D03*
X117880Y38110D03*
X118180D03*
X117630D03*
X117880Y38710D03*
X118130D03*
X117630D03*
X117600Y39660D03*
X117680Y40210D03*
X117203Y41427D03*
X119100Y12000D03*
X119600Y11850D03*
X119640Y30650D03*
Y30950D03*
X119890Y30050D03*
X120331Y29959D03*
X119640Y31250D03*
Y33000D03*
Y33300D03*
X119890Y32400D03*
X120331Y32309D03*
X120460Y31750D03*
X120190D03*
X119090Y31690D03*
X119640Y33600D03*
X120460Y34100D03*
X120190D03*
X119090Y34040D03*
X119771Y37360D03*
X119790Y35930D03*
X119300Y35980D03*
X120680Y38710D03*
Y38110D03*
X119750Y39530D03*
X119595Y38045D03*
X118865D03*
X119595Y38775D03*
X118865D03*
Y38410D03*
X119750Y40880D03*
X119180Y40860D03*
X132960Y8330D03*
X133215Y14455D03*
X132960Y29780D03*
X133215Y35905D03*
X135240Y8030D03*
X135840Y9280D03*
X135555Y9595D03*
Y11065D03*
X135840Y11480D03*
X135240Y29480D03*
X135555Y31045D03*
X135840Y30730D03*
X135555Y32515D03*
X135840Y32930D03*
X138040Y9280D03*
X137370Y11670D03*
X137710Y9930D03*
X136260Y9980D03*
X137710Y10780D03*
X136260D03*
X137010Y10380D03*
X138080Y11480D03*
X136770Y11720D03*
X138040Y30730D03*
X137370Y33120D03*
X137710Y31380D03*
X136260Y31430D03*
X137710Y32230D03*
X136260D03*
X137010Y31830D03*
X138080Y32930D03*
X136770Y33170D03*
X139760Y9180D03*
X140360D03*
X138425Y9945D03*
X138610Y10630D03*
X138425Y11025D03*
X139760Y30630D03*
X140360D03*
X138425Y31395D03*
X138610Y32080D03*
X138425Y32475D03*
X143110Y11830D03*
X142610Y11980D03*
X143110Y33280D03*
X142610Y33430D03*
G54D31*
X12350Y6700D03*
Y14650D03*
G54D13*
X1850Y10777D03*
Y10423D03*
X8650Y22073D03*
Y22427D03*
Y24027D03*
Y23673D03*
X11900Y22073D03*
Y22427D03*
Y24027D03*
Y23673D03*
X18350Y2577D03*
Y2223D03*
X18700D03*
Y2577D03*
X18500Y7273D03*
X18150D03*
X18500Y7627D03*
X18150D03*
Y13777D03*
Y13423D03*
X17800D03*
Y13777D03*
X26850Y21777D03*
Y21423D03*
X26350Y21777D03*
Y21423D03*
X27800Y21777D03*
Y21423D03*
X27300Y21777D03*
Y21423D03*
X28350Y16323D03*
Y16677D03*
X30150Y21777D03*
Y21423D03*
X29700Y21777D03*
Y21423D03*
X29200Y21777D03*
Y21423D03*
X28750Y21777D03*
Y21423D03*
X28250Y21777D03*
Y21423D03*
X31800Y5727D03*
Y5373D03*
X31550Y13727D03*
Y13373D03*
X31650Y15773D03*
Y16127D03*
X32050Y20273D03*
Y21777D03*
Y21423D03*
X31600Y21777D03*
Y21423D03*
X31100Y21777D03*
Y21423D03*
X30650Y21777D03*
Y21423D03*
X32050Y20627D03*
X33000Y20273D03*
X33500Y21777D03*
Y21423D03*
X33000Y21777D03*
Y21423D03*
X32550Y21777D03*
Y21423D03*
X34300Y21777D03*
Y21423D03*
X33000Y20627D03*
X36050Y6027D03*
Y5673D03*
X36700Y21777D03*
Y21423D03*
X36200Y21777D03*
Y21423D03*
X35750Y21777D03*
Y21423D03*
X35250Y21777D03*
Y21423D03*
X34800Y21777D03*
Y21423D03*
X38600Y21777D03*
Y21423D03*
X38100Y21777D03*
Y21423D03*
X37650Y21777D03*
Y21423D03*
X37150Y21777D03*
Y21423D03*
X40950Y21777D03*
Y21423D03*
X40500Y21777D03*
Y21423D03*
X40000Y21777D03*
Y21423D03*
X39550Y21777D03*
Y21423D03*
X39050Y21777D03*
Y21423D03*
X42190Y4977D03*
Y4623D03*
X43250Y10377D03*
Y10023D03*
X42200Y21777D03*
Y21423D03*
X43150Y21777D03*
Y21423D03*
X42700Y21777D03*
Y21423D03*
X41450Y21777D03*
Y21423D03*
X45050Y21777D03*
Y21423D03*
X44600Y21777D03*
Y21423D03*
X44100Y21777D03*
Y21423D03*
X43650Y21777D03*
Y21423D03*
X47520Y7063D03*
Y7417D03*
X47450Y21777D03*
Y21423D03*
X46950Y21777D03*
Y21423D03*
X46500Y21777D03*
Y21423D03*
X46000Y21777D03*
Y21423D03*
X45550Y21777D03*
Y21423D03*
X47970Y4063D03*
Y4417D03*
X49070Y6263D03*
Y6617D03*
X47920Y6567D03*
Y6213D03*
X48400Y21777D03*
Y21423D03*
X47900Y21777D03*
Y21423D03*
X49350Y21777D03*
Y21423D03*
X48850Y21777D03*
Y21423D03*
X69450Y34723D03*
Y35077D03*
Y36677D03*
Y36323D03*
X72700Y34723D03*
Y35077D03*
Y36677D03*
Y36323D03*
X81800Y34723D03*
Y35077D03*
Y36677D03*
Y36323D03*
X85050Y34723D03*
Y35077D03*
Y36677D03*
Y36323D03*
X96500Y7523D03*
Y7877D03*
X96000Y7523D03*
Y7877D03*
X118540Y30823D03*
Y33173D03*
Y31177D03*
X118190Y32427D03*
Y32073D03*
X118540Y33527D03*
X118160Y33973D03*
Y34327D03*
X120790Y31527D03*
Y31173D03*
Y33877D03*
Y33523D03*
X121290Y31077D03*
Y30723D03*
Y33073D03*
Y33427D03*
G54D22*
X9090Y22074D03*
Y22546D03*
X11850Y4414D03*
Y4886D03*
X11200Y9114D03*
Y9586D03*
X11850Y12364D03*
Y12836D03*
X11200Y17536D03*
Y17064D03*
X11440Y22074D03*
Y22546D03*
X23250Y19814D03*
Y20286D03*
X22050Y23136D03*
Y22664D03*
X40900Y12364D03*
Y12836D03*
X41950Y9514D03*
Y9986D03*
X43050Y17686D03*
Y17214D03*
X47920Y7054D03*
Y7526D03*
X69890Y35196D03*
Y34724D03*
X72240Y35196D03*
Y34724D03*
X74250Y35164D03*
Y35636D03*
X76600Y35164D03*
Y35636D03*
X82240Y35196D03*
Y34724D03*
X84590Y35196D03*
Y34724D03*
X86600Y35164D03*
Y35636D03*
X88950Y35164D03*
Y35636D03*
X119500Y6336D03*
Y5864D03*
X120000Y6336D03*
Y5864D03*
X119430Y36574D03*
Y37046D03*
X119410Y40266D03*
Y39794D03*
X143010Y6316D03*
Y5844D03*
X143510Y6316D03*
Y5844D03*
X143010Y27766D03*
Y27294D03*
X143510Y27766D03*
Y27294D03*
G54D40*
X26884Y10787D03*
X26628D03*
X26372D03*
X26116D03*
Y11713D03*
X26372D03*
X26628D03*
X26884D03*
X33966Y10763D03*
X34222D03*
X34478D03*
Y9837D03*
X34222D03*
X33966D03*
X34734Y10763D03*
Y9837D03*
G54D41*
X27175Y15290D03*
X26800D03*
X26425D03*
Y16310D03*
X27175D03*
X33425Y13740D03*
X32675D03*
Y14760D03*
X33050D03*
X33425D03*
X33675Y16190D03*
X32925D03*
Y17210D03*
X33300D03*
X33675D03*
G54D23*
X10870Y22530D03*
X10690D03*
X10520D03*
X10340D03*
X10160D03*
X9980D03*
X9810D03*
X9630D03*
Y23670D03*
X9810D03*
X9980D03*
X10160D03*
X10340D03*
X10520D03*
X10690D03*
X10870D03*
X19450Y3300D03*
X19250D03*
X19050D03*
Y4400D03*
X19250D03*
X19450D03*
Y8250D03*
X19250D03*
X19050D03*
Y9350D03*
X19250D03*
X19450D03*
X19300Y14250D03*
X19100D03*
Y15350D03*
X19300D03*
X19650Y3300D03*
Y4400D03*
Y8250D03*
Y9350D03*
X19700Y14250D03*
X19500D03*
Y15350D03*
X19700D03*
X23450Y23100D03*
X23250D03*
X23050D03*
X22850D03*
Y24200D03*
X23050D03*
X23250D03*
X23450D03*
X49790Y4720D03*
X49610D03*
X49440D03*
X49260D03*
X49080D03*
X48900D03*
X48730D03*
X48550D03*
Y5860D03*
X48730D03*
X48900D03*
X49080D03*
X49260D03*
X49440D03*
X49610D03*
X49790D03*
X71320Y35180D03*
X71140D03*
X70960D03*
X70780D03*
X70610D03*
X70430D03*
Y36320D03*
X70610D03*
X70780D03*
X70960D03*
X71140D03*
X71320D03*
X71670Y35180D03*
X71490D03*
Y36320D03*
X71670D03*
X75450Y35600D03*
X75250D03*
X75050D03*
Y36700D03*
X75250D03*
X75450D03*
X75650Y35600D03*
Y36700D03*
X77600Y35600D03*
X77400D03*
Y36700D03*
X77600D03*
X78000Y35600D03*
X77800D03*
Y36700D03*
X78000D03*
X84020Y35180D03*
X83840D03*
X83670D03*
X83490D03*
X83310D03*
X83130D03*
X82960D03*
X82780D03*
Y36320D03*
X82960D03*
X83130D03*
X83310D03*
X83490D03*
X83670D03*
X83840D03*
X84020D03*
X88000Y35600D03*
X87800D03*
X87600D03*
X87400D03*
Y36700D03*
X87600D03*
X87800D03*
X88000D03*
X90350Y35600D03*
X90150D03*
X89950D03*
X89750D03*
Y36700D03*
X89950D03*
X90150D03*
X90350D03*
X98000Y31850D03*
X97800D03*
X97600D03*
X97400D03*
Y32950D03*
X97600D03*
X97800D03*
X98000D03*
X98150Y38050D03*
X97950D03*
X97750D03*
X97550D03*
Y39150D03*
X97750D03*
X97950D03*
X98150D03*
G54D50*
X61740Y35031D03*
Y33653D03*
Y37787D03*
Y36409D03*
X78783Y26950D03*
X80161D03*
X81539D03*
X82917D03*
X98461Y25900D03*
X99839D03*
G54D14*
X1050Y22700D03*
Y23100D03*
X6225Y6675D03*
X6650Y6250D03*
X6650Y13860D03*
X6200Y14300D03*
X7900Y22100D03*
X8100Y21900D03*
X7400Y21400D03*
X7750D03*
X8600Y20650D03*
X8000D03*
X8250Y24700D03*
X8500D03*
X10609Y20259D03*
X9094Y20650D03*
X9980Y24050D03*
X9844Y25194D03*
X12938Y19438D03*
X12900Y18850D03*
X11550Y20350D03*
X11950D03*
X13050Y21400D03*
X12700D03*
X12650Y22150D03*
X12450Y21950D03*
X12300Y24700D03*
X12000D03*
X13847Y10450D03*
X15200Y11803D03*
X14850D03*
X13600Y19438D03*
X13500Y18850D03*
X13800Y23250D03*
X16400Y3600D03*
X16750D03*
Y4100D03*
Y9050D03*
X16400Y8550D03*
X16750D03*
X16450Y11800D03*
X16800Y13950D03*
Y14550D03*
Y15050D03*
X16250Y23250D03*
X18700Y1800D03*
X17650Y4900D03*
X17800Y7350D03*
X17700Y10000D03*
X17800Y13100D03*
X17700Y15850D03*
X21673Y21850D03*
X21650Y21500D03*
X20900Y21750D03*
X21371Y22600D03*
X21400Y23800D03*
X20900Y23550D03*
X22150Y3500D03*
Y4200D03*
Y8450D03*
Y9150D03*
X23050Y10800D03*
X23600D03*
X22200Y14450D03*
Y15150D03*
X23672Y22072D03*
X21950Y21500D03*
X23800Y20900D03*
X24950Y5100D03*
X24900Y4225D03*
X25600Y4650D03*
X26100D03*
X24112Y10788D03*
X24350Y13168D03*
X25850Y11850D03*
X25400D03*
X24400Y14650D03*
Y14100D03*
X25850Y15180D03*
Y15490D03*
X24400Y19211D03*
Y19700D03*
X24600Y20800D03*
X24627Y21850D03*
X24650Y21500D03*
X24350D03*
X24050Y20650D03*
X27100Y4300D03*
X26636Y10400D03*
X26300D03*
X27700Y12614D03*
X26675Y12125D03*
X26164Y12100D03*
X26800Y13956D03*
X26350D03*
X28000Y13950D03*
X26350Y16794D03*
X26800D03*
X28000Y16800D03*
X28600Y15700D03*
Y15040D03*
X28912Y15476D03*
X28667Y27400D03*
X32000Y1600D03*
Y4650D03*
Y5050D03*
X31850Y13250D03*
X31200D03*
X31950Y15750D03*
X30950Y14750D03*
X31500Y16800D03*
X31600Y17200D03*
X30928Y24561D03*
X31950Y26050D03*
X30900Y25350D03*
X30833Y27450D03*
X34000Y4650D03*
X34500D03*
X33014Y4200D03*
X34214Y9450D03*
X34550D03*
X33020Y8470D03*
X33050Y13256D03*
X33775D03*
Y15706D03*
X33300Y15700D03*
X34100Y14500D03*
X34382Y14465D03*
X34493Y17007D03*
X34500Y17350D03*
X33300Y24600D03*
X33950Y25750D03*
X33050Y27453D03*
X32700D03*
X34300Y27450D03*
X35386Y5100D03*
Y4264D03*
X35380Y8430D03*
X36617Y27400D03*
X37350Y2400D03*
X38878Y24561D03*
X38850Y25350D03*
X37250Y27800D03*
X37950D03*
X38783Y27450D03*
X40700Y3600D03*
X39840Y6650D03*
X39440Y5950D03*
X40036Y8936D03*
X39564Y10350D03*
X40890Y11680D03*
X40740Y13350D03*
X40890Y15460D03*
Y15150D03*
X39900Y26050D03*
X41000Y26800D03*
X41700Y1250D03*
X42500Y3950D03*
X42250Y3700D03*
X41450Y3900D03*
X41440Y6650D03*
Y6150D03*
Y5600D03*
X42950Y6500D03*
X42090Y8280D03*
X42440D03*
X42890Y7630D03*
X41600Y10600D03*
X41750Y11550D03*
X41600Y13750D03*
X42450Y13400D03*
X42850Y14914D03*
X42875Y15925D03*
X42750Y14350D03*
X41650Y16950D03*
X41250Y24600D03*
X41900Y25750D03*
X41600Y26800D03*
X43710Y9000D03*
X43800Y17350D03*
X45150Y27800D03*
X44517Y27400D03*
X46600Y3350D03*
Y3950D03*
X47010Y6520D03*
X47610Y7990D03*
X47300Y9350D03*
X46550Y17900D03*
X46778Y24561D03*
X47650Y23400D03*
X46750Y25350D03*
X45850Y27800D03*
X46683Y27450D03*
X49100Y2900D03*
X49080Y3190D03*
X49070Y4290D03*
X49270D03*
X48600Y6310D03*
X49700Y6300D03*
X48170Y7640D03*
X49150Y24600D03*
X48200Y23400D03*
X49150Y25050D03*
X49194Y26400D03*
X47800Y26050D03*
X50170Y7640D03*
X50820Y7740D03*
X50050Y22550D03*
Y23050D03*
X58075Y24125D03*
X58100Y23150D03*
X58050Y25750D03*
X58450Y26150D03*
X64400Y400D03*
X64750Y2400D03*
X64150Y16900D03*
X63100Y23150D03*
X63075Y24125D03*
X63050Y25750D03*
X63450Y26150D03*
X68100Y23150D03*
X68075Y24125D03*
X68050Y25750D03*
X68450Y26150D03*
X69106Y34594D03*
X68600Y34050D03*
X69050Y37350D03*
X69600Y1425D03*
X70800Y3200D03*
X71150Y4850D03*
X69600Y10850D03*
X70550Y28150D03*
X71400Y34050D03*
X70800D03*
X70400D03*
X69300Y37350D03*
X70644Y38094D03*
X71550Y3650D03*
X71650Y18000D03*
Y21400D03*
X73100Y23150D03*
X73075Y24125D03*
X73050Y25750D03*
X73450Y26150D03*
X73500Y34050D03*
X73044Y34544D03*
X73100Y37350D03*
X72800D03*
X71456Y38094D03*
X74950Y4050D03*
X75400Y14500D03*
Y17940D03*
X75494Y34550D03*
X74150Y34000D03*
X73850D03*
X73873Y34350D03*
X77540Y660D03*
X77800Y3000D03*
X75900Y1425D03*
X76676Y3274D03*
X77200Y3850D03*
X76750Y6700D03*
X77200Y9100D03*
X77800Y9700D03*
X77844Y34600D03*
Y33406D03*
X76500Y34000D03*
X76200D03*
X76223Y34350D03*
X78000Y2100D03*
X78850Y4900D03*
X79300Y10200D03*
X78500Y13900D03*
X78350Y14950D03*
X79300Y16350D03*
X78250Y18300D03*
X80800Y7374D03*
X81456Y34594D03*
X80950Y34050D03*
X81400Y37350D03*
X81650D03*
X83350Y9700D03*
X83750Y10200D03*
X82245Y12845D03*
X82750Y34050D03*
X83150D03*
X83750D03*
X83806Y38094D03*
X82994D03*
X84600Y8700D03*
X84450Y12250D03*
X85394Y34544D03*
X85850Y34050D03*
X86500Y34000D03*
X86200D03*
X86223Y34350D03*
X85450Y37350D03*
X85150D03*
X88550Y34000D03*
X88573Y34350D03*
X87844Y34550D03*
X88850Y34000D03*
X90194Y34600D03*
Y33406D03*
X94023Y8977D03*
X94750Y9350D03*
X94450Y13900D03*
Y14600D03*
X96300Y9350D03*
X98400Y31550D03*
X98550Y37750D03*
X102250Y23400D03*
X103800Y24497D03*
X106580Y6950D03*
X106686Y8110D03*
X106376D03*
X107000Y8150D03*
X107080Y9330D03*
X107700Y24497D03*
X106150Y23400D03*
X107820Y32560D03*
Y32250D03*
X107720Y38500D03*
Y38810D03*
X109460Y7600D03*
X109780D03*
X109050Y8944D03*
X109344D03*
X108950Y31480D03*
X109350Y31550D03*
X109250Y37800D03*
X108850Y37730D03*
X111650Y23150D03*
X111625Y24125D03*
X112000Y26150D03*
X111600Y25750D03*
X115400Y23200D03*
X115375Y24175D03*
X115750Y26200D03*
X115350Y25800D03*
X116336Y37016D03*
Y38660D03*
Y38260D03*
Y39804D03*
X116896Y30806D03*
X118090D03*
X118040Y33156D03*
X117840Y32427D03*
X117490Y32450D03*
Y32150D03*
X119824Y12150D03*
X119930Y13450D03*
X119930Y13800D03*
X119100Y23200D03*
X119075Y24175D03*
X119450Y26200D03*
X119050Y25800D03*
X122950Y23200D03*
X122925Y24175D03*
X122900Y25800D03*
X123300Y26200D03*
X130090Y6930D03*
X130196Y8090D03*
X129886D03*
X130510Y8130D03*
X130590Y9310D03*
X130090Y28380D03*
X130196Y29540D03*
X129886D03*
X130510Y29580D03*
X130590Y30760D03*
X132560Y8924D03*
X132854D03*
X132970Y7580D03*
X133290D03*
X132970Y29030D03*
X133290D03*
X132560Y30374D03*
X132854D03*
X143440Y13430D03*
X143440Y13780D03*
X143334Y12130D03*
X143440Y34880D03*
X143440Y35230D03*
X143334Y33580D03*
G54D32*
X14400Y21950D03*
X15600D03*
G54D33*
X14429Y23250D03*
X15571D03*
G54D42*
X28096Y24167D03*
Y24364D03*
Y24561D03*
Y24758D03*
Y24955D03*
Y25152D03*
Y25348D03*
Y25545D03*
Y25742D03*
Y25939D03*
Y26136D03*
Y26333D03*
X31403Y24561D03*
Y24364D03*
Y24167D03*
Y26333D03*
Y26136D03*
Y25939D03*
Y25742D03*
Y25545D03*
Y25348D03*
Y25152D03*
Y24955D03*
Y24758D03*
X36046Y24167D03*
Y24364D03*
Y24561D03*
Y24758D03*
Y24955D03*
Y25152D03*
Y25348D03*
Y25545D03*
Y25742D03*
Y25939D03*
Y26136D03*
Y26333D03*
X39354Y24561D03*
Y24364D03*
Y24167D03*
Y26333D03*
Y26136D03*
Y25939D03*
Y25742D03*
Y25545D03*
Y25348D03*
Y25152D03*
Y24955D03*
Y24758D03*
X43946Y24167D03*
Y24364D03*
Y24561D03*
Y24758D03*
Y24955D03*
Y25152D03*
Y25348D03*
Y25545D03*
Y25742D03*
Y25939D03*
Y26136D03*
Y26333D03*
X47254Y24561D03*
Y24364D03*
Y24167D03*
Y26333D03*
Y26136D03*
Y25939D03*
Y25742D03*
Y25545D03*
Y25348D03*
Y25152D03*
Y24955D03*
Y24758D03*
G54D24*
X10650Y20726D03*
Y21474D03*
X83000Y8874D03*
Y8126D03*
X84000Y8874D03*
Y8126D03*
X95500Y13526D03*
Y14274D03*
G54D15*
X2000Y30500D03*
Y40500D03*
X4340Y1200D03*
Y26000D03*
X25836Y2184D03*
Y24448D03*
X32500Y11600D03*
X50150Y1181D03*
Y11600D03*
Y27350D03*
X54250Y1181D03*
Y19619D03*
X60500Y11600D03*
X65000Y30500D03*
Y40500D03*
X81500Y1181D03*
Y19619D03*
X98500Y1181D03*
Y19619D03*
X104980Y1181D03*
Y19619D03*
X121980Y1181D03*
Y19619D03*
X128490Y1161D03*
Y19599D03*
Y22611D03*
Y41049D03*
X145490Y1161D03*
Y19599D03*
Y22611D03*
Y41049D03*
G54D51*
X71400Y31050D03*
Y39300D03*
X83750Y31050D03*
Y39300D03*
X84950Y25500D03*
X89800D03*
X94500D03*
X93750Y33850D03*
X93900Y40050D03*
X104100Y33900D03*
X104000Y40150D03*
X114000Y37280D03*
X122790Y37250D03*
G54D60*
X114915Y10860D03*
X138425Y10840D03*
Y32290D03*
G54D43*
X30242Y23597D03*
X30045D03*
X29848D03*
X29652D03*
X29455D03*
X29258D03*
X29061D03*
X28864D03*
X28667D03*
Y26904D03*
X28864D03*
X29061D03*
X29258D03*
X29455D03*
X29652D03*
X29848D03*
X30045D03*
X30242D03*
X30833Y23597D03*
X30636D03*
X30439D03*
Y26904D03*
X30636D03*
X30833D03*
X36617Y23597D03*
Y26904D03*
X38783Y23597D03*
X38586D03*
X38389D03*
X38192D03*
X37995D03*
X37798D03*
X37602D03*
X37405D03*
X37208D03*
X37011D03*
X36814D03*
Y26904D03*
X37011D03*
X37208D03*
X37405D03*
X37602D03*
X37798D03*
X37995D03*
X38192D03*
X38389D03*
X38586D03*
X38783D03*
X45305Y23597D03*
X45108D03*
X44911D03*
X44714D03*
X44517D03*
Y26904D03*
X44714D03*
X44911D03*
X45108D03*
X45305D03*
X46683Y23597D03*
X46486D03*
X46289D03*
X46092D03*
X45895D03*
X45698D03*
X45502D03*
Y26904D03*
X45698D03*
X45895D03*
X46092D03*
X46289D03*
X46486D03*
X46683D03*
G54D25*
X8973Y24100D03*
X9327D03*
X10597Y27950D03*
X10243D03*
X12323Y20350D03*
X12677D03*
X11477Y24100D03*
X11123D03*
X12497Y25350D03*
X12143D03*
X11737Y27880D03*
X11383D03*
X11737Y28200D03*
X11383D03*
X14673Y15800D03*
X15027D03*
Y15450D03*
X14673D03*
Y17200D03*
X15027D03*
X14673Y16500D03*
X15027D03*
Y16850D03*
X14673D03*
X15027Y16150D03*
X14673D03*
X16073Y6800D03*
X16427D03*
Y7150D03*
X16073D03*
X16427Y6450D03*
X16073D03*
Y8200D03*
X16427D03*
X16073Y7500D03*
X16427D03*
Y7850D03*
X16073D03*
X18023Y4900D03*
X18377D03*
Y5250D03*
X18023D03*
X18427Y10500D03*
X18073D03*
Y10150D03*
X18427D03*
X18277Y16600D03*
X17923D03*
Y16200D03*
X18277D03*
X21673Y22200D03*
X22027D03*
X23277Y22550D03*
X22923D03*
X22573Y24800D03*
X22927D03*
X23023Y25750D03*
X23377D03*
X27673Y4650D03*
X28027D03*
X27723Y15300D03*
X28077D03*
X27623Y16350D03*
X27977D03*
X32227Y13700D03*
X31873D03*
X32127Y14750D03*
X31773D03*
X32377Y17200D03*
X32023D03*
X32477Y16150D03*
X32123D03*
X40173Y17900D03*
X40527D03*
X48553Y4320D03*
X48907D03*
X49447Y6990D03*
X49093D03*
X48697D03*
X48343D03*
X57023Y23700D03*
X57377D03*
X60077Y15850D03*
X59723D03*
X60077Y15350D03*
X59723D03*
X60077Y14850D03*
X59723D03*
X60077Y14350D03*
X59723D03*
X60077Y16350D03*
X59723D03*
X59123Y23700D03*
X59477D03*
X62023D03*
X62377D03*
X64123D03*
X64477D03*
X67023D03*
X67377D03*
X69123D03*
X69477D03*
X69823Y36700D03*
X70177D03*
X72023Y23700D03*
X72377D03*
X72227Y36700D03*
X71873D03*
X74123Y23700D03*
X74477D03*
X75477Y35050D03*
X75123D03*
X73873Y34700D03*
X74227D03*
X74773Y37300D03*
X75127D03*
X75223Y37800D03*
X75577D03*
X77473Y35050D03*
X76223Y34700D03*
X76577D03*
X77123Y37300D03*
X77477D03*
X77573Y37800D03*
X77827Y35050D03*
X77927Y37800D03*
X84223Y36700D03*
X82173D03*
X82527D03*
X86223Y34700D03*
X84577Y36700D03*
X87827Y35050D03*
X87473D03*
X86577Y34700D03*
X87123Y37300D03*
X87477D03*
X87573Y37800D03*
X87927D03*
X90177Y35050D03*
X89823D03*
X88573Y34700D03*
X88927D03*
X89473Y37300D03*
X89827D03*
X89923Y37800D03*
X90277D03*
X94023Y9350D03*
X94377D03*
X96073Y6650D03*
X96427D03*
X95123Y9350D03*
X95477D03*
X102977Y23600D03*
X102623D03*
X102523Y26650D03*
X102877D03*
X104773Y23550D03*
X105127D03*
X106877Y23600D03*
X106523D03*
X106423Y26650D03*
X106777D03*
X108673Y23550D03*
X109027D03*
X110573Y23700D03*
X110927D03*
X114323Y23750D03*
X112673Y23700D03*
X113027D03*
X114677Y23750D03*
X116423D03*
X118023D03*
X118377D03*
X116777D03*
X120123D03*
X120477D03*
X120227Y36980D03*
X119873D03*
X120227Y39830D03*
X119873D03*
X121873Y23750D03*
X122227D03*
X123973D03*
X124327D03*
G54D34*
X17459Y3400D03*
Y8350D03*
X18141Y3400D03*
Y8350D03*
X17509Y14350D03*
X18191D03*
X21441Y4250D03*
X20759D03*
X21441Y9200D03*
X20759D03*
X21491Y15200D03*
X20809D03*
X23459Y24800D03*
X24141D03*
X58459Y23150D03*
X57741D03*
X57059D03*
X59141D03*
X62741D03*
X62059D03*
X63459D03*
X64141D03*
X67059D03*
X67741D03*
X68459D03*
X69141D03*
X72741D03*
X72059D03*
X73459D03*
X74141D03*
X75659Y37300D03*
X76341D03*
X78691D03*
X78009D03*
X88009D03*
X90359D03*
X88691D03*
X91041D03*
X99159Y32750D03*
X99309Y38950D03*
X99841Y32750D03*
X99991Y38950D03*
X103609Y23600D03*
X103191Y26150D03*
X102509D03*
X104291Y23600D03*
X104691Y26150D03*
X104009D03*
X107509Y23600D03*
X107091Y26150D03*
X106409D03*
X107909D03*
X108191Y23600D03*
X108591Y26150D03*
X110041Y32800D03*
X109359D03*
X109941Y39050D03*
X109259D03*
X111291Y23150D03*
X110609D03*
X112009D03*
X114359Y23200D03*
X112691Y23150D03*
X115759Y23200D03*
X116441D03*
X115041D03*
X118741D03*
X118059D03*
X117989Y37110D03*
X118671D03*
X117989Y39660D03*
X118671D03*
X119459Y23200D03*
X120141D03*
X122591D03*
X121909D03*
X123309D03*
X123991D03*
G54D61*
X115460Y10900D03*
X138970Y10880D03*
Y32330D03*
G54D16*
X2300Y35110D03*
Y36300D03*
X8850Y4450D03*
X8550Y16800D03*
X10700Y10300D03*
X12450Y22950D03*
X26350Y27500D03*
X27700D03*
X33700Y2200D03*
X49600Y9500D03*
X48450D03*
X48100Y11650D03*
X50800Y9500D03*
X71400Y32050D03*
Y40300D03*
X72400Y31050D03*
X73400D03*
X72400Y32050D03*
X73400D03*
X72400Y39300D03*
X73400D03*
X72400Y40300D03*
X73400D03*
X75700Y24800D03*
X74400Y31050D03*
X75400D03*
X74400Y32050D03*
X75400D03*
X74400Y39300D03*
X75400D03*
X74400Y40300D03*
X75400D03*
X76980Y24830D03*
X76400Y31050D03*
Y32050D03*
Y39300D03*
Y40300D03*
X83750Y32050D03*
Y40300D03*
X84950Y26500D03*
X85950Y25500D03*
Y26500D03*
X84750Y31050D03*
X85750D03*
X86750D03*
X84750Y32050D03*
X85750D03*
X86750D03*
X84750Y39300D03*
X85750D03*
X86750D03*
X84750Y40300D03*
X85750D03*
X86750D03*
X86950Y25500D03*
Y26500D03*
X87950Y25500D03*
Y26500D03*
X87750Y31050D03*
X88750D03*
X87750Y32050D03*
X88750D03*
X87750Y39300D03*
X88750D03*
X87750Y40300D03*
X88750D03*
X89800Y26500D03*
X90800Y25500D03*
Y26500D03*
X91800Y25500D03*
Y26500D03*
X92800Y25500D03*
Y26500D03*
X94500D03*
X93750Y30850D03*
X94750D03*
X93750Y32850D03*
X94750D03*
X93750Y31850D03*
X94750D03*
Y33850D03*
X93900Y37050D03*
X94900D03*
Y40050D03*
X93900Y39050D03*
X94900D03*
X93900Y38050D03*
X94900D03*
X95500Y25500D03*
Y26500D03*
X96500Y25500D03*
Y26500D03*
X104000Y37150D03*
Y39150D03*
Y38150D03*
X104100Y30900D03*
X105100D03*
X104100Y32900D03*
X105100D03*
X104100Y31900D03*
X105100D03*
Y33900D03*
X105000Y37150D03*
Y39150D03*
Y38150D03*
Y40150D03*
X114000Y33280D03*
Y32280D03*
Y35280D03*
Y34280D03*
Y36280D03*
X115000Y33280D03*
Y32280D03*
Y35280D03*
Y34280D03*
Y37280D03*
Y36280D03*
X122790Y33250D03*
Y32250D03*
Y35250D03*
Y34250D03*
Y36250D03*
X123790Y33250D03*
Y32250D03*
Y35250D03*
Y34250D03*
Y37250D03*
Y36250D03*
G54D52*
X78965Y8900D03*
X80835D03*
G54D44*
X41040Y16600D03*
Y16800D03*
Y17000D03*
Y17200D03*
X42260D03*
Y17000D03*
Y16800D03*
Y16600D03*
G54D53*
X107820Y31480D03*
Y33220D03*
X107970Y37730D03*
X107720D03*
Y39470D03*
X107970D03*
X108580Y31480D03*
X108330D03*
X108070D03*
Y33220D03*
X108330D03*
X108580D03*
X108480Y37730D03*
X108230D03*
Y39470D03*
X108480D03*
G54D35*
X17045Y21825D03*
Y23475D03*
X18695Y21825D03*
Y23475D03*
G54D17*
X6500Y33050D03*
Y32550D03*
Y38550D03*
Y38050D03*
X8500Y33050D03*
Y32550D03*
X8000Y33050D03*
Y32550D03*
X7500Y33050D03*
Y32550D03*
X7000Y33050D03*
Y32550D03*
X8500Y38550D03*
Y38050D03*
X8000Y38550D03*
Y38050D03*
X7500Y38550D03*
Y38050D03*
X7000Y38550D03*
Y38050D03*
X11000Y33050D03*
Y32550D03*
X10500Y33050D03*
Y32550D03*
X10000Y33050D03*
Y32550D03*
X9500Y33050D03*
Y32550D03*
X9000Y33050D03*
Y32550D03*
X11000Y38550D03*
Y38050D03*
X10500Y38550D03*
Y38050D03*
X10000Y38550D03*
Y38050D03*
X9500Y38550D03*
Y38050D03*
X9000Y38550D03*
Y38050D03*
X13000Y33050D03*
Y32550D03*
X12500Y33050D03*
Y32550D03*
X12000Y33050D03*
Y32550D03*
X11500Y33050D03*
Y32550D03*
X13000Y38550D03*
Y38050D03*
X12500Y38550D03*
Y38050D03*
X12000Y38550D03*
Y38050D03*
X11500Y38550D03*
Y38050D03*
X15000Y33050D03*
Y32550D03*
X14500Y33050D03*
Y32550D03*
X14000Y33050D03*
Y32550D03*
X13500Y33050D03*
Y32550D03*
X15000Y38550D03*
Y38050D03*
X14500Y38550D03*
Y38050D03*
X14000Y38550D03*
Y38050D03*
X13500Y38550D03*
Y38050D03*
X17500Y33050D03*
Y32550D03*
X17000Y33050D03*
Y32550D03*
X16500Y33050D03*
Y32550D03*
X16000Y33050D03*
Y32550D03*
X15500Y33050D03*
Y32550D03*
X17500Y38550D03*
Y38050D03*
X17000Y38550D03*
Y38050D03*
X16500Y38550D03*
Y38050D03*
X16000Y38550D03*
Y38050D03*
X15500Y38550D03*
Y38050D03*
X18500Y33050D03*
Y32550D03*
X18000Y33050D03*
Y32550D03*
X18500Y38550D03*
Y38050D03*
X18000Y38550D03*
Y38050D03*
X25050Y27580D03*
X26000Y33050D03*
Y32550D03*
X25500Y33050D03*
Y32550D03*
X26000Y38550D03*
Y38050D03*
X25500Y38550D03*
Y38050D03*
X28000Y33050D03*
Y32550D03*
X27500Y33050D03*
Y32550D03*
X27000Y33050D03*
Y32550D03*
X26500Y33050D03*
Y32550D03*
X28000Y38550D03*
Y38050D03*
X27500Y38550D03*
Y38050D03*
X27000Y38550D03*
Y38050D03*
X26500Y38550D03*
Y38050D03*
X30250Y4350D03*
X29750D03*
X30250Y4850D03*
X29750D03*
X30250Y5350D03*
X29750D03*
X30250Y5850D03*
X29750D03*
X30250Y6350D03*
X29750D03*
X30250Y6850D03*
X29750D03*
X30250Y7350D03*
X29750D03*
X30250Y7850D03*
X29750D03*
X30250Y8350D03*
X29750D03*
X30250Y8850D03*
X29750D03*
X30250Y9350D03*
X29750D03*
X30250Y9850D03*
X29750D03*
X30250Y10350D03*
X29750D03*
X30250Y10850D03*
X29750D03*
X30250Y11350D03*
X29750D03*
X30250Y11850D03*
X29750D03*
X30250Y12350D03*
X29750D03*
X30250Y12850D03*
X29750D03*
X30250Y13350D03*
X29750D03*
X30250Y13850D03*
X29750D03*
X30250Y14350D03*
X29750D03*
X30250Y14850D03*
X29750D03*
X30250Y15350D03*
X29750D03*
X30250Y15850D03*
X29750D03*
X30250Y16350D03*
X29750D03*
X30500Y33050D03*
Y32550D03*
X30000Y33050D03*
Y32550D03*
X29500Y33050D03*
Y32550D03*
X29000Y33050D03*
Y32550D03*
X28500Y33050D03*
Y32550D03*
X30500Y38550D03*
Y38050D03*
X30000Y38550D03*
Y38050D03*
X29500Y38550D03*
Y38050D03*
X29000Y38550D03*
Y38050D03*
X28500Y38550D03*
Y38050D03*
X32500Y33050D03*
Y32550D03*
X32000Y33050D03*
Y32550D03*
X31500Y33050D03*
Y32550D03*
X31000Y33050D03*
Y32550D03*
X32500Y38550D03*
Y38050D03*
X32000Y38550D03*
Y38050D03*
X31500Y38550D03*
Y38050D03*
X31000Y38550D03*
Y38050D03*
X34500Y33050D03*
Y32550D03*
X34000Y33050D03*
Y32550D03*
X33500Y33050D03*
Y32550D03*
X33000Y33050D03*
Y32550D03*
X34500Y38550D03*
Y38050D03*
X34000Y38550D03*
Y38050D03*
X33500Y38550D03*
Y38050D03*
X33000Y38550D03*
Y38050D03*
X34980Y27350D03*
X37000Y33050D03*
Y32550D03*
X36500Y33050D03*
Y32550D03*
X36000Y33050D03*
Y32550D03*
X35500Y33050D03*
Y32550D03*
X35000Y33050D03*
Y32550D03*
X37000Y38550D03*
Y38050D03*
X36500Y38550D03*
Y38050D03*
X36000Y38550D03*
Y38050D03*
X35500Y38550D03*
Y38050D03*
X35000Y38550D03*
Y38050D03*
X37750Y4350D03*
X37250D03*
X37750Y4850D03*
X37250D03*
X37750Y5350D03*
X37250D03*
X37750Y5850D03*
X37250D03*
X37750Y6350D03*
X37250D03*
X37750Y6850D03*
X37250D03*
X37750Y7350D03*
X37250D03*
X37750Y7850D03*
X37250D03*
X37750Y8350D03*
X37250D03*
X37750Y8850D03*
X37250D03*
X37750Y9350D03*
X37250D03*
X37750Y9850D03*
X37250D03*
X37750Y10350D03*
X37250D03*
X37750Y10850D03*
X37250D03*
X37750Y11350D03*
X37250D03*
X37750Y11850D03*
X37250D03*
X37750Y12350D03*
X37250D03*
X37750Y12850D03*
X37250D03*
X37750Y13350D03*
X37250D03*
X37750Y13850D03*
X37250D03*
X37750Y14350D03*
X37250D03*
X37750Y14850D03*
X37250D03*
X37750Y15350D03*
X37250D03*
X37750Y15850D03*
X37250D03*
X37750Y16350D03*
X37250D03*
X37500Y33050D03*
Y32550D03*
Y38550D03*
Y38050D03*
X40700Y8800D03*
X42300Y10550D03*
X42850Y27430D03*
X45250Y4350D03*
X44750D03*
X45250Y4850D03*
X44750D03*
X45250Y5350D03*
X44750D03*
X45250Y5850D03*
X44750D03*
X45250Y6350D03*
X44750D03*
X45250Y6850D03*
X44750D03*
X45250Y7350D03*
X44750D03*
X45250Y7850D03*
X44750D03*
X45250Y8350D03*
X44750D03*
X45250Y8850D03*
X44750D03*
X45250Y9350D03*
X44750D03*
X45250Y9850D03*
X44750D03*
X45250Y10350D03*
X44750D03*
X45250Y10850D03*
X44750D03*
X45250Y11350D03*
X44750D03*
X45250Y11850D03*
X44750D03*
X45250Y12350D03*
X44750D03*
X45250Y12850D03*
X44750D03*
X45250Y13350D03*
X44750D03*
X45250Y13850D03*
X44750D03*
X45250Y14350D03*
X44750D03*
X45250Y14850D03*
X44750D03*
X45250Y15350D03*
X44750D03*
X45250Y15850D03*
X44750D03*
X45250Y16350D03*
X44750D03*
X45500Y33050D03*
Y32550D03*
X45000Y33050D03*
Y32550D03*
X44500Y33050D03*
Y32550D03*
X45500Y38550D03*
Y38050D03*
X45000Y38550D03*
Y38050D03*
X44500Y38550D03*
Y38050D03*
X47500Y33050D03*
Y32550D03*
X47000Y33050D03*
Y32550D03*
X46500Y33050D03*
Y32550D03*
X46000Y33050D03*
Y32550D03*
X47500Y38550D03*
Y38050D03*
X47000Y38550D03*
Y38050D03*
X46500Y38550D03*
Y38050D03*
X46000Y38550D03*
Y38050D03*
X49950Y16050D03*
X49450D03*
X49950Y15550D03*
X49450D03*
X49950Y15050D03*
X49450D03*
X49950Y14550D03*
X49450D03*
X49950Y18050D03*
X49450D03*
X49950Y17550D03*
X49450D03*
X49950Y17050D03*
X49450D03*
X49950Y16550D03*
X49450D03*
X49950Y19050D03*
X49450D03*
X49950Y18550D03*
X49450D03*
X49500Y33050D03*
Y32550D03*
X49000Y33050D03*
Y32550D03*
X48500Y33050D03*
Y32550D03*
X48000Y33050D03*
Y32550D03*
X49500Y38550D03*
Y38050D03*
X49000Y38550D03*
Y38050D03*
X48500Y38550D03*
Y38050D03*
X48000Y38550D03*
Y38050D03*
X52000Y33050D03*
Y32550D03*
X51500Y33050D03*
Y32550D03*
X51000Y33050D03*
Y32550D03*
X50500Y33050D03*
Y32550D03*
X50000Y33050D03*
Y32550D03*
X52000Y38550D03*
Y38050D03*
X51500Y38550D03*
Y38050D03*
X51000Y38550D03*
Y38050D03*
X50500Y38550D03*
Y38050D03*
X50000Y38550D03*
Y38050D03*
X54000Y33050D03*
Y32550D03*
X53500Y33050D03*
Y32550D03*
X53000Y33050D03*
Y32550D03*
X52500Y33050D03*
Y32550D03*
X54000Y38550D03*
Y38050D03*
X53500Y38550D03*
Y38050D03*
X53000Y38550D03*
Y38050D03*
X52500Y38550D03*
Y38050D03*
X56000Y33050D03*
Y32550D03*
X55500Y33050D03*
Y32550D03*
X55000Y33050D03*
Y32550D03*
X54500Y33050D03*
Y32550D03*
X56000Y38550D03*
Y38050D03*
X55500Y38550D03*
Y38050D03*
X55000Y38550D03*
Y38050D03*
X54500Y38550D03*
Y38050D03*
X58250Y4350D03*
X57750D03*
X58250Y4850D03*
X57750D03*
X58250Y5350D03*
X57750D03*
X58250Y5850D03*
X57750D03*
X58250Y6350D03*
X57750D03*
X58250Y6850D03*
X57750D03*
X58250Y7350D03*
X57750D03*
X58250Y7850D03*
X57750D03*
X58250Y8350D03*
X57750D03*
X58250Y8850D03*
X57750D03*
X58250Y9350D03*
X57750D03*
X58250Y9850D03*
X57750D03*
X58250Y10350D03*
X57750D03*
X58250Y10850D03*
X57750D03*
X58250Y11350D03*
X57750D03*
X58250Y11850D03*
X57750D03*
X58250Y12350D03*
X57750D03*
X58250Y12850D03*
X57750D03*
X58250Y13350D03*
X57750D03*
X58250Y13850D03*
X57750D03*
X58250Y14350D03*
X57750D03*
X58250Y14850D03*
X57750D03*
X58250Y15350D03*
X57750D03*
X58250Y15850D03*
X57750D03*
X58250Y16350D03*
X57750D03*
X56500Y33050D03*
Y32550D03*
Y38550D03*
Y38050D03*
X65750Y4350D03*
X65250D03*
X65750Y4850D03*
X65250D03*
X65750Y5350D03*
X65250D03*
X65750Y5850D03*
X65250D03*
X65750Y6350D03*
X65250D03*
X65750Y6850D03*
X65250D03*
X65750Y7350D03*
X65250D03*
X65750Y7850D03*
X65250D03*
X65750Y8350D03*
X65250D03*
X65750Y8850D03*
X65250D03*
X65750Y9350D03*
X65250D03*
X65750Y9850D03*
X65250D03*
X65750Y10350D03*
X65250D03*
X65750Y10850D03*
X65250D03*
X65750Y11350D03*
X65250D03*
X65750Y11850D03*
X65250D03*
X65750Y12350D03*
X65250D03*
X65750Y12850D03*
X65250D03*
X65750Y13350D03*
X65250D03*
X65750Y13850D03*
X65250D03*
X65750Y14350D03*
X65250D03*
X65750Y14850D03*
X65250D03*
X65750Y15350D03*
X65250D03*
X65750Y15850D03*
X65250D03*
X65750Y16350D03*
X65250D03*
X73250Y4350D03*
X72750D03*
X73250Y4850D03*
X72750D03*
X73250Y5350D03*
X72750D03*
X73250Y5850D03*
X72750D03*
X73250Y6350D03*
X72750D03*
X73250Y6850D03*
X72750D03*
X73250Y7350D03*
X72750D03*
X73250Y7850D03*
X72750D03*
X73250Y8350D03*
X72750D03*
X73250Y8850D03*
X72750D03*
X73250Y9350D03*
X72750D03*
X73250Y9850D03*
X72750D03*
X73250Y10350D03*
X72750D03*
X73250Y10850D03*
X72750D03*
X73250Y11350D03*
X72750D03*
X73250Y11850D03*
X72750D03*
X73250Y12350D03*
X72750D03*
X73250Y12850D03*
X72750D03*
X73250Y13350D03*
X72750D03*
X73250Y13850D03*
X72750D03*
X73250Y14350D03*
X72750D03*
X73250Y14850D03*
X72750D03*
X73250Y15350D03*
X72750D03*
X73250Y15850D03*
X72750D03*
X73250Y16350D03*
X72750D03*
X105980Y4500D03*
Y5000D03*
X105480Y4500D03*
Y5000D03*
X104980Y4500D03*
Y5000D03*
X105980Y15800D03*
X105480D03*
X104980D03*
X105980Y16300D03*
X105480D03*
X104980D03*
X107980Y4500D03*
Y5000D03*
X107480Y4500D03*
Y5000D03*
X106980Y4500D03*
Y5000D03*
X106480Y4500D03*
Y5000D03*
X107980Y15800D03*
X107480D03*
X106980D03*
X106480D03*
X107980Y16300D03*
X107480D03*
X106980D03*
X106480D03*
X109980Y4500D03*
Y5000D03*
X109480Y4500D03*
Y5000D03*
X108980Y4500D03*
Y5000D03*
X108480Y4500D03*
Y5000D03*
X109980Y15800D03*
X109480D03*
X108980D03*
X108480D03*
X109980Y16300D03*
X109480D03*
X108980D03*
X108480D03*
X112480Y4500D03*
Y5000D03*
X111980Y4500D03*
Y5000D03*
X111480Y4500D03*
Y5000D03*
X110980Y4500D03*
Y5000D03*
X110480Y4500D03*
Y5000D03*
X112480Y15800D03*
X111980D03*
X111480D03*
X110980D03*
X110480D03*
X112480Y16300D03*
X111980D03*
X111480D03*
X110980D03*
X110480D03*
X114480Y4500D03*
Y5000D03*
X113980Y4500D03*
Y5000D03*
X113480Y4500D03*
Y5000D03*
X112980Y4500D03*
Y5000D03*
X114480Y15800D03*
X113980D03*
X113480D03*
X112980D03*
X114480Y16300D03*
X113980D03*
X113480D03*
X112980D03*
X116480Y4500D03*
Y5000D03*
X115980Y4500D03*
Y5000D03*
X115480Y4500D03*
Y5000D03*
X114980Y4500D03*
Y5000D03*
X116480Y15800D03*
X115980D03*
X115480D03*
X114980D03*
X116480Y16300D03*
X115980D03*
X115480D03*
X114980D03*
X118480Y4500D03*
Y5000D03*
X117980Y4500D03*
Y5000D03*
X117480Y4500D03*
Y5000D03*
X116980Y4500D03*
Y5000D03*
X118480Y15800D03*
X117980D03*
X117480D03*
X116980D03*
X118480Y16300D03*
X117980D03*
X117480D03*
X116980D03*
X120980Y4500D03*
Y5000D03*
X120480Y4500D03*
Y5000D03*
X119980Y4500D03*
Y5000D03*
X119480Y4500D03*
Y5000D03*
X118980Y4500D03*
Y5000D03*
X120980Y15800D03*
X120480D03*
X119980D03*
X119480D03*
X118980D03*
X120980Y16300D03*
X120480D03*
X119980D03*
X119480D03*
X118980D03*
X121980Y4500D03*
Y5000D03*
X121480Y4500D03*
Y5000D03*
X121980Y15800D03*
X121480D03*
X121980Y16300D03*
X121480D03*
X129490Y4480D03*
Y4980D03*
X128990Y4480D03*
Y4980D03*
X128490Y4480D03*
Y4980D03*
X129490Y15780D03*
X128990D03*
X128490D03*
X129490Y16280D03*
X128990D03*
X128490D03*
X129490Y25930D03*
Y26430D03*
X128990Y25930D03*
Y26430D03*
X128490Y25930D03*
Y26430D03*
X129490Y37230D03*
Y37730D03*
X128990Y37230D03*
Y37730D03*
X128490Y37230D03*
Y37730D03*
X131490Y4480D03*
Y4980D03*
X130990Y4480D03*
Y4980D03*
X130490Y4480D03*
Y4980D03*
X129990Y4480D03*
Y4980D03*
X131490Y15780D03*
X130990D03*
X130490D03*
X129990D03*
X131490Y16280D03*
X130990D03*
X130490D03*
X129990D03*
X131490Y25930D03*
Y26430D03*
X130990Y25930D03*
Y26430D03*
X130490Y25930D03*
Y26430D03*
X129990Y25930D03*
Y26430D03*
X131490Y37230D03*
Y37730D03*
X130990Y37230D03*
Y37730D03*
X130490Y37230D03*
Y37730D03*
X129990Y37230D03*
Y37730D03*
X133990Y4480D03*
Y4980D03*
X133490Y4480D03*
Y4980D03*
X132990Y4480D03*
Y4980D03*
X132490Y4480D03*
Y4980D03*
X131990Y4480D03*
Y4980D03*
X133990Y15780D03*
X133490D03*
X132990D03*
X132490D03*
X131990D03*
X133990Y16280D03*
X133490D03*
X132990D03*
X132490D03*
X131990D03*
X133990Y25930D03*
Y26430D03*
X133490Y25930D03*
Y26430D03*
X132990Y25930D03*
Y26430D03*
X132490Y25930D03*
Y26430D03*
X131990Y25930D03*
Y26430D03*
X133990Y37230D03*
Y37730D03*
X133490Y37230D03*
Y37730D03*
X132990Y37230D03*
Y37730D03*
X132490Y37230D03*
Y37730D03*
X131990Y37230D03*
Y37730D03*
X135990Y4480D03*
Y4980D03*
X135490Y4480D03*
Y4980D03*
X134990Y4480D03*
Y4980D03*
X134490Y4480D03*
Y4980D03*
X135990Y15780D03*
X135490D03*
X134990D03*
X134490D03*
X135990Y16280D03*
X135490D03*
X134990D03*
X134490D03*
X135990Y25930D03*
Y26430D03*
X135490Y25930D03*
Y26430D03*
X134990Y25930D03*
Y26430D03*
X134490Y25930D03*
Y26430D03*
X135990Y37230D03*
Y37730D03*
X135490Y37230D03*
Y37730D03*
X134990Y37230D03*
Y37730D03*
X134490Y37230D03*
Y37730D03*
X137990Y4480D03*
Y4980D03*
X137490Y4480D03*
Y4980D03*
X136990Y4480D03*
Y4980D03*
X136490Y4480D03*
Y4980D03*
X137990Y15780D03*
X137490D03*
X136990D03*
X136490D03*
X137990Y16280D03*
X137490D03*
X136990D03*
X136490D03*
X137990Y25930D03*
Y26430D03*
X137490Y25930D03*
Y26430D03*
X136990Y25930D03*
Y26430D03*
X136490Y25930D03*
Y26430D03*
X137990Y37230D03*
Y37730D03*
X137490Y37230D03*
Y37730D03*
X136990Y37230D03*
Y37730D03*
X136490Y37230D03*
Y37730D03*
X140490Y4480D03*
Y4980D03*
X139990Y4480D03*
Y4980D03*
X139490Y4480D03*
Y4980D03*
X138990Y4480D03*
Y4980D03*
X138490Y4480D03*
Y4980D03*
X140490Y15780D03*
X139990D03*
X139490D03*
X138990D03*
X138490D03*
X140490Y16280D03*
X139990D03*
X139490D03*
X138990D03*
X138490D03*
X140490Y25930D03*
Y26430D03*
X139990Y25930D03*
Y26430D03*
X139490Y25930D03*
Y26430D03*
X138990Y25930D03*
Y26430D03*
X138490Y25930D03*
Y26430D03*
X140490Y37230D03*
Y37730D03*
X139990Y37230D03*
Y37730D03*
X139490Y37230D03*
Y37730D03*
X138990Y37230D03*
Y37730D03*
X138490Y37230D03*
Y37730D03*
X142490Y4480D03*
Y4980D03*
X141990Y4480D03*
Y4980D03*
X141490Y4480D03*
Y4980D03*
X140990Y4480D03*
Y4980D03*
X142490Y15780D03*
X141990D03*
X141490D03*
X140990D03*
X142490Y16280D03*
X141990D03*
X141490D03*
X140990D03*
X142490Y25930D03*
Y26430D03*
X141990Y25930D03*
Y26430D03*
X141490Y25930D03*
Y26430D03*
X140990Y25930D03*
Y26430D03*
X142490Y37230D03*
Y37730D03*
X141990Y37230D03*
Y37730D03*
X141490Y37230D03*
Y37730D03*
X140990Y37230D03*
Y37730D03*
X144490Y4480D03*
Y4980D03*
X143990Y4480D03*
Y4980D03*
X143490Y4480D03*
Y4980D03*
X142990Y4480D03*
Y4980D03*
X144490Y15780D03*
X143990D03*
X143490D03*
X142990D03*
X144490Y16280D03*
X143990D03*
X143490D03*
X142990D03*
X144490Y25930D03*
Y26430D03*
X143990Y25930D03*
Y26430D03*
X143490Y25930D03*
Y26430D03*
X142990Y25930D03*
Y26430D03*
X144490Y37230D03*
Y37730D03*
X143990Y37230D03*
Y37730D03*
X143490Y37230D03*
Y37730D03*
X142990Y37230D03*
Y37730D03*
X145490Y4480D03*
Y4980D03*
X144990Y4480D03*
Y4980D03*
X145490Y15780D03*
X144990D03*
X145490Y16280D03*
X144990D03*
X145490Y25930D03*
Y26430D03*
X144990Y25930D03*
Y26430D03*
X145490Y37230D03*
Y37730D03*
X144990Y37230D03*
Y37730D03*
G54D62*
X118443Y38016D03*
Y38213D03*
Y38410D03*
Y38607D03*
Y38804D03*
X120017D03*
Y38607D03*
Y38410D03*
Y38213D03*
Y38016D03*
G54D26*
X10250Y23100D03*
X49170Y5290D03*
X71050Y35750D03*
X83400D03*
G54D18*
X8750Y17835D03*
X7850D03*
X8750Y18465D03*
X7850D03*
X10550Y17835D03*
X9650D03*
X10550Y18465D03*
X9650D03*
X25850Y20285D03*
Y20915D03*
X68800Y30785D03*
Y31415D03*
X69650Y30785D03*
Y31415D03*
X78000Y30735D03*
X78950D03*
X78000Y31365D03*
X78950D03*
X81150Y30785D03*
X82000D03*
X81150Y31415D03*
X82000D03*
X90350Y30735D03*
Y31365D03*
X91300Y30735D03*
Y31365D03*
X116290Y35435D03*
Y36065D03*
Y40565D03*
Y41195D03*
G54D36*
X19225Y1840D03*
X19425Y5690D03*
X19225Y6790D03*
X19425Y10640D03*
X19275Y12790D03*
X19475Y16640D03*
X19815Y1840D03*
X20015Y5690D03*
X19815Y6790D03*
X20015Y10640D03*
X19865Y12790D03*
X20065Y16640D03*
X25145Y20300D03*
X24555D03*
X39745Y12230D03*
X40335D03*
X40345Y13650D03*
X39755D03*
X40345Y12950D03*
X39755D03*
Y14400D03*
X40345D03*
X42255Y8800D03*
X42845D03*
X42145Y14350D03*
X41555D03*
Y14950D03*
X42145D03*
X55405Y11600D03*
X55995D03*
X55405Y11000D03*
X55995D03*
X55405Y10400D03*
X55995D03*
X82105Y10700D03*
Y9700D03*
Y11550D03*
X82695Y10700D03*
Y9700D03*
X84045Y10700D03*
X83455D03*
X82695Y11550D03*
X90685Y1780D03*
X89925Y18540D03*
X90515D03*
X91275Y1780D03*
X96945Y30400D03*
X96355D03*
X96945Y31100D03*
X96355D03*
X97045Y34250D03*
X96455D03*
X97045Y33650D03*
X96455D03*
X97095Y37300D03*
X96505D03*
X97095Y36600D03*
X96505D03*
X97195Y40450D03*
X96605D03*
X97195Y39850D03*
X96605D03*
X98165Y30390D03*
X97575D03*
X98365Y34240D03*
X97775D03*
X98315Y36590D03*
X97725D03*
X98515Y40440D03*
X97925D03*
X108005Y30350D03*
X107295D03*
X106705D03*
X107295Y30950D03*
X106705D03*
X107495Y34300D03*
X106905D03*
X107495Y33750D03*
X106905D03*
X107195Y37200D03*
X106605D03*
X107905Y36600D03*
X107195D03*
X106605D03*
X107395Y40550D03*
X106805D03*
X107395Y40000D03*
X106805D03*
X108595Y30350D03*
X108795Y34300D03*
X108205D03*
X108495Y36600D03*
X108695Y40550D03*
X108105D03*
X116255Y9200D03*
X115595Y30650D03*
X116185D03*
X115595Y29700D03*
X116185D03*
X116845Y9200D03*
X118725Y35410D03*
X118135D03*
X118085Y36560D03*
X118675D03*
X118085Y36010D03*
X118675D03*
X118085Y40760D03*
X118675D03*
X118085Y40210D03*
X118675D03*
Y41360D03*
X118085D03*
X121755Y12050D03*
X122345D03*
X139765Y9180D03*
X140355D03*
X139765Y30630D03*
X140355D03*
X145265Y12030D03*
X145855D03*
X145265Y33480D03*
X145855D03*
G54D63*
X119640Y30950D03*
Y33300D03*
G54D45*
X41450Y5233D03*
X41191Y4367D03*
X41450D03*
X41709D03*
Y5233D03*
X41191D03*
G54D54*
X113480Y10400D03*
X136990Y10380D03*
Y31830D03*
G54D27*
X9250Y25950D03*
X10250D03*
X11250D03*
X9240Y27050D03*
X10240D03*
X11240D03*
X57000Y22250D03*
X58000D03*
X57000Y27400D03*
X58000D03*
X59000Y22250D03*
Y27400D03*
X62000Y22250D03*
X63000D03*
X62000Y27400D03*
X63000D03*
X64000Y22250D03*
Y27400D03*
X67000Y22250D03*
Y27400D03*
X68000Y22250D03*
X69000D03*
X68000Y27400D03*
X69000D03*
X72000Y22250D03*
X73000D03*
X72000Y27400D03*
X73000D03*
X74000Y22250D03*
Y27400D03*
X101750Y31300D03*
Y33300D03*
Y32300D03*
X102800Y22250D03*
X103800D03*
X102800Y27400D03*
X103800D03*
X101900Y37500D03*
Y39500D03*
Y38500D03*
X104800Y22250D03*
Y27400D03*
X106700Y22250D03*
X107700D03*
X106700Y27400D03*
X107700D03*
X108700Y22250D03*
Y27400D03*
X110550Y22250D03*
X111550D03*
X112550D03*
X110550Y27400D03*
X111550D03*
X112550D03*
X112100Y31350D03*
Y33350D03*
Y32350D03*
X112000Y37600D03*
Y39600D03*
Y38600D03*
X114300Y22300D03*
Y27450D03*
X115300Y22300D03*
X116300D03*
X115300Y27450D03*
X116300D03*
X118000Y22300D03*
X119000D03*
X118000Y27450D03*
X119000D03*
X120000Y22300D03*
Y27450D03*
X121850Y22300D03*
X122850D03*
X121850Y27450D03*
X122850D03*
X123850Y22300D03*
Y27450D03*
G54D28*
X11200Y4106D03*
Y4894D03*
X11850Y9106D03*
Y9894D03*
X11200Y12056D03*
Y12844D03*
X11850Y17844D03*
Y17056D03*
X22150Y2644D03*
Y1856D03*
Y4906D03*
Y5694D03*
Y6806D03*
Y7594D03*
Y9856D03*
Y10644D03*
X22200Y13594D03*
Y12806D03*
Y15856D03*
Y16644D03*
X25600Y16006D03*
Y16794D03*
X34250Y13256D03*
X34500Y15706D03*
X34250Y14044D03*
X34500Y16494D03*
X100500Y31194D03*
Y30406D03*
Y33406D03*
Y34194D03*
X100650Y37394D03*
Y36606D03*
Y39606D03*
Y40394D03*
X108550Y8944D03*
Y8156D03*
X110850Y31244D03*
Y30456D03*
Y33456D03*
Y34244D03*
X110750Y37494D03*
Y36706D03*
Y39706D03*
Y40494D03*
X117490Y30806D03*
Y31594D03*
Y33156D03*
Y33944D03*
X121280Y37216D03*
Y38004D03*
Y39554D03*
Y38766D03*
X132060Y8924D03*
Y8136D03*
Y30374D03*
Y29586D03*
G54D19*
X7850Y19055D03*
Y19645D03*
X8750Y19105D03*
Y19695D03*
X9650Y19105D03*
Y19695D03*
X10500Y19105D03*
Y19695D03*
X20770Y1845D03*
Y2435D03*
X20820Y5095D03*
Y5685D03*
X20770Y6795D03*
Y7385D03*
X20820Y10635D03*
Y10045D03*
Y12795D03*
Y13385D03*
X20870Y16045D03*
Y16635D03*
X21450Y20305D03*
Y20895D03*
X42800Y9405D03*
Y9995D03*
X58050Y24655D03*
Y25245D03*
X63050Y24655D03*
Y25245D03*
X68050Y24655D03*
Y25245D03*
X68800Y32055D03*
Y32645D03*
X69650Y32055D03*
Y32645D03*
X73050Y24655D03*
Y25245D03*
X79800Y4905D03*
Y5495D03*
X78000Y32105D03*
Y32695D03*
X78950Y32105D03*
Y32695D03*
X81150Y32055D03*
Y32645D03*
X82000Y32055D03*
Y32645D03*
X82700Y12845D03*
Y12255D03*
X90350Y32105D03*
Y32695D03*
X91300Y32105D03*
Y32695D03*
X97900Y7395D03*
Y6805D03*
X98450Y7395D03*
Y6805D03*
X99000Y7395D03*
Y6805D03*
X99120Y30395D03*
Y30985D03*
X99170Y34235D03*
Y33645D03*
X99270Y36595D03*
Y37185D03*
X99320Y40435D03*
Y39845D03*
X99650Y7395D03*
Y6805D03*
X109250Y30355D03*
Y30945D03*
X109450Y34245D03*
Y33655D03*
X109150Y36605D03*
Y37195D03*
X109350Y40495D03*
Y39905D03*
X111600Y24655D03*
Y25245D03*
X115350Y24705D03*
Y25295D03*
X119050Y24705D03*
Y25295D03*
X122900Y24705D03*
Y25295D03*
G54D37*
X19350Y3850D03*
Y8800D03*
X19400Y14800D03*
X23150Y23650D03*
X75350Y36150D03*
X77700D03*
X87700D03*
X90050D03*
X97700Y32400D03*
X97850Y38600D03*
G54D55*
X112045Y10960D03*
Y10730D03*
Y9860D03*
Y9735D03*
Y10105D03*
Y9975D03*
Y10340D03*
Y10440D03*
Y10530D03*
Y10635D03*
Y10240D03*
Y10830D03*
X114915Y10580D03*
Y10485D03*
Y10380D03*
Y10270D03*
Y10085D03*
Y10680D03*
X135555Y10940D03*
Y10710D03*
Y9840D03*
Y9715D03*
Y10085D03*
Y9955D03*
Y10320D03*
Y10420D03*
Y10510D03*
Y10615D03*
Y10220D03*
Y10810D03*
Y32390D03*
Y32160D03*
Y31290D03*
Y31165D03*
Y31535D03*
Y31405D03*
Y31770D03*
Y31870D03*
Y31960D03*
Y32065D03*
Y31670D03*
Y32260D03*
X138425Y10560D03*
Y10465D03*
Y10360D03*
Y10250D03*
Y10065D03*
Y10660D03*
Y32010D03*
Y31915D03*
Y31810D03*
Y31700D03*
Y31515D03*
Y32110D03*
G54D64*
X119090Y30650D03*
Y30850D03*
X120190D03*
Y30650D03*
X119090Y33000D03*
Y33200D03*
X120190D03*
Y33000D03*
X119090Y31050D03*
Y31250D03*
X120190D03*
Y31050D03*
X119090Y33400D03*
Y33600D03*
X120190D03*
Y33400D03*
G54D46*
X41650Y16900D03*
G54D29*
X11376Y7192D03*
Y6995D03*
Y6798D03*
Y6602D03*
Y6405D03*
Y6208D03*
Y6011D03*
Y7389D03*
Y15339D03*
Y15142D03*
Y14945D03*
Y14748D03*
Y14552D03*
Y14355D03*
Y14158D03*
Y13961D03*
X13324Y6011D03*
Y6208D03*
Y6405D03*
Y6602D03*
Y6798D03*
Y6995D03*
Y7192D03*
Y7389D03*
Y13961D03*
Y14158D03*
Y14355D03*
Y14552D03*
Y14748D03*
Y14945D03*
Y15142D03*
Y15339D03*
G54D38*
X20135Y20300D03*
X20765D03*
X114225Y30650D03*
Y29700D03*
X114855Y30650D03*
Y29700D03*
G54D47*
X41350Y17510D03*
X41550D03*
X41750D03*
X41950D03*
Y16290D03*
X41750D03*
X41550D03*
X41350D03*
G54D56*
X111505Y9800D03*
Y10100D03*
X111500Y10300D03*
X111505Y9700D03*
Y10000D03*
X111500Y10400D03*
Y10500D03*
Y10600D03*
Y10700D03*
Y10800D03*
Y10900D03*
X115460Y11150D03*
Y11050D03*
Y10750D03*
Y10650D03*
Y10550D03*
Y10450D03*
Y10350D03*
Y10250D03*
Y10150D03*
Y10050D03*
Y9950D03*
Y9850D03*
Y9750D03*
X135015Y9780D03*
Y10080D03*
X135010Y10280D03*
X135015Y9680D03*
Y9980D03*
X135010Y10380D03*
Y10480D03*
Y10580D03*
Y10680D03*
Y10780D03*
Y10880D03*
X135015Y31230D03*
Y31530D03*
X135010Y31730D03*
X135015Y31130D03*
Y31430D03*
X135010Y31830D03*
Y31930D03*
Y32030D03*
Y32130D03*
Y32230D03*
Y32330D03*
X138970Y11130D03*
Y11030D03*
Y10730D03*
Y10630D03*
Y10530D03*
Y10430D03*
Y10330D03*
Y10230D03*
Y10130D03*
Y10030D03*
Y9930D03*
Y9830D03*
Y9730D03*
Y32580D03*
Y32480D03*
Y32180D03*
Y32080D03*
Y31980D03*
Y31880D03*
Y31780D03*
Y31680D03*
Y31580D03*
Y31480D03*
Y31380D03*
Y31280D03*
Y31180D03*
G54D65*
X119624Y37623D03*
X119427D03*
X119230D03*
X119033D03*
X118836D03*
Y39197D03*
X119033D03*
X119230D03*
X119427D03*
X119624D03*
G54D48*
X57374Y24197D03*
X56626D03*
X57000Y25103D03*
X59474Y24247D03*
X58726D03*
X59100Y25153D03*
X62374Y24197D03*
X61626D03*
X62000Y25103D03*
X64474Y24247D03*
X63726D03*
X64100Y25153D03*
X66626Y24197D03*
X67000Y25103D03*
X68726Y24247D03*
X67374Y24197D03*
X69100Y25153D03*
X69474Y24247D03*
X72374Y24197D03*
X71626D03*
X72000Y25103D03*
X74474Y24247D03*
X73726D03*
X74100Y25153D03*
X103324Y24497D03*
X102576D03*
X102950Y25403D03*
X105074Y24497D03*
X104326D03*
X104700Y25403D03*
X107224Y24497D03*
X106476D03*
X106850Y25403D03*
X108974Y24497D03*
X108226D03*
X108600Y25403D03*
X112276Y24247D03*
X110924Y24197D03*
X110176D03*
X110550Y25103D03*
X113926Y24247D03*
X113024D03*
X114300Y25153D03*
X112650D03*
X116026Y24297D03*
X114674Y24247D03*
X116400Y25203D03*
X116774Y24297D03*
X118374Y24247D03*
X117626D03*
X118000Y25153D03*
X120474Y24297D03*
X119726D03*
X120100Y25203D03*
X122224Y24247D03*
X121476D03*
X121850Y25153D03*
X124324Y24297D03*
X123576D03*
X123950Y25203D03*
G54D66*
X119230Y38410D03*
G54D57*
X112740Y9300D03*
X112575D03*
X113400D03*
X113300D03*
X113205D03*
X113110D03*
X113690D03*
X113590D03*
X113490D03*
X114075D03*
X113975D03*
X113885D03*
X113785D03*
X114365D03*
X114265D03*
X114170D03*
X112480D03*
X112520Y11500D03*
X112635D03*
X112740D03*
X112970D03*
X113065D03*
X113165D03*
X113350D03*
X113450D03*
X113550D03*
X113650D03*
X113745D03*
X113840D03*
X113940D03*
X114045D03*
X114135D03*
X114230D03*
X136250Y9280D03*
X136085D03*
X136910D03*
X136810D03*
X136715D03*
X136620D03*
X137200D03*
X137100D03*
X137000D03*
X137585D03*
X137485D03*
X137395D03*
X137295D03*
X137875D03*
X137775D03*
X137680D03*
X135990D03*
X136030Y11480D03*
X136145D03*
X136250D03*
X136480D03*
X136575D03*
X136675D03*
X136860D03*
X136960D03*
X137060D03*
X137160D03*
X137255D03*
X137350D03*
X137450D03*
X137555D03*
X137645D03*
X137740D03*
X136250Y30730D03*
X136085D03*
X136910D03*
X136810D03*
X136715D03*
X136620D03*
X137200D03*
X137100D03*
X137000D03*
X137585D03*
X137485D03*
X137395D03*
X137295D03*
X137875D03*
X137775D03*
X137680D03*
X135990D03*
X136030Y32930D03*
X136145D03*
X136250D03*
X136480D03*
X136575D03*
X136675D03*
X136860D03*
X136960D03*
X137060D03*
X137160D03*
X137255D03*
X137350D03*
X137450D03*
X137555D03*
X137645D03*
X137740D03*
G54D39*
X24720Y5390D03*
Y5650D03*
Y5900D03*
Y6160D03*
Y6420D03*
Y6670D03*
Y6930D03*
Y7180D03*
Y7440D03*
Y7700D03*
Y7950D03*
Y8210D03*
X27080Y7440D03*
Y7180D03*
Y6930D03*
Y6670D03*
Y6420D03*
Y6160D03*
Y5900D03*
Y5650D03*
Y5390D03*
Y8210D03*
Y7950D03*
Y7700D03*
X33020Y5390D03*
Y5650D03*
Y5900D03*
Y6160D03*
Y6420D03*
Y6670D03*
Y6930D03*
Y7180D03*
Y7440D03*
Y7700D03*
Y7950D03*
Y8210D03*
X35380Y7440D03*
Y7180D03*
Y6930D03*
Y6670D03*
Y6420D03*
Y6160D03*
Y5900D03*
Y5650D03*
Y5390D03*
Y8210D03*
Y7950D03*
Y7700D03*
G54D49*
X57000Y25759D03*
Y26441D03*
X59100Y25759D03*
Y26441D03*
X62000Y25759D03*
Y26441D03*
X64100Y25759D03*
Y26441D03*
X67000Y25759D03*
Y26441D03*
X69100Y25759D03*
Y26441D03*
X72000Y25759D03*
Y26441D03*
X74100Y25759D03*
Y26441D03*
X110550Y25759D03*
Y26441D03*
X114300Y25809D03*
Y26491D03*
X112650Y25759D03*
Y26441D03*
X116400Y25809D03*
Y26491D03*
X118000Y25809D03*
Y26491D03*
X120100Y25809D03*
Y26491D03*
X120790Y29959D03*
Y30641D03*
Y32309D03*
Y32991D03*
X121850Y25809D03*
Y26491D03*
X123950Y25809D03*
Y26491D03*
G54D58*
X114405Y8725D03*
X114305D03*
X114205D03*
X114105D03*
X114005D03*
X113905D03*
X113805D03*
X113705D03*
X113605D03*
X113505D03*
X113405D03*
X113305D03*
X113205D03*
X113105D03*
X113005D03*
X112905D03*
X112805D03*
X112705D03*
X112605D03*
X112505D03*
Y12075D03*
X112605D03*
X112705D03*
X112805D03*
X112905D03*
X113005D03*
X113105D03*
X113205D03*
X113305D03*
X113405D03*
X113505D03*
X113605D03*
X113705D03*
X113805D03*
X113905D03*
X114005D03*
X114105D03*
X114205D03*
X114305D03*
X114405D03*
X114505Y8725D03*
X138015Y8705D03*
X137915D03*
X137815D03*
X137715D03*
X137615D03*
X137515D03*
X137415D03*
X137315D03*
X137215D03*
X137115D03*
X137015D03*
X136915D03*
X136815D03*
X136715D03*
X136615D03*
X136515D03*
X136415D03*
X136315D03*
X136215D03*
X136115D03*
X136015D03*
Y12055D03*
X136115D03*
X136215D03*
X136315D03*
X136415D03*
X136515D03*
X136615D03*
X136715D03*
X136815D03*
X136915D03*
X137015D03*
X137115D03*
X137215D03*
X137315D03*
X137415D03*
X137515D03*
X137615D03*
X137715D03*
X137815D03*
X137915D03*
X138015Y30155D03*
X137915D03*
X137815D03*
X137715D03*
X137615D03*
X137515D03*
X137415D03*
X137315D03*
X137215D03*
X137115D03*
X137015D03*
X136915D03*
X136815D03*
X136715D03*
X136615D03*
X136515D03*
X136415D03*
X136315D03*
X136215D03*
X136115D03*
X136015D03*
Y33505D03*
X136115D03*
X136215D03*
X136315D03*
X136415D03*
X136515D03*
X136615D03*
X136715D03*
X136815D03*
X136915D03*
X137015D03*
X137115D03*
X137215D03*
X137315D03*
X137415D03*
X137515D03*
X137615D03*
X137715D03*
X137815D03*
X137915D03*
G54D59*
X113260Y11500D03*
X114330D03*
X136770Y11480D03*
X137840D03*
X136770Y32930D03*
X137840D03*
M02*
