G04 ================== begin FILE IDENTIFICATION RECORD ==================*
G04 Layout Name:  //MAC/HOME/DESKTOP/SPB_DATA/CAPTURE/CIS_ATCS/allegro/ATCS_Final.brd*
G04 Film Name:    SOLDERMASK_BOT*
G04 File Format:  Gerber RS274X*
G04 File Origin:  Cadence Allegro 17.2-P019*
G04 Origin Date:  Thu Jun 21 16:22:32 2018*
G04 *
G04 Layer:  VIA CLASS/SOLDERMASK_BOTTOM*
G04 Layer:  PIN/SOLDERMASK_BOTTOM*
G04 Layer:  PACKAGE GEOMETRY/SOLDERMASK_BOTTOM*
G04 Layer:  DRC ERROR CLASS/SOLDERMASK_BOTTOM*
G04 Layer:  BOARD GEOMETRY/SOLDERMASK_BOTTOM*
G04 *
G04 Offset:    (0.00 0.00)*
G04 Mirror:    No*
G04 Mode:      Positive*
G04 Rotation:  0*
G04 FullContactRelief:  No*
G04 UndefLineWidth:     0.00*
G04 ================== end FILE IDENTIFICATION RECORD ====================*
%FSLAX54Y54*MOIN*%
%IR0*IPPOS*OFA0.00000B0.00000*MIA0B0*SFA1.00000B1.00000*%
%ADD31R,.06X.1*%
%ADD23R,.13X.067*%
%ADD11C,.03*%
%ADD12C,.022*%
%ADD15C,.07*%
%ADD13C,.026*%
%ADD10C,.08*%
%ADD16C,.037*%
%ADD45R,.07X.07*%
%ADD42C,.095*%
%ADD33R,.069X.069*%
%ADD36R,.05X.014*%
%ADD21R,.01X.028*%
%ADD43R,.016X.04*%
%ADD40R,.025X.07*%
%ADD39R,.028X.04*%
%ADD37R,.015X.026*%
%ADD44R,.042X.017*%
%ADD20R,.027X.025*%
%ADD14C,.25*%
%ADD38R,.019X.052*%
%ADD28R,.025X.027*%
%ADD30R,.094X.07*%
%ADD41R,.02362X.06102*%
%ADD22R,.05512X.04331*%
%ADD35R,.01181X.03543*%
%ADD26R,.04134X.04252*%
%ADD34R,.03543X.01181*%
%ADD24R,.02362X.0374*%
%ADD18R,.02362X.02165*%
%ADD46R,.0374X.02362*%
%ADD32R,.0374X.0374*%
%ADD17R,.02165X.02362*%
%ADD29R,.0374X.0374*%
%ADD27R,.05906X.05118*%
%ADD19R,.05118X.05906*%
%ADD25R,.04921X.0689*%
%ADD47C,.006*%
G75*
%LPD*%
G75*
G36*
G01X112300Y9550D02*
Y11250D01*
X114650D01*
Y9550D01*
X112300D01*
G37*
G36*
G01D02*
Y11250D01*
X114650D01*
Y9550D01*
X112300D01*
G37*
G36*
G01D02*
Y11250D01*
X114650D01*
Y9550D01*
X112300D01*
G37*
G36*
G01X135810Y9530D02*
Y11230D01*
X138160D01*
Y9530D01*
X135810D01*
G37*
G36*
G01Y30980D02*
Y32680D01*
X138160D01*
Y30980D01*
X135810D01*
G37*
G54D10*
X1530Y1530D03*
X48480Y27360D03*
G54D20*
X9060Y22074D03*
Y22546D03*
X11410Y22074D03*
Y22546D03*
X16450Y11386D03*
Y10914D03*
X24250Y23136D03*
Y22664D03*
X26850Y21664D03*
Y22136D03*
X26350Y21664D03*
Y22136D03*
X27300Y21664D03*
Y22136D03*
X27800Y21664D03*
Y22136D03*
X28100Y24614D03*
X28050Y26136D03*
Y25664D03*
X28100Y25086D03*
X28250Y21664D03*
Y22136D03*
X29700Y21664D03*
Y22136D03*
X30150Y21664D03*
Y22136D03*
X29200Y21664D03*
Y22136D03*
X28750Y21664D03*
Y22136D03*
X29650Y26414D03*
Y26886D03*
X30650Y21664D03*
Y22136D03*
X31100Y21664D03*
Y22136D03*
X32050Y21664D03*
Y22136D03*
X31600Y21664D03*
Y22136D03*
X32550Y21664D03*
Y22136D03*
X33500Y21664D03*
Y22136D03*
X33000Y21664D03*
Y22136D03*
X34300Y21664D03*
Y22136D03*
Y26564D03*
Y27036D03*
X34800Y21664D03*
Y22136D03*
X36200Y21664D03*
Y22136D03*
X35750Y21664D03*
Y22136D03*
X35250Y21664D03*
Y22136D03*
X36700Y21664D03*
Y22136D03*
X37150Y21664D03*
Y22136D03*
X38100Y21664D03*
Y22136D03*
X38600Y21664D03*
Y22136D03*
X37650Y21664D03*
Y22136D03*
X37600Y26414D03*
Y26886D03*
X40500Y21664D03*
Y22136D03*
X40000Y21664D03*
Y22136D03*
X40950Y21664D03*
Y22136D03*
X39050Y21664D03*
Y22136D03*
X39550Y21664D03*
Y22136D03*
X42700Y21664D03*
Y22136D03*
X43150Y21664D03*
Y22136D03*
X42200Y21664D03*
Y22136D03*
X41450Y21664D03*
Y22136D03*
X43650Y21664D03*
Y22136D03*
X44100Y21664D03*
Y22136D03*
X44600Y21664D03*
Y22136D03*
X45050Y21664D03*
Y22136D03*
X46000Y21664D03*
Y22136D03*
X46500Y21664D03*
Y22136D03*
X46950Y21664D03*
Y22136D03*
X45550Y21664D03*
Y22136D03*
X47450Y21664D03*
Y22136D03*
X45500Y26414D03*
Y26886D03*
X49350Y21664D03*
Y22136D03*
X47900Y21664D03*
Y22136D03*
X48400Y21664D03*
Y22136D03*
X48850Y21664D03*
Y22136D03*
X50420Y7054D03*
Y7526D03*
G54D11*
X2300Y3850D03*
Y4350D03*
Y4850D03*
Y5350D03*
Y5850D03*
Y6350D03*
Y6850D03*
Y7350D03*
Y7850D03*
Y8350D03*
Y8850D03*
Y9350D03*
Y9850D03*
Y10350D03*
Y10850D03*
Y11350D03*
Y11850D03*
Y12350D03*
Y12850D03*
Y13350D03*
Y13850D03*
Y14350D03*
Y14850D03*
Y15350D03*
Y15850D03*
Y16350D03*
Y16850D03*
Y17350D03*
Y17850D03*
Y18350D03*
Y18850D03*
Y19350D03*
Y19850D03*
Y20350D03*
Y20850D03*
Y21350D03*
Y21850D03*
Y22350D03*
Y22850D03*
Y23350D03*
X4300Y3850D03*
Y4350D03*
Y4850D03*
Y5350D03*
X2800Y3850D03*
Y4350D03*
Y4850D03*
Y5350D03*
X4300Y5850D03*
Y6350D03*
Y6850D03*
Y7350D03*
X2800Y5850D03*
Y6350D03*
Y6850D03*
Y7350D03*
X4300Y7850D03*
Y8350D03*
Y8850D03*
Y9350D03*
X2800Y7850D03*
Y8350D03*
Y8850D03*
Y9350D03*
X4300Y9850D03*
Y10350D03*
Y10850D03*
Y11350D03*
Y11850D03*
X2800Y9850D03*
Y10350D03*
Y10850D03*
Y11350D03*
Y11850D03*
X4300Y12350D03*
Y12850D03*
Y13350D03*
Y13850D03*
X2800Y12350D03*
Y12850D03*
Y13350D03*
Y13850D03*
X4300Y14350D03*
Y14850D03*
Y15350D03*
Y15850D03*
X2800Y14350D03*
Y14850D03*
Y15350D03*
Y15850D03*
X4300Y16350D03*
Y16850D03*
Y17350D03*
Y17850D03*
X2800Y16350D03*
Y16850D03*
Y17350D03*
Y17850D03*
X4300Y18350D03*
Y18850D03*
Y19350D03*
Y19850D03*
Y20350D03*
X2800Y18350D03*
Y18850D03*
Y19350D03*
Y19850D03*
Y20350D03*
X4300Y20850D03*
Y21350D03*
Y21850D03*
Y22350D03*
X2800Y20850D03*
Y21350D03*
Y21850D03*
Y22350D03*
X4300Y22850D03*
Y23350D03*
X2800Y22850D03*
Y23350D03*
X4800Y3850D03*
Y4350D03*
Y4850D03*
Y5350D03*
Y5850D03*
Y6350D03*
Y6850D03*
Y7350D03*
Y7850D03*
Y8350D03*
Y8850D03*
Y9350D03*
Y9850D03*
Y10350D03*
Y10850D03*
Y11350D03*
Y11850D03*
Y12350D03*
Y12850D03*
Y13350D03*
Y13850D03*
Y14350D03*
Y14850D03*
Y15350D03*
Y15850D03*
Y16350D03*
Y16850D03*
Y17350D03*
Y17850D03*
Y18350D03*
Y18850D03*
Y19350D03*
Y19850D03*
Y20350D03*
Y20850D03*
Y21350D03*
Y21850D03*
Y22350D03*
Y22850D03*
Y23350D03*
X82000Y4500D03*
Y5000D03*
X81500Y4500D03*
Y5000D03*
X82000Y15800D03*
X81500D03*
X82000Y16300D03*
X81500D03*
X84000Y4500D03*
Y5000D03*
X83500Y4500D03*
Y5000D03*
X83000Y4500D03*
Y5000D03*
X82500Y4500D03*
Y5000D03*
X84000Y15800D03*
X83500D03*
X83000D03*
X82500D03*
X84000Y16300D03*
X83500D03*
X83000D03*
X82500D03*
X86500Y4500D03*
Y5000D03*
X86000Y4500D03*
Y5000D03*
X85500Y4500D03*
Y5000D03*
X85000Y4500D03*
Y5000D03*
X84500Y4500D03*
Y5000D03*
X86500Y15800D03*
X86000D03*
X85500D03*
X85000D03*
X84500D03*
X86500Y16300D03*
X86000D03*
X85500D03*
X85000D03*
X84500D03*
X88500Y4500D03*
Y5000D03*
X88000Y4500D03*
Y5000D03*
X87500Y4500D03*
Y5000D03*
X87000Y4500D03*
Y5000D03*
X88500Y15800D03*
X88000D03*
X87500D03*
X87000D03*
X88500Y16300D03*
X88000D03*
X87500D03*
X87000D03*
X90500Y4500D03*
Y5000D03*
X90000Y4500D03*
Y5000D03*
X89500Y4500D03*
Y5000D03*
X89000Y4500D03*
Y5000D03*
X90500Y15800D03*
X90000D03*
X89500D03*
X89000D03*
X90500Y16300D03*
X90000D03*
X89500D03*
X89000D03*
X92500Y4500D03*
Y5000D03*
X92000Y4500D03*
Y5000D03*
X91500Y4500D03*
Y5000D03*
X91000Y4500D03*
Y5000D03*
X92500Y15800D03*
X92000D03*
X91500D03*
X91000D03*
X92500Y16300D03*
X92000D03*
X91500D03*
X91000D03*
X95000Y4500D03*
Y5000D03*
X94500Y4500D03*
Y5000D03*
X94000Y4500D03*
Y5000D03*
X93500Y4500D03*
Y5000D03*
X93000Y4500D03*
Y5000D03*
X95000Y15800D03*
X94500D03*
X94000D03*
X93500D03*
X93000D03*
X95000Y16300D03*
X94500D03*
X94000D03*
X93500D03*
X93000D03*
X97000Y4500D03*
Y5000D03*
X96500Y4500D03*
Y5000D03*
X96000Y4500D03*
Y5000D03*
X95500Y4500D03*
Y5000D03*
X97000Y15800D03*
X96500D03*
X96000D03*
X95500D03*
X97000Y16300D03*
X96500D03*
X96000D03*
X95500D03*
X98500Y4500D03*
Y5000D03*
X98000Y4500D03*
Y5000D03*
X97500Y4500D03*
Y5000D03*
X98500Y15800D03*
X98000D03*
X97500D03*
X98500Y16300D03*
X98000D03*
X97500D03*
X100500Y32890D03*
Y32390D03*
Y31840D03*
X100650Y38040D03*
Y38590D03*
Y39090D03*
X110850Y31890D03*
Y32440D03*
Y32940D03*
X110750Y38140D03*
Y38690D03*
Y39190D03*
G54D30*
X19350Y3850D03*
Y8800D03*
X19400Y14800D03*
X23150Y23650D03*
G54D21*
X9630Y22530D03*
X9810D03*
X9980D03*
X10160D03*
X10340D03*
X10520D03*
X10690D03*
X10870D03*
Y23670D03*
X10690D03*
X10520D03*
X10340D03*
X10160D03*
X9980D03*
X9810D03*
X9630D03*
X19450Y4400D03*
X19250D03*
X19050D03*
Y3300D03*
X19250D03*
X19450D03*
Y9350D03*
X19250D03*
X19050D03*
Y8250D03*
X19250D03*
X19450D03*
X19300Y15350D03*
X19100D03*
Y14250D03*
X19300D03*
X19650Y4400D03*
Y3300D03*
Y9350D03*
Y8250D03*
X19700Y15350D03*
X19500D03*
Y14250D03*
X19700D03*
X22850Y23100D03*
X23050D03*
X23250D03*
X23450D03*
Y24200D03*
X23250D03*
X23050D03*
X22850D03*
X48550Y4720D03*
X48730D03*
X48900D03*
X49080D03*
X49260D03*
X49440D03*
X49610D03*
X49790D03*
Y5860D03*
X49610D03*
X49440D03*
X49260D03*
X49080D03*
X48900D03*
X48730D03*
X48550D03*
G54D12*
X1450Y4500D03*
X1550Y16600D03*
X1050Y22250D03*
X3900Y8100D03*
X3877Y10558D03*
X3400Y11450D03*
X3300Y18900D03*
X3850Y23900D03*
X3480Y22980D03*
X3700Y23600D03*
X6650Y700D03*
X5950Y2250D03*
X6600Y2750D03*
X5968Y1850D03*
X6300Y1450D03*
X6205Y6045D03*
X5250Y9600D03*
X5222Y13428D03*
X5700Y13850D03*
X5850Y12050D03*
X6200Y13150D03*
X5350Y14750D03*
Y19350D03*
X6050Y21600D03*
X5400Y22900D03*
X5750Y23450D03*
X5600Y24750D03*
X6550Y27100D03*
X7150Y915D03*
X6900Y450D03*
X7250Y2750D03*
X7100Y6400D03*
X8061Y6011D03*
X6702Y6602D03*
X7608Y6208D03*
X8650Y7400D03*
X7135Y11315D03*
X8050Y10450D03*
X7100Y14355D03*
X8039Y14889D03*
Y13961D03*
X7608Y14158D03*
Y15892D03*
X8250Y15850D03*
X8300Y17835D03*
X6702Y18902D03*
X8258Y20100D03*
X6750Y20850D03*
X8350Y23200D03*
X7200Y26400D03*
X6900Y26750D03*
X7600Y26200D03*
X9350Y1100D03*
X10600Y4106D03*
X10650Y6650D03*
X10958Y7192D03*
X9050Y7700D03*
X9450Y8450D03*
X10900Y7700D03*
X10958Y15142D03*
X9050Y15650D03*
X10900D03*
X9450Y16400D03*
X10000Y17835D03*
X9250Y20300D03*
X9450Y20850D03*
X9772Y22958D03*
X10072D03*
X10372D03*
X10672D03*
X9772Y23258D03*
X10072D03*
X10372D03*
X10672D03*
X8950Y23180D03*
X9250D03*
X8940Y22900D03*
X9250D03*
X9300Y23750D03*
X9000D03*
X10930Y28330D03*
X12500Y1850D03*
X11850Y3900D03*
X12450Y5250D03*
X11858Y5300D03*
X11200Y5400D03*
X11900Y7150D03*
Y6250D03*
X12350Y6700D03*
X12800Y7150D03*
Y6250D03*
X11858Y8400D03*
Y8660D03*
X11300Y7698D03*
X11850Y10550D03*
X11200Y11500D03*
Y9950D03*
X12400D03*
X13050D03*
X11250Y13260D03*
X11858Y13250D03*
X11850Y11850D03*
X12550D03*
X12900Y13250D03*
Y12000D03*
X11052Y14748D03*
X11900Y14200D03*
X12350Y14650D03*
X12800Y14200D03*
X11900Y15100D03*
X11300Y15648D03*
X12800Y15100D03*
X11200Y17900D03*
X11858Y16610D03*
Y16350D03*
X12900Y17200D03*
X12250Y19400D03*
X11850Y18500D03*
X11430Y22880D03*
X11120D03*
X11430Y23160D03*
X11130D03*
X11400Y23750D03*
X11123D03*
X12800Y25350D03*
X12150Y28300D03*
X11000Y27750D03*
X13650Y1300D03*
X13550Y5550D03*
X15150Y6050D03*
X15044Y7194D03*
X15150Y5550D03*
X13750Y6300D03*
Y7050D03*
X13800Y6602D03*
X13775Y5725D03*
X13450Y13550D03*
X15150Y13500D03*
X13847Y13547D03*
X15044Y15144D03*
X15150Y14000D03*
X13750Y14250D03*
Y15000D03*
X13800Y14552D03*
X15350Y5100D03*
X16700Y7300D03*
X16427Y6173D03*
X16150Y6000D03*
X16850Y5550D03*
Y6650D03*
X16700Y7800D03*
X15750Y8100D03*
X15700Y8400D03*
X17000Y7450D03*
X16950Y10100D03*
X15370Y10380D03*
X15700Y12350D03*
X15300Y15450D03*
X17250Y16150D03*
X15300Y16850D03*
Y16150D03*
X15450Y16550D03*
X15800Y16650D03*
X17068Y20000D03*
X16732D03*
X19050Y3850D03*
X19550Y3848D03*
X17555Y6470D03*
X18600Y6250D03*
X18100Y6900D03*
X19381Y8798D03*
X19050Y8800D03*
X17650Y10880D03*
X18540Y13400D03*
X18150Y13130D03*
X18170Y12090D03*
X19100Y14800D03*
X18540Y17430D03*
X17920Y17750D03*
X19550Y20450D03*
X20230Y4150D03*
X20250Y4600D03*
X20230Y3550D03*
Y3150D03*
Y9100D03*
Y9450D03*
Y8500D03*
X20200Y8150D03*
X19700Y8800D03*
X19650Y14798D03*
X20280Y14000D03*
Y14500D03*
Y15100D03*
Y15470D03*
X20723Y19423D03*
X21550Y19100D03*
X20300Y18900D03*
X22150Y1100D03*
X23000Y2000D03*
X23150Y4050D03*
X23500Y3150D03*
X23750Y3650D03*
X22850Y5500D03*
X23900Y6180D03*
X23840Y7770D03*
X22777Y11018D03*
X23500Y12350D03*
X22200Y12000D03*
X22600D03*
X23500Y15000D03*
X23620Y16250D03*
X22850Y16900D03*
X22150Y17420D03*
X23270Y17210D03*
X22850Y19900D03*
X22750Y19000D03*
X22200Y19100D03*
X23791Y19585D03*
X21843Y18953D03*
X21900Y19800D03*
X23275Y18875D03*
X23460Y20750D03*
X23150Y20850D03*
X21900Y20400D03*
X22600Y22250D03*
X23700Y20406D03*
X22950Y21045D03*
X22700Y20850D03*
X22250Y20700D03*
X22952Y22148D03*
X22150Y24000D03*
X22159Y24341D03*
X22448Y24348D03*
X23890Y23100D03*
X22410D03*
X23850Y24300D03*
X22850Y23650D03*
X23450D03*
X22355Y26145D03*
X23600Y25950D03*
X22900Y25400D03*
X23250D03*
X24350Y2550D03*
X24150Y2050D03*
X24350Y1400D03*
X24230Y4560D03*
X25990Y5090D03*
X25150Y6730D03*
X24240Y6000D03*
X24050Y7300D03*
X24200Y6789D03*
X25160Y6320D03*
X25190Y5340D03*
X24200Y6500D03*
X25700Y5750D03*
X25780Y6300D03*
X25950Y6730D03*
X25500D03*
X25470Y6300D03*
X25190Y8210D03*
X25200Y7950D03*
X24300Y8350D03*
X26000Y9300D03*
X26040Y7460D03*
X25700Y7450D03*
X25950Y8400D03*
X25190Y7440D03*
X24250Y7700D03*
X25500Y9350D03*
X26000Y10500D03*
X25350Y10950D03*
X25550Y11570D03*
X25600Y12150D03*
X25500Y12570D03*
Y17450D03*
X24744Y16644D03*
X25850Y18650D03*
X24050Y19500D03*
X24744Y18406D03*
X24050Y23900D03*
X24141Y24341D03*
X27900Y1650D03*
X27400Y2000D03*
X26350Y5050D03*
X26800Y5100D03*
X26720Y4150D03*
X26330Y6710D03*
X28190Y6660D03*
X27490Y6990D03*
X26575Y7425D03*
X27550Y7260D03*
X26650Y5600D03*
X27605Y6615D03*
X26571Y6911D03*
X26500Y6100D03*
X26960Y8500D03*
X27550Y8440D03*
X27526Y8031D03*
X27570Y9350D03*
X26500Y7750D03*
X26350Y8430D03*
X26116Y11334D03*
X27300Y11000D03*
X27150Y11713D03*
X27000Y11334D03*
X26350Y11200D03*
X26372Y13428D03*
X27669Y12943D03*
X27000Y12050D03*
X27250Y13250D03*
X27300Y12500D03*
X28200Y13045D03*
X26800Y14950D03*
Y15800D03*
X26090Y15710D03*
X26390Y14930D03*
X28077Y19623D03*
X27527D03*
X27800Y20350D03*
X27450Y18850D03*
X27550Y21100D03*
X26600D03*
X27800Y22450D03*
X27300D03*
X26850D03*
X26350D03*
X26850Y20450D03*
X26250Y21150D03*
X27150Y21100D03*
X27800Y23550D03*
X27600Y24657D03*
X27550Y26530D03*
X27586Y25764D03*
X27550Y25300D03*
X28100Y26850D03*
X28344Y1306D03*
X28650Y4850D03*
X28344Y5694D03*
X28900Y5350D03*
X28750Y6160D03*
X29140Y5560D03*
X29050Y6920D03*
X29150Y6150D03*
X29390Y7400D03*
X29270Y8780D03*
X28250Y7780D03*
X28913Y11713D03*
X29050Y10863D03*
X28850Y10350D03*
X28486Y13000D03*
X28436Y11750D03*
X28950Y15150D03*
Y17200D03*
X30232Y20000D03*
X30125Y18475D03*
X28500Y21100D03*
X29450D03*
X29200Y22450D03*
X28250D03*
X30150D03*
X28750D03*
X29700D03*
X28650Y24550D03*
X29350Y26300D03*
X29945D03*
X28650Y24955D03*
X28600Y25545D03*
X29750Y25100D03*
X29150Y27750D03*
X29950Y27800D03*
X29700Y27550D03*
X31100Y1650D03*
X32200Y5373D03*
X32300Y5850D03*
X31510Y6700D03*
X31115Y6370D03*
X30810Y7660D03*
X32460Y7440D03*
X32050Y8400D03*
X31950Y9100D03*
X31510Y8860D03*
X32455Y7835D03*
X30650Y11600D03*
X30850Y9700D03*
X31800Y10200D03*
X31400Y9650D03*
Y10700D03*
X31250Y14500D03*
X31200Y15800D03*
X31350Y18000D03*
X31250Y17400D03*
X30950Y17200D03*
X32050Y19950D03*
X31182D03*
X31963Y18300D03*
X31518Y19950D03*
X32300Y18300D03*
X30400Y21100D03*
X31350D03*
X32300D03*
X30650Y22450D03*
X31600D03*
X32050D03*
X31100D03*
X32000Y24500D03*
X31950Y25700D03*
X32000Y25100D03*
X31859Y25400D03*
X30400Y28200D03*
X32750Y3050D03*
X34350Y1050D03*
X33000Y5050D03*
X33534Y3250D03*
X34650Y7400D03*
X32550Y6450D03*
X34550Y5650D03*
X33750Y7300D03*
X33460Y6420D03*
X34700Y7050D03*
X33750Y5900D03*
X33930Y6930D03*
X33750Y8700D03*
X33230Y9270D03*
X34520Y8650D03*
X34650Y7740D03*
X34550Y8100D03*
X34500Y11150D03*
X33050Y13900D03*
X34650Y12100D03*
X34550Y12550D03*
X33050Y15100D03*
X33800Y14500D03*
X33103Y15365D03*
X33300Y17550D03*
X33750Y18000D03*
X34100D03*
X33000Y19950D03*
X34382Y20100D03*
X33250Y21100D03*
X34550D03*
X33000Y22450D03*
X33500D03*
X34300D03*
X32550D03*
X32750Y20950D03*
X33700D03*
X34250Y24650D03*
X33300Y25050D03*
X34300Y25750D03*
X34250Y25150D03*
X34683Y26333D03*
X36500Y2500D03*
X35575Y1075D03*
X36250Y1000D03*
X36700D03*
X35900Y1050D03*
X34790Y5390D03*
X36600Y7350D03*
X35791Y6830D03*
X35790Y5630D03*
X34855Y6655D03*
X34796Y5927D03*
X35870Y7300D03*
X36250Y8300D03*
X35200Y9850D03*
X35632Y13750D03*
X35450Y13050D03*
X35968Y13750D03*
X35113Y13050D03*
X35050Y13700D03*
X34750Y12800D03*
X36532Y14900D03*
X35550Y16100D03*
X36100Y16350D03*
X34900Y17500D03*
X36618Y20100D03*
X36282D03*
X35332D03*
X34718D03*
X35668D03*
X36450Y21100D03*
X35500D03*
X36200Y22450D03*
X35750D03*
X36700D03*
X35250D03*
X34800D03*
X36600Y24550D03*
X35550Y24657D03*
X36600Y24955D03*
X36550Y25545D03*
X35300Y26600D03*
X35500Y25300D03*
X36100Y26850D03*
X36950Y2150D03*
X36900Y3850D03*
X38518Y15000D03*
X36868Y14900D03*
X38182Y15000D03*
X38732Y16400D03*
X38682Y17650D03*
X37193Y20050D03*
X38518D03*
X37530D03*
X38182D03*
X37400Y21100D03*
X38350D03*
X37150Y22450D03*
X38100D03*
X38600D03*
X37650D03*
X37300Y26300D03*
X37895D03*
X38450Y28200D03*
X37600Y28000D03*
Y27450D03*
X39950Y300D03*
X39600Y3050D03*
X40900Y1650D03*
X39250Y3350D03*
X39050Y5400D03*
X40360Y11710D03*
X40540Y10130D03*
X40904Y10466D03*
X41162Y11250D03*
X40345Y14808D03*
X39430Y15700D03*
X39093D03*
X39900Y15750D03*
X40750Y17200D03*
X40000Y17600D03*
X39068Y16400D03*
X39018Y17650D03*
X40650Y16300D03*
X39950Y16600D03*
X40650D03*
X40600Y17550D03*
X40418Y19950D03*
X40082D03*
X39430Y20100D03*
X39093D03*
X41031Y20150D03*
X39750Y18500D03*
X39300Y21100D03*
X40250D03*
X40950Y22450D03*
X39550D03*
X40000D03*
X39050D03*
X40500D03*
X39950Y24600D03*
X39900Y25700D03*
X40150Y26350D03*
X40000Y25100D03*
X39850Y25400D03*
X42750Y2242D03*
Y2568D03*
X42450Y1782D03*
Y2108D03*
X41440Y4800D03*
X42753Y11647D03*
X41499Y11250D03*
X42350Y9600D03*
X42340Y9950D03*
X42150Y11650D03*
X42825Y12325D03*
X41350Y15950D03*
X42300Y15900D03*
X42850Y15250D03*
X42651Y17298D03*
X42725Y17725D03*
X41950Y17950D03*
X41434Y17938D03*
X41650Y18100D03*
X42650Y17000D03*
X43000Y16850D03*
X41850Y20350D03*
X43232Y20100D03*
X42317Y20136D03*
X42654D03*
X41700Y18900D03*
X42000D03*
X41368Y20150D03*
X42150Y18250D03*
X42450Y21100D03*
X41200D03*
X42700Y22450D03*
X42200D03*
X43150D03*
X41450D03*
X42150Y24650D03*
Y26700D03*
X42200Y25750D03*
X42150Y25150D03*
X41250Y25050D03*
X44225Y1125D03*
X43350Y4608D03*
Y4282D03*
X44050Y5550D03*
Y5887D03*
X43965Y10630D03*
X43900Y13700D03*
X44000Y12650D03*
X43636Y15300D03*
X43586Y14050D03*
X44000Y14400D03*
X44600Y16890D03*
X43700Y18750D03*
X44703Y19689D03*
X45131Y20050D03*
X45468D03*
X44697Y19959D03*
X43568Y20100D03*
X45300Y21100D03*
X44350D03*
X43400D03*
X43650Y22450D03*
X44100D03*
X45050D03*
X44600D03*
X44500Y24550D03*
X43450Y24657D03*
X43900Y26750D03*
X45200Y26300D03*
X44500Y24955D03*
X44450Y25545D03*
X43400Y25300D03*
X46300Y10350D03*
X47150Y10968D03*
X46300Y10013D03*
X47150Y10632D03*
X46750Y11850D03*
X46900Y13800D03*
X47150Y15550D03*
X45600Y16650D03*
X46081Y20000D03*
X47032Y20100D03*
X45900Y19550D03*
X46418Y20000D03*
X47368Y20100D03*
X46900Y18800D03*
X47200Y21100D03*
X46250D03*
X47450Y22450D03*
X46950D03*
X46000D03*
X46500D03*
X45550D03*
X45795Y26300D03*
X46200Y28200D03*
X45500Y28000D03*
Y27450D03*
X47970Y3690D03*
Y3240D03*
X49348Y5148D03*
X49048D03*
X48748D03*
X49648D03*
X47970Y4990D03*
X49048Y5448D03*
X48748D03*
X49648D03*
X49348D03*
X48230Y6220D03*
X48626Y8284D03*
X49714D03*
X48150Y12937D03*
X48931Y13800D03*
X48150Y12600D03*
X49268Y13800D03*
X47850Y14050D03*
X47982Y19950D03*
X48931Y20150D03*
X48318Y19950D03*
X49268Y20150D03*
X47700Y19150D03*
X49100Y21100D03*
X48150D03*
X47900Y22450D03*
X49350D03*
X48400D03*
X48850D03*
X47850Y24600D03*
X47800Y25700D03*
X47933Y26333D03*
X47900Y25100D03*
X47750Y25400D03*
X50370Y3690D03*
Y3240D03*
Y4990D03*
X50440Y5760D03*
X55405Y9805D03*
X54850Y11000D03*
X55405Y12105D03*
X56193Y17257D03*
X56002Y17448D03*
X56845Y1635D03*
X56595Y1385D03*
X57100Y13600D03*
X56600Y13105D03*
X56575Y16875D03*
X56384Y17066D03*
X57100Y17750D03*
X56800Y19650D03*
X56600Y20800D03*
X59692Y941D03*
X59882Y1132D03*
X60073Y1323D03*
Y5237D03*
X59962Y5850D03*
X59692Y6300D03*
X59100Y8800D03*
X59050Y8050D03*
X59150Y9336D03*
X60500Y15350D03*
X60350Y15850D03*
X59650Y17150D03*
X60350Y17950D03*
X59900Y19250D03*
X62250Y2100D03*
X62200Y14400D03*
X61050Y14850D03*
X61550Y16350D03*
X60750Y17650D03*
X61250Y17400D03*
X62200Y19150D03*
X61000Y18250D03*
X62050Y20232D03*
Y20568D03*
X62950Y2250D03*
X64500Y3000D03*
X63650Y2400D03*
X62913Y16900D03*
X63250D03*
X66900Y4582D03*
X66250Y3736D03*
X66900Y4918D03*
X66250Y4073D03*
X67000Y16828D03*
X65750Y18250D03*
X67418Y1700D03*
X67082D03*
X67700Y3232D03*
Y3568D03*
X69150Y5350D03*
X68700Y7595D03*
Y18500D03*
X68800Y30400D03*
X70950Y19150D03*
X69650Y30400D03*
X71320Y36900D03*
X70780D03*
X70050Y36400D03*
X70702Y35558D03*
X71052Y35908D03*
X70702D03*
X71052Y35558D03*
X72250Y18300D03*
X72500Y19868D03*
Y19532D03*
X72050Y36350D03*
X71402Y35908D03*
Y35558D03*
X75569Y4350D03*
X74650Y4550D03*
X75232Y4350D03*
X74380Y4550D03*
X75569Y6750D03*
X75232D03*
X74210Y7830D03*
Y7494D03*
X74478Y10500D03*
X75478D03*
X74850D03*
X73850Y20132D03*
Y20468D03*
X74150Y21218D03*
Y20882D03*
X75050Y36150D03*
X75350D03*
X75650D03*
X74550Y36970D03*
Y36700D03*
X74610Y35600D03*
X75988Y5963D03*
X75978Y10500D03*
X77540Y12300D03*
Y13500D03*
X76265Y15035D03*
X76074Y15226D03*
X76400Y18750D03*
X76100Y18941D03*
X77700Y36150D03*
X77400D03*
X76900Y36700D03*
Y36970D03*
X76960Y35600D03*
X76341Y36841D03*
X76250Y36400D03*
X78100Y4950D03*
X79800Y16650D03*
X78950Y30250D03*
X78000D03*
Y36150D03*
X78600Y36400D03*
X78691Y36841D03*
X81550Y13650D03*
X80750Y12850D03*
X81780Y17873D03*
X81700Y22250D03*
X81150Y30400D03*
X82000D03*
X84300Y3900D03*
X84000Y6000D03*
X84050Y11350D03*
X82212Y17682D03*
X83752Y35558D03*
X83402D03*
X83052D03*
X83402Y35908D03*
X83052D03*
X83752D03*
X83670Y36900D03*
X82400Y36400D03*
X83130Y36900D03*
X86000Y7350D03*
X86354D03*
X84700Y9450D03*
X86175Y11475D03*
X85425Y10725D03*
X85675Y10975D03*
X85925Y11225D03*
X86000Y14100D03*
X84650Y20950D03*
X85400Y21550D03*
X84400Y36350D03*
X87060Y7350D03*
X86707D03*
X86750Y11700D03*
X87400Y14600D03*
X86900Y36970D03*
Y36700D03*
X86960Y35600D03*
X88600Y36400D03*
X88000Y36150D03*
X87700D03*
X87400D03*
X90230Y1780D03*
X89950Y6404D03*
X89400Y6850D03*
X89000Y13250D03*
X89600Y17670D03*
X89330Y18540D03*
X90350Y30250D03*
X89250Y36970D03*
Y36700D03*
X89310Y35600D03*
X88691Y36841D03*
X90350Y36150D03*
X89750D03*
X90050D03*
X92600Y2500D03*
X90780Y2230D03*
X91850Y1780D03*
X92800Y6650D03*
X92500Y6050D03*
X91000Y14000D03*
X92000Y14700D03*
X91050Y18540D03*
X91300Y30250D03*
X91041Y36841D03*
X90950Y36400D03*
X93700Y2700D03*
X94000Y6800D03*
X94450Y8000D03*
X93000Y8200D03*
X92975Y12375D03*
X93500Y12800D03*
X95518Y7500D03*
X95182D03*
X96000Y14350D03*
X96600Y15100D03*
X98500Y8450D03*
X97900Y7800D03*
X98837Y8450D03*
X98500Y32000D03*
X97400Y32420D03*
X97700D03*
X98000D03*
X98650Y38200D03*
X98150Y38620D03*
X97550D03*
X97850D03*
X101040Y4550D03*
X99650Y7800D03*
X101000Y16300D03*
X101400Y18000D03*
X99900Y22350D03*
X101000Y21800D03*
X103700Y24000D03*
X105100Y23950D03*
X107600Y24000D03*
X109450Y8350D03*
X109705Y14475D03*
X109000Y23950D03*
X111730Y8050D03*
X112330Y9300D03*
Y11500D03*
X112045Y9615D03*
Y11085D03*
X113500Y10400D03*
X113860Y11690D03*
X112750Y10800D03*
X114200D03*
X112750Y10000D03*
X114200Y9950D03*
X113260Y11740D03*
X113740Y29700D03*
Y30650D03*
X116250Y9200D03*
X114530Y9300D03*
X115100Y10650D03*
X114915Y9965D03*
Y11045D03*
X114570Y11500D03*
X116290Y34580D03*
X116325Y36565D03*
X115900Y41530D03*
X116285Y40165D03*
X116850Y9200D03*
X116780Y34556D03*
X117680Y36560D03*
X117623Y37110D03*
X117880Y38110D03*
X118180D03*
X117630D03*
X117880Y38710D03*
X118130D03*
X117630D03*
X117600Y39660D03*
X117680Y40210D03*
X117203Y41427D03*
X119100Y12000D03*
X119600Y11850D03*
X119640Y30650D03*
Y30950D03*
X119890Y30050D03*
X120331Y29959D03*
X119640Y31250D03*
Y33000D03*
Y33300D03*
X119890Y32400D03*
X120331Y32309D03*
X120460Y31750D03*
X120190D03*
X119090Y31690D03*
X119640Y33600D03*
X120460Y34100D03*
X120190D03*
X119090Y34040D03*
X119771Y37360D03*
X119790Y35930D03*
X119300Y35980D03*
X120680Y38710D03*
Y38110D03*
X119750Y39530D03*
X119595Y38045D03*
X118865D03*
X119595Y38775D03*
X118865D03*
Y38410D03*
X119750Y40880D03*
X119180Y40860D03*
X132960Y8330D03*
X133215Y14455D03*
X132960Y29780D03*
X133215Y35905D03*
X135240Y8030D03*
X135840Y9280D03*
X135555Y9595D03*
Y11065D03*
X135840Y11480D03*
X135240Y29480D03*
X135555Y31045D03*
X135840Y30730D03*
X135555Y32515D03*
X135840Y32930D03*
X138040Y9280D03*
X137370Y11670D03*
X137710Y9930D03*
X136260Y9980D03*
X137710Y10780D03*
X136260D03*
X137010Y10380D03*
X138080Y11480D03*
X136770Y11720D03*
X138040Y30730D03*
X137370Y33120D03*
X137710Y31380D03*
X136260Y31430D03*
X137710Y32230D03*
X136260D03*
X137010Y31830D03*
X138080Y32930D03*
X136770Y33170D03*
X139760Y9180D03*
X140360D03*
X138425Y9945D03*
X138610Y10630D03*
X138425Y11025D03*
X139760Y30630D03*
X140360D03*
X138425Y31395D03*
X138610Y32080D03*
X138425Y32475D03*
X143110Y11830D03*
X142610Y11980D03*
X143110Y33280D03*
X142610Y33430D03*
G54D22*
X9950Y20726D03*
Y21474D03*
G54D40*
X38550Y7720D03*
X39050D03*
Y9680D03*
X38550D03*
X39550Y7720D03*
X40050D03*
Y9680D03*
X39550D03*
G54D13*
X1050Y22700D03*
Y23100D03*
X6225Y6675D03*
X6650Y6250D03*
X6650Y13860D03*
X6200Y14300D03*
X7900Y22100D03*
X8100Y21900D03*
X7400Y21400D03*
X7750D03*
X8600Y20650D03*
X8000D03*
X8250Y24700D03*
X8500D03*
X10609Y20259D03*
X9094Y20650D03*
X9980Y24050D03*
X9844Y25194D03*
X12938Y19438D03*
X12900Y18850D03*
X11550Y20350D03*
X11950D03*
X13050Y21400D03*
X12700D03*
X12650Y22150D03*
X12450Y21950D03*
X12300Y24700D03*
X12000D03*
X13847Y10450D03*
X15200Y11803D03*
X14850D03*
X13600Y19438D03*
X13500Y18850D03*
X13800Y23250D03*
X16400Y3600D03*
X16750D03*
Y4100D03*
Y9050D03*
X16400Y8550D03*
X16750D03*
X16450Y11800D03*
X16800Y13950D03*
Y14550D03*
Y15050D03*
X16250Y23250D03*
X18700Y1800D03*
X17650Y4900D03*
X17800Y7350D03*
X17700Y10000D03*
X17800Y13100D03*
X17700Y15850D03*
X21673Y21850D03*
X21650Y21500D03*
X20900Y21750D03*
X21371Y22600D03*
X21400Y23800D03*
X20900Y23550D03*
X22150Y3500D03*
Y4200D03*
Y8450D03*
Y9150D03*
X23050Y10800D03*
X23600D03*
X22200Y14450D03*
Y15150D03*
X23672Y22072D03*
X21950Y21500D03*
X23800Y20900D03*
X24950Y5100D03*
X24900Y4225D03*
X25600Y4650D03*
X26100D03*
X24112Y10788D03*
X24350Y13168D03*
X25850Y11850D03*
X25400D03*
X24400Y14650D03*
Y14100D03*
X25850Y15180D03*
Y15490D03*
X24400Y19211D03*
Y19700D03*
X24600Y20800D03*
X24627Y21850D03*
X24650Y21500D03*
X24350D03*
X24050Y20650D03*
X27100Y4300D03*
X26636Y10400D03*
X26300D03*
X27700Y12614D03*
X26675Y12125D03*
X26164Y12100D03*
X26800Y13956D03*
X26350D03*
X28000Y13950D03*
X26350Y16794D03*
X26800D03*
X28000Y16800D03*
X28600Y15700D03*
Y15040D03*
X28912Y15476D03*
X28667Y27400D03*
X32000Y1600D03*
Y4650D03*
Y5050D03*
X31850Y13250D03*
X31200D03*
X31950Y15750D03*
X30950Y14750D03*
X31500Y16800D03*
X31600Y17200D03*
X30928Y24561D03*
X31950Y26050D03*
X30900Y25350D03*
X30833Y27450D03*
X34000Y4650D03*
X34500D03*
X33014Y4200D03*
X34214Y9450D03*
X34550D03*
X33020Y8470D03*
X33050Y13256D03*
X33775D03*
Y15706D03*
X33300Y15700D03*
X34100Y14500D03*
X34382Y14465D03*
X34493Y17007D03*
X34500Y17350D03*
X33300Y24600D03*
X33950Y25750D03*
X33050Y27453D03*
X32700D03*
X34300Y27450D03*
X35386Y5100D03*
Y4264D03*
X35380Y8430D03*
X36617Y27400D03*
X37350Y2400D03*
X38878Y24561D03*
X38850Y25350D03*
X37250Y27800D03*
X37950D03*
X38783Y27450D03*
X40700Y3600D03*
X39840Y6650D03*
X39440Y5950D03*
X40036Y8936D03*
X39564Y10350D03*
X40890Y11680D03*
X40740Y13350D03*
X40890Y15460D03*
Y15150D03*
X39900Y26050D03*
X41000Y26800D03*
X41700Y1250D03*
X42500Y3950D03*
X42250Y3700D03*
X41450Y3900D03*
X41440Y6650D03*
Y6150D03*
Y5600D03*
X42950Y6500D03*
X42090Y8280D03*
X42440D03*
X42890Y7630D03*
X41600Y10600D03*
X41750Y11550D03*
X41600Y13750D03*
X42450Y13400D03*
X42850Y14914D03*
X42875Y15925D03*
X42750Y14350D03*
X41650Y16950D03*
X41250Y24600D03*
X41900Y25750D03*
X41600Y26800D03*
X43710Y9000D03*
X43800Y17350D03*
X45150Y27800D03*
X44517Y27400D03*
X46600Y3350D03*
Y3950D03*
X47010Y6520D03*
X47610Y7990D03*
X47300Y9350D03*
X46550Y17900D03*
X46778Y24561D03*
X47650Y23400D03*
X46750Y25350D03*
X45850Y27800D03*
X46683Y27450D03*
X49100Y2900D03*
X49080Y3190D03*
X49070Y4290D03*
X49270D03*
X48600Y6310D03*
X49700Y6300D03*
X48170Y7640D03*
X49150Y24600D03*
X48200Y23400D03*
X49150Y25050D03*
X49194Y26400D03*
X47800Y26050D03*
X50170Y7640D03*
X50820Y7740D03*
X50050Y22550D03*
Y23050D03*
X58075Y24125D03*
X58100Y23150D03*
X58050Y25750D03*
X58450Y26150D03*
X64400Y400D03*
X64750Y2400D03*
X64150Y16900D03*
X63100Y23150D03*
X63075Y24125D03*
X63050Y25750D03*
X63450Y26150D03*
X68100Y23150D03*
X68075Y24125D03*
X68050Y25750D03*
X68450Y26150D03*
X69106Y34594D03*
X68600Y34050D03*
X69050Y37350D03*
X69600Y1425D03*
X70800Y3200D03*
X71150Y4850D03*
X69600Y10850D03*
X70550Y28150D03*
X71400Y34050D03*
X70800D03*
X70400D03*
X69300Y37350D03*
X70644Y38094D03*
X71550Y3650D03*
X71650Y18000D03*
Y21400D03*
X73100Y23150D03*
X73075Y24125D03*
X73050Y25750D03*
X73450Y26150D03*
X73500Y34050D03*
X73044Y34544D03*
X73100Y37350D03*
X72800D03*
X71456Y38094D03*
X74950Y4050D03*
X75400Y14500D03*
Y17940D03*
X75494Y34550D03*
X74150Y34000D03*
X73850D03*
X73873Y34350D03*
X77540Y660D03*
X77800Y3000D03*
X75900Y1425D03*
X76676Y3274D03*
X77200Y3850D03*
X76750Y6700D03*
X77200Y9100D03*
X77800Y9700D03*
X77844Y34600D03*
Y33406D03*
X76500Y34000D03*
X76200D03*
X76223Y34350D03*
X78000Y2100D03*
X78850Y4900D03*
X79300Y10200D03*
X78500Y13900D03*
X78350Y14950D03*
X79300Y16350D03*
X78250Y18300D03*
X80800Y7374D03*
X81456Y34594D03*
X80950Y34050D03*
X81400Y37350D03*
X81650D03*
X83350Y9700D03*
X83750Y10200D03*
X82245Y12845D03*
X82750Y34050D03*
X83150D03*
X83750D03*
X83806Y38094D03*
X82994D03*
X84600Y8700D03*
X84450Y12250D03*
X85394Y34544D03*
X85850Y34050D03*
X86500Y34000D03*
X86200D03*
X86223Y34350D03*
X85450Y37350D03*
X85150D03*
X88550Y34000D03*
X88573Y34350D03*
X87844Y34550D03*
X88850Y34000D03*
X90194Y34600D03*
Y33406D03*
X94023Y8977D03*
X94750Y9350D03*
X94450Y13900D03*
Y14600D03*
X96300Y9350D03*
X98400Y31550D03*
X98550Y37750D03*
X102250Y23400D03*
X103800Y24497D03*
X106580Y6950D03*
X106686Y8110D03*
X106376D03*
X107000Y8150D03*
X107080Y9330D03*
X107700Y24497D03*
X106150Y23400D03*
X107820Y32560D03*
Y32250D03*
X107720Y38500D03*
Y38810D03*
X109460Y7600D03*
X109780D03*
X109050Y8944D03*
X109344D03*
X108950Y31480D03*
X109350Y31550D03*
X109250Y37800D03*
X108850Y37730D03*
X111650Y23150D03*
X111625Y24125D03*
X112000Y26150D03*
X111600Y25750D03*
X115400Y23200D03*
X115375Y24175D03*
X115750Y26200D03*
X115350Y25800D03*
X116336Y37016D03*
Y38660D03*
Y38260D03*
Y39804D03*
X116896Y30806D03*
X118090D03*
X118040Y33156D03*
X117840Y32427D03*
X117490Y32450D03*
Y32150D03*
X119824Y12150D03*
X119930Y13450D03*
X119930Y13800D03*
X119100Y23200D03*
X119075Y24175D03*
X119450Y26200D03*
X119050Y25800D03*
X122950Y23200D03*
X122925Y24175D03*
X122900Y25800D03*
X123300Y26200D03*
X130090Y6930D03*
X130196Y8090D03*
X129886D03*
X130510Y8130D03*
X130590Y9310D03*
X130090Y28380D03*
X130196Y29540D03*
X129886D03*
X130510Y29580D03*
X130590Y30760D03*
X132560Y8924D03*
X132854D03*
X132970Y7580D03*
X133290D03*
X132970Y29030D03*
X133290D03*
X132560Y30374D03*
X132854D03*
X143440Y13430D03*
X143440Y13780D03*
X143334Y12130D03*
X143440Y34880D03*
X143440Y35230D03*
X143334Y33580D03*
G54D31*
X19700Y22550D03*
X20900D03*
G54D32*
X20820Y2015D03*
Y2605D03*
X20770Y5265D03*
Y5855D03*
X20820Y6965D03*
Y7555D03*
X20770Y10805D03*
Y10215D03*
X20870Y12965D03*
Y13555D03*
X20820Y16805D03*
Y16215D03*
G54D41*
X39390Y12217D03*
X39890D03*
X40390D03*
X40890D03*
Y14343D03*
X40390D03*
X39890D03*
X39390D03*
X41390Y12217D03*
X41890D03*
X42390D03*
Y14343D03*
X41890D03*
X41390D03*
G54D14*
X2000Y30500D03*
Y40500D03*
X4340Y1200D03*
Y26000D03*
X25836Y2184D03*
Y24448D03*
X32500Y11600D03*
X50150Y1181D03*
Y11600D03*
Y27350D03*
X54250Y1181D03*
Y19619D03*
X60500Y11600D03*
X65000Y30500D03*
Y40500D03*
X81500Y1181D03*
Y19619D03*
X98500Y1181D03*
Y19619D03*
X104980Y1181D03*
Y19619D03*
X121980Y1181D03*
Y19619D03*
X128490Y1161D03*
Y19599D03*
Y22611D03*
Y41049D03*
X145490Y1161D03*
Y19599D03*
Y22611D03*
Y41049D03*
G54D23*
X10250Y23100D03*
X49170Y5290D03*
G54D24*
X14126Y10897D03*
X14874D03*
X14500Y11803D03*
X31976Y26547D03*
X32350Y27453D03*
X32724Y26547D03*
X43276Y11547D03*
X44024D03*
X43650Y12453D03*
G54D33*
X22850Y19900D03*
G54D42*
X43633Y1400D03*
X45011D03*
X47767D03*
X46389D03*
G54D15*
X2300Y35110D03*
Y36300D03*
X8850Y4450D03*
X8550Y16800D03*
X10700Y10300D03*
X12450Y22950D03*
X26350Y27500D03*
X27700D03*
X33700Y2200D03*
X49600Y9500D03*
X48450D03*
X48100Y11650D03*
X50800Y9500D03*
X71400Y32050D03*
Y40300D03*
X72400Y31050D03*
X73400D03*
X72400Y32050D03*
X73400D03*
X72400Y39300D03*
X73400D03*
X72400Y40300D03*
X73400D03*
X75700Y24800D03*
X74400Y31050D03*
X75400D03*
X74400Y32050D03*
X75400D03*
X74400Y39300D03*
X75400D03*
X74400Y40300D03*
X75400D03*
X76980Y24830D03*
X76400Y31050D03*
Y32050D03*
Y39300D03*
Y40300D03*
X83750Y32050D03*
Y40300D03*
X84950Y26500D03*
X85950Y25500D03*
Y26500D03*
X84750Y31050D03*
X85750D03*
X86750D03*
X84750Y32050D03*
X85750D03*
X86750D03*
X84750Y39300D03*
X85750D03*
X86750D03*
X84750Y40300D03*
X85750D03*
X86750D03*
X86950Y25500D03*
Y26500D03*
X87950Y25500D03*
Y26500D03*
X87750Y31050D03*
X88750D03*
X87750Y32050D03*
X88750D03*
X87750Y39300D03*
X88750D03*
X87750Y40300D03*
X88750D03*
X89800Y26500D03*
X90800Y25500D03*
Y26500D03*
X91800Y25500D03*
Y26500D03*
X92800Y25500D03*
Y26500D03*
X94500D03*
X93750Y30850D03*
X94750D03*
X93750Y32850D03*
X94750D03*
X93750Y31850D03*
X94750D03*
Y33850D03*
X93900Y37050D03*
X94900D03*
Y40050D03*
X93900Y39050D03*
X94900D03*
X93900Y38050D03*
X94900D03*
X95500Y25500D03*
Y26500D03*
X96500Y25500D03*
Y26500D03*
X104000Y37150D03*
Y39150D03*
Y38150D03*
X104100Y30900D03*
X105100D03*
X104100Y32900D03*
X105100D03*
X104100Y31900D03*
X105100D03*
Y33900D03*
X105000Y37150D03*
Y39150D03*
Y38150D03*
Y40150D03*
X114000Y33280D03*
Y32280D03*
Y35280D03*
Y34280D03*
Y36280D03*
X115000Y33280D03*
Y32280D03*
Y35280D03*
Y34280D03*
Y37280D03*
Y36280D03*
X122790Y33250D03*
Y32250D03*
Y35250D03*
Y34250D03*
Y36250D03*
X123790Y33250D03*
Y32250D03*
Y35250D03*
Y34250D03*
Y37250D03*
Y36250D03*
G54D25*
X14429Y23250D03*
X15571D03*
X20871Y24100D03*
X19729D03*
X20871Y24950D03*
X19729D03*
G54D34*
X22240Y20200D03*
Y20000D03*
Y19800D03*
Y19600D03*
X23460D03*
Y19800D03*
Y20000D03*
Y20200D03*
G54D43*
X41450Y5233D03*
X41709Y4367D03*
X41450D03*
X41191D03*
Y5233D03*
X41709D03*
G54D16*
X6500Y33050D03*
Y32550D03*
Y38550D03*
Y38050D03*
X8500Y33050D03*
Y32550D03*
X8000Y33050D03*
Y32550D03*
X7500Y33050D03*
Y32550D03*
X7000Y33050D03*
Y32550D03*
X8500Y38550D03*
Y38050D03*
X8000Y38550D03*
Y38050D03*
X7500Y38550D03*
Y38050D03*
X7000Y38550D03*
Y38050D03*
X11000Y33050D03*
Y32550D03*
X10500Y33050D03*
Y32550D03*
X10000Y33050D03*
Y32550D03*
X9500Y33050D03*
Y32550D03*
X9000Y33050D03*
Y32550D03*
X11000Y38550D03*
Y38050D03*
X10500Y38550D03*
Y38050D03*
X10000Y38550D03*
Y38050D03*
X9500Y38550D03*
Y38050D03*
X9000Y38550D03*
Y38050D03*
X13000Y33050D03*
Y32550D03*
X12500Y33050D03*
Y32550D03*
X12000Y33050D03*
Y32550D03*
X11500Y33050D03*
Y32550D03*
X13000Y38550D03*
Y38050D03*
X12500Y38550D03*
Y38050D03*
X12000Y38550D03*
Y38050D03*
X11500Y38550D03*
Y38050D03*
X15000Y33050D03*
Y32550D03*
X14500Y33050D03*
Y32550D03*
X14000Y33050D03*
Y32550D03*
X13500Y33050D03*
Y32550D03*
X15000Y38550D03*
Y38050D03*
X14500Y38550D03*
Y38050D03*
X14000Y38550D03*
Y38050D03*
X13500Y38550D03*
Y38050D03*
X17500Y33050D03*
Y32550D03*
X17000Y33050D03*
Y32550D03*
X16500Y33050D03*
Y32550D03*
X16000Y33050D03*
Y32550D03*
X15500Y33050D03*
Y32550D03*
X17500Y38550D03*
Y38050D03*
X17000Y38550D03*
Y38050D03*
X16500Y38550D03*
Y38050D03*
X16000Y38550D03*
Y38050D03*
X15500Y38550D03*
Y38050D03*
X18500Y33050D03*
Y32550D03*
X18000Y33050D03*
Y32550D03*
X18500Y38550D03*
Y38050D03*
X18000Y38550D03*
Y38050D03*
X25050Y27580D03*
X26000Y33050D03*
Y32550D03*
X25500Y33050D03*
Y32550D03*
X26000Y38550D03*
Y38050D03*
X25500Y38550D03*
Y38050D03*
X28000Y33050D03*
Y32550D03*
X27500Y33050D03*
Y32550D03*
X27000Y33050D03*
Y32550D03*
X26500Y33050D03*
Y32550D03*
X28000Y38550D03*
Y38050D03*
X27500Y38550D03*
Y38050D03*
X27000Y38550D03*
Y38050D03*
X26500Y38550D03*
Y38050D03*
X30250Y4350D03*
X29750D03*
X30250Y4850D03*
X29750D03*
X30250Y5350D03*
X29750D03*
X30250Y5850D03*
X29750D03*
X30250Y6350D03*
X29750D03*
X30250Y6850D03*
X29750D03*
X30250Y7350D03*
X29750D03*
X30250Y7850D03*
X29750D03*
X30250Y8350D03*
X29750D03*
X30250Y8850D03*
X29750D03*
X30250Y9350D03*
X29750D03*
X30250Y9850D03*
X29750D03*
X30250Y10350D03*
X29750D03*
X30250Y10850D03*
X29750D03*
X30250Y11350D03*
X29750D03*
X30250Y11850D03*
X29750D03*
X30250Y12350D03*
X29750D03*
X30250Y12850D03*
X29750D03*
X30250Y13350D03*
X29750D03*
X30250Y13850D03*
X29750D03*
X30250Y14350D03*
X29750D03*
X30250Y14850D03*
X29750D03*
X30250Y15350D03*
X29750D03*
X30250Y15850D03*
X29750D03*
X30250Y16350D03*
X29750D03*
X30500Y33050D03*
Y32550D03*
X30000Y33050D03*
Y32550D03*
X29500Y33050D03*
Y32550D03*
X29000Y33050D03*
Y32550D03*
X28500Y33050D03*
Y32550D03*
X30500Y38550D03*
Y38050D03*
X30000Y38550D03*
Y38050D03*
X29500Y38550D03*
Y38050D03*
X29000Y38550D03*
Y38050D03*
X28500Y38550D03*
Y38050D03*
X32500Y33050D03*
Y32550D03*
X32000Y33050D03*
Y32550D03*
X31500Y33050D03*
Y32550D03*
X31000Y33050D03*
Y32550D03*
X32500Y38550D03*
Y38050D03*
X32000Y38550D03*
Y38050D03*
X31500Y38550D03*
Y38050D03*
X31000Y38550D03*
Y38050D03*
X34500Y33050D03*
Y32550D03*
X34000Y33050D03*
Y32550D03*
X33500Y33050D03*
Y32550D03*
X33000Y33050D03*
Y32550D03*
X34500Y38550D03*
Y38050D03*
X34000Y38550D03*
Y38050D03*
X33500Y38550D03*
Y38050D03*
X33000Y38550D03*
Y38050D03*
X34980Y27350D03*
X37000Y33050D03*
Y32550D03*
X36500Y33050D03*
Y32550D03*
X36000Y33050D03*
Y32550D03*
X35500Y33050D03*
Y32550D03*
X35000Y33050D03*
Y32550D03*
X37000Y38550D03*
Y38050D03*
X36500Y38550D03*
Y38050D03*
X36000Y38550D03*
Y38050D03*
X35500Y38550D03*
Y38050D03*
X35000Y38550D03*
Y38050D03*
X37750Y4350D03*
X37250D03*
X37750Y4850D03*
X37250D03*
X37750Y5350D03*
X37250D03*
X37750Y5850D03*
X37250D03*
X37750Y6350D03*
X37250D03*
X37750Y6850D03*
X37250D03*
X37750Y7350D03*
X37250D03*
X37750Y7850D03*
X37250D03*
X37750Y8350D03*
X37250D03*
X37750Y8850D03*
X37250D03*
X37750Y9350D03*
X37250D03*
X37750Y9850D03*
X37250D03*
X37750Y10350D03*
X37250D03*
X37750Y10850D03*
X37250D03*
X37750Y11350D03*
X37250D03*
X37750Y11850D03*
X37250D03*
X37750Y12350D03*
X37250D03*
X37750Y12850D03*
X37250D03*
X37750Y13350D03*
X37250D03*
X37750Y13850D03*
X37250D03*
X37750Y14350D03*
X37250D03*
X37750Y14850D03*
X37250D03*
X37750Y15350D03*
X37250D03*
X37750Y15850D03*
X37250D03*
X37750Y16350D03*
X37250D03*
X37500Y33050D03*
Y32550D03*
Y38550D03*
Y38050D03*
X40700Y8800D03*
X42300Y10550D03*
X42850Y27430D03*
X45250Y4350D03*
X44750D03*
X45250Y4850D03*
X44750D03*
X45250Y5350D03*
X44750D03*
X45250Y5850D03*
X44750D03*
X45250Y6350D03*
X44750D03*
X45250Y6850D03*
X44750D03*
X45250Y7350D03*
X44750D03*
X45250Y7850D03*
X44750D03*
X45250Y8350D03*
X44750D03*
X45250Y8850D03*
X44750D03*
X45250Y9350D03*
X44750D03*
X45250Y9850D03*
X44750D03*
X45250Y10350D03*
X44750D03*
X45250Y10850D03*
X44750D03*
X45250Y11350D03*
X44750D03*
X45250Y11850D03*
X44750D03*
X45250Y12350D03*
X44750D03*
X45250Y12850D03*
X44750D03*
X45250Y13350D03*
X44750D03*
X45250Y13850D03*
X44750D03*
X45250Y14350D03*
X44750D03*
X45250Y14850D03*
X44750D03*
X45250Y15350D03*
X44750D03*
X45250Y15850D03*
X44750D03*
X45250Y16350D03*
X44750D03*
X45500Y33050D03*
Y32550D03*
X45000Y33050D03*
Y32550D03*
X44500Y33050D03*
Y32550D03*
X45500Y38550D03*
Y38050D03*
X45000Y38550D03*
Y38050D03*
X44500Y38550D03*
Y38050D03*
X47500Y33050D03*
Y32550D03*
X47000Y33050D03*
Y32550D03*
X46500Y33050D03*
Y32550D03*
X46000Y33050D03*
Y32550D03*
X47500Y38550D03*
Y38050D03*
X47000Y38550D03*
Y38050D03*
X46500Y38550D03*
Y38050D03*
X46000Y38550D03*
Y38050D03*
X49950Y16050D03*
X49450D03*
X49950Y15550D03*
X49450D03*
X49950Y15050D03*
X49450D03*
X49950Y14550D03*
X49450D03*
X49950Y18050D03*
X49450D03*
X49950Y17550D03*
X49450D03*
X49950Y17050D03*
X49450D03*
X49950Y16550D03*
X49450D03*
X49950Y19050D03*
X49450D03*
X49950Y18550D03*
X49450D03*
X49500Y33050D03*
Y32550D03*
X49000Y33050D03*
Y32550D03*
X48500Y33050D03*
Y32550D03*
X48000Y33050D03*
Y32550D03*
X49500Y38550D03*
Y38050D03*
X49000Y38550D03*
Y38050D03*
X48500Y38550D03*
Y38050D03*
X48000Y38550D03*
Y38050D03*
X52000Y33050D03*
Y32550D03*
X51500Y33050D03*
Y32550D03*
X51000Y33050D03*
Y32550D03*
X50500Y33050D03*
Y32550D03*
X50000Y33050D03*
Y32550D03*
X52000Y38550D03*
Y38050D03*
X51500Y38550D03*
Y38050D03*
X51000Y38550D03*
Y38050D03*
X50500Y38550D03*
Y38050D03*
X50000Y38550D03*
Y38050D03*
X54000Y33050D03*
Y32550D03*
X53500Y33050D03*
Y32550D03*
X53000Y33050D03*
Y32550D03*
X52500Y33050D03*
Y32550D03*
X54000Y38550D03*
Y38050D03*
X53500Y38550D03*
Y38050D03*
X53000Y38550D03*
Y38050D03*
X52500Y38550D03*
Y38050D03*
X56000Y33050D03*
Y32550D03*
X55500Y33050D03*
Y32550D03*
X55000Y33050D03*
Y32550D03*
X54500Y33050D03*
Y32550D03*
X56000Y38550D03*
Y38050D03*
X55500Y38550D03*
Y38050D03*
X55000Y38550D03*
Y38050D03*
X54500Y38550D03*
Y38050D03*
X58250Y4350D03*
X57750D03*
X58250Y4850D03*
X57750D03*
X58250Y5350D03*
X57750D03*
X58250Y5850D03*
X57750D03*
X58250Y6350D03*
X57750D03*
X58250Y6850D03*
X57750D03*
X58250Y7350D03*
X57750D03*
X58250Y7850D03*
X57750D03*
X58250Y8350D03*
X57750D03*
X58250Y8850D03*
X57750D03*
X58250Y9350D03*
X57750D03*
X58250Y9850D03*
X57750D03*
X58250Y10350D03*
X57750D03*
X58250Y10850D03*
X57750D03*
X58250Y11350D03*
X57750D03*
X58250Y11850D03*
X57750D03*
X58250Y12350D03*
X57750D03*
X58250Y12850D03*
X57750D03*
X58250Y13350D03*
X57750D03*
X58250Y13850D03*
X57750D03*
X58250Y14350D03*
X57750D03*
X58250Y14850D03*
X57750D03*
X58250Y15350D03*
X57750D03*
X58250Y15850D03*
X57750D03*
X58250Y16350D03*
X57750D03*
X56500Y33050D03*
Y32550D03*
Y38550D03*
Y38050D03*
X65750Y4350D03*
X65250D03*
X65750Y4850D03*
X65250D03*
X65750Y5350D03*
X65250D03*
X65750Y5850D03*
X65250D03*
X65750Y6350D03*
X65250D03*
X65750Y6850D03*
X65250D03*
X65750Y7350D03*
X65250D03*
X65750Y7850D03*
X65250D03*
X65750Y8350D03*
X65250D03*
X65750Y8850D03*
X65250D03*
X65750Y9350D03*
X65250D03*
X65750Y9850D03*
X65250D03*
X65750Y10350D03*
X65250D03*
X65750Y10850D03*
X65250D03*
X65750Y11350D03*
X65250D03*
X65750Y11850D03*
X65250D03*
X65750Y12350D03*
X65250D03*
X65750Y12850D03*
X65250D03*
X65750Y13350D03*
X65250D03*
X65750Y13850D03*
X65250D03*
X65750Y14350D03*
X65250D03*
X65750Y14850D03*
X65250D03*
X65750Y15350D03*
X65250D03*
X65750Y15850D03*
X65250D03*
X65750Y16350D03*
X65250D03*
X73250Y4350D03*
X72750D03*
X73250Y4850D03*
X72750D03*
X73250Y5350D03*
X72750D03*
X73250Y5850D03*
X72750D03*
X73250Y6350D03*
X72750D03*
X73250Y6850D03*
X72750D03*
X73250Y7350D03*
X72750D03*
X73250Y7850D03*
X72750D03*
X73250Y8350D03*
X72750D03*
X73250Y8850D03*
X72750D03*
X73250Y9350D03*
X72750D03*
X73250Y9850D03*
X72750D03*
X73250Y10350D03*
X72750D03*
X73250Y10850D03*
X72750D03*
X73250Y11350D03*
X72750D03*
X73250Y11850D03*
X72750D03*
X73250Y12350D03*
X72750D03*
X73250Y12850D03*
X72750D03*
X73250Y13350D03*
X72750D03*
X73250Y13850D03*
X72750D03*
X73250Y14350D03*
X72750D03*
X73250Y14850D03*
X72750D03*
X73250Y15350D03*
X72750D03*
X73250Y15850D03*
X72750D03*
X73250Y16350D03*
X72750D03*
X105980Y4500D03*
Y5000D03*
X105480Y4500D03*
Y5000D03*
X104980Y4500D03*
Y5000D03*
X105980Y15800D03*
X105480D03*
X104980D03*
X105980Y16300D03*
X105480D03*
X104980D03*
X107980Y4500D03*
Y5000D03*
X107480Y4500D03*
Y5000D03*
X106980Y4500D03*
Y5000D03*
X106480Y4500D03*
Y5000D03*
X107980Y15800D03*
X107480D03*
X106980D03*
X106480D03*
X107980Y16300D03*
X107480D03*
X106980D03*
X106480D03*
X109980Y4500D03*
Y5000D03*
X109480Y4500D03*
Y5000D03*
X108980Y4500D03*
Y5000D03*
X108480Y4500D03*
Y5000D03*
X109980Y15800D03*
X109480D03*
X108980D03*
X108480D03*
X109980Y16300D03*
X109480D03*
X108980D03*
X108480D03*
X112480Y4500D03*
Y5000D03*
X111980Y4500D03*
Y5000D03*
X111480Y4500D03*
Y5000D03*
X110980Y4500D03*
Y5000D03*
X110480Y4500D03*
Y5000D03*
X112480Y15800D03*
X111980D03*
X111480D03*
X110980D03*
X110480D03*
X112480Y16300D03*
X111980D03*
X111480D03*
X110980D03*
X110480D03*
X114480Y4500D03*
Y5000D03*
X113980Y4500D03*
Y5000D03*
X113480Y4500D03*
Y5000D03*
X112980Y4500D03*
Y5000D03*
X114480Y15800D03*
X113980D03*
X113480D03*
X112980D03*
X114480Y16300D03*
X113980D03*
X113480D03*
X112980D03*
X116480Y4500D03*
Y5000D03*
X115980Y4500D03*
Y5000D03*
X115480Y4500D03*
Y5000D03*
X114980Y4500D03*
Y5000D03*
X116480Y15800D03*
X115980D03*
X115480D03*
X114980D03*
X116480Y16300D03*
X115980D03*
X115480D03*
X114980D03*
X118480Y4500D03*
Y5000D03*
X117980Y4500D03*
Y5000D03*
X117480Y4500D03*
Y5000D03*
X116980Y4500D03*
Y5000D03*
X118480Y15800D03*
X117980D03*
X117480D03*
X116980D03*
X118480Y16300D03*
X117980D03*
X117480D03*
X116980D03*
X120980Y4500D03*
Y5000D03*
X120480Y4500D03*
Y5000D03*
X119980Y4500D03*
Y5000D03*
X119480Y4500D03*
Y5000D03*
X118980Y4500D03*
Y5000D03*
X120980Y15800D03*
X120480D03*
X119980D03*
X119480D03*
X118980D03*
X120980Y16300D03*
X120480D03*
X119980D03*
X119480D03*
X118980D03*
X121980Y4500D03*
Y5000D03*
X121480Y4500D03*
Y5000D03*
X121980Y15800D03*
X121480D03*
X121980Y16300D03*
X121480D03*
X129490Y4480D03*
Y4980D03*
X128990Y4480D03*
Y4980D03*
X128490Y4480D03*
Y4980D03*
X129490Y15780D03*
X128990D03*
X128490D03*
X129490Y16280D03*
X128990D03*
X128490D03*
X129490Y25930D03*
Y26430D03*
X128990Y25930D03*
Y26430D03*
X128490Y25930D03*
Y26430D03*
X129490Y37230D03*
Y37730D03*
X128990Y37230D03*
Y37730D03*
X128490Y37230D03*
Y37730D03*
X131490Y4480D03*
Y4980D03*
X130990Y4480D03*
Y4980D03*
X130490Y4480D03*
Y4980D03*
X129990Y4480D03*
Y4980D03*
X131490Y15780D03*
X130990D03*
X130490D03*
X129990D03*
X131490Y16280D03*
X130990D03*
X130490D03*
X129990D03*
X131490Y25930D03*
Y26430D03*
X130990Y25930D03*
Y26430D03*
X130490Y25930D03*
Y26430D03*
X129990Y25930D03*
Y26430D03*
X131490Y37230D03*
Y37730D03*
X130990Y37230D03*
Y37730D03*
X130490Y37230D03*
Y37730D03*
X129990Y37230D03*
Y37730D03*
X133990Y4480D03*
Y4980D03*
X133490Y4480D03*
Y4980D03*
X132990Y4480D03*
Y4980D03*
X132490Y4480D03*
Y4980D03*
X131990Y4480D03*
Y4980D03*
X133990Y15780D03*
X133490D03*
X132990D03*
X132490D03*
X131990D03*
X133990Y16280D03*
X133490D03*
X132990D03*
X132490D03*
X131990D03*
X133990Y25930D03*
Y26430D03*
X133490Y25930D03*
Y26430D03*
X132990Y25930D03*
Y26430D03*
X132490Y25930D03*
Y26430D03*
X131990Y25930D03*
Y26430D03*
X133990Y37230D03*
Y37730D03*
X133490Y37230D03*
Y37730D03*
X132990Y37230D03*
Y37730D03*
X132490Y37230D03*
Y37730D03*
X131990Y37230D03*
Y37730D03*
X135990Y4480D03*
Y4980D03*
X135490Y4480D03*
Y4980D03*
X134990Y4480D03*
Y4980D03*
X134490Y4480D03*
Y4980D03*
X135990Y15780D03*
X135490D03*
X134990D03*
X134490D03*
X135990Y16280D03*
X135490D03*
X134990D03*
X134490D03*
X135990Y25930D03*
Y26430D03*
X135490Y25930D03*
Y26430D03*
X134990Y25930D03*
Y26430D03*
X134490Y25930D03*
Y26430D03*
X135990Y37230D03*
Y37730D03*
X135490Y37230D03*
Y37730D03*
X134990Y37230D03*
Y37730D03*
X134490Y37230D03*
Y37730D03*
X137990Y4480D03*
Y4980D03*
X137490Y4480D03*
Y4980D03*
X136990Y4480D03*
Y4980D03*
X136490Y4480D03*
Y4980D03*
X137990Y15780D03*
X137490D03*
X136990D03*
X136490D03*
X137990Y16280D03*
X137490D03*
X136990D03*
X136490D03*
X137990Y25930D03*
Y26430D03*
X137490Y25930D03*
Y26430D03*
X136990Y25930D03*
Y26430D03*
X136490Y25930D03*
Y26430D03*
X137990Y37230D03*
Y37730D03*
X137490Y37230D03*
Y37730D03*
X136990Y37230D03*
Y37730D03*
X136490Y37230D03*
Y37730D03*
X140490Y4480D03*
Y4980D03*
X139990Y4480D03*
Y4980D03*
X139490Y4480D03*
Y4980D03*
X138990Y4480D03*
Y4980D03*
X138490Y4480D03*
Y4980D03*
X140490Y15780D03*
X139990D03*
X139490D03*
X138990D03*
X138490D03*
X140490Y16280D03*
X139990D03*
X139490D03*
X138990D03*
X138490D03*
X140490Y25930D03*
Y26430D03*
X139990Y25930D03*
Y26430D03*
X139490Y25930D03*
Y26430D03*
X138990Y25930D03*
Y26430D03*
X138490Y25930D03*
Y26430D03*
X140490Y37230D03*
Y37730D03*
X139990Y37230D03*
Y37730D03*
X139490Y37230D03*
Y37730D03*
X138990Y37230D03*
Y37730D03*
X138490Y37230D03*
Y37730D03*
X142490Y4480D03*
Y4980D03*
X141990Y4480D03*
Y4980D03*
X141490Y4480D03*
Y4980D03*
X140990Y4480D03*
Y4980D03*
X142490Y15780D03*
X141990D03*
X141490D03*
X140990D03*
X142490Y16280D03*
X141990D03*
X141490D03*
X140990D03*
X142490Y25930D03*
Y26430D03*
X141990Y25930D03*
Y26430D03*
X141490Y25930D03*
Y26430D03*
X140990Y25930D03*
Y26430D03*
X142490Y37230D03*
Y37730D03*
X141990Y37230D03*
Y37730D03*
X141490Y37230D03*
Y37730D03*
X140990Y37230D03*
Y37730D03*
X144490Y4480D03*
Y4980D03*
X143990Y4480D03*
Y4980D03*
X143490Y4480D03*
Y4980D03*
X142990Y4480D03*
Y4980D03*
X144490Y15780D03*
X143990D03*
X143490D03*
X142990D03*
X144490Y16280D03*
X143990D03*
X143490D03*
X142990D03*
X144490Y25930D03*
Y26430D03*
X143990Y25930D03*
Y26430D03*
X143490Y25930D03*
Y26430D03*
X142990Y25930D03*
Y26430D03*
X144490Y37230D03*
Y37730D03*
X143990Y37230D03*
Y37730D03*
X143490Y37230D03*
Y37730D03*
X142990Y37230D03*
Y37730D03*
X145490Y4480D03*
Y4980D03*
X144990Y4480D03*
Y4980D03*
X145490Y15780D03*
X144990D03*
X145490Y16280D03*
X144990D03*
X145490Y25930D03*
Y26430D03*
X144990Y25930D03*
Y26430D03*
X145490Y37230D03*
Y37730D03*
X144990Y37230D03*
Y37730D03*
G54D17*
X8523Y20250D03*
X8877D03*
X8973Y24100D03*
X9327D03*
X13023Y10450D03*
X11477Y24100D03*
X11123D03*
X13273Y10900D03*
X13627D03*
X13377Y10450D03*
X18023Y4900D03*
X18377D03*
Y5250D03*
X18023D03*
X18427Y10500D03*
X18073D03*
Y10150D03*
X18427D03*
X18277Y16600D03*
X17923D03*
Y16200D03*
X18277D03*
X23023Y22550D03*
X23377D03*
X23727Y24800D03*
X23373D03*
X23023Y25750D03*
X23377D03*
X24627Y22200D03*
X24273D03*
X27623Y14400D03*
X27977D03*
X27723Y15450D03*
X28077D03*
X27527Y20700D03*
X27173D03*
X31277Y4300D03*
X30923D03*
X32127Y14250D03*
X31773D03*
X32227Y15300D03*
X31873D03*
X31073Y24950D03*
X31427D03*
X39777Y4150D03*
X39423D03*
X39373Y5400D03*
X39727D03*
X49433Y4320D03*
X48893Y6990D03*
X49247D03*
X49643D03*
X49787Y4320D03*
X49997Y6990D03*
X70223Y36700D03*
X70577D03*
X71827D03*
X71473D03*
X84177D03*
X83823D03*
X82573D03*
X82927D03*
X102623Y23450D03*
X102977D03*
X103923Y23550D03*
X104277D03*
X107823D03*
X106523Y23450D03*
X106877D03*
X108177Y23550D03*
G54D26*
X17459Y4300D03*
Y9250D03*
X18141Y4300D03*
Y9250D03*
X17509Y15250D03*
X18191D03*
X21441Y3450D03*
X20759D03*
X21441Y8400D03*
X20759D03*
X21491Y14400D03*
X20809D03*
X22159Y24800D03*
X22841D03*
X57741Y23150D03*
X57059D03*
X58459D03*
X59141D03*
X62741D03*
X62059D03*
X63459D03*
X64141D03*
X67059D03*
X67741D03*
X68459D03*
X69141D03*
X72741D03*
X72059D03*
X73459D03*
X74141D03*
X99159Y32750D03*
X99309Y38950D03*
X99841Y32750D03*
X99991Y38950D03*
X102559Y23900D03*
X103241D03*
Y24500D03*
X102559D03*
X104991D03*
X104309D03*
X106459Y23900D03*
X107141D03*
Y24500D03*
X106459D03*
X108891D03*
X108209D03*
X110041Y32800D03*
X109359D03*
X109941Y39050D03*
X109259D03*
X111291Y23150D03*
X110609D03*
X112009D03*
X114359Y23200D03*
X112691Y23150D03*
X115041Y23200D03*
X115759D03*
X116441D03*
X118741D03*
X118059D03*
X119459D03*
X120141D03*
X122591D03*
X121909D03*
X123309D03*
X123991D03*
G54D35*
X22550Y19290D03*
X22750D03*
X22950D03*
X23150D03*
Y20510D03*
X22950D03*
X22750D03*
X22550D03*
G54D44*
X41970Y9400D03*
Y10160D03*
Y9910D03*
Y9650D03*
X43710Y9400D03*
Y9650D03*
Y9910D03*
Y10160D03*
G54D27*
X15700Y11694D03*
Y10906D03*
X22150Y2794D03*
Y2006D03*
Y5056D03*
Y5844D03*
Y6956D03*
Y7744D03*
Y10006D03*
Y10794D03*
X22200Y13744D03*
Y12956D03*
Y16006D03*
Y16794D03*
X25600Y13956D03*
Y14744D03*
X34250Y14956D03*
Y15744D03*
X33550Y26556D03*
Y27344D03*
G54D18*
X8600Y22073D03*
Y22427D03*
Y24027D03*
Y23673D03*
X11850Y22073D03*
Y22427D03*
Y24027D03*
Y23673D03*
X18350Y2577D03*
Y2223D03*
X18700D03*
Y2577D03*
X18500Y7273D03*
X18150D03*
X18500Y7627D03*
X18150D03*
Y13777D03*
Y13423D03*
X17800D03*
Y13777D03*
X21050Y19423D03*
Y19777D03*
X23950Y5927D03*
Y5573D03*
X28450Y14377D03*
Y14023D03*
X30250Y20677D03*
Y20323D03*
X31800Y5373D03*
Y5727D03*
X31500Y15323D03*
Y15677D03*
X31400Y26027D03*
Y25673D03*
X40690Y4977D03*
Y4623D03*
X40700Y4277D03*
Y3923D03*
X39350Y4977D03*
Y4623D03*
X40700Y5677D03*
Y5323D03*
X49270Y6263D03*
Y6617D03*
X50370Y4063D03*
Y4417D03*
X50420Y6567D03*
Y6213D03*
X50820Y7063D03*
Y7417D03*
X57050Y23977D03*
Y23623D03*
X59100Y23977D03*
Y23623D03*
X62050Y23977D03*
Y23623D03*
X64100Y23977D03*
Y23623D03*
X67050Y23977D03*
Y23623D03*
X69100Y23977D03*
Y23623D03*
X72050Y23977D03*
Y23623D03*
X74100Y23977D03*
Y23623D03*
X110600Y23977D03*
Y23623D03*
X114350Y24027D03*
Y23673D03*
X112650Y23977D03*
Y23623D03*
X116400Y24027D03*
Y23673D03*
X118050Y24027D03*
Y23673D03*
X120100Y24027D03*
Y23673D03*
X120360Y37723D03*
Y38077D03*
X120350Y39097D03*
Y38743D03*
X121900Y24027D03*
Y23673D03*
X123950Y24027D03*
Y23673D03*
G54D36*
X24720Y7440D03*
Y7180D03*
Y6930D03*
Y6670D03*
Y6420D03*
Y6160D03*
Y5900D03*
Y5650D03*
Y5390D03*
Y8210D03*
Y7950D03*
Y7700D03*
X27080Y5390D03*
Y5650D03*
Y5900D03*
Y6160D03*
Y6420D03*
Y6670D03*
Y6930D03*
Y7180D03*
Y7440D03*
Y7700D03*
Y7950D03*
Y8210D03*
X33020Y7440D03*
Y7180D03*
Y6930D03*
Y6670D03*
Y6420D03*
Y6160D03*
Y5900D03*
Y5650D03*
Y5390D03*
Y8210D03*
Y7950D03*
Y7700D03*
X35380Y5390D03*
Y5650D03*
Y5900D03*
Y6160D03*
Y6420D03*
Y6670D03*
Y6930D03*
Y7180D03*
Y7440D03*
Y7700D03*
Y7950D03*
Y8210D03*
G54D45*
X71400Y31050D03*
Y39300D03*
X83750Y31050D03*
Y39300D03*
X84950Y25500D03*
X89800D03*
X94500D03*
X93750Y33850D03*
X93900Y40050D03*
X104100Y33900D03*
X104000Y40150D03*
X114000Y37280D03*
X122790Y37250D03*
G54D19*
X8256Y21400D03*
X9044D03*
X10656Y24700D03*
X9056D03*
X9844D03*
X12194Y21400D03*
X11406D03*
X11444Y24700D03*
X15044Y6600D03*
X14256D03*
X15044Y14550D03*
X14256D03*
X17356Y3600D03*
Y8550D03*
X17406Y14550D03*
X18144Y3600D03*
Y8550D03*
X18194Y14550D03*
X21494Y4150D03*
X20706D03*
X21494Y9100D03*
X20706D03*
X21544Y15100D03*
X20756D03*
X23794Y21500D03*
X23006D03*
X32556Y25750D03*
X33344D03*
X40506D03*
X42784Y5950D03*
X41996D03*
X42946Y8280D03*
X41294Y25750D03*
X43734Y8280D03*
X49864Y3690D03*
X49076D03*
X49714Y7640D03*
X48926D03*
X49194Y25750D03*
X48406D03*
X99056Y32100D03*
X99206Y38300D03*
X99844Y32100D03*
X99994Y38300D03*
X110194Y32100D03*
X109406D03*
X110094Y38350D03*
X109306D03*
X116336Y37560D03*
Y39210D03*
X117124Y37560D03*
Y39210D03*
G54D46*
X116277Y34930D03*
X116297Y41530D03*
X117183Y34556D03*
Y35304D03*
X117203Y41156D03*
Y41904D03*
G54D28*
X19434Y2560D03*
X19234Y5260D03*
X19434Y7510D03*
X19234Y10210D03*
X19484Y13510D03*
X19284Y16210D03*
X19906Y2560D03*
X19706Y5260D03*
X19906Y7510D03*
X19706Y10210D03*
X19956Y13510D03*
X19756Y16210D03*
X25136Y4650D03*
X24664D03*
X26614D03*
X27086D03*
X26164Y10000D03*
X26636D03*
X28014Y13350D03*
X27586Y13950D03*
X27114D03*
X27764Y15050D03*
X28136Y24100D03*
X27664D03*
X28486Y13350D03*
X28236Y15050D03*
X32264Y15750D03*
X31614Y14650D03*
X32086D03*
X33486Y4650D03*
X33014D03*
X32736Y15750D03*
X34964Y4650D03*
X35436D03*
X40236Y4550D03*
X39764D03*
X40236Y5000D03*
X39764D03*
X40904Y10130D03*
X43254Y7630D03*
X41376Y10130D03*
X43164Y15650D03*
X43726Y7630D03*
X43926Y11080D03*
X43454D03*
X43636Y15650D03*
X93886Y26500D03*
X93414D03*
G54D37*
X26884Y11713D03*
X26628D03*
X26372D03*
X26116D03*
Y10787D03*
X26372D03*
X26628D03*
X26884D03*
G54D47*
G01X81975Y3096D02*
Y3149D01*
X81900D01*
X81875Y3133D01*
X81858Y3115D01*
X81850Y3088D01*
X81858Y3061D01*
X81875Y3043D01*
X81900Y3027D01*
X81929Y3016D01*
X81963Y3011D01*
X81992D01*
X82017Y3016D01*
X82046Y3027D01*
X82071Y3043D01*
X82088Y3059D01*
X82100Y3080D01*
Y3099D01*
X82092Y3120D01*
X82075Y3136D01*
G01X81850Y3239D02*
X82100D01*
X81850Y3361D01*
X82100D01*
G01X81850Y3461D02*
X82100D01*
Y3515D01*
X82088Y3536D01*
X82071Y3552D01*
X82046Y3565D01*
X82017Y3576D01*
X81975Y3579D01*
X81933Y3576D01*
X81904Y3565D01*
X81879Y3552D01*
X81862Y3536D01*
X81850Y3515D01*
Y3461D01*
G01X81525Y3096D02*
Y3149D01*
X81450D01*
X81425Y3133D01*
X81408Y3115D01*
X81400Y3088D01*
X81408Y3061D01*
X81425Y3043D01*
X81450Y3027D01*
X81479Y3016D01*
X81513Y3011D01*
X81542D01*
X81567Y3016D01*
X81596Y3027D01*
X81621Y3043D01*
X81638Y3059D01*
X81650Y3080D01*
Y3099D01*
X81642Y3120D01*
X81625Y3136D01*
G01X81400Y3239D02*
X81650D01*
X81400Y3361D01*
X81650D01*
G01X81400Y3461D02*
X81650D01*
Y3515D01*
X81638Y3536D01*
X81621Y3552D01*
X81596Y3565D01*
X81567Y3576D01*
X81525Y3579D01*
X81483Y3576D01*
X81454Y3565D01*
X81429Y3552D01*
X81412Y3536D01*
X81400Y3515D01*
Y3461D01*
G01X82125Y17296D02*
Y17349D01*
X82050D01*
X82025Y17333D01*
X82008Y17315D01*
X82000Y17288D01*
X82008Y17261D01*
X82025Y17243D01*
X82050Y17227D01*
X82079Y17216D01*
X82112Y17211D01*
X82142D01*
X82167Y17216D01*
X82196Y17227D01*
X82221Y17243D01*
X82238Y17259D01*
X82250Y17280D01*
Y17299D01*
X82242Y17320D01*
X82225Y17336D01*
G01X82000Y17439D02*
X82250D01*
X82000Y17561D01*
X82250D01*
G01X82000Y17661D02*
X82250D01*
Y17715D01*
X82238Y17736D01*
X82221Y17752D01*
X82196Y17765D01*
X82167Y17776D01*
X82125Y17779D01*
X82083Y17776D01*
X82054Y17765D01*
X82029Y17752D01*
X82012Y17736D01*
X82000Y17715D01*
Y17661D01*
G01X82475Y3096D02*
Y3149D01*
X82400D01*
X82375Y3133D01*
X82358Y3115D01*
X82350Y3088D01*
X82358Y3061D01*
X82375Y3043D01*
X82400Y3027D01*
X82429Y3016D01*
X82462Y3011D01*
X82492D01*
X82517Y3016D01*
X82546Y3027D01*
X82571Y3043D01*
X82588Y3059D01*
X82600Y3080D01*
Y3099D01*
X82592Y3120D01*
X82575Y3136D01*
G01X82350Y3239D02*
X82600D01*
X82350Y3361D01*
X82600D01*
G01X82350Y3461D02*
X82600D01*
Y3515D01*
X82588Y3536D01*
X82571Y3552D01*
X82546Y3565D01*
X82517Y3576D01*
X82475Y3579D01*
X82433Y3576D01*
X82404Y3565D01*
X82379Y3552D01*
X82362Y3536D01*
X82350Y3515D01*
Y3461D01*
G01X84025Y3096D02*
Y3149D01*
X83950D01*
X83925Y3133D01*
X83908Y3115D01*
X83900Y3088D01*
X83908Y3061D01*
X83925Y3043D01*
X83950Y3027D01*
X83979Y3016D01*
X84013Y3011D01*
X84042D01*
X84067Y3016D01*
X84096Y3027D01*
X84121Y3043D01*
X84138Y3059D01*
X84150Y3080D01*
Y3099D01*
X84142Y3120D01*
X84125Y3136D01*
G01X83900Y3239D02*
X84150D01*
X83900Y3361D01*
X84150D01*
G01X83900Y3461D02*
X84150D01*
Y3515D01*
X84138Y3536D01*
X84121Y3552D01*
X84096Y3565D01*
X84067Y3576D01*
X84025Y3579D01*
X83983Y3576D01*
X83954Y3565D01*
X83929Y3552D01*
X83912Y3536D01*
X83900Y3515D01*
Y3461D01*
G01X82975Y3096D02*
Y3149D01*
X82900D01*
X82875Y3133D01*
X82858Y3115D01*
X82850Y3088D01*
X82858Y3061D01*
X82875Y3043D01*
X82900Y3027D01*
X82929Y3016D01*
X82962Y3011D01*
X82992D01*
X83017Y3016D01*
X83046Y3027D01*
X83071Y3043D01*
X83088Y3059D01*
X83100Y3080D01*
Y3099D01*
X83092Y3120D01*
X83075Y3136D01*
G01X82850Y3239D02*
X83100D01*
X82850Y3361D01*
X83100D01*
G01X82850Y3461D02*
X83100D01*
Y3515D01*
X83088Y3536D01*
X83071Y3552D01*
X83046Y3565D01*
X83017Y3576D01*
X82975Y3579D01*
X82933Y3576D01*
X82904Y3565D01*
X82879Y3552D01*
X82863Y3536D01*
X82850Y3515D01*
Y3461D01*
G01X83525Y3096D02*
Y3149D01*
X83450D01*
X83425Y3133D01*
X83408Y3115D01*
X83400Y3088D01*
X83408Y3061D01*
X83425Y3043D01*
X83450Y3027D01*
X83479Y3016D01*
X83512Y3011D01*
X83542D01*
X83567Y3016D01*
X83596Y3027D01*
X83621Y3043D01*
X83638Y3059D01*
X83650Y3080D01*
Y3099D01*
X83642Y3120D01*
X83625Y3136D01*
G01X83400Y3239D02*
X83650D01*
X83400Y3361D01*
X83650D01*
G01X83400Y3461D02*
X83650D01*
Y3515D01*
X83638Y3536D01*
X83621Y3552D01*
X83596Y3565D01*
X83567Y3576D01*
X83525Y3579D01*
X83483Y3576D01*
X83454Y3565D01*
X83429Y3552D01*
X83412Y3536D01*
X83400Y3515D01*
Y3461D01*
G01X83075Y17296D02*
Y17349D01*
X83000D01*
X82975Y17333D01*
X82958Y17315D01*
X82950Y17288D01*
X82958Y17261D01*
X82975Y17243D01*
X83000Y17227D01*
X83029Y17216D01*
X83062Y17211D01*
X83092D01*
X83117Y17216D01*
X83146Y17227D01*
X83171Y17243D01*
X83188Y17259D01*
X83200Y17280D01*
Y17299D01*
X83192Y17320D01*
X83175Y17336D01*
G01X82950Y17439D02*
X83200D01*
X82950Y17561D01*
X83200D01*
G01X82950Y17661D02*
X83200D01*
Y17715D01*
X83188Y17736D01*
X83171Y17752D01*
X83146Y17765D01*
X83117Y17776D01*
X83075Y17779D01*
X83033Y17776D01*
X83004Y17765D01*
X82979Y17752D01*
X82962Y17736D01*
X82950Y17715D01*
Y17661D01*
G01X82575Y17296D02*
Y17349D01*
X82500D01*
X82475Y17333D01*
X82458Y17315D01*
X82450Y17288D01*
X82458Y17261D01*
X82475Y17243D01*
X82500Y17227D01*
X82529Y17216D01*
X82562Y17211D01*
X82592D01*
X82617Y17216D01*
X82646Y17227D01*
X82671Y17243D01*
X82688Y17259D01*
X82700Y17280D01*
Y17299D01*
X82692Y17320D01*
X82675Y17336D01*
G01X82450Y17439D02*
X82700D01*
X82450Y17561D01*
X82700D01*
G01X82450Y17661D02*
X82700D01*
Y17715D01*
X82688Y17736D01*
X82671Y17752D01*
X82646Y17765D01*
X82617Y17776D01*
X82575Y17779D01*
X82533Y17776D01*
X82504Y17765D01*
X82479Y17752D01*
X82462Y17736D01*
X82450Y17715D01*
Y17661D01*
G01X83575Y17296D02*
Y17349D01*
X83500D01*
X83475Y17333D01*
X83458Y17315D01*
X83450Y17288D01*
X83458Y17261D01*
X83475Y17243D01*
X83500Y17227D01*
X83529Y17216D01*
X83562Y17211D01*
X83592D01*
X83617Y17216D01*
X83646Y17227D01*
X83671Y17243D01*
X83688Y17259D01*
X83700Y17280D01*
Y17299D01*
X83692Y17320D01*
X83675Y17336D01*
G01X83450Y17439D02*
X83700D01*
X83450Y17561D01*
X83700D01*
G01X83450Y17661D02*
X83700D01*
Y17715D01*
X83688Y17736D01*
X83671Y17752D01*
X83646Y17765D01*
X83617Y17776D01*
X83575Y17779D01*
X83533Y17776D01*
X83504Y17765D01*
X83479Y17752D01*
X83462Y17736D01*
X83450Y17715D01*
Y17661D01*
G01X84125Y17296D02*
Y17349D01*
X84050D01*
X84025Y17333D01*
X84008Y17315D01*
X84000Y17288D01*
X84008Y17261D01*
X84025Y17243D01*
X84050Y17227D01*
X84079Y17216D01*
X84113Y17211D01*
X84142D01*
X84167Y17216D01*
X84196Y17227D01*
X84221Y17243D01*
X84238Y17259D01*
X84250Y17280D01*
Y17299D01*
X84242Y17320D01*
X84225Y17336D01*
G01X84000Y17439D02*
X84250D01*
X84000Y17561D01*
X84250D01*
G01X84000Y17661D02*
X84250D01*
Y17715D01*
X84238Y17736D01*
X84221Y17752D01*
X84196Y17765D01*
X84167Y17776D01*
X84125Y17779D01*
X84083Y17776D01*
X84054Y17765D01*
X84029Y17752D01*
X84013Y17736D01*
X84000Y17715D01*
Y17661D01*
G01X84475Y3096D02*
Y3149D01*
X84400D01*
X84375Y3133D01*
X84358Y3115D01*
X84350Y3088D01*
X84358Y3061D01*
X84375Y3043D01*
X84400Y3027D01*
X84429Y3016D01*
X84463Y3011D01*
X84492D01*
X84517Y3016D01*
X84546Y3027D01*
X84571Y3043D01*
X84588Y3059D01*
X84600Y3080D01*
Y3099D01*
X84592Y3120D01*
X84575Y3136D01*
G01X84350Y3239D02*
X84600D01*
X84350Y3361D01*
X84600D01*
G01X84350Y3461D02*
X84600D01*
Y3515D01*
X84588Y3536D01*
X84571Y3552D01*
X84546Y3565D01*
X84517Y3576D01*
X84475Y3579D01*
X84433Y3576D01*
X84404Y3565D01*
X84379Y3552D01*
X84362Y3536D01*
X84350Y3515D01*
Y3461D01*
G01X86525Y3096D02*
Y3149D01*
X86450D01*
X86425Y3133D01*
X86408Y3115D01*
X86400Y3088D01*
X86408Y3061D01*
X86425Y3043D01*
X86450Y3027D01*
X86479Y3016D01*
X86513Y3011D01*
X86542D01*
X86567Y3016D01*
X86596Y3027D01*
X86621Y3043D01*
X86638Y3059D01*
X86650Y3080D01*
Y3099D01*
X86642Y3120D01*
X86625Y3136D01*
G01X86400Y3239D02*
X86650D01*
X86400Y3361D01*
X86650D01*
G01X86400Y3461D02*
X86650D01*
Y3515D01*
X86638Y3536D01*
X86621Y3552D01*
X86596Y3565D01*
X86567Y3576D01*
X86525Y3579D01*
X86483Y3576D01*
X86454Y3565D01*
X86429Y3552D01*
X86412Y3536D01*
X86400Y3515D01*
Y3461D01*
G01X84975Y3096D02*
Y3149D01*
X84900D01*
X84875Y3133D01*
X84858Y3115D01*
X84850Y3088D01*
X84858Y3061D01*
X84875Y3043D01*
X84900Y3027D01*
X84929Y3016D01*
X84962Y3011D01*
X84992D01*
X85017Y3016D01*
X85046Y3027D01*
X85071Y3043D01*
X85088Y3059D01*
X85100Y3080D01*
Y3099D01*
X85092Y3120D01*
X85075Y3136D01*
G01X84850Y3239D02*
X85100D01*
X84850Y3361D01*
X85100D01*
G01X84850Y3461D02*
X85100D01*
Y3515D01*
X85088Y3536D01*
X85071Y3552D01*
X85046Y3565D01*
X85017Y3576D01*
X84975Y3579D01*
X84933Y3576D01*
X84904Y3565D01*
X84879Y3552D01*
X84862Y3536D01*
X84850Y3515D01*
Y3461D01*
G01X86025Y3096D02*
Y3149D01*
X85950D01*
X85925Y3133D01*
X85908Y3115D01*
X85900Y3088D01*
X85908Y3061D01*
X85925Y3043D01*
X85950Y3027D01*
X85979Y3016D01*
X86012Y3011D01*
X86042D01*
X86067Y3016D01*
X86096Y3027D01*
X86121Y3043D01*
X86138Y3059D01*
X86150Y3080D01*
Y3099D01*
X86142Y3120D01*
X86125Y3136D01*
G01X85900Y3239D02*
X86150D01*
X85900Y3361D01*
X86150D01*
G01X85900Y3461D02*
X86150D01*
Y3515D01*
X86138Y3536D01*
X86121Y3552D01*
X86096Y3565D01*
X86067Y3576D01*
X86025Y3579D01*
X85983Y3576D01*
X85954Y3565D01*
X85929Y3552D01*
X85912Y3536D01*
X85900Y3515D01*
Y3461D01*
G01X85475Y3096D02*
Y3149D01*
X85400D01*
X85375Y3133D01*
X85358Y3115D01*
X85350Y3088D01*
X85358Y3061D01*
X85375Y3043D01*
X85400Y3027D01*
X85429Y3016D01*
X85462Y3011D01*
X85492D01*
X85517Y3016D01*
X85546Y3027D01*
X85571Y3043D01*
X85588Y3059D01*
X85600Y3080D01*
Y3099D01*
X85592Y3120D01*
X85575Y3136D01*
G01X85350Y3239D02*
X85600D01*
X85350Y3361D01*
X85600D01*
G01X85350Y3461D02*
X85600D01*
Y3515D01*
X85588Y3536D01*
X85571Y3552D01*
X85546Y3565D01*
X85517Y3576D01*
X85475Y3579D01*
X85433Y3576D01*
X85404Y3565D01*
X85379Y3552D01*
X85363Y3536D01*
X85350Y3515D01*
Y3461D01*
G01X85575Y17296D02*
Y17349D01*
X85500D01*
X85475Y17333D01*
X85458Y17315D01*
X85450Y17288D01*
X85458Y17261D01*
X85475Y17243D01*
X85500Y17227D01*
X85529Y17216D01*
X85562Y17211D01*
X85592D01*
X85617Y17216D01*
X85646Y17227D01*
X85671Y17243D01*
X85688Y17259D01*
X85700Y17280D01*
Y17299D01*
X85692Y17320D01*
X85675Y17336D01*
G01X85450Y17439D02*
X85700D01*
X85450Y17561D01*
X85700D01*
G01X85450Y17661D02*
X85700D01*
Y17715D01*
X85688Y17736D01*
X85671Y17752D01*
X85646Y17765D01*
X85617Y17776D01*
X85575Y17779D01*
X85533Y17776D01*
X85504Y17765D01*
X85479Y17752D01*
X85462Y17736D01*
X85450Y17715D01*
Y17661D01*
G01X85075Y17296D02*
Y17349D01*
X85000D01*
X84975Y17333D01*
X84958Y17315D01*
X84950Y17288D01*
X84958Y17261D01*
X84975Y17243D01*
X85000Y17227D01*
X85029Y17216D01*
X85062Y17211D01*
X85092D01*
X85117Y17216D01*
X85146Y17227D01*
X85171Y17243D01*
X85188Y17259D01*
X85200Y17280D01*
Y17299D01*
X85192Y17320D01*
X85175Y17336D01*
G01X84950Y17439D02*
X85200D01*
X84950Y17561D01*
X85200D01*
G01X84950Y17661D02*
X85200D01*
Y17715D01*
X85188Y17736D01*
X85171Y17752D01*
X85146Y17765D01*
X85117Y17776D01*
X85075Y17779D01*
X85033Y17776D01*
X85004Y17765D01*
X84979Y17752D01*
X84962Y17736D01*
X84950Y17715D01*
Y17661D01*
G01X84625Y17296D02*
Y17349D01*
X84550D01*
X84525Y17333D01*
X84508Y17315D01*
X84500Y17288D01*
X84508Y17261D01*
X84525Y17243D01*
X84550Y17227D01*
X84579Y17216D01*
X84612Y17211D01*
X84642D01*
X84667Y17216D01*
X84696Y17227D01*
X84721Y17243D01*
X84738Y17259D01*
X84750Y17280D01*
Y17299D01*
X84742Y17320D01*
X84725Y17336D01*
G01X84500Y17439D02*
X84750D01*
X84500Y17561D01*
X84750D01*
G01X84500Y17661D02*
X84750D01*
Y17715D01*
X84738Y17736D01*
X84721Y17752D01*
X84696Y17765D01*
X84667Y17776D01*
X84625Y17779D01*
X84583Y17776D01*
X84554Y17765D01*
X84529Y17752D01*
X84512Y17736D01*
X84500Y17715D01*
Y17661D01*
G01X86075Y17296D02*
Y17349D01*
X86000D01*
X85975Y17333D01*
X85958Y17315D01*
X85950Y17288D01*
X85958Y17261D01*
X85975Y17243D01*
X86000Y17227D01*
X86029Y17216D01*
X86063Y17211D01*
X86092D01*
X86117Y17216D01*
X86146Y17227D01*
X86171Y17243D01*
X86188Y17259D01*
X86200Y17280D01*
Y17299D01*
X86192Y17320D01*
X86175Y17336D01*
G01X85950Y17439D02*
X86200D01*
X85950Y17561D01*
X86200D01*
G01X85950Y17661D02*
X86200D01*
Y17715D01*
X86188Y17736D01*
X86171Y17752D01*
X86146Y17765D01*
X86117Y17776D01*
X86075Y17779D01*
X86033Y17776D01*
X86004Y17765D01*
X85979Y17752D01*
X85962Y17736D01*
X85950Y17715D01*
Y17661D01*
G01X86975Y3096D02*
Y3149D01*
X86900D01*
X86875Y3133D01*
X86858Y3115D01*
X86850Y3088D01*
X86858Y3061D01*
X86875Y3043D01*
X86900Y3027D01*
X86929Y3016D01*
X86963Y3011D01*
X86992D01*
X87017Y3016D01*
X87046Y3027D01*
X87071Y3043D01*
X87088Y3059D01*
X87100Y3080D01*
Y3099D01*
X87092Y3120D01*
X87075Y3136D01*
G01X86850Y3239D02*
X87100D01*
X86850Y3361D01*
X87100D01*
G01X86850Y3461D02*
X87100D01*
Y3515D01*
X87088Y3536D01*
X87071Y3552D01*
X87046Y3565D01*
X87017Y3576D01*
X86975Y3579D01*
X86933Y3576D01*
X86904Y3565D01*
X86879Y3552D01*
X86862Y3536D01*
X86850Y3515D01*
Y3461D01*
G01X88525Y3096D02*
Y3149D01*
X88450D01*
X88425Y3133D01*
X88408Y3115D01*
X88400Y3088D01*
X88408Y3061D01*
X88425Y3043D01*
X88450Y3027D01*
X88479Y3016D01*
X88512Y3011D01*
X88542D01*
X88567Y3016D01*
X88596Y3027D01*
X88621Y3043D01*
X88638Y3059D01*
X88650Y3080D01*
Y3099D01*
X88642Y3120D01*
X88625Y3136D01*
G01X88400Y3239D02*
X88650D01*
X88400Y3361D01*
X88650D01*
G01X88400Y3461D02*
X88650D01*
Y3515D01*
X88638Y3536D01*
X88621Y3552D01*
X88596Y3565D01*
X88567Y3576D01*
X88525Y3579D01*
X88483Y3576D01*
X88454Y3565D01*
X88429Y3552D01*
X88412Y3536D01*
X88400Y3515D01*
Y3461D01*
G01X87475Y3096D02*
Y3149D01*
X87400D01*
X87375Y3133D01*
X87358Y3115D01*
X87350Y3088D01*
X87358Y3061D01*
X87375Y3043D01*
X87400Y3027D01*
X87429Y3016D01*
X87462Y3011D01*
X87492D01*
X87517Y3016D01*
X87546Y3027D01*
X87571Y3043D01*
X87588Y3059D01*
X87600Y3080D01*
Y3099D01*
X87592Y3120D01*
X87575Y3136D01*
G01X87350Y3239D02*
X87600D01*
X87350Y3361D01*
X87600D01*
G01X87350Y3461D02*
X87600D01*
Y3515D01*
X87588Y3536D01*
X87571Y3552D01*
X87546Y3565D01*
X87517Y3576D01*
X87475Y3579D01*
X87433Y3576D01*
X87404Y3565D01*
X87379Y3552D01*
X87362Y3536D01*
X87350Y3515D01*
Y3461D01*
G01X87975Y3096D02*
Y3149D01*
X87900D01*
X87875Y3133D01*
X87858Y3115D01*
X87850Y3088D01*
X87858Y3061D01*
X87875Y3043D01*
X87900Y3027D01*
X87929Y3016D01*
X87962Y3011D01*
X87992D01*
X88017Y3016D01*
X88046Y3027D01*
X88071Y3043D01*
X88088Y3059D01*
X88100Y3080D01*
Y3099D01*
X88092Y3120D01*
X88075Y3136D01*
G01X87850Y3239D02*
X88100D01*
X87850Y3361D01*
X88100D01*
G01X87850Y3461D02*
X88100D01*
Y3515D01*
X88088Y3536D01*
X88071Y3552D01*
X88046Y3565D01*
X88017Y3576D01*
X87975Y3579D01*
X87933Y3576D01*
X87904Y3565D01*
X87879Y3552D01*
X87863Y3536D01*
X87850Y3515D01*
Y3461D01*
G01X87575Y17296D02*
Y17349D01*
X87500D01*
X87475Y17333D01*
X87458Y17315D01*
X87450Y17288D01*
X87458Y17261D01*
X87475Y17243D01*
X87500Y17227D01*
X87529Y17216D01*
X87562Y17211D01*
X87592D01*
X87617Y17216D01*
X87646Y17227D01*
X87671Y17243D01*
X87688Y17259D01*
X87700Y17280D01*
Y17299D01*
X87692Y17320D01*
X87675Y17336D01*
G01X87450Y17439D02*
X87700D01*
X87450Y17561D01*
X87700D01*
G01X87450Y17661D02*
X87700D01*
Y17715D01*
X87688Y17736D01*
X87671Y17752D01*
X87646Y17765D01*
X87617Y17776D01*
X87575Y17779D01*
X87533Y17776D01*
X87504Y17765D01*
X87479Y17752D01*
X87462Y17736D01*
X87450Y17715D01*
Y17661D01*
G01X87125Y17296D02*
Y17349D01*
X87050D01*
X87025Y17333D01*
X87008Y17315D01*
X87000Y17288D01*
X87008Y17261D01*
X87025Y17243D01*
X87050Y17227D01*
X87079Y17216D01*
X87112Y17211D01*
X87142D01*
X87167Y17216D01*
X87196Y17227D01*
X87221Y17243D01*
X87238Y17259D01*
X87250Y17280D01*
Y17299D01*
X87242Y17320D01*
X87225Y17336D01*
G01X87000Y17439D02*
X87250D01*
X87000Y17561D01*
X87250D01*
G01X87000Y17661D02*
X87250D01*
Y17715D01*
X87238Y17736D01*
X87221Y17752D01*
X87196Y17765D01*
X87167Y17776D01*
X87125Y17779D01*
X87083Y17776D01*
X87054Y17765D01*
X87029Y17752D01*
X87012Y17736D01*
X87000Y17715D01*
Y17661D01*
G01X86625Y17296D02*
Y17349D01*
X86550D01*
X86525Y17333D01*
X86508Y17315D01*
X86500Y17288D01*
X86508Y17261D01*
X86525Y17243D01*
X86550Y17227D01*
X86579Y17216D01*
X86613Y17211D01*
X86642D01*
X86667Y17216D01*
X86696Y17227D01*
X86721Y17243D01*
X86738Y17259D01*
X86750Y17280D01*
Y17299D01*
X86742Y17320D01*
X86725Y17336D01*
G01X86500Y17439D02*
X86750D01*
X86500Y17561D01*
X86750D01*
G01X86500Y17661D02*
X86750D01*
Y17715D01*
X86738Y17736D01*
X86721Y17752D01*
X86696Y17765D01*
X86667Y17776D01*
X86625Y17779D01*
X86583Y17776D01*
X86554Y17765D01*
X86529Y17752D01*
X86513Y17736D01*
X86500Y17715D01*
Y17661D01*
G01X88075Y17296D02*
Y17349D01*
X88000D01*
X87975Y17333D01*
X87958Y17315D01*
X87950Y17288D01*
X87958Y17261D01*
X87975Y17243D01*
X88000Y17227D01*
X88029Y17216D01*
X88062Y17211D01*
X88092D01*
X88117Y17216D01*
X88146Y17227D01*
X88171Y17243D01*
X88188Y17259D01*
X88200Y17280D01*
Y17299D01*
X88192Y17320D01*
X88175Y17336D01*
G01X87950Y17439D02*
X88200D01*
X87950Y17561D01*
X88200D01*
G01X87950Y17661D02*
X88200D01*
Y17715D01*
X88188Y17736D01*
X88171Y17752D01*
X88146Y17765D01*
X88117Y17776D01*
X88075Y17779D01*
X88033Y17776D01*
X88004Y17765D01*
X87979Y17752D01*
X87962Y17736D01*
X87950Y17715D01*
Y17661D01*
G01X88575Y17296D02*
Y17349D01*
X88500D01*
X88475Y17333D01*
X88458Y17315D01*
X88450Y17288D01*
X88458Y17261D01*
X88475Y17243D01*
X88500Y17227D01*
X88529Y17216D01*
X88563Y17211D01*
X88592D01*
X88617Y17216D01*
X88646Y17227D01*
X88671Y17243D01*
X88688Y17259D01*
X88700Y17280D01*
Y17299D01*
X88692Y17320D01*
X88675Y17336D01*
G01X88450Y17439D02*
X88700D01*
X88450Y17561D01*
X88700D01*
G01X88450Y17661D02*
X88700D01*
Y17715D01*
X88688Y17736D01*
X88671Y17752D01*
X88646Y17765D01*
X88617Y17776D01*
X88575Y17779D01*
X88533Y17776D01*
X88504Y17765D01*
X88479Y17752D01*
X88462Y17736D01*
X88450Y17715D01*
Y17661D01*
G01X88975Y3096D02*
Y3149D01*
X88900D01*
X88875Y3133D01*
X88858Y3115D01*
X88850Y3088D01*
X88858Y3061D01*
X88875Y3043D01*
X88900Y3027D01*
X88929Y3016D01*
X88962Y3011D01*
X88992D01*
X89017Y3016D01*
X89046Y3027D01*
X89071Y3043D01*
X89088Y3059D01*
X89100Y3080D01*
Y3099D01*
X89092Y3120D01*
X89075Y3136D01*
G01X88850Y3239D02*
X89100D01*
X88850Y3361D01*
X89100D01*
G01X88850Y3461D02*
X89100D01*
Y3515D01*
X89088Y3536D01*
X89071Y3552D01*
X89046Y3565D01*
X89017Y3576D01*
X88975Y3579D01*
X88933Y3576D01*
X88904Y3565D01*
X88879Y3552D01*
X88862Y3536D01*
X88850Y3515D01*
Y3461D01*
G01X89925Y3096D02*
Y3149D01*
X89850D01*
X89825Y3133D01*
X89808Y3115D01*
X89800Y3088D01*
X89808Y3061D01*
X89825Y3043D01*
X89850Y3027D01*
X89879Y3016D01*
X89913Y3011D01*
X89942D01*
X89967Y3016D01*
X89996Y3027D01*
X90021Y3043D01*
X90038Y3059D01*
X90050Y3080D01*
Y3099D01*
X90042Y3120D01*
X90025Y3136D01*
G01X89800Y3239D02*
X90050D01*
X89800Y3361D01*
X90050D01*
G01X89800Y3461D02*
X90050D01*
Y3515D01*
X90038Y3536D01*
X90021Y3552D01*
X89996Y3565D01*
X89967Y3576D01*
X89925Y3579D01*
X89883Y3576D01*
X89854Y3565D01*
X89829Y3552D01*
X89813Y3536D01*
X89800Y3515D01*
Y3461D01*
G01X90425Y3096D02*
Y3149D01*
X90350D01*
X90325Y3133D01*
X90308Y3115D01*
X90300Y3088D01*
X90308Y3061D01*
X90325Y3043D01*
X90350Y3027D01*
X90379Y3016D01*
X90412Y3011D01*
X90442D01*
X90467Y3016D01*
X90496Y3027D01*
X90521Y3043D01*
X90538Y3059D01*
X90550Y3080D01*
Y3099D01*
X90542Y3120D01*
X90525Y3136D01*
G01X90300Y3239D02*
X90550D01*
X90300Y3361D01*
X90550D01*
G01X90300Y3461D02*
X90550D01*
Y3515D01*
X90538Y3536D01*
X90521Y3552D01*
X90496Y3565D01*
X90467Y3576D01*
X90425Y3579D01*
X90383Y3576D01*
X90354Y3565D01*
X90329Y3552D01*
X90312Y3536D01*
X90300Y3515D01*
Y3461D01*
G01X89425Y3096D02*
Y3149D01*
X89350D01*
X89325Y3133D01*
X89308Y3115D01*
X89300Y3088D01*
X89308Y3061D01*
X89325Y3043D01*
X89350Y3027D01*
X89379Y3016D01*
X89412Y3011D01*
X89442D01*
X89467Y3016D01*
X89496Y3027D01*
X89521Y3043D01*
X89538Y3059D01*
X89550Y3080D01*
Y3099D01*
X89542Y3120D01*
X89525Y3136D01*
G01X89300Y3239D02*
X89550D01*
X89300Y3361D01*
X89550D01*
G01X89300Y3461D02*
X89550D01*
Y3515D01*
X89538Y3536D01*
X89521Y3552D01*
X89496Y3565D01*
X89467Y3576D01*
X89425Y3579D01*
X89383Y3576D01*
X89354Y3565D01*
X89329Y3552D01*
X89312Y3536D01*
X89300Y3515D01*
Y3461D01*
G01X89575Y17296D02*
Y17349D01*
X89500D01*
X89475Y17333D01*
X89458Y17315D01*
X89450Y17288D01*
X89458Y17261D01*
X89475Y17243D01*
X89500Y17227D01*
X89529Y17216D01*
X89562Y17211D01*
X89592D01*
X89617Y17216D01*
X89646Y17227D01*
X89671Y17243D01*
X89688Y17259D01*
X89700Y17280D01*
Y17299D01*
X89692Y17320D01*
X89675Y17336D01*
G01X89450Y17439D02*
X89700D01*
X89450Y17561D01*
X89700D01*
G01X89450Y17661D02*
X89700D01*
Y17715D01*
X89688Y17736D01*
X89671Y17752D01*
X89646Y17765D01*
X89617Y17776D01*
X89575Y17779D01*
X89533Y17776D01*
X89504Y17765D01*
X89479Y17752D01*
X89463Y17736D01*
X89450Y17715D01*
Y17661D01*
G01X89125Y17296D02*
Y17349D01*
X89050D01*
X89025Y17333D01*
X89008Y17315D01*
X89000Y17288D01*
X89008Y17261D01*
X89025Y17243D01*
X89050Y17227D01*
X89079Y17216D01*
X89113Y17211D01*
X89142D01*
X89167Y17216D01*
X89196Y17227D01*
X89221Y17243D01*
X89238Y17259D01*
X89250Y17280D01*
Y17299D01*
X89242Y17320D01*
X89225Y17336D01*
G01X89000Y17439D02*
X89250D01*
X89000Y17561D01*
X89250D01*
G01X89000Y17661D02*
X89250D01*
Y17715D01*
X89238Y17736D01*
X89221Y17752D01*
X89196Y17765D01*
X89167Y17776D01*
X89125Y17779D01*
X89083Y17776D01*
X89054Y17765D01*
X89029Y17752D01*
X89013Y17736D01*
X89000Y17715D01*
Y17661D01*
G01X90025Y17296D02*
Y17349D01*
X89950D01*
X89925Y17333D01*
X89908Y17315D01*
X89900Y17288D01*
X89908Y17261D01*
X89925Y17243D01*
X89950Y17227D01*
X89979Y17216D01*
X90012Y17211D01*
X90042D01*
X90067Y17216D01*
X90096Y17227D01*
X90121Y17243D01*
X90138Y17259D01*
X90150Y17280D01*
Y17299D01*
X90142Y17320D01*
X90125Y17336D01*
G01X89900Y17439D02*
X90150D01*
X89900Y17561D01*
X90150D01*
G01X89900Y17661D02*
X90150D01*
Y17715D01*
X90138Y17736D01*
X90121Y17752D01*
X90096Y17765D01*
X90067Y17776D01*
X90025Y17779D01*
X89983Y17776D01*
X89954Y17765D01*
X89929Y17752D01*
X89913Y17736D01*
X89900Y17715D01*
Y17661D01*
G01X90525Y17296D02*
Y17349D01*
X90450D01*
X90425Y17333D01*
X90408Y17315D01*
X90400Y17288D01*
X90408Y17261D01*
X90425Y17243D01*
X90450Y17227D01*
X90479Y17216D01*
X90512Y17211D01*
X90542D01*
X90567Y17216D01*
X90596Y17227D01*
X90621Y17243D01*
X90638Y17259D01*
X90650Y17280D01*
Y17299D01*
X90642Y17320D01*
X90625Y17336D01*
G01X90400Y17439D02*
X90650D01*
X90400Y17561D01*
X90650D01*
G01X90400Y17661D02*
X90650D01*
Y17715D01*
X90638Y17736D01*
X90621Y17752D01*
X90596Y17765D01*
X90567Y17776D01*
X90525Y17779D01*
X90483Y17776D01*
X90454Y17765D01*
X90429Y17752D01*
X90412Y17736D01*
X90400Y17715D01*
Y17661D01*
G01X90975Y3096D02*
Y3149D01*
X90900D01*
X90875Y3133D01*
X90858Y3115D01*
X90850Y3088D01*
X90858Y3061D01*
X90875Y3043D01*
X90900Y3027D01*
X90929Y3016D01*
X90962Y3011D01*
X90992D01*
X91017Y3016D01*
X91046Y3027D01*
X91071Y3043D01*
X91088Y3059D01*
X91100Y3080D01*
Y3099D01*
X91092Y3120D01*
X91075Y3136D01*
G01X90850Y3239D02*
X91100D01*
X90850Y3361D01*
X91100D01*
G01X90850Y3461D02*
X91100D01*
Y3515D01*
X91088Y3536D01*
X91071Y3552D01*
X91046Y3565D01*
X91017Y3576D01*
X90975Y3579D01*
X90933Y3576D01*
X90904Y3565D01*
X90879Y3552D01*
X90862Y3536D01*
X90850Y3515D01*
Y3461D01*
G01X92925Y3096D02*
Y3149D01*
X92850D01*
X92825Y3133D01*
X92808Y3115D01*
X92800Y3088D01*
X92808Y3061D01*
X92825Y3043D01*
X92850Y3027D01*
X92879Y3016D01*
X92912Y3011D01*
X92942D01*
X92967Y3016D01*
X92996Y3027D01*
X93021Y3043D01*
X93038Y3059D01*
X93050Y3080D01*
Y3099D01*
X93042Y3120D01*
X93025Y3136D01*
G01X92800Y3239D02*
X93050D01*
X92800Y3361D01*
X93050D01*
G01X92800Y3461D02*
X93050D01*
Y3515D01*
X93038Y3536D01*
X93021Y3552D01*
X92996Y3565D01*
X92967Y3576D01*
X92925Y3579D01*
X92883Y3576D01*
X92854Y3565D01*
X92829Y3552D01*
X92812Y3536D01*
X92800Y3515D01*
Y3461D01*
G01X91925Y3096D02*
Y3149D01*
X91850D01*
X91825Y3133D01*
X91808Y3115D01*
X91800Y3088D01*
X91808Y3061D01*
X91825Y3043D01*
X91850Y3027D01*
X91879Y3016D01*
X91912Y3011D01*
X91942D01*
X91967Y3016D01*
X91996Y3027D01*
X92021Y3043D01*
X92038Y3059D01*
X92050Y3080D01*
Y3099D01*
X92042Y3120D01*
X92025Y3136D01*
G01X91800Y3239D02*
X92050D01*
X91800Y3361D01*
X92050D01*
G01X91800Y3461D02*
X92050D01*
Y3515D01*
X92038Y3536D01*
X92021Y3552D01*
X91996Y3565D01*
X91967Y3576D01*
X91925Y3579D01*
X91883Y3576D01*
X91854Y3565D01*
X91829Y3552D01*
X91812Y3536D01*
X91800Y3515D01*
Y3461D01*
G01X92425Y3096D02*
Y3149D01*
X92350D01*
X92325Y3133D01*
X92308Y3115D01*
X92300Y3088D01*
X92308Y3061D01*
X92325Y3043D01*
X92350Y3027D01*
X92379Y3016D01*
X92413Y3011D01*
X92442D01*
X92467Y3016D01*
X92496Y3027D01*
X92521Y3043D01*
X92538Y3059D01*
X92550Y3080D01*
Y3099D01*
X92542Y3120D01*
X92525Y3136D01*
G01X92300Y3239D02*
X92550D01*
X92300Y3361D01*
X92550D01*
G01X92300Y3461D02*
X92550D01*
Y3515D01*
X92538Y3536D01*
X92521Y3552D01*
X92496Y3565D01*
X92467Y3576D01*
X92425Y3579D01*
X92383Y3576D01*
X92354Y3565D01*
X92329Y3552D01*
X92313Y3536D01*
X92300Y3515D01*
Y3461D01*
G01X91475Y3096D02*
Y3149D01*
X91400D01*
X91375Y3133D01*
X91358Y3115D01*
X91350Y3088D01*
X91358Y3061D01*
X91375Y3043D01*
X91400Y3027D01*
X91429Y3016D01*
X91462Y3011D01*
X91492D01*
X91517Y3016D01*
X91546Y3027D01*
X91571Y3043D01*
X91588Y3059D01*
X91600Y3080D01*
Y3099D01*
X91592Y3120D01*
X91575Y3136D01*
G01X91350Y3239D02*
X91600D01*
X91350Y3361D01*
X91600D01*
G01X91350Y3461D02*
X91600D01*
Y3515D01*
X91588Y3536D01*
X91571Y3552D01*
X91546Y3565D01*
X91517Y3576D01*
X91475Y3579D01*
X91433Y3576D01*
X91404Y3565D01*
X91379Y3552D01*
X91362Y3536D01*
X91350Y3515D01*
Y3461D01*
G01X91575Y17296D02*
Y17349D01*
X91500D01*
X91475Y17333D01*
X91458Y17315D01*
X91450Y17288D01*
X91458Y17261D01*
X91475Y17243D01*
X91500Y17227D01*
X91529Y17216D01*
X91562Y17211D01*
X91592D01*
X91617Y17216D01*
X91646Y17227D01*
X91671Y17243D01*
X91688Y17259D01*
X91700Y17280D01*
Y17299D01*
X91692Y17320D01*
X91675Y17336D01*
G01X91450Y17439D02*
X91700D01*
X91450Y17561D01*
X91700D01*
G01X91450Y17661D02*
X91700D01*
Y17715D01*
X91688Y17736D01*
X91671Y17752D01*
X91646Y17765D01*
X91617Y17776D01*
X91575Y17779D01*
X91533Y17776D01*
X91504Y17765D01*
X91479Y17752D01*
X91462Y17736D01*
X91450Y17715D01*
Y17661D01*
G01X91025Y17296D02*
Y17349D01*
X90950D01*
X90925Y17333D01*
X90908Y17315D01*
X90900Y17288D01*
X90908Y17261D01*
X90925Y17243D01*
X90950Y17227D01*
X90979Y17216D01*
X91012Y17211D01*
X91042D01*
X91067Y17216D01*
X91096Y17227D01*
X91121Y17243D01*
X91138Y17259D01*
X91150Y17280D01*
Y17299D01*
X91142Y17320D01*
X91125Y17336D01*
G01X90900Y17439D02*
X91150D01*
X90900Y17561D01*
X91150D01*
G01X90900Y17661D02*
X91150D01*
Y17715D01*
X91138Y17736D01*
X91121Y17752D01*
X91096Y17765D01*
X91067Y17776D01*
X91025Y17779D01*
X90983Y17776D01*
X90954Y17765D01*
X90929Y17752D01*
X90912Y17736D01*
X90900Y17715D01*
Y17661D01*
G01X92075Y17296D02*
Y17349D01*
X92000D01*
X91975Y17333D01*
X91958Y17315D01*
X91950Y17288D01*
X91958Y17261D01*
X91975Y17243D01*
X92000Y17227D01*
X92029Y17216D01*
X92062Y17211D01*
X92092D01*
X92117Y17216D01*
X92146Y17227D01*
X92171Y17243D01*
X92188Y17259D01*
X92200Y17280D01*
Y17299D01*
X92192Y17320D01*
X92175Y17336D01*
G01X91950Y17439D02*
X92200D01*
X91950Y17561D01*
X92200D01*
G01X91950Y17661D02*
X92200D01*
Y17715D01*
X92188Y17736D01*
X92171Y17752D01*
X92146Y17765D01*
X92117Y17776D01*
X92075Y17779D01*
X92033Y17776D01*
X92004Y17765D01*
X91979Y17752D01*
X91963Y17736D01*
X91950Y17715D01*
Y17661D01*
G01X92525Y17296D02*
Y17349D01*
X92450D01*
X92425Y17333D01*
X92408Y17315D01*
X92400Y17288D01*
X92408Y17261D01*
X92425Y17243D01*
X92450Y17227D01*
X92479Y17216D01*
X92512Y17211D01*
X92542D01*
X92567Y17216D01*
X92596Y17227D01*
X92621Y17243D01*
X92638Y17259D01*
X92650Y17280D01*
Y17299D01*
X92642Y17320D01*
X92625Y17336D01*
G01X92400Y17439D02*
X92650D01*
X92400Y17561D01*
X92650D01*
G01X92400Y17661D02*
X92650D01*
Y17715D01*
X92638Y17736D01*
X92621Y17752D01*
X92596Y17765D01*
X92567Y17776D01*
X92525Y17779D01*
X92483Y17776D01*
X92454Y17765D01*
X92429Y17752D01*
X92413Y17736D01*
X92400Y17715D01*
Y17661D01*
G01X93475Y3096D02*
Y3149D01*
X93400D01*
X93375Y3133D01*
X93358Y3115D01*
X93350Y3088D01*
X93358Y3061D01*
X93375Y3043D01*
X93400Y3027D01*
X93429Y3016D01*
X93462Y3011D01*
X93492D01*
X93517Y3016D01*
X93546Y3027D01*
X93571Y3043D01*
X93588Y3059D01*
X93600Y3080D01*
Y3099D01*
X93592Y3120D01*
X93575Y3136D01*
G01X93350Y3239D02*
X93600D01*
X93350Y3361D01*
X93600D01*
G01X93350Y3461D02*
X93600D01*
Y3515D01*
X93588Y3536D01*
X93571Y3552D01*
X93546Y3565D01*
X93517Y3576D01*
X93475Y3579D01*
X93433Y3576D01*
X93404Y3565D01*
X93379Y3552D01*
X93362Y3536D01*
X93350Y3515D01*
Y3461D01*
G01X94925Y3096D02*
Y3149D01*
X94850D01*
X94825Y3133D01*
X94808Y3115D01*
X94800Y3088D01*
X94808Y3061D01*
X94825Y3043D01*
X94850Y3027D01*
X94879Y3016D01*
X94913Y3011D01*
X94942D01*
X94967Y3016D01*
X94996Y3027D01*
X95021Y3043D01*
X95038Y3059D01*
X95050Y3080D01*
Y3099D01*
X95042Y3120D01*
X95025Y3136D01*
G01X94800Y3239D02*
X95050D01*
X94800Y3361D01*
X95050D01*
G01X94800Y3461D02*
X95050D01*
Y3515D01*
X95038Y3536D01*
X95021Y3552D01*
X94996Y3565D01*
X94967Y3576D01*
X94925Y3579D01*
X94883Y3576D01*
X94854Y3565D01*
X94829Y3552D01*
X94813Y3536D01*
X94800Y3515D01*
Y3461D01*
G01X94425Y3096D02*
Y3149D01*
X94350D01*
X94325Y3133D01*
X94308Y3115D01*
X94300Y3088D01*
X94308Y3061D01*
X94325Y3043D01*
X94350Y3027D01*
X94379Y3016D01*
X94412Y3011D01*
X94442D01*
X94467Y3016D01*
X94496Y3027D01*
X94521Y3043D01*
X94538Y3059D01*
X94550Y3080D01*
Y3099D01*
X94542Y3120D01*
X94525Y3136D01*
G01X94300Y3239D02*
X94550D01*
X94300Y3361D01*
X94550D01*
G01X94300Y3461D02*
X94550D01*
Y3515D01*
X94538Y3536D01*
X94521Y3552D01*
X94496Y3565D01*
X94467Y3576D01*
X94425Y3579D01*
X94383Y3576D01*
X94354Y3565D01*
X94329Y3552D01*
X94312Y3536D01*
X94300Y3515D01*
Y3461D01*
G01X93975Y3096D02*
Y3149D01*
X93900D01*
X93875Y3133D01*
X93858Y3115D01*
X93850Y3088D01*
X93858Y3061D01*
X93875Y3043D01*
X93900Y3027D01*
X93929Y3016D01*
X93962Y3011D01*
X93992D01*
X94017Y3016D01*
X94046Y3027D01*
X94071Y3043D01*
X94088Y3059D01*
X94100Y3080D01*
Y3099D01*
X94092Y3120D01*
X94075Y3136D01*
G01X93850Y3239D02*
X94100D01*
X93850Y3361D01*
X94100D01*
G01X93850Y3461D02*
X94100D01*
Y3515D01*
X94088Y3536D01*
X94071Y3552D01*
X94046Y3565D01*
X94017Y3576D01*
X93975Y3579D01*
X93933Y3576D01*
X93904Y3565D01*
X93879Y3552D01*
X93862Y3536D01*
X93850Y3515D01*
Y3461D01*
G01X94075Y17296D02*
Y17349D01*
X94000D01*
X93975Y17333D01*
X93958Y17315D01*
X93950Y17288D01*
X93958Y17261D01*
X93975Y17243D01*
X94000Y17227D01*
X94029Y17216D01*
X94062Y17211D01*
X94092D01*
X94117Y17216D01*
X94146Y17227D01*
X94171Y17243D01*
X94188Y17259D01*
X94200Y17280D01*
Y17299D01*
X94192Y17320D01*
X94175Y17336D01*
G01X93950Y17439D02*
X94200D01*
X93950Y17561D01*
X94200D01*
G01X93950Y17661D02*
X94200D01*
Y17715D01*
X94188Y17736D01*
X94171Y17752D01*
X94146Y17765D01*
X94117Y17776D01*
X94075Y17779D01*
X94033Y17776D01*
X94004Y17765D01*
X93979Y17752D01*
X93962Y17736D01*
X93950Y17715D01*
Y17661D01*
G01X93525Y17296D02*
Y17349D01*
X93450D01*
X93425Y17333D01*
X93408Y17315D01*
X93400Y17288D01*
X93408Y17261D01*
X93425Y17243D01*
X93450Y17227D01*
X93479Y17216D01*
X93512Y17211D01*
X93542D01*
X93567Y17216D01*
X93596Y17227D01*
X93621Y17243D01*
X93638Y17259D01*
X93650Y17280D01*
Y17299D01*
X93642Y17320D01*
X93625Y17336D01*
G01X93400Y17439D02*
X93650D01*
X93400Y17561D01*
X93650D01*
G01X93400Y17661D02*
X93650D01*
Y17715D01*
X93638Y17736D01*
X93621Y17752D01*
X93596Y17765D01*
X93567Y17776D01*
X93525Y17779D01*
X93483Y17776D01*
X93454Y17765D01*
X93429Y17752D01*
X93412Y17736D01*
X93400Y17715D01*
Y17661D01*
G01X93025Y17296D02*
Y17349D01*
X92950D01*
X92925Y17333D01*
X92908Y17315D01*
X92900Y17288D01*
X92908Y17261D01*
X92925Y17243D01*
X92950Y17227D01*
X92979Y17216D01*
X93012Y17211D01*
X93042D01*
X93067Y17216D01*
X93096Y17227D01*
X93121Y17243D01*
X93138Y17259D01*
X93150Y17280D01*
Y17299D01*
X93142Y17320D01*
X93125Y17336D01*
G01X92900Y17439D02*
X93150D01*
X92900Y17561D01*
X93150D01*
G01X92900Y17661D02*
X93150D01*
Y17715D01*
X93138Y17736D01*
X93121Y17752D01*
X93096Y17765D01*
X93067Y17776D01*
X93025Y17779D01*
X92983Y17776D01*
X92954Y17765D01*
X92929Y17752D01*
X92912Y17736D01*
X92900Y17715D01*
Y17661D01*
G01X94575Y17296D02*
Y17349D01*
X94500D01*
X94475Y17333D01*
X94458Y17315D01*
X94450Y17288D01*
X94458Y17261D01*
X94475Y17243D01*
X94500Y17227D01*
X94529Y17216D01*
X94562Y17211D01*
X94592D01*
X94617Y17216D01*
X94646Y17227D01*
X94671Y17243D01*
X94688Y17259D01*
X94700Y17280D01*
Y17299D01*
X94692Y17320D01*
X94675Y17336D01*
G01X94450Y17439D02*
X94700D01*
X94450Y17561D01*
X94700D01*
G01X94450Y17661D02*
X94700D01*
Y17715D01*
X94688Y17736D01*
X94671Y17752D01*
X94646Y17765D01*
X94617Y17776D01*
X94575Y17779D01*
X94533Y17776D01*
X94504Y17765D01*
X94479Y17752D01*
X94463Y17736D01*
X94450Y17715D01*
Y17661D01*
G01X95025Y17296D02*
Y17349D01*
X94950D01*
X94925Y17333D01*
X94908Y17315D01*
X94900Y17288D01*
X94908Y17261D01*
X94925Y17243D01*
X94950Y17227D01*
X94979Y17216D01*
X95012Y17211D01*
X95042D01*
X95067Y17216D01*
X95096Y17227D01*
X95121Y17243D01*
X95138Y17259D01*
X95150Y17280D01*
Y17299D01*
X95142Y17320D01*
X95125Y17336D01*
G01X94900Y17439D02*
X95150D01*
X94900Y17561D01*
X95150D01*
G01X94900Y17661D02*
X95150D01*
Y17715D01*
X95138Y17736D01*
X95121Y17752D01*
X95096Y17765D01*
X95067Y17776D01*
X95025Y17779D01*
X94983Y17776D01*
X94954Y17765D01*
X94929Y17752D01*
X94913Y17736D01*
X94900Y17715D01*
Y17661D01*
G01X95425Y3096D02*
Y3149D01*
X95350D01*
X95325Y3133D01*
X95308Y3115D01*
X95300Y3088D01*
X95308Y3061D01*
X95325Y3043D01*
X95350Y3027D01*
X95379Y3016D01*
X95412Y3011D01*
X95442D01*
X95467Y3016D01*
X95496Y3027D01*
X95521Y3043D01*
X95538Y3059D01*
X95550Y3080D01*
Y3099D01*
X95542Y3120D01*
X95525Y3136D01*
G01X95300Y3239D02*
X95550D01*
X95300Y3361D01*
X95550D01*
G01X95300Y3461D02*
X95550D01*
Y3515D01*
X95538Y3536D01*
X95521Y3552D01*
X95496Y3565D01*
X95467Y3576D01*
X95425Y3579D01*
X95383Y3576D01*
X95354Y3565D01*
X95329Y3552D01*
X95312Y3536D01*
X95300Y3515D01*
Y3461D01*
G01X96925Y3096D02*
Y3149D01*
X96850D01*
X96825Y3133D01*
X96808Y3115D01*
X96800Y3088D01*
X96808Y3061D01*
X96825Y3043D01*
X96850Y3027D01*
X96879Y3016D01*
X96912Y3011D01*
X96942D01*
X96967Y3016D01*
X96996Y3027D01*
X97021Y3043D01*
X97038Y3059D01*
X97050Y3080D01*
Y3099D01*
X97042Y3120D01*
X97025Y3136D01*
G01X96800Y3239D02*
X97050D01*
X96800Y3361D01*
X97050D01*
G01X96800Y3461D02*
X97050D01*
Y3515D01*
X97038Y3536D01*
X97021Y3552D01*
X96996Y3565D01*
X96967Y3576D01*
X96925Y3579D01*
X96883Y3576D01*
X96854Y3565D01*
X96829Y3552D01*
X96812Y3536D01*
X96800Y3515D01*
Y3461D01*
G01X96425Y3096D02*
Y3149D01*
X96350D01*
X96325Y3133D01*
X96308Y3115D01*
X96300Y3088D01*
X96308Y3061D01*
X96325Y3043D01*
X96350Y3027D01*
X96379Y3016D01*
X96412Y3011D01*
X96442D01*
X96467Y3016D01*
X96496Y3027D01*
X96521Y3043D01*
X96538Y3059D01*
X96550Y3080D01*
Y3099D01*
X96542Y3120D01*
X96525Y3136D01*
G01X96300Y3239D02*
X96550D01*
X96300Y3361D01*
X96550D01*
G01X96300Y3461D02*
X96550D01*
Y3515D01*
X96538Y3536D01*
X96521Y3552D01*
X96496Y3565D01*
X96467Y3576D01*
X96425Y3579D01*
X96383Y3576D01*
X96354Y3565D01*
X96329Y3552D01*
X96312Y3536D01*
X96300Y3515D01*
Y3461D01*
G01X95975Y3096D02*
Y3149D01*
X95900D01*
X95875Y3133D01*
X95858Y3115D01*
X95850Y3088D01*
X95858Y3061D01*
X95875Y3043D01*
X95900Y3027D01*
X95929Y3016D01*
X95962Y3011D01*
X95992D01*
X96017Y3016D01*
X96046Y3027D01*
X96071Y3043D01*
X96088Y3059D01*
X96100Y3080D01*
Y3099D01*
X96092Y3120D01*
X96075Y3136D01*
G01X95850Y3239D02*
X96100D01*
X95850Y3361D01*
X96100D01*
G01X95850Y3461D02*
X96100D01*
Y3515D01*
X96088Y3536D01*
X96071Y3552D01*
X96046Y3565D01*
X96017Y3576D01*
X95975Y3579D01*
X95933Y3576D01*
X95904Y3565D01*
X95879Y3552D01*
X95862Y3536D01*
X95850Y3515D01*
Y3461D01*
G01X96025Y17296D02*
Y17349D01*
X95950D01*
X95925Y17333D01*
X95908Y17315D01*
X95900Y17288D01*
X95908Y17261D01*
X95925Y17243D01*
X95950Y17227D01*
X95979Y17216D01*
X96012Y17211D01*
X96042D01*
X96067Y17216D01*
X96096Y17227D01*
X96121Y17243D01*
X96138Y17259D01*
X96150Y17280D01*
Y17299D01*
X96142Y17320D01*
X96125Y17336D01*
G01X95900Y17439D02*
X96150D01*
X95900Y17561D01*
X96150D01*
G01X95900Y17661D02*
X96150D01*
Y17715D01*
X96138Y17736D01*
X96121Y17752D01*
X96096Y17765D01*
X96067Y17776D01*
X96025Y17779D01*
X95983Y17776D01*
X95954Y17765D01*
X95929Y17752D01*
X95912Y17736D01*
X95900Y17715D01*
Y17661D01*
G01X95525Y17296D02*
Y17349D01*
X95450D01*
X95425Y17333D01*
X95408Y17315D01*
X95400Y17288D01*
X95408Y17261D01*
X95425Y17243D01*
X95450Y17227D01*
X95479Y17216D01*
X95512Y17211D01*
X95542D01*
X95567Y17216D01*
X95596Y17227D01*
X95621Y17243D01*
X95638Y17259D01*
X95650Y17280D01*
Y17299D01*
X95642Y17320D01*
X95625Y17336D01*
G01X95400Y17439D02*
X95650D01*
X95400Y17561D01*
X95650D01*
G01X95400Y17661D02*
X95650D01*
Y17715D01*
X95638Y17736D01*
X95621Y17752D01*
X95596Y17765D01*
X95567Y17776D01*
X95525Y17779D01*
X95483Y17776D01*
X95454Y17765D01*
X95429Y17752D01*
X95412Y17736D01*
X95400Y17715D01*
Y17661D01*
G01X96575Y17296D02*
Y17349D01*
X96500D01*
X96475Y17333D01*
X96458Y17315D01*
X96450Y17288D01*
X96458Y17261D01*
X96475Y17243D01*
X96500Y17227D01*
X96529Y17216D01*
X96562Y17211D01*
X96592D01*
X96617Y17216D01*
X96646Y17227D01*
X96671Y17243D01*
X96688Y17259D01*
X96700Y17280D01*
Y17299D01*
X96692Y17320D01*
X96675Y17336D01*
G01X96450Y17439D02*
X96700D01*
X96450Y17561D01*
X96700D01*
G01X96450Y17661D02*
X96700D01*
Y17715D01*
X96688Y17736D01*
X96671Y17752D01*
X96646Y17765D01*
X96617Y17776D01*
X96575Y17779D01*
X96533Y17776D01*
X96504Y17765D01*
X96479Y17752D01*
X96462Y17736D01*
X96450Y17715D01*
Y17661D01*
G01X97025Y17296D02*
Y17349D01*
X96950D01*
X96925Y17333D01*
X96908Y17315D01*
X96900Y17288D01*
X96908Y17261D01*
X96925Y17243D01*
X96950Y17227D01*
X96979Y17216D01*
X97012Y17211D01*
X97042D01*
X97067Y17216D01*
X97096Y17227D01*
X97121Y17243D01*
X97138Y17259D01*
X97150Y17280D01*
Y17299D01*
X97142Y17320D01*
X97125Y17336D01*
G01X96900Y17439D02*
X97150D01*
X96900Y17561D01*
X97150D01*
G01X96900Y17661D02*
X97150D01*
Y17715D01*
X97138Y17736D01*
X97121Y17752D01*
X97096Y17765D01*
X97067Y17776D01*
X97025Y17779D01*
X96983Y17776D01*
X96954Y17765D01*
X96929Y17752D01*
X96912Y17736D01*
X96900Y17715D01*
Y17661D01*
G01X97975Y2996D02*
Y3049D01*
X97900D01*
X97875Y3033D01*
X97858Y3015D01*
X97850Y2988D01*
X97858Y2961D01*
X97875Y2943D01*
X97900Y2927D01*
X97929Y2916D01*
X97962Y2911D01*
X97992D01*
X98017Y2916D01*
X98046Y2927D01*
X98071Y2943D01*
X98088Y2959D01*
X98100Y2980D01*
Y2999D01*
X98092Y3020D01*
X98075Y3036D01*
G01X97850Y3139D02*
X98100D01*
X97850Y3261D01*
X98100D01*
G01X97850Y3361D02*
X98100D01*
Y3415D01*
X98088Y3436D01*
X98071Y3452D01*
X98046Y3465D01*
X98017Y3476D01*
X97975Y3479D01*
X97933Y3476D01*
X97904Y3465D01*
X97879Y3452D01*
X97863Y3436D01*
X97850Y3415D01*
Y3361D01*
G01X98600Y2609D02*
X98850D01*
Y2711D01*
G01X98729Y2673D02*
Y2609D01*
G01X98850Y2821D02*
X98671D01*
X98633Y2832D01*
X98608Y2853D01*
X98600Y2880D01*
X98608Y2907D01*
X98633Y2928D01*
X98671Y2939D01*
X98850D01*
G01X98633Y3044D02*
X98612Y3065D01*
X98600Y3089D01*
Y3111D01*
X98612Y3132D01*
X98633Y3148D01*
X98663Y3156D01*
X98692Y3151D01*
X98717Y3137D01*
X98733Y3113D01*
X98742Y3081D01*
X98758Y3063D01*
X98788Y3055D01*
X98817Y3060D01*
X98838Y3073D01*
X98850Y3092D01*
Y3111D01*
X98842Y3129D01*
X98821Y3145D01*
G01X98600Y3373D02*
Y3267D01*
X98850D01*
Y3373D01*
G01X98729Y3331D02*
Y3267D01*
G01X98808Y3489D02*
X98833Y3505D01*
X98846Y3524D01*
X98850Y3545D01*
X98842Y3572D01*
X98821Y3591D01*
X98796Y3596D01*
X98771Y3593D01*
X98750Y3583D01*
X98708Y3529D01*
X98679Y3505D01*
X98638Y3489D01*
X98600Y3484D01*
Y3596D01*
G01X98425Y2686D02*
Y2739D01*
X98350D01*
X98325Y2723D01*
X98308Y2705D01*
X98300Y2678D01*
X98308Y2651D01*
X98325Y2633D01*
X98350Y2617D01*
X98379Y2606D01*
X98412Y2601D01*
X98442D01*
X98467Y2606D01*
X98496Y2617D01*
X98521Y2633D01*
X98538Y2649D01*
X98550Y2670D01*
Y2689D01*
X98542Y2710D01*
X98525Y2726D01*
G01X98300Y2829D02*
X98550D01*
X98300Y2951D01*
X98550D01*
G01X98300Y3051D02*
X98550D01*
Y3105D01*
X98538Y3126D01*
X98521Y3142D01*
X98496Y3155D01*
X98467Y3166D01*
X98425Y3169D01*
X98383Y3166D01*
X98354Y3155D01*
X98329Y3142D01*
X98312Y3126D01*
X98300Y3105D01*
Y3051D01*
G01X98292Y3282D02*
X98550Y3378D01*
G01X97425Y3096D02*
Y3149D01*
X97350D01*
X97325Y3133D01*
X97308Y3115D01*
X97300Y3088D01*
X97308Y3061D01*
X97325Y3043D01*
X97350Y3027D01*
X97379Y3016D01*
X97413Y3011D01*
X97442D01*
X97467Y3016D01*
X97496Y3027D01*
X97521Y3043D01*
X97538Y3059D01*
X97550Y3080D01*
Y3099D01*
X97542Y3120D01*
X97525Y3136D01*
G01X97300Y3239D02*
X97550D01*
X97300Y3361D01*
X97550D01*
G01X97300Y3461D02*
X97550D01*
Y3515D01*
X97538Y3536D01*
X97521Y3552D01*
X97496Y3565D01*
X97467Y3576D01*
X97425Y3579D01*
X97383Y3576D01*
X97354Y3565D01*
X97329Y3552D01*
X97313Y3536D01*
X97300Y3515D01*
Y3461D01*
G01X98025Y17296D02*
Y17349D01*
X97950D01*
X97925Y17333D01*
X97908Y17315D01*
X97900Y17288D01*
X97908Y17261D01*
X97925Y17243D01*
X97950Y17227D01*
X97979Y17216D01*
X98012Y17211D01*
X98042D01*
X98067Y17216D01*
X98096Y17227D01*
X98121Y17243D01*
X98138Y17259D01*
X98150Y17280D01*
Y17299D01*
X98142Y17320D01*
X98125Y17336D01*
G01X97900Y17439D02*
X98150D01*
X97900Y17561D01*
X98150D01*
G01X97900Y17661D02*
X98150D01*
Y17715D01*
X98138Y17736D01*
X98121Y17752D01*
X98096Y17765D01*
X98067Y17776D01*
X98025Y17779D01*
X97983Y17776D01*
X97954Y17765D01*
X97929Y17752D01*
X97912Y17736D01*
X97900Y17715D01*
Y17661D01*
G01X98895Y16446D02*
Y16499D01*
X98820D01*
X98795Y16483D01*
X98778Y16465D01*
X98770Y16438D01*
X98778Y16411D01*
X98795Y16393D01*
X98820Y16377D01*
X98849Y16366D01*
X98882Y16361D01*
X98912D01*
X98937Y16366D01*
X98966Y16377D01*
X98991Y16393D01*
X99008Y16409D01*
X99020Y16430D01*
Y16449D01*
X99012Y16470D01*
X98995Y16486D01*
G01X98770Y16589D02*
X99020D01*
X98770Y16711D01*
X99020D01*
G01X98770Y16811D02*
X99020D01*
Y16865D01*
X99008Y16886D01*
X98991Y16902D01*
X98966Y16915D01*
X98937Y16926D01*
X98895Y16929D01*
X98853Y16926D01*
X98824Y16915D01*
X98799Y16902D01*
X98782Y16886D01*
X98770Y16865D01*
Y16811D01*
G01X98762Y17042D02*
X99020Y17138D01*
G01X98770Y17254D02*
X99020D01*
G01Y17366D02*
X98770D01*
G01X98895D02*
Y17254D01*
G01Y17546D02*
Y17599D01*
X98820D01*
X98795Y17583D01*
X98778Y17565D01*
X98770Y17538D01*
X98778Y17511D01*
X98795Y17493D01*
X98820Y17477D01*
X98849Y17466D01*
X98882Y17461D01*
X98912D01*
X98937Y17466D01*
X98966Y17477D01*
X98991Y17493D01*
X99008Y17509D01*
X99020Y17530D01*
Y17549D01*
X99012Y17570D01*
X98995Y17586D01*
G01X98770Y17689D02*
X99020D01*
X98770Y17811D01*
X99020D01*
G01X98770Y17911D02*
X99020D01*
Y17965D01*
X99008Y17986D01*
X98991Y18002D01*
X98966Y18015D01*
X98937Y18026D01*
X98895Y18029D01*
X98853Y18026D01*
X98824Y18015D01*
X98799Y18002D01*
X98782Y17986D01*
X98770Y17965D01*
Y17911D01*
G01X97525Y17296D02*
Y17349D01*
X97450D01*
X97425Y17333D01*
X97408Y17315D01*
X97400Y17288D01*
X97408Y17261D01*
X97425Y17243D01*
X97450Y17227D01*
X97479Y17216D01*
X97512Y17211D01*
X97542D01*
X97567Y17216D01*
X97596Y17227D01*
X97621Y17243D01*
X97638Y17259D01*
X97650Y17280D01*
Y17299D01*
X97642Y17320D01*
X97625Y17336D01*
G01X97400Y17439D02*
X97650D01*
X97400Y17561D01*
X97650D01*
G01X97400Y17661D02*
X97650D01*
Y17715D01*
X97638Y17736D01*
X97621Y17752D01*
X97596Y17765D01*
X97567Y17776D01*
X97525Y17779D01*
X97483Y17776D01*
X97454Y17765D01*
X97429Y17752D01*
X97413Y17736D01*
X97400Y17715D01*
Y17661D01*
G01X105525Y3596D02*
Y3649D01*
X105450D01*
X105425Y3633D01*
X105408Y3615D01*
X105400Y3588D01*
X105408Y3561D01*
X105425Y3543D01*
X105450Y3527D01*
X105479Y3516D01*
X105512Y3511D01*
X105542D01*
X105567Y3516D01*
X105596Y3527D01*
X105621Y3543D01*
X105638Y3559D01*
X105650Y3580D01*
Y3599D01*
X105642Y3620D01*
X105625Y3636D01*
G01X105400Y3739D02*
X105650D01*
X105400Y3861D01*
X105650D01*
G01X105400Y3961D02*
X105650D01*
Y4015D01*
X105638Y4036D01*
X105621Y4052D01*
X105596Y4065D01*
X105567Y4076D01*
X105525Y4079D01*
X105483Y4076D01*
X105454Y4065D01*
X105429Y4052D01*
X105412Y4036D01*
X105400Y4015D01*
Y3961D01*
G01X105075Y3596D02*
Y3649D01*
X105000D01*
X104975Y3633D01*
X104958Y3615D01*
X104950Y3588D01*
X104958Y3561D01*
X104975Y3543D01*
X105000Y3527D01*
X105029Y3516D01*
X105062Y3511D01*
X105092D01*
X105117Y3516D01*
X105146Y3527D01*
X105171Y3543D01*
X105188Y3559D01*
X105200Y3580D01*
Y3599D01*
X105192Y3620D01*
X105175Y3636D01*
G01X104950Y3739D02*
X105200D01*
X104950Y3861D01*
X105200D01*
G01X104950Y3961D02*
X105200D01*
Y4015D01*
X105188Y4036D01*
X105171Y4052D01*
X105146Y4065D01*
X105117Y4076D01*
X105075Y4079D01*
X105033Y4076D01*
X105004Y4065D01*
X104979Y4052D01*
X104962Y4036D01*
X104950Y4015D01*
Y3961D01*
G01X105525Y16946D02*
Y16999D01*
X105450D01*
X105425Y16983D01*
X105408Y16965D01*
X105400Y16938D01*
X105408Y16911D01*
X105425Y16893D01*
X105450Y16877D01*
X105479Y16866D01*
X105512Y16861D01*
X105542D01*
X105567Y16866D01*
X105596Y16877D01*
X105621Y16893D01*
X105638Y16909D01*
X105650Y16930D01*
Y16949D01*
X105642Y16970D01*
X105625Y16986D01*
G01X105400Y17089D02*
X105650D01*
X105400Y17211D01*
X105650D01*
G01X105400Y17311D02*
X105650D01*
Y17365D01*
X105638Y17386D01*
X105621Y17402D01*
X105596Y17415D01*
X105567Y17426D01*
X105525Y17429D01*
X105483Y17426D01*
X105454Y17415D01*
X105429Y17402D01*
X105412Y17386D01*
X105400Y17365D01*
Y17311D01*
G01X105075Y16946D02*
Y16999D01*
X105000D01*
X104975Y16983D01*
X104958Y16965D01*
X104950Y16938D01*
X104958Y16911D01*
X104975Y16893D01*
X105000Y16877D01*
X105029Y16866D01*
X105062Y16861D01*
X105092D01*
X105117Y16866D01*
X105146Y16877D01*
X105171Y16893D01*
X105188Y16909D01*
X105200Y16930D01*
Y16949D01*
X105192Y16970D01*
X105175Y16986D01*
G01X104950Y17089D02*
X105200D01*
X104950Y17211D01*
X105200D01*
G01X104950Y17311D02*
X105200D01*
Y17365D01*
X105188Y17386D01*
X105171Y17402D01*
X105146Y17415D01*
X105117Y17426D01*
X105075Y17429D01*
X105033Y17426D01*
X105004Y17415D01*
X104979Y17402D01*
X104962Y17386D01*
X104950Y17365D01*
Y17311D01*
G01X107575Y3596D02*
Y3649D01*
X107500D01*
X107475Y3633D01*
X107458Y3615D01*
X107450Y3588D01*
X107458Y3561D01*
X107475Y3543D01*
X107500Y3527D01*
X107529Y3516D01*
X107562Y3511D01*
X107592D01*
X107617Y3516D01*
X107646Y3527D01*
X107671Y3543D01*
X107688Y3559D01*
X107700Y3580D01*
Y3599D01*
X107692Y3620D01*
X107675Y3636D01*
G01X107450Y3739D02*
X107700D01*
X107450Y3861D01*
X107700D01*
G01X107450Y3961D02*
X107700D01*
Y4015D01*
X107688Y4036D01*
X107671Y4052D01*
X107646Y4065D01*
X107617Y4076D01*
X107575Y4079D01*
X107533Y4076D01*
X107504Y4065D01*
X107479Y4052D01*
X107462Y4036D01*
X107450Y4015D01*
Y3961D01*
G01X106525Y3596D02*
Y3649D01*
X106450D01*
X106425Y3633D01*
X106408Y3615D01*
X106400Y3588D01*
X106408Y3561D01*
X106425Y3543D01*
X106450Y3527D01*
X106479Y3516D01*
X106513Y3511D01*
X106542D01*
X106567Y3516D01*
X106596Y3527D01*
X106621Y3543D01*
X106638Y3559D01*
X106650Y3580D01*
Y3599D01*
X106642Y3620D01*
X106625Y3636D01*
G01X106400Y3739D02*
X106650D01*
X106400Y3861D01*
X106650D01*
G01X106400Y3961D02*
X106650D01*
Y4015D01*
X106638Y4036D01*
X106621Y4052D01*
X106596Y4065D01*
X106567Y4076D01*
X106525Y4079D01*
X106483Y4076D01*
X106454Y4065D01*
X106429Y4052D01*
X106412Y4036D01*
X106400Y4015D01*
Y3961D01*
G01X107075Y3596D02*
Y3649D01*
X107000D01*
X106975Y3633D01*
X106958Y3615D01*
X106950Y3588D01*
X106958Y3561D01*
X106975Y3543D01*
X107000Y3527D01*
X107029Y3516D01*
X107062Y3511D01*
X107092D01*
X107117Y3516D01*
X107146Y3527D01*
X107171Y3543D01*
X107188Y3559D01*
X107200Y3580D01*
Y3599D01*
X107192Y3620D01*
X107175Y3636D01*
G01X106950Y3739D02*
X107200D01*
X106950Y3861D01*
X107200D01*
G01X106950Y3961D02*
X107200D01*
Y4015D01*
X107188Y4036D01*
X107171Y4052D01*
X107146Y4065D01*
X107117Y4076D01*
X107075Y4079D01*
X107033Y4076D01*
X107004Y4065D01*
X106979Y4052D01*
X106963Y4036D01*
X106950Y4015D01*
Y3961D01*
G01X106025Y3596D02*
Y3649D01*
X105950D01*
X105925Y3633D01*
X105908Y3615D01*
X105900Y3588D01*
X105908Y3561D01*
X105925Y3543D01*
X105950Y3527D01*
X105979Y3516D01*
X106012Y3511D01*
X106042D01*
X106067Y3516D01*
X106096Y3527D01*
X106121Y3543D01*
X106138Y3559D01*
X106150Y3580D01*
Y3599D01*
X106142Y3620D01*
X106125Y3636D01*
G01X105900Y3739D02*
X106150D01*
X105900Y3861D01*
X106150D01*
G01X105900Y3961D02*
X106150D01*
Y4015D01*
X106138Y4036D01*
X106121Y4052D01*
X106096Y4065D01*
X106067Y4076D01*
X106025Y4079D01*
X105983Y4076D01*
X105954Y4065D01*
X105929Y4052D01*
X105912Y4036D01*
X105900Y4015D01*
Y3961D01*
G01X108025Y3596D02*
Y3649D01*
X107950D01*
X107925Y3633D01*
X107908Y3615D01*
X107900Y3588D01*
X107908Y3561D01*
X107925Y3543D01*
X107950Y3527D01*
X107979Y3516D01*
X108012Y3511D01*
X108042D01*
X108067Y3516D01*
X108096Y3527D01*
X108121Y3543D01*
X108138Y3559D01*
X108150Y3580D01*
Y3599D01*
X108142Y3620D01*
X108125Y3636D01*
G01X107900Y3739D02*
X108150D01*
X107900Y3861D01*
X108150D01*
G01X107900Y3961D02*
X108150D01*
Y4015D01*
X108138Y4036D01*
X108121Y4052D01*
X108096Y4065D01*
X108067Y4076D01*
X108025Y4079D01*
X107983Y4076D01*
X107954Y4065D01*
X107929Y4052D01*
X107912Y4036D01*
X107900Y4015D01*
Y3961D01*
G01X106025Y16946D02*
Y16999D01*
X105950D01*
X105925Y16983D01*
X105908Y16965D01*
X105900Y16938D01*
X105908Y16911D01*
X105925Y16893D01*
X105950Y16877D01*
X105979Y16866D01*
X106012Y16861D01*
X106042D01*
X106067Y16866D01*
X106096Y16877D01*
X106121Y16893D01*
X106138Y16909D01*
X106150Y16930D01*
Y16949D01*
X106142Y16970D01*
X106125Y16986D01*
G01X105900Y17089D02*
X106150D01*
X105900Y17211D01*
X106150D01*
G01X105900Y17311D02*
X106150D01*
Y17365D01*
X106138Y17386D01*
X106121Y17402D01*
X106096Y17415D01*
X106067Y17426D01*
X106025Y17429D01*
X105983Y17426D01*
X105954Y17415D01*
X105929Y17402D01*
X105912Y17386D01*
X105900Y17365D01*
Y17311D01*
G01X108025Y16946D02*
Y16999D01*
X107950D01*
X107925Y16983D01*
X107908Y16965D01*
X107900Y16938D01*
X107908Y16911D01*
X107925Y16893D01*
X107950Y16877D01*
X107979Y16866D01*
X108012Y16861D01*
X108042D01*
X108067Y16866D01*
X108096Y16877D01*
X108121Y16893D01*
X108138Y16909D01*
X108150Y16930D01*
Y16949D01*
X108142Y16970D01*
X108125Y16986D01*
G01X107900Y17089D02*
X108150D01*
X107900Y17211D01*
X108150D01*
G01X107900Y17311D02*
X108150D01*
Y17365D01*
X108138Y17386D01*
X108121Y17402D01*
X108096Y17415D01*
X108067Y17426D01*
X108025Y17429D01*
X107983Y17426D01*
X107954Y17415D01*
X107929Y17402D01*
X107912Y17386D01*
X107900Y17365D01*
Y17311D01*
G01X106525Y16946D02*
Y16999D01*
X106450D01*
X106425Y16983D01*
X106408Y16965D01*
X106400Y16938D01*
X106408Y16911D01*
X106425Y16893D01*
X106450Y16877D01*
X106479Y16866D01*
X106513Y16861D01*
X106542D01*
X106567Y16866D01*
X106596Y16877D01*
X106621Y16893D01*
X106638Y16909D01*
X106650Y16930D01*
Y16949D01*
X106642Y16970D01*
X106625Y16986D01*
G01X106400Y17089D02*
X106650D01*
X106400Y17211D01*
X106650D01*
G01X106400Y17311D02*
X106650D01*
Y17365D01*
X106638Y17386D01*
X106621Y17402D01*
X106596Y17415D01*
X106567Y17426D01*
X106525Y17429D01*
X106483Y17426D01*
X106454Y17415D01*
X106429Y17402D01*
X106412Y17386D01*
X106400Y17365D01*
Y17311D01*
G01X107075Y16946D02*
Y16999D01*
X107000D01*
X106975Y16983D01*
X106958Y16965D01*
X106950Y16938D01*
X106958Y16911D01*
X106975Y16893D01*
X107000Y16877D01*
X107029Y16866D01*
X107062Y16861D01*
X107092D01*
X107117Y16866D01*
X107146Y16877D01*
X107171Y16893D01*
X107188Y16909D01*
X107200Y16930D01*
Y16949D01*
X107192Y16970D01*
X107175Y16986D01*
G01X106950Y17089D02*
X107200D01*
X106950Y17211D01*
X107200D01*
G01X106950Y17311D02*
X107200D01*
Y17365D01*
X107188Y17386D01*
X107171Y17402D01*
X107146Y17415D01*
X107117Y17426D01*
X107075Y17429D01*
X107033Y17426D01*
X107004Y17415D01*
X106979Y17402D01*
X106963Y17386D01*
X106950Y17365D01*
Y17311D01*
G01X107575Y16946D02*
Y16999D01*
X107500D01*
X107475Y16983D01*
X107458Y16965D01*
X107450Y16938D01*
X107458Y16911D01*
X107475Y16893D01*
X107500Y16877D01*
X107529Y16866D01*
X107562Y16861D01*
X107592D01*
X107617Y16866D01*
X107646Y16877D01*
X107671Y16893D01*
X107688Y16909D01*
X107700Y16930D01*
Y16949D01*
X107692Y16970D01*
X107675Y16986D01*
G01X107450Y17089D02*
X107700D01*
X107450Y17211D01*
X107700D01*
G01X107450Y17311D02*
X107700D01*
Y17365D01*
X107688Y17386D01*
X107671Y17402D01*
X107646Y17415D01*
X107617Y17426D01*
X107575Y17429D01*
X107533Y17426D01*
X107504Y17415D01*
X107479Y17402D01*
X107462Y17386D01*
X107450Y17365D01*
Y17311D01*
G01X110075Y3596D02*
Y3649D01*
X110000D01*
X109975Y3633D01*
X109958Y3615D01*
X109950Y3588D01*
X109958Y3561D01*
X109975Y3543D01*
X110000Y3527D01*
X110029Y3516D01*
X110062Y3511D01*
X110092D01*
X110117Y3516D01*
X110146Y3527D01*
X110171Y3543D01*
X110188Y3559D01*
X110200Y3580D01*
Y3599D01*
X110192Y3620D01*
X110175Y3636D01*
G01X109950Y3739D02*
X110200D01*
X109950Y3861D01*
X110200D01*
G01X109950Y3961D02*
X110200D01*
Y4015D01*
X110188Y4036D01*
X110171Y4052D01*
X110146Y4065D01*
X110117Y4076D01*
X110075Y4079D01*
X110033Y4076D01*
X110004Y4065D01*
X109979Y4052D01*
X109962Y4036D01*
X109950Y4015D01*
Y3961D01*
G01X108525Y3596D02*
Y3649D01*
X108450D01*
X108425Y3633D01*
X108408Y3615D01*
X108400Y3588D01*
X108408Y3561D01*
X108425Y3543D01*
X108450Y3527D01*
X108479Y3516D01*
X108512Y3511D01*
X108542D01*
X108567Y3516D01*
X108596Y3527D01*
X108621Y3543D01*
X108638Y3559D01*
X108650Y3580D01*
Y3599D01*
X108642Y3620D01*
X108625Y3636D01*
G01X108400Y3739D02*
X108650D01*
X108400Y3861D01*
X108650D01*
G01X108400Y3961D02*
X108650D01*
Y4015D01*
X108638Y4036D01*
X108621Y4052D01*
X108596Y4065D01*
X108567Y4076D01*
X108525Y4079D01*
X108483Y4076D01*
X108454Y4065D01*
X108429Y4052D01*
X108412Y4036D01*
X108400Y4015D01*
Y3961D01*
G01X109575Y3596D02*
Y3649D01*
X109500D01*
X109475Y3633D01*
X109458Y3615D01*
X109450Y3588D01*
X109458Y3561D01*
X109475Y3543D01*
X109500Y3527D01*
X109529Y3516D01*
X109562Y3511D01*
X109592D01*
X109617Y3516D01*
X109646Y3527D01*
X109671Y3543D01*
X109688Y3559D01*
X109700Y3580D01*
Y3599D01*
X109692Y3620D01*
X109675Y3636D01*
G01X109450Y3739D02*
X109700D01*
X109450Y3861D01*
X109700D01*
G01X109450Y3961D02*
X109700D01*
Y4015D01*
X109688Y4036D01*
X109671Y4052D01*
X109646Y4065D01*
X109617Y4076D01*
X109575Y4079D01*
X109533Y4076D01*
X109504Y4065D01*
X109479Y4052D01*
X109463Y4036D01*
X109450Y4015D01*
Y3961D01*
G01X109025Y3596D02*
Y3649D01*
X108950D01*
X108925Y3633D01*
X108908Y3615D01*
X108900Y3588D01*
X108908Y3561D01*
X108925Y3543D01*
X108950Y3527D01*
X108979Y3516D01*
X109013Y3511D01*
X109042D01*
X109067Y3516D01*
X109096Y3527D01*
X109121Y3543D01*
X109138Y3559D01*
X109150Y3580D01*
Y3599D01*
X109142Y3620D01*
X109125Y3636D01*
G01X108900Y3739D02*
X109150D01*
X108900Y3861D01*
X109150D01*
G01X108900Y3961D02*
X109150D01*
Y4015D01*
X109138Y4036D01*
X109121Y4052D01*
X109096Y4065D01*
X109067Y4076D01*
X109025Y4079D01*
X108983Y4076D01*
X108954Y4065D01*
X108929Y4052D01*
X108912Y4036D01*
X108900Y4015D01*
Y3961D01*
G01X108525Y16946D02*
Y16999D01*
X108450D01*
X108425Y16983D01*
X108408Y16965D01*
X108400Y16938D01*
X108408Y16911D01*
X108425Y16893D01*
X108450Y16877D01*
X108479Y16866D01*
X108512Y16861D01*
X108542D01*
X108567Y16866D01*
X108596Y16877D01*
X108621Y16893D01*
X108638Y16909D01*
X108650Y16930D01*
Y16949D01*
X108642Y16970D01*
X108625Y16986D01*
G01X108400Y17089D02*
X108650D01*
X108400Y17211D01*
X108650D01*
G01X108400Y17311D02*
X108650D01*
Y17365D01*
X108638Y17386D01*
X108621Y17402D01*
X108596Y17415D01*
X108567Y17426D01*
X108525Y17429D01*
X108483Y17426D01*
X108454Y17415D01*
X108429Y17402D01*
X108412Y17386D01*
X108400Y17365D01*
Y17311D01*
G01X110075Y16946D02*
Y16999D01*
X110000D01*
X109975Y16983D01*
X109958Y16965D01*
X109950Y16938D01*
X109958Y16911D01*
X109975Y16893D01*
X110000Y16877D01*
X110029Y16866D01*
X110062Y16861D01*
X110092D01*
X110117Y16866D01*
X110146Y16877D01*
X110171Y16893D01*
X110188Y16909D01*
X110200Y16930D01*
Y16949D01*
X110192Y16970D01*
X110175Y16986D01*
G01X109950Y17089D02*
X110200D01*
X109950Y17211D01*
X110200D01*
G01X109950Y17311D02*
X110200D01*
Y17365D01*
X110188Y17386D01*
X110171Y17402D01*
X110146Y17415D01*
X110117Y17426D01*
X110075Y17429D01*
X110033Y17426D01*
X110004Y17415D01*
X109979Y17402D01*
X109962Y17386D01*
X109950Y17365D01*
Y17311D01*
G01X109025Y16946D02*
Y16999D01*
X108950D01*
X108925Y16983D01*
X108908Y16965D01*
X108900Y16938D01*
X108908Y16911D01*
X108925Y16893D01*
X108950Y16877D01*
X108979Y16866D01*
X109013Y16861D01*
X109042D01*
X109067Y16866D01*
X109096Y16877D01*
X109121Y16893D01*
X109138Y16909D01*
X109150Y16930D01*
Y16949D01*
X109142Y16970D01*
X109125Y16986D01*
G01X108900Y17089D02*
X109150D01*
X108900Y17211D01*
X109150D01*
G01X108900Y17311D02*
X109150D01*
Y17365D01*
X109138Y17386D01*
X109121Y17402D01*
X109096Y17415D01*
X109067Y17426D01*
X109025Y17429D01*
X108983Y17426D01*
X108954Y17415D01*
X108929Y17402D01*
X108912Y17386D01*
X108900Y17365D01*
Y17311D01*
G01X109575Y16946D02*
Y16999D01*
X109500D01*
X109475Y16983D01*
X109458Y16965D01*
X109450Y16938D01*
X109458Y16911D01*
X109475Y16893D01*
X109500Y16877D01*
X109529Y16866D01*
X109562Y16861D01*
X109592D01*
X109617Y16866D01*
X109646Y16877D01*
X109671Y16893D01*
X109688Y16909D01*
X109700Y16930D01*
Y16949D01*
X109692Y16970D01*
X109675Y16986D01*
G01X109450Y17089D02*
X109700D01*
X109450Y17211D01*
X109700D01*
G01X109450Y17311D02*
X109700D01*
Y17365D01*
X109688Y17386D01*
X109671Y17402D01*
X109646Y17415D01*
X109617Y17426D01*
X109575Y17429D01*
X109533Y17426D01*
X109504Y17415D01*
X109479Y17402D01*
X109463Y17386D01*
X109450Y17365D01*
Y17311D01*
G01X111025Y3596D02*
Y3649D01*
X110950D01*
X110925Y3633D01*
X110908Y3615D01*
X110900Y3588D01*
X110908Y3561D01*
X110925Y3543D01*
X110950Y3527D01*
X110979Y3516D01*
X111012Y3511D01*
X111042D01*
X111067Y3516D01*
X111096Y3527D01*
X111121Y3543D01*
X111138Y3559D01*
X111150Y3580D01*
Y3599D01*
X111142Y3620D01*
X111125Y3636D01*
G01X110900Y3739D02*
X111150D01*
X110900Y3861D01*
X111150D01*
G01X110900Y3961D02*
X111150D01*
Y4015D01*
X111138Y4036D01*
X111121Y4052D01*
X111096Y4065D01*
X111067Y4076D01*
X111025Y4079D01*
X110983Y4076D01*
X110954Y4065D01*
X110929Y4052D01*
X110912Y4036D01*
X110900Y4015D01*
Y3961D01*
G01X112075Y3596D02*
Y3649D01*
X112000D01*
X111975Y3633D01*
X111958Y3615D01*
X111950Y3588D01*
X111958Y3561D01*
X111975Y3543D01*
X112000Y3527D01*
X112029Y3516D01*
X112062Y3511D01*
X112092D01*
X112117Y3516D01*
X112146Y3527D01*
X112171Y3543D01*
X112188Y3559D01*
X112200Y3580D01*
Y3599D01*
X112192Y3620D01*
X112175Y3636D01*
G01X111950Y3739D02*
X112200D01*
X111950Y3861D01*
X112200D01*
G01X111950Y3961D02*
X112200D01*
Y4015D01*
X112188Y4036D01*
X112171Y4052D01*
X112146Y4065D01*
X112117Y4076D01*
X112075Y4079D01*
X112033Y4076D01*
X112004Y4065D01*
X111979Y4052D01*
X111963Y4036D01*
X111950Y4015D01*
Y3961D01*
G01X111525Y3596D02*
Y3649D01*
X111450D01*
X111425Y3633D01*
X111408Y3615D01*
X111400Y3588D01*
X111408Y3561D01*
X111425Y3543D01*
X111450Y3527D01*
X111479Y3516D01*
X111513Y3511D01*
X111542D01*
X111567Y3516D01*
X111596Y3527D01*
X111621Y3543D01*
X111638Y3559D01*
X111650Y3580D01*
Y3599D01*
X111642Y3620D01*
X111625Y3636D01*
G01X111400Y3739D02*
X111650D01*
X111400Y3861D01*
X111650D01*
G01X111400Y3961D02*
X111650D01*
Y4015D01*
X111638Y4036D01*
X111621Y4052D01*
X111596Y4065D01*
X111567Y4076D01*
X111525Y4079D01*
X111483Y4076D01*
X111454Y4065D01*
X111429Y4052D01*
X111412Y4036D01*
X111400Y4015D01*
Y3961D01*
G01X110525Y3596D02*
Y3649D01*
X110450D01*
X110425Y3633D01*
X110408Y3615D01*
X110400Y3588D01*
X110408Y3561D01*
X110425Y3543D01*
X110450Y3527D01*
X110479Y3516D01*
X110512Y3511D01*
X110542D01*
X110567Y3516D01*
X110596Y3527D01*
X110621Y3543D01*
X110638Y3559D01*
X110650Y3580D01*
Y3599D01*
X110642Y3620D01*
X110625Y3636D01*
G01X110400Y3739D02*
X110650D01*
X110400Y3861D01*
X110650D01*
G01X110400Y3961D02*
X110650D01*
Y4015D01*
X110638Y4036D01*
X110621Y4052D01*
X110596Y4065D01*
X110567Y4076D01*
X110525Y4079D01*
X110483Y4076D01*
X110454Y4065D01*
X110429Y4052D01*
X110412Y4036D01*
X110400Y4015D01*
Y3961D01*
G01X110525Y16946D02*
Y16999D01*
X110450D01*
X110425Y16983D01*
X110408Y16965D01*
X110400Y16938D01*
X110408Y16911D01*
X110425Y16893D01*
X110450Y16877D01*
X110479Y16866D01*
X110512Y16861D01*
X110542D01*
X110567Y16866D01*
X110596Y16877D01*
X110621Y16893D01*
X110638Y16909D01*
X110650Y16930D01*
Y16949D01*
X110642Y16970D01*
X110625Y16986D01*
G01X110400Y17089D02*
X110650D01*
X110400Y17211D01*
X110650D01*
G01X110400Y17311D02*
X110650D01*
Y17365D01*
X110638Y17386D01*
X110621Y17402D01*
X110596Y17415D01*
X110567Y17426D01*
X110525Y17429D01*
X110483Y17426D01*
X110454Y17415D01*
X110429Y17402D01*
X110412Y17386D01*
X110400Y17365D01*
Y17311D01*
G01X112075Y16946D02*
Y16999D01*
X112000D01*
X111975Y16983D01*
X111958Y16965D01*
X111950Y16938D01*
X111958Y16911D01*
X111975Y16893D01*
X112000Y16877D01*
X112029Y16866D01*
X112062Y16861D01*
X112092D01*
X112117Y16866D01*
X112146Y16877D01*
X112171Y16893D01*
X112188Y16909D01*
X112200Y16930D01*
Y16949D01*
X112192Y16970D01*
X112175Y16986D01*
G01X111950Y17089D02*
X112200D01*
X111950Y17211D01*
X112200D01*
G01X111950Y17311D02*
X112200D01*
Y17365D01*
X112188Y17386D01*
X112171Y17402D01*
X112146Y17415D01*
X112117Y17426D01*
X112075Y17429D01*
X112033Y17426D01*
X112004Y17415D01*
X111979Y17402D01*
X111963Y17386D01*
X111950Y17365D01*
Y17311D01*
G01X111025Y16946D02*
Y16999D01*
X110950D01*
X110925Y16983D01*
X110908Y16965D01*
X110900Y16938D01*
X110908Y16911D01*
X110925Y16893D01*
X110950Y16877D01*
X110979Y16866D01*
X111012Y16861D01*
X111042D01*
X111067Y16866D01*
X111096Y16877D01*
X111121Y16893D01*
X111138Y16909D01*
X111150Y16930D01*
Y16949D01*
X111142Y16970D01*
X111125Y16986D01*
G01X110900Y17089D02*
X111150D01*
X110900Y17211D01*
X111150D01*
G01X110900Y17311D02*
X111150D01*
Y17365D01*
X111138Y17386D01*
X111121Y17402D01*
X111096Y17415D01*
X111067Y17426D01*
X111025Y17429D01*
X110983Y17426D01*
X110954Y17415D01*
X110929Y17402D01*
X110912Y17386D01*
X110900Y17365D01*
Y17311D01*
G01X111525Y16946D02*
Y16999D01*
X111450D01*
X111425Y16983D01*
X111408Y16965D01*
X111400Y16938D01*
X111408Y16911D01*
X111425Y16893D01*
X111450Y16877D01*
X111479Y16866D01*
X111513Y16861D01*
X111542D01*
X111567Y16866D01*
X111596Y16877D01*
X111621Y16893D01*
X111638Y16909D01*
X111650Y16930D01*
Y16949D01*
X111642Y16970D01*
X111625Y16986D01*
G01X111400Y17089D02*
X111650D01*
X111400Y17211D01*
X111650D01*
G01X111400Y17311D02*
X111650D01*
Y17365D01*
X111638Y17386D01*
X111621Y17402D01*
X111596Y17415D01*
X111567Y17426D01*
X111525Y17429D01*
X111483Y17426D01*
X111454Y17415D01*
X111429Y17402D01*
X111412Y17386D01*
X111400Y17365D01*
Y17311D01*
G01X113475Y3596D02*
Y3649D01*
X113400D01*
X113375Y3633D01*
X113358Y3615D01*
X113350Y3588D01*
X113358Y3561D01*
X113375Y3543D01*
X113400Y3527D01*
X113429Y3516D01*
X113462Y3511D01*
X113492D01*
X113517Y3516D01*
X113546Y3527D01*
X113571Y3543D01*
X113588Y3559D01*
X113600Y3580D01*
Y3599D01*
X113592Y3620D01*
X113575Y3636D01*
G01X113350Y3739D02*
X113600D01*
X113350Y3861D01*
X113600D01*
G01X113350Y3961D02*
X113600D01*
Y4015D01*
X113588Y4036D01*
X113571Y4052D01*
X113546Y4065D01*
X113517Y4076D01*
X113475Y4079D01*
X113433Y4076D01*
X113404Y4065D01*
X113379Y4052D01*
X113362Y4036D01*
X113350Y4015D01*
Y3961D01*
G01X113975Y3596D02*
Y3649D01*
X113900D01*
X113875Y3633D01*
X113858Y3615D01*
X113850Y3588D01*
X113858Y3561D01*
X113875Y3543D01*
X113900Y3527D01*
X113929Y3516D01*
X113962Y3511D01*
X113992D01*
X114017Y3516D01*
X114046Y3527D01*
X114071Y3543D01*
X114088Y3559D01*
X114100Y3580D01*
Y3599D01*
X114092Y3620D01*
X114075Y3636D01*
G01X113850Y3739D02*
X114100D01*
X113850Y3861D01*
X114100D01*
G01X113850Y3961D02*
X114100D01*
Y4015D01*
X114088Y4036D01*
X114071Y4052D01*
X114046Y4065D01*
X114017Y4076D01*
X113975Y4079D01*
X113933Y4076D01*
X113904Y4065D01*
X113879Y4052D01*
X113862Y4036D01*
X113850Y4015D01*
Y3961D01*
G01X112525Y3596D02*
Y3649D01*
X112450D01*
X112425Y3633D01*
X112408Y3615D01*
X112400Y3588D01*
X112408Y3561D01*
X112425Y3543D01*
X112450Y3527D01*
X112479Y3516D01*
X112512Y3511D01*
X112542D01*
X112567Y3516D01*
X112596Y3527D01*
X112621Y3543D01*
X112638Y3559D01*
X112650Y3580D01*
Y3599D01*
X112642Y3620D01*
X112625Y3636D01*
G01X112400Y3739D02*
X112650D01*
X112400Y3861D01*
X112650D01*
G01X112400Y3961D02*
X112650D01*
Y4015D01*
X112638Y4036D01*
X112621Y4052D01*
X112596Y4065D01*
X112567Y4076D01*
X112525Y4079D01*
X112483Y4076D01*
X112454Y4065D01*
X112429Y4052D01*
X112413Y4036D01*
X112400Y4015D01*
Y3961D01*
G01X112975Y3596D02*
Y3649D01*
X112900D01*
X112875Y3633D01*
X112858Y3615D01*
X112850Y3588D01*
X112858Y3561D01*
X112875Y3543D01*
X112900Y3527D01*
X112929Y3516D01*
X112962Y3511D01*
X112992D01*
X113017Y3516D01*
X113046Y3527D01*
X113071Y3543D01*
X113088Y3559D01*
X113100Y3580D01*
Y3599D01*
X113092Y3620D01*
X113075Y3636D01*
G01X112850Y3739D02*
X113100D01*
X112850Y3861D01*
X113100D01*
G01X112850Y3961D02*
X113100D01*
Y4015D01*
X113088Y4036D01*
X113071Y4052D01*
X113046Y4065D01*
X113017Y4076D01*
X112975Y4079D01*
X112933Y4076D01*
X112904Y4065D01*
X112879Y4052D01*
X112863Y4036D01*
X112850Y4015D01*
Y3961D01*
G01X114525Y3596D02*
Y3649D01*
X114450D01*
X114425Y3633D01*
X114408Y3615D01*
X114400Y3588D01*
X114408Y3561D01*
X114425Y3543D01*
X114450Y3527D01*
X114479Y3516D01*
X114512Y3511D01*
X114542D01*
X114567Y3516D01*
X114596Y3527D01*
X114621Y3543D01*
X114638Y3559D01*
X114650Y3580D01*
Y3599D01*
X114642Y3620D01*
X114625Y3636D01*
G01X114400Y3739D02*
X114650D01*
X114400Y3861D01*
X114650D01*
G01X114400Y3961D02*
X114650D01*
Y4015D01*
X114638Y4036D01*
X114621Y4052D01*
X114596Y4065D01*
X114567Y4076D01*
X114525Y4079D01*
X114483Y4076D01*
X114454Y4065D01*
X114429Y4052D01*
X114412Y4036D01*
X114400Y4015D01*
Y3961D01*
G01X112525Y16946D02*
Y16999D01*
X112450D01*
X112425Y16983D01*
X112408Y16965D01*
X112400Y16938D01*
X112408Y16911D01*
X112425Y16893D01*
X112450Y16877D01*
X112479Y16866D01*
X112512Y16861D01*
X112542D01*
X112567Y16866D01*
X112596Y16877D01*
X112621Y16893D01*
X112638Y16909D01*
X112650Y16930D01*
Y16949D01*
X112642Y16970D01*
X112625Y16986D01*
G01X112400Y17089D02*
X112650D01*
X112400Y17211D01*
X112650D01*
G01X112400Y17311D02*
X112650D01*
Y17365D01*
X112638Y17386D01*
X112621Y17402D01*
X112596Y17415D01*
X112567Y17426D01*
X112525Y17429D01*
X112483Y17426D01*
X112454Y17415D01*
X112429Y17402D01*
X112413Y17386D01*
X112400Y17365D01*
Y17311D01*
G01X114525Y16946D02*
Y16999D01*
X114450D01*
X114425Y16983D01*
X114408Y16965D01*
X114400Y16938D01*
X114408Y16911D01*
X114425Y16893D01*
X114450Y16877D01*
X114479Y16866D01*
X114512Y16861D01*
X114542D01*
X114567Y16866D01*
X114596Y16877D01*
X114621Y16893D01*
X114638Y16909D01*
X114650Y16930D01*
Y16949D01*
X114642Y16970D01*
X114625Y16986D01*
G01X114400Y17089D02*
X114650D01*
X114400Y17211D01*
X114650D01*
G01X114400Y17311D02*
X114650D01*
Y17365D01*
X114638Y17386D01*
X114621Y17402D01*
X114596Y17415D01*
X114567Y17426D01*
X114525Y17429D01*
X114483Y17426D01*
X114454Y17415D01*
X114429Y17402D01*
X114412Y17386D01*
X114400Y17365D01*
Y17311D01*
G01X112975Y16946D02*
Y16999D01*
X112900D01*
X112875Y16983D01*
X112858Y16965D01*
X112850Y16938D01*
X112858Y16911D01*
X112875Y16893D01*
X112900Y16877D01*
X112929Y16866D01*
X112962Y16861D01*
X112992D01*
X113017Y16866D01*
X113046Y16877D01*
X113071Y16893D01*
X113088Y16909D01*
X113100Y16930D01*
Y16949D01*
X113092Y16970D01*
X113075Y16986D01*
G01X112850Y17089D02*
X113100D01*
X112850Y17211D01*
X113100D01*
G01X112850Y17311D02*
X113100D01*
Y17365D01*
X113088Y17386D01*
X113071Y17402D01*
X113046Y17415D01*
X113017Y17426D01*
X112975Y17429D01*
X112933Y17426D01*
X112904Y17415D01*
X112879Y17402D01*
X112863Y17386D01*
X112850Y17365D01*
Y17311D01*
G01X113475Y16946D02*
Y16999D01*
X113400D01*
X113375Y16983D01*
X113358Y16965D01*
X113350Y16938D01*
X113358Y16911D01*
X113375Y16893D01*
X113400Y16877D01*
X113429Y16866D01*
X113462Y16861D01*
X113492D01*
X113517Y16866D01*
X113546Y16877D01*
X113571Y16893D01*
X113588Y16909D01*
X113600Y16930D01*
Y16949D01*
X113592Y16970D01*
X113575Y16986D01*
G01X113350Y17089D02*
X113600D01*
X113350Y17211D01*
X113600D01*
G01X113350Y17311D02*
X113600D01*
Y17365D01*
X113588Y17386D01*
X113571Y17402D01*
X113546Y17415D01*
X113517Y17426D01*
X113475Y17429D01*
X113433Y17426D01*
X113404Y17415D01*
X113379Y17402D01*
X113362Y17386D01*
X113350Y17365D01*
Y17311D01*
G01X113975Y16946D02*
Y16999D01*
X113900D01*
X113875Y16983D01*
X113858Y16965D01*
X113850Y16938D01*
X113858Y16911D01*
X113875Y16893D01*
X113900Y16877D01*
X113929Y16866D01*
X113962Y16861D01*
X113992D01*
X114017Y16866D01*
X114046Y16877D01*
X114071Y16893D01*
X114088Y16909D01*
X114100Y16930D01*
Y16949D01*
X114092Y16970D01*
X114075Y16986D01*
G01X113850Y17089D02*
X114100D01*
X113850Y17211D01*
X114100D01*
G01X113850Y17311D02*
X114100D01*
Y17365D01*
X114088Y17386D01*
X114071Y17402D01*
X114046Y17415D01*
X114017Y17426D01*
X113975Y17429D01*
X113933Y17426D01*
X113904Y17415D01*
X113879Y17402D01*
X113862Y17386D01*
X113850Y17365D01*
Y17311D01*
G01X115475Y3596D02*
Y3649D01*
X115400D01*
X115375Y3633D01*
X115358Y3615D01*
X115350Y3588D01*
X115358Y3561D01*
X115375Y3543D01*
X115400Y3527D01*
X115429Y3516D01*
X115462Y3511D01*
X115492D01*
X115517Y3516D01*
X115546Y3527D01*
X115571Y3543D01*
X115588Y3559D01*
X115600Y3580D01*
Y3599D01*
X115592Y3620D01*
X115575Y3636D01*
G01X115350Y3739D02*
X115600D01*
X115350Y3861D01*
X115600D01*
G01X115350Y3961D02*
X115600D01*
Y4015D01*
X115588Y4036D01*
X115571Y4052D01*
X115546Y4065D01*
X115517Y4076D01*
X115475Y4079D01*
X115433Y4076D01*
X115404Y4065D01*
X115379Y4052D01*
X115363Y4036D01*
X115350Y4015D01*
Y3961D01*
G01X116475Y3596D02*
Y3649D01*
X116400D01*
X116375Y3633D01*
X116358Y3615D01*
X116350Y3588D01*
X116358Y3561D01*
X116375Y3543D01*
X116400Y3527D01*
X116429Y3516D01*
X116462Y3511D01*
X116492D01*
X116517Y3516D01*
X116546Y3527D01*
X116571Y3543D01*
X116588Y3559D01*
X116600Y3580D01*
Y3599D01*
X116592Y3620D01*
X116575Y3636D01*
G01X116350Y3739D02*
X116600D01*
X116350Y3861D01*
X116600D01*
G01X116350Y3961D02*
X116600D01*
Y4015D01*
X116588Y4036D01*
X116571Y4052D01*
X116546Y4065D01*
X116517Y4076D01*
X116475Y4079D01*
X116433Y4076D01*
X116404Y4065D01*
X116379Y4052D01*
X116362Y4036D01*
X116350Y4015D01*
Y3961D01*
G01X115975Y3596D02*
Y3649D01*
X115900D01*
X115875Y3633D01*
X115858Y3615D01*
X115850Y3588D01*
X115858Y3561D01*
X115875Y3543D01*
X115900Y3527D01*
X115929Y3516D01*
X115962Y3511D01*
X115992D01*
X116017Y3516D01*
X116046Y3527D01*
X116071Y3543D01*
X116088Y3559D01*
X116100Y3580D01*
Y3599D01*
X116092Y3620D01*
X116075Y3636D01*
G01X115850Y3739D02*
X116100D01*
X115850Y3861D01*
X116100D01*
G01X115850Y3961D02*
X116100D01*
Y4015D01*
X116088Y4036D01*
X116071Y4052D01*
X116046Y4065D01*
X116017Y4076D01*
X115975Y4079D01*
X115933Y4076D01*
X115904Y4065D01*
X115879Y4052D01*
X115862Y4036D01*
X115850Y4015D01*
Y3961D01*
G01X115025Y3596D02*
Y3649D01*
X114950D01*
X114925Y3633D01*
X114908Y3615D01*
X114900Y3588D01*
X114908Y3561D01*
X114925Y3543D01*
X114950Y3527D01*
X114979Y3516D01*
X115012Y3511D01*
X115042D01*
X115067Y3516D01*
X115096Y3527D01*
X115121Y3543D01*
X115138Y3559D01*
X115150Y3580D01*
Y3599D01*
X115142Y3620D01*
X115125Y3636D01*
G01X114900Y3739D02*
X115150D01*
X114900Y3861D01*
X115150D01*
G01X114900Y3961D02*
X115150D01*
Y4015D01*
X115138Y4036D01*
X115121Y4052D01*
X115096Y4065D01*
X115067Y4076D01*
X115025Y4079D01*
X114983Y4076D01*
X114954Y4065D01*
X114929Y4052D01*
X114913Y4036D01*
X114900Y4015D01*
Y3961D01*
G01X116475Y16946D02*
Y16999D01*
X116400D01*
X116375Y16983D01*
X116358Y16965D01*
X116350Y16938D01*
X116358Y16911D01*
X116375Y16893D01*
X116400Y16877D01*
X116429Y16866D01*
X116462Y16861D01*
X116492D01*
X116517Y16866D01*
X116546Y16877D01*
X116571Y16893D01*
X116588Y16909D01*
X116600Y16930D01*
Y16949D01*
X116592Y16970D01*
X116575Y16986D01*
G01X116350Y17089D02*
X116600D01*
X116350Y17211D01*
X116600D01*
G01X116350Y17311D02*
X116600D01*
Y17365D01*
X116588Y17386D01*
X116571Y17402D01*
X116546Y17415D01*
X116517Y17426D01*
X116475Y17429D01*
X116433Y17426D01*
X116404Y17415D01*
X116379Y17402D01*
X116362Y17386D01*
X116350Y17365D01*
Y17311D01*
G01X115025Y16946D02*
Y16999D01*
X114950D01*
X114925Y16983D01*
X114908Y16965D01*
X114900Y16938D01*
X114908Y16911D01*
X114925Y16893D01*
X114950Y16877D01*
X114979Y16866D01*
X115012Y16861D01*
X115042D01*
X115067Y16866D01*
X115096Y16877D01*
X115121Y16893D01*
X115138Y16909D01*
X115150Y16930D01*
Y16949D01*
X115142Y16970D01*
X115125Y16986D01*
G01X114900Y17089D02*
X115150D01*
X114900Y17211D01*
X115150D01*
G01X114900Y17311D02*
X115150D01*
Y17365D01*
X115138Y17386D01*
X115121Y17402D01*
X115096Y17415D01*
X115067Y17426D01*
X115025Y17429D01*
X114983Y17426D01*
X114954Y17415D01*
X114929Y17402D01*
X114913Y17386D01*
X114900Y17365D01*
Y17311D01*
G01X115475Y16946D02*
Y16999D01*
X115400D01*
X115375Y16983D01*
X115358Y16965D01*
X115350Y16938D01*
X115358Y16911D01*
X115375Y16893D01*
X115400Y16877D01*
X115429Y16866D01*
X115462Y16861D01*
X115492D01*
X115517Y16866D01*
X115546Y16877D01*
X115571Y16893D01*
X115588Y16909D01*
X115600Y16930D01*
Y16949D01*
X115592Y16970D01*
X115575Y16986D01*
G01X115350Y17089D02*
X115600D01*
X115350Y17211D01*
X115600D01*
G01X115350Y17311D02*
X115600D01*
Y17365D01*
X115588Y17386D01*
X115571Y17402D01*
X115546Y17415D01*
X115517Y17426D01*
X115475Y17429D01*
X115433Y17426D01*
X115404Y17415D01*
X115379Y17402D01*
X115363Y17386D01*
X115350Y17365D01*
Y17311D01*
G01X115975Y16946D02*
Y16999D01*
X115900D01*
X115875Y16983D01*
X115858Y16965D01*
X115850Y16938D01*
X115858Y16911D01*
X115875Y16893D01*
X115900Y16877D01*
X115929Y16866D01*
X115962Y16861D01*
X115992D01*
X116017Y16866D01*
X116046Y16877D01*
X116071Y16893D01*
X116088Y16909D01*
X116100Y16930D01*
Y16949D01*
X116092Y16970D01*
X116075Y16986D01*
G01X115850Y17089D02*
X116100D01*
X115850Y17211D01*
X116100D01*
G01X115850Y17311D02*
X116100D01*
Y17365D01*
X116088Y17386D01*
X116071Y17402D01*
X116046Y17415D01*
X116017Y17426D01*
X115975Y17429D01*
X115933Y17426D01*
X115904Y17415D01*
X115879Y17402D01*
X115862Y17386D01*
X115850Y17365D01*
Y17311D01*
G01X117975Y3596D02*
Y3649D01*
X117900D01*
X117875Y3633D01*
X117858Y3615D01*
X117850Y3588D01*
X117858Y3561D01*
X117875Y3543D01*
X117900Y3527D01*
X117929Y3516D01*
X117962Y3511D01*
X117992D01*
X118017Y3516D01*
X118046Y3527D01*
X118071Y3543D01*
X118088Y3559D01*
X118100Y3580D01*
Y3599D01*
X118092Y3620D01*
X118075Y3636D01*
G01X117850Y3739D02*
X118100D01*
X117850Y3861D01*
X118100D01*
G01X117850Y3961D02*
X118100D01*
Y4015D01*
X118088Y4036D01*
X118071Y4052D01*
X118046Y4065D01*
X118017Y4076D01*
X117975Y4079D01*
X117933Y4076D01*
X117904Y4065D01*
X117879Y4052D01*
X117863Y4036D01*
X117850Y4015D01*
Y3961D01*
G01X118475Y3596D02*
Y3649D01*
X118400D01*
X118375Y3633D01*
X118358Y3615D01*
X118350Y3588D01*
X118358Y3561D01*
X118375Y3543D01*
X118400Y3527D01*
X118429Y3516D01*
X118462Y3511D01*
X118492D01*
X118517Y3516D01*
X118546Y3527D01*
X118571Y3543D01*
X118588Y3559D01*
X118600Y3580D01*
Y3599D01*
X118592Y3620D01*
X118575Y3636D01*
G01X118350Y3739D02*
X118600D01*
X118350Y3861D01*
X118600D01*
G01X118350Y3961D02*
X118600D01*
Y4015D01*
X118588Y4036D01*
X118571Y4052D01*
X118546Y4065D01*
X118517Y4076D01*
X118475Y4079D01*
X118433Y4076D01*
X118404Y4065D01*
X118379Y4052D01*
X118362Y4036D01*
X118350Y4015D01*
Y3961D01*
G01X117025Y3596D02*
Y3649D01*
X116950D01*
X116925Y3633D01*
X116908Y3615D01*
X116900Y3588D01*
X116908Y3561D01*
X116925Y3543D01*
X116950Y3527D01*
X116979Y3516D01*
X117012Y3511D01*
X117042D01*
X117067Y3516D01*
X117096Y3527D01*
X117121Y3543D01*
X117138Y3559D01*
X117150Y3580D01*
Y3599D01*
X117142Y3620D01*
X117125Y3636D01*
G01X116900Y3739D02*
X117150D01*
X116900Y3861D01*
X117150D01*
G01X116900Y3961D02*
X117150D01*
Y4015D01*
X117138Y4036D01*
X117121Y4052D01*
X117096Y4065D01*
X117067Y4076D01*
X117025Y4079D01*
X116983Y4076D01*
X116954Y4065D01*
X116929Y4052D01*
X116912Y4036D01*
X116900Y4015D01*
Y3961D01*
G01X117525Y3596D02*
Y3649D01*
X117450D01*
X117425Y3633D01*
X117408Y3615D01*
X117400Y3588D01*
X117408Y3561D01*
X117425Y3543D01*
X117450Y3527D01*
X117479Y3516D01*
X117512Y3511D01*
X117542D01*
X117567Y3516D01*
X117596Y3527D01*
X117621Y3543D01*
X117638Y3559D01*
X117650Y3580D01*
Y3599D01*
X117642Y3620D01*
X117625Y3636D01*
G01X117400Y3739D02*
X117650D01*
X117400Y3861D01*
X117650D01*
G01X117400Y3961D02*
X117650D01*
Y4015D01*
X117638Y4036D01*
X117621Y4052D01*
X117596Y4065D01*
X117567Y4076D01*
X117525Y4079D01*
X117483Y4076D01*
X117454Y4065D01*
X117429Y4052D01*
X117413Y4036D01*
X117400Y4015D01*
Y3961D01*
G01X117025Y16946D02*
Y16999D01*
X116950D01*
X116925Y16983D01*
X116908Y16965D01*
X116900Y16938D01*
X116908Y16911D01*
X116925Y16893D01*
X116950Y16877D01*
X116979Y16866D01*
X117012Y16861D01*
X117042D01*
X117067Y16866D01*
X117096Y16877D01*
X117121Y16893D01*
X117138Y16909D01*
X117150Y16930D01*
Y16949D01*
X117142Y16970D01*
X117125Y16986D01*
G01X116900Y17089D02*
X117150D01*
X116900Y17211D01*
X117150D01*
G01X116900Y17311D02*
X117150D01*
Y17365D01*
X117138Y17386D01*
X117121Y17402D01*
X117096Y17415D01*
X117067Y17426D01*
X117025Y17429D01*
X116983Y17426D01*
X116954Y17415D01*
X116929Y17402D01*
X116912Y17386D01*
X116900Y17365D01*
Y17311D01*
G01X118475Y16946D02*
Y16999D01*
X118400D01*
X118375Y16983D01*
X118358Y16965D01*
X118350Y16938D01*
X118358Y16911D01*
X118375Y16893D01*
X118400Y16877D01*
X118429Y16866D01*
X118462Y16861D01*
X118492D01*
X118517Y16866D01*
X118546Y16877D01*
X118571Y16893D01*
X118588Y16909D01*
X118600Y16930D01*
Y16949D01*
X118592Y16970D01*
X118575Y16986D01*
G01X118350Y17089D02*
X118600D01*
X118350Y17211D01*
X118600D01*
G01X118350Y17311D02*
X118600D01*
Y17365D01*
X118588Y17386D01*
X118571Y17402D01*
X118546Y17415D01*
X118517Y17426D01*
X118475Y17429D01*
X118433Y17426D01*
X118404Y17415D01*
X118379Y17402D01*
X118362Y17386D01*
X118350Y17365D01*
Y17311D01*
G01X117525Y16946D02*
Y16999D01*
X117450D01*
X117425Y16983D01*
X117408Y16965D01*
X117400Y16938D01*
X117408Y16911D01*
X117425Y16893D01*
X117450Y16877D01*
X117479Y16866D01*
X117512Y16861D01*
X117542D01*
X117567Y16866D01*
X117596Y16877D01*
X117621Y16893D01*
X117638Y16909D01*
X117650Y16930D01*
Y16949D01*
X117642Y16970D01*
X117625Y16986D01*
G01X117400Y17089D02*
X117650D01*
X117400Y17211D01*
X117650D01*
G01X117400Y17311D02*
X117650D01*
Y17365D01*
X117638Y17386D01*
X117621Y17402D01*
X117596Y17415D01*
X117567Y17426D01*
X117525Y17429D01*
X117483Y17426D01*
X117454Y17415D01*
X117429Y17402D01*
X117413Y17386D01*
X117400Y17365D01*
Y17311D01*
G01X117975Y16946D02*
Y16999D01*
X117900D01*
X117875Y16983D01*
X117858Y16965D01*
X117850Y16938D01*
X117858Y16911D01*
X117875Y16893D01*
X117900Y16877D01*
X117929Y16866D01*
X117962Y16861D01*
X117992D01*
X118017Y16866D01*
X118046Y16877D01*
X118071Y16893D01*
X118088Y16909D01*
X118100Y16930D01*
Y16949D01*
X118092Y16970D01*
X118075Y16986D01*
G01X117850Y17089D02*
X118100D01*
X117850Y17211D01*
X118100D01*
G01X117850Y17311D02*
X118100D01*
Y17365D01*
X118088Y17386D01*
X118071Y17402D01*
X118046Y17415D01*
X118017Y17426D01*
X117975Y17429D01*
X117933Y17426D01*
X117904Y17415D01*
X117879Y17402D01*
X117863Y17386D01*
X117850Y17365D01*
Y17311D01*
G01X120475Y3596D02*
Y3649D01*
X120400D01*
X120375Y3633D01*
X120358Y3615D01*
X120350Y3588D01*
X120358Y3561D01*
X120375Y3543D01*
X120400Y3527D01*
X120429Y3516D01*
X120462Y3511D01*
X120492D01*
X120517Y3516D01*
X120546Y3527D01*
X120571Y3543D01*
X120588Y3559D01*
X120600Y3580D01*
Y3599D01*
X120592Y3620D01*
X120575Y3636D01*
G01X120350Y3739D02*
X120600D01*
X120350Y3861D01*
X120600D01*
G01X120350Y3961D02*
X120600D01*
Y4015D01*
X120588Y4036D01*
X120571Y4052D01*
X120546Y4065D01*
X120517Y4076D01*
X120475Y4079D01*
X120433Y4076D01*
X120404Y4065D01*
X120379Y4052D01*
X120363Y4036D01*
X120350Y4015D01*
Y3961D01*
G01X119975Y3596D02*
Y3649D01*
X119900D01*
X119875Y3633D01*
X119858Y3615D01*
X119850Y3588D01*
X119858Y3561D01*
X119875Y3543D01*
X119900Y3527D01*
X119929Y3516D01*
X119962Y3511D01*
X119992D01*
X120017Y3516D01*
X120046Y3527D01*
X120071Y3543D01*
X120088Y3559D01*
X120100Y3580D01*
Y3599D01*
X120092Y3620D01*
X120075Y3636D01*
G01X119850Y3739D02*
X120100D01*
X119850Y3861D01*
X120100D01*
G01X119850Y3961D02*
X120100D01*
Y4015D01*
X120088Y4036D01*
X120071Y4052D01*
X120046Y4065D01*
X120017Y4076D01*
X119975Y4079D01*
X119933Y4076D01*
X119904Y4065D01*
X119879Y4052D01*
X119862Y4036D01*
X119850Y4015D01*
Y3961D01*
G01X118975Y3596D02*
Y3649D01*
X118900D01*
X118875Y3633D01*
X118858Y3615D01*
X118850Y3588D01*
X118858Y3561D01*
X118875Y3543D01*
X118900Y3527D01*
X118929Y3516D01*
X118962Y3511D01*
X118992D01*
X119017Y3516D01*
X119046Y3527D01*
X119071Y3543D01*
X119088Y3559D01*
X119100Y3580D01*
Y3599D01*
X119092Y3620D01*
X119075Y3636D01*
G01X118850Y3739D02*
X119100D01*
X118850Y3861D01*
X119100D01*
G01X118850Y3961D02*
X119100D01*
Y4015D01*
X119088Y4036D01*
X119071Y4052D01*
X119046Y4065D01*
X119017Y4076D01*
X118975Y4079D01*
X118933Y4076D01*
X118904Y4065D01*
X118879Y4052D01*
X118862Y4036D01*
X118850Y4015D01*
Y3961D01*
G01X119525Y3596D02*
Y3649D01*
X119450D01*
X119425Y3633D01*
X119408Y3615D01*
X119400Y3588D01*
X119408Y3561D01*
X119425Y3543D01*
X119450Y3527D01*
X119479Y3516D01*
X119512Y3511D01*
X119542D01*
X119567Y3516D01*
X119596Y3527D01*
X119621Y3543D01*
X119638Y3559D01*
X119650Y3580D01*
Y3599D01*
X119642Y3620D01*
X119625Y3636D01*
G01X119400Y3739D02*
X119650D01*
X119400Y3861D01*
X119650D01*
G01X119400Y3961D02*
X119650D01*
Y4015D01*
X119638Y4036D01*
X119621Y4052D01*
X119596Y4065D01*
X119567Y4076D01*
X119525Y4079D01*
X119483Y4076D01*
X119454Y4065D01*
X119429Y4052D01*
X119412Y4036D01*
X119400Y4015D01*
Y3961D01*
G01X120975Y3596D02*
Y3649D01*
X120900D01*
X120875Y3633D01*
X120858Y3615D01*
X120850Y3588D01*
X120858Y3561D01*
X120875Y3543D01*
X120900Y3527D01*
X120929Y3516D01*
X120962Y3511D01*
X120992D01*
X121017Y3516D01*
X121046Y3527D01*
X121071Y3543D01*
X121088Y3559D01*
X121100Y3580D01*
Y3599D01*
X121092Y3620D01*
X121075Y3636D01*
G01X120850Y3739D02*
X121100D01*
X120850Y3861D01*
X121100D01*
G01X120850Y3961D02*
X121100D01*
Y4015D01*
X121088Y4036D01*
X121071Y4052D01*
X121046Y4065D01*
X121017Y4076D01*
X120975Y4079D01*
X120933Y4076D01*
X120904Y4065D01*
X120879Y4052D01*
X120862Y4036D01*
X120850Y4015D01*
Y3961D01*
G01X118975Y16946D02*
Y16999D01*
X118900D01*
X118875Y16983D01*
X118858Y16965D01*
X118850Y16938D01*
X118858Y16911D01*
X118875Y16893D01*
X118900Y16877D01*
X118929Y16866D01*
X118962Y16861D01*
X118992D01*
X119017Y16866D01*
X119046Y16877D01*
X119071Y16893D01*
X119088Y16909D01*
X119100Y16930D01*
Y16949D01*
X119092Y16970D01*
X119075Y16986D01*
G01X118850Y17089D02*
X119100D01*
X118850Y17211D01*
X119100D01*
G01X118850Y17311D02*
X119100D01*
Y17365D01*
X119088Y17386D01*
X119071Y17402D01*
X119046Y17415D01*
X119017Y17426D01*
X118975Y17429D01*
X118933Y17426D01*
X118904Y17415D01*
X118879Y17402D01*
X118862Y17386D01*
X118850Y17365D01*
Y17311D01*
G01X120975Y16946D02*
Y16999D01*
X120900D01*
X120875Y16983D01*
X120858Y16965D01*
X120850Y16938D01*
X120858Y16911D01*
X120875Y16893D01*
X120900Y16877D01*
X120929Y16866D01*
X120962Y16861D01*
X120992D01*
X121017Y16866D01*
X121046Y16877D01*
X121071Y16893D01*
X121088Y16909D01*
X121100Y16930D01*
Y16949D01*
X121092Y16970D01*
X121075Y16986D01*
G01X120850Y17089D02*
X121100D01*
X120850Y17211D01*
X121100D01*
G01X120850Y17311D02*
X121100D01*
Y17365D01*
X121088Y17386D01*
X121071Y17402D01*
X121046Y17415D01*
X121017Y17426D01*
X120975Y17429D01*
X120933Y17426D01*
X120904Y17415D01*
X120879Y17402D01*
X120862Y17386D01*
X120850Y17365D01*
Y17311D01*
G01X119525Y16946D02*
Y16999D01*
X119450D01*
X119425Y16983D01*
X119408Y16965D01*
X119400Y16938D01*
X119408Y16911D01*
X119425Y16893D01*
X119450Y16877D01*
X119479Y16866D01*
X119512Y16861D01*
X119542D01*
X119567Y16866D01*
X119596Y16877D01*
X119621Y16893D01*
X119638Y16909D01*
X119650Y16930D01*
Y16949D01*
X119642Y16970D01*
X119625Y16986D01*
G01X119400Y17089D02*
X119650D01*
X119400Y17211D01*
X119650D01*
G01X119400Y17311D02*
X119650D01*
Y17365D01*
X119638Y17386D01*
X119621Y17402D01*
X119596Y17415D01*
X119567Y17426D01*
X119525Y17429D01*
X119483Y17426D01*
X119454Y17415D01*
X119429Y17402D01*
X119412Y17386D01*
X119400Y17365D01*
Y17311D01*
G01X119975Y16946D02*
Y16999D01*
X119900D01*
X119875Y16983D01*
X119858Y16965D01*
X119850Y16938D01*
X119858Y16911D01*
X119875Y16893D01*
X119900Y16877D01*
X119929Y16866D01*
X119962Y16861D01*
X119992D01*
X120017Y16866D01*
X120046Y16877D01*
X120071Y16893D01*
X120088Y16909D01*
X120100Y16930D01*
Y16949D01*
X120092Y16970D01*
X120075Y16986D01*
G01X119850Y17089D02*
X120100D01*
X119850Y17211D01*
X120100D01*
G01X119850Y17311D02*
X120100D01*
Y17365D01*
X120088Y17386D01*
X120071Y17402D01*
X120046Y17415D01*
X120017Y17426D01*
X119975Y17429D01*
X119933Y17426D01*
X119904Y17415D01*
X119879Y17402D01*
X119862Y17386D01*
X119850Y17365D01*
Y17311D01*
G01X120475Y16946D02*
Y16999D01*
X120400D01*
X120375Y16983D01*
X120358Y16965D01*
X120350Y16938D01*
X120358Y16911D01*
X120375Y16893D01*
X120400Y16877D01*
X120429Y16866D01*
X120462Y16861D01*
X120492D01*
X120517Y16866D01*
X120546Y16877D01*
X120571Y16893D01*
X120588Y16909D01*
X120600Y16930D01*
Y16949D01*
X120592Y16970D01*
X120575Y16986D01*
G01X120350Y17089D02*
X120600D01*
X120350Y17211D01*
X120600D01*
G01X120350Y17311D02*
X120600D01*
Y17365D01*
X120588Y17386D01*
X120571Y17402D01*
X120546Y17415D01*
X120517Y17426D01*
X120475Y17429D01*
X120433Y17426D01*
X120404Y17415D01*
X120379Y17402D01*
X120363Y17386D01*
X120350Y17365D01*
Y17311D01*
G01X121485Y3616D02*
Y3669D01*
X121410D01*
X121385Y3653D01*
X121368Y3635D01*
X121360Y3608D01*
X121368Y3581D01*
X121385Y3563D01*
X121410Y3547D01*
X121439Y3536D01*
X121472Y3531D01*
X121502D01*
X121527Y3536D01*
X121556Y3547D01*
X121581Y3563D01*
X121598Y3579D01*
X121610Y3600D01*
Y3619D01*
X121602Y3640D01*
X121585Y3656D01*
G01X121360Y3759D02*
X121610D01*
X121360Y3881D01*
X121610D01*
G01X121360Y3981D02*
X121610D01*
Y4035D01*
X121598Y4056D01*
X121581Y4072D01*
X121556Y4085D01*
X121527Y4096D01*
X121485Y4099D01*
X121443Y4096D01*
X121414Y4085D01*
X121389Y4072D01*
X121372Y4056D01*
X121360Y4035D01*
Y3981D01*
G01X122220Y3409D02*
X122470D01*
Y3511D01*
G01X122349Y3473D02*
Y3409D01*
G01X122470Y3621D02*
X122291D01*
X122253Y3632D01*
X122228Y3653D01*
X122220Y3680D01*
X122228Y3707D01*
X122253Y3728D01*
X122291Y3739D01*
X122470D01*
G01X122253Y3844D02*
X122232Y3865D01*
X122220Y3889D01*
Y3911D01*
X122232Y3932D01*
X122253Y3948D01*
X122283Y3956D01*
X122312Y3951D01*
X122337Y3937D01*
X122353Y3913D01*
X122362Y3881D01*
X122378Y3863D01*
X122408Y3855D01*
X122437Y3860D01*
X122458Y3873D01*
X122470Y3892D01*
Y3911D01*
X122462Y3929D01*
X122441Y3945D01*
G01X122220Y4173D02*
Y4067D01*
X122470D01*
Y4173D01*
G01X122349Y4131D02*
Y4067D01*
G01X122428Y4289D02*
X122453Y4305D01*
X122466Y4324D01*
X122470Y4345D01*
X122462Y4372D01*
X122441Y4391D01*
X122416Y4396D01*
X122391Y4393D01*
X122370Y4383D01*
X122328Y4329D01*
X122299Y4305D01*
X122258Y4289D01*
X122220Y4284D01*
Y4396D01*
G01X122045Y3486D02*
Y3539D01*
X121970D01*
X121945Y3523D01*
X121928Y3505D01*
X121920Y3478D01*
X121928Y3451D01*
X121945Y3433D01*
X121970Y3417D01*
X121999Y3406D01*
X122032Y3401D01*
X122062D01*
X122087Y3406D01*
X122116Y3417D01*
X122141Y3433D01*
X122158Y3449D01*
X122170Y3470D01*
Y3489D01*
X122162Y3510D01*
X122145Y3526D01*
G01X121920Y3629D02*
X122170D01*
X121920Y3751D01*
X122170D01*
G01X121920Y3851D02*
X122170D01*
Y3905D01*
X122158Y3926D01*
X122141Y3942D01*
X122116Y3955D01*
X122087Y3966D01*
X122045Y3969D01*
X122003Y3966D01*
X121974Y3955D01*
X121949Y3942D01*
X121933Y3926D01*
X121920Y3905D01*
Y3851D01*
G01X121912Y4082D02*
X122170Y4178D01*
G01X121475Y16796D02*
Y16849D01*
X121400D01*
X121375Y16833D01*
X121358Y16815D01*
X121350Y16788D01*
X121358Y16761D01*
X121375Y16743D01*
X121400Y16727D01*
X121429Y16716D01*
X121462Y16711D01*
X121492D01*
X121517Y16716D01*
X121546Y16727D01*
X121571Y16743D01*
X121588Y16759D01*
X121600Y16780D01*
Y16799D01*
X121592Y16820D01*
X121575Y16836D01*
G01X121350Y16939D02*
X121600D01*
X121350Y17061D01*
X121600D01*
G01X121350Y17161D02*
X121600D01*
Y17215D01*
X121588Y17236D01*
X121571Y17252D01*
X121546Y17265D01*
X121517Y17276D01*
X121475Y17279D01*
X121433Y17276D01*
X121404Y17265D01*
X121379Y17252D01*
X121362Y17236D01*
X121350Y17215D01*
Y17161D01*
G01X121342Y17392D02*
X121600Y17488D01*
G01X121350Y17604D02*
X121600D01*
G01Y17716D02*
X121350D01*
G01X121475D02*
Y17604D01*
G01Y17896D02*
Y17949D01*
X121400D01*
X121375Y17933D01*
X121358Y17915D01*
X121350Y17888D01*
X121358Y17861D01*
X121375Y17843D01*
X121400Y17827D01*
X121429Y17816D01*
X121462Y17811D01*
X121492D01*
X121517Y17816D01*
X121546Y17827D01*
X121571Y17843D01*
X121588Y17859D01*
X121600Y17880D01*
Y17899D01*
X121592Y17920D01*
X121575Y17936D01*
G01X121350Y18039D02*
X121600D01*
X121350Y18161D01*
X121600D01*
G01X121350Y18261D02*
X121600D01*
Y18315D01*
X121588Y18336D01*
X121571Y18352D01*
X121546Y18365D01*
X121517Y18376D01*
X121475Y18379D01*
X121433Y18376D01*
X121404Y18365D01*
X121379Y18352D01*
X121362Y18336D01*
X121350Y18315D01*
Y18261D01*
G54D29*
X19425Y2010D03*
X19225Y5860D03*
X19425Y6960D03*
X19225Y10810D03*
X19475Y12960D03*
X19275Y16810D03*
X20015Y2010D03*
X19815Y5860D03*
X20015Y6960D03*
X19815Y10810D03*
X20065Y12960D03*
X19865Y16810D03*
X38505Y10450D03*
X41055Y8200D03*
X40705Y9400D03*
X39095Y10450D03*
X41645Y8200D03*
X41295Y9400D03*
X42795Y11090D03*
X42205D03*
X57905Y26550D03*
X58495D03*
X63495D03*
X62905D03*
X68495D03*
X67905D03*
X73495D03*
X72905D03*
X112045D03*
X111455D03*
X115795Y26600D03*
X115205D03*
X116325Y36070D03*
X116285Y40560D03*
X116915Y36070D03*
X116875Y40560D03*
X119495Y26600D03*
X118905D03*
X122755D03*
X123345D03*
G54D38*
X27966Y10755D03*
Y12645D03*
X28734Y10755D03*
X28478D03*
X28222D03*
Y12645D03*
X28478D03*
X28734D03*
X43116Y13055D03*
Y14945D03*
X43884Y13055D03*
X43628D03*
X43372D03*
Y14945D03*
X43628D03*
X43884D03*
G54D39*
X26425Y14440D03*
X27175D03*
Y15460D03*
X26800D03*
X26425D03*
X33425Y15260D03*
X32675D03*
Y14240D03*
X33050D03*
X33425D03*
M02*
